<?xml version="1.0" encoding="UTF-8" standalone="no"?>
<!-- Created with Inkscape (http://www.inkscape.org/) -->

<svg
   xmlns:dc="http://purl.org/dc/elements/1.1/"
   xmlns:cc="http://creativecommons.org/ns#"
   xmlns:rdf="http://www.w3.org/1999/02/22-rdf-syntax-ns#"
   xmlns:svg="http://www.w3.org/2000/svg"
   xmlns="http://www.w3.org/2000/svg"
   xmlns:xlink="http://www.w3.org/1999/xlink"
   version="1.1"
   width="512"
   height="512"
   id="svg2">
  <defs
     id="defs4">
    <linearGradient
       id="linearGradient3170">
      <stop
         id="stop3172"
         style="stop-color:#cc7110;stop-opacity:1"
         offset="0" />
      <stop
         id="stop3174"
         style="stop-color:#673f0b;stop-opacity:0.78448278"
         offset="1" />
    </linearGradient>
    <linearGradient
       id="linearGradient3938">
      <stop
         id="stop3940"
         style="stop-color:#b1f1ee;stop-opacity:0.93103451"
         offset="0" />
      <stop
         id="stop3942"
         style="stop-color:#132682;stop-opacity:1"
         offset="1" />
    </linearGradient>
    <linearGradient
       x1="64.477501"
       y1="56.3008"
       x2="78.466103"
       y2="48.0854"
       id="XMLID_74_-8-1"
       gradientUnits="userSpaceOnUse">
      <stop
         id="stop155-3-8"
         style="stop-color:#ffffff;stop-opacity:1"
         offset="0" />
      <stop
         id="stop157-94-6"
         style="stop-color:#e6e6e6;stop-opacity:1"
         offset="1" />
    </linearGradient>
    <radialGradient
       cx="558.35437"
       cy="385.4841"
       r="191.6187"
       fx="558.35437"
       fy="385.4841"
       id="radialGradient3867"
       xlink:href="#XMLID_74_-8-1"
       gradientUnits="userSpaceOnUse"
       gradientTransform="matrix(1,0,0,1.0499906,0,-19.270593)" />
    <linearGradient
       x1="200.0508"
       y1="185.0742"
       x2="200.0508"
       y2="217.4595"
       id="SVGID_2_"
       gradientUnits="userSpaceOnUse">
      <stop
         id="stop13"
         style="stop-color:#61b74a;stop-opacity:1"
         offset="0" />
      <stop
         id="stop15"
         style="stop-color:#449934;stop-opacity:1"
         offset="1" />
    </linearGradient>
    <linearGradient
       x1="200.0508"
       y1="185.0742"
       x2="200.0508"
       y2="217.4595"
       id="linearGradient3021"
       xlink:href="#SVGID_2_"
       gradientUnits="userSpaceOnUse"
       gradientTransform="matrix(13.577628,0,0,13.577628,-2026.1619,-2566.7096)" />
    <linearGradient
       x1="19.244999"
       y1="21.030804"
       x2="19.360001"
       y2="44.984001"
       id="linearGradient2460"
       gradientUnits="userSpaceOnUse">
      <stop
         id="stop3602"
         style="stop-color:#fafafa;stop-opacity:1"
         offset="0" />
      <stop
         id="stop3604"
         style="stop-color:#f0f0f0;stop-opacity:1"
         offset="1" />
    </linearGradient>
    <linearGradient
       x1="19.244999"
       y1="21.030804"
       x2="19.360001"
       y2="44.984001"
       id="linearGradient3096"
       xlink:href="#linearGradient2460"
       gradientUnits="userSpaceOnUse"
       gradientTransform="matrix(11.076923,0,0,11.076923,-9.8523013,-20.578025)" />
    <linearGradient
       x1="1012.5133"
       y1="484.41721"
       x2="1006.8082"
       y2="20.625916"
       id="linearGradient4114-2"
       xlink:href="#ButtonShadow-0-1-1-5"
       gradientUnits="userSpaceOnUse"
       gradientTransform="matrix(1.0317796,0,0,1.0317796,-830.86406,592.67791)" />
    <linearGradient
       x1="45.447727"
       y1="92.539597"
       x2="45.447727"
       y2="7.0165396"
       id="ButtonShadow-0-1-1-5"
       gradientUnits="userSpaceOnUse"
       gradientTransform="matrix(1.0058652,0,0,0.994169,100,0)">
      <stop
         id="stop3750-8-9-3-6"
         style="stop-color:#000000;stop-opacity:1"
         offset="0" />
      <stop
         id="stop3752-5-6-4-2"
         style="stop-color:#000000;stop-opacity:0.58823532"
         offset="1" />
    </linearGradient>
    <linearGradient
       x1="1012.5133"
       y1="484.41721"
       x2="1006.8082"
       y2="20.625916"
       id="linearGradient4112-2"
       xlink:href="#ButtonShadow-0-1-1-5"
       gradientUnits="userSpaceOnUse"
       gradientTransform="matrix(1.0402541,0,0,1.0402541,-837.95116,592.51825)" />
    <linearGradient
       x1="45.447727"
       y1="92.539597"
       x2="45.447727"
       y2="7.0165396"
       id="linearGradient5292"
       gradientUnits="userSpaceOnUse"
       gradientTransform="matrix(1.0058652,0,0,0.994169,100,0)">
      <stop
         id="stop5294"
         style="stop-color:#000000;stop-opacity:1"
         offset="0" />
      <stop
         id="stop5296"
         style="stop-color:#000000;stop-opacity:0.58823532"
         offset="1" />
    </linearGradient>
    <linearGradient
       x1="1012.5133"
       y1="484.41721"
       x2="1006.8082"
       y2="20.625916"
       id="linearGradient4110-6"
       xlink:href="#ButtonShadow-0-1-1-5"
       gradientUnits="userSpaceOnUse"
       gradientTransform="matrix(1.023305,0,0,1.023305,-823.77704,592.83757)" />
    <linearGradient
       x1="45.447727"
       y1="92.539597"
       x2="45.447727"
       y2="7.0165396"
       id="linearGradient5299"
       gradientUnits="userSpaceOnUse"
       gradientTransform="matrix(1.0058652,0,0,0.994169,100,0)">
      <stop
         id="stop5301"
         style="stop-color:#000000;stop-opacity:1"
         offset="0" />
      <stop
         id="stop5303"
         style="stop-color:#000000;stop-opacity:0.58823532"
         offset="1" />
    </linearGradient>
    <linearGradient
       x1="1012.5133"
       y1="484.41721"
       x2="1006.8082"
       y2="20.625916"
       id="linearGradient4116-6"
       xlink:href="#ButtonShadow-0-1-1-5"
       gradientUnits="userSpaceOnUse"
       gradientTransform="matrix(1.0148305,0,0,1.0148305,-816.68996,592.99723)" />
    <linearGradient
       x1="45.447727"
       y1="92.539597"
       x2="45.447727"
       y2="7.0165396"
       id="linearGradient5306"
       gradientUnits="userSpaceOnUse"
       gradientTransform="matrix(1.0058652,0,0,0.994169,100,0)">
      <stop
         id="stop5308"
         style="stop-color:#000000;stop-opacity:1"
         offset="0" />
      <stop
         id="stop5310"
         style="stop-color:#000000;stop-opacity:0.58823532"
         offset="1" />
    </linearGradient>
    <linearGradient
       x1="1012.5133"
       y1="484.41721"
       x2="1006.8082"
       y2="20.625916"
       id="linearGradient3372"
       xlink:href="#ButtonShadow-0-1-1-5"
       gradientUnits="userSpaceOnUse"
       gradientTransform="matrix(1.0074153,0,0,1.0074153,-810.48879,593.1369)" />
    <linearGradient
       x1="45.447727"
       y1="92.539597"
       x2="45.447727"
       y2="7.0165396"
       id="linearGradient5313"
       gradientUnits="userSpaceOnUse"
       gradientTransform="matrix(1.0058652,0,0,0.994169,100,0)">
      <stop
         id="stop5315"
         style="stop-color:#000000;stop-opacity:1"
         offset="0" />
      <stop
         id="stop5317"
         style="stop-color:#000000;stop-opacity:0.58823532"
         offset="1" />
    </linearGradient>
    <linearGradient
       x1="1016.1035"
       y1="476.25983"
       x2="1011.9534"
       y2="251.66064"
       id="linearGradient4082"
       xlink:href="#linearGradient4487"
       gradientUnits="userSpaceOnUse"
       gradientTransform="translate(-146.22032,369.08845)" />
    <linearGradient
       id="linearGradient4487">
      <stop
         id="stop4489"
         style="stop-color:#000000;stop-opacity:1"
         offset="0" />
      <stop
         id="stop4491"
         style="stop-color:#000000;stop-opacity:0"
         offset="1" />
    </linearGradient>
    <linearGradient
       id="linearGradient3737">
      <stop
         id="stop3739"
         style="stop-color:#ffffff;stop-opacity:1"
         offset="0" />
      <stop
         id="stop3741"
         style="stop-color:#ffffff;stop-opacity:0"
         offset="1" />
    </linearGradient>
    <linearGradient
       id="linearGradient4046">
      <stop
         id="stop4048"
         style="stop-color:#000000;stop-opacity:1"
         offset="0" />
      <stop
         id="stop4050"
         style="stop-color:#ffffff;stop-opacity:0.2"
         offset="1" />
    </linearGradient>
    <linearGradient
       x1="1012.5133"
       y1="484.41721"
       x2="1006.8082"
       y2="20.625916"
       id="linearGradient5342"
       xlink:href="#ButtonShadow-0-1-1-5"
       gradientUnits="userSpaceOnUse"
       gradientTransform="matrix(1.0074153,0,0,1.0074153,-810.48879,593.1369)" />
    <linearGradient
       x1="1012.5133"
       y1="484.41721"
       x2="1006.8082"
       y2="20.625916"
       id="linearGradient4114-2-6"
       xlink:href="#ButtonShadow-0-1-1-5-9"
       gradientUnits="userSpaceOnUse"
       gradientTransform="matrix(1.0317796,0,0,1.0317796,-830.86406,592.67791)" />
    <linearGradient
       x1="45.447727"
       y1="92.539597"
       x2="45.447727"
       y2="7.0165396"
       id="ButtonShadow-0-1-1-5-9"
       gradientUnits="userSpaceOnUse"
       gradientTransform="matrix(1.0058652,0,0,0.994169,100,0)">
      <stop
         id="stop3750-8-9-3-6-4"
         style="stop-color:#000000;stop-opacity:1"
         offset="0" />
      <stop
         id="stop3752-5-6-4-2-9"
         style="stop-color:#000000;stop-opacity:0.58823532"
         offset="1" />
    </linearGradient>
    <linearGradient
       x1="1012.5133"
       y1="484.41721"
       x2="1006.8082"
       y2="20.625916"
       id="linearGradient4112-2-6"
       xlink:href="#ButtonShadow-0-1-1-5-9"
       gradientUnits="userSpaceOnUse"
       gradientTransform="matrix(1.0402541,0,0,1.0402541,-837.95116,592.51825)" />
    <linearGradient
       x1="45.447727"
       y1="92.539597"
       x2="45.447727"
       y2="7.0165396"
       id="linearGradient5292-5"
       gradientUnits="userSpaceOnUse"
       gradientTransform="matrix(1.0058652,0,0,0.994169,100,0)">
      <stop
         id="stop5294-8"
         style="stop-color:#000000;stop-opacity:1"
         offset="0" />
      <stop
         id="stop5296-4"
         style="stop-color:#000000;stop-opacity:0.58823532"
         offset="1" />
    </linearGradient>
    <linearGradient
       x1="1012.5133"
       y1="484.41721"
       x2="1006.8082"
       y2="20.625916"
       id="linearGradient4110-6-7"
       xlink:href="#ButtonShadow-0-1-1-5-9"
       gradientUnits="userSpaceOnUse"
       gradientTransform="matrix(1.023305,0,0,1.023305,-823.77704,592.83757)" />
    <linearGradient
       x1="45.447727"
       y1="92.539597"
       x2="45.447727"
       y2="7.0165396"
       id="linearGradient5299-2"
       gradientUnits="userSpaceOnUse"
       gradientTransform="matrix(1.0058652,0,0,0.994169,100,0)">
      <stop
         id="stop5301-9"
         style="stop-color:#000000;stop-opacity:1"
         offset="0" />
      <stop
         id="stop5303-1"
         style="stop-color:#000000;stop-opacity:0.58823532"
         offset="1" />
    </linearGradient>
    <linearGradient
       x1="1012.5133"
       y1="484.41721"
       x2="1006.8082"
       y2="20.625916"
       id="linearGradient4116-6-3"
       xlink:href="#ButtonShadow-0-1-1-5-9"
       gradientUnits="userSpaceOnUse"
       gradientTransform="matrix(1.0148305,0,0,1.0148305,-816.68996,592.99723)" />
    <linearGradient
       x1="45.447727"
       y1="92.539597"
       x2="45.447727"
       y2="7.0165396"
       id="linearGradient5306-9"
       gradientUnits="userSpaceOnUse"
       gradientTransform="matrix(1.0058652,0,0,0.994169,100,0)">
      <stop
         id="stop5308-0"
         style="stop-color:#000000;stop-opacity:1"
         offset="0" />
      <stop
         id="stop5310-6"
         style="stop-color:#000000;stop-opacity:0.58823532"
         offset="1" />
    </linearGradient>
    <linearGradient
       x1="1012.5133"
       y1="484.41721"
       x2="1006.8082"
       y2="20.625916"
       id="linearGradient3372-9"
       xlink:href="#ButtonShadow-0-1-1-5-9"
       gradientUnits="userSpaceOnUse"
       gradientTransform="matrix(1.0074153,0,0,1.0074153,-810.48879,593.1369)" />
    <linearGradient
       x1="45.447727"
       y1="92.539597"
       x2="45.447727"
       y2="7.0165396"
       id="linearGradient5313-8"
       gradientUnits="userSpaceOnUse"
       gradientTransform="matrix(1.0058652,0,0,0.994169,100,0)">
      <stop
         id="stop5315-8"
         style="stop-color:#000000;stop-opacity:1"
         offset="0" />
      <stop
         id="stop5317-1"
         style="stop-color:#000000;stop-opacity:0.58823532"
         offset="1" />
    </linearGradient>
    <linearGradient
       x1="1016.1035"
       y1="476.25983"
       x2="1011.9534"
       y2="251.66064"
       id="linearGradient4082-7"
       xlink:href="#linearGradient4487-8"
       gradientUnits="userSpaceOnUse"
       gradientTransform="translate(-146.22032,369.08845)" />
    <linearGradient
       id="linearGradient4487-8">
      <stop
         id="stop4489-0"
         style="stop-color:#000000;stop-opacity:1"
         offset="0" />
      <stop
         id="stop4491-4"
         style="stop-color:#000000;stop-opacity:0"
         offset="1" />
    </linearGradient>
    <linearGradient
       x1="993.43896"
       y1="51.511765"
       x2="988.78552"
       y2="363.73825"
       id="linearGradient4084-7"
       xlink:href="#linearGradient3737-8"
       gradientUnits="userSpaceOnUse"
       gradientTransform="translate(778.59979,-360.55963)" />
    <linearGradient
       id="linearGradient3737-8">
      <stop
         id="stop3739-4"
         style="stop-color:#ffffff;stop-opacity:1"
         offset="0" />
      <stop
         id="stop3741-7"
         style="stop-color:#ffffff;stop-opacity:0"
         offset="1" />
    </linearGradient>
    <linearGradient
       x1="1764.6487"
       y1="155.59685"
       x2="1763.6903"
       y2="-55.941216"
       id="linearGradient4086-1"
       xlink:href="#linearGradient4046-2"
       gradientUnits="userSpaceOnUse" />
    <linearGradient
       id="linearGradient4046-2">
      <stop
         id="stop4048-2"
         style="stop-color:#000000;stop-opacity:1"
         offset="0" />
      <stop
         id="stop4050-7"
         style="stop-color:#ffffff;stop-opacity:0.2"
         offset="1" />
    </linearGradient>
    <linearGradient
       x1="1012.5133"
       y1="484.41721"
       x2="1006.8082"
       y2="20.625916"
       id="linearGradient5342-3"
       xlink:href="#ButtonShadow-0-1-1-5-9"
       gradientUnits="userSpaceOnUse"
       gradientTransform="matrix(1.0074153,0,0,1.0074153,-810.48879,593.1369)" />
    <linearGradient
       id="linearGradient4487-1">
      <stop
         id="stop4489-6"
         style="stop-color:#000000;stop-opacity:1"
         offset="0" />
      <stop
         id="stop4491-0"
         style="stop-color:#000000;stop-opacity:0"
         offset="1" />
    </linearGradient>
    <linearGradient
       x1="993.43896"
       y1="51.511765"
       x2="988.78552"
       y2="363.73825"
       id="linearGradient4084-8"
       xlink:href="#linearGradient3737-9"
       gradientUnits="userSpaceOnUse"
       gradientTransform="translate(778.59979,-360.55963)" />
    <linearGradient
       id="linearGradient3737-9">
      <stop
         id="stop3739-7"
         style="stop-color:#ffffff;stop-opacity:1"
         offset="0" />
      <stop
         id="stop3741-4"
         style="stop-color:#ffffff;stop-opacity:0"
         offset="1" />
    </linearGradient>
    <linearGradient
       x1="1764.6487"
       y1="155.59685"
       x2="1763.6903"
       y2="-55.941216"
       id="linearGradient4086-12"
       xlink:href="#linearGradient4046-3"
       gradientUnits="userSpaceOnUse" />
    <linearGradient
       id="linearGradient4046-3">
      <stop
         id="stop4048-7"
         style="stop-color:#000000;stop-opacity:1"
         offset="0" />
      <stop
         id="stop4050-73"
         style="stop-color:#ffffff;stop-opacity:0.2"
         offset="1" />
    </linearGradient>
    <linearGradient
       id="linearGradient2760">
      <stop
         id="stop2770"
         style="stop-color:#ffffff;stop-opacity:1"
         offset="0" />
      <stop
         id="stop2764"
         style="stop-color:#a9a9a9;stop-opacity:1"
         offset="1" />
    </linearGradient>
    <linearGradient
       id="linearGradient4846">
      <stop
         id="stop4848"
         style="stop-color:#1a1a1a;stop-opacity:1"
         offset="0" />
      <stop
         id="stop4856"
         style="stop-color:#1e1e1e;stop-opacity:1"
         offset="1" />
    </linearGradient>
    <linearGradient
       id="linearGradient4922">
      <stop
         id="stop4924"
         style="stop-color:#1a1a1a;stop-opacity:1"
         offset="0" />
      <stop
         id="stop4926"
         style="stop-color:#636363;stop-opacity:1"
         offset="0.15622118" />
      <stop
         id="stop4928"
         style="stop-color:#b4b4b4;stop-opacity:1"
         offset="0.33151907" />
      <stop
         id="stop4930"
         style="stop-color:#636363;stop-opacity:1"
         offset="0.53579742" />
      <stop
         id="stop4932"
         style="stop-color:#000000;stop-opacity:1"
         offset="1" />
    </linearGradient>
    <linearGradient
       x1="201.33115"
       y1="152.12039"
       x2="166.77547"
       y2="110.85986"
       id="linearGradient4884"
       xlink:href="#linearGradient4888"
       gradientUnits="userSpaceOnUse"
       gradientTransform="matrix(1.2757694,0,0,1.2757694,-135.89444,2.4500392)"
       spreadMethod="reflect" />
    <linearGradient
       id="linearGradient4888">
      <stop
         id="stop4892"
         style="stop-color:#c0821c;stop-opacity:1"
         offset="0" />
      <stop
         id="stop4894"
         style="stop-color:#e4ae48;stop-opacity:1"
         offset="1" />
    </linearGradient>
    <linearGradient
       x1="13.021049"
       y1="160.82593"
       x2="258.22205"
       y2="158.47191"
       id="linearGradient4882"
       xlink:href="#linearGradient4898"
       gradientUnits="userSpaceOnUse" />
    <linearGradient
       id="linearGradient4898">
      <stop
         id="stop4900"
         style="stop-color:#d78617;stop-opacity:1"
         offset="0" />
      <stop
         id="stop4902"
         style="stop-color:#5c1234;stop-opacity:1"
         offset="1" />
    </linearGradient>
    <linearGradient
       x1="45.447727"
       y1="92.539597"
       x2="45.447727"
       y2="7.0165396"
       id="ButtonShadow"
       gradientUnits="userSpaceOnUse"
       gradientTransform="scale(1.0058652,0.994169)">
      <stop
         id="stop3750"
         style="stop-color:#000000;stop-opacity:1"
         offset="0" />
      <stop
         id="stop3752"
         style="stop-color:#000000;stop-opacity:0.58823532"
         offset="1" />
    </linearGradient>
    <filter
       color-interpolation-filters="sRGB"
       id="filter3174">
      <feGaussianBlur
         id="feGaussianBlur3176"
         stdDeviation="1.71" />
    </filter>
    <linearGradient
       id="linearGradient10386">
      <stop
         id="stop10388"
         style="stop-color:#ffffff;stop-opacity:1"
         offset="0" />
      <stop
         id="stop10390"
         style="stop-color:#ffffff;stop-opacity:0"
         offset="1" />
    </linearGradient>
    <linearGradient
       x1="212.86353"
       y1="11.425488"
       x2="214.26566"
       y2="168.28262"
       id="linearGradient8264"
       xlink:href="#linearGradient2760"
       gradientUnits="userSpaceOnUse"
       gradientTransform="matrix(1.8464564,0,0,1.8464564,-123.73343,86.826257)"
       spreadMethod="reflect" />
    <linearGradient
       x1="18.930269"
       y1="6.2951212"
       x2="19.360001"
       y2="36.643665"
       id="linearGradient3157"
       xlink:href="#linearGradient2460"
       gradientUnits="userSpaceOnUse"
       gradientTransform="matrix(12.102564,0,0,12.102564,-34.468255,-46.187105)" />
    <linearGradient
       x1="0"
       y1="0"
       x2="1"
       y2="1"
       id="acyl_gradient"
       xlink:href="#linearGradient4321" />
    <linearGradient
       id="linearGradient4321">
      <stop
         id="stop1"
         style="stop-color:#ee0c0c;stop-opacity:1"
         offset="0" />
      <stop
         id="stop2"
         style="stop-color:#7a0404;stop-opacity:1"
         offset="1" />
    </linearGradient>
    <radialGradient
       cx="94.710419"
       cy="98.692879"
       r="150"
       fx="94.710419"
       fy="98.692879"
       id="radialGradient3928"
       xlink:href="#linearGradient4321"
       gradientUnits="userSpaceOnUse"
       gradientTransform="matrix(2.4249551,-0.00787504,0.00770263,2.3718665,-135.71828,-134.64744)" />
    <radialGradient
       cx="94.710419"
       cy="98.692879"
       r="150"
       fx="94.710419"
       fy="98.692879"
       id="radialGradient3932"
       xlink:href="#linearGradient4321"
       gradientUnits="userSpaceOnUse"
       gradientTransform="matrix(2.4249551,-0.00787504,0.00770263,2.3718665,-135.71828,-134.64744)" />
    <radialGradient
       cx="110.73653"
       cy="112.57468"
       r="150"
       fx="110.73653"
       fy="112.57468"
       id="radialGradient3140"
       xlink:href="#linearGradient3938"
       gradientUnits="userSpaceOnUse"
       gradientTransform="matrix(1.6533901,0.0060994,-0.00539655,1.4623231,-50.506611,-35.439162)" />
    <linearGradient
       x1="-112.34483"
       y1="572.44672"
       x2="-109.97469"
       y2="107.89955"
       id="linearGradient5925"
       xlink:href="#ButtonShadow-0-1-1-5-9-5"
       gradientUnits="userSpaceOnUse"
       gradientTransform="matrix(1.0074417,0,0,1.0074152,261.62679,527.41078)" />
    <linearGradient
       x1="45.447727"
       y1="92.539597"
       x2="45.447727"
       y2="7.0165396"
       id="ButtonShadow-0-1-1-5-9-5"
       gradientUnits="userSpaceOnUse"
       gradientTransform="matrix(1.0058652,0,0,0.994169,100,0)">
      <stop
         id="stop3750-8-9-3-6-4-0"
         style="stop-color:#000000;stop-opacity:1"
         offset="0" />
      <stop
         id="stop3752-5-6-4-2-9-8"
         style="stop-color:#000000;stop-opacity:0.58823532"
         offset="1" />
    </linearGradient>
    <linearGradient
       x1="-112.34483"
       y1="572.44672"
       x2="-109.97469"
       y2="107.89955"
       id="linearGradient5927"
       xlink:href="#ButtonShadow-0-1-1-5-9-5"
       gradientUnits="userSpaceOnUse"
       gradientTransform="matrix(1.0318068,0,0,1.0317796,268.77841,524.78354)" />
    <linearGradient
       x1="45.447727"
       y1="92.539597"
       x2="45.447727"
       y2="7.0165396"
       id="linearGradient3129"
       gradientUnits="userSpaceOnUse"
       gradientTransform="matrix(1.0058652,0,0,0.994169,100,0)">
      <stop
         id="stop3131"
         style="stop-color:#000000;stop-opacity:1"
         offset="0" />
      <stop
         id="stop3133"
         style="stop-color:#000000;stop-opacity:0.58823532"
         offset="1" />
    </linearGradient>
    <linearGradient
       x1="-112.34483"
       y1="572.44672"
       x2="-109.97469"
       y2="107.89955"
       id="linearGradient5929"
       xlink:href="#ButtonShadow-0-1-1-5-9-5"
       gradientUnits="userSpaceOnUse"
       gradientTransform="matrix(1.0148572,0,0,1.0148305,263.80369,526.61118)" />
    <linearGradient
       x1="45.447727"
       y1="92.539597"
       x2="45.447727"
       y2="7.0165396"
       id="linearGradient3136"
       gradientUnits="userSpaceOnUse"
       gradientTransform="matrix(1.0058652,0,0,0.994169,100,0)">
      <stop
         id="stop3138"
         style="stop-color:#000000;stop-opacity:1"
         offset="0" />
      <stop
         id="stop3140"
         style="stop-color:#000000;stop-opacity:0.58823532"
         offset="1" />
    </linearGradient>
    <linearGradient
       x1="-112.34483"
       y1="572.44672"
       x2="-109.97469"
       y2="107.89955"
       id="linearGradient5931"
       xlink:href="#ButtonShadow-0-1-1-5-9-5"
       gradientUnits="userSpaceOnUse"
       gradientTransform="matrix(1.023332,0,0,1.023305,266.29153,525.69736)" />
    <linearGradient
       x1="45.447727"
       y1="92.539597"
       x2="45.447727"
       y2="7.0165396"
       id="linearGradient3143"
       gradientUnits="userSpaceOnUse"
       gradientTransform="matrix(1.0058652,0,0,0.994169,100,0)">
      <stop
         id="stop3145"
         style="stop-color:#000000;stop-opacity:1"
         offset="0" />
      <stop
         id="stop3147"
         style="stop-color:#000000;stop-opacity:0.58823532"
         offset="1" />
    </linearGradient>
    <linearGradient
       x1="-112.34483"
       y1="572.44672"
       x2="-109.97469"
       y2="107.89955"
       id="linearGradient5933"
       xlink:href="#ButtonShadow-0-1-1-5-9-5"
       gradientUnits="userSpaceOnUse"
       gradientTransform="matrix(1.0402816,0,0,1.0402542,271.26626,523.86971)" />
    <linearGradient
       x1="45.447727"
       y1="92.539597"
       x2="45.447727"
       y2="7.0165396"
       id="linearGradient3150"
       gradientUnits="userSpaceOnUse"
       gradientTransform="matrix(1.0058652,0,0,0.994169,100,0)">
      <stop
         id="stop3152"
         style="stop-color:#000000;stop-opacity:1"
         offset="0" />
      <stop
         id="stop3154"
         style="stop-color:#000000;stop-opacity:0.58823532"
         offset="1" />
    </linearGradient>
    <linearGradient
       x1="993.43896"
       y1="51.511765"
       x2="988.78552"
       y2="363.73825"
       id="linearGradient4084-8-2"
       xlink:href="#linearGradient3737-9-0"
       gradientUnits="userSpaceOnUse"
       gradientTransform="translate(-753.58716,-30.14348)" />
    <linearGradient
       id="linearGradient3737-9-0">
      <stop
         id="stop3739-7-5"
         style="stop-color:#ffffff;stop-opacity:1"
         offset="0" />
      <stop
         id="stop3741-4-2"
         style="stop-color:#ffffff;stop-opacity:0"
         offset="1" />
    </linearGradient>
    <linearGradient
       x1="1764.6487"
       y1="155.59685"
       x2="1763.6903"
       y2="-55.941216"
       id="linearGradient4086-12-9"
       xlink:href="#linearGradient4046-3-3"
       gradientUnits="userSpaceOnUse"
       gradientTransform="translate(-1532.187,330.41615)" />
    <linearGradient
       id="linearGradient4046-3-3">
      <stop
         id="stop4048-7-5"
         style="stop-color:#000000;stop-opacity:1"
         offset="0" />
      <stop
         id="stop4050-73-5"
         style="stop-color:#ffffff;stop-opacity:0.2"
         offset="1" />
    </linearGradient>
    <linearGradient
       x1="102.875"
       y1="170.42188"
       x2="153.125"
       y2="170.42188"
       id="linearGradient5071"
       xlink:href="#linearGradient5059"
       gradientUnits="userSpaceOnUse" />
    <linearGradient
       id="linearGradient5059">
      <stop
         id="stop5061"
         style="stop-color:#0b0826;stop-opacity:0.49803922"
         offset="0" />
      <stop
         id="stop5063"
         style="stop-color:#0b0826;stop-opacity:1"
         offset="1" />
    </linearGradient>
    <linearGradient
       x1="102.875"
       y1="170.42188"
       x2="153.125"
       y2="170.42188"
       id="linearGradient3985"
       xlink:href="#linearGradient5059"
       gradientUnits="userSpaceOnUse" />
    <radialGradient
       cx="244.26477"
       cy="286.95432"
       r="62.545898"
       fx="244.26477"
       fy="286.95432"
       id="radialGradient14612"
       xlink:href="#linearGradient3938"
       gradientUnits="userSpaceOnUse"
       gradientTransform="matrix(1,0,0,1.2036395,0,-58.435237)"
       spreadMethod="pad" />
    <filter
       color-interpolation-filters="sRGB"
       id="filter3340">
      <feGaussianBlur
         stdDeviation="3.9590909"
         id="feGaussianBlur3342" />
    </filter>
    <radialGradient
       cx="380"
       cy="389.50504"
       r="148.85715"
       fx="380"
       fy="389.50504"
       id="radialGradient3406"
       xlink:href="#linearGradient2254"
       gradientUnits="userSpaceOnUse"
       gradientTransform="matrix(0.08685949,-0.5807721,0.6221042,0.09357629,-400.33715,449.39486)" />
    <linearGradient
       id="linearGradient2254">
      <stop
         id="stop2256"
         style="stop-color:#bedcdc;stop-opacity:1"
         offset="0" />
      <stop
         id="stop2264"
         style="stop-color:#8e9e9e;stop-opacity:0.74149668"
         offset="0.5" />
      <stop
         id="stop2258"
         style="stop-color:#404f5c;stop-opacity:0.8392157"
         offset="1" />
    </linearGradient>
    <filter
       color-interpolation-filters="sRGB"
       id="filter3390">
      <feGaussianBlur
         stdDeviation="10.093933"
         id="feGaussianBlur3392" />
    </filter>
    <radialGradient
       cx="380"
       cy="389.50504"
       r="148.85715"
       fx="380"
       fy="389.50504"
       id="radialGradient2340"
       xlink:href="#linearGradient2254"
       gradientUnits="userSpaceOnUse"
       gradientTransform="matrix(-0.1055661,-0.930902,0.9936313,-0.1126799,-616.36571,489.03856)" />
    <linearGradient
       id="linearGradient5217">
      <stop
         id="stop5219"
         style="stop-color:#bedcdc;stop-opacity:1"
         offset="0" />
      <stop
         id="stop5221"
         style="stop-color:#8e9e9e;stop-opacity:0.74149668"
         offset="0.5" />
      <stop
         id="stop5223"
         style="stop-color:#404f5c;stop-opacity:0.8392157"
         offset="1" />
    </linearGradient>
    <radialGradient
       cx="380"
       cy="389.50504"
       r="148.85715"
       fx="380"
       fy="389.50504"
       id="radialGradient5320"
       xlink:href="#linearGradient2254"
       gradientUnits="userSpaceOnUse"
       gradientTransform="matrix(-0.1055661,-0.930902,0.9936313,-0.1126799,-616.36571,489.03856)" />
    <radialGradient
       cx="380"
       cy="389.50504"
       r="148.85715"
       fx="380"
       fy="389.50504"
       id="radialGradient5322"
       xlink:href="#linearGradient2254"
       gradientUnits="userSpaceOnUse"
       gradientTransform="matrix(0.08685949,-0.5807721,0.6221042,0.09357629,-400.33715,449.39486)" />
    <radialGradient
       cx="380"
       cy="389.50504"
       r="148.85715"
       fx="380"
       fy="389.50504"
       id="radialGradient5320-9"
       xlink:href="#linearGradient2254-5"
       gradientUnits="userSpaceOnUse"
       gradientTransform="matrix(-0.1055661,-0.930902,0.9936313,-0.1126799,-616.36571,489.03856)" />
    <linearGradient
       id="linearGradient2254-5">
      <stop
         id="stop2256-0"
         style="stop-color:#bedcdc;stop-opacity:1"
         offset="0" />
      <stop
         id="stop2264-4"
         style="stop-color:#8e9e9e;stop-opacity:0.74149668"
         offset="0.5" />
      <stop
         id="stop2258-4"
         style="stop-color:#404f5c;stop-opacity:0.8392157"
         offset="1" />
    </linearGradient>
    <radialGradient
       cx="380"
       cy="389.50504"
       r="148.85715"
       fx="380"
       fy="389.50504"
       id="radialGradient5322-3"
       xlink:href="#linearGradient2254-5"
       gradientUnits="userSpaceOnUse"
       gradientTransform="matrix(0.08685949,-0.5807721,0.6221042,0.09357629,-400.33715,449.39486)" />
    <linearGradient
       id="linearGradient5348">
      <stop
         id="stop5350"
         style="stop-color:#bedcdc;stop-opacity:1"
         offset="0" />
      <stop
         id="stop5352"
         style="stop-color:#8e9e9e;stop-opacity:0.74149668"
         offset="0.5" />
      <stop
         id="stop5354"
         style="stop-color:#404f5c;stop-opacity:0.8392157"
         offset="1" />
    </linearGradient>
    <radialGradient
       cx="380"
       cy="389.50504"
       r="148.85715"
       fx="380"
       fy="389.50504"
       id="radialGradient5443"
       xlink:href="#linearGradient2254-5"
       gradientUnits="userSpaceOnUse"
       gradientTransform="matrix(0.05576663,-0.37287468,0.39941124,0.06007904,-710.96143,167.98572)" />
    <radialGradient
       cx="380"
       cy="389.50504"
       r="148.85715"
       fx="380"
       fy="389.50504"
       id="radialGradient5451"
       xlink:href="#linearGradient2254-5"
       gradientUnits="userSpaceOnUse"
       gradientTransform="matrix(-0.06777689,-0.59766952,0.63794379,-0.07234418,-849.65883,193.43827)" />
    <filter
       color-interpolation-filters="sRGB"
       id="filter3570">
      <feFlood
         result="flood"
         flood-color="rgb(0,0,0)"
         flood-opacity="0.6"
         id="feFlood3572" />
      <feComposite
         in2="SourceGraphic"
         operator="in"
         in="flood"
         result="composite1"
         id="feComposite3574" />
      <feGaussianBlur
         result="blur"
         stdDeviation="1"
         id="feGaussianBlur3576" />
      <feOffset
         result="offset"
         dy="-4"
         dx="-4"
         id="feOffset3578" />
      <feComposite
         in2="offset"
         operator="over"
         in="SourceGraphic"
         result="composite2"
         id="feComposite3580" />
    </filter>
    <filter
       color-interpolation-filters="sRGB"
       id="filter3299">
      <feFlood
         id="feFlood3301"
         flood-opacity="0.5"
         flood-color="rgb(0,0,0)"
         result="flood" />
      <feComposite
         in2="SourceGraphic"
         operator="in"
         in="flood"
         result="composite1"
         id="feComposite3303" />
      <feGaussianBlur
         id="feGaussianBlur3305"
         stdDeviation="5"
         result="blur" />
      <feOffset
         id="feOffset3307"
         dx="2"
         dy="2"
         result="offset" />
      <feComposite
         in2="offset"
         operator="over"
         in="SourceGraphic"
         result="fbSourceGraphic"
         id="feComposite3309" />
      <feColorMatrix
         result="fbSourceGraphicAlpha"
         in="fbSourceGraphic"
         values="0 0 0 -1 0 0 0 0 -1 0 0 0 0 -1 0 0 0 0 1 0"
         id="feColorMatrix3311" />
      <feFlood
         id="feFlood3313"
         flood-opacity="0.6"
         flood-color="rgb(0,0,0)"
         result="flood"
         in="fbSourceGraphic" />
      <feComposite
         in2="fbSourceGraphic"
         operator="in"
         in="flood"
         result="composite1"
         id="feComposite3315" />
      <feGaussianBlur
         id="feGaussianBlur3317"
         stdDeviation="1"
         result="blur" />
      <feOffset
         id="feOffset3319"
         dx="-4"
         dy="-4"
         result="offset" />
      <feComposite
         in2="offset"
         operator="over"
         in="fbSourceGraphic"
         result="composite2"
         id="feComposite3321" />
    </filter>
  </defs>
  <metadata
     id="metadata7">
    <rdf:RDF>
      <cc:Work
         rdf:about="">
        <dc:format>image/svg+xml</dc:format>
        <dc:type
           rdf:resource="http://purl.org/dc/dcmitype/StillImage" />
        <dc:title></dc:title>
      </cc:Work>
    </rdf:RDF>
  </metadata>
  <g
     transform="translate(0,-540.36218)"
     id="layer1" />
  <g
     transform="matrix(1.1,0,0,0.44444,95.081063,256.39254)"
     id="g2036">
    <g
       transform="matrix(1.0526,0,0,1.2857,-1.2632,-13.429)"
       id="g3712"
       style="opacity:0.4" />
  </g>
  <g
     transform="translate(97.481063,231.28154)"
     id="g3541" />
  <g
     transform="translate(97.481063,231.28154)"
     id="g3536" />
  <g
     transform="translate(-605.51932,-353.96833)"
     id="g4076">
    <g
       transform="translate(-926.66758,684.38448)"
       id="g4038" />
  </g>
  <g
     transform="translate(54.089264,-616.0416)"
     id="g5918">
    <path
       d="m 60.989673,1111.5416 144.328367,-0.2064 147.52725,-0.2409 c 49.0412,-5.1221 87.2248,-45.726 88.537,-95.8499 9e-4,-0.035 -9e-4,-0.069 0,-0.1032 9e-4,-0.414 -8e-4,-0.6473 0,-1.0665 0.042,-21.50295 0.034,-49.94202 0.034,-87.7651 l 0,-152.51368 -68.8621,-68.87715 -68.8965,-68.87715 -152.82436,0.0688 c -40.25265,0.0173 -69.340747,0.0413 -91.323117,0.10316 -50.88989,2.75481 -91.3364,43.54773 -93.49012,94.61146 -0.0987,30.63047 -0.10318,74.7573 -0.10318,143.01819 0,68.26875 0.005,112.38763 0.10312,143.01817 2.17453,51.5569 43.38652,92.644 94.96919,94.6802 z"
       id="path5873"
       style="opacity:0.25;color:#000000;fill:url(#linearGradient5925);fill-opacity:1;fill-rule:nonzero;stroke:none;stroke-width:1.5;marker:none;visibility:visible;display:inline;overflow:visible;enable-background:accumulate" />
    <path
       d="m 63.288833,1123.0416 147.818967,-0.2114 151.09521,-0.2467 c 50.2273,-5.246 89.3343,-46.8319 90.6783,-98.1681 9e-4,-0.035 -9e-4,-0.07 0,-0.1056 9e-4,-0.424 -8e-4,-0.663 0,-1.0924 0.043,-22.0229 0.035,-51.14981 0.035,-89.88764 l 0,-156.20224 -70.5276,-70.54295 -70.5627,-70.54295 -156.52046,0.0705 c -41.22616,0.0177 -71.017757,0.0423 -93.531777,0.10565 -52.12067,2.82144 -93.54538,44.60094 -95.75119,96.89965 -0.10109,31.37127 -0.10567,76.56531 -0.10567,146.47709 0,69.91984 0.005,115.10574 0.10561,146.47699 2.22712,52.804 44.43583,94.8848 97.26603,96.9702 z"
       id="path5902"
       style="opacity:0.1;color:#000000;fill:url(#linearGradient5927);fill-opacity:1;fill-rule:nonzero;stroke:none;stroke-width:1.5;marker:none;visibility:visible;display:inline;overflow:visible;enable-background:accumulate" />
    <path
       d="m 61.689723,1115.0417 145.390727,-0.2079 148.61314,-0.2427 c 49.4022,-5.1598 87.8668,-46.0626 89.1887,-96.5555 9e-4,-0.035 -9e-4,-0.069 0,-0.1039 9e-4,-0.4171 -8e-4,-0.6521 0,-1.0744 0.042,-21.66124 0.034,-50.30964 0.034,-88.41113 l 0,-153.63628 -69.369,-69.38413 -69.4036,-69.38414 -153.94925,0.0693 c -40.54894,0.0174 -69.851137,0.0416 -91.995317,0.10392 -51.26448,2.77509 -92.0087,43.86827 -94.17827,95.30786 -0.0994,30.85594 -0.10394,75.30757 -0.10394,144.07091 0,68.77125 0.005,113.21488 0.10387,144.07079 2.19054,51.9366 43.70588,93.3261 95.66824,95.3773 z"
       id="path5906"
       style="opacity:0.25;color:#000000;fill:url(#linearGradient5929);fill-opacity:1;fill-rule:nonzero;stroke:none;stroke-width:1.5;marker:none;visibility:visible;display:inline;overflow:visible;enable-background:accumulate" />
    <path
       d="m 62.489783,1119.0417 146.604847,-0.2097 149.8542,-0.2447 c 49.8147,-5.2028 88.6006,-46.4472 89.9335,-97.3618 9e-4,-0.035 -9e-4,-0.07 0,-0.1048 9e-4,-0.4205 -8e-4,-0.6575 0,-1.0833 0.043,-21.84214 0.034,-50.72977 0.034,-89.14943 l 0,-154.91926 -69.9483,-69.96355 -69.9832,-69.96354 -155.23483,0.0699 c -40.88755,0.0176 -70.434457,0.0419 -92.763547,0.10478 -51.69258,2.79827 -92.77705,44.23461 -94.96474,96.10376 -0.10025,31.1136 -0.1048,75.93644 -0.1048,145.274 0,69.34555 0.005,114.16031 0.10474,145.27394 2.20883,52.3702 44.07085,94.1054 96.46713,96.1737 z"
       id="path5910"
       style="opacity:0.2;color:#000000;fill:url(#linearGradient5931);fill-opacity:1;fill-rule:nonzero;stroke:none;stroke-width:1.5;marker:none;visibility:visible;display:inline;overflow:visible;enable-background:accumulate" />
    <path
       d="m 64.088893,1127.0416 149.033087,-0.2131 152.33628,-0.2488 c 50.6398,-5.289 90.068,-47.2165 91.423,-98.9744 10e-4,-0.036 -9e-4,-0.071 0,-0.1065 10e-4,-0.4274 -8e-4,-0.6684 0,-1.1013 0.043,-22.2038 0.035,-51.56994 0.035,-90.62595 l 0,-157.48521 -71.1068,-71.12236 -71.1423,-71.12236 -157.80606,0.071 c -41.56477,0.0179 -71.601067,0.0427 -94.299997,0.10653 -52.54877,2.84461 -94.31372,44.96726 -96.53765,97.69553 -0.10192,31.62894 -0.10654,77.19419 -0.10654,147.6802 0,70.49412 0.005,116.05116 0.10648,147.68012 2.24541,53.2376 44.8008,95.664 98.06493,97.7666 z"
       id="path5914"
       style="opacity:0.07999998;color:#000000;fill:url(#linearGradient5933);fill-opacity:1;fill-rule:nonzero;stroke:none;stroke-width:1.5;marker:none;visibility:visible;display:inline;overflow:visible;enable-background:accumulate" />
  </g>
  <path
     d="m 114.3763,492.00004 143.26225,-0.20491 146.43752,-0.23905 c 48.67892,-5.08446 86.58047,-45.3894 87.883,-95.1445 8.9e-4,-0.0342 -8.7e-4,-0.0682 0,-0.10239 8.5e-4,-0.41093 -8.2e-4,-0.64253 0,-1.05868 0.0421,-21.34466 0.0341,-49.5744 0.0341,-87.11908 l 0,-151.39108 -68.35344,-68.37017 -68.38759,-68.37016 -151.69547,0.0683 c -39.95531,0.0172 -68.82855,0.041 -90.64854,0.1024 -50.513983,2.73453 -90.661723,43.22719 -92.799533,93.91506 -0.098,30.40501 -0.10242,74.20703 -0.10242,141.96548 0,67.76624 0.005,111.56038 0.10236,141.96542 2.15846,51.17745 43.06603,91.96213 94.267673,93.98336 z"
     id="rect4121"
     style="color:#000000;fill:#e4e6d2;fill-opacity:1;fill-rule:nonzero;stroke:none;stroke-width:1.5;marker:none;visibility:visible;display:inline;overflow:visible;enable-background:accumulate" />
  <path
     d="M 283.0625,161.34375 C 281.62521,172.16149 272.36553,180.5 261.15625,180.5 c -1.60874,0 -3.17595,-0.14226 -4.6875,-0.46875 -0.01,-0.0441 -0.0535,-0.0807 -0.0625,-0.125 -0.0812,0.0175 -0.13756,0.045 -0.21875,0.0625 -0.1489,-0.0342 -0.28975,-0.0878 -0.4375,-0.125 0,0 -3.22272,-4.55585 -16.25,-16.875 -7.796,1.67859 -15.31566,4.10055 -22.5,7.15625 3.93737,10.01154 0.0964,21.67833 -9.5,27.21875 -2.2275,1.28607 -4.57475,2.14419 -6.96875,2.59375 -1.197,0.22477 -2.42293,0.34974 -3.625,0.375 -2.27388,0.0478 -4.55121,-0.24006 -6.71875,-0.875 -10.67795,-10.69654 -18.69475,-18.77187 -19.09375,-19.21875 l 1.53125,6.125 c 1.3001,5.12191 1.71058,9.74473 1.40625,14 -2.37279,2.55282 -4.62888,5.19138 -6.78125,7.9375 0.33533,0.26045 0.65188,0.53577 0.96875,0.8125 -0.0245,0.0313 -0.0381,0.0625 -0.0625,0.0937 0.33533,0.26045 0.62062,0.53577 0.9375,0.8125 -0.0245,0.0312 -0.007,0.0625 -0.0312,0.0937 0.32827,0.25498 0.62694,0.51064 0.9375,0.78125 -0.0245,0.0315 -0.0382,0.0623 -0.0625,0.0937 0.23688,0.18395 0.45987,0.37035 0.6875,0.5625 0.0304,0.0255 0.0327,0.068 0.0625,0.0937 0.0508,0.0612 0.10634,0.0946 0.15625,0.15625 -0.0137,0.0176 0.0137,0.045 0,0.0625 0.0706,0.0548 0.11771,0.13196 0.1875,0.1875 0.0326,0.0413 0.0615,0.0835 0.0937,0.125 -0.0317,0.0734 -0.0616,0.14555 -0.0937,0.21875 -3.21454,7.31206 -8.70693,13.5701 -15.1875,19.4375 -12.96114,11.7348 -29.79638,21.61778 -39,35.4375 -6.41583,9.63879 -4.7823,20.03203 1.46875,30.25 4.01554,6.56382 9.89819,13.22304 16.84375,20.09375 0.36852,0.37062 0.71876,0.7532 1.09375,1.125 0.63962,0.6448 1.30964,1.2891 1.96875,1.9375 l 30.59375,30.625 c -1.39437,0.1349 -2.7872,0.25747 -4.1875,0.375 -9.99631,0.83867 -20.27286,1.38965 -29.8125,1.625 L 119.25,337.09375 c 0,0 -1.05033,0.0145 -1.5625,0 l 0,-0.0937 -1.78125,0.0625 c -6.37409,0.16675 -21.14306,1.52152 -38.28125,9.8125 -1.7614,0.85169 -3.04801,1.70664 -4.03125,2.65625 -0.98324,0.9496 -1.69679,2.13722 -1.625,3.46875 0.0717,1.33155 0.886,2.3944 1.875,3.1875 l 19.21875,19.25 c -0.0345,0.0727 -0.06214,0.14493 -0.09375,0.21875 -0.52451,1.2256 -0.59197,2.63102 -0.15625,3.84375 0.4417,1.22942 1.303,2.22269 2.40625,3.125 l 13.90625,13.8125 c -2.62696,1.0145 -4.64002,2.12498 -6.125,3.375 -2.28909,1.92691 -3.273164,4.60681 -2.4375,6.96875 0.5223,1.47622 1.51631,2.76706 2.90625,3.90625 l 23.71875,23.40625 c -4.23384,-0.0915 -8.37701,-0.23016 -12.40625,-0.4375 L 100.4375,418.96875 95.375,415.375 c -2.18771,-1.54057 -5.19812,-1.85764 -8.6875,-1.75 l 0,-0.0312 c -9.42363,0.29073 -22.6304,4.45654 -30.0625,9.5 -1.85801,1.26086 -3.37335,2.58882 -4.375,4.09375 -1.00166,1.50494 -1.43904,3.40132 -0.71875,5.125 0.41072,0.98284 1.11909,1.80348 2.0625,2.53125 l 57.375,56.9375 c 1.1268,0.0828 2.26898,0.17386 3.40625,0.21875 l 143.25,-0.21875 35.53125,-0.0625 110.90625,-0.15625 c 1.06629,-0.11137 2.13181,-0.23009 3.1875,-0.375 0.13599,-0.0187 0.27044,-0.0433 0.40625,-0.0625 0.31611,-0.0448 0.62237,-0.10852 0.9375,-0.15625 0.35373,-0.0535 0.71004,-0.099 1.0625,-0.15625 0.39718,-0.0646 0.79196,-0.11816 1.1875,-0.1875 0.11493,-0.0201 0.22896,-0.042 0.34375,-0.0625 0.62992,-0.11274 1.24936,-0.25038 1.875,-0.375 0.54744,-0.1088 1.08093,-0.1947 1.625,-0.3125 0.1872,-0.0406 0.37571,-0.0834 0.5625,-0.125 0.97258,-0.21661 1.94492,-0.47373 2.90625,-0.71875 0.49202,-0.12549 0.97976,-0.24215 1.46875,-0.375 0.65469,-0.1776 1.28839,-0.34061 1.9375,-0.53125 0.0635,-0.0187 0.12405,-0.0437 0.1875,-0.0625 0.10449,-0.0309 0.20816,-0.0625 0.3125,-0.0937 0.60847,-0.1824 1.20911,-0.36874 1.8125,-0.5625 0.3418,-0.10966 0.69112,-0.23048 1.03125,-0.34375 0.36471,-0.12161 0.73098,-0.24926 1.09375,-0.375 0.74286,-0.25708 1.48419,-0.53829 2.21875,-0.8125 0.63878,-0.23877 1.27392,-0.46719 1.90625,-0.71875 0.12587,-0.05 0.24939,-0.1057 0.375,-0.15625 1.01922,-0.41039 2.02947,-0.83813 3.03125,-1.28125 0.21725,-0.0961 0.43984,-0.18364 0.65625,-0.28125 0.1569,-0.0707 0.3123,-0.14723 0.46875,-0.21875 1.18092,-0.54019 2.34501,-1.10261 3.5,-1.6875 0.90885,-0.45978 1.79529,-0.91937 2.6875,-1.40625 0.10656,-0.0582 0.20619,-0.12894 0.3125,-0.1875 0.74957,-0.41269 1.48138,-0.84975 2.21875,-1.28125 0.15228,-0.0891 0.317,-0.16009 0.46875,-0.25 0.63878,-0.37857 1.27698,-0.76376 1.90625,-1.15625 0.34546,-0.21539 0.6887,-0.4367 1.03125,-0.65625 0.87868,-0.56332 1.76591,-1.12857 2.625,-1.71875 0.0859,-0.059 0.16429,-0.12823 0.25,-0.1875 0.94233,-0.65176 1.86342,-1.3166 2.78125,-2 0.90656,-0.67486 1.80554,-1.35745 2.6875,-2.0625 0.0114,-0.009 0.0198,-0.0221 0.0312,-0.0312 21.84728,-17.48102 36.02493,-44.10323 36.8125,-74.1875 8.9e-4,-0.0342 -8.7e-4,-0.0596 0,-0.0937 8.5e-4,-0.41093 -8.2e-4,-0.64635 0,-1.0625 0.0258,-13.09694 0.0297,-29.9073 0.0312,-48.75 -79.60695,-87.58393 -100.58695,-109.20767 -135.96875,-148.125 -0.0334,-0.0347 -0.0602,-0.0904 -0.0937,-0.125 -0.11898,-0.1179 -0.22429,-0.22631 -0.34375,-0.34375 -0.17473,-0.17878 -0.35545,-0.35348 -0.53125,-0.53125 -0.0747,-0.074 -0.17509,-0.14485 -0.25,-0.21875 -3.97033,-3.99446 -8.18077,-7.75706 -12.65625,-11.1875 -3.07397,3.61985 -7.16596,6.07008 -11.59375,7.15625 0.0293,-0.1193 0.0625,-0.22472 0.0937,-0.34375 -7.20505,-6.32295 -8.32678,-8.24006 -26,-25.28125 0.0454,-0.19467 0.1364,-0.3685 0.1875,-0.5625 -0.34028,-0.10804 -0.72097,-0.23853 -1.0625,-0.34375 0.0454,-0.19419 0.10535,-0.36899 0.15625,-0.5625 -6.731,-2.13715 -13.70618,-3.7104 -20.875,-4.6875 z m -17.25,71.5625 c 29.30976,0 53.09375,23.83559 53.09375,53.1875 0,11.82848 -3.87614,22.75588 -10.40625,31.59375 -3.17466,-3.17146 -5.03717,-5.04052 -8.59375,-8.59375 4.43411,-6.56905 7.03125,-14.48224 7.03125,-23 0,-22.71402 -18.41097,-41.125 -41.125,-41.125 -8.53338,0 -16.45511,2.61348 -23.03125,7.0625 -3.05059,-3.04979 -5.65465,-5.65498 -8.625,-8.625 8.84324,-6.59818 19.7899,-10.5 31.65625,-10.5 z"
     id="path4484"
     style="font-size:medium;font-style:normal;font-variant:normal;font-weight:normal;font-stretch:normal;text-indent:0;text-align:start;text-decoration:none;line-height:normal;letter-spacing:normal;word-spacing:normal;text-transform:none;direction:ltr;block-progression:tb;writing-mode:lr-tb;text-anchor:start;baseline-shift:baseline;color:#000000;fill:#000000;fill-opacity:0.15686275;fill-rule:evenodd;stroke:none;stroke-width:4;marker:none;visibility:visible;display:inline;overflow:visible;enable-background:accumulate;font-family:Sans;-inkscape-font-specification:Sans" />
  <g
     transform="translate(-605.51939,-353.9683)"
     id="g4076-9-1">
    <g
       transform="translate(-926.66758,684.38448)"
       id="g4038-9-8">
      <g
         id="g4929">
        <path
           d="m 355.25,20 -151.6875,0.0625 c -39.95531,0.0172 -68.83626,0.03235 -90.65625,0.09375 -4.73569,0.256362 -9.37556,0.852632 -13.90625,1.75 -1.51023,0.299123 -3.015922,0.633019 -4.5,1 -2.226117,0.550471 -4.431221,1.176579 -6.59375,1.875 -20.904452,6.751404 -38.687843,20.284416 -50.8125,38.03125 -0.108334,0.158619 -0.236324,0.30946 -0.34375,0.46875 -0.306456,0.454303 -0.607242,0.915291 -0.90625,1.375 -1.617953,2.487519 -3.108135,5.049674 -4.5,7.6875 -2.416204,4.579126 -4.508261,9.398403 -6.1875,14.375 -0.01359,0.04029 -0.01771,0.08469 -0.03125,0.125 -0.481865,1.434239 -0.926843,2.880345 -1.34375,4.34375 -0.208453,0.731702 -0.401853,1.448822 -0.59375,2.1875 -0.02741,0.105607 -0.06668,0.206753 -0.09375,0.3125 -0.162917,0.635705 -0.318229,1.296808 -0.46875,1.9375 -0.175131,0.745444 -0.341847,1.466751 -0.5,2.21875 -0.04199,0.199929 -0.08422,0.393368 -0.125,0.59375 -0.113545,0.556834 -0.208352,1.127218 -0.3125,1.6875 -0.140964,0.75834 -0.282685,1.51677 -0.40625,2.28125 -0.123565,0.76448 -0.237796,1.5421 -0.34375,2.3125 -0.211908,1.54081 -0.391049,3.09301 -0.53125,4.65625 -0.140201,1.56324 -0.245693,3.13475 -0.3125,4.71875 C 19.99575,144.49876 20,188.30405 20,256.0625 c 0,67.67336 -0.0032,111.41246 0.09375,141.8125 1.33e-4,0.0417 -1.33e-4,0.11458 0,0.15625 0.0027,0.0629 -0.0028,0.12467 0,0.1875 0.0075,0.16637 0.02289,0.33385 0.03125,0.5 0.103117,2.10033 0.268283,4.18721 0.5,6.25 0.01417,0.12613 0.04786,0.24901 0.0625,0.375 0.08359,0.71923 0.182346,1.4107 0.28125,2.125 0.09803,0.70307 0.199799,1.39561 0.3125,2.09375 0.0432,0.26966 0.07962,0.54359 0.125,0.8125 0.06179,0.36349 0.121762,0.73165 0.1875,1.09375 0.03935,0.21824 0.08422,0.43852 0.125,0.65625 0.08776,0.46552 0.187003,0.94311 0.28125,1.40625 0.135112,0.66395 0.257917,1.30981 0.40625,1.96875 0.03076,0.13664 0.06243,0.26983 0.09375,0.40625 0.05764,0.25224 0.127935,0.49851 0.1875,0.75 0.128911,0.54185 0.268464,1.08673 0.40625,1.625 0.05292,0.20754 0.102023,0.418 0.15625,0.625 0.151575,0.57628 0.307082,1.14672 0.46875,1.71875 0.220124,0.77886 0.448884,1.57299 0.6875,2.34375 0.715848,2.31229 1.497285,4.57766 2.375,6.8125 0.280689,0.71657 0.57813,1.4481 0.875,2.15625 0.009,0.0214 0.02224,0.0411 0.03125,0.0625 0.2845,0.67727 0.575897,1.33065 0.875,2 0.02851,0.0637 0.0651,0.12391 0.09375,0.1875 0.28142,0.62616 0.549706,1.25597 0.84375,1.875 0.04962,0.10427 0.106275,0.20843 0.15625,0.3125 0.27599,0.5757 0.556957,1.1494 0.84375,1.71875 0.06944,0.13761 0.14868,0.26901 0.21875,0.40625 1.443868,2.82788 3.01751,5.59026 4.71875,8.25 1.27593,1.9948 2.618525,3.92027 4.03125,5.8125 0.470908,0.63074 0.951899,1.25616 1.4375,1.875 0.971202,1.23768 1.971546,2.46771 3,3.65625 C 61.815337,478.79047 88.261556,491.87122 117.875,492 l 2.625,0 C 67.525103,491.60021 25,448.82259 25,395.75 l 0,-269.5 C 25,72.9275 67.9275,30 121.25,30 l 244,0 -10,-10 z M 487,151.75 l 0,244 c 0,50.25665 -38.12758,91.26134 -87.15625,95.8125 l 3.1875,0 c 30.1265,-2.82213 56.21626,-19.11931 72.21875,-42.84375 0.44099,-0.65379 0.88696,-1.30382 1.3125,-1.96875 0.42554,-0.66493 0.84018,-1.35543 1.25,-2.03125 1.22947,-2.02747 2.38524,-4.09784 3.46875,-6.21875 0.36117,-0.70697 0.71805,-1.40816 1.0625,-2.125 0.34445,-0.71684 0.67253,-1.46103 1,-2.1875 1.60228,-3.55458 3.00961,-7.20174 4.1875,-10.96875 0.0255,-0.0819 0.0372,-0.16801 0.0625,-0.25 0.71629,-2.31229 1.35875,-4.67961 1.90625,-7.0625 0.1825,-0.7943 0.33676,-1.57337 0.5,-2.375 0.16324,-0.80163 0.32503,-1.62878 0.46875,-2.4375 0.14372,-0.80872 0.2823,-1.62195 0.40625,-2.4375 0.0398,-0.26208 0.0872,-0.51848 0.125,-0.78125 0.079,-0.55396 0.14894,-1.09929 0.21875,-1.65625 0.025,-0.19753 0.0387,-0.39585 0.0625,-0.59375 0.0742,-0.62299 0.15612,-1.24841 0.21875,-1.875 0.0136,-0.1345 0.0182,-0.27159 0.0312,-0.40625 0.0671,-0.70043 0.13504,-1.38901 0.1875,-2.09375 0.005,-0.0616 -0.005,-0.12589 0,-0.1875 0.0474,-0.65349 0.0903,-1.31169 0.125,-1.96875 0.006,-0.11421 0.0255,-0.22944 0.0312,-0.34375 5.1e-4,-0.0103 -5e-4,-0.021 0,-0.0312 0.0387,-0.76781 0.0726,-1.54004 0.0937,-2.3125 8.9e-4,-0.0342 -8.7e-4,-0.0596 0,-0.0937 1e-4,-0.0483 -4e-5,-0.081 0,-0.125 0.008,-0.31325 -0.005,-0.62352 0,-0.9375 0.0211,-10.67233 0.028,-23.05015 0.0312,-37.46875 0.003,-14.4186 0,-30.88391 0,-49.65625 l 0,-151.375 -5,-5 z"
           transform="translate(1532.187,-330.41615)"
           id="rect6809-2-3-8"
           style="opacity:0.5;color:#000000;fill:url(#linearGradient4084-8-2);fill-opacity:1;fill-rule:nonzero;stroke:none;stroke-width:1.5;marker:none;visibility:visible;display:inline;overflow:visible;enable-background:accumulate" />
        <path
           d="m 112.90625,20.15625 c -4.73569,0.256362 -9.37556,0.852632 -13.90625,1.75 -1.51023,0.299123 -3.015922,0.633019 -4.5,1 -2.226117,0.550471 -4.431221,1.176579 -6.59375,1.875 -2.162529,0.698421 -4.281752,1.471807 -6.375,2.3125 -9.76849,3.923234 -18.747925,9.359992 -26.65625,16.03125 -5.083924,4.288666 -9.725026,9.084055 -13.84375,14.3125 -1.372908,1.742815 -2.683225,3.539121 -3.9375,5.375 -0.109552,0.160436 -0.235127,0.307628 -0.34375,0.46875 -0.306456,0.454303 -0.607242,0.915291 -0.90625,1.375 -0.808977,1.243759 -1.590452,2.530323 -2.34375,3.8125 -0.166868,0.284301 -0.335918,0.557614 -0.5,0.84375 -0.207159,0.360853 -0.391059,0.730006 -0.59375,1.09375 -0.184795,0.331891 -0.381451,0.665735 -0.5625,1 -0.170654,0.314981 -0.332698,0.620433 -0.5,0.9375 -0.347966,0.659456 -0.697942,1.331675 -1.03125,2 -0.666617,1.33665 -1.29953,2.691638 -1.90625,4.0625 -0.879859,1.988008 -1.719204,4.006876 -2.46875,6.0625 -0.02575,0.07061 -0.03691,0.148066 -0.0625,0.21875 -0.255282,0.70525 -0.51044,1.412248 -0.75,2.125 -0.0063,0.0187 0.0063,0.04379 0,0.0625 -0.478277,1.425001 -0.929585,2.858721 -1.34375,4.3125 -0.01792,0.06293 -0.0447,0.124518 -0.0625,0.1875 -0.188998,0.668565 -0.356058,1.325628 -0.53125,2 -0.02999,0.115391 -0.06417,0.228192 -0.09375,0.34375 -0.160255,0.626112 -0.320519,1.275303 -0.46875,1.90625 -0.14068,0.598804 -0.276512,1.178203 -0.40625,1.78125 -0.05606,0.260594 -0.102244,0.519878 -0.15625,0.78125 -0.01964,0.09505 -0.04314,0.186096 -0.0625,0.28125 -0.11135,0.546937 -0.210215,1.105987 -0.3125,1.65625 -0.04812,0.25885 -0.110151,0.52168 -0.15625,0.78125 -0.0886,0.49905 -0.168912,0.99832 -0.25,1.5 -0.05057,0.31267 -0.108609,0.62383 -0.15625,0.9375 -0.06911,0.45519 -0.124613,0.91774 -0.1875,1.375 -0.105954,0.7704 -0.193117,1.53638 -0.28125,2.3125 -0.08813,0.77612 -0.179899,1.56213 -0.25,2.34375 -0.139283,1.553 -0.245648,3.11401 -0.3125,4.6875 -4.41e-4,0.0104 4.38e-4,0.0209 0,0.0312 -2.7e-5,0.008 2.7e-5,0.0229 0,0.0312 C 19.995828,144.52902 20,188.32263 20,256.0625 c 0,67.69194 -0.0033,111.44271 0.09375,141.84375 1.07e-4,0.0334 -1.07e-4,0.0917 0,0.125 0.0022,0.0524 -0.0023,0.10389 0,0.15625 0.0084,0.18714 0.02184,0.37564 0.03125,0.5625 0.10587,2.14272 0.291576,4.27142 0.53125,6.375 0.0023,0.0206 -0.0024,0.0419 0,0.0625 0.08856,0.77298 0.206258,1.51395 0.3125,2.28125 0.107671,0.77762 0.218135,1.57218 0.34375,2.34375 0.110714,0.67613 0.219415,1.35992 0.34375,2.03125 0.01731,0.0939 0.04493,0.18743 0.0625,0.28125 0.08949,0.47548 0.184986,0.96451 0.28125,1.4375 0.115748,0.56872 0.218291,1.12246 0.34375,1.6875 0.05136,0.2313 0.103277,0.45683 0.15625,0.6875 0.05544,0.24229 0.130278,0.47716 0.1875,0.71875 0.168714,0.71001 0.347315,1.42115 0.53125,2.125 0.01079,0.0414 0.02041,0.0836 0.03125,0.125 0.153969,0.58602 0.304342,1.16838 0.46875,1.75 0.04405,0.15622 0.08021,0.31285 0.125,0.46875 0.179375,0.62283 0.371264,1.2574 0.5625,1.875 0.03482,0.11268 0.05854,0.23125 0.09375,0.34375 0.205574,0.65538 0.437456,1.2882 0.65625,1.9375 0.256854,0.76225 0.50641,1.52761 0.78125,2.28125 0.01464,0.0402 0.01656,0.0848 0.03125,0.125 0.261099,0.71305 0.535514,1.41991 0.8125,2.125 0.277337,0.70739 0.58189,1.42582 0.875,2.125 0.01273,0.0303 0.01849,0.0635 0.03125,0.0937 0.280961,0.66829 0.579817,1.30817 0.875,1.96875 0.126258,0.28202 0.246174,0.56316 0.375,0.84375 0.186593,0.40717 0.370539,0.81463 0.5625,1.21875 0.05022,0.10551 0.105669,0.2072 0.15625,0.3125 0.296257,0.61798 0.597551,1.2331 0.90625,1.84375 0.104796,0.20699 0.206286,0.41886 0.3125,0.625 0.310007,0.60166 0.646774,1.18698 0.96875,1.78125 0.377433,0.69663 0.762605,1.40751 1.15625,2.09375 0.251968,0.43977 0.491461,0.87707 0.75,1.3125 0.144428,0.24294 0.291042,0.47718 0.4375,0.71875 0.409604,0.6756 0.82469,1.33529 1.25,2 0.85062,1.32942 1.744326,2.65318 2.65625,3.9375 0.379219,0.53462 0.766661,1.06718 1.15625,1.59375 0.137991,0.18627 0.266973,0.37725 0.40625,0.5625 0.294429,0.39216 0.606107,0.7687 0.90625,1.15625 0.199718,0.25754 0.39153,0.52578 0.59375,0.78125 0.08327,0.10531 0.166308,0.20754 0.25,0.3125 0.325327,0.4076 0.668339,0.81652 1,1.21875 0.500041,0.60644 0.985773,1.18722 1.5,1.78125 0.514227,0.59403 1.03434,1.19989 1.5625,1.78125 1.056321,1.16272 2.139466,2.29572 3.25,3.40625 1.105203,1.1052 2.218105,2.19849 3.375,3.25 0.0056,0.005 0.02567,-0.005 0.03125,0 1.744081,1.58448 3.550447,3.1057 5.40625,4.5625 16.595324,13.02732 37.53268,20.80712 60.34375,20.90625 0.14694,6.4e-4 0.2904,0 0.4375,0 l 139.3125,-0.21875 145.40625,-0.21875 c 30.1265,-2.8202 56.21626,-19.12761 72.21875,-42.84375 0.44099,-0.65356 0.88696,-1.30404 1.3125,-1.96875 0.29883,-0.46679 0.5839,-0.93407 0.875,-1.40625 0.12249,-0.19908 0.25389,-0.39372 0.375,-0.59375 0.0486,-0.0801 0.0766,-0.16976 0.125,-0.25 0.35959,-0.59664 0.71533,-1.17635 1.0625,-1.78125 0.78772,-1.37249 1.55891,-2.77397 2.28125,-4.1875 0.36117,-0.70677 0.71805,-1.4396 1.0625,-2.15625 0.34445,-0.71665 0.67253,-1.42998 1,-2.15625 0.9824,-2.17882 1.89373,-4.39533 2.71875,-6.65625 0.0158,-0.0433 0.0468,-0.0817 0.0625,-0.125 0.25824,-0.71082 0.4765,-1.43778 0.71875,-2.15625 0.23268,-0.69009 0.46976,-1.36554 0.6875,-2.0625 0.0226,-0.0724 0.0401,-0.14628 0.0625,-0.21875 0.71629,-2.31184 1.35875,-4.67996 1.90625,-7.0625 0.1825,-0.79418 0.33676,-1.57347 0.5,-2.375 0.16324,-0.80153 0.32503,-1.62888 0.46875,-2.4375 0.14372,-0.80862 0.2823,-1.62203 0.40625,-2.4375 0.0414,-0.2723 0.0858,-0.53945 0.125,-0.8125 0.0775,-0.54368 0.15007,-1.07843 0.21875,-1.625 0.0263,-0.20779 0.0375,-0.4168 0.0625,-0.625 0.073,-0.61274 0.15696,-1.22753 0.21875,-1.84375 0.0146,-0.14477 0.0173,-0.29255 0.0312,-0.4375 0.0731,-0.7627 0.1318,-1.51345 0.1875,-2.28125 0.0557,-0.7678 0.11813,-1.53979 0.15625,-2.3125 0.0392,-0.77814 0.0726,-1.56082 0.0937,-2.34375 8.9e-4,-0.0342 -8.7e-4,-0.0596 0,-0.0937 7e-5,-0.0363 -4e-5,-0.06 0,-0.0937 0.008,-0.32368 -0.005,-0.64428 0,-0.96875 0.0211,-10.67233 0.028,-23.05015 0.0312,-37.46875 0.003,-14.4186 0,-30.88391 0,-49.65625 l 0,-151.375 -5,-5 0,234 C 487,439.0725 444.0725,482 390.75,482 l -269.5,0 C 67.9275,482 25,439.0725 25,385.75 l 0,-269.5 c 0,-51.518951 40.071412,-93.32402 90.875,-96.09375 -0.86176,0.0023 -2.12816,-0.0024 -2.96875,0 z"
           transform="translate(1532.187,-330.41615)"
           id="path3981-7-8"
           style="opacity:0.15;color:#000000;fill:url(#linearGradient4086-12-9);fill-opacity:1;fill-rule:nonzero;stroke:none;stroke-width:1.5;marker:none;visibility:visible;display:inline;overflow:visible;enable-background:accumulate" />
      </g>
    </g>
  </g>
  <path
     d="m 355.24998,20.00003 0,102.5625 c 0,9.77909 4.10646,18.58192 10.6875,24.8125 l 126.0625,126.09375 0,-116.71875 -68.375,-68.375 z"
     id="path6657"
     style="fill:#000000;fill-opacity:0.15686275;fill-rule:nonzero;stroke:none" />
  <path
     d="m 355.25321,20.00002 0,102.555 c 0,18.88151 15.30349,34.185 34.185,34.185 l 102.555,0 -136.74,-136.74"
     id="path24"
     style="color:#000000;fill:#0074bd;fill-opacity:1;fill-rule:evenodd;stroke:none;stroke-width:4;marker:none;visibility:visible;display:inline;overflow:visible;enable-background:accumulate" />
  <path
     d="m 282.87944,161.79841 c -1.43839,10.82608 -10.70064,19.19273 -21.91855,19.19273 -10.64788,1e-5 -19.55043,-7.52626 -21.65716,-17.54977 -7.80203,1.67988 -15.32612,4.09254 -22.51599,7.1506 3.94037,10.01926 0.082,21.69478 -9.52168,27.23948 -8.91705,5.14826 -19.94721,3.39416 -26.84741,-3.62198 -4.83924,4.49945 -9.34247,9.37418 -13.42372,14.58125 8.59183,6.67269 11.15566,18.84209 5.56366,28.52772 -5.33346,9.23782 -16.33409,13.18731 -26.08195,9.96977 -2.33617,7.18139 -4.0501,14.64599 -5.05959,22.32928 11.19736,1.09053 19.95822,10.5293 19.95822,22.01189 1e-5,10.81649 -7.77403,19.81148 -18.03518,21.73184 0.76346,3.44067 1.64857,6.82824 2.68847,10.15646 2.00716,-0.52838 4.05966,-0.77384 6.08641,-0.72813 7.47252,0.16856 14.68082,4.12956 18.68865,11.0713 5.45515,9.44862 3.1447,21.2564 -4.94756,28.02363 4.51524,5.9432 9.54623,11.47588 15.02934,16.52292 4.16913,-5.05028 10.29266,-7.88587 16.5976,-8.02809 3.91418,-0.0883 7.88322,0.86919 11.51937,2.96852 10.08207,5.82087 13.84339,18.38931 8.88691,28.71443 6.85534,2.83824 14.01136,5.08986 21.41445,6.68384 2.10673,-10.02351 11.00929,-17.54977 21.65716,-17.54977 11.21791,-10e-6 20.48015,8.36664 21.91855,19.19273 6.7035,-0.91378 13.24213,-2.34502 19.56613,-4.27542 -3.30836,-9.78493 0.62834,-20.87038 9.91375,-26.23131 3.3056,-1.90848 6.90676,-2.85783 10.47386,-2.94986 7.17163,-0.18503 14.21017,3.1384 18.57662,9.2603 6.37722,-4.82625 12.27996,-10.25335 17.62445,-16.18686 -7.66567,-6.83224 -9.75936,-18.33578 -4.42479,-27.57554 4.00783,-6.94175 11.21611,-10.90274 18.68865,-11.07129 2.98087,-0.0672 6.00848,0.47339 8.8869,1.66162 2.58285,-6.39484 4.6531,-13.05489 6.16109,-19.92085 -9.61729,-2.40374 -16.74697,-11.11082 -16.74697,-21.47047 2e-5,-11.01785 8.06925,-20.15844 18.61396,-21.84386 -1.46288,-11.25378 -4.41913,-22.03481 -8.66286,-32.14969 -10.32223,4.94544 -22.87773,1.19019 -28.69574,-8.8869 -5.43919,-9.42096 -3.14643,-21.19081 4.89153,-27.96762 -4.82537,-5.19741 -10.08308,-9.99908 -15.72012,-14.31987 -6.78467,7.98948 -18.51406,10.26119 -27.9116,4.83552 -8.83222,-5.09928 -12.82194,-15.38118 -10.34316,-24.79372 -6.73619,-2.1388 -13.71734,-3.72697 -20.8917,-4.70483 z m -17.06435,79.90747 c 0.76557,0 1.52164,0.0176 2.27774,0.0559 3.02435,0.15359 5.97689,0.61363 8.81222,1.34424 0.70886,0.18252 1.41499,0.38121 2.10971,0.59744 1.38937,0.43276 2.74284,0.93152 4.07005,1.4936 0.66364,0.28084 1.31456,0.58273 1.96035,0.89615 0.3229,0.15671 0.6524,0.32106 0.97084,0.48542 0.0445,0.0228 0.0863,0.0518 0.13068,0.0747 0.43315,0.22391 0.86354,0.45317 1.28824,0.69078 0.46759,0.26287 0.92405,0.52472 1.38157,0.80282 1.22,0.74204 2.4081,1.53707 3.5473,2.38974 0.42723,0.31958 0.85379,0.6552 1.26956,0.98952 0.25539,0.20585 0.51476,0.40477 0.76546,0.61611 0.33849,0.28457 0.65975,0.58313 0.98951,0.87749 0.61804,0.55167 1.22591,1.11389 1.81099,1.69896 0.37651,0.37673 0.73888,0.76758 1.10152,1.15754 0.006,0.006 0.0126,0.0122 0.0186,0.0186 0.16769,0.18053 0.33942,0.35812 0.50408,0.54142 0.42261,0.47043 0.82991,0.94939 1.23222,1.4376 0.11295,0.13704 0.22476,0.27232 0.33606,0.41074 0.33538,0.41626 0.66906,0.84114 0.98952,1.26956 0.39932,0.53482 0.78207,1.07122 1.15754,1.62428 0.52449,0.77261 1.03587,1.56464 1.51226,2.37109 0.27147,0.45918 0.52893,0.93065 0.78413,1.40024 0.6835,1.25767 1.30531,2.53742 1.867,3.86469 0.24621,0.58138 0.48771,1.16112 0.70947,1.75498 0.0226,0.0606 0.0336,0.12594 0.056,0.1867 0.1969,0.53448 0.38343,1.08031 0.56009,1.62428 0.0242,0.0747 0.0508,0.14917 0.0747,0.22404 0.0687,0.21557 0.12119,0.43646 0.1867,0.65346 0.16089,0.5329 0.32557,1.06445 0.46674,1.60561 0.0388,0.14892 0.0747,0.29855 0.11203,0.44808 0.0956,0.38241 0.17575,0.77126 0.26138,1.15753 0.10566,0.47667 0.20853,0.95533 0.29872,1.4376 0.004,0.0251 0.014,0.0495 0.0186,0.0747 0.008,0.0432 0.0108,0.0874 0.0186,0.13069 0.10149,0.55727 0.19961,1.116 0.28005,1.68029 0.005,0.0377 0.0134,0.0744 0.0186,0.11203 0.0172,0.12351 0.0211,0.24956 0.0373,0.37339 0.0684,0.5212 0.13651,1.04158 0.18669,1.56828 0.0623,0.65458 0.11576,1.31667 0.14937,1.97902 0.0378,0.75003 0.056,1.51837 0.056,2.27773 0,1.53116 -0.0725,3.02677 -0.22404,4.51813 -6e-4,0.006 5.9e-4,0.0125 0,0.0186 -0.0754,0.73943 -0.16868,1.4748 -0.28005,2.20306 -8.8e-4,0.006 8.7e-4,0.0126 0,0.0186 -0.11168,0.72815 -0.24542,1.44963 -0.39207,2.16571 -8.7e-4,0.006 8.8e-4,0.0127 0,0.0186 -0.0734,0.358 -0.15768,0.70947 -0.24271,1.06419 -0.0822,0.3555 -0.1707,0.71199 -0.26138,1.06418 -0.002,0.006 0.002,0.0128 0,0.0186 -0.18131,0.70295 -0.38298,1.40203 -0.59744,2.09104 -0.002,0.006 0.002,0.0129 0,0.0186 -0.43124,1.38356 -0.93418,2.74816 -1.4936,4.07006 -0.56169,1.32727 -1.18351,2.60701 -1.867,3.86469 -0.003,0.004 0.003,0.0138 0,0.0186 -0.68135,1.25264 -1.42691,2.46449 -2.22173,3.64064 -0.003,0.004 0.003,0.0143 0,0.0186 -0.39624,0.58594 -0.80916,1.15207 -1.23221,1.71763 -0.003,0.004 0.003,0.0146 0,0.0186 -0.42335,0.5656 -0.87632,1.11733 -1.32557,1.66163 -0.003,0.003 0.003,0.0149 0,0.0186 -1.80709,2.188 -3.82316,4.20532 -6.01173,6.01174 -2.19202,1.80923 -4.56072,3.41267 -7.07592,4.77951 -1.25767,0.68349 -2.55608,1.3053 -3.88335,1.867 -1.32721,0.56163 -2.68068,1.06118 -4.07005,1.49359 -0.69471,0.21623 -1.40085,0.41493 -2.10971,0.59745 -2.83532,0.72998 -5.78787,1.19077 -8.81223,1.34422 -0.75609,0.0384 -1.51216,0.056 -2.27773,0.056 -0.76558,0 -1.52164,-0.0177 -2.27774,-0.056 -3.02436,-0.15358 -5.9769,-0.61362 -8.81222,-1.34422 -0.70886,-0.18252 -1.415,-0.38122 -2.10971,-0.59745 -1.38938,-0.43276 -2.74284,-0.93152 -4.07006,-1.49359 -1.32727,-0.5617 -2.62568,-1.18351 -3.88335,-1.867 -0.6288,-0.34197 -1.23832,-0.71184 -1.84833,-1.08286 -0.60999,-0.37101 -1.21906,-0.75944 -1.81098,-1.15754 -0.59031,-0.39891 -1.16666,-0.80612 -1.73631,-1.23222 -1.13928,-0.85219 -2.23487,-1.7518 -3.28592,-2.70714 -0.52219,-0.47465 -1.03189,-0.97619 -1.53093,-1.47493 -0.50539,-0.50508 -0.99423,-1.0021 -1.47493,-1.53094 -0.003,-0.003 0.003,-0.0151 0,-0.0186 -0.47762,-0.52577 -0.94794,-1.05732 -1.40024,-1.60562 -0.45236,-0.54805 -0.89948,-1.11065 -1.32557,-1.6803 -0.42606,-0.56988 -0.83335,-1.14577 -1.23222,-1.7363 -0.79782,-1.18061 -1.53824,-2.40165 -2.22173,-3.65931 -0.68349,-1.25767 -1.3053,-2.53741 -1.86699,-3.86468 -0.003,-0.005 0.003,-0.0134 0,-0.0186 -0.27858,-0.65852 -0.55557,-1.32342 -0.80282,-1.99768 -0.002,-0.005 0.002,-0.0131 0,-0.0186 -0.24897,-0.67982 -0.47458,-1.35884 -0.69078,-2.0537 -0.21156,-0.67972 -0.39933,-1.36086 -0.57878,-2.0537 -0.0128,-0.0497 -0.0247,-0.0997 -0.0373,-0.14936 -0.16098,-0.63068 -0.31444,-1.28204 -0.44808,-1.92301 -0.0336,-0.1611 -0.0616,-0.32369 -0.0933,-0.48542 -0.0894,-0.45439 -0.18601,-0.90367 -0.26137,-1.36291 -0.0378,-0.23 -0.0779,-0.45961 -0.11203,-0.69079 -0.003,-0.0182 0.003,-0.0379 0,-0.056 -0.0891,-0.60741 -0.15996,-1.21436 -0.22403,-1.82965 -0.011,-0.10615 -0.027,-0.21103 -0.0373,-0.31739 -0.0609,-0.62957 -0.0965,-1.26707 -0.13069,-1.90434 -0.003,-0.0504 -0.0161,-0.0989 -0.0186,-0.14936 -0.0383,-0.75612 -0.056,-1.51217 -0.056,-2.27773 0,-0.76558 0.0176,-1.52165 0.056,-2.27774 0.0366,-0.74859 0.0926,-1.4979 0.16804,-2.2404 5.9e-4,-0.006 -6e-4,-0.0125 0,-0.0186 0.0752,-0.73951 0.16898,-1.47472 0.28004,-2.20306 8.8e-4,-0.006 -8.7e-4,-0.0126 0,-0.0186 0.11137,-0.72824 0.24572,-1.44954 0.39208,-2.16571 8.7e-4,-0.006 -8.8e-4,-0.0127 0,-0.0186 0.14664,-0.71609 0.32337,-1.42528 0.50409,-2.12838 8.7e-4,-0.006 -0.002,-0.0129 0,-0.0186 0.18099,-0.70302 0.38327,-1.40192 0.59743,-2.09104 0.002,-0.005 -0.002,-0.013 0,-0.0186 0.21621,-0.69469 0.44181,-1.37409 0.69079,-2.0537 0.18655,-0.50919 0.39294,-1.01199 0.59744,-1.51227 0.0233,-0.0567 0.0512,-0.11137 0.0747,-0.16802 0.10053,-0.24304 0.19403,-0.4873 0.29873,-0.72813 0.16146,-0.37101 0.33282,-0.7359 0.50409,-1.10154 0.11732,-0.25075 0.23286,-0.49861 0.35472,-0.7468 0.2684,-0.54606 0.54988,-1.09015 0.84015,-1.62428 0.003,-0.004 -0.003,-0.0139 0,-0.0186 0.3417,-0.62879 0.69344,-1.23833 1.06418,-1.84833 0.37346,-0.6144 0.75558,-1.21661 1.15755,-1.81099 0.39601,-0.58604 0.80939,-1.15195 1.23222,-1.71763 0.003,-0.004 -0.003,-0.0148 0,-0.0186 0.42313,-0.5657 0.87653,-1.11722 1.32556,-1.66162 0.003,-0.004 -0.003,-0.015 0,-0.0186 0.45231,-0.54801 0.92262,-1.08014 1.40025,-1.60562 1.43302,-1.57657 2.96734,-3.04906 4.61148,-4.40611 2.19202,-1.80924 4.56072,-3.41268 7.07592,-4.77952 1.25767,-0.68348 2.55608,-1.30529 3.88335,-1.86699 1.32721,-0.56163 2.68069,-1.0612 4.07006,-1.4936 0.69471,-0.21623 1.40085,-0.41492 2.1097,-0.59744 2.83533,-0.72999 5.78788,-1.19079 8.81223,-1.34424 0.75609,-0.0383 1.51216,-0.0559 2.27774,-0.0559 z"
     id="path3161"
     style="color:#000000;fill:#567963;fill-opacity:1;fill-rule:nonzero;stroke:none;marker:none;visibility:visible;display:inline;overflow:visible;enable-background:accumulate" />
  <path
     d="m 222.43876,334.60007 c -3.30799,0.006 -6.81212,0.57843 -10.38668,1.83454 -3.3374,1.18133 -5.04497,3.91186 -5.04497,3.91186 l -2.94065,4.58633 5.04497,-2.07734 c 0,0 1.52447,-0.62315 5.26078,-1.40288 6.84493,-1.42629 15.5153,3.27531 16.83453,11.00719 0.65961,3.86594 -0.3762,8.64354 -4.64029,14.13668 -4.26409,5.49315 -11.79512,11.62579 -23.79495,17.85971 l -0.56654,0.32373 -0.24281,0.62051 c 0.0307,-0.082 -0.11876,0.17591 -0.26978,0.35072 -0.0755,0.0874 -0.13624,0.16252 -0.18885,0.21582 -0.0263,0.0266 -0.0413,0.0417 -0.054,0.054 -0.006,0.006 -0.0243,-0.003 -0.027,0 l 1.40287,2.9946 0.21583,-0.054 c 29.24798,-7.68864 41.38916,-20.80237 42.38307,-32.72479 0.99389,-11.92243 -9.48894,-21.66181 -22.9856,-21.63668 z"
     id="path4392"
     style="font-size:medium;font-style:normal;font-variant:normal;font-weight:normal;font-stretch:normal;text-indent:0;text-align:start;text-decoration:none;line-height:normal;letter-spacing:normal;word-spacing:normal;text-transform:none;direction:ltr;block-progression:tb;writing-mode:lr-tb;text-anchor:start;baseline-shift:baseline;color:#000000;fill:#0074bd;fill-opacity:1;fill-rule:evenodd;stroke:none;stroke-width:4;marker:none;visibility:visible;display:inline;overflow:visible;enable-background:accumulate;font-family:Sans;-inkscape-font-specification:Sans" />
  <path
     d="m 115.90105,337.05512 c -6.37408,0.16675 -21.117174,1.52914 -38.255364,9.82013 -1.7614,0.85169 -3.09051,1.69428 -4.07375,2.64389 -0.98324,0.9496 -1.69048,2.14867 -1.6187,3.48021 0.0717,1.33154 0.89949,2.41733 1.88849,3.21043 0.98901,0.79309 2.23127,1.41684 3.75,1.9964 6.07491,2.31827 16.64476,3.80321 29.595304,4.55935 25.90107,1.51227 60.96595,-0.12846 85.19779,-6.50179 l 0.29677,-0.0809 0.2428,-0.16186 c 4.74274,-3.23654 11.54675,-6.17806 11.54675,-6.17806 l -0.97122,-3.29136 c 0,0 -19.50119,3.47286 -38.87587,5.09891 -23.76243,1.99363 -49.40809,2.37506 -61.91544,0.70145 -3.719614,-0.49729 -6.200544,-1.12041 -7.553954,-1.69965 -0.62819,-0.26886 -0.94065,-0.51664 -1.07913,-0.64747 0.0209,0.0905 0.2567,-0.4366 1.29496,-1.1331 1.1072,-0.74274 2.76323,-1.57307 4.694244,-2.3741 7.72404,-3.20413 19.4784,-6.01618 19.4784,-6.01618 l -0.26978,-3.39928 c -1.19652,-0.0592 -2.12186,-0.065 -3.3723,-0.0271 z"
     id="path4390"
     style="font-size:medium;font-style:normal;font-variant:normal;font-weight:normal;font-stretch:normal;text-indent:0;text-align:start;text-decoration:none;line-height:normal;letter-spacing:normal;word-spacing:normal;text-transform:none;direction:ltr;block-progression:tb;writing-mode:lr-tb;text-anchor:start;baseline-shift:baseline;color:#000000;fill:#0074bd;fill-opacity:1;fill-rule:evenodd;stroke:none;stroke-width:4;marker:none;visibility:visible;display:inline;overflow:visible;enable-background:accumulate;font-family:Sans;-inkscape-font-specification:Sans" />
  <path
     d="m 107.64566,366.5425 c -5.59194,1.85592 -9.477444,3.75325 -11.978404,5.80035 -1.2505,1.02356 -2.17333,2.09275 -2.69784,3.31834 -0.52452,1.2256 -0.57061,2.61821 -0.1349,3.83094 0.87143,2.42548 3.18002,4.07625 6.31294,5.53057 3.132944,1.45432 7.235024,2.67056 12.140294,3.61511 19.62108,3.77816 52.14325,3.38766 83.09347,-5.66547 l 5.15288,-1.48381 -5.07194,-1.78058 c -6.10932,-2.15359 -10.00899,-6.07014 -10.00899,-6.07014 l -0.64748,-0.64747 -0.89029,0.16186 c -29.84114,5.74301 -46.84342,5.54645 -68.68701,3.29137 -4.08125,-0.42181 -6.31093,-1.26634 -7.20324,-1.94245 -0.89228,-0.6761 -0.80725,-0.86208 -0.62049,-1.51078 0.18675,-0.64872 0.86265,-1.59766 1.53776,-2.29317 0.67512,-0.69552 1.26799,-1.13309 1.26799,-1.13309 l -1.56475,-3.02158 z"
     id="path4384"
     style="font-size:medium;font-style:normal;font-variant:normal;font-weight:normal;font-stretch:normal;text-indent:0;text-align:start;text-decoration:none;line-height:normal;letter-spacing:normal;word-spacing:normal;text-transform:none;direction:ltr;block-progression:tb;writing-mode:lr-tb;text-anchor:start;baseline-shift:baseline;color:#000000;fill:#0074bd;fill-opacity:1;fill-rule:evenodd;stroke:none;stroke-width:4;marker:none;visibility:visible;display:inline;overflow:visible;enable-background:accumulate;font-family:Sans;-inkscape-font-specification:Sans" />
  <path
     d="m 113.93163,394.86982 c -5.10971,1.4277 -8.66414,3.03711 -10.95323,4.96402 -2.28909,1.92692 -3.263724,4.59848 -2.42806,6.96043 0.83567,2.36195 2.93845,4.18636 5.82734,5.80036 2.88889,1.61399 6.6404,2.99579 11.08812,4.12769 17.79087,4.52761 46.72141,4.84714 72.51794,-6.20503 l 3.88489,-1.67267 -3.93885,-1.53776 c -8.14459,-3.16514 -13.94783,-6.79856 -13.94783,-6.79856 l -0.56654,-0.3777 -0.67446,0.13489 c -22.53137,4.25895 -32.68048,4.57285 -53.12048,2.23921 -4.12012,-0.47255 -6.49799,-1.20291 -7.58093,-1.80755 -0.54146,-0.30232 -0.74092,-0.54813 -0.78237,-0.62051 -0.0414,-0.0723 -0.0153,0.0181 0,-0.054 0.0306,-0.14404 0.4382,-0.78369 0.97122,-1.24101 0.53303,-0.45733 1.02518,-0.7554 1.02518,-0.7554 l -1.32194,-3.15647 z"
     id="path4380"
     style="font-size:medium;font-style:normal;font-variant:normal;font-weight:normal;font-stretch:normal;text-indent:0;text-align:start;text-decoration:none;line-height:normal;letter-spacing:normal;word-spacing:normal;text-transform:none;direction:ltr;block-progression:tb;writing-mode:lr-tb;text-anchor:start;baseline-shift:baseline;color:#000000;fill:#0074bd;fill-opacity:1;fill-rule:evenodd;stroke:none;stroke-width:4;marker:none;visibility:visible;display:inline;overflow:visible;enable-background:accumulate;font-family:Sans;-inkscape-font-specification:Sans" />
  <path
     d="m 86.683446,413.6198 c -9.42363,0.29073 -22.62185,4.42596 -30.05394,9.46943 -1.85802,1.26086 -3.36885,2.5688 -4.3705,4.07373 -1.00165,1.50493 -1.44871,3.42919 -0.72842,5.15287 0.7203,1.72369 2.29902,2.98349 4.58633,4.01979 2.28732,1.0363 5.37733,1.8719 9.46942,2.53597 51.889894,8.41089 99.129384,6.53184 130.197764,0.99819 15.53418,-2.76681 26.96407,-6.36997 33.21041,-10.3597 3.12318,-1.99486 5.26604,-4.21754 5.20683,-7.01438 -0.0296,-1.39843 -0.70978,-2.71549 -1.7536,-3.77698 -1.04381,-1.06149 -2.45958,-1.93824 -4.26258,-2.75179 l -1.80756,2.88669 c 0,0 1.15274,1.14112 1.10612,2.18524 -0.0233,0.52207 -0.19453,1.21418 -1.40288,2.21223 -1.20834,0.99806 -3.46434,2.19225 -7.17625,3.31834 -14.19253,4.2988 -44.68225,7.23159 -74.59528,7.60791 -14.95652,0.18816 -29.79945,-0.25404 -42.464,-1.42985 -12.664554,-1.17581 -23.188984,-3.13925 -29.244594,-5.77338 -0.99677,-0.43417 -1.50584,-0.84574 -1.6187,-0.9982 -0.11286,-0.15246 -0.0369,0.0724 0,-0.0269 0.0738,-0.19861 1.20193,-1.34486 2.9946,-2.29316 3.58534,-1.8966 9.29785,-3.60483 11.84352,-4.15468 5.50687,-1.1913 8.41726,-0.97122 8.41726,-0.97122 l 6.205034,0.43165 -5.071944,-3.56114 c -2.18771,-1.54057 -5.19766,-1.88822 -8.68704,-1.78058 z"
     id="path4376"
     style="font-size:medium;font-style:normal;font-variant:normal;font-weight:normal;font-stretch:normal;text-indent:0;text-align:start;text-decoration:none;line-height:normal;letter-spacing:normal;word-spacing:normal;text-transform:none;direction:ltr;block-progression:tb;writing-mode:lr-tb;text-anchor:start;baseline-shift:baseline;color:#000000;fill:#0074bd;fill-opacity:1;fill-rule:evenodd;stroke:none;stroke-width:4;marker:none;visibility:visible;display:inline;overflow:visible;enable-background:accumulate;font-family:Sans;-inkscape-font-specification:Sans" />
  <path
     d="m 242.26788,430.07663 c 0,0 0.0684,-0.0921 -0.0269,0.054 -0.0954,0.14605 -0.28869,0.40995 -0.64748,0.78238 -0.71758,0.74484 -2.09258,1.89502 -4.58633,3.29136 -4.98751,2.7927 -14.47417,6.52383 -31.99638,9.82014 -39.52939,7.44207 -88.59609,6.56963 -117.436984,1.80755 l -6.31295,-1.05216 4.93705,4.07375 c 0,0 0.63353,0.50811 1.78058,1.05215 1.14705,0.54404 2.94942,1.23443 5.69244,1.9964 5.48606,1.52395 14.752454,3.27085 30.161854,4.26259 23.43036,1.498 53.05546,1.09472 77.18521,-2.48202 12.06487,-1.78835 22.73916,-4.3769 30.67444,-7.9856 7.93527,-3.6087 13.42629,-8.42696 13.92085,-14.8651 l -3.34532,-0.7554 z"
     id="path4370"
     style="font-size:medium;font-style:normal;font-variant:normal;font-weight:normal;font-stretch:normal;text-indent:0;text-align:start;text-decoration:none;line-height:normal;letter-spacing:normal;word-spacing:normal;text-transform:none;direction:ltr;block-progression:tb;writing-mode:lr-tb;text-anchor:start;baseline-shift:baseline;color:#000000;fill:#0074bd;fill-opacity:1;fill-rule:evenodd;stroke:none;stroke-width:4;marker:none;visibility:visible;display:inline;overflow:visible;enable-background:accumulate;font-family:Sans;-inkscape-font-specification:Sans" />
  <path
     d="m 171.09886,180.22967 1.53777,6.09711 c 2.63179,10.36826 1.62281,18.72211 -1.59172,26.03416 -3.21454,7.31206 -8.70827,13.58403 -15.18885,19.45143 -12.96113,11.7348 -29.80714,21.62989 -39.01076,35.44962 -6.41583,9.63879 -4.79421,20.02481 1.45683,30.24278 6.25104,10.21797 16.99395,20.67988 29.29854,31.78055 l 2.7518,-1.99639 c -5.00258,-11.30969 -15.4604,-21.41889 -19.31654,-32.42804 -1.92806,-5.50458 -2.31911,-11.11669 0.24281,-17.50899 2.56192,-6.3923 8.19647,-13.61208 18.56114,-21.79854 26.47252,-20.89484 33.25161,-38.49848 33.07552,-51.04313 -0.17609,-12.54466 -7.39208,-19.82913 -7.39208,-19.82913 l -4.42446,-4.45143 z m 35.17984,56.84349 -0.24281,0.13489 c -0.002,-6e-5 0.002,-0.0273 0,-0.0269 -0.17234,0.0449 -0.40255,0.12708 -0.72841,0.21583 -0.65174,0.17747 -1.59311,0.42769 -2.77878,0.78236 -2.37134,0.70936 -5.71032,1.77632 -9.57733,3.21044 -7.73402,2.86823 -17.60073,7.22135 -26.22301,13.16545 -8.62228,5.94411 -16.09817,13.52725 -18.61509,23.06654 -2.51694,9.53928 0.18357,20.7649 11.00718,33.23738 5.84628,6.72974 4.9647,12.55932 2.77877,17.18525 -2.18593,4.62593 -5.85431,7.68884 -5.85431,7.68884 l 1.88849,2.85972 c 0,0 0.30528,-0.20625 0.32374,-0.21584 0.52426,-0.27248 8.05936,-4.19107 14.21762,-10.89927 3.18755,-3.47221 5.97106,-7.6941 6.98741,-12.54495 1.01634,-4.85086 0.12525,-10.29768 -3.75,-15.75539 -3.42336,-4.81002 -6.57589,-8.95764 -8.47122,-12.81474 -1.89533,-3.8571 -2.5783,-7.28623 -1.34892,-11.24999 2.45876,-7.92752 13.57045,-18.51079 41.70861,-34.82911 l -0.86331,-1.48382 0,0.0809 -0.45863,-1.80756 z"
     id="path4361"
     style="font-size:medium;font-style:normal;font-variant:normal;font-weight:normal;font-stretch:normal;text-indent:0;text-align:start;text-decoration:none;line-height:normal;letter-spacing:normal;word-spacing:normal;text-transform:none;direction:ltr;block-progression:tb;writing-mode:lr-tb;text-anchor:start;baseline-shift:baseline;color:#000000;fill:#ea2d2e;fill-opacity:1;fill-rule:evenodd;stroke:none;stroke-width:4;marker:none;visibility:visible;display:inline;overflow:visible;enable-background:accumulate;font-family:Sans;-inkscape-font-specification:Sans" />
</svg>
