<?xml version="1.0" encoding="UTF-8" standalone="no"?>
<!-- Created with Inkscape (http://www.inkscape.org/) -->

<svg
   xmlns:dc="http://purl.org/dc/elements/1.1/"
   xmlns:cc="http://creativecommons.org/ns#"
   xmlns:rdf="http://www.w3.org/1999/02/22-rdf-syntax-ns#"
   xmlns:svg="http://www.w3.org/2000/svg"
   xmlns="http://www.w3.org/2000/svg"
   xmlns:xlink="http://www.w3.org/1999/xlink"
   version="1.1"
   width="512"
   height="512"
   id="svg2">
  <defs
     id="defs4">
    <linearGradient
       id="linearGradient3170">
      <stop
         id="stop3172"
         style="stop-color:#cc7110;stop-opacity:1"
         offset="0" />
      <stop
         id="stop3174"
         style="stop-color:#673f0b;stop-opacity:0.78448278"
         offset="1" />
    </linearGradient>
    <linearGradient
       id="linearGradient3938">
      <stop
         id="stop3940"
         style="stop-color:#b1f1ee;stop-opacity:0.93103451"
         offset="0" />
      <stop
         id="stop3942"
         style="stop-color:#132682;stop-opacity:1"
         offset="1" />
    </linearGradient>
    <linearGradient
       x1="64.477501"
       y1="56.3008"
       x2="78.466103"
       y2="48.0854"
       id="XMLID_74_-8-1"
       gradientUnits="userSpaceOnUse">
      <stop
         id="stop155-3-8"
         style="stop-color:#ffffff;stop-opacity:1"
         offset="0" />
      <stop
         id="stop157-94-6"
         style="stop-color:#e6e6e6;stop-opacity:1"
         offset="1" />
    </linearGradient>
    <radialGradient
       cx="558.35437"
       cy="385.4841"
       r="191.6187"
       fx="558.35437"
       fy="385.4841"
       id="radialGradient3867"
       xlink:href="#XMLID_74_-8-1"
       gradientUnits="userSpaceOnUse"
       gradientTransform="matrix(1,0,0,1.0499906,0,-19.270593)" />
    <linearGradient
       x1="200.0508"
       y1="185.0742"
       x2="200.0508"
       y2="217.4595"
       id="SVGID_2_"
       gradientUnits="userSpaceOnUse">
      <stop
         id="stop13"
         style="stop-color:#61b74a;stop-opacity:1"
         offset="0" />
      <stop
         id="stop15"
         style="stop-color:#449934;stop-opacity:1"
         offset="1" />
    </linearGradient>
    <linearGradient
       x1="200.0508"
       y1="185.0742"
       x2="200.0508"
       y2="217.4595"
       id="linearGradient3021"
       xlink:href="#SVGID_2_"
       gradientUnits="userSpaceOnUse"
       gradientTransform="matrix(13.577628,0,0,13.577628,-2026.1619,-2566.7096)" />
    <linearGradient
       x1="19.244999"
       y1="21.030804"
       x2="19.360001"
       y2="44.984001"
       id="linearGradient2460"
       gradientUnits="userSpaceOnUse">
      <stop
         id="stop3602"
         style="stop-color:#fafafa;stop-opacity:1"
         offset="0" />
      <stop
         id="stop3604"
         style="stop-color:#f0f0f0;stop-opacity:1"
         offset="1" />
    </linearGradient>
    <linearGradient
       x1="19.244999"
       y1="21.030804"
       x2="19.360001"
       y2="44.984001"
       id="linearGradient3096"
       xlink:href="#linearGradient2460"
       gradientUnits="userSpaceOnUse"
       gradientTransform="matrix(11.076923,0,0,11.076923,-9.8523013,-20.578025)" />
    <linearGradient
       x1="1012.5133"
       y1="484.41721"
       x2="1006.8082"
       y2="20.625916"
       id="linearGradient4114-2"
       xlink:href="#ButtonShadow-0-1-1-5"
       gradientUnits="userSpaceOnUse"
       gradientTransform="matrix(1.0317796,0,0,1.0317796,-830.86406,592.67791)" />
    <linearGradient
       x1="45.447727"
       y1="92.539597"
       x2="45.447727"
       y2="7.0165396"
       id="ButtonShadow-0-1-1-5"
       gradientUnits="userSpaceOnUse"
       gradientTransform="matrix(1.0058652,0,0,0.994169,100,0)">
      <stop
         id="stop3750-8-9-3-6"
         style="stop-color:#000000;stop-opacity:1"
         offset="0" />
      <stop
         id="stop3752-5-6-4-2"
         style="stop-color:#000000;stop-opacity:0.58823532"
         offset="1" />
    </linearGradient>
    <linearGradient
       x1="1012.5133"
       y1="484.41721"
       x2="1006.8082"
       y2="20.625916"
       id="linearGradient4112-2"
       xlink:href="#ButtonShadow-0-1-1-5"
       gradientUnits="userSpaceOnUse"
       gradientTransform="matrix(1.0402541,0,0,1.0402541,-837.95116,592.51825)" />
    <linearGradient
       x1="45.447727"
       y1="92.539597"
       x2="45.447727"
       y2="7.0165396"
       id="linearGradient5292"
       gradientUnits="userSpaceOnUse"
       gradientTransform="matrix(1.0058652,0,0,0.994169,100,0)">
      <stop
         id="stop5294"
         style="stop-color:#000000;stop-opacity:1"
         offset="0" />
      <stop
         id="stop5296"
         style="stop-color:#000000;stop-opacity:0.58823532"
         offset="1" />
    </linearGradient>
    <linearGradient
       x1="1012.5133"
       y1="484.41721"
       x2="1006.8082"
       y2="20.625916"
       id="linearGradient4110-6"
       xlink:href="#ButtonShadow-0-1-1-5"
       gradientUnits="userSpaceOnUse"
       gradientTransform="matrix(1.023305,0,0,1.023305,-823.77704,592.83757)" />
    <linearGradient
       x1="45.447727"
       y1="92.539597"
       x2="45.447727"
       y2="7.0165396"
       id="linearGradient5299"
       gradientUnits="userSpaceOnUse"
       gradientTransform="matrix(1.0058652,0,0,0.994169,100,0)">
      <stop
         id="stop5301"
         style="stop-color:#000000;stop-opacity:1"
         offset="0" />
      <stop
         id="stop5303"
         style="stop-color:#000000;stop-opacity:0.58823532"
         offset="1" />
    </linearGradient>
    <linearGradient
       x1="1012.5133"
       y1="484.41721"
       x2="1006.8082"
       y2="20.625916"
       id="linearGradient4116-6"
       xlink:href="#ButtonShadow-0-1-1-5"
       gradientUnits="userSpaceOnUse"
       gradientTransform="matrix(1.0148305,0,0,1.0148305,-816.68996,592.99723)" />
    <linearGradient
       x1="45.447727"
       y1="92.539597"
       x2="45.447727"
       y2="7.0165396"
       id="linearGradient5306"
       gradientUnits="userSpaceOnUse"
       gradientTransform="matrix(1.0058652,0,0,0.994169,100,0)">
      <stop
         id="stop5308"
         style="stop-color:#000000;stop-opacity:1"
         offset="0" />
      <stop
         id="stop5310"
         style="stop-color:#000000;stop-opacity:0.58823532"
         offset="1" />
    </linearGradient>
    <linearGradient
       x1="1012.5133"
       y1="484.41721"
       x2="1006.8082"
       y2="20.625916"
       id="linearGradient3372"
       xlink:href="#ButtonShadow-0-1-1-5"
       gradientUnits="userSpaceOnUse"
       gradientTransform="matrix(1.0074153,0,0,1.0074153,-810.48879,593.1369)" />
    <linearGradient
       x1="45.447727"
       y1="92.539597"
       x2="45.447727"
       y2="7.0165396"
       id="linearGradient5313"
       gradientUnits="userSpaceOnUse"
       gradientTransform="matrix(1.0058652,0,0,0.994169,100,0)">
      <stop
         id="stop5315"
         style="stop-color:#000000;stop-opacity:1"
         offset="0" />
      <stop
         id="stop5317"
         style="stop-color:#000000;stop-opacity:0.58823532"
         offset="1" />
    </linearGradient>
    <linearGradient
       x1="1016.1035"
       y1="476.25983"
       x2="1011.9534"
       y2="251.66064"
       id="linearGradient4082"
       xlink:href="#linearGradient4487"
       gradientUnits="userSpaceOnUse"
       gradientTransform="translate(-146.22032,369.08845)" />
    <linearGradient
       id="linearGradient4487">
      <stop
         id="stop4489"
         style="stop-color:#000000;stop-opacity:1"
         offset="0" />
      <stop
         id="stop4491"
         style="stop-color:#000000;stop-opacity:0"
         offset="1" />
    </linearGradient>
    <linearGradient
       id="linearGradient3737">
      <stop
         id="stop3739"
         style="stop-color:#ffffff;stop-opacity:1"
         offset="0" />
      <stop
         id="stop3741"
         style="stop-color:#ffffff;stop-opacity:0"
         offset="1" />
    </linearGradient>
    <linearGradient
       id="linearGradient4046">
      <stop
         id="stop4048"
         style="stop-color:#000000;stop-opacity:1"
         offset="0" />
      <stop
         id="stop4050"
         style="stop-color:#ffffff;stop-opacity:0.2"
         offset="1" />
    </linearGradient>
    <linearGradient
       x1="1012.5133"
       y1="484.41721"
       x2="1006.8082"
       y2="20.625916"
       id="linearGradient5342"
       xlink:href="#ButtonShadow-0-1-1-5"
       gradientUnits="userSpaceOnUse"
       gradientTransform="matrix(1.0074153,0,0,1.0074153,-810.48879,593.1369)" />
    <linearGradient
       x1="1012.5133"
       y1="484.41721"
       x2="1006.8082"
       y2="20.625916"
       id="linearGradient4114-2-6"
       xlink:href="#ButtonShadow-0-1-1-5-9"
       gradientUnits="userSpaceOnUse"
       gradientTransform="matrix(1.0317796,0,0,1.0317796,-830.86406,592.67791)" />
    <linearGradient
       x1="45.447727"
       y1="92.539597"
       x2="45.447727"
       y2="7.0165396"
       id="ButtonShadow-0-1-1-5-9"
       gradientUnits="userSpaceOnUse"
       gradientTransform="matrix(1.0058652,0,0,0.994169,100,0)">
      <stop
         id="stop3750-8-9-3-6-4"
         style="stop-color:#000000;stop-opacity:1"
         offset="0" />
      <stop
         id="stop3752-5-6-4-2-9"
         style="stop-color:#000000;stop-opacity:0.58823532"
         offset="1" />
    </linearGradient>
    <linearGradient
       x1="1012.5133"
       y1="484.41721"
       x2="1006.8082"
       y2="20.625916"
       id="linearGradient4112-2-6"
       xlink:href="#ButtonShadow-0-1-1-5-9"
       gradientUnits="userSpaceOnUse"
       gradientTransform="matrix(1.0402541,0,0,1.0402541,-837.95116,592.51825)" />
    <linearGradient
       x1="45.447727"
       y1="92.539597"
       x2="45.447727"
       y2="7.0165396"
       id="linearGradient5292-5"
       gradientUnits="userSpaceOnUse"
       gradientTransform="matrix(1.0058652,0,0,0.994169,100,0)">
      <stop
         id="stop5294-8"
         style="stop-color:#000000;stop-opacity:1"
         offset="0" />
      <stop
         id="stop5296-4"
         style="stop-color:#000000;stop-opacity:0.58823532"
         offset="1" />
    </linearGradient>
    <linearGradient
       x1="1012.5133"
       y1="484.41721"
       x2="1006.8082"
       y2="20.625916"
       id="linearGradient4110-6-7"
       xlink:href="#ButtonShadow-0-1-1-5-9"
       gradientUnits="userSpaceOnUse"
       gradientTransform="matrix(1.023305,0,0,1.023305,-823.77704,592.83757)" />
    <linearGradient
       x1="45.447727"
       y1="92.539597"
       x2="45.447727"
       y2="7.0165396"
       id="linearGradient5299-2"
       gradientUnits="userSpaceOnUse"
       gradientTransform="matrix(1.0058652,0,0,0.994169,100,0)">
      <stop
         id="stop5301-9"
         style="stop-color:#000000;stop-opacity:1"
         offset="0" />
      <stop
         id="stop5303-1"
         style="stop-color:#000000;stop-opacity:0.58823532"
         offset="1" />
    </linearGradient>
    <linearGradient
       x1="1012.5133"
       y1="484.41721"
       x2="1006.8082"
       y2="20.625916"
       id="linearGradient4116-6-3"
       xlink:href="#ButtonShadow-0-1-1-5-9"
       gradientUnits="userSpaceOnUse"
       gradientTransform="matrix(1.0148305,0,0,1.0148305,-816.68996,592.99723)" />
    <linearGradient
       x1="45.447727"
       y1="92.539597"
       x2="45.447727"
       y2="7.0165396"
       id="linearGradient5306-9"
       gradientUnits="userSpaceOnUse"
       gradientTransform="matrix(1.0058652,0,0,0.994169,100,0)">
      <stop
         id="stop5308-0"
         style="stop-color:#000000;stop-opacity:1"
         offset="0" />
      <stop
         id="stop5310-6"
         style="stop-color:#000000;stop-opacity:0.58823532"
         offset="1" />
    </linearGradient>
    <linearGradient
       x1="1012.5133"
       y1="484.41721"
       x2="1006.8082"
       y2="20.625916"
       id="linearGradient3372-9"
       xlink:href="#ButtonShadow-0-1-1-5-9"
       gradientUnits="userSpaceOnUse"
       gradientTransform="matrix(1.0074153,0,0,1.0074153,-810.48879,593.1369)" />
    <linearGradient
       x1="45.447727"
       y1="92.539597"
       x2="45.447727"
       y2="7.0165396"
       id="linearGradient5313-8"
       gradientUnits="userSpaceOnUse"
       gradientTransform="matrix(1.0058652,0,0,0.994169,100,0)">
      <stop
         id="stop5315-8"
         style="stop-color:#000000;stop-opacity:1"
         offset="0" />
      <stop
         id="stop5317-1"
         style="stop-color:#000000;stop-opacity:0.58823532"
         offset="1" />
    </linearGradient>
    <linearGradient
       x1="1016.1035"
       y1="476.25983"
       x2="1011.9534"
       y2="251.66064"
       id="linearGradient4082-7"
       xlink:href="#linearGradient4487-8"
       gradientUnits="userSpaceOnUse"
       gradientTransform="translate(-146.22032,369.08845)" />
    <linearGradient
       id="linearGradient4487-8">
      <stop
         id="stop4489-0"
         style="stop-color:#000000;stop-opacity:1"
         offset="0" />
      <stop
         id="stop4491-4"
         style="stop-color:#000000;stop-opacity:0"
         offset="1" />
    </linearGradient>
    <linearGradient
       x1="993.43896"
       y1="51.511765"
       x2="988.78552"
       y2="363.73825"
       id="linearGradient4084-7"
       xlink:href="#linearGradient3737-8"
       gradientUnits="userSpaceOnUse"
       gradientTransform="translate(778.59979,-360.55963)" />
    <linearGradient
       id="linearGradient3737-8">
      <stop
         id="stop3739-4"
         style="stop-color:#ffffff;stop-opacity:1"
         offset="0" />
      <stop
         id="stop3741-7"
         style="stop-color:#ffffff;stop-opacity:0"
         offset="1" />
    </linearGradient>
    <linearGradient
       x1="1764.6487"
       y1="155.59685"
       x2="1763.6903"
       y2="-55.941216"
       id="linearGradient4086-1"
       xlink:href="#linearGradient4046-2"
       gradientUnits="userSpaceOnUse" />
    <linearGradient
       id="linearGradient4046-2">
      <stop
         id="stop4048-2"
         style="stop-color:#000000;stop-opacity:1"
         offset="0" />
      <stop
         id="stop4050-7"
         style="stop-color:#ffffff;stop-opacity:0.2"
         offset="1" />
    </linearGradient>
    <linearGradient
       x1="1012.5133"
       y1="484.41721"
       x2="1006.8082"
       y2="20.625916"
       id="linearGradient5342-3"
       xlink:href="#ButtonShadow-0-1-1-5-9"
       gradientUnits="userSpaceOnUse"
       gradientTransform="matrix(1.0074153,0,0,1.0074153,-810.48879,593.1369)" />
    <linearGradient
       id="linearGradient4487-1">
      <stop
         id="stop4489-6"
         style="stop-color:#000000;stop-opacity:1"
         offset="0" />
      <stop
         id="stop4491-0"
         style="stop-color:#000000;stop-opacity:0"
         offset="1" />
    </linearGradient>
    <linearGradient
       x1="993.43896"
       y1="51.511765"
       x2="988.78552"
       y2="363.73825"
       id="linearGradient4084-8"
       xlink:href="#linearGradient3737-9"
       gradientUnits="userSpaceOnUse"
       gradientTransform="translate(778.59979,-360.55963)" />
    <linearGradient
       id="linearGradient3737-9">
      <stop
         id="stop3739-7"
         style="stop-color:#ffffff;stop-opacity:1"
         offset="0" />
      <stop
         id="stop3741-4"
         style="stop-color:#ffffff;stop-opacity:0"
         offset="1" />
    </linearGradient>
    <linearGradient
       x1="1764.6487"
       y1="155.59685"
       x2="1763.6903"
       y2="-55.941216"
       id="linearGradient4086-12"
       xlink:href="#linearGradient4046-3"
       gradientUnits="userSpaceOnUse" />
    <linearGradient
       id="linearGradient4046-3">
      <stop
         id="stop4048-7"
         style="stop-color:#000000;stop-opacity:1"
         offset="0" />
      <stop
         id="stop4050-73"
         style="stop-color:#ffffff;stop-opacity:0.2"
         offset="1" />
    </linearGradient>
    <linearGradient
       id="linearGradient2760">
      <stop
         id="stop2770"
         style="stop-color:#ffffff;stop-opacity:1"
         offset="0" />
      <stop
         id="stop2764"
         style="stop-color:#a9a9a9;stop-opacity:1"
         offset="1" />
    </linearGradient>
    <linearGradient
       id="linearGradient4846">
      <stop
         id="stop4848"
         style="stop-color:#1a1a1a;stop-opacity:1"
         offset="0" />
      <stop
         id="stop4856"
         style="stop-color:#1e1e1e;stop-opacity:1"
         offset="1" />
    </linearGradient>
    <linearGradient
       id="linearGradient4922">
      <stop
         id="stop4924"
         style="stop-color:#1a1a1a;stop-opacity:1"
         offset="0" />
      <stop
         id="stop4926"
         style="stop-color:#636363;stop-opacity:1"
         offset="0.15622118" />
      <stop
         id="stop4928"
         style="stop-color:#b4b4b4;stop-opacity:1"
         offset="0.33151907" />
      <stop
         id="stop4930"
         style="stop-color:#636363;stop-opacity:1"
         offset="0.53579742" />
      <stop
         id="stop4932"
         style="stop-color:#000000;stop-opacity:1"
         offset="1" />
    </linearGradient>
    <linearGradient
       x1="201.33115"
       y1="152.12039"
       x2="166.77547"
       y2="110.85986"
       id="linearGradient4884"
       xlink:href="#linearGradient4888"
       gradientUnits="userSpaceOnUse"
       gradientTransform="matrix(1.2757694,0,0,1.2757694,-135.89444,2.4500392)"
       spreadMethod="reflect" />
    <linearGradient
       id="linearGradient4888">
      <stop
         id="stop4892"
         style="stop-color:#c0821c;stop-opacity:1"
         offset="0" />
      <stop
         id="stop4894"
         style="stop-color:#e4ae48;stop-opacity:1"
         offset="1" />
    </linearGradient>
    <linearGradient
       x1="13.021049"
       y1="160.82593"
       x2="258.22205"
       y2="158.47191"
       id="linearGradient4882"
       xlink:href="#linearGradient4898"
       gradientUnits="userSpaceOnUse" />
    <linearGradient
       id="linearGradient4898">
      <stop
         id="stop4900"
         style="stop-color:#d78617;stop-opacity:1"
         offset="0" />
      <stop
         id="stop4902"
         style="stop-color:#5c1234;stop-opacity:1"
         offset="1" />
    </linearGradient>
    <linearGradient
       x1="45.447727"
       y1="92.539597"
       x2="45.447727"
       y2="7.0165396"
       id="ButtonShadow"
       gradientUnits="userSpaceOnUse"
       gradientTransform="scale(1.0058652,0.994169)">
      <stop
         id="stop3750"
         style="stop-color:#000000;stop-opacity:1"
         offset="0" />
      <stop
         id="stop3752"
         style="stop-color:#000000;stop-opacity:0.58823532"
         offset="1" />
    </linearGradient>
    <filter
       color-interpolation-filters="sRGB"
       id="filter3174">
      <feGaussianBlur
         id="feGaussianBlur3176"
         stdDeviation="1.71" />
    </filter>
    <linearGradient
       id="linearGradient10386">
      <stop
         id="stop10388"
         style="stop-color:#ffffff;stop-opacity:1"
         offset="0" />
      <stop
         id="stop10390"
         style="stop-color:#ffffff;stop-opacity:0"
         offset="1" />
    </linearGradient>
    <linearGradient
       x1="212.86353"
       y1="11.425488"
       x2="214.26566"
       y2="168.28262"
       id="linearGradient8264"
       xlink:href="#linearGradient2760"
       gradientUnits="userSpaceOnUse"
       gradientTransform="matrix(1.8464564,0,0,1.8464564,-123.73343,86.826257)"
       spreadMethod="reflect" />
    <linearGradient
       x1="18.930269"
       y1="6.2951212"
       x2="19.360001"
       y2="36.643665"
       id="linearGradient3157"
       xlink:href="#linearGradient2460"
       gradientUnits="userSpaceOnUse"
       gradientTransform="matrix(12.102564,0,0,12.102564,-34.468255,-46.187105)" />
    <linearGradient
       x1="0"
       y1="0"
       x2="1"
       y2="1"
       id="acyl_gradient"
       xlink:href="#linearGradient4321" />
    <linearGradient
       id="linearGradient4321">
      <stop
         id="stop1"
         style="stop-color:#ee0c0c;stop-opacity:1"
         offset="0" />
      <stop
         id="stop2"
         style="stop-color:#7a0404;stop-opacity:1"
         offset="1" />
    </linearGradient>
    <radialGradient
       cx="94.710419"
       cy="98.692879"
       r="150"
       fx="94.710419"
       fy="98.692879"
       id="radialGradient3928"
       xlink:href="#linearGradient4321"
       gradientUnits="userSpaceOnUse"
       gradientTransform="matrix(2.4249551,-0.00787504,0.00770263,2.3718665,-135.71828,-134.64744)" />
    <radialGradient
       cx="94.710419"
       cy="98.692879"
       r="150"
       fx="94.710419"
       fy="98.692879"
       id="radialGradient3932"
       xlink:href="#linearGradient4321"
       gradientUnits="userSpaceOnUse"
       gradientTransform="matrix(2.4249551,-0.00787504,0.00770263,2.3718665,-135.71828,-134.64744)" />
    <radialGradient
       cx="110.73653"
       cy="112.57468"
       r="150"
       fx="110.73653"
       fy="112.57468"
       id="radialGradient3140"
       xlink:href="#linearGradient3938"
       gradientUnits="userSpaceOnUse"
       gradientTransform="matrix(1.6533901,0.0060994,-0.00539655,1.4623231,-50.506611,-35.439162)" />
    <linearGradient
       x1="-112.34483"
       y1="572.44672"
       x2="-109.97469"
       y2="107.89955"
       id="linearGradient5925"
       xlink:href="#ButtonShadow-0-1-1-5-9-5"
       gradientUnits="userSpaceOnUse"
       gradientTransform="matrix(1.0074417,0,0,1.0074152,261.62679,527.41078)" />
    <linearGradient
       x1="45.447727"
       y1="92.539597"
       x2="45.447727"
       y2="7.0165396"
       id="ButtonShadow-0-1-1-5-9-5"
       gradientUnits="userSpaceOnUse"
       gradientTransform="matrix(1.0058652,0,0,0.994169,100,0)">
      <stop
         id="stop3750-8-9-3-6-4-0"
         style="stop-color:#000000;stop-opacity:1"
         offset="0" />
      <stop
         id="stop3752-5-6-4-2-9-8"
         style="stop-color:#000000;stop-opacity:0.58823532"
         offset="1" />
    </linearGradient>
    <linearGradient
       x1="-112.34483"
       y1="572.44672"
       x2="-109.97469"
       y2="107.89955"
       id="linearGradient5927"
       xlink:href="#ButtonShadow-0-1-1-5-9-5"
       gradientUnits="userSpaceOnUse"
       gradientTransform="matrix(1.0318068,0,0,1.0317796,268.77841,524.78354)" />
    <linearGradient
       x1="45.447727"
       y1="92.539597"
       x2="45.447727"
       y2="7.0165396"
       id="linearGradient3129"
       gradientUnits="userSpaceOnUse"
       gradientTransform="matrix(1.0058652,0,0,0.994169,100,0)">
      <stop
         id="stop3131"
         style="stop-color:#000000;stop-opacity:1"
         offset="0" />
      <stop
         id="stop3133"
         style="stop-color:#000000;stop-opacity:0.58823532"
         offset="1" />
    </linearGradient>
    <linearGradient
       x1="-112.34483"
       y1="572.44672"
       x2="-109.97469"
       y2="107.89955"
       id="linearGradient5929"
       xlink:href="#ButtonShadow-0-1-1-5-9-5"
       gradientUnits="userSpaceOnUse"
       gradientTransform="matrix(1.0148572,0,0,1.0148305,263.80369,526.61118)" />
    <linearGradient
       x1="45.447727"
       y1="92.539597"
       x2="45.447727"
       y2="7.0165396"
       id="linearGradient3136"
       gradientUnits="userSpaceOnUse"
       gradientTransform="matrix(1.0058652,0,0,0.994169,100,0)">
      <stop
         id="stop3138"
         style="stop-color:#000000;stop-opacity:1"
         offset="0" />
      <stop
         id="stop3140"
         style="stop-color:#000000;stop-opacity:0.58823532"
         offset="1" />
    </linearGradient>
    <linearGradient
       x1="-112.34483"
       y1="572.44672"
       x2="-109.97469"
       y2="107.89955"
       id="linearGradient5931"
       xlink:href="#ButtonShadow-0-1-1-5-9-5"
       gradientUnits="userSpaceOnUse"
       gradientTransform="matrix(1.023332,0,0,1.023305,266.29153,525.69736)" />
    <linearGradient
       x1="45.447727"
       y1="92.539597"
       x2="45.447727"
       y2="7.0165396"
       id="linearGradient3143"
       gradientUnits="userSpaceOnUse"
       gradientTransform="matrix(1.0058652,0,0,0.994169,100,0)">
      <stop
         id="stop3145"
         style="stop-color:#000000;stop-opacity:1"
         offset="0" />
      <stop
         id="stop3147"
         style="stop-color:#000000;stop-opacity:0.58823532"
         offset="1" />
    </linearGradient>
    <linearGradient
       x1="-112.34483"
       y1="572.44672"
       x2="-109.97469"
       y2="107.89955"
       id="linearGradient5933"
       xlink:href="#ButtonShadow-0-1-1-5-9-5"
       gradientUnits="userSpaceOnUse"
       gradientTransform="matrix(1.0402816,0,0,1.0402542,271.26626,523.86971)" />
    <linearGradient
       x1="45.447727"
       y1="92.539597"
       x2="45.447727"
       y2="7.0165396"
       id="linearGradient3150"
       gradientUnits="userSpaceOnUse"
       gradientTransform="matrix(1.0058652,0,0,0.994169,100,0)">
      <stop
         id="stop3152"
         style="stop-color:#000000;stop-opacity:1"
         offset="0" />
      <stop
         id="stop3154"
         style="stop-color:#000000;stop-opacity:0.58823532"
         offset="1" />
    </linearGradient>
    <linearGradient
       x1="993.43896"
       y1="51.511765"
       x2="988.78552"
       y2="363.73825"
       id="linearGradient4084-8-2"
       xlink:href="#linearGradient3737-9-0"
       gradientUnits="userSpaceOnUse"
       gradientTransform="translate(-753.58716,-30.14348)" />
    <linearGradient
       id="linearGradient3737-9-0">
      <stop
         id="stop3739-7-5"
         style="stop-color:#ffffff;stop-opacity:1"
         offset="0" />
      <stop
         id="stop3741-4-2"
         style="stop-color:#ffffff;stop-opacity:0"
         offset="1" />
    </linearGradient>
    <linearGradient
       x1="1764.6487"
       y1="155.59685"
       x2="1763.6903"
       y2="-55.941216"
       id="linearGradient4086-12-9"
       xlink:href="#linearGradient4046-3-3"
       gradientUnits="userSpaceOnUse"
       gradientTransform="translate(-1532.187,330.41615)" />
    <linearGradient
       id="linearGradient4046-3-3">
      <stop
         id="stop4048-7-5"
         style="stop-color:#000000;stop-opacity:1"
         offset="0" />
      <stop
         id="stop4050-73-5"
         style="stop-color:#ffffff;stop-opacity:0.2"
         offset="1" />
    </linearGradient>
    <linearGradient
       x1="102.875"
       y1="170.42188"
       x2="153.125"
       y2="170.42188"
       id="linearGradient5071"
       xlink:href="#linearGradient5059"
       gradientUnits="userSpaceOnUse" />
    <linearGradient
       id="linearGradient5059">
      <stop
         id="stop5061"
         style="stop-color:#0b0826;stop-opacity:0.49803922"
         offset="0" />
      <stop
         id="stop5063"
         style="stop-color:#0b0826;stop-opacity:1"
         offset="1" />
    </linearGradient>
    <linearGradient
       x1="102.875"
       y1="170.42188"
       x2="153.125"
       y2="170.42188"
       id="linearGradient3985"
       xlink:href="#linearGradient5059"
       gradientUnits="userSpaceOnUse" />
    <radialGradient
       cx="244.26477"
       cy="286.95432"
       r="62.545898"
       fx="244.26477"
       fy="286.95432"
       id="radialGradient14612"
       xlink:href="#linearGradient3938"
       gradientUnits="userSpaceOnUse"
       gradientTransform="matrix(1,0,0,1.2036395,0,-58.435237)"
       spreadMethod="pad" />
    <linearGradient
       id="linearGradient40231">
      <stop
         id="stop40233"
         style="stop-color:#d3d7cf;stop-opacity:1"
         offset="0" />
      <stop
         id="stop40239"
         style="stop-color:#eeeeec;stop-opacity:1"
         offset="0.11791565" />
      <stop
         id="stop40235"
         style="stop-color:#555753;stop-opacity:1"
         offset="1" />
    </linearGradient>
    <linearGradient
       x1="-245.48752"
       y1="432.28345"
       x2="-214.80157"
       y2="432.28345"
       id="linearGradient3421"
       xlink:href="#linearGradient40231"
       gradientUnits="userSpaceOnUse"
       gradientTransform="matrix(1,0,0,0.78414728,-2.8281273,112.42952)" />
    <linearGradient
       x1="-245.48752"
       y1="432.28345"
       x2="-214.80157"
       y2="432.28345"
       id="linearGradient3509"
       xlink:href="#linearGradient40231"
       gradientUnits="userSpaceOnUse"
       gradientTransform="matrix(1,0,0,0.78414728,-2.8281273,112.42952)" />
    <linearGradient
       x1="-245.48752"
       y1="432.28345"
       x2="-214.80157"
       y2="432.28345"
       id="linearGradient4499"
       xlink:href="#linearGradient40231"
       gradientUnits="userSpaceOnUse"
       gradientTransform="matrix(1,0,0,0.78414728,-2.8281273,112.42952)" />
    <linearGradient
       x1="-245.48752"
       y1="432.28345"
       x2="-214.80157"
       y2="432.28345"
       id="linearGradient4691"
       xlink:href="#linearGradient40231"
       gradientUnits="userSpaceOnUse"
       gradientTransform="matrix(1,0,0,0.78414728,-2.8281273,112.42952)" />
    <linearGradient
       x1="-245.48752"
       y1="432.28345"
       x2="-214.80157"
       y2="432.28345"
       id="linearGradient4696"
       xlink:href="#linearGradient40231"
       gradientUnits="userSpaceOnUse"
       gradientTransform="matrix(1.7795517,0,0,1.122954,109.34339,-488.68717)" />
    <linearGradient
       x1="-245.48752"
       y1="432.28345"
       x2="-214.80157"
       y2="432.28345"
       id="linearGradient6011"
       xlink:href="#linearGradient40231"
       gradientUnits="userSpaceOnUse"
       gradientTransform="matrix(1,0,0,0.78414728,-2.8281273,112.42952)" />
    <filter
       color-interpolation-filters="sRGB"
       id="filter3340">
      <feGaussianBlur
         stdDeviation="3.9590909"
         id="feGaussianBlur3342" />
    </filter>
    <radialGradient
       cx="380"
       cy="389.50504"
       r="148.85715"
       fx="380"
       fy="389.50504"
       id="radialGradient4961"
       xlink:href="#linearGradient2254"
       gradientUnits="userSpaceOnUse"
       gradientTransform="matrix(-0.04338825,-0.38260584,0.40838793,-0.04631206,-4.297017,309.36276)" />
    <linearGradient
       id="linearGradient2254">
      <stop
         id="stop2256"
         style="stop-color:#bedcdc;stop-opacity:1"
         offset="0" />
      <stop
         id="stop2264"
         style="stop-color:#8e9e9e;stop-opacity:0.74149668"
         offset="0.5" />
      <stop
         id="stop2258"
         style="stop-color:#404f5c;stop-opacity:0.8392157"
         offset="1" />
    </linearGradient>
  </defs>
  <metadata
     id="metadata7">
    <rdf:RDF>
      <cc:Work
         rdf:about="">
        <dc:format>image/svg+xml</dc:format>
        <dc:type
           rdf:resource="http://purl.org/dc/dcmitype/StillImage" />
        <dc:title></dc:title>
      </cc:Work>
    </rdf:RDF>
  </metadata>
  <g
     transform="translate(0,-540.36218)"
     id="layer1" />
  <g
     transform="matrix(1.1,0,0,0.44444,95.081063,256.39254)"
     id="g2036">
    <g
       transform="matrix(1.0526,0,0,1.2857,-1.2632,-13.429)"
       id="g3712"
       style="opacity:0.4" />
  </g>
  <g
     transform="translate(97.481063,231.28154)"
     id="g3541" />
  <g
     transform="translate(97.481063,231.28154)"
     id="g3536" />
  <g
     transform="translate(-605.51932,-353.96833)"
     id="g4076">
    <g
       transform="translate(-926.66758,684.38448)"
       id="g4038" />
  </g>
  <g
     transform="translate(54.089264,-616.0416)"
     id="g5918">
    <path
       d="m 60.989673,1111.5416 144.328367,-0.2064 147.52725,-0.2409 c 49.0412,-5.1221 87.2248,-45.726 88.537,-95.8499 9e-4,-0.035 -9e-4,-0.069 0,-0.1032 9e-4,-0.414 -8e-4,-0.6473 0,-1.0665 0.042,-21.50295 0.034,-49.94202 0.034,-87.7651 l 0,-152.51368 -68.8621,-68.87715 -68.8965,-68.87715 -152.82436,0.0688 c -40.25265,0.0173 -69.340747,0.0413 -91.323117,0.10316 -50.88989,2.75481 -91.3364,43.54773 -93.49012,94.61146 -0.0987,30.63047 -0.10318,74.7573 -0.10318,143.01819 0,68.26875 0.005,112.38763 0.10312,143.01817 2.17453,51.5569 43.38652,92.644 94.96919,94.6802 z"
       id="path5873"
       style="opacity:0.25;color:#000000;fill:url(#linearGradient5925);fill-opacity:1;fill-rule:nonzero;stroke:none;stroke-width:1.5;marker:none;visibility:visible;display:inline;overflow:visible;enable-background:accumulate" />
    <path
       d="m 63.288833,1123.0416 147.818967,-0.2114 151.09521,-0.2467 c 50.2273,-5.246 89.3343,-46.8319 90.6783,-98.1681 9e-4,-0.035 -9e-4,-0.07 0,-0.1056 9e-4,-0.424 -8e-4,-0.663 0,-1.0924 0.043,-22.0229 0.035,-51.14981 0.035,-89.88764 l 0,-156.20224 -70.5276,-70.54295 -70.5627,-70.54295 -156.52046,0.0705 c -41.22616,0.0177 -71.017757,0.0423 -93.531777,0.10565 -52.12067,2.82144 -93.54538,44.60094 -95.75119,96.89965 -0.10109,31.37127 -0.10567,76.56531 -0.10567,146.47709 0,69.91984 0.005,115.10574 0.10561,146.47699 2.22712,52.804 44.43583,94.8848 97.26603,96.9702 z"
       id="path5902"
       style="opacity:0.1;color:#000000;fill:url(#linearGradient5927);fill-opacity:1;fill-rule:nonzero;stroke:none;stroke-width:1.5;marker:none;visibility:visible;display:inline;overflow:visible;enable-background:accumulate" />
    <path
       d="m 61.689723,1115.0417 145.390727,-0.2079 148.61314,-0.2427 c 49.4022,-5.1598 87.8668,-46.0626 89.1887,-96.5555 9e-4,-0.035 -9e-4,-0.069 0,-0.1039 9e-4,-0.4171 -8e-4,-0.6521 0,-1.0744 0.042,-21.66124 0.034,-50.30964 0.034,-88.41113 l 0,-153.63628 -69.369,-69.38413 -69.4036,-69.38414 -153.94925,0.0693 c -40.54894,0.0174 -69.851137,0.0416 -91.995317,0.10392 -51.26448,2.77509 -92.0087,43.86827 -94.17827,95.30786 -0.0994,30.85594 -0.10394,75.30757 -0.10394,144.07091 0,68.77125 0.005,113.21488 0.10387,144.07079 2.19054,51.9366 43.70588,93.3261 95.66824,95.3773 z"
       id="path5906"
       style="opacity:0.25;color:#000000;fill:url(#linearGradient5929);fill-opacity:1;fill-rule:nonzero;stroke:none;stroke-width:1.5;marker:none;visibility:visible;display:inline;overflow:visible;enable-background:accumulate" />
    <path
       d="m 62.489783,1119.0417 146.604847,-0.2097 149.8542,-0.2447 c 49.8147,-5.2028 88.6006,-46.4472 89.9335,-97.3618 9e-4,-0.035 -9e-4,-0.07 0,-0.1048 9e-4,-0.4205 -8e-4,-0.6575 0,-1.0833 0.043,-21.84214 0.034,-50.72977 0.034,-89.14943 l 0,-154.91926 -69.9483,-69.96355 -69.9832,-69.96354 -155.23483,0.0699 c -40.88755,0.0176 -70.434457,0.0419 -92.763547,0.10478 -51.69258,2.79827 -92.77705,44.23461 -94.96474,96.10376 -0.10025,31.1136 -0.1048,75.93644 -0.1048,145.274 0,69.34555 0.005,114.16031 0.10474,145.27394 2.20883,52.3702 44.07085,94.1054 96.46713,96.1737 z"
       id="path5910"
       style="opacity:0.2;color:#000000;fill:url(#linearGradient5931);fill-opacity:1;fill-rule:nonzero;stroke:none;stroke-width:1.5;marker:none;visibility:visible;display:inline;overflow:visible;enable-background:accumulate" />
    <path
       d="m 64.088893,1127.0416 149.033087,-0.2131 152.33628,-0.2488 c 50.6398,-5.289 90.068,-47.2165 91.423,-98.9744 10e-4,-0.036 -9e-4,-0.071 0,-0.1065 10e-4,-0.4274 -8e-4,-0.6684 0,-1.1013 0.043,-22.2038 0.035,-51.56994 0.035,-90.62595 l 0,-157.48521 -71.1068,-71.12236 -71.1423,-71.12236 -157.80606,0.071 c -41.56477,0.0179 -71.601067,0.0427 -94.299997,0.10653 -52.54877,2.84461 -94.31372,44.96726 -96.53765,97.69553 -0.10192,31.62894 -0.10654,77.19419 -0.10654,147.6802 0,70.49412 0.005,116.05116 0.10648,147.68012 2.24541,53.2376 44.8008,95.664 98.06493,97.7666 z"
       id="path5914"
       style="opacity:0.07999998;color:#000000;fill:url(#linearGradient5933);fill-opacity:1;fill-rule:nonzero;stroke:none;stroke-width:1.5;marker:none;visibility:visible;display:inline;overflow:visible;enable-background:accumulate" />
  </g>
  <path
     d="m 114.3763,492.00004 143.26225,-0.20491 146.43752,-0.23905 c 48.67892,-5.08446 86.58047,-45.3894 87.883,-95.1445 8.9e-4,-0.0342 -8.7e-4,-0.0682 0,-0.10239 8.5e-4,-0.41093 -8.2e-4,-0.64253 0,-1.05868 0.0421,-21.34466 0.0341,-49.5744 0.0341,-87.11908 l 0,-151.39108 -68.35344,-68.37017 -68.38759,-68.37016 -151.69547,0.0683 c -39.95531,0.0172 -68.82855,0.041 -90.64854,0.1024 -50.513983,2.73453 -90.661723,43.22719 -92.799533,93.91506 -0.098,30.40501 -0.10242,74.20703 -0.10242,141.96548 0,67.76624 0.005,111.56038 0.10236,141.96542 2.15846,51.17745 43.06603,91.96213 94.267673,93.98336 z"
     id="rect4121"
     style="color:#000000;fill:#e4e6d2;fill-opacity:1;fill-rule:nonzero;stroke:none;stroke-width:1.5;marker:none;visibility:visible;display:inline;overflow:visible;enable-background:accumulate" />
  <g
     transform="translate(-605.51939,-353.9683)"
     id="g4076-9-1">
    <g
       transform="translate(-926.66758,684.38448)"
       id="g4038-9-8">
      <g
         id="g4929">
        <path
           d="m 355.25,20 -151.6875,0.0625 c -39.95531,0.0172 -68.83626,0.03235 -90.65625,0.09375 -4.73569,0.256362 -9.37556,0.852632 -13.90625,1.75 -1.51023,0.299123 -3.015922,0.633019 -4.5,1 -2.226117,0.550471 -4.431221,1.176579 -6.59375,1.875 -20.904452,6.751404 -38.687843,20.284416 -50.8125,38.03125 -0.108334,0.158619 -0.236324,0.30946 -0.34375,0.46875 -0.306456,0.454303 -0.607242,0.915291 -0.90625,1.375 -1.617953,2.487519 -3.108135,5.049674 -4.5,7.6875 -2.416204,4.579126 -4.508261,9.398403 -6.1875,14.375 -0.01359,0.04029 -0.01771,0.08469 -0.03125,0.125 -0.481865,1.434239 -0.926843,2.880345 -1.34375,4.34375 -0.208453,0.731702 -0.401853,1.448822 -0.59375,2.1875 -0.02741,0.105607 -0.06668,0.206753 -0.09375,0.3125 -0.162917,0.635705 -0.318229,1.296808 -0.46875,1.9375 -0.175131,0.745444 -0.341847,1.466751 -0.5,2.21875 -0.04199,0.199929 -0.08422,0.393368 -0.125,0.59375 -0.113545,0.556834 -0.208352,1.127218 -0.3125,1.6875 -0.140964,0.75834 -0.282685,1.51677 -0.40625,2.28125 -0.123565,0.76448 -0.237796,1.5421 -0.34375,2.3125 -0.211908,1.54081 -0.391049,3.09301 -0.53125,4.65625 -0.140201,1.56324 -0.245693,3.13475 -0.3125,4.71875 C 19.99575,144.49876 20,188.30405 20,256.0625 c 0,67.67336 -0.0032,111.41246 0.09375,141.8125 1.33e-4,0.0417 -1.33e-4,0.11458 0,0.15625 0.0027,0.0629 -0.0028,0.12467 0,0.1875 0.0075,0.16637 0.02289,0.33385 0.03125,0.5 0.103117,2.10033 0.268283,4.18721 0.5,6.25 0.01417,0.12613 0.04786,0.24901 0.0625,0.375 0.08359,0.71923 0.182346,1.4107 0.28125,2.125 0.09803,0.70307 0.199799,1.39561 0.3125,2.09375 0.0432,0.26966 0.07962,0.54359 0.125,0.8125 0.06179,0.36349 0.121762,0.73165 0.1875,1.09375 0.03935,0.21824 0.08422,0.43852 0.125,0.65625 0.08776,0.46552 0.187003,0.94311 0.28125,1.40625 0.135112,0.66395 0.257917,1.30981 0.40625,1.96875 0.03076,0.13664 0.06243,0.26983 0.09375,0.40625 0.05764,0.25224 0.127935,0.49851 0.1875,0.75 0.128911,0.54185 0.268464,1.08673 0.40625,1.625 0.05292,0.20754 0.102023,0.418 0.15625,0.625 0.151575,0.57628 0.307082,1.14672 0.46875,1.71875 0.220124,0.77886 0.448884,1.57299 0.6875,2.34375 0.715848,2.31229 1.497285,4.57766 2.375,6.8125 0.280689,0.71657 0.57813,1.4481 0.875,2.15625 0.009,0.0214 0.02224,0.0411 0.03125,0.0625 0.2845,0.67727 0.575897,1.33065 0.875,2 0.02851,0.0637 0.0651,0.12391 0.09375,0.1875 0.28142,0.62616 0.549706,1.25597 0.84375,1.875 0.04962,0.10427 0.106275,0.20843 0.15625,0.3125 0.27599,0.5757 0.556957,1.1494 0.84375,1.71875 0.06944,0.13761 0.14868,0.26901 0.21875,0.40625 1.443868,2.82788 3.01751,5.59026 4.71875,8.25 1.27593,1.9948 2.618525,3.92027 4.03125,5.8125 0.470908,0.63074 0.951899,1.25616 1.4375,1.875 0.971202,1.23768 1.971546,2.46771 3,3.65625 C 61.815337,478.79047 88.261556,491.87122 117.875,492 l 2.625,0 C 67.525103,491.60021 25,448.82259 25,395.75 l 0,-269.5 C 25,72.9275 67.9275,30 121.25,30 l 244,0 -10,-10 z M 487,151.75 l 0,244 c 0,50.25665 -38.12758,91.26134 -87.15625,95.8125 l 3.1875,0 c 30.1265,-2.82213 56.21626,-19.11931 72.21875,-42.84375 0.44099,-0.65379 0.88696,-1.30382 1.3125,-1.96875 0.42554,-0.66493 0.84018,-1.35543 1.25,-2.03125 1.22947,-2.02747 2.38524,-4.09784 3.46875,-6.21875 0.36117,-0.70697 0.71805,-1.40816 1.0625,-2.125 0.34445,-0.71684 0.67253,-1.46103 1,-2.1875 1.60228,-3.55458 3.00961,-7.20174 4.1875,-10.96875 0.0255,-0.0819 0.0372,-0.16801 0.0625,-0.25 0.71629,-2.31229 1.35875,-4.67961 1.90625,-7.0625 0.1825,-0.7943 0.33676,-1.57337 0.5,-2.375 0.16324,-0.80163 0.32503,-1.62878 0.46875,-2.4375 0.14372,-0.80872 0.2823,-1.62195 0.40625,-2.4375 0.0398,-0.26208 0.0872,-0.51848 0.125,-0.78125 0.079,-0.55396 0.14894,-1.09929 0.21875,-1.65625 0.025,-0.19753 0.0387,-0.39585 0.0625,-0.59375 0.0742,-0.62299 0.15612,-1.24841 0.21875,-1.875 0.0136,-0.1345 0.0182,-0.27159 0.0312,-0.40625 0.0671,-0.70043 0.13504,-1.38901 0.1875,-2.09375 0.005,-0.0616 -0.005,-0.12589 0,-0.1875 0.0474,-0.65349 0.0903,-1.31169 0.125,-1.96875 0.006,-0.11421 0.0255,-0.22944 0.0312,-0.34375 5.1e-4,-0.0103 -5e-4,-0.021 0,-0.0312 0.0387,-0.76781 0.0726,-1.54004 0.0937,-2.3125 8.9e-4,-0.0342 -8.7e-4,-0.0596 0,-0.0937 1e-4,-0.0483 -4e-5,-0.081 0,-0.125 0.008,-0.31325 -0.005,-0.62352 0,-0.9375 0.0211,-10.67233 0.028,-23.05015 0.0312,-37.46875 0.003,-14.4186 0,-30.88391 0,-49.65625 l 0,-151.375 -5,-5 z"
           transform="translate(1532.187,-330.41615)"
           id="rect6809-2-3-8"
           style="opacity:0.5;color:#000000;fill:url(#linearGradient4084-8-2);fill-opacity:1;fill-rule:nonzero;stroke:none;stroke-width:1.5;marker:none;visibility:visible;display:inline;overflow:visible;enable-background:accumulate" />
        <path
           d="m 112.90625,20.15625 c -4.73569,0.256362 -9.37556,0.852632 -13.90625,1.75 -1.51023,0.299123 -3.015922,0.633019 -4.5,1 -2.226117,0.550471 -4.431221,1.176579 -6.59375,1.875 -2.162529,0.698421 -4.281752,1.471807 -6.375,2.3125 -9.76849,3.923234 -18.747925,9.359992 -26.65625,16.03125 -5.083924,4.288666 -9.725026,9.084055 -13.84375,14.3125 -1.372908,1.742815 -2.683225,3.539121 -3.9375,5.375 -0.109552,0.160436 -0.235127,0.307628 -0.34375,0.46875 -0.306456,0.454303 -0.607242,0.915291 -0.90625,1.375 -0.808977,1.243759 -1.590452,2.530323 -2.34375,3.8125 -0.166868,0.284301 -0.335918,0.557614 -0.5,0.84375 -0.207159,0.360853 -0.391059,0.730006 -0.59375,1.09375 -0.184795,0.331891 -0.381451,0.665735 -0.5625,1 -0.170654,0.314981 -0.332698,0.620433 -0.5,0.9375 -0.347966,0.659456 -0.697942,1.331675 -1.03125,2 -0.666617,1.33665 -1.29953,2.691638 -1.90625,4.0625 -0.879859,1.988008 -1.719204,4.006876 -2.46875,6.0625 -0.02575,0.07061 -0.03691,0.148066 -0.0625,0.21875 -0.255282,0.70525 -0.51044,1.412248 -0.75,2.125 -0.0063,0.0187 0.0063,0.04379 0,0.0625 -0.478277,1.425001 -0.929585,2.858721 -1.34375,4.3125 -0.01792,0.06293 -0.0447,0.124518 -0.0625,0.1875 -0.188998,0.668565 -0.356058,1.325628 -0.53125,2 -0.02999,0.115391 -0.06417,0.228192 -0.09375,0.34375 -0.160255,0.626112 -0.320519,1.275303 -0.46875,1.90625 -0.14068,0.598804 -0.276512,1.178203 -0.40625,1.78125 -0.05606,0.260594 -0.102244,0.519878 -0.15625,0.78125 -0.01964,0.09505 -0.04314,0.186096 -0.0625,0.28125 -0.11135,0.546937 -0.210215,1.105987 -0.3125,1.65625 -0.04812,0.25885 -0.110151,0.52168 -0.15625,0.78125 -0.0886,0.49905 -0.168912,0.99832 -0.25,1.5 -0.05057,0.31267 -0.108609,0.62383 -0.15625,0.9375 -0.06911,0.45519 -0.124613,0.91774 -0.1875,1.375 -0.105954,0.7704 -0.193117,1.53638 -0.28125,2.3125 -0.08813,0.77612 -0.179899,1.56213 -0.25,2.34375 -0.139283,1.553 -0.245648,3.11401 -0.3125,4.6875 -4.41e-4,0.0104 4.38e-4,0.0209 0,0.0312 -2.7e-5,0.008 2.7e-5,0.0229 0,0.0312 C 19.995828,144.52902 20,188.32263 20,256.0625 c 0,67.69194 -0.0033,111.44271 0.09375,141.84375 1.07e-4,0.0334 -1.07e-4,0.0917 0,0.125 0.0022,0.0524 -0.0023,0.10389 0,0.15625 0.0084,0.18714 0.02184,0.37564 0.03125,0.5625 0.10587,2.14272 0.291576,4.27142 0.53125,6.375 0.0023,0.0206 -0.0024,0.0419 0,0.0625 0.08856,0.77298 0.206258,1.51395 0.3125,2.28125 0.107671,0.77762 0.218135,1.57218 0.34375,2.34375 0.110714,0.67613 0.219415,1.35992 0.34375,2.03125 0.01731,0.0939 0.04493,0.18743 0.0625,0.28125 0.08949,0.47548 0.184986,0.96451 0.28125,1.4375 0.115748,0.56872 0.218291,1.12246 0.34375,1.6875 0.05136,0.2313 0.103277,0.45683 0.15625,0.6875 0.05544,0.24229 0.130278,0.47716 0.1875,0.71875 0.168714,0.71001 0.347315,1.42115 0.53125,2.125 0.01079,0.0414 0.02041,0.0836 0.03125,0.125 0.153969,0.58602 0.304342,1.16838 0.46875,1.75 0.04405,0.15622 0.08021,0.31285 0.125,0.46875 0.179375,0.62283 0.371264,1.2574 0.5625,1.875 0.03482,0.11268 0.05854,0.23125 0.09375,0.34375 0.205574,0.65538 0.437456,1.2882 0.65625,1.9375 0.256854,0.76225 0.50641,1.52761 0.78125,2.28125 0.01464,0.0402 0.01656,0.0848 0.03125,0.125 0.261099,0.71305 0.535514,1.41991 0.8125,2.125 0.277337,0.70739 0.58189,1.42582 0.875,2.125 0.01273,0.0303 0.01849,0.0635 0.03125,0.0937 0.280961,0.66829 0.579817,1.30817 0.875,1.96875 0.126258,0.28202 0.246174,0.56316 0.375,0.84375 0.186593,0.40717 0.370539,0.81463 0.5625,1.21875 0.05022,0.10551 0.105669,0.2072 0.15625,0.3125 0.296257,0.61798 0.597551,1.2331 0.90625,1.84375 0.104796,0.20699 0.206286,0.41886 0.3125,0.625 0.310007,0.60166 0.646774,1.18698 0.96875,1.78125 0.377433,0.69663 0.762605,1.40751 1.15625,2.09375 0.251968,0.43977 0.491461,0.87707 0.75,1.3125 0.144428,0.24294 0.291042,0.47718 0.4375,0.71875 0.409604,0.6756 0.82469,1.33529 1.25,2 0.85062,1.32942 1.744326,2.65318 2.65625,3.9375 0.379219,0.53462 0.766661,1.06718 1.15625,1.59375 0.137991,0.18627 0.266973,0.37725 0.40625,0.5625 0.294429,0.39216 0.606107,0.7687 0.90625,1.15625 0.199718,0.25754 0.39153,0.52578 0.59375,0.78125 0.08327,0.10531 0.166308,0.20754 0.25,0.3125 0.325327,0.4076 0.668339,0.81652 1,1.21875 0.500041,0.60644 0.985773,1.18722 1.5,1.78125 0.514227,0.59403 1.03434,1.19989 1.5625,1.78125 1.056321,1.16272 2.139466,2.29572 3.25,3.40625 1.105203,1.1052 2.218105,2.19849 3.375,3.25 0.0056,0.005 0.02567,-0.005 0.03125,0 1.744081,1.58448 3.550447,3.1057 5.40625,4.5625 16.595324,13.02732 37.53268,20.80712 60.34375,20.90625 0.14694,6.4e-4 0.2904,0 0.4375,0 l 139.3125,-0.21875 145.40625,-0.21875 c 30.1265,-2.8202 56.21626,-19.12761 72.21875,-42.84375 0.44099,-0.65356 0.88696,-1.30404 1.3125,-1.96875 0.29883,-0.46679 0.5839,-0.93407 0.875,-1.40625 0.12249,-0.19908 0.25389,-0.39372 0.375,-0.59375 0.0486,-0.0801 0.0766,-0.16976 0.125,-0.25 0.35959,-0.59664 0.71533,-1.17635 1.0625,-1.78125 0.78772,-1.37249 1.55891,-2.77397 2.28125,-4.1875 0.36117,-0.70677 0.71805,-1.4396 1.0625,-2.15625 0.34445,-0.71665 0.67253,-1.42998 1,-2.15625 0.9824,-2.17882 1.89373,-4.39533 2.71875,-6.65625 0.0158,-0.0433 0.0468,-0.0817 0.0625,-0.125 0.25824,-0.71082 0.4765,-1.43778 0.71875,-2.15625 0.23268,-0.69009 0.46976,-1.36554 0.6875,-2.0625 0.0226,-0.0724 0.0401,-0.14628 0.0625,-0.21875 0.71629,-2.31184 1.35875,-4.67996 1.90625,-7.0625 0.1825,-0.79418 0.33676,-1.57347 0.5,-2.375 0.16324,-0.80153 0.32503,-1.62888 0.46875,-2.4375 0.14372,-0.80862 0.2823,-1.62203 0.40625,-2.4375 0.0414,-0.2723 0.0858,-0.53945 0.125,-0.8125 0.0775,-0.54368 0.15007,-1.07843 0.21875,-1.625 0.0263,-0.20779 0.0375,-0.4168 0.0625,-0.625 0.073,-0.61274 0.15696,-1.22753 0.21875,-1.84375 0.0146,-0.14477 0.0173,-0.29255 0.0312,-0.4375 0.0731,-0.7627 0.1318,-1.51345 0.1875,-2.28125 0.0557,-0.7678 0.11813,-1.53979 0.15625,-2.3125 0.0392,-0.77814 0.0726,-1.56082 0.0937,-2.34375 8.9e-4,-0.0342 -8.7e-4,-0.0596 0,-0.0937 7e-5,-0.0363 -4e-5,-0.06 0,-0.0937 0.008,-0.32368 -0.005,-0.64428 0,-0.96875 0.0211,-10.67233 0.028,-23.05015 0.0312,-37.46875 0.003,-14.4186 0,-30.88391 0,-49.65625 l 0,-151.375 -5,-5 0,234 C 487,439.0725 444.0725,482 390.75,482 l -269.5,0 C 67.9275,482 25,439.0725 25,385.75 l 0,-269.5 c 0,-51.518951 40.071412,-93.32402 90.875,-96.09375 -0.86176,0.0023 -2.12816,-0.0024 -2.96875,0 z"
           transform="translate(1532.187,-330.41615)"
           id="path3981-7-8"
           style="opacity:0.15;color:#000000;fill:url(#linearGradient4086-12-9);fill-opacity:1;fill-rule:nonzero;stroke:none;stroke-width:1.5;marker:none;visibility:visible;display:inline;overflow:visible;enable-background:accumulate" />
      </g>
    </g>
  </g>
  <path
     d="m 355.24998,20.00003 0,102.5625 c 0,9.77909 4.10646,18.58192 10.6875,24.8125 l 126.0625,126.09375 0,-116.71875 -68.375,-68.375 z"
     id="path6657"
     style="fill:#000000;fill-opacity:0.15686275;fill-rule:nonzero;stroke:none" />
  <path
     d="m 355.25321,20.00002 0,102.555 c 0,18.88151 15.30349,34.185 34.185,34.185 l 102.555,0 -136.74,-136.74"
     id="path24"
     style="fill:#ffffff;fill-opacity:1;fill-rule:nonzero;stroke:none" />
  <path
     d="m 344.84375,164.59375 c -11.62039,-2.34518 -10.73289,7.69051 -10.31979,15.2741 -0.49219,27.23165 -0.96714,54.46362 -1.49271,81.69465 -3.43403,-3.13558 -6.76482,-6.78574 -10.18117,-10.00896 -4.21527,-3.28867 -7.09652,-11.60139 -13.9855,-4.95927 -5.16132,0.37232 -8.17812,-7.06913 -12.36458,-10.25052 -4.58554,-1.44717 -6.75097,-12.12908 -13.23189,-6.49968 -6.09668,4.39818 -8.35381,-5.35136 -12.61186,-7.78157 -4.64126,-1.67403 -7.23382,-11.35818 -13,-8.96406 -6.4242,6.14635 -8.9113,-2.16834 -12.8125,-5.31719 -4.46666,-2.91163 -8.08378,-9.30106 -12.79167,-11.44635 -4.46139,3.826 -7.97246,4.00506 -10.48943,0.4151 -2.61698,-3.84828 -5.80194,-5.64917 -8.4997,-9.1875 -3.77226,-1.34381 -5.55411,-10.16136 -10.88183,-5.49837 -26.12336,15.13364 -52.49117,30.19377 -78.46172,45.37337 -9.4e-4,42.01909 -0.0152,84.0308 -0.0312,126.06245 39.50891,37.8438 77.75421,77.32772 116.65282,115.92214 9.89427,6.22211 15.37137,23.07638 28.0715,22.34992 45.96979,-0.2441 91.98019,0.20442 137.92453,-0.47365 47.18252,-5.04551 86.05709,-48.57766 85.6324,-96.04841 C 492.02044,365 491.99463,334.74998 492,304.5 445.78237,259.24799 400.35423,213.00015 354.75005,167.25 c -2.72124,-2.36091 -6.49596,-2.5579 -9.9063,-2.65625 z"
     id="path4958"
     style="fill:#000000;fill-opacity:0.15686275;stroke:none" />
  <g
     transform="matrix(1.7795517,0,0,1.7795517,706.79274,155.16701)"
     id="g3377">
    <path
       d="m -188.08361,139.53173 -46.0289,26.57481 0,-53.14961 46.0289,-26.574812 0,53.149612 z"
       id="path39383"
       style="fill:#364e59;fill-opacity:1;stroke:none" />
    <path
       d="m -326.17033,42.090778 46.02891,-26.5748 15.34297,26.5748 -46.02891,26.57481 -15.34297,-26.57481 z"
       id="path5471"
       style="fill:#555753;stroke:none" />
    <path
       d="m -310.82736,50.949048 46.02891,-26.5748 15.34297,26.5748 -46.02891,26.57481 -15.34297,-26.57481 z"
       id="path5473"
       style="fill:#555753;stroke:none" />
    <path
       d="m -295.48439,59.807318 46.02891,-26.5748 15.34297,26.5748 -46.02891,26.57481 -15.34297,-26.57481 z"
       id="path5475"
       style="fill:#555753;stroke:none" />
    <path
       d="m -280.14142,68.665578 46.02891,-26.5748 15.34297,26.5748 -46.02891,26.57481 -15.34297,-26.57481 z"
       id="path5477"
       style="fill:#555753;stroke:none" />
    <path
       d="m -264.79845,77.523858 46.02891,-26.5748 15.34297,26.5748 -46.02891,26.574812 -15.34297,-26.574812 z"
       id="path5479"
       style="fill:#555753;stroke:none" />
    <path
       d="m -249.45548,86.382118 46.02891,-26.5748 15.34297,26.5748 -46.02891,26.574812 -15.34297,-26.574812 z"
       id="path5481"
       style="fill:#555753;stroke:none" />
    <path
       d="m -326.16097,42.104808 0,17.6875 -0.014,53.157972 92.0625,53.15625 0.014,-53.15797 -15.34375,-26.562502 0,17.687502 -0.0312,0 -15.3125,-26.562502 0,17.71875 -15.34375,-26.5625 0,17.71875 -15.34375,-26.59375 0,17.71875 -15.34375,-26.5625 0,17.6875 -0.0312,0 -15.3125,-26.53125 z"
       id="path39379"
       style="fill:#9eabb0;stroke:none" />
    <path
       d="m -203.42657,166.10653 -15.34297,-8.85827 0,-35.43307 15.34297,8.85827 0,35.43307 z"
       id="path5483"
       style="fill:#babdb6;stroke:none" />
    <path
       d="m -203.42657,166.10653 15.34297,-8.85827 0,-35.43307 -15.34297,8.85827 0,35.43307 z"
       id="path5485"
       style="fill:#888a85;stroke:none" />
    <path
       d="m -234.16097,113.01106 45.75,-26.500002 -0.25,3.75 -45.625,25.750002 0.125,-3 z"
       id="path5966"
       style="fill:#151819;fill-opacity:1;stroke:none" />
    <path
       d="m -218.76954,121.81519 15.34297,-8.85826 15.34296,8.85826 -15.34296,8.85827 -15.34297,-8.85827 z"
       id="path5487"
       style="fill:#eeeeec;stroke:none" />
    <g
       transform="matrix(1,0,0,0.8047365,38.729682,-298.10609)"
       id="g40252"
       style="stroke:none">
      <path
         d="m -246.32813,381.94559 -2,138.91659 0.0625,0 c -0.001,0.0254 0,0.048 0,0.0735 0,1.91814 3.45066,3.47966 7.6875,3.47966 4.23684,0 7.65625,-1.56152 7.65625,-3.47966 0,-0.15171 -0.0208,-0.29449 -0.0625,-0.44108 l -2,-138.54902 -13.34375,0 2,10e-6 z"
         id="rect40229"
         style="fill:url(#linearGradient6011);fill-opacity:1;stroke:none" />
      <path
         d="m -233.21314,-338.09055 a 7.6714849,4.4291339 0 1 1 -15.34297,0 7.6714849,4.4291339 0 1 1 15.34297,0 z"
         transform="matrix(0.75604659,0,0,0.59285187,-58.505003,581.95234)"
         id="path40241"
         style="fill:#eeeeec;fill-opacity:1;stroke:none" />
      <path
         d="m -233.21314,-338.09055 a 7.6714849,4.4291339 0 1 1 -15.34297,0 7.6714849,4.4291339 0 1 1 15.34297,0 z"
         transform="matrix(0.52141144,0,0,0.40886336,-115.025,520.56247)"
         id="path5489"
         style="fill:#888a85;fill-opacity:1;stroke:none" />
    </g>
    <path
       d="m -310.82736,50.949048 46.02891,-26.5748"
       id="path5529"
       style="fill:none;stroke:#000000;stroke-width:1px;stroke-linecap:butt;stroke-linejoin:miter;stroke-opacity:1" />
    <path
       d="m -295.48439,59.807318 46.02891,-26.5748"
       id="path5531"
       style="fill:none;stroke:#000000;stroke-width:1px;stroke-linecap:butt;stroke-linejoin:miter;stroke-opacity:1" />
    <path
       d="m -280.14142,68.665588 46.02891,-26.57481"
       id="path5533"
       style="fill:none;stroke:#000000;stroke-width:1px;stroke-linecap:butt;stroke-linejoin:miter;stroke-opacity:1" />
    <path
       d="m -264.03597,77.636058 -0.76248,-0.1122 46.02891,-26.57481"
       id="path5535"
       style="fill:none;stroke:#000000;stroke-width:1px;stroke-linecap:butt;stroke-linejoin:miter;stroke-opacity:1" />
    <path
       d="m -248.78597,85.886058 38.01643,-21.22047"
       id="path5537"
       style="fill:none;stroke:#000000;stroke-width:1px;stroke-linecap:butt;stroke-linejoin:miter;stroke-opacity:1" />
    <path
       d="m -325.78597,43.386058 14.95861,25.27953 0,-17.71654 15.34297,26.57481 0,-17.71654 15.34297,26.5748 0,-17.71653 15.34297,26.5748 0,-17.71653 15.34297,26.574802 0,-17.716542 15.34297,26.574812"
       id="path5539"
       style="fill:none;stroke:#000000;stroke-width:1px;stroke-linecap:butt;stroke-linejoin:bevel;stroke-opacity:1" />
    <g
       transform="matrix(0.16,0,0,0.15593414,-323.38527,67.434378)"
       id="g5684"
       style="fill:#0084c8;stroke-width:1.25;stroke-miterlimit:4;stroke-dasharray:none">
      <path
         d="m 184.11564,131.10235 0,53.1496 30.68594,17.71653 0,-53.1496 -30.68594,-17.71653 z"
         id="path5686"
         style="fill:#0084c8;fill-opacity:1;stroke:none" />
      <path
         d="m 214.80158,148.81888 0,53.1496"
         id="path5688"
         style="fill:#0084c8;stroke:#ffffff;stroke-width:1.58273935;stroke-linecap:butt;stroke-linejoin:miter;stroke-miterlimit:4;stroke-opacity:1;stroke-dasharray:none" />
    </g>
    <g
       transform="matrix(0.16,0,0,0.15593414,-328.29501,64.671768)"
       id="g5690"
       style="fill:#0084c8;stroke-width:1.25;stroke-miterlimit:4;stroke-dasharray:none">
      <path
         d="m 184.11564,131.10235 0,53.1496 30.68594,17.71653 0,-53.1496 -30.68594,-17.71653 z"
         id="path5692"
         style="fill:#0084c8;fill-opacity:1;stroke:none" />
      <path
         d="m 214.80158,148.81888 0,53.1496"
         id="path5694"
         style="fill:#0084c8;stroke:#ffffff;stroke-width:1.58273935;stroke-linecap:butt;stroke-linejoin:miter;stroke-miterlimit:4;stroke-opacity:1;stroke-dasharray:none" />
    </g>
    <g
       transform="matrix(0.16,0,0,0.15593414,-293.92677,84.251288)"
       id="g5794"
       style="fill:#0084c8">
      <path
         d="m 184.11564,131.10235 0,53.1496 30.68594,17.71653 0,-53.1496 -30.68594,-17.71653 z"
         id="path5796"
         style="fill:#0084c8;fill-opacity:1;stroke:none" />
      <path
         d="m 214.80158,148.81888 0,53.1496"
         id="path5798"
         style="fill:#0084c8;stroke:#ffffff;stroke-width:1.58273935;stroke-linecap:butt;stroke-linejoin:miter;stroke-miterlimit:4;stroke-opacity:1;stroke-dasharray:none" />
    </g>
    <g
       transform="matrix(0.16,0,0,0.15593414,-298.83652,81.488668)"
       id="g5800"
       style="fill:#0084c8;stroke-width:1.25;stroke-miterlimit:4;stroke-dasharray:none">
      <path
         d="m 184.11564,131.10235 0,53.1496 30.68594,17.71653 0,-53.1496 -30.68594,-17.71653 z"
         id="path5802"
         style="fill:#0084c8;fill-opacity:1;stroke:none" />
      <path
         d="m 214.80158,148.81888 0,53.1496"
         id="path5804"
         style="fill:#0084c8;stroke:#ffffff;stroke-width:1.58273935;stroke-linecap:butt;stroke-linejoin:miter;stroke-miterlimit:4;stroke-opacity:1;stroke-dasharray:none" />
    </g>
    <path
       d="m -295.48439,131.12366 -10e-6,-28.96137 30.68594,17.26632 0,28.9614 -30.68593,-17.26635 z"
       id="path5806"
       style="fill:#555753;stroke:none" />
    <path
       d="m -279.94595,111.1069 -0.19548,28.64994"
       id="path5808"
       style="fill:none;stroke:#000000;stroke-width:0.24999999;stroke-linecap:butt;stroke-linejoin:miter;stroke-miterlimit:4;stroke-opacity:1;stroke-dasharray:none" />
    <path
       d="m -279.94595,111.1069 -0.19548,28.64994"
       id="path5810"
       style="fill:none;stroke:#000000;stroke-width:0.24999999;stroke-linecap:butt;stroke-linejoin:miter;stroke-miterlimit:4;stroke-opacity:1;stroke-dasharray:none" />
    <path
       d="m -259.65437,139.74688 0,10.62992 6.13719,3.54331 0,-10.62992 -6.13719,-3.54331 z"
       id="path5822"
       style="fill:#2e3436;fill-opacity:1;stroke:none" />
    <path
       d="m -252.15075,141.11123 0,2.12598 -3.98231,2.01348 0.3,-2.01348 3.68231,-2.12598 z"
       id="path5830"
       style="fill:#555753;fill-opacity:1;stroke:none" />
    <path
       d="m -252.15075,141.11123 -3.98231,4.07598 -7.21462,-4.25197 3.83231,-4.07598 7.36462,4.25197 z"
       id="path5834"
       style="fill:#babdb6;stroke:none" />
    <path
       d="m -201.89532,6.7940276 c -3.20325,0 -5.78125,0.95797 -5.78125,2.125 0,0.14588 0.0165,0.26869 0.0937,0.40625 l -0.96875,53.4062504 -2.5625,1.5 -7.65625,-13.28125 -7.65625,4.4375 -7.6875,-13.3125 -7.6875,4.4375 -7.65625,-13.28125 -7.65625,4.4375 -7.6875,-13.3125 -7.6875,4.4375 -7.65625,-13.28125 -46.03125,26.5625 0.0312,0.0625 -0.0312,70.812502 92.0625,53.15625 15.34375,-8.875 15.34375,8.875 15.34375,-8.875 0,-17.71875 0,-53.125002 -7,-12.125 -1.15625,-64.9062504 c 0.0902,-0.14806 0.15625,-0.27955 0.15625,-0.4375 0,-1.16703 -2.60925,-2.125 -5.8125,-2.125 l 5e-5,0 z"
       id="path5491"
       style="fill:none;stroke:#2e3436;stroke-width:3;stroke-linejoin:bevel;stroke-miterlimit:4;stroke-dasharray:none" />
    <path
       d="m -326.16097,42.104808 0,17.6875 -0.014,3.15797 92.0625,53.156252 0.014,-3.15797 -15.34375,-26.562502 0,17.687502 -0.0312,0 -15.3125,-26.562502 0,17.71875 -15.34375,-26.5625 0,17.71875 -15.34375,-26.59375 0,17.71875 -15.34375,-26.5625 0,17.6875 -0.0312,0 -15.3125,-26.53125 -1e-4,0 z"
       id="path5949"
       style="fill:#2e3436;stroke:none" />
  </g>
  <path
     d="m 153.66521,57.48845 c -0.98954,7.44776 -7.36145,13.20356 -15.07877,13.20356 -7.32516,0 -13.44963,-5.17766 -14.89894,-12.07329 -5.36738,1.15566 -10.54354,2.81544 -15.48978,4.91922 2.71076,6.89271 0.0564,14.92483 -6.5504,18.73928 -6.13444,3.54172 -13.72259,2.33499 -18.46955,-2.49172 -3.32913,3.09538 -6.42711,6.44892 -9.23478,10.0311 5.91071,4.59045 7.67448,12.96233 3.82749,19.62551 -3.66913,6.35512 -11.23696,9.07216 -17.94296,6.85866 -1.60715,4.9404 -2.78624,10.07565 -3.48072,15.36133 7.70317,0.75022 13.73017,7.24359 13.73017,15.14298 0,7.44116 -5.34811,13.62923 -12.40723,14.95033 0.52523,2.36699 1.13413,4.69745 1.84953,6.98709 1.38081,-0.36351 2.79282,-0.53236 4.18711,-0.50092 5.1407,0.11596 10.09961,2.84091 12.85677,7.61646 3.75285,6.50013 2.16339,14.62324 -3.40364,19.27873 3.10623,4.08859 6.56728,7.89477 10.33936,11.36686 2.86814,-3.47432 7.08078,-5.42504 11.41824,-5.52289 2.69275,-0.0607 5.42322,0.59796 7.9247,2.04219 6.93591,4.00444 9.5235,12.65084 6.1137,19.75395 4.71611,1.95256 9.63906,3.50155 14.73199,4.59812 1.44931,-6.89563 7.57378,-12.07328 14.89894,-12.07328 7.71731,-10e-6 14.08922,5.75579 15.07877,13.20355 4.61164,-0.62862 9.10986,-1.61325 13.46043,-2.94125 -2.27597,-6.7315 0.43226,-14.35768 6.82012,-18.04572 2.27407,-1.31293 4.75147,-1.96602 7.20544,-2.02934 4.9337,-0.12729 9.77583,2.15905 12.77971,6.37059 4.38717,-3.3202 8.44793,-7.05375 12.12466,-11.13568 -5.27356,-4.70021 -6.71391,-12.61403 -3.04401,-18.97048 2.75716,-4.77554 7.71607,-7.50049 12.85676,-7.61644 2.05068,-0.0463 4.13352,0.32567 6.11371,1.1431 1.77685,-4.39929 3.20109,-8.98104 4.23849,-13.70446 -6.61617,-1.65363 -11.521,-7.64363 -11.521,-14.77051 2e-5,-7.57967 5.5512,-13.86791 12.8054,-15.02739 -1.00639,-7.74198 -3.04013,-15.15874 -5.95959,-22.11723 -7.10113,3.40219 -15.73863,0.81879 -19.7411,-6.1137 -3.74187,-6.48111 -2.16457,-14.57812 3.3651,-19.2402 -3.31959,-3.57554 -6.93661,-6.87882 -10.81458,-9.85129 -4.66748,5.49633 -12.73666,7.05915 -19.20166,3.32658 -6.07609,-3.50803 -8.8208,-10.58142 -7.11553,-17.05673 -4.63413,-1.47137 -9.43679,-2.56395 -14.37235,-3.23667 z m -11.73934,54.97199 c 0.52667,0 1.0468,0.0121 1.56695,0.0385 2.0806,0.10566 4.11178,0.42214 6.06233,0.92476 0.48766,0.12557 0.97344,0.26225 1.45137,0.411 0.95581,0.29772 1.88692,0.64084 2.79997,1.02752 0.45655,0.19321 0.90434,0.40089 1.34861,0.61651 0.22214,0.1078 0.44882,0.22087 0.66789,0.33394 0.0306,0.0157 0.0594,0.0356 0.0899,0.0514 0.29798,0.15404 0.59407,0.31176 0.88624,0.47523 0.32168,0.18083 0.6357,0.36097 0.95044,0.55228 0.8393,0.51048 1.65664,1.05743 2.44035,1.64403 0.29391,0.21985 0.58736,0.45073 0.87339,0.68072 0.17569,0.14161 0.35413,0.27846 0.5266,0.42385 0.23286,0.19577 0.45387,0.40117 0.68072,0.60367 0.42518,0.37953 0.84337,0.76629 1.24587,1.16879 0.25902,0.25918 0.50831,0.52806 0.75779,0.79633 0.004,0.004 0.009,0.008 0.0128,0.0128 0.11536,0.1242 0.2335,0.24637 0.34679,0.37247 0.29072,0.32363 0.57092,0.65313 0.84769,0.98899 0.0777,0.0943 0.15462,0.18734 0.23119,0.28257 0.23072,0.28636 0.46028,0.57866 0.68073,0.87338 0.27471,0.36793 0.53803,0.73695 0.79633,1.11742 0.36082,0.53151 0.71262,1.07639 1.04035,1.63118 0.18676,0.31589 0.36388,0.64024 0.53945,0.9633 0.4702,0.8652 0.89797,1.74559 1.28439,2.65869 0.16938,0.39996 0.33551,0.79879 0.48807,1.20733 0.0156,0.0417 0.0231,0.0866 0.0385,0.12844 0.13546,0.3677 0.26378,0.74319 0.38531,1.11742 0.0167,0.0514 0.035,0.10261 0.0514,0.15412 0.0473,0.1483 0.0834,0.30026 0.12844,0.44954 0.11069,0.36661 0.22398,0.73229 0.3211,1.10458 0.0267,0.10245 0.0514,0.20539 0.0771,0.30826 0.0658,0.26307 0.1209,0.53058 0.17981,0.79631 0.0727,0.32792 0.14346,0.65721 0.2055,0.98899 0.003,0.0173 0.01,0.034 0.0128,0.0514 0.006,0.0297 0.007,0.0602 0.0128,0.0899 0.0698,0.38337 0.13732,0.76775 0.19266,1.15596 0.003,0.0259 0.009,0.0512 0.0128,0.0771 0.0118,0.085 0.0145,0.17168 0.0257,0.25688 0.0471,0.35855 0.0939,0.71655 0.12844,1.07889 0.0429,0.45031 0.0796,0.90579 0.10275,1.36146 0.026,0.51598 0.0385,1.04456 0.0385,1.56695 0,1.05335 -0.0499,2.08226 -0.15413,3.10823 -4.1e-4,0.004 4.1e-4,0.009 0,0.0128 -0.0519,0.50869 -0.11603,1.01458 -0.19265,1.51558 -7e-4,0.004 6.9e-4,0.009 0,0.0128 -0.0768,0.50093 -0.16884,0.99727 -0.26973,1.48989 -6.9e-4,0.004 6.9e-4,0.009 0,0.0128 -0.0506,0.24628 -0.10847,0.48807 -0.16697,0.73209 -0.0565,0.24458 -0.11743,0.48982 -0.17981,0.73211 -0.001,0.004 0.001,0.009 0,0.0128 -0.12473,0.48358 -0.26347,0.96451 -0.41101,1.43852 -0.001,0.004 0.001,0.009 0,0.0128 -0.29667,0.95181 -0.64266,1.89059 -1.02751,2.79998 -0.38642,0.91309 -0.81419,1.79348 -1.2844,2.6587 -10e-4,0.003 0.001,0.01 0,0.0128 -0.46873,0.86175 -0.98163,1.69543 -1.52842,2.50456 -0.002,0.003 0.002,0.01 0,0.0128 -0.2726,0.4031 -0.55667,0.79257 -0.8477,1.18165 -0.002,0.003 0.002,0.01 0,0.0128 -0.29125,0.3891 -0.60286,0.76866 -0.91192,1.14311 -0.002,0.003 0.002,0.0102 0,0.0128 -1.24319,1.50522 -2.63012,2.89302 -4.13574,4.13575 -1.50799,1.24465 -3.13753,2.34773 -4.86785,3.28804 -0.8652,0.4702 -1.75844,0.89797 -2.67154,1.28439 -0.91304,0.38637 -1.84416,0.73004 -2.79997,1.02751 -0.47792,0.14876 -0.96371,0.28545 -1.45137,0.41102 -1.95055,0.50219 -3.98174,0.81918 -6.06232,0.92475 -0.52015,0.0264 -1.04029,0.0385 -1.56696,0.0385 -0.52668,0 -1.04681,-0.0121 -1.56696,-0.0385 -2.08059,-0.10566 -4.11178,-0.42214 -6.06233,-0.92475 -0.48766,-0.12557 -0.97344,-0.26226 -1.45137,-0.41102 -0.95581,-0.29771 -1.88692,-0.64083 -2.79997,-1.02751 -0.91309,-0.38642 -1.80633,-0.81419 -2.67153,-1.28439 -0.43259,-0.23525 -0.85191,-0.4897 -1.27156,-0.74495 -0.41964,-0.25524 -0.83864,-0.52245 -1.24585,-0.79632 -0.4061,-0.27443 -0.8026,-0.55457 -1.19449,-0.8477 -0.78376,-0.58626 -1.53747,-1.20515 -2.26053,-1.86236 -0.35925,-0.32654 -0.70989,-0.67158 -1.0532,-1.01468 -0.34768,-0.34747 -0.68398,-0.68938 -1.01467,-1.0532 -0.002,-0.003 0.002,-0.0105 0,-0.0128 -0.32859,-0.36171 -0.65214,-0.72738 -0.9633,-1.10458 -0.31119,-0.37703 -0.61878,-0.76407 -0.91191,-1.15595 -0.29311,-0.39205 -0.5733,-0.78823 -0.8477,-1.19448 -0.54886,-0.8122 -1.05823,-1.65221 -1.52843,-2.51741 -0.4702,-0.86521 -0.89798,-1.7456 -1.28439,-2.65869 -0.001,-0.003 0.001,-0.009 0,-0.0128 -0.19165,-0.45303 -0.3822,-0.91045 -0.55229,-1.3743 -0.001,-0.003 0.001,-0.009 0,-0.0128 -0.17128,-0.46768 -0.32649,-0.9348 -0.47522,-1.41283 -0.14554,-0.46761 -0.27472,-0.9362 -0.39817,-1.41283 -0.009,-0.0341 -0.017,-0.0686 -0.0257,-0.10276 -0.11074,-0.43387 -0.21631,-0.88197 -0.30825,-1.32292 -0.0231,-0.11082 -0.0424,-0.22268 -0.0642,-0.33394 -0.0615,-0.3126 -0.12797,-0.62168 -0.17981,-0.93761 -0.026,-0.15823 -0.0535,-0.31619 -0.0771,-0.47523 -0.002,-0.0125 0.001,-0.026 0,-0.0385 -0.0613,-0.41787 -0.11003,-0.83541 -0.15412,-1.25869 -0.008,-0.073 -0.0186,-0.14518 -0.0257,-0.21835 -0.042,-0.43311 -0.0663,-0.87169 -0.0899,-1.31009 -0.002,-0.0347 -0.0111,-0.068 -0.0128,-0.10275 -0.0264,-0.52017 -0.0385,-1.04028 -0.0385,-1.56695 0,-0.52668 0.0121,-1.04681 0.0385,-1.56696 0.0252,-0.515 0.0636,-1.03047 0.1156,-1.54127 4.1e-4,-0.004 -4.1e-4,-0.009 0,-0.0128 0.0517,-0.50874 0.11625,-1.01452 0.19266,-1.51558 6.9e-4,-0.004 -6.9e-4,-0.009 0,-0.0128 0.0766,-0.50098 0.16904,-0.9972 0.26972,-1.48988 6.9e-4,-0.004 -6.9e-4,-0.009 0,-0.0128 0.10088,-0.49263 0.22247,-0.98051 0.34679,-1.46421 6.9e-4,-0.004 -0.001,-0.009 0,-0.0128 0.12452,-0.48364 0.26366,-0.96445 0.411,-1.43852 0.001,-0.003 -0.001,-0.009 0,-0.0128 0.14874,-0.47791 0.30395,-0.9453 0.47523,-1.41284 0.12834,-0.35029 0.27032,-0.69619 0.411,-1.04036 0.016,-0.0391 0.0353,-0.0766 0.0514,-0.11559 0.0692,-0.1672 0.13348,-0.33523 0.20551,-0.50091 0.11107,-0.25523 0.22896,-0.50625 0.34678,-0.75779 0.0807,-0.17251 0.16021,-0.34302 0.24404,-0.51376 0.18464,-0.37566 0.37828,-0.74997 0.57797,-1.11742 10e-4,-0.003 -0.001,-0.01 0,-0.0128 0.23508,-0.43257 0.47705,-0.8519 0.73211,-1.27154 0.25691,-0.42268 0.51979,-0.83696 0.79632,-1.24587 0.27244,-0.40316 0.55682,-0.79248 0.8477,-1.18163 0.002,-0.003 -0.002,-0.0102 0,-0.0128 0.29109,-0.38917 0.60301,-0.76858 0.91192,-1.1431 0.002,-0.003 -0.002,-0.0103 0,-0.0128 0.31116,-0.377 0.63471,-0.74307 0.96329,-1.10457 0.98584,-1.0846 2.04137,-2.09759 3.17245,-3.03117 1.50799,-1.24466 3.13753,-2.34774 4.86785,-3.28804 0.8652,-0.47021 1.75844,-0.89798 2.67153,-1.2844 0.91305,-0.38637 1.84416,-0.73004 2.79997,-1.02751 0.47793,-0.14876 0.96372,-0.28545 1.45137,-0.411 1.95055,-0.5022 3.98174,-0.81921 6.06233,-0.92477 0.52015,-0.0264 1.04029,-0.0385 1.56696,-0.0385 z"
     id="path3161"
     style="fill:#c0c0c0;fill-opacity:1;stroke:none" />
  <path
     d="m 141.91944,72.65713 c -38.82804,0 -70.33331,31.51811 -70.33331,70.34615 0,38.82804 31.50528,70.33332 70.33331,70.33332 38.82804,1e-5 70.34616,-31.50528 70.34616,-70.33332 0,-38.82804 -31.51811,-70.34615 -70.34616,-70.34615 z m 0.0128,39.80331 c 0.52669,0 1.04681,0.0121 1.56697,0.0385 2.08059,0.10566 4.11178,0.42214 6.06232,0.92476 0.48766,0.12557 0.97344,0.26225 1.45137,0.411 0.95582,0.29772 1.88693,0.64084 2.79997,1.02752 1.36964,0.57963 2.68408,1.26409 3.94309,2.02934 0.83928,0.51048 1.65663,1.05743 2.44034,1.64402 1.17565,0.87939 2.2904,1.84087 3.32658,2.87704 2.07217,2.07338 3.8427,4.44196 5.25316,7.03847 0.47021,0.86521 0.89798,1.7456 1.28439,2.65869 1.35503,3.1997 2.17833,6.68121 2.36328,10.32652 0.026,0.51598 0.0386,1.04456 0.0386,1.56695 0,1.05336 -0.0499,2.08226 -0.15413,3.10823 -4e-4,0.004 4.2e-4,0.009 0,0.0128 -0.0519,0.50868 -0.11604,1.01457 -0.19265,1.51557 -7e-4,0.004 6.9e-4,0.009 0,0.0128 -0.0768,0.50093 -0.16884,0.99727 -0.26972,1.48989 -7e-4,0.004 6.9e-4,0.009 0,0.0128 -0.1011,0.49257 -0.22226,0.98056 -0.34679,1.4642 -7e-4,0.004 0.001,0.009 0,0.0128 -0.12473,0.48358 -0.26347,0.96451 -0.41101,1.43852 -0.001,0.004 0.001,0.009 0,0.0128 -0.59454,1.9075 -1.37341,3.73176 -2.31191,5.45868 -0.001,0.003 10e-4,0.01 0,0.0128 -0.46872,0.86175 -0.98163,1.69543 -1.52842,2.50456 -0.002,0.003 0.002,0.01 0,0.0128 -0.2726,0.4031 -0.55666,0.79257 -0.8477,1.18165 -0.002,0.003 0.002,0.01 0,0.0128 -0.29124,0.3891 -0.60286,0.76867 -0.91192,1.14311 -0.002,0.003 0.002,0.0102 0,0.0128 -0.62056,0.75137 -1.27661,1.46928 -1.96512,2.15778 -0.34747,0.34768 -0.70223,0.68398 -1.06604,1.01468 -0.36153,0.3286 -0.72755,0.65209 -1.10458,0.96329 -1.50799,1.24465 -3.13753,2.34773 -4.86784,3.28804 -0.86521,0.4702 -1.75845,0.89797 -2.67154,1.28439 -0.91305,0.38637 -1.84416,0.73004 -2.79998,1.02752 -0.47792,0.14875 -0.96371,0.28544 -1.45137,0.41101 -1.95054,0.50219 -3.98173,0.81918 -6.06232,0.92475 -0.52015,0.0264 -1.04028,0.0385 -1.56696,0.0385 -0.52668,0 -1.04681,-0.0121 -1.56696,-0.0385 -2.08059,-0.10566 -4.11178,-0.42214 -6.06233,-0.92475 -0.48765,-0.12557 -0.97344,-0.26226 -1.45136,-0.41101 -0.95582,-0.29772 -1.88693,-0.64084 -2.79998,-1.02752 -1.36964,-0.57962 -2.68407,-1.26408 -3.94309,-2.02934 -0.83928,-0.51048 -1.65663,-1.05743 -2.44034,-1.64402 -1.5701,-1.17446 -3.01224,-2.49417 -4.32839,-3.94308 -0.3286,-0.3617 -0.65214,-0.72739 -0.96331,-1.10458 -1.24476,-1.50811 -2.34763,-3.13744 -3.28804,-4.86784 -0.4702,-0.86522 -0.89797,-1.7456 -1.28439,-2.6587 -10e-4,-0.003 0.001,-0.009 0,-0.0128 -0.19164,-0.45302 -0.3822,-0.91045 -0.55229,-1.3743 -0.001,-0.003 0.001,-0.009 0,-0.0128 -0.17128,-0.46768 -0.32649,-0.93481 -0.47522,-1.41283 -0.74498,-2.39351 -1.20465,-4.90843 -1.33578,-7.5137 -0.0264,-0.52017 -0.0385,-1.04029 -0.0385,-1.56696 0,-1.0577 0.049,-2.09098 0.15412,-3.12107 0.0517,-0.50874 0.11626,-1.01452 0.19266,-1.51558 7e-4,-0.004 -6.9e-4,-0.009 0,-0.0128 0.0766,-0.50098 0.16905,-0.9972 0.26973,-1.48989 6.9e-4,-0.004 -6.9e-4,-0.009 0,-0.0128 0.10088,-0.49263 0.22246,-0.98051 0.34678,-1.46421 6.9e-4,-0.004 -6.9e-4,-0.009 0,-0.0128 0.12452,-0.48365 0.26367,-0.96445 0.41101,-1.43852 0.001,-0.003 -10e-4,-0.009 0,-0.0128 0.14873,-0.47792 0.30394,-0.9453 0.47522,-1.41284 0.5152,-1.40619 1.12915,-2.75789 1.83668,-4.05868 0.23508,-0.43257 0.47706,-0.8519 0.73211,-1.27155 0.25692,-0.42267 0.51979,-0.83696 0.79632,-1.24586 0.27244,-0.40316 0.55683,-0.79248 0.84771,-1.18163 0.002,-0.003 -0.002,-0.0101 0,-0.0128 0.29109,-0.38917 0.603,-0.76859 0.91191,-1.1431 0.002,-0.003 -0.002,-0.0103 0,-0.0128 0.31116,-0.377 0.6347,-0.74307 0.9633,-1.10457 0.32861,-0.36154 0.65643,-0.70782 1.00182,-1.05321 0.34747,-0.34768 0.70224,-0.68398 1.06604,-1.01466 0.36153,-0.32862 0.72756,-0.65211 1.10458,-0.9633 1.508,-1.24466 3.13753,-2.34774 4.86785,-3.28805 0.8652,-0.4702 1.75844,-0.89797 2.67153,-1.28439 0.91305,-0.38637 1.84416,-0.73004 2.79998,-1.02751 0.47792,-0.14876 0.96371,-0.28545 1.45136,-0.411 1.95055,-0.5022 3.98174,-0.81921 6.06233,-0.92477 0.52015,-0.0264 1.04029,-0.0385 1.56696,-0.0385 z"
     id="path3163"
     style="opacity:0.79393939;fill:#a9a9a9;fill-opacity:1;stroke:none" />
  <path
     d="m 141.91944,81.81484 c -33.77197,-1e-5 -61.1756,27.41647 -61.1756,61.18844 0,33.77197 27.40363,61.1756 61.1756,61.1756 33.77197,1e-5 61.18845,-27.40363 61.18845,-61.1756 0,-33.77197 -27.41648,-61.18844 -61.18845,-61.18844 z m 0.0128,30.6456 c 16.85359,-1e-5 30.53001,13.68927 30.53001,30.54284 0,16.85358 -13.67642,30.53 -30.53001,30.53 -16.85357,1e-5 -30.53,-13.68927 -30.53,-30.54284 0,-16.85358 13.67643,-30.53 30.53,-30.53 z"
     id="path3165"
     style="opacity:0.79393939;fill:url(#radialGradient4961);fill-opacity:1;stroke:none" />
  <path
     d="m 388.875,274.48438 c -60.099,0 -108.87501,48.76554 -108.875,108.85588 0,60.09035 48.77602,108.89412 108.875,108.89412 60.099,0 108.87501,-48.76555 108.875,-108.85589 l 0,-0.0382 c 0,-60.09034 -48.77599,-108.85588 -108.875,-108.85588 z m 0,24.6531 c 46.57461,1e-5 84.3743,37.73998 84.3743,84.24101 -2e-5,46.50101 -37.7997,84.20278 -84.3743,84.20278 -46.57459,0 -84.3743,-37.73998 -84.3743,-84.24101 -10e-6,-46.50103 37.7997,-84.20278 84.3743,-84.20278 z"
     transform="matrix(0.34399885,0,0,0.34351642,8.153326,11.30663)"
     id="path3167"
     style="opacity:0.58787878;fill:#696969;fill-opacity:1;stroke:none;filter:url(#filter3340)" />
</svg>
