<?xml version="1.0" encoding="UTF-8" standalone="no"?>
<!-- Created with Inkscape (http://www.inkscape.org/) -->

<svg
   xmlns:dc="http://purl.org/dc/elements/1.1/"
   xmlns:cc="http://creativecommons.org/ns#"
   xmlns:rdf="http://www.w3.org/1999/02/22-rdf-syntax-ns#"
   xmlns:svg="http://www.w3.org/2000/svg"
   xmlns="http://www.w3.org/2000/svg"
   xmlns:xlink="http://www.w3.org/1999/xlink"
   xmlns:sodipodi="http://sodipodi.sourceforge.net/DTD/sodipodi-0.dtd"
   xmlns:inkscape="http://www.inkscape.org/namespaces/inkscape"
   width="512"
   height="512"
   id="svg2"
   version="1.1"
   inkscape:version="0.48.4 r9939"
   sodipodi:docname="application-vnd.nokia.qt.qmakeprofile.svg"
   inkscape:export-filename="/home/alecive/Scrivania/firefoxTest1.png"
   inkscape:export-xdpi="100"
   inkscape:export-ydpi="100">
  <sodipodi:namedview
     id="base"
     pagecolor="#ffffff"
     bordercolor="#666666"
     borderopacity="1.0"
     inkscape:pageopacity="0.0"
     inkscape:pageshadow="2"
     inkscape:zoom="1.5556349"
     inkscape:cx="213.32499"
     inkscape:cy="245.9583"
     inkscape:document-units="px"
     inkscape:current-layer="svg2"
     showgrid="false"
     inkscape:window-width="1920"
     inkscape:window-height="1057"
     inkscape:window-x="0"
     inkscape:window-y="0"
     inkscape:window-maximized="1"
     inkscape:object-paths="false"
     inkscape:snap-intersection-paths="false"
     inkscape:object-nodes="true"
     inkscape:snap-smooth-nodes="true"
     inkscape:snap-nodes="true" />
  <defs
     id="defs4">
    <inkscape:perspective
       sodipodi:type="inkscape:persp3d"
       inkscape:vp_x="0 : 256 : 1"
       inkscape:vp_y="0 : 1000 : 0"
       inkscape:vp_z="512 : 256 : 1"
       inkscape:persp3d-origin="256 : 170.66667 : 1"
       id="perspective3188" />
    <linearGradient
       id="linearGradient3170">
      <stop
         style="stop-color:#cc7110;stop-opacity:1;"
         offset="0"
         id="stop3172" />
      <stop
         style="stop-color:#673f0b;stop-opacity:0.78448278;"
         offset="1"
         id="stop3174" />
    </linearGradient>
    <linearGradient
       id="linearGradient3938">
      <stop
         style="stop-color:#b1f1ee;stop-opacity:0.93103451;"
         offset="0"
         id="stop3940" />
      <stop
         style="stop-color:#132682;stop-opacity:1;"
         offset="1"
         id="stop3942" />
    </linearGradient>
    <linearGradient
       id="XMLID_74_-8-1"
       gradientUnits="userSpaceOnUse"
       x1="64.477501"
       y1="56.3008"
       x2="78.466103"
       y2="48.0854">
      <stop
         offset="0"
         style="stop-color:#ffffff;stop-opacity:1;"
         id="stop155-3-8" />
      <stop
         offset="1"
         style="stop-color:#e6e6e6;stop-opacity:1;"
         id="stop157-94-6" />
    </linearGradient>
    <radialGradient
       inkscape:collect="always"
       xlink:href="#XMLID_74_-8-1"
       id="radialGradient3867"
       cx="558.35437"
       cy="385.4841"
       fx="558.35437"
       fy="385.4841"
       r="191.6187"
       gradientTransform="matrix(1,0,0,1.0499906,0,-19.270593)"
       gradientUnits="userSpaceOnUse" />
    <linearGradient
       id="SVGID_2_"
       gradientUnits="userSpaceOnUse"
       x1="200.0508"
       y1="185.0742"
       x2="200.0508"
       y2="217.4595">
      <stop
         offset="0"
         style="stop-color:#61B74A"
         id="stop13" />
      <stop
         offset="1"
         style="stop-color:#449934"
         id="stop15" />
    </linearGradient>
    <linearGradient
       y2="217.4595"
       x2="200.0508"
       y1="185.0742"
       x1="200.0508"
       gradientTransform="matrix(13.577628,0,0,13.577628,-2026.1619,-2566.7096)"
       gradientUnits="userSpaceOnUse"
       id="linearGradient3021"
       xlink:href="#SVGID_2_"
       inkscape:collect="always" />
    <linearGradient
       id="linearGradient2460"
       y2="44.984001"
       gradientUnits="userSpaceOnUse"
       x2="19.360001"
       y1="21.030804"
       x1="19.244999">
      <stop
         id="stop3602"
         style="stop-color:#fafafa;stop-opacity:1;"
         offset="0" />
      <stop
         id="stop3604"
         style="stop-color:#f0f0f0;stop-opacity:1;"
         offset="1" />
    </linearGradient>
    <linearGradient
       y2="44.984001"
       x2="19.360001"
       y1="21.030804"
       x1="19.244999"
       gradientTransform="matrix(11.076923,0,0,11.076923,-9.8523013,-20.578025)"
       gradientUnits="userSpaceOnUse"
       id="linearGradient3096"
       xlink:href="#linearGradient2460"
       inkscape:collect="always" />
    <linearGradient
       y2="20.625916"
       x2="1006.8082"
       y1="484.41721"
       x1="1012.5133"
       gradientTransform="matrix(1.0317796,0,0,1.0317796,-830.86406,592.67791)"
       gradientUnits="userSpaceOnUse"
       id="linearGradient4114-2"
       xlink:href="#ButtonShadow-0-1-1-5"
       inkscape:collect="always" />
    <linearGradient
       gradientTransform="matrix(1.0058652,0,0,0.994169,100,0)"
       gradientUnits="userSpaceOnUse"
       id="ButtonShadow-0-1-1-5"
       y2="7.0165396"
       x2="45.447727"
       y1="92.539597"
       x1="45.447727">
      <stop
         offset="0"
         style="stop-color:#000000;stop-opacity:1"
         id="stop3750-8-9-3-6" />
      <stop
         offset="1"
         style="stop-color:#000000;stop-opacity:0.58823532"
         id="stop3752-5-6-4-2" />
    </linearGradient>
    <linearGradient
       y2="20.625916"
       x2="1006.8082"
       y1="484.41721"
       x1="1012.5133"
       gradientTransform="matrix(1.0402541,0,0,1.0402541,-837.95116,592.51825)"
       gradientUnits="userSpaceOnUse"
       id="linearGradient4112-2"
       xlink:href="#ButtonShadow-0-1-1-5"
       inkscape:collect="always" />
    <linearGradient
       gradientTransform="matrix(1.0058652,0,0,0.994169,100,0)"
       gradientUnits="userSpaceOnUse"
       id="linearGradient5292"
       y2="7.0165396"
       x2="45.447727"
       y1="92.539597"
       x1="45.447727">
      <stop
         offset="0"
         style="stop-color:#000000;stop-opacity:1"
         id="stop5294" />
      <stop
         offset="1"
         style="stop-color:#000000;stop-opacity:0.58823532"
         id="stop5296" />
    </linearGradient>
    <linearGradient
       y2="20.625916"
       x2="1006.8082"
       y1="484.41721"
       x1="1012.5133"
       gradientTransform="matrix(1.023305,0,0,1.023305,-823.77704,592.83757)"
       gradientUnits="userSpaceOnUse"
       id="linearGradient4110-6"
       xlink:href="#ButtonShadow-0-1-1-5"
       inkscape:collect="always" />
    <linearGradient
       gradientTransform="matrix(1.0058652,0,0,0.994169,100,0)"
       gradientUnits="userSpaceOnUse"
       id="linearGradient5299"
       y2="7.0165396"
       x2="45.447727"
       y1="92.539597"
       x1="45.447727">
      <stop
         offset="0"
         style="stop-color:#000000;stop-opacity:1"
         id="stop5301" />
      <stop
         offset="1"
         style="stop-color:#000000;stop-opacity:0.58823532"
         id="stop5303" />
    </linearGradient>
    <linearGradient
       y2="20.625916"
       x2="1006.8082"
       y1="484.41721"
       x1="1012.5133"
       gradientTransform="matrix(1.0148305,0,0,1.0148305,-816.68996,592.99723)"
       gradientUnits="userSpaceOnUse"
       id="linearGradient4116-6"
       xlink:href="#ButtonShadow-0-1-1-5"
       inkscape:collect="always" />
    <linearGradient
       gradientTransform="matrix(1.0058652,0,0,0.994169,100,0)"
       gradientUnits="userSpaceOnUse"
       id="linearGradient5306"
       y2="7.0165396"
       x2="45.447727"
       y1="92.539597"
       x1="45.447727">
      <stop
         offset="0"
         style="stop-color:#000000;stop-opacity:1"
         id="stop5308" />
      <stop
         offset="1"
         style="stop-color:#000000;stop-opacity:0.58823532"
         id="stop5310" />
    </linearGradient>
    <linearGradient
       inkscape:collect="always"
       xlink:href="#ButtonShadow-0-1-1-5"
       id="linearGradient3372"
       gradientUnits="userSpaceOnUse"
       gradientTransform="matrix(1.0074153,0,0,1.0074153,-810.48879,593.1369)"
       x1="1012.5133"
       y1="484.41721"
       x2="1006.8082"
       y2="20.625916" />
    <linearGradient
       gradientTransform="matrix(1.0058652,0,0,0.994169,100,0)"
       gradientUnits="userSpaceOnUse"
       id="linearGradient5313"
       y2="7.0165396"
       x2="45.447727"
       y1="92.539597"
       x1="45.447727">
      <stop
         offset="0"
         style="stop-color:#000000;stop-opacity:1"
         id="stop5315" />
      <stop
         offset="1"
         style="stop-color:#000000;stop-opacity:0.58823532"
         id="stop5317" />
    </linearGradient>
    <linearGradient
       y2="251.66064"
       x2="1011.9534"
       y1="476.25983"
       x1="1016.1035"
       gradientTransform="translate(-146.22032,369.08845)"
       gradientUnits="userSpaceOnUse"
       id="linearGradient4082"
       xlink:href="#linearGradient4487"
       inkscape:collect="always" />
    <linearGradient
       id="linearGradient4487">
      <stop
         offset="0"
         style="stop-color:#000000;stop-opacity:1"
         id="stop4489" />
      <stop
         offset="1"
         style="stop-color:#000000;stop-opacity:0"
         id="stop4491" />
    </linearGradient>
    <linearGradient
       id="linearGradient3737">
      <stop
         offset="0"
         style="stop-color:#ffffff;stop-opacity:1"
         id="stop3739" />
      <stop
         offset="1"
         style="stop-color:#ffffff;stop-opacity:0"
         id="stop3741" />
    </linearGradient>
    <linearGradient
       id="linearGradient4046">
      <stop
         offset="0"
         style="stop-color:#000000;stop-opacity:1;"
         id="stop4048" />
      <stop
         offset="1"
         style="stop-color:#ffffff;stop-opacity:0.2"
         id="stop4050" />
    </linearGradient>
    <linearGradient
       inkscape:collect="always"
       xlink:href="#ButtonShadow-0-1-1-5"
       id="linearGradient5342"
       gradientUnits="userSpaceOnUse"
       gradientTransform="matrix(1.0074153,0,0,1.0074153,-810.48879,593.1369)"
       x1="1012.5133"
       y1="484.41721"
       x2="1006.8082"
       y2="20.625916" />
    <linearGradient
       y2="20.625916"
       x2="1006.8082"
       y1="484.41721"
       x1="1012.5133"
       gradientTransform="matrix(1.0317796,0,0,1.0317796,-830.86406,592.67791)"
       gradientUnits="userSpaceOnUse"
       id="linearGradient4114-2-6"
       xlink:href="#ButtonShadow-0-1-1-5-9"
       inkscape:collect="always" />
    <linearGradient
       gradientTransform="matrix(1.0058652,0,0,0.994169,100,0)"
       gradientUnits="userSpaceOnUse"
       id="ButtonShadow-0-1-1-5-9"
       y2="7.0165396"
       x2="45.447727"
       y1="92.539597"
       x1="45.447727">
      <stop
         offset="0"
         style="stop-color:#000000;stop-opacity:1"
         id="stop3750-8-9-3-6-4" />
      <stop
         offset="1"
         style="stop-color:#000000;stop-opacity:0.58823532"
         id="stop3752-5-6-4-2-9" />
    </linearGradient>
    <linearGradient
       y2="20.625916"
       x2="1006.8082"
       y1="484.41721"
       x1="1012.5133"
       gradientTransform="matrix(1.0402541,0,0,1.0402541,-837.95116,592.51825)"
       gradientUnits="userSpaceOnUse"
       id="linearGradient4112-2-6"
       xlink:href="#ButtonShadow-0-1-1-5-9"
       inkscape:collect="always" />
    <linearGradient
       gradientTransform="matrix(1.0058652,0,0,0.994169,100,0)"
       gradientUnits="userSpaceOnUse"
       id="linearGradient5292-5"
       y2="7.0165396"
       x2="45.447727"
       y1="92.539597"
       x1="45.447727">
      <stop
         offset="0"
         style="stop-color:#000000;stop-opacity:1"
         id="stop5294-8" />
      <stop
         offset="1"
         style="stop-color:#000000;stop-opacity:0.58823532"
         id="stop5296-4" />
    </linearGradient>
    <linearGradient
       y2="20.625916"
       x2="1006.8082"
       y1="484.41721"
       x1="1012.5133"
       gradientTransform="matrix(1.023305,0,0,1.023305,-823.77704,592.83757)"
       gradientUnits="userSpaceOnUse"
       id="linearGradient4110-6-7"
       xlink:href="#ButtonShadow-0-1-1-5-9"
       inkscape:collect="always" />
    <linearGradient
       gradientTransform="matrix(1.0058652,0,0,0.994169,100,0)"
       gradientUnits="userSpaceOnUse"
       id="linearGradient5299-2"
       y2="7.0165396"
       x2="45.447727"
       y1="92.539597"
       x1="45.447727">
      <stop
         offset="0"
         style="stop-color:#000000;stop-opacity:1"
         id="stop5301-9" />
      <stop
         offset="1"
         style="stop-color:#000000;stop-opacity:0.58823532"
         id="stop5303-1" />
    </linearGradient>
    <linearGradient
       y2="20.625916"
       x2="1006.8082"
       y1="484.41721"
       x1="1012.5133"
       gradientTransform="matrix(1.0148305,0,0,1.0148305,-816.68996,592.99723)"
       gradientUnits="userSpaceOnUse"
       id="linearGradient4116-6-3"
       xlink:href="#ButtonShadow-0-1-1-5-9"
       inkscape:collect="always" />
    <linearGradient
       gradientTransform="matrix(1.0058652,0,0,0.994169,100,0)"
       gradientUnits="userSpaceOnUse"
       id="linearGradient5306-9"
       y2="7.0165396"
       x2="45.447727"
       y1="92.539597"
       x1="45.447727">
      <stop
         offset="0"
         style="stop-color:#000000;stop-opacity:1"
         id="stop5308-0" />
      <stop
         offset="1"
         style="stop-color:#000000;stop-opacity:0.58823532"
         id="stop5310-6" />
    </linearGradient>
    <linearGradient
       inkscape:collect="always"
       xlink:href="#ButtonShadow-0-1-1-5-9"
       id="linearGradient3372-9"
       gradientUnits="userSpaceOnUse"
       gradientTransform="matrix(1.0074153,0,0,1.0074153,-810.48879,593.1369)"
       x1="1012.5133"
       y1="484.41721"
       x2="1006.8082"
       y2="20.625916" />
    <linearGradient
       gradientTransform="matrix(1.0058652,0,0,0.994169,100,0)"
       gradientUnits="userSpaceOnUse"
       id="linearGradient5313-8"
       y2="7.0165396"
       x2="45.447727"
       y1="92.539597"
       x1="45.447727">
      <stop
         offset="0"
         style="stop-color:#000000;stop-opacity:1"
         id="stop5315-8" />
      <stop
         offset="1"
         style="stop-color:#000000;stop-opacity:0.58823532"
         id="stop5317-1" />
    </linearGradient>
    <linearGradient
       y2="251.66064"
       x2="1011.9534"
       y1="476.25983"
       x1="1016.1035"
       gradientTransform="translate(-146.22032,369.08845)"
       gradientUnits="userSpaceOnUse"
       id="linearGradient4082-7"
       xlink:href="#linearGradient4487-8"
       inkscape:collect="always" />
    <linearGradient
       id="linearGradient4487-8">
      <stop
         offset="0"
         style="stop-color:#000000;stop-opacity:1"
         id="stop4489-0" />
      <stop
         offset="1"
         style="stop-color:#000000;stop-opacity:0"
         id="stop4491-4" />
    </linearGradient>
    <linearGradient
       y2="363.73825"
       x2="988.78552"
       y1="51.511765"
       x1="993.43896"
       gradientTransform="translate(778.59979,-360.55963)"
       gradientUnits="userSpaceOnUse"
       id="linearGradient4084-7"
       xlink:href="#linearGradient3737-8"
       inkscape:collect="always" />
    <linearGradient
       id="linearGradient3737-8">
      <stop
         offset="0"
         style="stop-color:#ffffff;stop-opacity:1"
         id="stop3739-4" />
      <stop
         offset="1"
         style="stop-color:#ffffff;stop-opacity:0"
         id="stop3741-7" />
    </linearGradient>
    <linearGradient
       y2="-55.941216"
       x2="1763.6903"
       y1="155.59685"
       x1="1764.6487"
       gradientUnits="userSpaceOnUse"
       id="linearGradient4086-1"
       xlink:href="#linearGradient4046-2"
       inkscape:collect="always" />
    <linearGradient
       id="linearGradient4046-2">
      <stop
         offset="0"
         style="stop-color:#000000;stop-opacity:1;"
         id="stop4048-2" />
      <stop
         offset="1"
         style="stop-color:#ffffff;stop-opacity:0.2"
         id="stop4050-7" />
    </linearGradient>
    <linearGradient
       inkscape:collect="always"
       xlink:href="#ButtonShadow-0-1-1-5-9"
       id="linearGradient5342-3"
       gradientUnits="userSpaceOnUse"
       gradientTransform="matrix(1.0074153,0,0,1.0074153,-810.48879,593.1369)"
       x1="1012.5133"
       y1="484.41721"
       x2="1006.8082"
       y2="20.625916" />
    <linearGradient
       id="linearGradient4487-1">
      <stop
         offset="0"
         style="stop-color:#000000;stop-opacity:1"
         id="stop4489-6" />
      <stop
         offset="1"
         style="stop-color:#000000;stop-opacity:0"
         id="stop4491-0" />
    </linearGradient>
    <linearGradient
       y2="363.73825"
       x2="988.78552"
       y1="51.511765"
       x1="993.43896"
       gradientTransform="translate(778.59979,-360.55963)"
       gradientUnits="userSpaceOnUse"
       id="linearGradient4084-8"
       xlink:href="#linearGradient3737-9"
       inkscape:collect="always" />
    <linearGradient
       id="linearGradient3737-9">
      <stop
         offset="0"
         style="stop-color:#ffffff;stop-opacity:1"
         id="stop3739-7" />
      <stop
         offset="1"
         style="stop-color:#ffffff;stop-opacity:0"
         id="stop3741-4" />
    </linearGradient>
    <linearGradient
       y2="-55.941216"
       x2="1763.6903"
       y1="155.59685"
       x1="1764.6487"
       gradientUnits="userSpaceOnUse"
       id="linearGradient4086-12"
       xlink:href="#linearGradient4046-3"
       inkscape:collect="always" />
    <linearGradient
       id="linearGradient4046-3">
      <stop
         offset="0"
         style="stop-color:#000000;stop-opacity:1;"
         id="stop4048-7" />
      <stop
         offset="1"
         style="stop-color:#ffffff;stop-opacity:0.2"
         id="stop4050-73" />
    </linearGradient>
    <linearGradient
       id="linearGradient2760">
      <stop
         id="stop2770"
         offset="0"
         style="stop-color:#ffffff;stop-opacity:1;" />
      <stop
         id="stop2764"
         offset="1"
         style="stop-color:#a9a9a9;stop-opacity:1;" />
    </linearGradient>
    <linearGradient
       id="linearGradient4846">
      <stop
         offset="0"
         style="stop-color:#1a1a1a;stop-opacity:1"
         id="stop4848" />
      <stop
         offset="1"
         style="stop-color:#1e1e1e;stop-opacity:1;"
         id="stop4856" />
    </linearGradient>
    <linearGradient
       id="linearGradient4922">
      <stop
         id="stop4924"
         style="stop-color:#1a1a1a;stop-opacity:1"
         offset="0" />
      <stop
         id="stop4926"
         style="stop-color:#636363;stop-opacity:1"
         offset="0.15622118" />
      <stop
         id="stop4928"
         style="stop-color:#b4b4b4;stop-opacity:1"
         offset="0.33151907" />
      <stop
         id="stop4930"
         style="stop-color:#636363;stop-opacity:1"
         offset="0.53579742" />
      <stop
         id="stop4932"
         style="stop-color:#000000;stop-opacity:1"
         offset="1" />
    </linearGradient>
    <linearGradient
       y2="110.85986"
       x2="166.77547"
       y1="152.12039"
       x1="201.33115"
       spreadMethod="reflect"
       gradientTransform="matrix(1.2757694,0,0,1.2757694,-135.89444,2.4500392)"
       gradientUnits="userSpaceOnUse"
       id="linearGradient4884"
       xlink:href="#linearGradient4888"
       inkscape:collect="always" />
    <linearGradient
       id="linearGradient4888">
      <stop
         offset="0"
         style="stop-color:#c0821c;stop-opacity:1;"
         id="stop4892" />
      <stop
         id="stop4894"
         style="stop-color:#e4ae48;stop-opacity:1;"
         offset="1" />
    </linearGradient>
    <linearGradient
       gradientUnits="userSpaceOnUse"
       y2="158.47191"
       x2="258.22205"
       y1="160.82593"
       x1="13.021049"
       id="linearGradient4882"
       xlink:href="#linearGradient4898"
       inkscape:collect="always" />
    <linearGradient
       id="linearGradient4898">
      <stop
         offset="0"
         style="stop-color:#d78617;stop-opacity:1;"
         id="stop4900" />
      <stop
         offset="1"
         style="stop-color:#5c1234;stop-opacity:1;"
         id="stop4902" />
    </linearGradient>
    <linearGradient
       x1="45.447727"
       y1="92.539597"
       x2="45.447727"
       y2="7.0165396"
       id="ButtonShadow"
       gradientUnits="userSpaceOnUse"
       gradientTransform="scale(1.0058652,0.994169)">
      <stop
         id="stop3750"
         style="stop-color:#000000;stop-opacity:1"
         offset="0" />
      <stop
         id="stop3752"
         style="stop-color:#000000;stop-opacity:0.58823532"
         offset="1" />
    </linearGradient>
    <filter
       color-interpolation-filters="sRGB"
       id="filter3174">
      <feGaussianBlur
         stdDeviation="1.71"
         id="feGaussianBlur3176" />
    </filter>
    <linearGradient
       id="linearGradient10386">
      <stop
         id="stop10388"
         style="stop-color:#ffffff;stop-opacity:1"
         offset="0" />
      <stop
         id="stop10390"
         style="stop-color:#ffffff;stop-opacity:0"
         offset="1" />
    </linearGradient>
    <linearGradient
       y2="168.28262"
       x2="214.26566"
       y1="11.425488"
       x1="212.86353"
       spreadMethod="reflect"
       gradientTransform="matrix(1.8464564,0,0,1.8464564,-123.73343,86.826257)"
       gradientUnits="userSpaceOnUse"
       id="linearGradient8264"
       xlink:href="#linearGradient2760"
       inkscape:collect="always" />
    <linearGradient
       inkscape:collect="always"
       xlink:href="#linearGradient2460"
       id="linearGradient3157"
       gradientUnits="userSpaceOnUse"
       gradientTransform="matrix(12.102564,0,0,12.102564,-34.468255,-46.187105)"
       x1="18.930269"
       y1="6.2951212"
       x2="19.360001"
       y2="36.643665" />
    <linearGradient
       y2="1"
       x2="1"
       y1="0"
       x1="0"
       id="acyl_gradient"
       xlink:href="#linearGradient4321"
       inkscape:collect="always" />
    <linearGradient
       id="linearGradient4321">
      <stop
         id="stop1"
         offset="0"
         style="stop-color:#ee0c0c;stop-opacity:1;" />
      <stop
         id="stop2"
         offset="1"
         style="stop-color:#7a0404;stop-opacity:1;" />
    </linearGradient>
    <radialGradient
       gradientUnits="userSpaceOnUse"
       gradientTransform="matrix(2.4249551,-0.00787504,0.00770263,2.3718665,-135.71828,-134.64744)"
       r="150"
       fy="98.692879"
       fx="94.710419"
       cy="98.692879"
       cx="94.710419"
       id="radialGradient3928"
       xlink:href="#linearGradient4321"
       inkscape:collect="always" />
    <radialGradient
       r="150"
       fy="98.692879"
       fx="94.710419"
       cy="98.692879"
       cx="94.710419"
       gradientTransform="matrix(2.4249551,-0.00787504,0.00770263,2.3718665,-135.71828,-134.64744)"
       gradientUnits="userSpaceOnUse"
       id="radialGradient3932"
       xlink:href="#linearGradient4321"
       inkscape:collect="always" />
    <radialGradient
       inkscape:collect="always"
       xlink:href="#linearGradient3938"
       id="radialGradient3140"
       gradientUnits="userSpaceOnUse"
       gradientTransform="matrix(1.6533901,0.0060994,-0.00539655,1.4623231,-50.506611,-35.439162)"
       cx="110.73653"
       cy="112.57468"
       fx="110.73653"
       fy="112.57468"
       r="150" />
    <linearGradient
       y2="107.89955"
       x2="-109.97469"
       y1="572.44672"
       x1="-112.34483"
       gradientTransform="matrix(1.0074417,0,0,1.0074152,261.62679,527.41078)"
       gradientUnits="userSpaceOnUse"
       id="linearGradient5925"
       xlink:href="#ButtonShadow-0-1-1-5-9-5"
       inkscape:collect="always" />
    <linearGradient
       gradientTransform="matrix(1.0058652,0,0,0.994169,100,0)"
       gradientUnits="userSpaceOnUse"
       id="ButtonShadow-0-1-1-5-9-5"
       y2="7.0165396"
       x2="45.447727"
       y1="92.539597"
       x1="45.447727">
      <stop
         offset="0"
         style="stop-color:#000000;stop-opacity:1"
         id="stop3750-8-9-3-6-4-0" />
      <stop
         offset="1"
         style="stop-color:#000000;stop-opacity:0.58823532"
         id="stop3752-5-6-4-2-9-8" />
    </linearGradient>
    <linearGradient
       y2="107.89955"
       x2="-109.97469"
       y1="572.44672"
       x1="-112.34483"
       gradientTransform="matrix(1.0318068,0,0,1.0317796,268.77841,524.78354)"
       gradientUnits="userSpaceOnUse"
       id="linearGradient5927"
       xlink:href="#ButtonShadow-0-1-1-5-9-5"
       inkscape:collect="always" />
    <linearGradient
       gradientTransform="matrix(1.0058652,0,0,0.994169,100,0)"
       gradientUnits="userSpaceOnUse"
       id="linearGradient3129"
       y2="7.0165396"
       x2="45.447727"
       y1="92.539597"
       x1="45.447727">
      <stop
         offset="0"
         style="stop-color:#000000;stop-opacity:1"
         id="stop3131" />
      <stop
         offset="1"
         style="stop-color:#000000;stop-opacity:0.58823532"
         id="stop3133" />
    </linearGradient>
    <linearGradient
       y2="107.89955"
       x2="-109.97469"
       y1="572.44672"
       x1="-112.34483"
       gradientTransform="matrix(1.0148572,0,0,1.0148305,263.80369,526.61118)"
       gradientUnits="userSpaceOnUse"
       id="linearGradient5929"
       xlink:href="#ButtonShadow-0-1-1-5-9-5"
       inkscape:collect="always" />
    <linearGradient
       gradientTransform="matrix(1.0058652,0,0,0.994169,100,0)"
       gradientUnits="userSpaceOnUse"
       id="linearGradient3136"
       y2="7.0165396"
       x2="45.447727"
       y1="92.539597"
       x1="45.447727">
      <stop
         offset="0"
         style="stop-color:#000000;stop-opacity:1"
         id="stop3138" />
      <stop
         offset="1"
         style="stop-color:#000000;stop-opacity:0.58823532"
         id="stop3140" />
    </linearGradient>
    <linearGradient
       y2="107.89955"
       x2="-109.97469"
       y1="572.44672"
       x1="-112.34483"
       gradientTransform="matrix(1.023332,0,0,1.023305,266.29153,525.69736)"
       gradientUnits="userSpaceOnUse"
       id="linearGradient5931"
       xlink:href="#ButtonShadow-0-1-1-5-9-5"
       inkscape:collect="always" />
    <linearGradient
       gradientTransform="matrix(1.0058652,0,0,0.994169,100,0)"
       gradientUnits="userSpaceOnUse"
       id="linearGradient3143"
       y2="7.0165396"
       x2="45.447727"
       y1="92.539597"
       x1="45.447727">
      <stop
         offset="0"
         style="stop-color:#000000;stop-opacity:1"
         id="stop3145" />
      <stop
         offset="1"
         style="stop-color:#000000;stop-opacity:0.58823532"
         id="stop3147" />
    </linearGradient>
    <linearGradient
       y2="107.89955"
       x2="-109.97469"
       y1="572.44672"
       x1="-112.34483"
       gradientTransform="matrix(1.0402816,0,0,1.0402542,271.26626,523.86971)"
       gradientUnits="userSpaceOnUse"
       id="linearGradient5933"
       xlink:href="#ButtonShadow-0-1-1-5-9-5"
       inkscape:collect="always" />
    <linearGradient
       gradientTransform="matrix(1.0058652,0,0,0.994169,100,0)"
       gradientUnits="userSpaceOnUse"
       id="linearGradient3150"
       y2="7.0165396"
       x2="45.447727"
       y1="92.539597"
       x1="45.447727">
      <stop
         offset="0"
         style="stop-color:#000000;stop-opacity:1"
         id="stop3152" />
      <stop
         offset="1"
         style="stop-color:#000000;stop-opacity:0.58823532"
         id="stop3154" />
    </linearGradient>
    <linearGradient
       y2="363.73825"
       x2="988.78552"
       y1="51.511765"
       x1="993.43896"
       gradientTransform="translate(-753.58716,-30.14348)"
       gradientUnits="userSpaceOnUse"
       id="linearGradient4084-8-2"
       xlink:href="#linearGradient3737-9-0"
       inkscape:collect="always" />
    <linearGradient
       id="linearGradient3737-9-0">
      <stop
         offset="0"
         style="stop-color:#ffffff;stop-opacity:1"
         id="stop3739-7-5" />
      <stop
         offset="1"
         style="stop-color:#ffffff;stop-opacity:0"
         id="stop3741-4-2" />
    </linearGradient>
    <linearGradient
       y2="-55.941216"
       x2="1763.6903"
       y1="155.59685"
       x1="1764.6487"
       gradientUnits="userSpaceOnUse"
       id="linearGradient4086-12-9"
       xlink:href="#linearGradient4046-3-3"
       inkscape:collect="always"
       gradientTransform="translate(-1532.187,330.41615)" />
    <linearGradient
       id="linearGradient4046-3-3">
      <stop
         offset="0"
         style="stop-color:#000000;stop-opacity:1;"
         id="stop4048-7-5" />
      <stop
         offset="1"
         style="stop-color:#ffffff;stop-opacity:0.2"
         id="stop4050-73-5" />
    </linearGradient>
    <linearGradient
       y2="170.42188"
       x2="153.125"
       y1="170.42188"
       x1="102.875"
       gradientUnits="userSpaceOnUse"
       id="linearGradient5071"
       xlink:href="#linearGradient5059"
       inkscape:collect="always" />
    <linearGradient
       id="linearGradient5059">
      <stop
         id="stop5061"
         offset="0"
         style="stop-color:#0b0826;stop-opacity:0.49803922;" />
      <stop
         id="stop5063"
         offset="1"
         style="stop-color:#0b0826;stop-opacity:1;" />
    </linearGradient>
    <linearGradient
       inkscape:collect="always"
       xlink:href="#linearGradient5059"
       id="linearGradient3985"
       gradientUnits="userSpaceOnUse"
       x1="102.875"
       y1="170.42188"
       x2="153.125"
       y2="170.42188" />
    <radialGradient
       spreadMethod="pad"
       gradientUnits="userSpaceOnUse"
       gradientTransform="matrix(1,0,0,1.2036395,0,-58.435237)"
       r="62.545898"
       fy="286.95432"
       fx="244.26477"
       cy="286.95432"
       cx="244.26477"
       id="radialGradient14612"
       xlink:href="#linearGradient3938"
       inkscape:collect="always" />
    <linearGradient
       id="linearGradient40231">
      <stop
         id="stop40233"
         offset="0"
         style="stop-color:#d3d7cf;stop-opacity:1" />
      <stop
         style="stop-color:#eeeeec;stop-opacity:1"
         offset="0.11791565"
         id="stop40239" />
      <stop
         id="stop40235"
         offset="1"
         style="stop-color:#555753;stop-opacity:1" />
    </linearGradient>
    <linearGradient
       y2="432.28345"
       x2="-214.80157"
       y1="432.28345"
       x1="-245.48752"
       gradientTransform="matrix(1,0,0,0.78414728,-2.8281273,112.42952)"
       gradientUnits="userSpaceOnUse"
       id="linearGradient3421"
       xlink:href="#linearGradient40231"
       inkscape:collect="always" />
    <linearGradient
       y2="432.28345"
       x2="-214.80157"
       y1="432.28345"
       x1="-245.48752"
       gradientTransform="matrix(1,0,0,0.78414728,-2.8281273,112.42952)"
       gradientUnits="userSpaceOnUse"
       id="linearGradient3509"
       xlink:href="#linearGradient40231"
       inkscape:collect="always" />
    <linearGradient
       y2="432.28345"
       x2="-214.80157"
       y1="432.28345"
       x1="-245.48752"
       gradientTransform="matrix(1,0,0,0.78414728,-2.8281273,112.42952)"
       gradientUnits="userSpaceOnUse"
       id="linearGradient4499"
       xlink:href="#linearGradient40231"
       inkscape:collect="always" />
    <linearGradient
       y2="432.28345"
       x2="-214.80157"
       y1="432.28345"
       x1="-245.48752"
       gradientTransform="matrix(1,0,0,0.78414728,-2.8281273,112.42952)"
       gradientUnits="userSpaceOnUse"
       id="linearGradient4691"
       xlink:href="#linearGradient40231"
       inkscape:collect="always" />
    <linearGradient
       y2="432.28345"
       x2="-214.80157"
       y1="432.28345"
       x1="-245.48752"
       gradientTransform="matrix(1.7795517,0,0,1.122954,109.34339,-488.68717)"
       gradientUnits="userSpaceOnUse"
       id="linearGradient4696"
       xlink:href="#linearGradient40231"
       inkscape:collect="always" />
    <linearGradient
       inkscape:collect="always"
       xlink:href="#linearGradient40231"
       id="linearGradient6011"
       gradientUnits="userSpaceOnUse"
       gradientTransform="matrix(1,0,0,0.78414728,-2.8281273,112.42952)"
       x1="-245.48752"
       y1="432.28345"
       x2="-214.80157"
       y2="432.28345" />
  </defs>
  <metadata
     id="metadata7">
    <rdf:RDF>
      <cc:Work
         rdf:about="">
        <dc:format>image/svg+xml</dc:format>
        <dc:type
           rdf:resource="http://purl.org/dc/dcmitype/StillImage" />
        <dc:title />
      </cc:Work>
    </rdf:RDF>
  </metadata>
  <g
     transform="translate(0,-540.36218)"
     inkscape:label="Livello 1"
     inkscape:groupmode="layer"
     id="layer1" />
  <g
     transform="matrix(1.1,0,0,0.44444,95.081063,256.39254)"
     id="g2036">
    <g
       transform="matrix(1.0526,0,0,1.2857,-1.2632,-13.429)"
       style="opacity:0.4"
       id="g3712" />
  </g>
  <g
     id="g3541"
     transform="translate(97.481063,231.28154)" />
  <g
     id="g3536"
     transform="translate(97.481063,231.28154)" />
  <g
     transform="translate(-605.51932,-353.96833)"
     id="g4076">
    <g
       id="g4038"
       transform="translate(-926.66758,684.38448)" />
  </g>
  <g
     transform="translate(54.089264,-616.0416)"
     id="g5918">
    <path
       inkscape:connector-curvature="0"
       style="opacity:0.25;color:#000000;fill:url(#linearGradient5925);fill-opacity:1;fill-rule:nonzero;stroke:none;stroke-width:1.5;marker:none;visibility:visible;display:inline;overflow:visible;enable-background:accumulate"
       d="m 60.989673,1111.5416 144.328367,-0.2064 147.52725,-0.2409 c 49.0412,-5.1221 87.2248,-45.726 88.537,-95.8499 9e-4,-0.035 -9e-4,-0.069 0,-0.1032 9e-4,-0.414 -8e-4,-0.6473 0,-1.0665 0.042,-21.50295 0.034,-49.94202 0.034,-87.7651 l 0,-152.51368 -68.8621,-68.87715 -68.8965,-68.87715 -152.82436,0.0688 c -40.25265,0.0173 -69.340747,0.0413 -91.323117,0.10316 -50.88989,2.75481 -91.3364,43.54773 -93.49012,94.61146 -0.0987,30.63047 -0.10318,74.7573 -0.10318,143.01819 0,68.26875 0.005,112.38763 0.10312,143.01817 2.17453,51.5569 43.38652,92.644 94.96919,94.6802 z"
       id="path5873" />
    <path
       id="path5902"
       d="m 63.288833,1123.0416 147.818967,-0.2114 151.09521,-0.2467 c 50.2273,-5.246 89.3343,-46.8319 90.6783,-98.1681 9e-4,-0.035 -9e-4,-0.07 0,-0.1056 9e-4,-0.424 -8e-4,-0.663 0,-1.0924 0.043,-22.0229 0.035,-51.14981 0.035,-89.88764 l 0,-156.20224 -70.5276,-70.54295 -70.5627,-70.54295 -156.52046,0.0705 c -41.22616,0.0177 -71.017757,0.0423 -93.531777,0.10565 -52.12067,2.82144 -93.54538,44.60094 -95.75119,96.89965 -0.10109,31.37127 -0.10567,76.56531 -0.10567,146.47709 0,69.91984 0.005,115.10574 0.10561,146.47699 2.22712,52.804 44.43583,94.8848 97.26603,96.9702 z"
       style="opacity:0.1;color:#000000;fill:url(#linearGradient5927);fill-opacity:1;fill-rule:nonzero;stroke:none;stroke-width:1.5;marker:none;visibility:visible;display:inline;overflow:visible;enable-background:accumulate"
       inkscape:connector-curvature="0" />
    <path
       inkscape:connector-curvature="0"
       style="opacity:0.25;color:#000000;fill:url(#linearGradient5929);fill-opacity:1;fill-rule:nonzero;stroke:none;stroke-width:1.5;marker:none;visibility:visible;display:inline;overflow:visible;enable-background:accumulate"
       d="m 61.689723,1115.0417 145.390727,-0.2079 148.61314,-0.2427 c 49.4022,-5.1598 87.8668,-46.0626 89.1887,-96.5555 9e-4,-0.035 -9e-4,-0.069 0,-0.1039 9e-4,-0.4171 -8e-4,-0.6521 0,-1.0744 0.042,-21.66124 0.034,-50.30964 0.034,-88.41113 l 0,-153.63628 -69.369,-69.38413 -69.4036,-69.38414 -153.94925,0.0693 c -40.54894,0.0174 -69.851137,0.0416 -91.995317,0.10392 -51.26448,2.77509 -92.0087,43.86827 -94.17827,95.30786 -0.0994,30.85594 -0.10394,75.30757 -0.10394,144.07091 0,68.77125 0.005,113.21488 0.10387,144.07079 2.19054,51.9366 43.70588,93.3261 95.66824,95.3773 z"
       id="path5906" />
    <path
       inkscape:connector-curvature="0"
       style="opacity:0.2;color:#000000;fill:url(#linearGradient5931);fill-opacity:1;fill-rule:nonzero;stroke:none;stroke-width:1.5;marker:none;visibility:visible;display:inline;overflow:visible;enable-background:accumulate"
       d="m 62.489783,1119.0417 146.604847,-0.2097 149.8542,-0.2447 c 49.8147,-5.2028 88.6006,-46.4472 89.9335,-97.3618 9e-4,-0.035 -9e-4,-0.07 0,-0.1048 9e-4,-0.4205 -8e-4,-0.6575 0,-1.0833 0.043,-21.84214 0.034,-50.72977 0.034,-89.14943 l 0,-154.91926 -69.9483,-69.96355 -69.9832,-69.96354 -155.23483,0.0699 c -40.88755,0.0176 -70.434457,0.0419 -92.763547,0.10478 -51.69258,2.79827 -92.77705,44.23461 -94.96474,96.10376 -0.10025,31.1136 -0.1048,75.93644 -0.1048,145.274 0,69.34555 0.005,114.16031 0.10474,145.27394 2.20883,52.3702 44.07085,94.1054 96.46713,96.1737 z"
       id="path5910" />
    <path
       inkscape:connector-curvature="0"
       style="opacity:0.07999998;color:#000000;fill:url(#linearGradient5933);fill-opacity:1;fill-rule:nonzero;stroke:none;stroke-width:1.5;marker:none;visibility:visible;display:inline;overflow:visible;enable-background:accumulate"
       d="m 64.088893,1127.0416 149.033087,-0.2131 152.33628,-0.2488 c 50.6398,-5.289 90.068,-47.2165 91.423,-98.9744 10e-4,-0.036 -9e-4,-0.071 0,-0.1065 10e-4,-0.4274 -8e-4,-0.6684 0,-1.1013 0.043,-22.2038 0.035,-51.56994 0.035,-90.62595 l 0,-157.48521 -71.1068,-71.12236 -71.1423,-71.12236 -157.80606,0.071 c -41.56477,0.0179 -71.601067,0.0427 -94.299997,0.10653 -52.54877,2.84461 -94.31372,44.96726 -96.53765,97.69553 -0.10192,31.62894 -0.10654,77.19419 -0.10654,147.6802 0,70.49412 0.005,116.05116 0.10648,147.68012 2.24541,53.2376 44.8008,95.664 98.06493,97.7666 z"
       id="path5914" />
  </g>
  <path
     inkscape:connector-curvature="0"
     style="color:#000000;fill:#e4e6d2;fill-opacity:1;fill-rule:nonzero;stroke:none;stroke-width:1.5;marker:none;visibility:visible;display:inline;overflow:visible;enable-background:accumulate"
     d="m 114.3763,492.00004 143.26225,-0.20491 146.43752,-0.23905 c 48.67892,-5.08446 86.58047,-45.3894 87.883,-95.1445 8.9e-4,-0.0342 -8.7e-4,-0.0682 0,-0.10239 8.5e-4,-0.41093 -8.2e-4,-0.64253 0,-1.05868 0.0421,-21.34466 0.0341,-49.5744 0.0341,-87.11908 l 0,-151.39108 -68.35344,-68.37017 -68.38759,-68.37016 -151.69547,0.0683 c -39.95531,0.0172 -68.82855,0.041 -90.64854,0.1024 -50.513983,2.73453 -90.661723,43.22719 -92.799533,93.91506 -0.098,30.40501 -0.10242,74.20703 -0.10242,141.96548 0,67.76624 0.005,111.56038 0.10236,141.96542 2.15846,51.17745 43.06603,91.96213 94.267673,93.98336 z"
     id="rect4121" />
  <g
     transform="translate(-605.51939,-353.9683)"
     id="g4076-9-1">
    <g
       id="g4038-9-8"
       transform="translate(-926.66758,684.38448)">
      <g
         id="g4929">
        <path
           id="rect6809-2-3-8"
           transform="translate(1532.187,-330.41615)"
           d="m 355.25,20 -151.6875,0.0625 c -39.95531,0.0172 -68.83626,0.03235 -90.65625,0.09375 -4.73569,0.256362 -9.37556,0.852632 -13.90625,1.75 -1.51023,0.299123 -3.015922,0.633019 -4.5,1 -2.226117,0.550471 -4.431221,1.176579 -6.59375,1.875 -20.904452,6.751404 -38.687843,20.284416 -50.8125,38.03125 -0.108334,0.158619 -0.236324,0.30946 -0.34375,0.46875 -0.306456,0.454303 -0.607242,0.915291 -0.90625,1.375 -1.617953,2.487519 -3.108135,5.049674 -4.5,7.6875 -2.416204,4.579126 -4.508261,9.398403 -6.1875,14.375 -0.01359,0.04029 -0.01771,0.08469 -0.03125,0.125 -0.481865,1.434239 -0.926843,2.880345 -1.34375,4.34375 -0.208453,0.731702 -0.401853,1.448822 -0.59375,2.1875 -0.02741,0.105607 -0.06668,0.206753 -0.09375,0.3125 -0.162917,0.635705 -0.318229,1.296808 -0.46875,1.9375 -0.175131,0.745444 -0.341847,1.466751 -0.5,2.21875 -0.04199,0.199929 -0.08422,0.393368 -0.125,0.59375 -0.113545,0.556834 -0.208352,1.127218 -0.3125,1.6875 -0.140964,0.75834 -0.282685,1.51677 -0.40625,2.28125 -0.123565,0.76448 -0.237796,1.5421 -0.34375,2.3125 -0.211908,1.54081 -0.391049,3.09301 -0.53125,4.65625 -0.140201,1.56324 -0.245693,3.13475 -0.3125,4.71875 C 19.99575,144.49876 20,188.30405 20,256.0625 c 0,67.67336 -0.0032,111.41246 0.09375,141.8125 1.33e-4,0.0417 -1.33e-4,0.11458 0,0.15625 0.0027,0.0629 -0.0028,0.12467 0,0.1875 0.0075,0.16637 0.02289,0.33385 0.03125,0.5 0.103117,2.10033 0.268283,4.18721 0.5,6.25 0.01417,0.12613 0.04786,0.24901 0.0625,0.375 0.08359,0.71923 0.182346,1.4107 0.28125,2.125 0.09803,0.70307 0.199799,1.39561 0.3125,2.09375 0.0432,0.26966 0.07962,0.54359 0.125,0.8125 0.06179,0.36349 0.121762,0.73165 0.1875,1.09375 0.03935,0.21824 0.08422,0.43852 0.125,0.65625 0.08776,0.46552 0.187003,0.94311 0.28125,1.40625 0.135112,0.66395 0.257917,1.30981 0.40625,1.96875 0.03076,0.13664 0.06243,0.26983 0.09375,0.40625 0.05764,0.25224 0.127935,0.49851 0.1875,0.75 0.128911,0.54185 0.268464,1.08673 0.40625,1.625 0.05292,0.20754 0.102023,0.418 0.15625,0.625 0.151575,0.57628 0.307082,1.14672 0.46875,1.71875 0.220124,0.77886 0.448884,1.57299 0.6875,2.34375 0.715848,2.31229 1.497285,4.57766 2.375,6.8125 0.280689,0.71657 0.57813,1.4481 0.875,2.15625 0.009,0.0214 0.02224,0.0411 0.03125,0.0625 0.2845,0.67727 0.575897,1.33065 0.875,2 0.02851,0.0637 0.0651,0.12391 0.09375,0.1875 0.28142,0.62616 0.549706,1.25597 0.84375,1.875 0.04962,0.10427 0.106275,0.20843 0.15625,0.3125 0.27599,0.5757 0.556957,1.1494 0.84375,1.71875 0.06944,0.13761 0.14868,0.26901 0.21875,0.40625 1.443868,2.82788 3.01751,5.59026 4.71875,8.25 1.27593,1.9948 2.618525,3.92027 4.03125,5.8125 0.470908,0.63074 0.951899,1.25616 1.4375,1.875 0.971202,1.23768 1.971546,2.46771 3,3.65625 C 61.815337,478.79047 88.261556,491.87122 117.875,492 l 2.625,0 C 67.525103,491.60021 25,448.82259 25,395.75 l 0,-269.5 C 25,72.9275 67.9275,30 121.25,30 l 244,0 -10,-10 z M 487,151.75 l 0,244 c 0,50.25665 -38.12758,91.26134 -87.15625,95.8125 l 3.1875,0 c 30.1265,-2.82213 56.21626,-19.11931 72.21875,-42.84375 0.44099,-0.65379 0.88696,-1.30382 1.3125,-1.96875 0.42554,-0.66493 0.84018,-1.35543 1.25,-2.03125 1.22947,-2.02747 2.38524,-4.09784 3.46875,-6.21875 0.36117,-0.70697 0.71805,-1.40816 1.0625,-2.125 0.34445,-0.71684 0.67253,-1.46103 1,-2.1875 1.60228,-3.55458 3.00961,-7.20174 4.1875,-10.96875 0.0255,-0.0819 0.0372,-0.16801 0.0625,-0.25 0.71629,-2.31229 1.35875,-4.67961 1.90625,-7.0625 0.1825,-0.7943 0.33676,-1.57337 0.5,-2.375 0.16324,-0.80163 0.32503,-1.62878 0.46875,-2.4375 0.14372,-0.80872 0.2823,-1.62195 0.40625,-2.4375 0.0398,-0.26208 0.0872,-0.51848 0.125,-0.78125 0.079,-0.55396 0.14894,-1.09929 0.21875,-1.65625 0.025,-0.19753 0.0387,-0.39585 0.0625,-0.59375 0.0742,-0.62299 0.15612,-1.24841 0.21875,-1.875 0.0136,-0.1345 0.0182,-0.27159 0.0312,-0.40625 0.0671,-0.70043 0.13504,-1.38901 0.1875,-2.09375 0.005,-0.0616 -0.005,-0.12589 0,-0.1875 0.0474,-0.65349 0.0903,-1.31169 0.125,-1.96875 0.006,-0.11421 0.0255,-0.22944 0.0312,-0.34375 5.1e-4,-0.0103 -5e-4,-0.021 0,-0.0312 0.0387,-0.76781 0.0726,-1.54004 0.0937,-2.3125 8.9e-4,-0.0342 -8.7e-4,-0.0596 0,-0.0937 1e-4,-0.0483 -4e-5,-0.081 0,-0.125 0.008,-0.31325 -0.005,-0.62352 0,-0.9375 0.0211,-10.67233 0.028,-23.05015 0.0312,-37.46875 0.003,-14.4186 0,-30.88391 0,-49.65625 l 0,-151.375 -5,-5 z"
           style="opacity:0.5;color:#000000;fill:url(#linearGradient4084-8-2);fill-opacity:1;fill-rule:nonzero;stroke:none;stroke-width:1.5;marker:none;visibility:visible;display:inline;overflow:visible;enable-background:accumulate"
           inkscape:connector-curvature="0" />
        <path
           id="path3981-7-8"
           transform="translate(1532.187,-330.41615)"
           d="m 112.90625,20.15625 c -4.73569,0.256362 -9.37556,0.852632 -13.90625,1.75 -1.51023,0.299123 -3.015922,0.633019 -4.5,1 -2.226117,0.550471 -4.431221,1.176579 -6.59375,1.875 -2.162529,0.698421 -4.281752,1.471807 -6.375,2.3125 -9.76849,3.923234 -18.747925,9.359992 -26.65625,16.03125 -5.083924,4.288666 -9.725026,9.084055 -13.84375,14.3125 -1.372908,1.742815 -2.683225,3.539121 -3.9375,5.375 -0.109552,0.160436 -0.235127,0.307628 -0.34375,0.46875 -0.306456,0.454303 -0.607242,0.915291 -0.90625,1.375 -0.808977,1.243759 -1.590452,2.530323 -2.34375,3.8125 -0.166868,0.284301 -0.335918,0.557614 -0.5,0.84375 -0.207159,0.360853 -0.391059,0.730006 -0.59375,1.09375 -0.184795,0.331891 -0.381451,0.665735 -0.5625,1 -0.170654,0.314981 -0.332698,0.620433 -0.5,0.9375 -0.347966,0.659456 -0.697942,1.331675 -1.03125,2 -0.666617,1.33665 -1.29953,2.691638 -1.90625,4.0625 -0.879859,1.988008 -1.719204,4.006876 -2.46875,6.0625 -0.02575,0.07061 -0.03691,0.148066 -0.0625,0.21875 -0.255282,0.70525 -0.51044,1.412248 -0.75,2.125 -0.0063,0.0187 0.0063,0.04379 0,0.0625 -0.478277,1.425001 -0.929585,2.858721 -1.34375,4.3125 -0.01792,0.06293 -0.0447,0.124518 -0.0625,0.1875 -0.188998,0.668565 -0.356058,1.325628 -0.53125,2 -0.02999,0.115391 -0.06417,0.228192 -0.09375,0.34375 -0.160255,0.626112 -0.320519,1.275303 -0.46875,1.90625 -0.14068,0.598804 -0.276512,1.178203 -0.40625,1.78125 -0.05606,0.260594 -0.102244,0.519878 -0.15625,0.78125 -0.01964,0.09505 -0.04314,0.186096 -0.0625,0.28125 -0.11135,0.546937 -0.210215,1.105987 -0.3125,1.65625 -0.04812,0.25885 -0.110151,0.52168 -0.15625,0.78125 -0.0886,0.49905 -0.168912,0.99832 -0.25,1.5 -0.05057,0.31267 -0.108609,0.62383 -0.15625,0.9375 -0.06911,0.45519 -0.124613,0.91774 -0.1875,1.375 -0.105954,0.7704 -0.193117,1.53638 -0.28125,2.3125 -0.08813,0.77612 -0.179899,1.56213 -0.25,2.34375 -0.139283,1.553 -0.245648,3.11401 -0.3125,4.6875 -4.41e-4,0.0104 4.38e-4,0.0209 0,0.0312 -2.7e-5,0.008 2.7e-5,0.0229 0,0.0312 C 19.995828,144.52902 20,188.32263 20,256.0625 c 0,67.69194 -0.0033,111.44271 0.09375,141.84375 1.07e-4,0.0334 -1.07e-4,0.0917 0,0.125 0.0022,0.0524 -0.0023,0.10389 0,0.15625 0.0084,0.18714 0.02184,0.37564 0.03125,0.5625 0.10587,2.14272 0.291576,4.27142 0.53125,6.375 0.0023,0.0206 -0.0024,0.0419 0,0.0625 0.08856,0.77298 0.206258,1.51395 0.3125,2.28125 0.107671,0.77762 0.218135,1.57218 0.34375,2.34375 0.110714,0.67613 0.219415,1.35992 0.34375,2.03125 0.01731,0.0939 0.04493,0.18743 0.0625,0.28125 0.08949,0.47548 0.184986,0.96451 0.28125,1.4375 0.115748,0.56872 0.218291,1.12246 0.34375,1.6875 0.05136,0.2313 0.103277,0.45683 0.15625,0.6875 0.05544,0.24229 0.130278,0.47716 0.1875,0.71875 0.168714,0.71001 0.347315,1.42115 0.53125,2.125 0.01079,0.0414 0.02041,0.0836 0.03125,0.125 0.153969,0.58602 0.304342,1.16838 0.46875,1.75 0.04405,0.15622 0.08021,0.31285 0.125,0.46875 0.179375,0.62283 0.371264,1.2574 0.5625,1.875 0.03482,0.11268 0.05854,0.23125 0.09375,0.34375 0.205574,0.65538 0.437456,1.2882 0.65625,1.9375 0.256854,0.76225 0.50641,1.52761 0.78125,2.28125 0.01464,0.0402 0.01656,0.0848 0.03125,0.125 0.261099,0.71305 0.535514,1.41991 0.8125,2.125 0.277337,0.70739 0.58189,1.42582 0.875,2.125 0.01273,0.0303 0.01849,0.0635 0.03125,0.0937 0.280961,0.66829 0.579817,1.30817 0.875,1.96875 0.126258,0.28202 0.246174,0.56316 0.375,0.84375 0.186593,0.40717 0.370539,0.81463 0.5625,1.21875 0.05022,0.10551 0.105669,0.2072 0.15625,0.3125 0.296257,0.61798 0.597551,1.2331 0.90625,1.84375 0.104796,0.20699 0.206286,0.41886 0.3125,0.625 0.310007,0.60166 0.646774,1.18698 0.96875,1.78125 0.377433,0.69663 0.762605,1.40751 1.15625,2.09375 0.251968,0.43977 0.491461,0.87707 0.75,1.3125 0.144428,0.24294 0.291042,0.47718 0.4375,0.71875 0.409604,0.6756 0.82469,1.33529 1.25,2 0.85062,1.32942 1.744326,2.65318 2.65625,3.9375 0.379219,0.53462 0.766661,1.06718 1.15625,1.59375 0.137991,0.18627 0.266973,0.37725 0.40625,0.5625 0.294429,0.39216 0.606107,0.7687 0.90625,1.15625 0.199718,0.25754 0.39153,0.52578 0.59375,0.78125 0.08327,0.10531 0.166308,0.20754 0.25,0.3125 0.325327,0.4076 0.668339,0.81652 1,1.21875 0.500041,0.60644 0.985773,1.18722 1.5,1.78125 0.514227,0.59403 1.03434,1.19989 1.5625,1.78125 1.056321,1.16272 2.139466,2.29572 3.25,3.40625 1.105203,1.1052 2.218105,2.19849 3.375,3.25 0.0056,0.005 0.02567,-0.005 0.03125,0 1.744081,1.58448 3.550447,3.1057 5.40625,4.5625 16.595324,13.02732 37.53268,20.80712 60.34375,20.90625 0.14694,6.4e-4 0.2904,0 0.4375,0 l 139.3125,-0.21875 145.40625,-0.21875 c 30.1265,-2.8202 56.21626,-19.12761 72.21875,-42.84375 0.44099,-0.65356 0.88696,-1.30404 1.3125,-1.96875 0.29883,-0.46679 0.5839,-0.93407 0.875,-1.40625 0.12249,-0.19908 0.25389,-0.39372 0.375,-0.59375 0.0486,-0.0801 0.0766,-0.16976 0.125,-0.25 0.35959,-0.59664 0.71533,-1.17635 1.0625,-1.78125 0.78772,-1.37249 1.55891,-2.77397 2.28125,-4.1875 0.36117,-0.70677 0.71805,-1.4396 1.0625,-2.15625 0.34445,-0.71665 0.67253,-1.42998 1,-2.15625 0.9824,-2.17882 1.89373,-4.39533 2.71875,-6.65625 0.0158,-0.0433 0.0468,-0.0817 0.0625,-0.125 0.25824,-0.71082 0.4765,-1.43778 0.71875,-2.15625 0.23268,-0.69009 0.46976,-1.36554 0.6875,-2.0625 0.0226,-0.0724 0.0401,-0.14628 0.0625,-0.21875 0.71629,-2.31184 1.35875,-4.67996 1.90625,-7.0625 0.1825,-0.79418 0.33676,-1.57347 0.5,-2.375 0.16324,-0.80153 0.32503,-1.62888 0.46875,-2.4375 0.14372,-0.80862 0.2823,-1.62203 0.40625,-2.4375 0.0414,-0.2723 0.0858,-0.53945 0.125,-0.8125 0.0775,-0.54368 0.15007,-1.07843 0.21875,-1.625 0.0263,-0.20779 0.0375,-0.4168 0.0625,-0.625 0.073,-0.61274 0.15696,-1.22753 0.21875,-1.84375 0.0146,-0.14477 0.0173,-0.29255 0.0312,-0.4375 0.0731,-0.7627 0.1318,-1.51345 0.1875,-2.28125 0.0557,-0.7678 0.11813,-1.53979 0.15625,-2.3125 0.0392,-0.77814 0.0726,-1.56082 0.0937,-2.34375 8.9e-4,-0.0342 -8.7e-4,-0.0596 0,-0.0937 7e-5,-0.0363 -4e-5,-0.06 0,-0.0937 0.008,-0.32368 -0.005,-0.64428 0,-0.96875 0.0211,-10.67233 0.028,-23.05015 0.0312,-37.46875 0.003,-14.4186 0,-30.88391 0,-49.65625 l 0,-151.375 -5,-5 0,234 C 487,439.0725 444.0725,482 390.75,482 l -269.5,0 C 67.9275,482 25,439.0725 25,385.75 l 0,-269.5 c 0,-51.518951 40.071412,-93.32402 90.875,-96.09375 -0.86176,0.0023 -2.12816,-0.0024 -2.96875,0 z"
           style="opacity:0.15;color:#000000;fill:url(#linearGradient4086-12-9);fill-opacity:1;fill-rule:nonzero;stroke:none;stroke-width:1.5;marker:none;visibility:visible;display:inline;overflow:visible;enable-background:accumulate"
           inkscape:connector-curvature="0" />
      </g>
    </g>
  </g>
  <path
     style="fill:#000000;fill-opacity:0.15686275;fill-rule:nonzero;stroke:none"
     d="m 355.24998,20.00003 0,102.5625 c 0,9.77909 4.10646,18.58192 10.6875,24.8125 l 126.0625,126.09375 0,-116.71875 -68.375,-68.375 z"
     id="path6657"
     inkscape:connector-curvature="0"
     sodipodi:nodetypes="csccccc" />
  <path
     id="path24"
     style="fill:#ffffff;fill-opacity:1;fill-rule:nonzero;stroke:none"
     d="m 355.25321,20.00002 0,102.555 c 0,18.88151 15.30349,34.185 34.185,34.185 l 102.555,0 -136.74,-136.74"
     inkscape:connector-curvature="0" />
  <path
     style="fill:#000000;fill-opacity:0.15686275;stroke:none"
     d="M 344.84375 164.59375 C 341.28103 164.59375 338.15755 165.24353 336.3125 166.25 C 335.1996 166.85016 334.53125 167.56495 334.53125 168.34375 C 334.53125 168.47355 334.55855 168.59234 334.59375 168.71875 C 334.61055 168.79955 334.68255 168.887 334.71875 168.96875 C 334.72675 168.98635 334.70975 169.01375 334.71875 169.03125 L 333.53125 235.09375 L 333.03125 261.5625 C 333.01945 261.5421 332.75 261.0625 332.75 261.0625 C 332.747 261.0645 332.31593 261.32375 332.28125 261.34375 L 331.25 259.5625 L 330.78125 259.84375 C 330.6439 259.6056 329.78125 258.09375 329.78125 258.09375 L 329.3125 258.375 C 329.16952 258.12708 328.28125 256.59375 328.28125 256.59375 L 327.8125 256.875 L 326.78125 255.09375 L 326.3125 255.375 C 326.16953 255.12709 325.28125 253.59375 325.28125 253.59375 L 324.8125 253.875 C 324.67516 253.63687 323.8125 252.125 323.8125 252.125 L 323.34375 252.40625 L 322.3125 250.625 L 321.84375 250.90625 C 321.70078 250.65835 320.8125 249.125 320.8125 249.125 L 320.34375 249.40625 C 320.20079 249.15836 319.3125 247.625 319.3125 247.625 L 318.84375 247.875 C 318.70995 247.64299 317.84375 246.15625 317.84375 246.15625 L 317.375 246.4375 C 317.23204 246.18962 316.34375 244.65625 316.34375 244.65625 L 315.875 244.9375 C 315.73204 244.68962 314.84375 243.15625 314.84375 243.15625 L 307.34375 247.46875 L 306.9375 246.78125 L 306.46875 247.0625 C 306.32586 246.81498 305.4375 245.28125 305.4375 245.28125 C 305.4345 245.28325 305.00343 245.5425 304.96875 245.5625 C 304.82587 245.31499 303.9375 243.78125 303.9375 243.78125 L 303.46875 244.0625 L 302.46875 242.3125 L 302 242.59375 C 301.85712 242.34625 300.96875 240.8125 300.96875 240.8125 L 300.5 241.09375 C 300.35712 240.84625 299.46875 239.3125 299.46875 239.3125 L 299 239.59375 C 298.85713 239.34626 297.96875 237.8125 297.96875 237.8125 L 297.5 238.09375 C 297.36276 237.85602 296.5 236.34375 296.5 236.34375 L 296.03125 236.625 C 295.88838 236.37752 295 234.84375 295 234.84375 L 294.53125 235.125 C 294.38838 234.87752 293.5 233.34375 293.5 233.34375 L 293.03125 233.625 C 292.88839 233.37752 292 231.84375 292 231.84375 L 291.53125 232.09375 L 290.53125 230.375 L 290.0625 230.65625 C 289.91964 230.40878 289.03125 228.875 289.03125 228.875 L 288.5625 229.15625 C 288.41965 228.90879 287.53125 227.375 287.53125 227.375 L 280.03125 231.71875 L 279.625 231.03125 L 279.15625 231.3125 C 279.01309 231.06484 278.125 229.53125 278.125 229.53125 C 278.122 229.53325 277.69093 229.7925 277.65625 229.8125 C 277.51309 229.56484 276.625 228.03125 276.625 228.03125 L 276.15625 228.3125 L 275.15625 226.5625 L 274.6875 226.84375 C 274.54435 226.5961 273.65625 225.0625 273.65625 225.0625 L 273.1875 225.34375 C 273.04435 225.09611 272.15625 223.5625 272.15625 223.5625 L 271.6875 223.84375 C 271.54435 223.59611 270.65625 222.0625 270.65625 222.0625 L 270.1875 222.34375 C 270.05 222.10588 269.1875 220.59375 269.1875 220.59375 L 268.71875 220.875 C 268.57561 220.62737 267.6875 219.09375 267.6875 219.09375 L 267.21875 219.375 C 267.07561 219.12738 266.1875 217.59375 266.1875 217.59375 L 265.71875 217.875 C 265.57561 217.62738 264.6875 216.09375 264.6875 216.09375 L 264.21875 216.34375 L 263.21875 214.625 L 262.75 214.90625 C 262.60687 214.65864 261.71875 213.125 261.71875 213.125 L 261.25 213.40625 C 261.10687 213.15864 260.21875 211.625 260.21875 211.625 L 252.71875 215.9375 L 252.3125 215.25 L 251.84375 215.53125 C 251.70086 215.28373 250.8125 213.75 250.8125 213.75 C 250.8095 213.752 250.37843 214.01125 250.34375 214.03125 C 250.20087 213.78374 249.3125 212.25 249.3125 212.25 L 248.84375 212.53125 L 247.84375 210.78125 L 247.375 211.0625 C 247.23212 210.815 246.34375 209.28125 246.34375 209.28125 L 245.875 209.5625 C 245.73212 209.315 244.84375 207.78125 244.84375 207.78125 L 244.375 208.0625 C 244.23213 207.81501 243.34375 206.28125 243.34375 206.28125 L 242.875 206.5625 C 242.73776 206.32477 241.875 204.8125 241.875 204.8125 L 241.40625 205.09375 C 241.26338 204.84627 240.375 203.3125 240.375 203.3125 L 239.90625 203.59375 C 239.76338 203.34627 238.875 201.8125 238.875 201.8125 L 238.40625 202.09375 C 238.26339 201.84627 237.375 200.3125 237.375 200.3125 L 236.90625 200.5625 L 235.90625 198.84375 L 235.4375 199.125 C 235.29464 198.87753 234.40625 197.34375 234.40625 197.34375 L 233.9375 197.625 C 233.79465 197.37754 232.90625 195.84375 232.90625 195.84375 L 225.40625 200.15625 C 225.38595 200.12105 225.03125 199.5 225.03125 199.5 L 225 199.5 C 224.99995 199.50003 224.56718 199.7473 224.5625 199.75 C 224.4231 199.50829 223.53125 198 223.53125 198 L 223.5 198 C 223.49994 198.00003 223.03644 198.24701 223.03125 198.25 L 222.03125 196.5 L 222 196.5 C 221.99995 196.50003 221.56717 196.7473 221.5625 196.75 C 221.42868 196.51796 220.5625 195.03125 220.5625 195.03125 L 220.53125 195.03125 C 220.53121 195.03127 220.09842 195.27856 220.09375 195.28125 C 219.95436 195.03955 219.0625 193.53125 219.0625 193.53125 L 219.03125 193.53125 C 219.03121 193.53127 218.56767 193.77826 218.5625 193.78125 L 217.5625 192.03125 L 217.53125 192.03125 C 217.53122 192.03127 217.09841 192.27856 217.09375 192.28125 C 216.95436 192.03956 216.0625 190.53125 216.0625 190.53125 L 216.03125 190.53125 C 216.03122 190.53127 215.59841 190.77856 215.59375 190.78125 C 215.45994 190.54922 214.59375 189.0625 214.59375 189.0625 L 214.5625 189.0625 C 214.56247 189.06252 214.09891 189.30952 214.09375 189.3125 L 213.09375 187.5625 L 213.0625 187.5625 L 212.625 187.8125 C 212.48562 187.57082 211.59375 186.0625 211.59375 186.0625 L 211.5625 186.0625 C 211.56248 186.06251 211.12964 186.30982 211.125 186.3125 C 210.98562 186.07083 210.09375 184.5625 210.09375 184.5625 L 210.0625 184.5625 C 210.06249 184.56251 209.62964 184.80982 209.625 184.8125 C 209.4912 184.58049 208.625 183.09375 208.625 183.09375 L 208.59375 183.09375 C 208.59374 183.09375 208.13015 183.34078 208.125 183.34375 C 207.98768 183.10564 207.125 181.59375 207.125 181.59375 L 207.09375 181.59375 L 206.625 181.84375 C 206.48768 181.60564 205.625 180.09375 205.625 180.09375 L 205.59375 180.09375 L 123.6875 227.375 L 123.71875 227.4375 L 123.71875 258.90625 L 123.6875 264.5 L 123.71875 264.53125 L 123.6875 353.5 L 125.1875 354.375 L 125.1875 355 C 125.18753 355.00002 126.60694 355.8285 126.6875 355.875 L 126.6875 356.5 C 126.68755 356.50003 128.07952 357.29946 128.15625 357.34375 L 128.15625 357.96875 C 128.15633 357.9688 129.57564 358.79722 129.65625 358.84375 L 129.65625 359.46875 C 129.65636 359.46882 131.07562 360.2972 131.15625 360.34375 L 131.15625 360.96875 C 131.15639 360.96884 132.57559 361.79719 132.65625 361.84375 L 132.65625 362.46875 C 132.65641 362.46885 134.04818 363.26815 134.125 363.3125 L 134.125 363.9375 C 134.12519 363.93762 135.54429 364.76591 135.625 364.8125 L 135.625 365.4375 C 135.62522 365.43764 137.04427 366.26589 137.125 366.3125 L 137.125 366.9375 C 137.12528 366.93765 138.54422 367.76588 138.625 367.8125 L 138.625 368.4375 C 138.62528 368.43766 140.01682 369.23684 140.09375 369.28125 L 140.09375 369.90625 L 141.59375 370.78125 L 141.59375 371.40625 C 141.5941 371.40645 143.0129 372.23458 143.09375 372.28125 L 143.09375 372.90625 C 143.09413 372.90647 144.51288 373.73457 144.59375 373.78125 L 144.59375 374.40625 C 144.59415 374.40649 145.98547 375.20552 146.0625 375.25 L 146.0625 375.875 C 146.06294 375.87525 147.48157 376.70329 147.5625 376.75 L 147.5625 377.375 C 147.56297 377.37528 148.98155 378.20327 149.0625 378.25 L 149.0625 378.875 L 150.5625 379.75 L 150.5625 380.375 C 150.56301 380.3753 151.95412 381.17422 152.03125 381.21875 L 152.03125 381.84375 L 153.53125 382.71875 L 153.53125 383.34375 C 153.53183 383.34409 154.9502 384.17196 155.03125 384.21875 L 155.03125 384.84375 C 155.03186 384.8441 156.45017 385.67195 156.53125 385.71875 L 156.53125 386.34375 C 156.53189 386.34412 157.95014 387.17193 158.03125 387.21875 L 158.03125 387.84375 C 158.0319 387.84413 159.42274 388.6429 159.5 388.6875 L 159.5 389.3125 C 159.5007 389.3129 160.91884 390.14065 161 390.1875 L 161 390.8125 C 161.00073 390.81292 162.41882 391.64064 162.5 391.6875 L 162.5 392.3125 C 162.50076 392.31294 163.91879 393.14062 164 393.1875 L 164 393.8125 C 164.00077 393.81294 165.39139 394.61159 165.46875 394.65625 L 165.46875 395.28125 C 165.46956 395.28172 166.88749 396.10934 166.96875 396.15625 L 166.96875 396.78125 C 166.9696 396.78174 168.38746 397.60933 168.46875 397.65625 L 168.46875 398.28125 L 169.96875 399.15625 L 169.96875 399.78125 C 169.96963 399.78176 171.36003 400.58028 171.4375 400.625 L 171.4375 401.25 L 172.9375 402.125 L 172.9375 402.75 C 172.93846 402.75056 174.35611 403.57802 174.4375 403.625 L 174.4375 404.25 C 174.43849 404.25057 175.85608 405.078 175.9375 405.125 L 175.9375 405.75 C 175.93849 405.75057 177.32868 406.54897 177.40625 406.59375 L 177.40625 407.21875 L 178.90625 408.09375 L 178.90625 408.71875 C 178.90725 408.71937 180.32475 409.54671 180.40625 409.59375 L 180.40625 410.21875 L 181.90625 411.09375 L 181.90625 411.71875 C 181.90725 411.71939 183.29733 412.51767 183.375 412.5625 L 183.375 413.1875 C 183.376 413.18817 184.79343 414.01541 184.875 414.0625 L 184.875 414.6875 L 186.375 415.5625 L 186.375 416.1875 C 186.376 416.1882 187.79337 417.01538 187.875 417.0625 L 187.875 417.6875 C 187.876 417.68821 189.26598 418.48636 189.34375 418.53125 L 189.34375 419.15625 L 189.375 419.15625 C 189.376 419.15697 190.76589 419.95506 190.84375 420 L 190.84375 420.65625 C 190.84475 420.65701 192.26205 421.48409 192.34375 421.53125 L 192.34375 422.15625 C 192.34475 422.15702 193.76202 422.98407 193.84375 423.03125 L 193.84375 423.65625 C 193.84475 423.65704 195.26199 424.48406 195.34375 424.53125 L 195.34375 425.15625 C 195.34475 425.15704 196.7346 425.95504 196.8125 426 L 196.8125 426.625 L 198.3125 427.5 L 198.3125 428.125 C 198.3135 428.12584 199.73067 428.95276 199.8125 429 L 199.8125 429.625 C 199.8135 429.62586 201.23064 430.45275 201.3125 430.5 L 201.3125 431.125 C 201.3135 431.12585 202.70325 431.92373 202.78125 431.96875 L 202.78125 432.59375 C 202.78325 432.59464 204.19934 433.42147 204.28125 433.46875 L 204.28125 434.09375 C 204.28325 434.09466 205.69931 434.92145 205.78125 434.96875 L 205.78125 435.59375 L 207.28125 436.46875 L 207.28125 437.09375 C 207.28325 437.09467 208.6719 437.89242 208.75 437.9375 L 208.75 438.5625 L 210.25 439.4375 L 210.25 440.0625 C 210.252 440.06347 211.66796 440.89014 211.75 440.9375 L 211.75 441.5625 C 211.752 441.56349 213.16793 442.39013 213.25 442.4375 L 213.25 443.0625 L 214.71875 443.90625 L 214.71875 444.53125 C 214.72075 444.53225 216.13663 445.35885 216.21875 445.40625 L 216.21875 446.03125 C 216.22075 446.03225 217.6366 446.85883 217.71875 446.90625 L 217.71875 447.53125 C 217.72075 447.53225 219.13658 448.35882 219.21875 448.40625 L 219.21875 449.03125 C 219.22075 449.03225 220.6092 449.8298 220.6875 449.875 L 220.6875 450.5 C 220.6895 450.501 222.10528 451.32754 222.1875 451.375 L 222.1875 452 L 223.6875 452.875 L 223.6875 453.5 C 223.6895 453.501 225.10522 454.32751 225.1875 454.375 L 225.1875 455 L 226.6875 455.875 L 226.6875 456.5 C 226.6895 456.501 228.07782 457.29848 228.15625 457.34375 L 228.15625 457.96875 C 228.15825 457.96975 229.5739 458.79621 229.65625 458.84375 L 229.65625 459.46875 C 229.65825 459.46975 231.07387 460.2962 231.15625 460.34375 L 231.15625 460.96875 C 231.15825 460.96975 232.57385 461.79618 232.65625 461.84375 L 232.65625 462.46875 C 232.65825 462.46975 234.04647 463.26717 234.125 463.3125 L 234.125 463.9375 C 234.127 463.9385 235.54254 464.7649 235.625 464.8125 L 235.625 465.4375 C 235.627 465.4385 237.04252 466.26489 237.125 466.3125 L 237.125 466.9375 L 238.625 467.8125 L 238.625 468.4375 C 238.627 468.4385 240.01512 469.23586 240.09375 469.28125 L 240.09375 469.90625 C 240.09575 469.90725 241.51119 470.73359 241.59375 470.78125 L 241.59375 471.40625 L 243.09375 472.28125 L 243.09375 472.90625 C 243.09575 472.90725 244.51114 473.73356 244.59375 473.78125 L 244.59375 474.40625 C 244.59575 474.40725 245.98376 475.20455 246.0625 475.25 L 246.0625 475.875 C 246.0645 475.876 247.47984 476.70228 247.5625 476.75 L 247.5625 477.375 C 247.5645 477.376 248.97981 478.20227 249.0625 478.25 L 249.0625 478.875 C 249.0645 478.876 250.47978 479.70225 250.5625 479.75 L 250.5625 480.375 L 252.03125 481.21875 L 252.03125 481.84375 C 252.03325 481.84475 253.44848 482.67097 253.53125 482.71875 L 253.53125 483.34375 L 255.03125 484.21875 L 255.03125 484.84375 C 255.03425 484.84475 256.44843 485.67094 256.53125 485.71875 L 256.53125 486.34375 C 256.53425 486.34475 257.9484 487.17093 258.03125 487.21875 L 258.03125 487.84375 C 258.03425 487.84475 259.42103 488.64192 259.5 488.6875 L 259.5 489.3125 C 259.503 489.3145 260.9171 490.13965 261 490.1875 L 261 490.8125 C 261.003 490.8145 262.41707 491.63963 262.5 491.6875 L 262.5 491.78125 L 404.0625 491.5625 C 452.74142 486.47804 490.66622 446.16135 491.96875 396.40625 C 491.96964 396.37205 491.96788 396.34669 491.96875 396.3125 C 491.9696 395.90157 491.96793 395.66615 491.96875 395.25 C 492.01085 373.90534 492 345.66968 492 308.125 L 492 304.5 C 491.73245 304.19723 491.36591 303.91785 490.90625 303.65625 C 490.83515 303.45755 490.72252 303.2498 490.5625 303.0625 C 490.29676 302.74049 489.91798 302.43225 489.4375 302.15625 C 489.3665 301.95558 489.25528 301.78281 489.09375 301.59375 C 488.82376 301.26659 488.39758 300.93588 487.90625 300.65625 C 487.83505 300.45908 487.7526 300.27967 487.59375 300.09375 C 487.31951 299.76145 486.90852 299.47072 486.40625 299.1875 C 486.33515 298.98928 486.2534 298.78061 486.09375 298.59375 C 485.81952 298.26145 485.40852 297.97072 484.90625 297.6875 C 484.83515 297.48928 484.7534 297.28061 484.59375 297.09375 C 484.32376 296.76659 483.92883 296.46713 483.4375 296.1875 C 483.3664 295.98879 483.25378 295.78105 483.09375 295.59375 C 482.82376 295.26659 482.42883 294.96713 481.9375 294.6875 C 481.8663 294.49032 481.78385 294.31092 481.625 294.125 C 481.35157 293.79368 480.93767 293.50129 480.4375 293.21875 C 480.3664 293.02053 480.28466 292.81186 480.125 292.625 C 479.85077 292.29269 479.43977 292.00197 478.9375 291.71875 C 478.8664 291.52053 478.78465 291.31186 478.625 291.125 C 478.35501 290.79784 477.96008 290.49838 477.46875 290.21875 C 477.39765 290.02004 477.28503 289.8123 477.125 289.625 C 476.85501 289.29784 476.46008 288.99838 475.96875 288.71875 C 475.89755 288.52157 475.8151 288.34217 475.65625 288.15625 C 475.39051 287.83424 474.98049 287.52601 474.5 287.25 C 474.429 287.04932 474.31779 286.84532 474.15625 286.65625 C 473.88202 286.32394 473.47102 286.03322 472.96875 285.75 C 472.89765 285.55177 472.81591 285.34312 472.65625 285.15625 C 472.38626 284.82909 471.99133 284.52963 471.5 284.25 C 471.4289 284.05128 471.31628 283.84356 471.15625 283.65625 C 470.88626 283.32909 470.49133 283.02963 470 282.75 C 469.9288 282.55282 469.84636 282.37343 469.6875 282.1875 C 469.42176 281.86548 469.01174 281.55726 468.53125 281.28125 C 468.46035 281.0718 468.35565 280.88431 468.1875 280.6875 C 467.91327 280.35519 467.50227 280.06448 467 279.78125 C 466.9289 279.58302 466.84716 279.37437 466.6875 279.1875 C 466.41751 278.86034 466.02258 278.56088 465.53125 278.28125 C 465.46015 278.08253 465.34754 277.87481 465.1875 277.6875 C 464.91751 277.36034 464.52259 277.06088 464.03125 276.78125 C 463.96005 276.58406 463.87761 276.40468 463.71875 276.21875 C 463.45301 275.89673 463.04299 275.58851 462.5625 275.3125 C 462.4922 275.1032 462.38691 274.91556 462.21875 274.71875 C 461.94452 274.38644 461.53352 274.09573 461.03125 273.8125 C 460.96015 273.61427 460.87841 273.40562 460.71875 273.21875 C 460.44876 272.89158 460.05384 272.59213 459.5625 272.3125 C 459.4914 272.11378 459.37879 271.90607 459.21875 271.71875 C 458.94876 271.39158 458.55384 271.09213 458.0625 270.8125 C 457.9913 270.61531 457.90887 270.43594 457.75 270.25 C 457.48001 269.92283 457.05384 269.59213 456.5625 269.3125 C 456.4913 269.11531 456.40886 268.93594 456.25 268.75 C 455.97577 268.41769 455.56478 268.12698 455.0625 267.84375 C 454.9914 267.64551 454.90967 267.43688 454.75 267.25 C 454.47577 266.91769 454.06478 266.62698 453.5625 266.34375 C 453.4914 266.14551 453.40967 265.93688 453.25 265.75 C 452.98002 265.42283 452.58509 265.12339 452.09375 264.84375 C 452.02265 264.64502 451.91004 264.43732 451.75 264.25 C 451.48001 263.92283 451.08509 263.62339 450.59375 263.34375 C 450.52255 263.14655 450.44012 262.96719 450.28125 262.78125 C 450.00702 262.44893 449.59603 262.15823 449.09375 261.875 C 449.02265 261.67676 448.94092 261.46813 448.78125 261.28125 C 448.50702 260.94893 448.09603 260.65823 447.59375 260.375 C 447.52265 260.17676 447.44092 259.96813 447.28125 259.78125 C 447.01127 259.45408 446.61634 259.15464 446.125 258.875 C 446.0539 258.67627 445.9413 258.46857 445.78125 258.28125 C 445.51126 257.95408 445.11634 257.65464 444.625 257.375 C 444.5539 257.1778 444.47137 256.99844 444.3125 256.8125 C 444.04677 256.49048 443.63674 256.18227 443.15625 255.90625 C 443.08525 255.70555 442.97406 255.50159 442.8125 255.3125 C 442.53827 254.98018 442.12728 254.68948 441.625 254.40625 C 441.5539 254.208 441.47217 253.99939 441.3125 253.8125 C 441.04252 253.48533 440.64759 253.18589 440.15625 252.90625 C 440.08515 252.70751 439.97255 252.49983 439.8125 252.3125 C 439.54252 251.98533 439.14759 251.68589 438.65625 251.40625 C 438.58505 251.20905 438.50262 251.0297 438.34375 250.84375 C 438.07802 250.52172 437.668 250.21352 437.1875 249.9375 C 437.1172 249.72818 437.01192 249.54058 436.84375 249.34375 C 436.56952 249.01143 436.15853 248.72073 435.65625 248.4375 C 435.58515 248.23925 435.50343 248.03064 435.34375 247.84375 C 435.07377 247.51658 434.67885 247.21714 434.1875 246.9375 C 434.1164 246.73876 434.0038 246.53108 433.84375 246.34375 C 433.57377 246.01657 433.17884 245.71714 432.6875 245.4375 C 432.6164 245.24029 432.53388 245.06095 432.375 244.875 C 432.10927 244.55297 431.69925 244.24477 431.21875 243.96875 C 431.14845 243.75943 431.04317 243.57183 430.875 243.375 C 430.60077 243.04268 430.18978 242.75199 429.6875 242.46875 C 429.6164 242.27049 429.53468 242.06189 429.375 241.875 C 429.10502 241.54782 428.7101 241.24839 428.21875 240.96875 C 428.14765 240.77 428.03506 240.56233 427.875 240.375 C 427.60502 240.04782 427.2101 239.74839 426.71875 239.46875 C 426.64765 239.27154 426.56513 239.09221 426.40625 238.90625 C 426.14078 238.58453 425.72984 238.2758 425.25 238 C 425.1797 237.79067 425.07443 237.60309 424.90625 237.40625 C 424.63202 237.07393 424.22103 236.78324 423.71875 236.5 C 423.64765 236.30174 423.56593 236.09315 423.40625 235.90625 C 423.13627 235.57907 422.74135 235.27964 422.25 235 C 422.1789 234.80125 422.06631 234.59359 421.90625 234.40625 C 421.63627 234.07907 421.24135 233.77964 420.75 233.5 C 420.6789 233.30125 420.56631 233.09359 420.40625 232.90625 C 420.13627 232.57907 419.74135 232.27964 419.25 232 C 419.1789 231.80278 419.09638 231.62346 418.9375 231.4375 C 418.66327 231.10517 418.25229 230.81449 417.75 230.53125 C 417.6789 230.33299 417.59719 230.1244 417.4375 229.9375 C 417.16327 229.60517 416.75228 229.31449 416.25 229.03125 C 416.1789 228.83299 416.09719 228.6244 415.9375 228.4375 C 415.66752 228.11032 415.2726 227.81089 414.78125 227.53125 C 414.71015 227.3325 414.59757 227.12484 414.4375 226.9375 C 414.16752 226.61032 413.7726 226.3109 413.28125 226.03125 C 413.21015 225.83403 413.12763 225.65471 412.96875 225.46875 C 412.69534 225.13741 412.28144 224.84506 411.78125 224.5625 C 411.71015 224.36423 411.62844 224.15566 411.46875 223.96875 C 411.19452 223.63642 410.78354 223.34574 410.28125 223.0625 C 410.21015 222.86423 410.12844 222.65566 409.96875 222.46875 C 409.69877 222.14157 409.30385 221.84215 408.8125 221.5625 C 408.7414 221.36374 408.62882 221.1561 408.46875 220.96875 C 408.19877 220.64157 407.80385 220.34215 407.3125 220.0625 C 407.2414 219.86527 407.15889 219.68597 407 219.5 C 406.73427 219.17796 406.32425 218.86978 405.84375 218.59375 C 405.77345 218.38441 405.66818 218.19685 405.5 218 C 405.22577 217.66767 404.81479 217.37699 404.3125 217.09375 C 404.2414 216.89548 404.1597 216.68691 404 216.5 C 403.73002 216.17282 403.3351 215.8734 402.84375 215.59375 C 402.77265 215.39499 402.66007 215.18735 402.5 215 C 402.23002 214.67282 401.8351 214.3734 401.34375 214.09375 C 401.27265 213.89652 401.19014 213.71722 401.03125 213.53125 C 400.76552 213.20921 400.3555 212.90103 399.875 212.625 C 399.8047 212.41566 399.69944 212.2281 399.53125 212.03125 C 399.25702 211.69892 398.84604 211.40824 398.34375 211.125 C 398.27265 210.92672 398.19095 210.71816 398.03125 210.53125 C 397.76127 210.20406 397.36635 209.90465 396.875 209.625 C 396.8039 209.42623 396.69133 209.2186 396.53125 209.03125 C 396.26127 208.70406 395.86635 208.40465 395.375 208.125 C 395.3039 207.92777 395.22139 207.74847 395.0625 207.5625 C 394.79677 207.24046 394.38676 206.93228 393.90625 206.65625 C 393.83595 206.4469 393.73069 206.25936 393.5625 206.0625 C 393.28828 205.73017 392.87729 205.4395 392.375 205.15625 C 392.3039 204.95797 392.2222 204.74942 392.0625 204.5625 C 391.79252 204.23531 391.39761 203.9359 390.90625 203.65625 C 390.83515 203.45748 390.72257 203.24986 390.5625 203.0625 C 390.29252 202.73531 389.8976 202.4359 389.40625 202.15625 C 389.33515 201.95901 389.25265 201.77973 389.09375 201.59375 C 388.82377 201.26656 388.39761 200.9359 387.90625 200.65625 C 387.83515 200.45901 387.75265 200.27973 387.59375 200.09375 C 387.31953 199.76141 386.90854 199.47075 386.40625 199.1875 C 386.33515 198.98922 386.25345 198.78067 386.09375 198.59375 C 385.81953 198.26141 385.40855 197.97075 384.90625 197.6875 C 384.83515 197.48922 384.75345 197.28067 384.59375 197.09375 C 384.32377 196.76656 383.92886 196.46715 383.4375 196.1875 C 383.3664 195.98872 383.25383 195.78111 383.09375 195.59375 C 382.82378 195.26656 382.42886 194.96715 381.9375 194.6875 C 381.8664 194.49026 381.7839 194.31098 381.625 194.125 C 381.35159 193.79364 380.9377 193.50131 380.4375 193.21875 C 380.3664 193.02046 380.28471 192.81192 380.125 192.625 C 379.85078 192.29266 379.4398 192.002 378.9375 191.71875 C 378.8664 191.52046 378.7847 191.31192 378.625 191.125 C 378.35502 190.79781 377.96011 190.4984 377.46875 190.21875 C 377.39765 190.01997 377.28508 189.81237 377.125 189.625 C 376.85503 189.29781 376.46011 188.9984 375.96875 188.71875 C 375.89765 188.5215 375.81515 188.34224 375.65625 188.15625 C 375.39052 187.8342 374.98051 187.52603 374.5 187.25 C 374.4291 187.04926 374.31784 186.84538 374.15625 186.65625 C 373.88203 186.32391 373.47105 186.03325 372.96875 185.75 C 372.89765 185.55171 372.81596 185.34318 372.65625 185.15625 C 372.38627 184.82905 371.99136 184.52966 371.5 184.25 C 371.4289 184.05122 371.31634 183.84362 371.15625 183.65625 C 370.88628 183.32905 370.49136 183.02966 370 182.75 C 369.9288 182.55275 369.84641 182.37349 369.6875 182.1875 C 369.42177 181.86545 369.01176 181.55729 368.53125 181.28125 C 368.46095 181.07188 368.3557 180.88437 368.1875 180.6875 C 367.91328 180.35516 367.5023 180.0645 367 179.78125 C 366.9289 179.58295 366.84721 179.37443 366.6875 179.1875 C 366.41753 178.8603 366.02261 178.56091 365.53125 178.28125 C 365.46015 178.08246 365.34759 177.87487 365.1875 177.6875 C 364.91753 177.3603 364.52261 177.06091 364.03125 176.78125 C 363.96005 176.584 363.87767 176.40474 363.71875 176.21875 C 363.45303 175.8967 363.04301 175.58854 362.5625 175.3125 C 362.4922 175.10313 362.38696 174.91563 362.21875 174.71875 C 361.94453 174.3864 361.53355 174.09575 361.03125 173.8125 C 360.96015 173.6142 360.87846 173.40569 360.71875 173.21875 C 360.44878 172.89155 360.05386 172.59216 359.5625 172.3125 C 359.4914 172.11371 359.37885 171.90613 359.21875 171.71875 C 358.94878 171.39155 358.55387 171.09216 358.0625 170.8125 C 357.9913 170.61524 357.90892 170.43599 357.75 170.25 C 357.48003 169.9228 357.05387 169.59216 356.5625 169.3125 C 356.4913 169.11524 356.40892 168.936 356.25 168.75 C 355.98021 168.42301 355.58466 168.12326 355.09375 167.84375 C 355.09292 167.84175 355.0633 167.84575 355.0625 167.84375 C 354.9914 167.64544 354.90972 167.43694 354.75 167.25 C 354.2529 166.64752 353.34608 166.12099 352.15625 165.6875 C 350.28288 165.00171 347.69393 164.59375 344.84375 164.59375 z "
     id="path4958" />
  <g
     transform="matrix(1.7795517,0,0,1.7795517,706.79274,155.16701)"
     id="g3377">
    <path
       inkscape:connector-curvature="0"
       id="path39383"
       d="m -188.08361,139.53173 -46.0289,26.57481 0,-53.14961 46.0289,-26.574812 0,53.149612 z"
       style="fill:#364e59;fill-opacity:1;stroke:none"
       sodipodi:nodetypes="ccccc" />
    <path
       inkscape:connector-curvature="0"
       style="fill:#555753;stroke:none"
       d="m -326.17033,42.090778 46.02891,-26.5748 15.34297,26.5748 -46.02891,26.57481 -15.34297,-26.57481 z"
       id="path5471" />
    <path
       inkscape:connector-curvature="0"
       id="path5473"
       d="m -310.82736,50.949048 46.02891,-26.5748 15.34297,26.5748 -46.02891,26.57481 -15.34297,-26.57481 z"
       style="fill:#555753;stroke:none" />
    <path
       inkscape:connector-curvature="0"
       style="fill:#555753;stroke:none"
       d="m -295.48439,59.807318 46.02891,-26.5748 15.34297,26.5748 -46.02891,26.57481 -15.34297,-26.57481 z"
       id="path5475" />
    <path
       inkscape:connector-curvature="0"
       id="path5477"
       d="m -280.14142,68.665578 46.02891,-26.5748 15.34297,26.5748 -46.02891,26.57481 -15.34297,-26.57481 z"
       style="fill:#555753;stroke:none" />
    <path
       inkscape:connector-curvature="0"
       style="fill:#555753;stroke:none"
       d="m -264.79845,77.523858 46.02891,-26.5748 15.34297,26.5748 -46.02891,26.574812 -15.34297,-26.574812 z"
       id="path5479" />
    <path
       inkscape:connector-curvature="0"
       id="path5481"
       d="m -249.45548,86.382118 46.02891,-26.5748 15.34297,26.5748 -46.02891,26.574812 -15.34297,-26.574812 z"
       style="fill:#555753;stroke:none" />
    <path
       inkscape:connector-curvature="0"
       style="fill:#9eabb0;stroke:none"
       d="m -326.16097,42.104808 0,17.6875 -0.014,53.157972 92.0625,53.15625 0.014,-53.15797 -15.34375,-26.562502 0,17.687502 -0.0312,0 -15.3125,-26.562502 0,17.71875 -15.34375,-26.5625 0,17.71875 -15.34375,-26.59375 0,17.71875 -15.34375,-26.5625 0,17.6875 -0.0312,0 -15.3125,-26.53125 z"
       id="path39379"
       sodipodi:nodetypes="cccccccccccccccccc" />
    <path
       inkscape:connector-curvature="0"
       style="fill:#babdb6;stroke:none"
       d="m -203.42657,166.10653 -15.34297,-8.85827 0,-35.43307 15.34297,8.85827 0,35.43307 z"
       id="path5483" />
    <path
       inkscape:connector-curvature="0"
       id="path5485"
       d="m -203.42657,166.10653 15.34297,-8.85827 0,-35.43307 -15.34297,8.85827 0,35.43307 z"
       style="fill:#888a85;stroke:none" />
    <path
       inkscape:connector-curvature="0"
       style="fill:#151819;fill-opacity:1;stroke:none"
       d="m -234.16097,113.01106 45.75,-26.500002 -0.25,3.75 -45.625,25.750002 0.125,-3 z"
       id="path5966" />
    <path
       inkscape:connector-curvature="0"
       style="fill:#eeeeec;stroke:none"
       d="m -218.76954,121.81519 15.34297,-8.85826 15.34296,8.85826 -15.34296,8.85827 -15.34297,-8.85827 z"
       id="path5487"
       sodipodi:nodetypes="ccccc" />
    <g
       id="g40252"
       transform="matrix(1,0,0,0.8047365,38.729682,-298.10609)"
       style="stroke:none">
      <path
         inkscape:connector-curvature="0"
         id="rect40229"
         d="m -246.32813,381.94559 -2,138.91659 0.0625,0 c -0.001,0.0254 0,0.048 0,0.0735 0,1.91814 3.45066,3.47966 7.6875,3.47966 4.23684,0 7.65625,-1.56152 7.65625,-3.47966 0,-0.15171 -0.0208,-0.29449 -0.0625,-0.44108 l -2,-138.54902 -13.34375,0 2,10e-6 z"
         style="fill:url(#linearGradient6011);fill-opacity:1;stroke:none"
         sodipodi:nodetypes="cccssscccc" />
      <path
         transform="matrix(0.75604659,0,0,0.59285187,-58.505003,581.95234)"
         d="m -233.21314,-338.09055 c 0,2.44615 -3.43464,4.42914 -7.67149,4.42914 -4.23684,0 -7.67148,-1.98299 -7.67148,-4.42914 0,-2.44614 3.43464,-4.42913 7.67148,-4.42913 4.23685,0 7.67149,1.98299 7.67149,4.42913 z"
         sodipodi:ry="4.4291339"
         sodipodi:rx="7.6714849"
         sodipodi:cy="-338.09055"
         sodipodi:cx="-240.88463"
         id="path40241"
         style="fill:#eeeeec;fill-opacity:1;stroke:none"
         sodipodi:type="arc" />
      <path
         sodipodi:type="arc"
         style="fill:#888a85;fill-opacity:1;stroke:none"
         id="path5489"
         sodipodi:cx="-240.88463"
         sodipodi:cy="-338.09055"
         sodipodi:rx="7.6714849"
         sodipodi:ry="4.4291339"
         d="m -233.21314,-338.09055 c 0,2.44615 -3.43464,4.42914 -7.67149,4.42914 -4.23684,0 -7.67148,-1.98299 -7.67148,-4.42914 0,-2.44614 3.43464,-4.42913 7.67148,-4.42913 4.23685,0 7.67149,1.98299 7.67149,4.42913 z"
         transform="matrix(0.52141144,0,0,0.40886336,-115.025,520.56247)" />
    </g>
    <path
       inkscape:connector-curvature="0"
       style="fill:none;stroke:#000000;stroke-width:1px;stroke-linecap:butt;stroke-linejoin:miter;stroke-opacity:1"
       d="m -310.82736,50.949048 46.02891,-26.5748"
       id="path5529" />
    <path
       inkscape:connector-curvature="0"
       style="fill:none;stroke:#000000;stroke-width:1px;stroke-linecap:butt;stroke-linejoin:miter;stroke-opacity:1"
       d="m -295.48439,59.807318 46.02891,-26.5748"
       id="path5531" />
    <path
       inkscape:connector-curvature="0"
       style="fill:none;stroke:#000000;stroke-width:1px;stroke-linecap:butt;stroke-linejoin:miter;stroke-opacity:1"
       d="m -280.14142,68.665588 46.02891,-26.57481"
       id="path5533" />
    <path
       inkscape:connector-curvature="0"
       style="fill:none;stroke:#000000;stroke-width:1px;stroke-linecap:butt;stroke-linejoin:miter;stroke-opacity:1"
       d="m -264.03597,77.636058 -0.76248,-0.1122 46.02891,-26.57481"
       id="path5535" />
    <path
       inkscape:connector-curvature="0"
       style="fill:none;stroke:#000000;stroke-width:1px;stroke-linecap:butt;stroke-linejoin:miter;stroke-opacity:1"
       d="m -248.78597,85.886058 38.01643,-21.22047"
       id="path5537"
       sodipodi:nodetypes="cc" />
    <path
       inkscape:connector-curvature="0"
       style="fill:none;stroke:#000000;stroke-width:1px;stroke-linecap:butt;stroke-linejoin:bevel;stroke-opacity:1"
       d="m -325.78597,43.386058 14.95861,25.27953 0,-17.71654 15.34297,26.57481 0,-17.71654 15.34297,26.5748 0,-17.71653 15.34297,26.5748 0,-17.71653 15.34297,26.574802 0,-17.716542 15.34297,26.574812"
       id="path5539" />
    <g
       style="fill:#0084c8;stroke-width:1.25;stroke-miterlimit:4;stroke-dasharray:none"
       id="g5684"
       transform="matrix(0.16,0,0,0.15593414,-323.38527,67.434378)">
      <path
         inkscape:connector-curvature="0"
         id="path5686"
         d="m 184.11564,131.10235 0,53.1496 30.68594,17.71653 0,-53.1496 -30.68594,-17.71653 z"
         style="fill:#0084c8;fill-opacity:1;stroke:none"
         sodipodi:nodetypes="ccccc" />
      <path
         inkscape:connector-curvature="0"
         style="fill:#0084c8;stroke:#ffffff;stroke-width:1.58273935;stroke-linecap:butt;stroke-linejoin:miter;stroke-miterlimit:4;stroke-opacity:1;stroke-dasharray:none"
         d="m 214.80158,148.81888 0,53.1496"
         id="path5688" />
    </g>
    <g
       style="fill:#0084c8;stroke-width:1.25;stroke-miterlimit:4;stroke-dasharray:none"
       id="g5690"
       transform="matrix(0.16,0,0,0.15593414,-328.29501,64.671768)">
      <path
         inkscape:connector-curvature="0"
         id="path5692"
         d="m 184.11564,131.10235 0,53.1496 30.68594,17.71653 0,-53.1496 -30.68594,-17.71653 z"
         style="fill:#0084c8;fill-opacity:1;stroke:none"
         sodipodi:nodetypes="ccccc" />
      <path
         inkscape:connector-curvature="0"
         style="fill:#0084c8;stroke:#ffffff;stroke-width:1.58273935;stroke-linecap:butt;stroke-linejoin:miter;stroke-miterlimit:4;stroke-opacity:1;stroke-dasharray:none"
         d="m 214.80158,148.81888 0,53.1496"
         id="path5694" />
    </g>
    <g
       id="g5794"
       transform="matrix(0.16,0,0,0.15593414,-293.92677,84.251288)"
       style="fill:#0084c8">
      <path
         inkscape:connector-curvature="0"
         id="path5796"
         d="m 184.11564,131.10235 0,53.1496 30.68594,17.71653 0,-53.1496 -30.68594,-17.71653 z"
         style="fill:#0084c8;fill-opacity:1;stroke:none"
         sodipodi:nodetypes="ccccc" />
      <path
         inkscape:connector-curvature="0"
         style="fill:#0084c8;stroke:#ffffff;stroke-width:1.58273935;stroke-linecap:butt;stroke-linejoin:miter;stroke-miterlimit:4;stroke-opacity:1;stroke-dasharray:none"
         d="m 214.80158,148.81888 0,53.1496"
         id="path5798" />
    </g>
    <g
       transform="matrix(0.16,0,0,0.15593414,-298.83652,81.488668)"
       id="g5800"
       style="fill:#0084c8;stroke-width:1.25;stroke-miterlimit:4;stroke-dasharray:none">
      <path
         inkscape:connector-curvature="0"
         sodipodi:nodetypes="ccccc"
         style="fill:#0084c8;fill-opacity:1;stroke:none"
         d="m 184.11564,131.10235 0,53.1496 30.68594,17.71653 0,-53.1496 -30.68594,-17.71653 z"
         id="path5802" />
      <path
         inkscape:connector-curvature="0"
         id="path5804"
         d="m 214.80158,148.81888 0,53.1496"
         style="fill:#0084c8;stroke:#ffffff;stroke-width:1.58273935;stroke-linecap:butt;stroke-linejoin:miter;stroke-miterlimit:4;stroke-opacity:1;stroke-dasharray:none" />
    </g>
    <path
       inkscape:connector-curvature="0"
       sodipodi:nodetypes="ccccc"
       id="path5806"
       d="m -295.48439,131.12366 -10e-6,-28.96137 30.68594,17.26632 0,28.9614 -30.68593,-17.26635 z"
       style="fill:#555753;stroke:none" />
    <path
       inkscape:connector-curvature="0"
       id="path5808"
       d="m -279.94595,111.1069 -0.19548,28.64994"
       style="fill:none;stroke:#000000;stroke-width:0.24999999;stroke-linecap:butt;stroke-linejoin:miter;stroke-miterlimit:4;stroke-opacity:1;stroke-dasharray:none" />
    <path
       inkscape:connector-curvature="0"
       style="fill:none;stroke:#000000;stroke-width:0.24999999;stroke-linecap:butt;stroke-linejoin:miter;stroke-miterlimit:4;stroke-opacity:1;stroke-dasharray:none"
       d="m -279.94595,111.1069 -0.19548,28.64994"
       id="path5810" />
    <path
       inkscape:connector-curvature="0"
       sodipodi:nodetypes="ccccc"
       style="fill:#2e3436;fill-opacity:1;stroke:none"
       d="m -259.65437,139.74688 0,10.62992 6.13719,3.54331 0,-10.62992 -6.13719,-3.54331 z"
       id="path5822" />
    <path
       inkscape:connector-curvature="0"
       sodipodi:nodetypes="ccccc"
       id="path5830"
       d="m -252.15075,141.11123 0,2.12598 -3.98231,2.01348 0.3,-2.01348 3.68231,-2.12598 z"
       style="fill:#555753;fill-opacity:1;stroke:none" />
    <path
       inkscape:connector-curvature="0"
       sodipodi:nodetypes="ccccc"
       id="path5834"
       d="m -252.15075,141.11123 -3.98231,4.07598 -7.21462,-4.25197 3.83231,-4.07598 7.36462,4.25197 z"
       style="fill:#babdb6;stroke:none" />
    <path
       inkscape:connector-curvature="0"
       style="fill:none;stroke:#2e3436;stroke-width:3;stroke-linejoin:bevel;stroke-miterlimit:4;stroke-dasharray:none"
       d="m -201.89532,6.7940276 c -3.20325,0 -5.78125,0.95797 -5.78125,2.125 0,0.14588 0.0165,0.26869 0.0937,0.40625 l -0.96875,53.4062504 -2.5625,1.5 -7.65625,-13.28125 -7.65625,4.4375 -7.6875,-13.3125 -7.6875,4.4375 -7.65625,-13.28125 -7.65625,4.4375 -7.6875,-13.3125 -7.6875,4.4375 -7.65625,-13.28125 -46.03125,26.5625 0.0312,0.0625 -0.0312,70.812502 92.0625,53.15625 15.34375,-8.875 15.34375,8.875 15.34375,-8.875 0,-17.71875 0,-53.125002 -7,-12.125 -1.15625,-64.9062504 c 0.0902,-0.14806 0.15625,-0.27955 0.15625,-0.4375 0,-1.16703 -2.60925,-2.125 -5.8125,-2.125 l 5e-5,0 z"
       id="path5491"
       sodipodi:nodetypes="cscccccccccccccccccccccccscc" />
    <path
       inkscape:connector-curvature="0"
       sodipodi:nodetypes="ccccccccccccccccccc"
       id="path5949"
       d="m -326.16097,42.104808 0,17.6875 -0.014,3.15797 92.0625,53.156252 0.014,-3.15797 -15.34375,-26.562502 0,17.687502 -0.0312,0 -15.3125,-26.562502 0,17.71875 -15.34375,-26.5625 0,17.71875 -15.34375,-26.59375 0,17.71875 -15.34375,-26.5625 0,17.6875 -0.0312,0 -15.3125,-26.53125 -1e-4,0 z"
       style="fill:#2e3436;stroke:none" />
  </g>
  <path
     style="fill:#ffffff;fill-opacity:1"
     d="m 154.12292,96.864052 c -5.61454,0.139055 -11.21496,1.269143 -15.98527,3.338688 -11.40103,4.94622 -20.10937,18.17788 -24.38259,37.13032 -3.03907,13.47873 -2.9656,50.36587 0.10113,64.59868 4.4988,20.87891 15.07707,36.37233 27.82246,40.62078 4.71999,1.57332 5.40162,2.34203 7.3856,8.70084 3.08563,9.88969 5.82458,14.67766 10.21843,17.80636 4.39477,3.12935 13.1114,5.24388 18.46399,4.4516 2.02299,-0.29945 5.0568,-0.55645 6.72797,-0.55645 2.88675,0 3.03517,-0.44609 3.03517,-8.34674 0,-7.39616 -0.30712,-8.29614 -2.5293,-8.29614 -4.73862,0 -8.73664,-2.87212 -10.97723,-7.84088 -1.23598,-2.7409 -2.00594,-5.14272 -1.71992,-5.36215 0.28601,-0.21941 3.2512,-1.9913 6.57621,-3.89513 16.5077,-9.45211 23.88021,-30.6125 23.92731,-68.59499 0.0566,-45.68573 -11.42392,-67.386 -38.69851,-72.945414 -3.21608,-0.655542 -6.59677,-0.892828 -9.96549,-0.809374 z m 68.74675,9.105528 -2.17522,8.95376 c -1.20715,4.92556 -2.59211,10.55979 -3.03517,12.49482 -0.68924,3.00999 -1.40035,3.54104 -5.21039,3.54104 l -4.50217,0 0,8.29614 0,8.29615 3.84455,0 3.84456,0 0,37.18092 c 0,45.39588 0.518,47.10697 14.7206,50.23216 4.08432,0.89874 4.80569,0.89294 10.87605,-0.45526 12.10587,-2.68864 12.79832,-3.30712 12.79832,-11.0784 0,-6.0362 -0.28616,-6.84894 -2.22578,-6.2727 -7.67334,2.27964 -9.46298,2.29553 -11.88778,0.10113 -2.36679,-2.14192 -2.52932,-4.14606 -2.52932,-35.35982 l 0,-33.03284 7.68912,0 7.68911,0 0,-7.53735 0,-7.48677 -7.68911,-0.85996 -7.68912,-0.91056 0,-11.98895 c 0,-6.6082 -0.43339,-12.27465 -0.96113,-12.59597 -0.52773,-0.3213 -3.76922,-0.81436 -7.23384,-1.06232 l -6.32328,-0.45528 z"
     id="path6835"
     inkscape:connector-curvature="0" />
  <path
     style="fill:#7cc040"
     id="path2400"
     d="m 67.563598,302.58837 -9.290522,-8.54245 0.01456,-108.37808 C 58.302205,78.679658 58.337341,77.19756 60.992655,70.100412 66.669276,54.928266 75.202719,49.767403 96.683691,48.515123 109.56665,47.764088 113.55029,48.298182 193.91534,61.551173 l 83.79831,13.819177 0,89.50765 c 0,68.96062 -0.3751,90.74346 -1.63403,94.89114 -2.00588,6.6086 -8.60914,15.48381 -13.73708,18.46344 -2.54208,1.47712 -33.34058,7.16954 -92.09544,17.02181 -48.55185,8.14136 -89.427507,15.04413 -90.834825,15.33945 -1.797634,0.37726 -5.322178,-2.00395 -11.849249,-8.00547 z M 184.48062,272.93641 c 2.88675,0 3.03848,-0.41522 3.03848,-8.31586 0,-7.39617 -0.27634,-8.31587 -2.49852,-8.31587 -4.73861,0 -8.76638,-2.8675 -11.00697,-7.83625 -1.236,-2.7409 -2.01323,-5.16299 -1.72721,-5.38242 0.28602,-0.21942 3.24047,-1.95664 6.56547,-3.86049 16.5077,-9.4521 23.90782,-30.65571 23.95491,-68.6382 0.0566,-45.68571 -11.44652,-67.34359 -38.72111,-72.903011 -8.57625,-1.748114 -18.30395,-0.809998 -25.93643,2.501301 -11.40104,4.94622 -20.08437,18.18582 -24.35759,37.13827 -3.03908,13.47872 -3.00219,50.37505 0.0646,64.60786 4.4988,20.87891 15.11614,36.34997 27.86155,40.59843 4.71997,1.57332 5.37797,2.35187 7.36195,8.71066 3.08564,9.88969 5.84254,14.68821 10.2364,17.81693 4.39477,3.12933 13.09525,5.2154 18.44785,4.42311 2.02298,-0.29945 5.04548,-0.54446 6.71666,-0.54446 z m -28.92521,-47.7263 c -3.90073,-1.94474 -8.58372,-8.74655 -10.21438,-14.8359 -5.33186,-19.91083 -4.88526,-69.20628 0.75468,-83.3019 2.56017,-6.39847 8.47242,-11.49762 13.33104,-11.49762 5.37644,0 12.13798,6.48279 14.65013,14.0462 4.44245,13.37489 5.19096,58.27344 1.28612,77.14477 -3.10481,15.00515 -11.33471,22.66863 -19.80759,18.44445 z m 85.69696,9.28357 c 12.10588,-2.68864 12.79364,-3.28292 12.79364,-11.0542 0,-6.03619 -0.29926,-6.87858 -2.23889,-6.30235 -7.67333,2.27964 -9.46087,2.29473 -11.88566,0.10033 -2.36679,-2.14192 -2.50719,-4.12038 -2.50719,-35.33414 l 0,-33.06515 7.6762,0 7.67619,0 0,-7.51094 0,-7.51094 -7.67619,-0.86847 -7.6762,-0.86844 0,-12.01493 c 0,-6.60821 -0.43177,-12.2778 -0.95951,-12.59913 -0.52774,-0.32128 -3.7942,-0.78706 -7.25882,-1.03502 l -6.29931,-0.45082 -2.19485,8.95553 c -1.20715,4.92556 -2.55738,10.53876 -3.00044,12.4738 -0.68924,3.00999 -1.44897,3.51826 -5.25902,3.51826 l -4.45339,0 0,8.31586 0,8.31586 3.83808,0 3.83808,0 0,37.15251 c 0,45.39589 0.5101,47.13853 14.7127,50.26373 4.0843,0.89873 4.80423,0.86687 10.87458,-0.48132 z"
     inkscape:connector-curvature="0" />
  <path
     style="fill:#016123"
     id="path2398"
     d="m 66.899031,301.36515 -7.316297,-7.39342 0,-109.20007 c 0,-79.17193 0.408284,-110.562799 1.484777,-114.155798 1.894338,-6.322778 8.92379,-14.55517 15.133243,-17.723004 2.655868,-1.354909 8.782927,-2.787532 13.615688,-3.183621 6.498435,-0.532579 8.021365,-0.384182 5.847515,0.569828 -6.327282,2.776782 -11.865614,8.296392 -15.259961,15.208346 l -3.549862,7.228602 -0.358053,118.021297 c -0.196923,64.91171 -0.790667,118.02129 -1.31942,118.02129 -0.528735,0 -4.253682,-3.32705 -8.27763,-7.39345 z m 90.918179,-28.67781 c -6.05078,-1.60866 -12.75296,-8.94787 -15.65749,-17.14567 -1.22249,-3.45041 -2.68081,-7.45902 -3.24064,-8.90801 -0.60922,-1.57676 -3.09078,-3.25557 -6.18064,-4.18131 -11.43899,-3.42722 -22.11309,-18.80815 -26.75035,-38.5462 -3.32997,-14.17366 -3.23723,-57.10383 0.15071,-69.78068 5.18133,-19.38719 15.02711,-31.95596 28.06606,-35.828117 8.40306,-2.495443 13.53619,-2.349371 6.39258,0.181898 -12.03211,4.263439 -20.88484,15.868549 -26.24556,34.405379 -2.67946,9.26541 -2.94013,12.64944 -2.85495,37.06302 0.0808,23.19081 0.46286,28.20641 2.79172,36.65903 5.2463,19.04144 13.13478,29.98242 25.71761,35.66915 5.77721,2.61096 6.77529,3.63139 7.99982,8.17897 2.91412,10.82217 8.70549,18.68103 16.22637,22.01905 2.75735,1.22382 2.93895,1.52839 0.89777,1.50579 -1.40731,-0.0162 -4.69817,-0.59711 -7.31303,-1.2923 z m 60.52645,-38.52388 c -10.08327,-3.53312 -11.6341,-10.7395 -11.6341,-54.06173 0,-29.21583 -0.20745,-32.39549 -2.13812,-32.769 -1.4887,-0.28798 -2.60951,-2.74522 -3.69003,-8.08981 -0.85355,-4.2219 -1.29669,-8.10797 -0.98478,-8.6357 0.31192,-0.52776 1.97244,-0.95952 3.69004,-0.95952 3.01352,0 3.12289,0.3136 3.12289,8.95553 l 0,8.95555 3.76702,0 3.76703,0 0.3909,37.4214 c 0.4339,41.53616 0.75969,43.26925 9.08873,48.34774 3.19441,1.94777 3.5327,2.48254 1.53709,2.42996 -1.4073,-0.0371 -4.51979,-0.75458 -6.91667,-1.59442 z m -58.6381,-12.08174 c 7.21695,-7.53468 9.90246,-21.72573 9.90246,-52.32779 0,-29.29646 -3.49345,-45.98698 -10.67878,-51.01981 -2.60911,-1.82749 -2.57369,-1.88007 1.26603,-1.88007 13.09572,0 17.97806,18.10664 16.73119,62.04913 -0.69333,24.43348 -2.29598,34.07111 -6.8118,40.96313 -2.07668,3.16939 -7.01458,5.73366 -11.04111,5.73366 -2.64439,0 -2.6228,-0.12014 0.63201,-3.51825 z m 83.46586,-5.4373 c 1.4073,-0.60474 4.28587,-1.09951 6.39683,-1.09951 3.27212,0 3.46077,0.16211 1.27936,1.09951 -1.40731,0.60475 -4.28587,1.09952 -6.39683,1.09952 -3.27212,0 -3.46078,-0.16214 -1.27936,-1.09952 z m -33.52258,-88.59594 c 5.59171,-24.46433 4.89916,-22.70869 8.95812,-22.70869 3.24495,0 3.65301,0.38385 3.01234,2.83378 -0.40758,1.55857 -1.70943,7.31571 -2.89302,12.79363 -2.09633,9.70246 -2.24994,9.95984 -5.94367,9.95984 -3.27418,0 -3.7019,-0.39288 -3.13377,-2.87856 z"
     inkscape:connector-curvature="0" />
</svg>
