<?xml version="1.0" encoding="UTF-8" standalone="no"?>
<!-- Created with Inkscape (http://www.inkscape.org/) -->

<svg
   xmlns:dc="http://purl.org/dc/elements/1.1/"
   xmlns:cc="http://creativecommons.org/ns#"
   xmlns:rdf="http://www.w3.org/1999/02/22-rdf-syntax-ns#"
   xmlns:svg="http://www.w3.org/2000/svg"
   xmlns="http://www.w3.org/2000/svg"
   xmlns:xlink="http://www.w3.org/1999/xlink"
   version="1.1"
   width="512"
   height="512"
   id="svg2">
  <defs
     id="defs4">
    <linearGradient
       id="linearGradient3170">
      <stop
         id="stop3172"
         style="stop-color:#cc7110;stop-opacity:1"
         offset="0" />
      <stop
         id="stop3174"
         style="stop-color:#673f0b;stop-opacity:0.78448278"
         offset="1" />
    </linearGradient>
    <linearGradient
       id="linearGradient3938">
      <stop
         id="stop3940"
         style="stop-color:#b1f1ee;stop-opacity:0.93103451"
         offset="0" />
      <stop
         id="stop3942"
         style="stop-color:#132682;stop-opacity:1"
         offset="1" />
    </linearGradient>
    <linearGradient
       x1="64.477501"
       y1="56.3008"
       x2="78.466103"
       y2="48.0854"
       id="XMLID_74_-8-1"
       gradientUnits="userSpaceOnUse">
      <stop
         id="stop155-3-8"
         style="stop-color:#ffffff;stop-opacity:1"
         offset="0" />
      <stop
         id="stop157-94-6"
         style="stop-color:#e6e6e6;stop-opacity:1"
         offset="1" />
    </linearGradient>
    <radialGradient
       cx="558.35437"
       cy="385.4841"
       r="191.6187"
       fx="558.35437"
       fy="385.4841"
       id="radialGradient3867"
       xlink:href="#XMLID_74_-8-1"
       gradientUnits="userSpaceOnUse"
       gradientTransform="matrix(1,0,0,1.0499906,0,-19.270593)" />
    <linearGradient
       x1="200.0508"
       y1="185.0742"
       x2="200.0508"
       y2="217.4595"
       id="SVGID_2_"
       gradientUnits="userSpaceOnUse">
      <stop
         id="stop13"
         style="stop-color:#61b74a;stop-opacity:1"
         offset="0" />
      <stop
         id="stop15"
         style="stop-color:#449934;stop-opacity:1"
         offset="1" />
    </linearGradient>
    <linearGradient
       x1="200.0508"
       y1="185.0742"
       x2="200.0508"
       y2="217.4595"
       id="linearGradient3021"
       xlink:href="#SVGID_2_"
       gradientUnits="userSpaceOnUse"
       gradientTransform="matrix(13.577628,0,0,13.577628,-2026.1619,-2566.7096)" />
    <linearGradient
       x1="19.244999"
       y1="21.030804"
       x2="19.360001"
       y2="44.984001"
       id="linearGradient2460"
       gradientUnits="userSpaceOnUse">
      <stop
         id="stop3602"
         style="stop-color:#fafafa;stop-opacity:1"
         offset="0" />
      <stop
         id="stop3604"
         style="stop-color:#f0f0f0;stop-opacity:1"
         offset="1" />
    </linearGradient>
    <linearGradient
       x1="19.244999"
       y1="21.030804"
       x2="19.360001"
       y2="44.984001"
       id="linearGradient3096"
       xlink:href="#linearGradient2460"
       gradientUnits="userSpaceOnUse"
       gradientTransform="matrix(11.076923,0,0,11.076923,-9.8523013,-20.578025)" />
    <linearGradient
       x1="1012.5133"
       y1="484.41721"
       x2="1006.8082"
       y2="20.625916"
       id="linearGradient4114-2"
       xlink:href="#ButtonShadow-0-1-1-5"
       gradientUnits="userSpaceOnUse"
       gradientTransform="matrix(1.0317796,0,0,1.0317796,-830.86406,592.67791)" />
    <linearGradient
       x1="45.447727"
       y1="92.539597"
       x2="45.447727"
       y2="7.0165396"
       id="ButtonShadow-0-1-1-5"
       gradientUnits="userSpaceOnUse"
       gradientTransform="matrix(1.0058652,0,0,0.994169,100,0)">
      <stop
         id="stop3750-8-9-3-6"
         style="stop-color:#000000;stop-opacity:1"
         offset="0" />
      <stop
         id="stop3752-5-6-4-2"
         style="stop-color:#000000;stop-opacity:0.58823532"
         offset="1" />
    </linearGradient>
    <linearGradient
       x1="1012.5133"
       y1="484.41721"
       x2="1006.8082"
       y2="20.625916"
       id="linearGradient4112-2"
       xlink:href="#ButtonShadow-0-1-1-5"
       gradientUnits="userSpaceOnUse"
       gradientTransform="matrix(1.0402541,0,0,1.0402541,-837.95116,592.51825)" />
    <linearGradient
       x1="45.447727"
       y1="92.539597"
       x2="45.447727"
       y2="7.0165396"
       id="linearGradient5292"
       gradientUnits="userSpaceOnUse"
       gradientTransform="matrix(1.0058652,0,0,0.994169,100,0)">
      <stop
         id="stop5294"
         style="stop-color:#000000;stop-opacity:1"
         offset="0" />
      <stop
         id="stop5296"
         style="stop-color:#000000;stop-opacity:0.58823532"
         offset="1" />
    </linearGradient>
    <linearGradient
       x1="1012.5133"
       y1="484.41721"
       x2="1006.8082"
       y2="20.625916"
       id="linearGradient4110-6"
       xlink:href="#ButtonShadow-0-1-1-5"
       gradientUnits="userSpaceOnUse"
       gradientTransform="matrix(1.023305,0,0,1.023305,-823.77704,592.83757)" />
    <linearGradient
       x1="45.447727"
       y1="92.539597"
       x2="45.447727"
       y2="7.0165396"
       id="linearGradient5299"
       gradientUnits="userSpaceOnUse"
       gradientTransform="matrix(1.0058652,0,0,0.994169,100,0)">
      <stop
         id="stop5301"
         style="stop-color:#000000;stop-opacity:1"
         offset="0" />
      <stop
         id="stop5303"
         style="stop-color:#000000;stop-opacity:0.58823532"
         offset="1" />
    </linearGradient>
    <linearGradient
       x1="1012.5133"
       y1="484.41721"
       x2="1006.8082"
       y2="20.625916"
       id="linearGradient4116-6"
       xlink:href="#ButtonShadow-0-1-1-5"
       gradientUnits="userSpaceOnUse"
       gradientTransform="matrix(1.0148305,0,0,1.0148305,-816.68996,592.99723)" />
    <linearGradient
       x1="45.447727"
       y1="92.539597"
       x2="45.447727"
       y2="7.0165396"
       id="linearGradient5306"
       gradientUnits="userSpaceOnUse"
       gradientTransform="matrix(1.0058652,0,0,0.994169,100,0)">
      <stop
         id="stop5308"
         style="stop-color:#000000;stop-opacity:1"
         offset="0" />
      <stop
         id="stop5310"
         style="stop-color:#000000;stop-opacity:0.58823532"
         offset="1" />
    </linearGradient>
    <linearGradient
       x1="1012.5133"
       y1="484.41721"
       x2="1006.8082"
       y2="20.625916"
       id="linearGradient3372"
       xlink:href="#ButtonShadow-0-1-1-5"
       gradientUnits="userSpaceOnUse"
       gradientTransform="matrix(1.0074153,0,0,1.0074153,-810.48879,593.1369)" />
    <linearGradient
       x1="45.447727"
       y1="92.539597"
       x2="45.447727"
       y2="7.0165396"
       id="linearGradient5313"
       gradientUnits="userSpaceOnUse"
       gradientTransform="matrix(1.0058652,0,0,0.994169,100,0)">
      <stop
         id="stop5315"
         style="stop-color:#000000;stop-opacity:1"
         offset="0" />
      <stop
         id="stop5317"
         style="stop-color:#000000;stop-opacity:0.58823532"
         offset="1" />
    </linearGradient>
    <linearGradient
       x1="1016.1035"
       y1="476.25983"
       x2="1011.9534"
       y2="251.66064"
       id="linearGradient4082"
       xlink:href="#linearGradient4487"
       gradientUnits="userSpaceOnUse"
       gradientTransform="translate(-146.22032,369.08845)" />
    <linearGradient
       id="linearGradient4487">
      <stop
         id="stop4489"
         style="stop-color:#000000;stop-opacity:1"
         offset="0" />
      <stop
         id="stop4491"
         style="stop-color:#000000;stop-opacity:0"
         offset="1" />
    </linearGradient>
    <linearGradient
       id="linearGradient3737">
      <stop
         id="stop3739"
         style="stop-color:#ffffff;stop-opacity:1"
         offset="0" />
      <stop
         id="stop3741"
         style="stop-color:#ffffff;stop-opacity:0"
         offset="1" />
    </linearGradient>
    <linearGradient
       id="linearGradient4046">
      <stop
         id="stop4048"
         style="stop-color:#000000;stop-opacity:1"
         offset="0" />
      <stop
         id="stop4050"
         style="stop-color:#ffffff;stop-opacity:0.2"
         offset="1" />
    </linearGradient>
    <linearGradient
       x1="1012.5133"
       y1="484.41721"
       x2="1006.8082"
       y2="20.625916"
       id="linearGradient5342"
       xlink:href="#ButtonShadow-0-1-1-5"
       gradientUnits="userSpaceOnUse"
       gradientTransform="matrix(1.0074153,0,0,1.0074153,-810.48879,593.1369)" />
    <linearGradient
       x1="1012.5133"
       y1="484.41721"
       x2="1006.8082"
       y2="20.625916"
       id="linearGradient4114-2-6"
       xlink:href="#ButtonShadow-0-1-1-5-9"
       gradientUnits="userSpaceOnUse"
       gradientTransform="matrix(1.0317796,0,0,1.0317796,-830.86406,592.67791)" />
    <linearGradient
       x1="45.447727"
       y1="92.539597"
       x2="45.447727"
       y2="7.0165396"
       id="ButtonShadow-0-1-1-5-9"
       gradientUnits="userSpaceOnUse"
       gradientTransform="matrix(1.0058652,0,0,0.994169,100,0)">
      <stop
         id="stop3750-8-9-3-6-4"
         style="stop-color:#000000;stop-opacity:1"
         offset="0" />
      <stop
         id="stop3752-5-6-4-2-9"
         style="stop-color:#000000;stop-opacity:0.58823532"
         offset="1" />
    </linearGradient>
    <linearGradient
       x1="1012.5133"
       y1="484.41721"
       x2="1006.8082"
       y2="20.625916"
       id="linearGradient4112-2-6"
       xlink:href="#ButtonShadow-0-1-1-5-9"
       gradientUnits="userSpaceOnUse"
       gradientTransform="matrix(1.0402541,0,0,1.0402541,-837.95116,592.51825)" />
    <linearGradient
       x1="45.447727"
       y1="92.539597"
       x2="45.447727"
       y2="7.0165396"
       id="linearGradient5292-5"
       gradientUnits="userSpaceOnUse"
       gradientTransform="matrix(1.0058652,0,0,0.994169,100,0)">
      <stop
         id="stop5294-8"
         style="stop-color:#000000;stop-opacity:1"
         offset="0" />
      <stop
         id="stop5296-4"
         style="stop-color:#000000;stop-opacity:0.58823532"
         offset="1" />
    </linearGradient>
    <linearGradient
       x1="1012.5133"
       y1="484.41721"
       x2="1006.8082"
       y2="20.625916"
       id="linearGradient4110-6-7"
       xlink:href="#ButtonShadow-0-1-1-5-9"
       gradientUnits="userSpaceOnUse"
       gradientTransform="matrix(1.023305,0,0,1.023305,-823.77704,592.83757)" />
    <linearGradient
       x1="45.447727"
       y1="92.539597"
       x2="45.447727"
       y2="7.0165396"
       id="linearGradient5299-2"
       gradientUnits="userSpaceOnUse"
       gradientTransform="matrix(1.0058652,0,0,0.994169,100,0)">
      <stop
         id="stop5301-9"
         style="stop-color:#000000;stop-opacity:1"
         offset="0" />
      <stop
         id="stop5303-1"
         style="stop-color:#000000;stop-opacity:0.58823532"
         offset="1" />
    </linearGradient>
    <linearGradient
       x1="1012.5133"
       y1="484.41721"
       x2="1006.8082"
       y2="20.625916"
       id="linearGradient4116-6-3"
       xlink:href="#ButtonShadow-0-1-1-5-9"
       gradientUnits="userSpaceOnUse"
       gradientTransform="matrix(1.0148305,0,0,1.0148305,-816.68996,592.99723)" />
    <linearGradient
       x1="45.447727"
       y1="92.539597"
       x2="45.447727"
       y2="7.0165396"
       id="linearGradient5306-9"
       gradientUnits="userSpaceOnUse"
       gradientTransform="matrix(1.0058652,0,0,0.994169,100,0)">
      <stop
         id="stop5308-0"
         style="stop-color:#000000;stop-opacity:1"
         offset="0" />
      <stop
         id="stop5310-6"
         style="stop-color:#000000;stop-opacity:0.58823532"
         offset="1" />
    </linearGradient>
    <linearGradient
       x1="1012.5133"
       y1="484.41721"
       x2="1006.8082"
       y2="20.625916"
       id="linearGradient3372-9"
       xlink:href="#ButtonShadow-0-1-1-5-9"
       gradientUnits="userSpaceOnUse"
       gradientTransform="matrix(1.0074153,0,0,1.0074153,-810.48879,593.1369)" />
    <linearGradient
       x1="45.447727"
       y1="92.539597"
       x2="45.447727"
       y2="7.0165396"
       id="linearGradient5313-8"
       gradientUnits="userSpaceOnUse"
       gradientTransform="matrix(1.0058652,0,0,0.994169,100,0)">
      <stop
         id="stop5315-8"
         style="stop-color:#000000;stop-opacity:1"
         offset="0" />
      <stop
         id="stop5317-1"
         style="stop-color:#000000;stop-opacity:0.58823532"
         offset="1" />
    </linearGradient>
    <linearGradient
       x1="1016.1035"
       y1="476.25983"
       x2="1011.9534"
       y2="251.66064"
       id="linearGradient4082-7"
       xlink:href="#linearGradient4487-8"
       gradientUnits="userSpaceOnUse"
       gradientTransform="translate(-146.22032,369.08845)" />
    <linearGradient
       id="linearGradient4487-8">
      <stop
         id="stop4489-0"
         style="stop-color:#000000;stop-opacity:1"
         offset="0" />
      <stop
         id="stop4491-4"
         style="stop-color:#000000;stop-opacity:0"
         offset="1" />
    </linearGradient>
    <linearGradient
       x1="993.43896"
       y1="51.511765"
       x2="988.78552"
       y2="363.73825"
       id="linearGradient4084-7"
       xlink:href="#linearGradient3737-8"
       gradientUnits="userSpaceOnUse"
       gradientTransform="translate(778.59979,-360.55963)" />
    <linearGradient
       id="linearGradient3737-8">
      <stop
         id="stop3739-4"
         style="stop-color:#ffffff;stop-opacity:1"
         offset="0" />
      <stop
         id="stop3741-7"
         style="stop-color:#ffffff;stop-opacity:0"
         offset="1" />
    </linearGradient>
    <linearGradient
       x1="1764.6487"
       y1="155.59685"
       x2="1763.6903"
       y2="-55.941216"
       id="linearGradient4086-1"
       xlink:href="#linearGradient4046-2"
       gradientUnits="userSpaceOnUse" />
    <linearGradient
       id="linearGradient4046-2">
      <stop
         id="stop4048-2"
         style="stop-color:#000000;stop-opacity:1"
         offset="0" />
      <stop
         id="stop4050-7"
         style="stop-color:#ffffff;stop-opacity:0.2"
         offset="1" />
    </linearGradient>
    <linearGradient
       x1="1012.5133"
       y1="484.41721"
       x2="1006.8082"
       y2="20.625916"
       id="linearGradient5342-3"
       xlink:href="#ButtonShadow-0-1-1-5-9"
       gradientUnits="userSpaceOnUse"
       gradientTransform="matrix(1.0074153,0,0,1.0074153,-810.48879,593.1369)" />
    <linearGradient
       id="linearGradient4487-1">
      <stop
         id="stop4489-6"
         style="stop-color:#000000;stop-opacity:1"
         offset="0" />
      <stop
         id="stop4491-0"
         style="stop-color:#000000;stop-opacity:0"
         offset="1" />
    </linearGradient>
    <linearGradient
       x1="993.43896"
       y1="51.511765"
       x2="988.78552"
       y2="363.73825"
       id="linearGradient4084-8"
       xlink:href="#linearGradient3737-9"
       gradientUnits="userSpaceOnUse"
       gradientTransform="translate(778.59979,-360.55963)" />
    <linearGradient
       id="linearGradient3737-9">
      <stop
         id="stop3739-7"
         style="stop-color:#ffffff;stop-opacity:1"
         offset="0" />
      <stop
         id="stop3741-4"
         style="stop-color:#ffffff;stop-opacity:0"
         offset="1" />
    </linearGradient>
    <linearGradient
       x1="1764.6487"
       y1="155.59685"
       x2="1763.6903"
       y2="-55.941216"
       id="linearGradient4086-12"
       xlink:href="#linearGradient4046-3"
       gradientUnits="userSpaceOnUse" />
    <linearGradient
       id="linearGradient4046-3">
      <stop
         id="stop4048-7"
         style="stop-color:#000000;stop-opacity:1"
         offset="0" />
      <stop
         id="stop4050-73"
         style="stop-color:#ffffff;stop-opacity:0.2"
         offset="1" />
    </linearGradient>
    <linearGradient
       id="linearGradient2760">
      <stop
         id="stop2770"
         style="stop-color:#ffffff;stop-opacity:1"
         offset="0" />
      <stop
         id="stop2764"
         style="stop-color:#a9a9a9;stop-opacity:1"
         offset="1" />
    </linearGradient>
    <linearGradient
       id="linearGradient4846">
      <stop
         id="stop4848"
         style="stop-color:#1a1a1a;stop-opacity:1"
         offset="0" />
      <stop
         id="stop4856"
         style="stop-color:#1e1e1e;stop-opacity:1"
         offset="1" />
    </linearGradient>
    <linearGradient
       id="linearGradient4922">
      <stop
         id="stop4924"
         style="stop-color:#1a1a1a;stop-opacity:1"
         offset="0" />
      <stop
         id="stop4926"
         style="stop-color:#636363;stop-opacity:1"
         offset="0.15622118" />
      <stop
         id="stop4928"
         style="stop-color:#b4b4b4;stop-opacity:1"
         offset="0.33151907" />
      <stop
         id="stop4930"
         style="stop-color:#636363;stop-opacity:1"
         offset="0.53579742" />
      <stop
         id="stop4932"
         style="stop-color:#000000;stop-opacity:1"
         offset="1" />
    </linearGradient>
    <linearGradient
       x1="201.33115"
       y1="152.12039"
       x2="166.77547"
       y2="110.85986"
       id="linearGradient4884"
       xlink:href="#linearGradient4888"
       gradientUnits="userSpaceOnUse"
       gradientTransform="matrix(1.2757694,0,0,1.2757694,-135.89444,2.4500392)"
       spreadMethod="reflect" />
    <linearGradient
       id="linearGradient4888">
      <stop
         id="stop4892"
         style="stop-color:#c0821c;stop-opacity:1"
         offset="0" />
      <stop
         id="stop4894"
         style="stop-color:#e4ae48;stop-opacity:1"
         offset="1" />
    </linearGradient>
    <linearGradient
       x1="13.021049"
       y1="160.82593"
       x2="258.22205"
       y2="158.47191"
       id="linearGradient4882"
       xlink:href="#linearGradient4898"
       gradientUnits="userSpaceOnUse" />
    <linearGradient
       id="linearGradient4898">
      <stop
         id="stop4900"
         style="stop-color:#d78617;stop-opacity:1"
         offset="0" />
      <stop
         id="stop4902"
         style="stop-color:#5c1234;stop-opacity:1"
         offset="1" />
    </linearGradient>
    <linearGradient
       x1="45.447727"
       y1="92.539597"
       x2="45.447727"
       y2="7.0165396"
       id="ButtonShadow"
       gradientUnits="userSpaceOnUse"
       gradientTransform="scale(1.0058652,0.994169)">
      <stop
         id="stop3750"
         style="stop-color:#000000;stop-opacity:1"
         offset="0" />
      <stop
         id="stop3752"
         style="stop-color:#000000;stop-opacity:0.58823532"
         offset="1" />
    </linearGradient>
    <filter
       color-interpolation-filters="sRGB"
       id="filter3174">
      <feGaussianBlur
         id="feGaussianBlur3176"
         stdDeviation="1.71" />
    </filter>
    <linearGradient
       id="linearGradient10386">
      <stop
         id="stop10388"
         style="stop-color:#ffffff;stop-opacity:1"
         offset="0" />
      <stop
         id="stop10390"
         style="stop-color:#ffffff;stop-opacity:0"
         offset="1" />
    </linearGradient>
    <linearGradient
       x1="212.86353"
       y1="11.425488"
       x2="214.26566"
       y2="168.28262"
       id="linearGradient8264"
       xlink:href="#linearGradient2760"
       gradientUnits="userSpaceOnUse"
       gradientTransform="matrix(1.8464564,0,0,1.8464564,-123.73343,86.826257)"
       spreadMethod="reflect" />
    <linearGradient
       x1="18.930269"
       y1="6.2951212"
       x2="19.360001"
       y2="36.643665"
       id="linearGradient3157"
       xlink:href="#linearGradient2460"
       gradientUnits="userSpaceOnUse"
       gradientTransform="matrix(12.102564,0,0,12.102564,-34.468255,-46.187105)" />
    <linearGradient
       x1="0"
       y1="0"
       x2="1"
       y2="1"
       id="acyl_gradient"
       xlink:href="#linearGradient4321" />
    <linearGradient
       id="linearGradient4321">
      <stop
         id="stop1"
         style="stop-color:#ee0c0c;stop-opacity:1"
         offset="0" />
      <stop
         id="stop2"
         style="stop-color:#7a0404;stop-opacity:1"
         offset="1" />
    </linearGradient>
    <radialGradient
       cx="94.710419"
       cy="98.692879"
       r="150"
       fx="94.710419"
       fy="98.692879"
       id="radialGradient3928"
       xlink:href="#linearGradient4321"
       gradientUnits="userSpaceOnUse"
       gradientTransform="matrix(2.4249551,-0.00787504,0.00770263,2.3718665,-135.71828,-134.64744)" />
    <radialGradient
       cx="94.710419"
       cy="98.692879"
       r="150"
       fx="94.710419"
       fy="98.692879"
       id="radialGradient3932"
       xlink:href="#linearGradient4321"
       gradientUnits="userSpaceOnUse"
       gradientTransform="matrix(2.4249551,-0.00787504,0.00770263,2.3718665,-135.71828,-134.64744)" />
    <radialGradient
       cx="110.73653"
       cy="112.57468"
       r="150"
       fx="110.73653"
       fy="112.57468"
       id="radialGradient3140"
       xlink:href="#linearGradient3938"
       gradientUnits="userSpaceOnUse"
       gradientTransform="matrix(1.6533901,0.0060994,-0.00539655,1.4623231,-50.506611,-35.439162)" />
    <linearGradient
       x1="-112.34483"
       y1="572.44672"
       x2="-109.97469"
       y2="107.89955"
       id="linearGradient5925"
       xlink:href="#ButtonShadow-0-1-1-5-9-5"
       gradientUnits="userSpaceOnUse"
       gradientTransform="matrix(1.0074417,0,0,1.0074152,261.62679,527.41078)" />
    <linearGradient
       x1="45.447727"
       y1="92.539597"
       x2="45.447727"
       y2="7.0165396"
       id="ButtonShadow-0-1-1-5-9-5"
       gradientUnits="userSpaceOnUse"
       gradientTransform="matrix(1.0058652,0,0,0.994169,100,0)">
      <stop
         id="stop3750-8-9-3-6-4-0"
         style="stop-color:#000000;stop-opacity:1"
         offset="0" />
      <stop
         id="stop3752-5-6-4-2-9-8"
         style="stop-color:#000000;stop-opacity:0.58823532"
         offset="1" />
    </linearGradient>
    <linearGradient
       x1="-112.34483"
       y1="572.44672"
       x2="-109.97469"
       y2="107.89955"
       id="linearGradient5927"
       xlink:href="#ButtonShadow-0-1-1-5-9-5"
       gradientUnits="userSpaceOnUse"
       gradientTransform="matrix(1.0318068,0,0,1.0317796,268.77841,524.78354)" />
    <linearGradient
       x1="45.447727"
       y1="92.539597"
       x2="45.447727"
       y2="7.0165396"
       id="linearGradient3129"
       gradientUnits="userSpaceOnUse"
       gradientTransform="matrix(1.0058652,0,0,0.994169,100,0)">
      <stop
         id="stop3131"
         style="stop-color:#000000;stop-opacity:1"
         offset="0" />
      <stop
         id="stop3133"
         style="stop-color:#000000;stop-opacity:0.58823532"
         offset="1" />
    </linearGradient>
    <linearGradient
       x1="-112.34483"
       y1="572.44672"
       x2="-109.97469"
       y2="107.89955"
       id="linearGradient5929"
       xlink:href="#ButtonShadow-0-1-1-5-9-5"
       gradientUnits="userSpaceOnUse"
       gradientTransform="matrix(1.0148572,0,0,1.0148305,263.80369,526.61118)" />
    <linearGradient
       x1="45.447727"
       y1="92.539597"
       x2="45.447727"
       y2="7.0165396"
       id="linearGradient3136"
       gradientUnits="userSpaceOnUse"
       gradientTransform="matrix(1.0058652,0,0,0.994169,100,0)">
      <stop
         id="stop3138"
         style="stop-color:#000000;stop-opacity:1"
         offset="0" />
      <stop
         id="stop3140"
         style="stop-color:#000000;stop-opacity:0.58823532"
         offset="1" />
    </linearGradient>
    <linearGradient
       x1="-112.34483"
       y1="572.44672"
       x2="-109.97469"
       y2="107.89955"
       id="linearGradient5931"
       xlink:href="#ButtonShadow-0-1-1-5-9-5"
       gradientUnits="userSpaceOnUse"
       gradientTransform="matrix(1.023332,0,0,1.023305,266.29153,525.69736)" />
    <linearGradient
       x1="45.447727"
       y1="92.539597"
       x2="45.447727"
       y2="7.0165396"
       id="linearGradient3143"
       gradientUnits="userSpaceOnUse"
       gradientTransform="matrix(1.0058652,0,0,0.994169,100,0)">
      <stop
         id="stop3145"
         style="stop-color:#000000;stop-opacity:1"
         offset="0" />
      <stop
         id="stop3147"
         style="stop-color:#000000;stop-opacity:0.58823532"
         offset="1" />
    </linearGradient>
    <linearGradient
       x1="-112.34483"
       y1="572.44672"
       x2="-109.97469"
       y2="107.89955"
       id="linearGradient5933"
       xlink:href="#ButtonShadow-0-1-1-5-9-5"
       gradientUnits="userSpaceOnUse"
       gradientTransform="matrix(1.0402816,0,0,1.0402542,271.26626,523.86971)" />
    <linearGradient
       x1="45.447727"
       y1="92.539597"
       x2="45.447727"
       y2="7.0165396"
       id="linearGradient3150"
       gradientUnits="userSpaceOnUse"
       gradientTransform="matrix(1.0058652,0,0,0.994169,100,0)">
      <stop
         id="stop3152"
         style="stop-color:#000000;stop-opacity:1"
         offset="0" />
      <stop
         id="stop3154"
         style="stop-color:#000000;stop-opacity:0.58823532"
         offset="1" />
    </linearGradient>
    <linearGradient
       x1="993.43896"
       y1="51.511765"
       x2="988.78552"
       y2="363.73825"
       id="linearGradient4084-8-2"
       xlink:href="#linearGradient3737-9-0"
       gradientUnits="userSpaceOnUse"
       gradientTransform="translate(-753.58716,-30.14348)" />
    <linearGradient
       id="linearGradient3737-9-0">
      <stop
         id="stop3739-7-5"
         style="stop-color:#ffffff;stop-opacity:1"
         offset="0" />
      <stop
         id="stop3741-4-2"
         style="stop-color:#ffffff;stop-opacity:0"
         offset="1" />
    </linearGradient>
    <linearGradient
       x1="1764.6487"
       y1="155.59685"
       x2="1763.6903"
       y2="-55.941216"
       id="linearGradient4086-12-9"
       xlink:href="#linearGradient4046-3-3"
       gradientUnits="userSpaceOnUse"
       gradientTransform="translate(-1532.187,330.41615)" />
    <linearGradient
       id="linearGradient4046-3-3">
      <stop
         id="stop4048-7-5"
         style="stop-color:#000000;stop-opacity:1"
         offset="0" />
      <stop
         id="stop4050-73-5"
         style="stop-color:#ffffff;stop-opacity:0.2"
         offset="1" />
    </linearGradient>
    <linearGradient
       x1="102.875"
       y1="170.42188"
       x2="153.125"
       y2="170.42188"
       id="linearGradient5071"
       xlink:href="#linearGradient5059"
       gradientUnits="userSpaceOnUse" />
    <linearGradient
       id="linearGradient5059">
      <stop
         id="stop5061"
         style="stop-color:#0b0826;stop-opacity:0.49803922"
         offset="0" />
      <stop
         id="stop5063"
         style="stop-color:#0b0826;stop-opacity:1"
         offset="1" />
    </linearGradient>
    <linearGradient
       x1="102.875"
       y1="170.42188"
       x2="153.125"
       y2="170.42188"
       id="linearGradient3985"
       xlink:href="#linearGradient5059"
       gradientUnits="userSpaceOnUse" />
    <radialGradient
       cx="244.26477"
       cy="286.95432"
       r="62.545898"
       fx="244.26477"
       fy="286.95432"
       id="radialGradient14612"
       xlink:href="#linearGradient3938"
       gradientUnits="userSpaceOnUse"
       gradientTransform="matrix(1,0,0,1.2036395,0,-58.435237)"
       spreadMethod="pad" />
    <linearGradient
       x1="464.315"
       y1="532.26703"
       x2="464.315"
       y2="108.459"
       id="linearGradient3057"
       xlink:href="#SVGID_1_"
       gradientUnits="userSpaceOnUse"
       gradientTransform="matrix(1,0,0,-1,-110.8195,852.7348)" />
    <linearGradient
       x1="464.315"
       y1="532.26703"
       x2="464.315"
       y2="108.459"
       id="SVGID_1_"
       gradientUnits="userSpaceOnUse"
       gradientTransform="matrix(1,0,0,-1,0.14,777.638)">
      <stop
         id="stop13-3"
         style="stop-color:#2a4f84;stop-opacity:1"
         offset="0.1497" />
      <stop
         id="stop15-2"
         style="stop-color:#294e82;stop-opacity:1"
         offset="0.38839999" />
      <stop
         id="stop17"
         style="stop-color:#172e4e;stop-opacity:1"
         offset="1" />
    </linearGradient>
    <linearGradient
       x1="464.315"
       y1="532.26703"
       x2="464.315"
       y2="108.459"
       id="linearGradient3978"
       xlink:href="#SVGID_1_"
       gradientUnits="userSpaceOnUse"
       gradientTransform="matrix(0.37418225,0,0,-0.37418225,-405.65904,338.87187)" />
    <linearGradient
       x1="464.315"
       y1="532.26703"
       x2="464.315"
       y2="108.459"
       id="linearGradient3978-6"
       xlink:href="#SVGID_1_-9"
       gradientUnits="userSpaceOnUse"
       gradientTransform="matrix(0.37418225,0,0,-0.37418225,-405.65904,338.87187)" />
    <linearGradient
       x1="464.315"
       y1="532.26703"
       x2="464.315"
       y2="108.459"
       id="SVGID_1_-9"
       gradientUnits="userSpaceOnUse"
       gradientTransform="matrix(1,0,0,-1,0.14,777.638)">
      <stop
         id="stop13-3-7"
         style="stop-color:#2a4f84;stop-opacity:1"
         offset="0.1497" />
      <stop
         id="stop15-2-3"
         style="stop-color:#294e82;stop-opacity:1"
         offset="0.38839999" />
      <stop
         id="stop17-3"
         style="stop-color:#172e4e;stop-opacity:1"
         offset="1" />
    </linearGradient>
    <linearGradient
       x1="464.315"
       y1="532.26703"
       x2="464.315"
       y2="108.459"
       id="linearGradient3996"
       xlink:href="#SVGID_1_-9"
       gradientUnits="userSpaceOnUse"
       gradientTransform="matrix(0.37418225,0,0,-0.37418225,-14.61107,199.16487)" />
  </defs>
  <metadata
     id="metadata7">
    <rdf:RDF>
      <cc:Work
         rdf:about="">
        <dc:format>image/svg+xml</dc:format>
        <dc:type
           rdf:resource="http://purl.org/dc/dcmitype/StillImage" />
        <dc:title></dc:title>
        <dc:contributor>
          <cc:Agent>
            <dc:title>Brahim Djoudi</dc:title>
          </cc:Agent>
        </dc:contributor>
        <dc:date>20151015</dc:date>
      </cc:Work>
    </rdf:RDF>
  </metadata>
  <g
     transform="translate(0,-540.36218)"
     id="layer1" />
  <g
     transform="matrix(1.1,0,0,0.44444,95.081063,256.39254)"
     id="g2036">
    <g
       transform="matrix(1.0526,0,0,1.2857,-1.2632,-13.429)"
       id="g3712"
       style="opacity:0.4" />
  </g>
  <g
     transform="translate(97.481063,231.28154)"
     id="g3541" />
  <g
     transform="translate(97.481063,231.28154)"
     id="g3536" />
  <g
     transform="translate(-605.51932,-353.96833)"
     id="g4076">
    <g
       transform="translate(-926.66758,684.38448)"
       id="g4038" />
  </g>
  <g
     transform="translate(54.089264,-616.0416)"
     id="g5918">
    <path
       d="m 60.989673,1111.5416 144.328367,-0.2064 147.52725,-0.2409 c 49.0412,-5.1221 87.2248,-45.726 88.537,-95.8499 9e-4,-0.035 -9e-4,-0.069 0,-0.1032 9e-4,-0.414 -8e-4,-0.6473 0,-1.0665 0.042,-21.50295 0.034,-49.94202 0.034,-87.7651 l 0,-152.51368 -68.8621,-68.87715 -68.8965,-68.87715 -152.82436,0.0688 c -40.25265,0.0173 -69.340747,0.0413 -91.323117,0.10316 -50.88989,2.75481 -91.3364,43.54773 -93.49012,94.61146 -0.0987,30.63047 -0.10318,74.7573 -0.10318,143.01819 0,68.26875 0.005,112.38763 0.10312,143.01817 2.17453,51.5569 43.38652,92.644 94.96919,94.6802 z"
       id="path5873"
       style="opacity:0.25;color:#000000;fill:url(#linearGradient5925);fill-opacity:1;fill-rule:nonzero;stroke:none;stroke-width:1.5;marker:none;visibility:visible;display:inline;overflow:visible;enable-background:accumulate" />
    <path
       d="m 63.288833,1123.0416 147.818967,-0.2114 151.09521,-0.2467 c 50.2273,-5.246 89.3343,-46.8319 90.6783,-98.1681 9e-4,-0.035 -9e-4,-0.07 0,-0.1056 9e-4,-0.424 -8e-4,-0.663 0,-1.0924 0.043,-22.0229 0.035,-51.14981 0.035,-89.88764 l 0,-156.20224 -70.5276,-70.54295 -70.5627,-70.54295 -156.52046,0.0705 c -41.22616,0.0177 -71.017757,0.0423 -93.531777,0.10565 -52.12067,2.82144 -93.54538,44.60094 -95.75119,96.89965 -0.10109,31.37127 -0.10567,76.56531 -0.10567,146.47709 0,69.91984 0.005,115.10574 0.10561,146.47699 2.22712,52.804 44.43583,94.8848 97.26603,96.9702 z"
       id="path5902"
       style="opacity:0.1;color:#000000;fill:url(#linearGradient5927);fill-opacity:1;fill-rule:nonzero;stroke:none;stroke-width:1.5;marker:none;visibility:visible;display:inline;overflow:visible;enable-background:accumulate" />
    <path
       d="m 61.689723,1115.0417 145.390727,-0.2079 148.61314,-0.2427 c 49.4022,-5.1598 87.8668,-46.0626 89.1887,-96.5555 9e-4,-0.035 -9e-4,-0.069 0,-0.1039 9e-4,-0.4171 -8e-4,-0.6521 0,-1.0744 0.042,-21.66124 0.034,-50.30964 0.034,-88.41113 l 0,-153.63628 -69.369,-69.38413 -69.4036,-69.38414 -153.94925,0.0693 c -40.54894,0.0174 -69.851137,0.0416 -91.995317,0.10392 -51.26448,2.77509 -92.0087,43.86827 -94.17827,95.30786 -0.0994,30.85594 -0.10394,75.30757 -0.10394,144.07091 0,68.77125 0.005,113.21488 0.10387,144.07079 2.19054,51.9366 43.70588,93.3261 95.66824,95.3773 z"
       id="path5906"
       style="opacity:0.25;color:#000000;fill:url(#linearGradient5929);fill-opacity:1;fill-rule:nonzero;stroke:none;stroke-width:1.5;marker:none;visibility:visible;display:inline;overflow:visible;enable-background:accumulate" />
    <path
       d="m 62.489783,1119.0417 146.604847,-0.2097 149.8542,-0.2447 c 49.8147,-5.2028 88.6006,-46.4472 89.9335,-97.3618 9e-4,-0.035 -9e-4,-0.07 0,-0.1048 9e-4,-0.4205 -8e-4,-0.6575 0,-1.0833 0.043,-21.84214 0.034,-50.72977 0.034,-89.14943 l 0,-154.91926 -69.9483,-69.96355 -69.9832,-69.96354 -155.23483,0.0699 c -40.88755,0.0176 -70.434457,0.0419 -92.763547,0.10478 -51.69258,2.79827 -92.77705,44.23461 -94.96474,96.10376 -0.10025,31.1136 -0.1048,75.93644 -0.1048,145.274 0,69.34555 0.005,114.16031 0.10474,145.27394 2.20883,52.3702 44.07085,94.1054 96.46713,96.1737 z"
       id="path5910"
       style="opacity:0.2;color:#000000;fill:url(#linearGradient5931);fill-opacity:1;fill-rule:nonzero;stroke:none;stroke-width:1.5;marker:none;visibility:visible;display:inline;overflow:visible;enable-background:accumulate" />
    <path
       d="m 64.088893,1127.0416 149.033087,-0.2131 152.33628,-0.2488 c 50.6398,-5.289 90.068,-47.2165 91.423,-98.9744 10e-4,-0.036 -9e-4,-0.071 0,-0.1065 10e-4,-0.4274 -8e-4,-0.6684 0,-1.1013 0.043,-22.2038 0.035,-51.56994 0.035,-90.62595 l 0,-157.48521 -71.1068,-71.12236 -71.1423,-71.12236 -157.80606,0.071 c -41.56477,0.0179 -71.601067,0.0427 -94.299997,0.10653 -52.54877,2.84461 -94.31372,44.96726 -96.53765,97.69553 -0.10192,31.62894 -0.10654,77.19419 -0.10654,147.6802 0,70.49412 0.005,116.05116 0.10648,147.68012 2.24541,53.2376 44.8008,95.664 98.06493,97.7666 z"
       id="path5914"
       style="opacity:0.07999998;color:#000000;fill:url(#linearGradient5933);fill-opacity:1;fill-rule:nonzero;stroke:none;stroke-width:1.5;marker:none;visibility:visible;display:inline;overflow:visible;enable-background:accumulate" />
  </g>
  <path
     d="m 114.3763,492.00004 143.26225,-0.20491 146.43752,-0.23905 c 48.67892,-5.08446 86.58047,-45.3894 87.883,-95.1445 8.9e-4,-0.0342 -8.7e-4,-0.0682 0,-0.10239 8.5e-4,-0.41093 -8.2e-4,-0.64253 0,-1.05868 0.0421,-21.34466 0.0341,-49.5744 0.0341,-87.11908 l 0,-151.39108 -68.35344,-68.37017 -68.38759,-68.37016 -151.69547,0.0683 c -39.95531,0.0172 -68.82855,0.041 -90.64854,0.1024 -50.513983,2.73453 -90.661723,43.22719 -92.799533,93.91506 -0.098,30.40501 -0.10242,74.20703 -0.10242,141.96548 0,67.76624 0.005,111.56038 0.10236,141.96542 2.15846,51.17745 43.06603,91.96213 94.267673,93.98336 z"
     id="rect4121"
     style="color:#000000;fill:url(#linearGradient3978-6);fill-opacity:1;fill-rule:nonzero;stroke:none;stroke-width:1;marker:none;visibility:visible;display:inline;overflow:visible;enable-background:accumulate" />
  <g
     transform="translate(-605.51939,-353.9683)"
     id="g4076-9-1">
    <g
       transform="translate(-926.66758,684.38448)"
       id="g4038-9-8">
      <g
         id="g4929">
        <path
           d="m 355.25,20 -151.6875,0.0625 c -39.95531,0.0172 -68.83626,0.03235 -90.65625,0.09375 -4.73569,0.256362 -9.37556,0.852632 -13.90625,1.75 -1.51023,0.299123 -3.015922,0.633019 -4.5,1 -2.226117,0.550471 -4.431221,1.176579 -6.59375,1.875 -20.904452,6.751404 -38.687843,20.284416 -50.8125,38.03125 -0.108334,0.158619 -0.236324,0.30946 -0.34375,0.46875 -0.306456,0.454303 -0.607242,0.915291 -0.90625,1.375 -1.617953,2.487519 -3.108135,5.049674 -4.5,7.6875 -2.416204,4.579126 -4.508261,9.398403 -6.1875,14.375 -0.01359,0.04029 -0.01771,0.08469 -0.03125,0.125 -0.481865,1.434239 -0.926843,2.880345 -1.34375,4.34375 -0.208453,0.731702 -0.401853,1.448822 -0.59375,2.1875 -0.02741,0.105607 -0.06668,0.206753 -0.09375,0.3125 -0.162917,0.635705 -0.318229,1.296808 -0.46875,1.9375 -0.175131,0.745444 -0.341847,1.466751 -0.5,2.21875 -0.04199,0.199929 -0.08422,0.393368 -0.125,0.59375 -0.113545,0.556834 -0.208352,1.127218 -0.3125,1.6875 -0.140964,0.75834 -0.282685,1.51677 -0.40625,2.28125 -0.123565,0.76448 -0.237796,1.5421 -0.34375,2.3125 -0.211908,1.54081 -0.391049,3.09301 -0.53125,4.65625 -0.140201,1.56324 -0.245693,3.13475 -0.3125,4.71875 C 19.99575,144.49876 20,188.30405 20,256.0625 c 0,67.67336 -0.0032,111.41246 0.09375,141.8125 1.33e-4,0.0417 -1.33e-4,0.11458 0,0.15625 0.0027,0.0629 -0.0028,0.12467 0,0.1875 0.0075,0.16637 0.02289,0.33385 0.03125,0.5 0.103117,2.10033 0.268283,4.18721 0.5,6.25 0.01417,0.12613 0.04786,0.24901 0.0625,0.375 0.08359,0.71923 0.182346,1.4107 0.28125,2.125 0.09803,0.70307 0.199799,1.39561 0.3125,2.09375 0.0432,0.26966 0.07962,0.54359 0.125,0.8125 0.06179,0.36349 0.121762,0.73165 0.1875,1.09375 0.03935,0.21824 0.08422,0.43852 0.125,0.65625 0.08776,0.46552 0.187003,0.94311 0.28125,1.40625 0.135112,0.66395 0.257917,1.30981 0.40625,1.96875 0.03076,0.13664 0.06243,0.26983 0.09375,0.40625 0.05764,0.25224 0.127935,0.49851 0.1875,0.75 0.128911,0.54185 0.268464,1.08673 0.40625,1.625 0.05292,0.20754 0.102023,0.418 0.15625,0.625 0.151575,0.57628 0.307082,1.14672 0.46875,1.71875 0.220124,0.77886 0.448884,1.57299 0.6875,2.34375 0.715848,2.31229 1.497285,4.57766 2.375,6.8125 0.280689,0.71657 0.57813,1.4481 0.875,2.15625 0.009,0.0214 0.02224,0.0411 0.03125,0.0625 0.2845,0.67727 0.575897,1.33065 0.875,2 0.02851,0.0637 0.0651,0.12391 0.09375,0.1875 0.28142,0.62616 0.549706,1.25597 0.84375,1.875 0.04962,0.10427 0.106275,0.20843 0.15625,0.3125 0.27599,0.5757 0.556957,1.1494 0.84375,1.71875 0.06944,0.13761 0.14868,0.26901 0.21875,0.40625 1.443868,2.82788 3.01751,5.59026 4.71875,8.25 1.27593,1.9948 2.618525,3.92027 4.03125,5.8125 0.470908,0.63074 0.951899,1.25616 1.4375,1.875 0.971202,1.23768 1.971546,2.46771 3,3.65625 C 61.815337,478.79047 88.261556,491.87122 117.875,492 l 2.625,0 C 67.525103,491.60021 25,448.82259 25,395.75 l 0,-269.5 C 25,72.9275 67.9275,30 121.25,30 l 244,0 -10,-10 z M 487,151.75 l 0,244 c 0,50.25665 -38.12758,91.26134 -87.15625,95.8125 l 3.1875,0 c 30.1265,-2.82213 56.21626,-19.11931 72.21875,-42.84375 0.44099,-0.65379 0.88696,-1.30382 1.3125,-1.96875 0.42554,-0.66493 0.84018,-1.35543 1.25,-2.03125 1.22947,-2.02747 2.38524,-4.09784 3.46875,-6.21875 0.36117,-0.70697 0.71805,-1.40816 1.0625,-2.125 0.34445,-0.71684 0.67253,-1.46103 1,-2.1875 1.60228,-3.55458 3.00961,-7.20174 4.1875,-10.96875 0.0255,-0.0819 0.0372,-0.16801 0.0625,-0.25 0.71629,-2.31229 1.35875,-4.67961 1.90625,-7.0625 0.1825,-0.7943 0.33676,-1.57337 0.5,-2.375 0.16324,-0.80163 0.32503,-1.62878 0.46875,-2.4375 0.14372,-0.80872 0.2823,-1.62195 0.40625,-2.4375 0.0398,-0.26208 0.0872,-0.51848 0.125,-0.78125 0.079,-0.55396 0.14894,-1.09929 0.21875,-1.65625 0.025,-0.19753 0.0387,-0.39585 0.0625,-0.59375 0.0742,-0.62299 0.15612,-1.24841 0.21875,-1.875 0.0136,-0.1345 0.0182,-0.27159 0.0312,-0.40625 0.0671,-0.70043 0.13504,-1.38901 0.1875,-2.09375 0.005,-0.0616 -0.005,-0.12589 0,-0.1875 0.0474,-0.65349 0.0903,-1.31169 0.125,-1.96875 0.006,-0.11421 0.0255,-0.22944 0.0312,-0.34375 5.1e-4,-0.0103 -5e-4,-0.021 0,-0.0312 0.0387,-0.76781 0.0726,-1.54004 0.0937,-2.3125 8.9e-4,-0.0342 -8.7e-4,-0.0596 0,-0.0937 1e-4,-0.0483 -4e-5,-0.081 0,-0.125 0.008,-0.31325 -0.005,-0.62352 0,-0.9375 0.0211,-10.67233 0.028,-23.05015 0.0312,-37.46875 0.003,-14.4186 0,-30.88391 0,-49.65625 l 0,-151.375 -5,-5 z"
           transform="translate(1532.187,-330.41615)"
           id="rect6809-2-3-8"
           style="opacity:0.5;color:#000000;fill:url(#linearGradient4084-8-2);fill-opacity:1;fill-rule:nonzero;stroke:none;stroke-width:1.5;marker:none;visibility:visible;display:inline;overflow:visible;enable-background:accumulate" />
        <path
           d="m 112.90625,20.15625 c -4.73569,0.256362 -9.37556,0.852632 -13.90625,1.75 -1.51023,0.299123 -3.015922,0.633019 -4.5,1 -2.226117,0.550471 -4.431221,1.176579 -6.59375,1.875 -2.162529,0.698421 -4.281752,1.471807 -6.375,2.3125 -9.76849,3.923234 -18.747925,9.359992 -26.65625,16.03125 -5.083924,4.288666 -9.725026,9.084055 -13.84375,14.3125 -1.372908,1.742815 -2.683225,3.539121 -3.9375,5.375 -0.109552,0.160436 -0.235127,0.307628 -0.34375,0.46875 -0.306456,0.454303 -0.607242,0.915291 -0.90625,1.375 -0.808977,1.243759 -1.590452,2.530323 -2.34375,3.8125 -0.166868,0.284301 -0.335918,0.557614 -0.5,0.84375 -0.207159,0.360853 -0.391059,0.730006 -0.59375,1.09375 -0.184795,0.331891 -0.381451,0.665735 -0.5625,1 -0.170654,0.314981 -0.332698,0.620433 -0.5,0.9375 -0.347966,0.659456 -0.697942,1.331675 -1.03125,2 -0.666617,1.33665 -1.29953,2.691638 -1.90625,4.0625 -0.879859,1.988008 -1.719204,4.006876 -2.46875,6.0625 -0.02575,0.07061 -0.03691,0.148066 -0.0625,0.21875 -0.255282,0.70525 -0.51044,1.412248 -0.75,2.125 -0.0063,0.0187 0.0063,0.04379 0,0.0625 -0.478277,1.425001 -0.929585,2.858721 -1.34375,4.3125 -0.01792,0.06293 -0.0447,0.124518 -0.0625,0.1875 -0.188998,0.668565 -0.356058,1.325628 -0.53125,2 -0.02999,0.115391 -0.06417,0.228192 -0.09375,0.34375 -0.160255,0.626112 -0.320519,1.275303 -0.46875,1.90625 -0.14068,0.598804 -0.276512,1.178203 -0.40625,1.78125 -0.05606,0.260594 -0.102244,0.519878 -0.15625,0.78125 -0.01964,0.09505 -0.04314,0.186096 -0.0625,0.28125 -0.11135,0.546937 -0.210215,1.105987 -0.3125,1.65625 -0.04812,0.25885 -0.110151,0.52168 -0.15625,0.78125 -0.0886,0.49905 -0.168912,0.99832 -0.25,1.5 -0.05057,0.31267 -0.108609,0.62383 -0.15625,0.9375 -0.06911,0.45519 -0.124613,0.91774 -0.1875,1.375 -0.105954,0.7704 -0.193117,1.53638 -0.28125,2.3125 -0.08813,0.77612 -0.179899,1.56213 -0.25,2.34375 -0.139283,1.553 -0.245648,3.11401 -0.3125,4.6875 -4.41e-4,0.0104 4.38e-4,0.0209 0,0.0312 -2.7e-5,0.008 2.7e-5,0.0229 0,0.0312 C 19.995828,144.52902 20,188.32263 20,256.0625 c 0,67.69194 -0.0033,111.44271 0.09375,141.84375 1.07e-4,0.0334 -1.07e-4,0.0917 0,0.125 0.0022,0.0524 -0.0023,0.10389 0,0.15625 0.0084,0.18714 0.02184,0.37564 0.03125,0.5625 0.10587,2.14272 0.291576,4.27142 0.53125,6.375 0.0023,0.0206 -0.0024,0.0419 0,0.0625 0.08856,0.77298 0.206258,1.51395 0.3125,2.28125 0.107671,0.77762 0.218135,1.57218 0.34375,2.34375 0.110714,0.67613 0.219415,1.35992 0.34375,2.03125 0.01731,0.0939 0.04493,0.18743 0.0625,0.28125 0.08949,0.47548 0.184986,0.96451 0.28125,1.4375 0.115748,0.56872 0.218291,1.12246 0.34375,1.6875 0.05136,0.2313 0.103277,0.45683 0.15625,0.6875 0.05544,0.24229 0.130278,0.47716 0.1875,0.71875 0.168714,0.71001 0.347315,1.42115 0.53125,2.125 0.01079,0.0414 0.02041,0.0836 0.03125,0.125 0.153969,0.58602 0.304342,1.16838 0.46875,1.75 0.04405,0.15622 0.08021,0.31285 0.125,0.46875 0.179375,0.62283 0.371264,1.2574 0.5625,1.875 0.03482,0.11268 0.05854,0.23125 0.09375,0.34375 0.205574,0.65538 0.437456,1.2882 0.65625,1.9375 0.256854,0.76225 0.50641,1.52761 0.78125,2.28125 0.01464,0.0402 0.01656,0.0848 0.03125,0.125 0.261099,0.71305 0.535514,1.41991 0.8125,2.125 0.277337,0.70739 0.58189,1.42582 0.875,2.125 0.01273,0.0303 0.01849,0.0635 0.03125,0.0937 0.280961,0.66829 0.579817,1.30817 0.875,1.96875 0.126258,0.28202 0.246174,0.56316 0.375,0.84375 0.186593,0.40717 0.370539,0.81463 0.5625,1.21875 0.05022,0.10551 0.105669,0.2072 0.15625,0.3125 0.296257,0.61798 0.597551,1.2331 0.90625,1.84375 0.104796,0.20699 0.206286,0.41886 0.3125,0.625 0.310007,0.60166 0.646774,1.18698 0.96875,1.78125 0.377433,0.69663 0.762605,1.40751 1.15625,2.09375 0.251968,0.43977 0.491461,0.87707 0.75,1.3125 0.144428,0.24294 0.291042,0.47718 0.4375,0.71875 0.409604,0.6756 0.82469,1.33529 1.25,2 0.85062,1.32942 1.744326,2.65318 2.65625,3.9375 0.379219,0.53462 0.766661,1.06718 1.15625,1.59375 0.137991,0.18627 0.266973,0.37725 0.40625,0.5625 0.294429,0.39216 0.606107,0.7687 0.90625,1.15625 0.199718,0.25754 0.39153,0.52578 0.59375,0.78125 0.08327,0.10531 0.166308,0.20754 0.25,0.3125 0.325327,0.4076 0.668339,0.81652 1,1.21875 0.500041,0.60644 0.985773,1.18722 1.5,1.78125 0.514227,0.59403 1.03434,1.19989 1.5625,1.78125 1.056321,1.16272 2.139466,2.29572 3.25,3.40625 1.105203,1.1052 2.218105,2.19849 3.375,3.25 0.0056,0.005 0.02567,-0.005 0.03125,0 1.744081,1.58448 3.550447,3.1057 5.40625,4.5625 16.595324,13.02732 37.53268,20.80712 60.34375,20.90625 0.14694,6.4e-4 0.2904,0 0.4375,0 l 139.3125,-0.21875 145.40625,-0.21875 c 30.1265,-2.8202 56.21626,-19.12761 72.21875,-42.84375 0.44099,-0.65356 0.88696,-1.30404 1.3125,-1.96875 0.29883,-0.46679 0.5839,-0.93407 0.875,-1.40625 0.12249,-0.19908 0.25389,-0.39372 0.375,-0.59375 0.0486,-0.0801 0.0766,-0.16976 0.125,-0.25 0.35959,-0.59664 0.71533,-1.17635 1.0625,-1.78125 0.78772,-1.37249 1.55891,-2.77397 2.28125,-4.1875 0.36117,-0.70677 0.71805,-1.4396 1.0625,-2.15625 0.34445,-0.71665 0.67253,-1.42998 1,-2.15625 0.9824,-2.17882 1.89373,-4.39533 2.71875,-6.65625 0.0158,-0.0433 0.0468,-0.0817 0.0625,-0.125 0.25824,-0.71082 0.4765,-1.43778 0.71875,-2.15625 0.23268,-0.69009 0.46976,-1.36554 0.6875,-2.0625 0.0226,-0.0724 0.0401,-0.14628 0.0625,-0.21875 0.71629,-2.31184 1.35875,-4.67996 1.90625,-7.0625 0.1825,-0.79418 0.33676,-1.57347 0.5,-2.375 0.16324,-0.80153 0.32503,-1.62888 0.46875,-2.4375 0.14372,-0.80862 0.2823,-1.62203 0.40625,-2.4375 0.0414,-0.2723 0.0858,-0.53945 0.125,-0.8125 0.0775,-0.54368 0.15007,-1.07843 0.21875,-1.625 0.0263,-0.20779 0.0375,-0.4168 0.0625,-0.625 0.073,-0.61274 0.15696,-1.22753 0.21875,-1.84375 0.0146,-0.14477 0.0173,-0.29255 0.0312,-0.4375 0.0731,-0.7627 0.1318,-1.51345 0.1875,-2.28125 0.0557,-0.7678 0.11813,-1.53979 0.15625,-2.3125 0.0392,-0.77814 0.0726,-1.56082 0.0937,-2.34375 8.9e-4,-0.0342 -8.7e-4,-0.0596 0,-0.0937 7e-5,-0.0363 -4e-5,-0.06 0,-0.0937 0.008,-0.32368 -0.005,-0.64428 0,-0.96875 0.0211,-10.67233 0.028,-23.05015 0.0312,-37.46875 0.003,-14.4186 0,-30.88391 0,-49.65625 l 0,-151.375 -5,-5 0,234 C 487,439.0725 444.0725,482 390.75,482 l -269.5,0 C 67.9275,482 25,439.0725 25,385.75 l 0,-269.5 c 0,-51.518951 40.071412,-93.32402 90.875,-96.09375 -0.86176,0.0023 -2.12816,-0.0024 -2.96875,0 z"
           transform="translate(1532.187,-330.41615)"
           id="path3981-7-8"
           style="opacity:0.15;color:#000000;fill:url(#linearGradient4086-12-9);fill-opacity:1;fill-rule:nonzero;stroke:none;stroke-width:1.5;marker:none;visibility:visible;display:inline;overflow:visible;enable-background:accumulate" />
      </g>
    </g>
  </g>
  <path
     d="m 355.24998,20.00003 0,102.5625 c 0,9.77909 4.10646,18.58192 10.6875,24.8125 l 126.0625,126.09375 0,-116.71875 -68.375,-68.375 z"
     id="path6657"
     style="fill:#000000;fill-opacity:0.47058824;fill-rule:nonzero;stroke:none" />
  <path
     d="m 355.25321,20.00002 0,102.555 c 0,18.88151 15.30349,34.185 34.185,34.185 l 102.555,0 -136.74,-136.74"
     id="path24"
     style="color:#000000;fill:#ffffff;fill-opacity:1;fill-rule:nonzero;stroke:none;stroke-width:0.58437365;marker:none;visibility:visible;display:inline;overflow:visible;enable-background:accumulate" />
  <path
     d="m 139.46875,219.375 0,0.0937 0,4.46875 c -0.86749,-0.97643 -1.73737,-1.93581 -4.28125,-4.46875 l -12.125,0 0,0.0312 c -1.62732,-0.009 -3.10332,-0.0342 -4.28125,-0.0312 -5.09674,-0.0445 -9.35248,2.75259 -13.0625,5.65625 -4.0494,3.18054 -7.507874,7.34553 -8.59375,12.90625 -0.618898,3.261 -0.5,6.08998 -0.5,8.9375 l 0,22.4375 c 0,7.92331 -2.938614,13.83417 -6.9375,17.6875 -2.252577,2.23125 -7.062576,4.25202 -12.53125,6.09375 l 0,10.15625 c 10.164233,10.72534 11.304868,12.17278 19.46875,21.59375 l 0,26.21875 c 0,8.22264 1.859092,14.58013 7.15625,19.09375 0.011,0.009 0.0203,0.022 0.0312,0.0312 42.82841,42.0355 84.03319,82.92861 122.75,121.5625 l 31.0625,-0.0625 146.4375,-0.21875 c 48.67892,-5.08446 86.60372,-45.40115 87.90625,-95.15625 8.9e-4,-0.0342 -8.7e-4,-0.0596 0,-0.0937 8.5e-4,-0.41093 -8.2e-4,-0.64635 0,-1.0625 0.0411,-20.84765 0.0316,-48.56446 0.0312,-84.8125 -23.32847,-23.64633 -49.31236,-50.05558 -84.09375,-85.3125 -3.71301,-2.90066 -8.00001,-5.69775 -13.09375,-5.65625 -1.65426,-0.003 -3.19389,0.0231 -5.03125,0.0312 -1.83736,0.008 -3.97246,-0.001 -6.8125,-0.0312 l 0,12.25 c 6.41668,5.62111 8.43713,7.69307 12.34375,12.03125 0.36411,1.64098 0.59375,3.44638 0.59375,5.46875 l 0,19.40625 c 0,6.24248 0.0602,11.19754 1.75,14.875 1.37148,2.95455 3.37091,5.64035 6,8.0625 0.0109,0.01 0.0204,0.0213 0.0312,0.0312 10.55977,1.07268 14.46484,7.28248 6.09375,9.15625 -0.004,-0.0619 0.004,-0.12589 0,-0.1875 -14.0155,-13.85884 -19.3482,-19.30137 -28.34375,-28.34375 -3.4335,-1.69542 -7.83782,-4.77848 -13.1875,-6.03125 -5.3553,-1.24977 -10.24221,-1.875 -14.6875,-1.875 -8.98561,0 -16.13534,3.83035 -21.4375,8.28125 -3.31385,2.78579 -5.59651,6.20312 -6.84375,10.21875 -0.0731,0.23551 -0.12149,0.47902 -0.1875,0.71875 -4.53523,-4.72324 -7.82434,-8.28246 -10.78125,-11.3125 -3.43611,-1.69542 -7.83183,-4.77848 -13.1875,-6.03125 -5.34369,-1.24977 -10.24521,-1.875 -14.6875,-1.875 -8.98562,0 -16.10708,3.83035 -21.40625,8.28125 -5.30777,4.45726 -7.96875,10.49186 -7.96875,18.09375 0,1.1812 0.0562,2.33147 0.21875,3.4375 -6.51765,-6.27592 -13.26455,-13.45912 -19.15625,-19.1875 -2.72854,-2.80262 -6.02037,-4.993 -9.90625,-6.59375 -3.89187,-1.59776 -8.27821,-4.03125 -13.125,-4.03125 -1.07954,0 -2.12883,0.087 -3.15625,0.25 -0.34247,0.0543 -0.69455,0.11821 -1.03125,0.1875 -0.6734,0.13858 -1.31838,0.31113 -1.96875,0.5 -0.65037,0.18887 -1.31009,0.39851 -1.9375,0.625 -0.70417,0.2542 -1.38716,0.52785 -2.0625,0.8125 -17.59873,-17.35889 -24.26868,-24.21945 -45.125,-45.21875 -1.91918,-2.09467 -5.25425,-2.0625 -10,-2.0625 l -9.25,0 -1.09375,-0.0312 z"
     id="path4256"
     style="fill:#000000;fill-opacity:0.47058824;stroke:none" />
  <path
     d="m 362.65632,296.68813 c 13.43652,4.70085 20.15196,12.75512 20.15196,24.15084 0,7.50086 -2.78503,13.45447 -8.34276,17.85785 -5.55212,4.40637 -13.47244,7.14089 -23.7819,7.14089 -10.30947,0 -19.84551,-2.98709 -28.62869,-7.89075 0.095,-2.60057 0.78242,-5.45371 2.04416,-8.55082 1.26174,-3.0971 2.7551,-5.55772 4.46624,-7.35492 8.07223,4.19496 15.09676,6.29599 21.05935,6.29599 2.81797,0 4.99833,-0.47297 6.51601,-1.42526 1.5203,-0.94893 2.27615,-2.22264 2.27615,-3.82302 0,-3.00805 -2.32966,-5.25764 -6.97401,-6.75698 l -8.34277,-3.15099 c -12.62116,-4.59983 -18.93212,-12.0947 -18.93212,-22.50557 0,-7.60189 2.65108,-13.62697 7.95324,-18.08423 5.30216,-4.4509 12.44867,-8.28327 21.43428,-8.28327 4.44529,0 9.33959,0.62488 14.69489,1.87465 5.34968,1.25277 9.74445,4.33827 13.17795,6.03369 0.20243,2.80263 -0.35996,5.87915 -1.66586,9.22921 -1.31525,3.35304 -2.9276,5.72723 -4.85277,7.12892 -8.48832,-3.80244 -15.55176,-5.70366 -21.21089,-5.70366 -2.0262,0 -3.55249,0.44939 -4.62377,1.35379 -1.05931,0.90178 -1.58018,2.04977 -1.58018,3.45146 0,2.40112 1.91619,4.29935 5.75717,5.70066 l 9.40432,3.31152 z"
     id="path21"
     style="fill:#f6f6f6;stroke:none" />
  <path
     d="m 295.54487,296.68813 c 13.43651,4.70085 20.14896,12.75512 20.14896,24.15084 0,7.50086 -2.78504,13.45447 -8.33378,17.85785 -5.55773,4.40637 -13.48104,7.14089 -23.78752,7.14089 -10.30049,0 -19.8485,-2.98709 -28.62868,-7.89075 0.095,-2.60057 0.78241,-5.45371 2.04678,-8.55082 1.26174,-3.0971 2.74911,-5.55772 4.46623,-7.35492 8.08122,4.19496 15.10275,6.29599 21.06235,6.29599 2.82058,0 5.00132,-0.47297 6.51302,-1.42526 1.51469,-0.94893 2.27615,-2.22264 2.27615,-3.82302 0,-3.00805 -2.32966,-5.25764 -6.97401,-6.75698 l -8.33716,-3.15099 c -12.62416,-4.59983 -18.93774,-12.0947 -18.93774,-22.50557 0,-7.60189 2.65109,-13.62697 7.95886,-18.08423 5.29917,-4.4509 12.44268,-8.28327 21.4283,-8.28327 4.44229,0 9.34857,0.62488 14.69226,1.87465 5.35567,1.25277 9.74446,4.33827 13.18057,6.03369 0.20243,2.80263 -0.35996,5.87915 -1.66586,9.22921 -1.31225,3.35304 -2.9276,5.72723 -4.84977,7.12892 -8.4917,-3.80244 -15.55513,-5.70366 -21.21689,-5.70366 -2.0232,0 -3.55548,0.44939 -4.62077,1.35379 -1.05632,0.90178 -1.58279,2.04977 -1.58279,3.45146 0,2.40112 1.9188,4.29935 5.76016,5.70066 l 9.40133,3.31152 z"
     id="path23"
     style="fill:#f6f6f6;stroke:none" />
  <path
     d="m 246.6037,297.74706 c 0,-4.59982 -0.7319,-8.85165 -2.1957,-12.7555 -1.46081,-3.90347 -3.55847,-7.2509 -6.28402,-10.05353 -2.72854,-2.80262 -6.03406,-5.00169 -9.91994,-6.60244 -3.89187,-1.59776 -8.2597,-4.00787 -13.10649,-4.00787 -5.75754,0 -10.78243,2.60656 -15.0728,4.6088 -4.29038,1.99963 -7.82528,4.74875 -10.60134,8.25072 -2.78204,3.50459 -4.85277,7.62883 -6.21554,12.3802 -1.36277,4.75174 -2.04416,9.92855 -2.04416,15.52819 0,5.79608 0.55342,11.15736 1.66624,16.05765 1.10982,4.89431 3.00468,9.14315 5.68008,12.74952 2.67765,3.6 6.16166,6.40001 10.45503,8.39627 4.29337,1.99963 9.6221,3.5349 15.98357,3.5349 11.71378,0 21.60977,-3.39196 29.69061,-9.08963 -0.80037,-5.79609 -2.86511,-10.40489 -6.18261,-13.80583 -4.12686,1.54986 -7.77775,2.65968 -10.94333,3.34144 -3.16858,0.67278 -5.9626,1.01179 -8.37533,1.01179 -4.82919,0 -8.30422,-1.22881 -10.41349,-3.71001 -2.10702,-2.4726 -3.26287,-5.39721 -3.46754,-9.8395 h 39.38829 c 1.30103,-4.20693 1.95847,-9.89263 1.95847,-15.99517 z m -41.49681,1.03873 c 0.30009,-5.10572 1.23181,-10.5684 2.78204,-12.81761 1.55323,-2.2522 3.93041,-3.377 7.14052,-3.377 3.3059,0 5.78711,1.19626 7.43837,3.59739 1.65464,2.40113 2.4812,7.23893 2.4812,10.93997 l 0.003,1.65725 h -19.84513 l 0,0 z"
     id="path25"
     style="fill:#f6f6f6;stroke:none" />
  <path
     d="m 424.36496,308.76785 c -4.28139,3.73995 -6.76596,9.12219 -6.76596,16.15906 v 26.2066 c 0,8.71171 -2.67802,15.33773 -8.72668,19.89303 -6.04304,4.54931 -13.08852,6.80151 -21.13082,7.01854 l -4.76633,-0.0359 V 364.9506 c 4.20132,-1.22582 5.92667,-2.65071 7.59889,-4.26942 3.02901,-2.73715 5.34969,-7.19141 5.34969,-13.37702 v -21.15738 c 0.113,-7.19141 0.66641,-12.8266 3.28457,-16.89695 2.62751,-4.07036 7.74183,-7.62883 15.34372,-10.70236 -8.39628,-3.84398 -14.03483,-8.86363 -16.90893,-15.05523 -1.6898,-3.67746 -1.72273,-8.64024 -1.72273,-14.88272 v -19.4021 c 0,-6.409 -2.09767,-10.89843 -4.67728,-13.46046 -1.67783,-1.67222 -3.62994,-3.00805 -8.27429,-4.01647 V 219.4719 c 5.68008,0.0595 8.54819,-0.006 11.85671,0 5.09374,-0.0415 9.36054,2.74351 13.07355,5.64417 4.04379,3.18055 6.91751,7.48028 8.60171,12.89207 0.9579,3.12704 1.09485,6.11452 1.09485,8.95867 v 22.44009 c 0,7.92593 2.34164,13.81743 6.34352,17.6644 2.25557,2.23162 5.43911,4.27241 10.90479,6.11451 v 10.13697 c -4.84342,1.3392 -7.8844,3.15398 -10.47898,5.4451 z"
     id="path27"
     style="fill:#f6f6f6;stroke:none" />
  <path
     d="m 123.07379,219.47861 v 0.0176 c -1.62732,-0.009 -3.10047,-0.015 -4.2784,-0.012 -5.09674,-0.0445 -9.36316,2.74051 -13.07318,5.64417 -4.0494,3.18054 -7.51545,7.33135 -8.601326,12.89207 -0.618898,3.261 -0.487934,6.11115 -0.487934,8.95867 v 22.44009 c 0,7.92331 -2.948556,13.81144 -6.947442,17.66477 -2.252577,2.23125 -7.060819,4.26904 -12.529493,6.11077 v 10.1366 c 4.846783,1.3362 9.512462,3.145 12.10068,5.4421 4.284387,3.74295 7.372513,9.12855 7.372513,16.16468 v 26.2066 c 0,8.7061 2.077086,15.3381 8.119752,19.88704 6.04305,4.54631 13.08553,6.8075 21.12783,7.02751 l 5.38224,-0.0359 v -13.06756 c -4.19833,-1.22882 -6.5306,-2.65408 -8.21181,-4.2668 -3.02601,-2.74051 -4.73976,-7.19141 -4.73976,-13.37403 V 326.1546 c -0.116,-7.19702 -1.27634,-12.82659 -3.89748,-16.89994 -2.62115,-4.06437 -7.73585,-7.62883 -15.346716,-10.69937 8.399646,-3.84696 14.034826,-8.86362 16.908926,-15.05222 1.69317,-3.68046 2.33564,-8.64324 2.33564,-14.88535 v -19.4021 c 0,-6.40899 1.48738,-10.89843 4.06437,-13.46308 1.39832,-1.39233 3.88551,-2.53808 7.34033,-3.46605 l 5.46269,0.0382 c 0,-4.70198 0,-7.64529 0,-12.84717 h -12.10068 v 0.001 h -7.5e-4 z"
     id="path29"
     style="fill:#f6f6f6;stroke:none" />
  <path
     d="m 173.4376,325.79838 h -4.09094 c -4.4479,0 -6.12311,-2.33864 -6.12311,-7.0365 V 232.4212 c 0,-5.19178 -1.49935,-8.83669 -3.41891,-10.93698 -1.91918,-2.09467 -5.25127,-2.07371 -9.99702,-2.07371 h -9.23856 l -1.08887,-0.021 v 0.0891 l -0.009,12.85054 v 90.61048 c 0,7.206 1.61871,12.4786 4.49841,15.83464 2.88308,3.35006 7.75381,5.02228 14.6208,5.02228 4.74875,0 10.15194,-0.49991 16.20958,-1.50272 0.30346,-1.01179 0.45538,-3.17755 0.45538,-6.50104 0,-3.33247 -0.60655,-6.65595 -1.81778,-9.99441 z"
     id="path31"
     style="fill:#f6f6f6;stroke:none" />
</svg>
