<?xml version="1.0" encoding="UTF-8" standalone="no"?>
<!-- Created with Inkscape (http://www.inkscape.org/) -->

<svg
   xmlns:dc="http://purl.org/dc/elements/1.1/"
   xmlns:cc="http://creativecommons.org/ns#"
   xmlns:rdf="http://www.w3.org/1999/02/22-rdf-syntax-ns#"
   xmlns:svg="http://www.w3.org/2000/svg"
   xmlns="http://www.w3.org/2000/svg"
   xmlns:xlink="http://www.w3.org/1999/xlink"
   version="1.1"
   width="512"
   height="512"
   id="svg2">
  <defs
     id="defs4">
    <linearGradient
       id="linearGradient3170">
      <stop
         id="stop3172"
         style="stop-color:#cc7110;stop-opacity:1"
         offset="0" />
      <stop
         id="stop3174"
         style="stop-color:#673f0b;stop-opacity:0.78448278"
         offset="1" />
    </linearGradient>
    <linearGradient
       id="linearGradient3938">
      <stop
         id="stop3940"
         style="stop-color:#b1f1ee;stop-opacity:0.93103451"
         offset="0" />
      <stop
         id="stop3942"
         style="stop-color:#132682;stop-opacity:1"
         offset="1" />
    </linearGradient>
    <linearGradient
       x1="64.477501"
       y1="56.3008"
       x2="78.466103"
       y2="48.0854"
       id="XMLID_74_-8-1"
       gradientUnits="userSpaceOnUse">
      <stop
         id="stop155-3-8"
         style="stop-color:#ffffff;stop-opacity:1"
         offset="0" />
      <stop
         id="stop157-94-6"
         style="stop-color:#e6e6e6;stop-opacity:1"
         offset="1" />
    </linearGradient>
    <radialGradient
       cx="558.35437"
       cy="385.4841"
       r="191.6187"
       fx="558.35437"
       fy="385.4841"
       id="radialGradient3867"
       xlink:href="#XMLID_74_-8-1"
       gradientUnits="userSpaceOnUse"
       gradientTransform="matrix(1,0,0,1.0499906,0,-19.270593)" />
    <linearGradient
       x1="200.0508"
       y1="185.0742"
       x2="200.0508"
       y2="217.4595"
       id="SVGID_2_"
       gradientUnits="userSpaceOnUse">
      <stop
         id="stop13"
         style="stop-color:#61b74a;stop-opacity:1"
         offset="0" />
      <stop
         id="stop15"
         style="stop-color:#449934;stop-opacity:1"
         offset="1" />
    </linearGradient>
    <linearGradient
       x1="200.0508"
       y1="185.0742"
       x2="200.0508"
       y2="217.4595"
       id="linearGradient3021"
       xlink:href="#SVGID_2_"
       gradientUnits="userSpaceOnUse"
       gradientTransform="matrix(13.577628,0,0,13.577628,-2026.1619,-2566.7096)" />
    <linearGradient
       x1="19.244999"
       y1="21.030804"
       x2="19.360001"
       y2="44.984001"
       id="linearGradient2460"
       gradientUnits="userSpaceOnUse">
      <stop
         id="stop3602"
         style="stop-color:#fafafa;stop-opacity:1"
         offset="0" />
      <stop
         id="stop3604"
         style="stop-color:#f0f0f0;stop-opacity:1"
         offset="1" />
    </linearGradient>
    <linearGradient
       x1="19.244999"
       y1="21.030804"
       x2="19.360001"
       y2="44.984001"
       id="linearGradient3096"
       xlink:href="#linearGradient2460"
       gradientUnits="userSpaceOnUse"
       gradientTransform="matrix(11.076923,0,0,11.076923,-9.8523013,-20.578025)" />
    <linearGradient
       x1="1012.5133"
       y1="484.41721"
       x2="1006.8082"
       y2="20.625916"
       id="linearGradient4114-2"
       xlink:href="#ButtonShadow-0-1-1-5"
       gradientUnits="userSpaceOnUse"
       gradientTransform="matrix(1.0317796,0,0,1.0317796,-830.86406,592.67791)" />
    <linearGradient
       x1="45.447727"
       y1="92.539597"
       x2="45.447727"
       y2="7.0165396"
       id="ButtonShadow-0-1-1-5"
       gradientUnits="userSpaceOnUse"
       gradientTransform="matrix(1.0058652,0,0,0.994169,100,0)">
      <stop
         id="stop3750-8-9-3-6"
         style="stop-color:#000000;stop-opacity:1"
         offset="0" />
      <stop
         id="stop3752-5-6-4-2"
         style="stop-color:#000000;stop-opacity:0.58823532"
         offset="1" />
    </linearGradient>
    <linearGradient
       x1="1012.5133"
       y1="484.41721"
       x2="1006.8082"
       y2="20.625916"
       id="linearGradient4112-2"
       xlink:href="#ButtonShadow-0-1-1-5"
       gradientUnits="userSpaceOnUse"
       gradientTransform="matrix(1.0402541,0,0,1.0402541,-837.95116,592.51825)" />
    <linearGradient
       x1="45.447727"
       y1="92.539597"
       x2="45.447727"
       y2="7.0165396"
       id="linearGradient5292"
       gradientUnits="userSpaceOnUse"
       gradientTransform="matrix(1.0058652,0,0,0.994169,100,0)">
      <stop
         id="stop5294"
         style="stop-color:#000000;stop-opacity:1"
         offset="0" />
      <stop
         id="stop5296"
         style="stop-color:#000000;stop-opacity:0.58823532"
         offset="1" />
    </linearGradient>
    <linearGradient
       x1="1012.5133"
       y1="484.41721"
       x2="1006.8082"
       y2="20.625916"
       id="linearGradient4110-6"
       xlink:href="#ButtonShadow-0-1-1-5"
       gradientUnits="userSpaceOnUse"
       gradientTransform="matrix(1.023305,0,0,1.023305,-823.77704,592.83757)" />
    <linearGradient
       x1="45.447727"
       y1="92.539597"
       x2="45.447727"
       y2="7.0165396"
       id="linearGradient5299"
       gradientUnits="userSpaceOnUse"
       gradientTransform="matrix(1.0058652,0,0,0.994169,100,0)">
      <stop
         id="stop5301"
         style="stop-color:#000000;stop-opacity:1"
         offset="0" />
      <stop
         id="stop5303"
         style="stop-color:#000000;stop-opacity:0.58823532"
         offset="1" />
    </linearGradient>
    <linearGradient
       x1="1012.5133"
       y1="484.41721"
       x2="1006.8082"
       y2="20.625916"
       id="linearGradient4116-6"
       xlink:href="#ButtonShadow-0-1-1-5"
       gradientUnits="userSpaceOnUse"
       gradientTransform="matrix(1.0148305,0,0,1.0148305,-816.68996,592.99723)" />
    <linearGradient
       x1="45.447727"
       y1="92.539597"
       x2="45.447727"
       y2="7.0165396"
       id="linearGradient5306"
       gradientUnits="userSpaceOnUse"
       gradientTransform="matrix(1.0058652,0,0,0.994169,100,0)">
      <stop
         id="stop5308"
         style="stop-color:#000000;stop-opacity:1"
         offset="0" />
      <stop
         id="stop5310"
         style="stop-color:#000000;stop-opacity:0.58823532"
         offset="1" />
    </linearGradient>
    <linearGradient
       x1="1012.5133"
       y1="484.41721"
       x2="1006.8082"
       y2="20.625916"
       id="linearGradient3372"
       xlink:href="#ButtonShadow-0-1-1-5"
       gradientUnits="userSpaceOnUse"
       gradientTransform="matrix(1.0074153,0,0,1.0074153,-810.48879,593.1369)" />
    <linearGradient
       x1="45.447727"
       y1="92.539597"
       x2="45.447727"
       y2="7.0165396"
       id="linearGradient5313"
       gradientUnits="userSpaceOnUse"
       gradientTransform="matrix(1.0058652,0,0,0.994169,100,0)">
      <stop
         id="stop5315"
         style="stop-color:#000000;stop-opacity:1"
         offset="0" />
      <stop
         id="stop5317"
         style="stop-color:#000000;stop-opacity:0.58823532"
         offset="1" />
    </linearGradient>
    <linearGradient
       x1="1016.1035"
       y1="476.25983"
       x2="1011.9534"
       y2="251.66064"
       id="linearGradient4082"
       xlink:href="#linearGradient4487"
       gradientUnits="userSpaceOnUse"
       gradientTransform="translate(-146.22032,369.08845)" />
    <linearGradient
       id="linearGradient4487">
      <stop
         id="stop4489"
         style="stop-color:#000000;stop-opacity:1"
         offset="0" />
      <stop
         id="stop4491"
         style="stop-color:#000000;stop-opacity:0"
         offset="1" />
    </linearGradient>
    <linearGradient
       id="linearGradient3737">
      <stop
         id="stop3739"
         style="stop-color:#ffffff;stop-opacity:1"
         offset="0" />
      <stop
         id="stop3741"
         style="stop-color:#ffffff;stop-opacity:0"
         offset="1" />
    </linearGradient>
    <linearGradient
       id="linearGradient4046">
      <stop
         id="stop4048"
         style="stop-color:#000000;stop-opacity:1"
         offset="0" />
      <stop
         id="stop4050"
         style="stop-color:#ffffff;stop-opacity:0.2"
         offset="1" />
    </linearGradient>
    <linearGradient
       x1="1012.5133"
       y1="484.41721"
       x2="1006.8082"
       y2="20.625916"
       id="linearGradient5342"
       xlink:href="#ButtonShadow-0-1-1-5"
       gradientUnits="userSpaceOnUse"
       gradientTransform="matrix(1.0074153,0,0,1.0074153,-810.48879,593.1369)" />
    <linearGradient
       x1="1012.5133"
       y1="484.41721"
       x2="1006.8082"
       y2="20.625916"
       id="linearGradient4114-2-6"
       xlink:href="#ButtonShadow-0-1-1-5-9"
       gradientUnits="userSpaceOnUse"
       gradientTransform="matrix(1.0317796,0,0,1.0317796,-830.86406,592.67791)" />
    <linearGradient
       x1="45.447727"
       y1="92.539597"
       x2="45.447727"
       y2="7.0165396"
       id="ButtonShadow-0-1-1-5-9"
       gradientUnits="userSpaceOnUse"
       gradientTransform="matrix(1.0058652,0,0,0.994169,100,0)">
      <stop
         id="stop3750-8-9-3-6-4"
         style="stop-color:#000000;stop-opacity:1"
         offset="0" />
      <stop
         id="stop3752-5-6-4-2-9"
         style="stop-color:#000000;stop-opacity:0.58823532"
         offset="1" />
    </linearGradient>
    <linearGradient
       x1="1012.5133"
       y1="484.41721"
       x2="1006.8082"
       y2="20.625916"
       id="linearGradient4112-2-6"
       xlink:href="#ButtonShadow-0-1-1-5-9"
       gradientUnits="userSpaceOnUse"
       gradientTransform="matrix(1.0402541,0,0,1.0402541,-837.95116,592.51825)" />
    <linearGradient
       x1="45.447727"
       y1="92.539597"
       x2="45.447727"
       y2="7.0165396"
       id="linearGradient5292-5"
       gradientUnits="userSpaceOnUse"
       gradientTransform="matrix(1.0058652,0,0,0.994169,100,0)">
      <stop
         id="stop5294-8"
         style="stop-color:#000000;stop-opacity:1"
         offset="0" />
      <stop
         id="stop5296-4"
         style="stop-color:#000000;stop-opacity:0.58823532"
         offset="1" />
    </linearGradient>
    <linearGradient
       x1="1012.5133"
       y1="484.41721"
       x2="1006.8082"
       y2="20.625916"
       id="linearGradient4110-6-7"
       xlink:href="#ButtonShadow-0-1-1-5-9"
       gradientUnits="userSpaceOnUse"
       gradientTransform="matrix(1.023305,0,0,1.023305,-823.77704,592.83757)" />
    <linearGradient
       x1="45.447727"
       y1="92.539597"
       x2="45.447727"
       y2="7.0165396"
       id="linearGradient5299-2"
       gradientUnits="userSpaceOnUse"
       gradientTransform="matrix(1.0058652,0,0,0.994169,100,0)">
      <stop
         id="stop5301-9"
         style="stop-color:#000000;stop-opacity:1"
         offset="0" />
      <stop
         id="stop5303-1"
         style="stop-color:#000000;stop-opacity:0.58823532"
         offset="1" />
    </linearGradient>
    <linearGradient
       x1="1012.5133"
       y1="484.41721"
       x2="1006.8082"
       y2="20.625916"
       id="linearGradient4116-6-3"
       xlink:href="#ButtonShadow-0-1-1-5-9"
       gradientUnits="userSpaceOnUse"
       gradientTransform="matrix(1.0148305,0,0,1.0148305,-816.68996,592.99723)" />
    <linearGradient
       x1="45.447727"
       y1="92.539597"
       x2="45.447727"
       y2="7.0165396"
       id="linearGradient5306-9"
       gradientUnits="userSpaceOnUse"
       gradientTransform="matrix(1.0058652,0,0,0.994169,100,0)">
      <stop
         id="stop5308-0"
         style="stop-color:#000000;stop-opacity:1"
         offset="0" />
      <stop
         id="stop5310-6"
         style="stop-color:#000000;stop-opacity:0.58823532"
         offset="1" />
    </linearGradient>
    <linearGradient
       x1="1012.5133"
       y1="484.41721"
       x2="1006.8082"
       y2="20.625916"
       id="linearGradient3372-9"
       xlink:href="#ButtonShadow-0-1-1-5-9"
       gradientUnits="userSpaceOnUse"
       gradientTransform="matrix(1.0074153,0,0,1.0074153,-810.48879,593.1369)" />
    <linearGradient
       x1="45.447727"
       y1="92.539597"
       x2="45.447727"
       y2="7.0165396"
       id="linearGradient5313-8"
       gradientUnits="userSpaceOnUse"
       gradientTransform="matrix(1.0058652,0,0,0.994169,100,0)">
      <stop
         id="stop5315-8"
         style="stop-color:#000000;stop-opacity:1"
         offset="0" />
      <stop
         id="stop5317-1"
         style="stop-color:#000000;stop-opacity:0.58823532"
         offset="1" />
    </linearGradient>
    <linearGradient
       x1="1016.1035"
       y1="476.25983"
       x2="1011.9534"
       y2="251.66064"
       id="linearGradient4082-7"
       xlink:href="#linearGradient4487-8"
       gradientUnits="userSpaceOnUse"
       gradientTransform="translate(-146.22032,369.08845)" />
    <linearGradient
       id="linearGradient4487-8">
      <stop
         id="stop4489-0"
         style="stop-color:#000000;stop-opacity:1"
         offset="0" />
      <stop
         id="stop4491-4"
         style="stop-color:#000000;stop-opacity:0"
         offset="1" />
    </linearGradient>
    <linearGradient
       x1="993.43896"
       y1="51.511765"
       x2="988.78552"
       y2="363.73825"
       id="linearGradient4084-7"
       xlink:href="#linearGradient3737-8"
       gradientUnits="userSpaceOnUse"
       gradientTransform="translate(778.59979,-360.55963)" />
    <linearGradient
       id="linearGradient3737-8">
      <stop
         id="stop3739-4"
         style="stop-color:#ffffff;stop-opacity:1"
         offset="0" />
      <stop
         id="stop3741-7"
         style="stop-color:#ffffff;stop-opacity:0"
         offset="1" />
    </linearGradient>
    <linearGradient
       x1="1764.6487"
       y1="155.59685"
       x2="1763.6903"
       y2="-55.941216"
       id="linearGradient4086-1"
       xlink:href="#linearGradient4046-2"
       gradientUnits="userSpaceOnUse" />
    <linearGradient
       id="linearGradient4046-2">
      <stop
         id="stop4048-2"
         style="stop-color:#000000;stop-opacity:1"
         offset="0" />
      <stop
         id="stop4050-7"
         style="stop-color:#ffffff;stop-opacity:0.2"
         offset="1" />
    </linearGradient>
    <linearGradient
       x1="1012.5133"
       y1="484.41721"
       x2="1006.8082"
       y2="20.625916"
       id="linearGradient5342-3"
       xlink:href="#ButtonShadow-0-1-1-5-9"
       gradientUnits="userSpaceOnUse"
       gradientTransform="matrix(1.0074153,0,0,1.0074153,-810.48879,593.1369)" />
    <linearGradient
       id="linearGradient4487-1">
      <stop
         id="stop4489-6"
         style="stop-color:#000000;stop-opacity:1"
         offset="0" />
      <stop
         id="stop4491-0"
         style="stop-color:#000000;stop-opacity:0"
         offset="1" />
    </linearGradient>
    <linearGradient
       x1="993.43896"
       y1="51.511765"
       x2="988.78552"
       y2="363.73825"
       id="linearGradient4084-8"
       xlink:href="#linearGradient3737-9"
       gradientUnits="userSpaceOnUse"
       gradientTransform="translate(778.59979,-360.55963)" />
    <linearGradient
       id="linearGradient3737-9">
      <stop
         id="stop3739-7"
         style="stop-color:#ffffff;stop-opacity:1"
         offset="0" />
      <stop
         id="stop3741-4"
         style="stop-color:#ffffff;stop-opacity:0"
         offset="1" />
    </linearGradient>
    <linearGradient
       x1="1764.6487"
       y1="155.59685"
       x2="1763.6903"
       y2="-55.941216"
       id="linearGradient4086-12"
       xlink:href="#linearGradient4046-3"
       gradientUnits="userSpaceOnUse" />
    <linearGradient
       id="linearGradient4046-3">
      <stop
         id="stop4048-7"
         style="stop-color:#000000;stop-opacity:1"
         offset="0" />
      <stop
         id="stop4050-73"
         style="stop-color:#ffffff;stop-opacity:0.2"
         offset="1" />
    </linearGradient>
    <linearGradient
       id="linearGradient2760">
      <stop
         id="stop2770"
         style="stop-color:#ffffff;stop-opacity:1"
         offset="0" />
      <stop
         id="stop2764"
         style="stop-color:#a9a9a9;stop-opacity:1"
         offset="1" />
    </linearGradient>
    <linearGradient
       id="linearGradient4846">
      <stop
         id="stop4848"
         style="stop-color:#1a1a1a;stop-opacity:1"
         offset="0" />
      <stop
         id="stop4856"
         style="stop-color:#1e1e1e;stop-opacity:1"
         offset="1" />
    </linearGradient>
    <linearGradient
       id="linearGradient4922">
      <stop
         id="stop4924"
         style="stop-color:#1a1a1a;stop-opacity:1"
         offset="0" />
      <stop
         id="stop4926"
         style="stop-color:#636363;stop-opacity:1"
         offset="0.15622118" />
      <stop
         id="stop4928"
         style="stop-color:#b4b4b4;stop-opacity:1"
         offset="0.33151907" />
      <stop
         id="stop4930"
         style="stop-color:#636363;stop-opacity:1"
         offset="0.53579742" />
      <stop
         id="stop4932"
         style="stop-color:#000000;stop-opacity:1"
         offset="1" />
    </linearGradient>
    <linearGradient
       x1="201.33115"
       y1="152.12039"
       x2="166.77547"
       y2="110.85986"
       id="linearGradient4884"
       xlink:href="#linearGradient4888"
       gradientUnits="userSpaceOnUse"
       gradientTransform="matrix(1.2757694,0,0,1.2757694,-135.89444,2.4500392)"
       spreadMethod="reflect" />
    <linearGradient
       id="linearGradient4888">
      <stop
         id="stop4892"
         style="stop-color:#c0821c;stop-opacity:1"
         offset="0" />
      <stop
         id="stop4894"
         style="stop-color:#e4ae48;stop-opacity:1"
         offset="1" />
    </linearGradient>
    <linearGradient
       x1="13.021049"
       y1="160.82593"
       x2="258.22205"
       y2="158.47191"
       id="linearGradient4882"
       xlink:href="#linearGradient4898"
       gradientUnits="userSpaceOnUse" />
    <linearGradient
       id="linearGradient4898">
      <stop
         id="stop4900"
         style="stop-color:#d78617;stop-opacity:1"
         offset="0" />
      <stop
         id="stop4902"
         style="stop-color:#5c1234;stop-opacity:1"
         offset="1" />
    </linearGradient>
    <linearGradient
       x1="45.447727"
       y1="92.539597"
       x2="45.447727"
       y2="7.0165396"
       id="ButtonShadow"
       gradientUnits="userSpaceOnUse"
       gradientTransform="scale(1.0058652,0.994169)">
      <stop
         id="stop3750"
         style="stop-color:#000000;stop-opacity:1"
         offset="0" />
      <stop
         id="stop3752"
         style="stop-color:#000000;stop-opacity:0.58823532"
         offset="1" />
    </linearGradient>
    <filter
       color-interpolation-filters="sRGB"
       id="filter3174">
      <feGaussianBlur
         stdDeviation="1.71"
         id="feGaussianBlur3176" />
    </filter>
    <linearGradient
       id="linearGradient10386">
      <stop
         id="stop10388"
         style="stop-color:#ffffff;stop-opacity:1"
         offset="0" />
      <stop
         id="stop10390"
         style="stop-color:#ffffff;stop-opacity:0"
         offset="1" />
    </linearGradient>
    <linearGradient
       x1="212.86353"
       y1="11.425488"
       x2="214.26566"
       y2="168.28262"
       id="linearGradient8264"
       xlink:href="#linearGradient2760"
       gradientUnits="userSpaceOnUse"
       gradientTransform="matrix(1.8464564,0,0,1.8464564,-123.73343,86.826257)"
       spreadMethod="reflect" />
    <linearGradient
       x1="18.930269"
       y1="6.2951212"
       x2="19.360001"
       y2="36.643665"
       id="linearGradient3157"
       xlink:href="#linearGradient2460"
       gradientUnits="userSpaceOnUse"
       gradientTransform="matrix(12.102564,0,0,12.102564,-34.468255,-46.187105)" />
    <linearGradient
       x1="0"
       y1="0"
       x2="1"
       y2="1"
       id="acyl_gradient"
       xlink:href="#linearGradient4321" />
    <linearGradient
       id="linearGradient4321">
      <stop
         id="stop1"
         style="stop-color:#ee0c0c;stop-opacity:1"
         offset="0" />
      <stop
         id="stop2"
         style="stop-color:#7a0404;stop-opacity:1"
         offset="1" />
    </linearGradient>
    <radialGradient
       cx="94.710419"
       cy="98.692879"
       r="150"
       fx="94.710419"
       fy="98.692879"
       id="radialGradient3928"
       xlink:href="#linearGradient4321"
       gradientUnits="userSpaceOnUse"
       gradientTransform="matrix(2.4249551,-0.00787504,0.00770263,2.3718665,-135.71828,-134.64744)" />
    <radialGradient
       cx="94.710419"
       cy="98.692879"
       r="150"
       fx="94.710419"
       fy="98.692879"
       id="radialGradient3932"
       xlink:href="#linearGradient4321"
       gradientUnits="userSpaceOnUse"
       gradientTransform="matrix(2.4249551,-0.00787504,0.00770263,2.3718665,-135.71828,-134.64744)" />
    <radialGradient
       cx="110.73653"
       cy="112.57468"
       r="150"
       fx="110.73653"
       fy="112.57468"
       id="radialGradient3140"
       xlink:href="#linearGradient3938"
       gradientUnits="userSpaceOnUse"
       gradientTransform="matrix(1.6533901,0.0060994,-0.00539655,1.4623231,-50.506611,-35.439162)" />
    <linearGradient
       x1="-112.34483"
       y1="572.44672"
       x2="-109.97469"
       y2="107.89955"
       id="linearGradient5925"
       xlink:href="#ButtonShadow-0-1-1-5-9-5"
       gradientUnits="userSpaceOnUse"
       gradientTransform="matrix(1.0074417,0,0,1.0074152,261.62679,527.41078)" />
    <linearGradient
       x1="45.447727"
       y1="92.539597"
       x2="45.447727"
       y2="7.0165396"
       id="ButtonShadow-0-1-1-5-9-5"
       gradientUnits="userSpaceOnUse"
       gradientTransform="matrix(1.0058652,0,0,0.994169,100,0)">
      <stop
         id="stop3750-8-9-3-6-4-0"
         style="stop-color:#000000;stop-opacity:1"
         offset="0" />
      <stop
         id="stop3752-5-6-4-2-9-8"
         style="stop-color:#000000;stop-opacity:0.58823532"
         offset="1" />
    </linearGradient>
    <linearGradient
       x1="-112.34483"
       y1="572.44672"
       x2="-109.97469"
       y2="107.89955"
       id="linearGradient5927"
       xlink:href="#ButtonShadow-0-1-1-5-9-5"
       gradientUnits="userSpaceOnUse"
       gradientTransform="matrix(1.0318068,0,0,1.0317796,268.77841,524.78354)" />
    <linearGradient
       x1="45.447727"
       y1="92.539597"
       x2="45.447727"
       y2="7.0165396"
       id="linearGradient3129"
       gradientUnits="userSpaceOnUse"
       gradientTransform="matrix(1.0058652,0,0,0.994169,100,0)">
      <stop
         id="stop3131"
         style="stop-color:#000000;stop-opacity:1"
         offset="0" />
      <stop
         id="stop3133"
         style="stop-color:#000000;stop-opacity:0.58823532"
         offset="1" />
    </linearGradient>
    <linearGradient
       x1="-112.34483"
       y1="572.44672"
       x2="-109.97469"
       y2="107.89955"
       id="linearGradient5929"
       xlink:href="#ButtonShadow-0-1-1-5-9-5"
       gradientUnits="userSpaceOnUse"
       gradientTransform="matrix(1.0148572,0,0,1.0148305,263.80369,526.61118)" />
    <linearGradient
       x1="45.447727"
       y1="92.539597"
       x2="45.447727"
       y2="7.0165396"
       id="linearGradient3136"
       gradientUnits="userSpaceOnUse"
       gradientTransform="matrix(1.0058652,0,0,0.994169,100,0)">
      <stop
         id="stop3138"
         style="stop-color:#000000;stop-opacity:1"
         offset="0" />
      <stop
         id="stop3140"
         style="stop-color:#000000;stop-opacity:0.58823532"
         offset="1" />
    </linearGradient>
    <linearGradient
       x1="-112.34483"
       y1="572.44672"
       x2="-109.97469"
       y2="107.89955"
       id="linearGradient5931"
       xlink:href="#ButtonShadow-0-1-1-5-9-5"
       gradientUnits="userSpaceOnUse"
       gradientTransform="matrix(1.023332,0,0,1.023305,266.29153,525.69736)" />
    <linearGradient
       x1="45.447727"
       y1="92.539597"
       x2="45.447727"
       y2="7.0165396"
       id="linearGradient3143"
       gradientUnits="userSpaceOnUse"
       gradientTransform="matrix(1.0058652,0,0,0.994169,100,0)">
      <stop
         id="stop3145"
         style="stop-color:#000000;stop-opacity:1"
         offset="0" />
      <stop
         id="stop3147"
         style="stop-color:#000000;stop-opacity:0.58823532"
         offset="1" />
    </linearGradient>
    <linearGradient
       x1="-112.34483"
       y1="572.44672"
       x2="-109.97469"
       y2="107.89955"
       id="linearGradient5933"
       xlink:href="#ButtonShadow-0-1-1-5-9-5"
       gradientUnits="userSpaceOnUse"
       gradientTransform="matrix(1.0402816,0,0,1.0402542,271.26626,523.86971)" />
    <linearGradient
       x1="45.447727"
       y1="92.539597"
       x2="45.447727"
       y2="7.0165396"
       id="linearGradient3150"
       gradientUnits="userSpaceOnUse"
       gradientTransform="matrix(1.0058652,0,0,0.994169,100,0)">
      <stop
         id="stop3152"
         style="stop-color:#000000;stop-opacity:1"
         offset="0" />
      <stop
         id="stop3154"
         style="stop-color:#000000;stop-opacity:0.58823532"
         offset="1" />
    </linearGradient>
    <linearGradient
       x1="993.43896"
       y1="51.511765"
       x2="988.78552"
       y2="363.73825"
       id="linearGradient4084-8-2"
       xlink:href="#linearGradient3737-9-0"
       gradientUnits="userSpaceOnUse"
       gradientTransform="translate(-753.58716,-30.14348)" />
    <linearGradient
       id="linearGradient3737-9-0">
      <stop
         id="stop3739-7-5"
         style="stop-color:#ffffff;stop-opacity:1"
         offset="0" />
      <stop
         id="stop3741-4-2"
         style="stop-color:#ffffff;stop-opacity:0"
         offset="1" />
    </linearGradient>
    <linearGradient
       x1="1764.6487"
       y1="155.59685"
       x2="1763.6903"
       y2="-55.941216"
       id="linearGradient4086-12-9"
       xlink:href="#linearGradient4046-3-3"
       gradientUnits="userSpaceOnUse"
       gradientTransform="translate(-1532.187,330.41615)" />
    <linearGradient
       id="linearGradient4046-3-3">
      <stop
         id="stop4048-7-5"
         style="stop-color:#000000;stop-opacity:1"
         offset="0" />
      <stop
         id="stop4050-73-5"
         style="stop-color:#ffffff;stop-opacity:0.2"
         offset="1" />
    </linearGradient>
    <linearGradient
       x1="102.875"
       y1="170.42188"
       x2="153.125"
       y2="170.42188"
       id="linearGradient5071"
       xlink:href="#linearGradient5059"
       gradientUnits="userSpaceOnUse" />
    <linearGradient
       id="linearGradient5059">
      <stop
         id="stop5061"
         style="stop-color:#0b0826;stop-opacity:0.49803922"
         offset="0" />
      <stop
         id="stop5063"
         style="stop-color:#0b0826;stop-opacity:1"
         offset="1" />
    </linearGradient>
    <linearGradient
       x1="102.875"
       y1="170.42188"
       x2="153.125"
       y2="170.42188"
       id="linearGradient3985"
       xlink:href="#linearGradient5059"
       gradientUnits="userSpaceOnUse" />
    <radialGradient
       cx="244.26477"
       cy="286.95432"
       r="62.545898"
       fx="244.26477"
       fy="286.95432"
       id="radialGradient14612"
       xlink:href="#linearGradient3938"
       gradientUnits="userSpaceOnUse"
       gradientTransform="matrix(1,0,0,1.2036395,0,-58.435237)"
       spreadMethod="pad" />
  </defs>
  <metadata
     id="metadata7">
    <rdf:RDF>
      <cc:Work
         rdf:about="">
        <dc:format>image/svg+xml</dc:format>
        <dc:type
           rdf:resource="http://purl.org/dc/dcmitype/StillImage" />
        <dc:title></dc:title>
        <dc:contributor>
          <cc:Agent>
            <dc:title>Brahim Djoudi</dc:title>
          </cc:Agent>
        </dc:contributor>
        <dc:date>20151012</dc:date>
      </cc:Work>
    </rdf:RDF>
  </metadata>
  <g
     transform="translate(0,-540.36218)"
     id="layer1" />
  <g
     transform="matrix(1.1,0,0,0.44444,95.081063,256.39254)"
     id="g2036">
    <g
       transform="matrix(1.0526,0,0,1.2857,-1.2632,-13.429)"
       id="g3712"
       style="opacity:0.4" />
  </g>
  <g
     transform="translate(97.481063,231.28154)"
     id="g3541" />
  <g
     transform="translate(97.481063,231.28154)"
     id="g3536" />
  <g
     transform="translate(-605.51932,-353.96833)"
     id="g4076">
    <g
       transform="translate(-926.66758,684.38448)"
       id="g4038" />
  </g>
  <g
     transform="translate(54.089264,-616.0416)"
     id="g5918">
    <path
       d="m 60.989673,1111.5416 144.328367,-0.2064 147.52725,-0.2409 c 49.0412,-5.1221 87.2248,-45.726 88.537,-95.8499 9e-4,-0.035 -9e-4,-0.069 0,-0.1032 9e-4,-0.414 -8e-4,-0.6473 0,-1.0665 0.042,-21.50295 0.034,-49.94202 0.034,-87.7651 l 0,-152.51368 -68.8621,-68.87715 -68.8965,-68.87715 -152.82436,0.0688 c -40.25265,0.0173 -69.340747,0.0413 -91.323117,0.10316 -50.88989,2.75481 -91.3364,43.54773 -93.49012,94.61146 -0.0987,30.63047 -0.10318,74.7573 -0.10318,143.01819 0,68.26875 0.005,112.38763 0.10312,143.01817 2.17453,51.5569 43.38652,92.644 94.96919,94.6802 z"
       id="path5873"
       style="opacity:0.25;color:#000000;fill:url(#linearGradient5925);fill-opacity:1;fill-rule:nonzero;stroke:none;stroke-width:1.5;marker:none;visibility:visible;display:inline;overflow:visible;enable-background:accumulate" />
    <path
       d="m 63.288833,1123.0416 147.818967,-0.2114 151.09521,-0.2467 c 50.2273,-5.246 89.3343,-46.8319 90.6783,-98.1681 9e-4,-0.035 -9e-4,-0.07 0,-0.1056 9e-4,-0.424 -8e-4,-0.663 0,-1.0924 0.043,-22.0229 0.035,-51.14981 0.035,-89.88764 l 0,-156.20224 -70.5276,-70.54295 -70.5627,-70.54295 -156.52046,0.0705 c -41.22616,0.0177 -71.017757,0.0423 -93.531777,0.10565 -52.12067,2.82144 -93.54538,44.60094 -95.75119,96.89965 -0.10109,31.37127 -0.10567,76.56531 -0.10567,146.47709 0,69.91984 0.005,115.10574 0.10561,146.47699 2.22712,52.804 44.43583,94.8848 97.26603,96.9702 z"
       id="path5902"
       style="opacity:0.1;color:#000000;fill:url(#linearGradient5927);fill-opacity:1;fill-rule:nonzero;stroke:none;stroke-width:1.5;marker:none;visibility:visible;display:inline;overflow:visible;enable-background:accumulate" />
    <path
       d="m 61.689723,1115.0417 145.390727,-0.2079 148.61314,-0.2427 c 49.4022,-5.1598 87.8668,-46.0626 89.1887,-96.5555 9e-4,-0.035 -9e-4,-0.069 0,-0.1039 9e-4,-0.4171 -8e-4,-0.6521 0,-1.0744 0.042,-21.66124 0.034,-50.30964 0.034,-88.41113 l 0,-153.63628 -69.369,-69.38413 -69.4036,-69.38414 -153.94925,0.0693 c -40.54894,0.0174 -69.851137,0.0416 -91.995317,0.10392 -51.26448,2.77509 -92.0087,43.86827 -94.17827,95.30786 -0.0994,30.85594 -0.10394,75.30757 -0.10394,144.07091 0,68.77125 0.005,113.21488 0.10387,144.07079 2.19054,51.9366 43.70588,93.3261 95.66824,95.3773 z"
       id="path5906"
       style="opacity:0.25;color:#000000;fill:url(#linearGradient5929);fill-opacity:1;fill-rule:nonzero;stroke:none;stroke-width:1.5;marker:none;visibility:visible;display:inline;overflow:visible;enable-background:accumulate" />
    <path
       d="m 62.489783,1119.0417 146.604847,-0.2097 149.8542,-0.2447 c 49.8147,-5.2028 88.6006,-46.4472 89.9335,-97.3618 9e-4,-0.035 -9e-4,-0.07 0,-0.1048 9e-4,-0.4205 -8e-4,-0.6575 0,-1.0833 0.043,-21.84214 0.034,-50.72977 0.034,-89.14943 l 0,-154.91926 -69.9483,-69.96355 -69.9832,-69.96354 -155.23483,0.0699 c -40.88755,0.0176 -70.434457,0.0419 -92.763547,0.10478 -51.69258,2.79827 -92.77705,44.23461 -94.96474,96.10376 -0.10025,31.1136 -0.1048,75.93644 -0.1048,145.274 0,69.34555 0.005,114.16031 0.10474,145.27394 2.20883,52.3702 44.07085,94.1054 96.46713,96.1737 z"
       id="path5910"
       style="opacity:0.2;color:#000000;fill:url(#linearGradient5931);fill-opacity:1;fill-rule:nonzero;stroke:none;stroke-width:1.5;marker:none;visibility:visible;display:inline;overflow:visible;enable-background:accumulate" />
    <path
       d="m 64.088893,1127.0416 149.033087,-0.2131 152.33628,-0.2488 c 50.6398,-5.289 90.068,-47.2165 91.423,-98.9744 10e-4,-0.036 -9e-4,-0.071 0,-0.1065 10e-4,-0.4274 -8e-4,-0.6684 0,-1.1013 0.043,-22.2038 0.035,-51.56994 0.035,-90.62595 l 0,-157.48521 -71.1068,-71.12236 -71.1423,-71.12236 -157.80606,0.071 c -41.56477,0.0179 -71.601067,0.0427 -94.299997,0.10653 -52.54877,2.84461 -94.31372,44.96726 -96.53765,97.69553 -0.10192,31.62894 -0.10654,77.19419 -0.10654,147.6802 0,70.49412 0.005,116.05116 0.10648,147.68012 2.24541,53.2376 44.8008,95.664 98.06493,97.7666 z"
       id="path5914"
       style="opacity:0.07999998;color:#000000;fill:url(#linearGradient5933);fill-opacity:1;fill-rule:nonzero;stroke:none;stroke-width:1.5;marker:none;visibility:visible;display:inline;overflow:visible;enable-background:accumulate" />
  </g>
  <path
     d="m 114.3763,492.00004 143.26225,-0.20491 146.43752,-0.23905 c 48.67892,-5.08446 86.58047,-45.3894 87.883,-95.1445 8.9e-4,-0.0342 -8.7e-4,-0.0682 0,-0.10239 8.5e-4,-0.41093 -8.2e-4,-0.64253 0,-1.05868 0.0421,-21.34466 0.0341,-49.5744 0.0341,-87.11908 l 0,-151.39108 -68.35344,-68.37017 -68.38759,-68.37016 -151.69547,0.0683 c -39.95531,0.0172 -68.82855,0.041 -90.64854,0.1024 -50.513983,2.73453 -90.661723,43.22719 -92.799533,93.91506 -0.098,30.40501 -0.10242,74.20703 -0.10242,141.96548 0,67.76624 0.005,111.56038 0.10236,141.96542 2.15846,51.17745 43.06603,91.96213 94.267673,93.98336 z"
     id="rect4121"
     style="color:#000000;fill:#e4e6d2;fill-opacity:1;fill-rule:nonzero;stroke:none;stroke-width:1.5;marker:none;visibility:visible;display:inline;overflow:visible;enable-background:accumulate" />
  <path
     d="M 364.59375,189.03125 C 325.10302,226.36832 203.14321,344.52114 147.4375,406.1875 c 30.96853,30.98355 57.05993,57.08206 85.59375,85.625 l 24.59375,-0.0312 146.4375,-0.21875 c 48.67892,-5.08446 86.60372,-45.40115 87.90625,-95.15625 8.9e-4,-0.0342 -8.7e-4,-0.0596 0,-0.0937 8.5e-4,-0.41093 -8.2e-4,-0.64635 0,-1.0625 C 492.01085,373.90534 492,345.66968 492,308.125 l 0,-4.1875 C 452.92932,267.72384 411.02967,230.84986 364.59375,189.03125 z"
     id="path4200"
     style="fill:#000000;fill-opacity:0.15686275;stroke:none" />
  <g
     transform="translate(-605.51939,-353.9683)"
     id="g4076-9-1">
    <g
       transform="translate(-926.66758,684.38448)"
       id="g4038-9-8">
      <g
         id="g4929">
        <path
           d="m 355.25,20 -151.6875,0.0625 c -39.95531,0.0172 -68.83626,0.03235 -90.65625,0.09375 -4.73569,0.256362 -9.37556,0.852632 -13.90625,1.75 -1.51023,0.299123 -3.015922,0.633019 -4.5,1 -2.226117,0.550471 -4.431221,1.176579 -6.59375,1.875 -20.904452,6.751404 -38.687843,20.284416 -50.8125,38.03125 -0.108334,0.158619 -0.236324,0.30946 -0.34375,0.46875 -0.306456,0.454303 -0.607242,0.915291 -0.90625,1.375 -1.617953,2.487519 -3.108135,5.049674 -4.5,7.6875 -2.416204,4.579126 -4.508261,9.398403 -6.1875,14.375 -0.01359,0.04029 -0.01771,0.08469 -0.03125,0.125 -0.481865,1.434239 -0.926843,2.880345 -1.34375,4.34375 -0.208453,0.731702 -0.401853,1.448822 -0.59375,2.1875 -0.02741,0.105607 -0.06668,0.206753 -0.09375,0.3125 -0.162917,0.635705 -0.318229,1.296808 -0.46875,1.9375 -0.175131,0.745444 -0.341847,1.466751 -0.5,2.21875 -0.04199,0.199929 -0.08422,0.393368 -0.125,0.59375 -0.113545,0.556834 -0.208352,1.127218 -0.3125,1.6875 -0.140964,0.75834 -0.282685,1.51677 -0.40625,2.28125 -0.123565,0.76448 -0.237796,1.5421 -0.34375,2.3125 -0.211908,1.54081 -0.391049,3.09301 -0.53125,4.65625 -0.140201,1.56324 -0.245693,3.13475 -0.3125,4.71875 C 19.99575,144.49876 20,188.30405 20,256.0625 c 0,67.67336 -0.0032,111.41246 0.09375,141.8125 1.33e-4,0.0417 -1.33e-4,0.11458 0,0.15625 0.0027,0.0629 -0.0028,0.12467 0,0.1875 0.0075,0.16637 0.02289,0.33385 0.03125,0.5 0.103117,2.10033 0.268283,4.18721 0.5,6.25 0.01417,0.12613 0.04786,0.24901 0.0625,0.375 0.08359,0.71923 0.182346,1.4107 0.28125,2.125 0.09803,0.70307 0.199799,1.39561 0.3125,2.09375 0.0432,0.26966 0.07962,0.54359 0.125,0.8125 0.06179,0.36349 0.121762,0.73165 0.1875,1.09375 0.03935,0.21824 0.08422,0.43852 0.125,0.65625 0.08776,0.46552 0.187003,0.94311 0.28125,1.40625 0.135112,0.66395 0.257917,1.30981 0.40625,1.96875 0.03076,0.13664 0.06243,0.26983 0.09375,0.40625 0.05764,0.25224 0.127935,0.49851 0.1875,0.75 0.128911,0.54185 0.268464,1.08673 0.40625,1.625 0.05292,0.20754 0.102023,0.418 0.15625,0.625 0.151575,0.57628 0.307082,1.14672 0.46875,1.71875 0.220124,0.77886 0.448884,1.57299 0.6875,2.34375 0.715848,2.31229 1.497285,4.57766 2.375,6.8125 0.280689,0.71657 0.57813,1.4481 0.875,2.15625 0.009,0.0214 0.02224,0.0411 0.03125,0.0625 0.2845,0.67727 0.575897,1.33065 0.875,2 0.02851,0.0637 0.0651,0.12391 0.09375,0.1875 0.28142,0.62616 0.549706,1.25597 0.84375,1.875 0.04962,0.10427 0.106275,0.20843 0.15625,0.3125 0.27599,0.5757 0.556957,1.1494 0.84375,1.71875 0.06944,0.13761 0.14868,0.26901 0.21875,0.40625 1.443868,2.82788 3.01751,5.59026 4.71875,8.25 1.27593,1.9948 2.618525,3.92027 4.03125,5.8125 0.470908,0.63074 0.951899,1.25616 1.4375,1.875 0.971202,1.23768 1.971546,2.46771 3,3.65625 C 61.815337,478.79047 88.261556,491.87122 117.875,492 l 2.625,0 C 67.525103,491.60021 25,448.82259 25,395.75 l 0,-269.5 C 25,72.9275 67.9275,30 121.25,30 l 244,0 -10,-10 z M 487,151.75 l 0,244 c 0,50.25665 -38.12758,91.26134 -87.15625,95.8125 l 3.1875,0 c 30.1265,-2.82213 56.21626,-19.11931 72.21875,-42.84375 0.44099,-0.65379 0.88696,-1.30382 1.3125,-1.96875 0.42554,-0.66493 0.84018,-1.35543 1.25,-2.03125 1.22947,-2.02747 2.38524,-4.09784 3.46875,-6.21875 0.36117,-0.70697 0.71805,-1.40816 1.0625,-2.125 0.34445,-0.71684 0.67253,-1.46103 1,-2.1875 1.60228,-3.55458 3.00961,-7.20174 4.1875,-10.96875 0.0255,-0.0819 0.0372,-0.16801 0.0625,-0.25 0.71629,-2.31229 1.35875,-4.67961 1.90625,-7.0625 0.1825,-0.7943 0.33676,-1.57337 0.5,-2.375 0.16324,-0.80163 0.32503,-1.62878 0.46875,-2.4375 0.14372,-0.80872 0.2823,-1.62195 0.40625,-2.4375 0.0398,-0.26208 0.0872,-0.51848 0.125,-0.78125 0.079,-0.55396 0.14894,-1.09929 0.21875,-1.65625 0.025,-0.19753 0.0387,-0.39585 0.0625,-0.59375 0.0742,-0.62299 0.15612,-1.24841 0.21875,-1.875 0.0136,-0.1345 0.0182,-0.27159 0.0312,-0.40625 0.0671,-0.70043 0.13504,-1.38901 0.1875,-2.09375 0.005,-0.0616 -0.005,-0.12589 0,-0.1875 0.0474,-0.65349 0.0903,-1.31169 0.125,-1.96875 0.006,-0.11421 0.0255,-0.22944 0.0312,-0.34375 5.1e-4,-0.0103 -5e-4,-0.021 0,-0.0312 0.0387,-0.76781 0.0726,-1.54004 0.0937,-2.3125 8.9e-4,-0.0342 -8.7e-4,-0.0596 0,-0.0937 1e-4,-0.0483 -4e-5,-0.081 0,-0.125 0.008,-0.31325 -0.005,-0.62352 0,-0.9375 0.0211,-10.67233 0.028,-23.05015 0.0312,-37.46875 0.003,-14.4186 0,-30.88391 0,-49.65625 l 0,-151.375 -5,-5 z"
           transform="translate(1532.187,-330.41615)"
           id="rect6809-2-3-8"
           style="opacity:0.5;color:#000000;fill:url(#linearGradient4084-8-2);fill-opacity:1;fill-rule:nonzero;stroke:none;stroke-width:1.5;marker:none;visibility:visible;display:inline;overflow:visible;enable-background:accumulate" />
        <path
           d="m 112.90625,20.15625 c -4.73569,0.256362 -9.37556,0.852632 -13.90625,1.75 -1.51023,0.299123 -3.015922,0.633019 -4.5,1 -2.226117,0.550471 -4.431221,1.176579 -6.59375,1.875 -2.162529,0.698421 -4.281752,1.471807 -6.375,2.3125 -9.76849,3.923234 -18.747925,9.359992 -26.65625,16.03125 -5.083924,4.288666 -9.725026,9.084055 -13.84375,14.3125 -1.372908,1.742815 -2.683225,3.539121 -3.9375,5.375 -0.109552,0.160436 -0.235127,0.307628 -0.34375,0.46875 -0.306456,0.454303 -0.607242,0.915291 -0.90625,1.375 -0.808977,1.243759 -1.590452,2.530323 -2.34375,3.8125 -0.166868,0.284301 -0.335918,0.557614 -0.5,0.84375 -0.207159,0.360853 -0.391059,0.730006 -0.59375,1.09375 -0.184795,0.331891 -0.381451,0.665735 -0.5625,1 -0.170654,0.314981 -0.332698,0.620433 -0.5,0.9375 -0.347966,0.659456 -0.697942,1.331675 -1.03125,2 -0.666617,1.33665 -1.29953,2.691638 -1.90625,4.0625 -0.879859,1.988008 -1.719204,4.006876 -2.46875,6.0625 -0.02575,0.07061 -0.03691,0.148066 -0.0625,0.21875 -0.255282,0.70525 -0.51044,1.412248 -0.75,2.125 -0.0063,0.0187 0.0063,0.04379 0,0.0625 -0.478277,1.425001 -0.929585,2.858721 -1.34375,4.3125 -0.01792,0.06293 -0.0447,0.124518 -0.0625,0.1875 -0.188998,0.668565 -0.356058,1.325628 -0.53125,2 -0.02999,0.115391 -0.06417,0.228192 -0.09375,0.34375 -0.160255,0.626112 -0.320519,1.275303 -0.46875,1.90625 -0.14068,0.598804 -0.276512,1.178203 -0.40625,1.78125 -0.05606,0.260594 -0.102244,0.519878 -0.15625,0.78125 -0.01964,0.09505 -0.04314,0.186096 -0.0625,0.28125 -0.11135,0.546937 -0.210215,1.105987 -0.3125,1.65625 -0.04812,0.25885 -0.110151,0.52168 -0.15625,0.78125 -0.0886,0.49905 -0.168912,0.99832 -0.25,1.5 -0.05057,0.31267 -0.108609,0.62383 -0.15625,0.9375 -0.06911,0.45519 -0.124613,0.91774 -0.1875,1.375 -0.105954,0.7704 -0.193117,1.53638 -0.28125,2.3125 -0.08813,0.77612 -0.179899,1.56213 -0.25,2.34375 -0.139283,1.553 -0.245648,3.11401 -0.3125,4.6875 -4.41e-4,0.0104 4.38e-4,0.0209 0,0.0312 -2.7e-5,0.008 2.7e-5,0.0229 0,0.0312 C 19.995828,144.52902 20,188.32263 20,256.0625 c 0,67.69194 -0.0033,111.44271 0.09375,141.84375 1.07e-4,0.0334 -1.07e-4,0.0917 0,0.125 0.0022,0.0524 -0.0023,0.10389 0,0.15625 0.0084,0.18714 0.02184,0.37564 0.03125,0.5625 0.10587,2.14272 0.291576,4.27142 0.53125,6.375 0.0023,0.0206 -0.0024,0.0419 0,0.0625 0.08856,0.77298 0.206258,1.51395 0.3125,2.28125 0.107671,0.77762 0.218135,1.57218 0.34375,2.34375 0.110714,0.67613 0.219415,1.35992 0.34375,2.03125 0.01731,0.0939 0.04493,0.18743 0.0625,0.28125 0.08949,0.47548 0.184986,0.96451 0.28125,1.4375 0.115748,0.56872 0.218291,1.12246 0.34375,1.6875 0.05136,0.2313 0.103277,0.45683 0.15625,0.6875 0.05544,0.24229 0.130278,0.47716 0.1875,0.71875 0.168714,0.71001 0.347315,1.42115 0.53125,2.125 0.01079,0.0414 0.02041,0.0836 0.03125,0.125 0.153969,0.58602 0.304342,1.16838 0.46875,1.75 0.04405,0.15622 0.08021,0.31285 0.125,0.46875 0.179375,0.62283 0.371264,1.2574 0.5625,1.875 0.03482,0.11268 0.05854,0.23125 0.09375,0.34375 0.205574,0.65538 0.437456,1.2882 0.65625,1.9375 0.256854,0.76225 0.50641,1.52761 0.78125,2.28125 0.01464,0.0402 0.01656,0.0848 0.03125,0.125 0.261099,0.71305 0.535514,1.41991 0.8125,2.125 0.277337,0.70739 0.58189,1.42582 0.875,2.125 0.01273,0.0303 0.01849,0.0635 0.03125,0.0937 0.280961,0.66829 0.579817,1.30817 0.875,1.96875 0.126258,0.28202 0.246174,0.56316 0.375,0.84375 0.186593,0.40717 0.370539,0.81463 0.5625,1.21875 0.05022,0.10551 0.105669,0.2072 0.15625,0.3125 0.296257,0.61798 0.597551,1.2331 0.90625,1.84375 0.104796,0.20699 0.206286,0.41886 0.3125,0.625 0.310007,0.60166 0.646774,1.18698 0.96875,1.78125 0.377433,0.69663 0.762605,1.40751 1.15625,2.09375 0.251968,0.43977 0.491461,0.87707 0.75,1.3125 0.144428,0.24294 0.291042,0.47718 0.4375,0.71875 0.409604,0.6756 0.82469,1.33529 1.25,2 0.85062,1.32942 1.744326,2.65318 2.65625,3.9375 0.379219,0.53462 0.766661,1.06718 1.15625,1.59375 0.137991,0.18627 0.266973,0.37725 0.40625,0.5625 0.294429,0.39216 0.606107,0.7687 0.90625,1.15625 0.199718,0.25754 0.39153,0.52578 0.59375,0.78125 0.08327,0.10531 0.166308,0.20754 0.25,0.3125 0.325327,0.4076 0.668339,0.81652 1,1.21875 0.500041,0.60644 0.985773,1.18722 1.5,1.78125 0.514227,0.59403 1.03434,1.19989 1.5625,1.78125 1.056321,1.16272 2.139466,2.29572 3.25,3.40625 1.105203,1.1052 2.218105,2.19849 3.375,3.25 0.0056,0.005 0.02567,-0.005 0.03125,0 1.744081,1.58448 3.550447,3.1057 5.40625,4.5625 16.595324,13.02732 37.53268,20.80712 60.34375,20.90625 0.14694,6.4e-4 0.2904,0 0.4375,0 l 139.3125,-0.21875 145.40625,-0.21875 c 30.1265,-2.8202 56.21626,-19.12761 72.21875,-42.84375 0.44099,-0.65356 0.88696,-1.30404 1.3125,-1.96875 0.29883,-0.46679 0.5839,-0.93407 0.875,-1.40625 0.12249,-0.19908 0.25389,-0.39372 0.375,-0.59375 0.0486,-0.0801 0.0766,-0.16976 0.125,-0.25 0.35959,-0.59664 0.71533,-1.17635 1.0625,-1.78125 0.78772,-1.37249 1.55891,-2.77397 2.28125,-4.1875 0.36117,-0.70677 0.71805,-1.4396 1.0625,-2.15625 0.34445,-0.71665 0.67253,-1.42998 1,-2.15625 0.9824,-2.17882 1.89373,-4.39533 2.71875,-6.65625 0.0158,-0.0433 0.0468,-0.0817 0.0625,-0.125 0.25824,-0.71082 0.4765,-1.43778 0.71875,-2.15625 0.23268,-0.69009 0.46976,-1.36554 0.6875,-2.0625 0.0226,-0.0724 0.0401,-0.14628 0.0625,-0.21875 0.71629,-2.31184 1.35875,-4.67996 1.90625,-7.0625 0.1825,-0.79418 0.33676,-1.57347 0.5,-2.375 0.16324,-0.80153 0.32503,-1.62888 0.46875,-2.4375 0.14372,-0.80862 0.2823,-1.62203 0.40625,-2.4375 0.0414,-0.2723 0.0858,-0.53945 0.125,-0.8125 0.0775,-0.54368 0.15007,-1.07843 0.21875,-1.625 0.0263,-0.20779 0.0375,-0.4168 0.0625,-0.625 0.073,-0.61274 0.15696,-1.22753 0.21875,-1.84375 0.0146,-0.14477 0.0173,-0.29255 0.0312,-0.4375 0.0731,-0.7627 0.1318,-1.51345 0.1875,-2.28125 0.0557,-0.7678 0.11813,-1.53979 0.15625,-2.3125 0.0392,-0.77814 0.0726,-1.56082 0.0937,-2.34375 8.9e-4,-0.0342 -8.7e-4,-0.0596 0,-0.0937 7e-5,-0.0363 -4e-5,-0.06 0,-0.0937 0.008,-0.32368 -0.005,-0.64428 0,-0.96875 0.0211,-10.67233 0.028,-23.05015 0.0312,-37.46875 0.003,-14.4186 0,-30.88391 0,-49.65625 l 0,-151.375 -5,-5 0,234 C 487,439.0725 444.0725,482 390.75,482 l -269.5,0 C 67.9275,482 25,439.0725 25,385.75 l 0,-269.5 c 0,-51.518951 40.071412,-93.32402 90.875,-96.09375 -0.86176,0.0023 -2.12816,-0.0024 -2.96875,0 z"
           transform="translate(1532.187,-330.41615)"
           id="path3981-7-8"
           style="opacity:0.15;color:#000000;fill:url(#linearGradient4086-12-9);fill-opacity:1;fill-rule:nonzero;stroke:none;stroke-width:1.5;marker:none;visibility:visible;display:inline;overflow:visible;enable-background:accumulate" />
      </g>
    </g>
  </g>
  <path
     d="m 355.24998,20.00003 0,102.5625 c 0,9.77909 4.10646,18.58192 10.6875,24.8125 l 126.0625,126.09375 0,-116.71875 -68.375,-68.375 z"
     id="path6657"
     style="fill:#000000;fill-opacity:0.15686275;fill-rule:nonzero;stroke:none" />
  <path
     d="m 355.25321,20.00002 0,102.555 c 0,18.88151 15.30349,34.185 34.185,34.185 l 102.555,0 -136.74,-136.74"
     id="path24"
     style="fill:#ffffff;fill-opacity:1;fill-rule:nonzero;stroke:none" />
  <path
     d="m 256,144.0625 c -1.53746,0 -2.94605,0.78809 -3.75,2.09375 l -8,12.90625 c -1.25581,0.10283 -2.503,0.2371 -3.75,0.375 l -10.34375,-11.09375 c -1.04748,-1.12085 -2.58854,-1.6401 -4.09375,-1.34375 -1.51107,0.3022 -2.77556,1.36892 -3.3125,2.8125 l -5.28125,14.15625 c -1.22646,0.35209 -2.44446,0.74357 -3.65625,1.125 L 201.53125,156.25 c -1.247,-0.90077 -2.86114,-1.09268 -4.28125,-0.5 -1.41716,0.58683 -2.44102,1.86101 -2.6875,3.375 l -2.4375,14.9375 c -1.1267,0.58389 -2.23171,1.19927 -3.34375,1.8125 L 175,169.59375 c -1.39957,-0.63963 -3.03908,-0.51301 -4.3125,0.34375 -1.27926,0.85088 -2.02743,2.30922 -1.96875,3.84375 L 169.25,188.9375 c -0.97998,0.78339 -1.94679,1.59644 -2.90625,2.40625 l -14.75,-3.46875 c -1.49933,-0.34915 -3.07063,0.0705 -4.15625,1.15625 -1.09149,1.08855 -1.5396,2.65693 -1.1875,4.15625 l 3.46875,14.78125 c -0.80687,0.95653 -1.59158,1.92624 -2.375,2.90625 l -15.15625,-0.53125 c -1.52865,-0.044 -2.98992,0.68945 -3.84375,1.96875 -0.85676,1.27339 -1.01171,2.90999 -0.375,4.3125 l 6.28125,13.78125 c -0.6103,1.10617 -1.19736,2.21119 -1.78125,3.34375 l -14.9375,2.4375 c -1.51694,0.24645 -2.78526,1.26739 -3.375,2.6875 -0.58682,1.42304 -0.42614,3.03425 0.46875,4.28125 l 8.84375,12.28125 c -0.38438,1.2118 -0.74166,2.42979 -1.09375,3.65625 l -14.1875,5.28125 c -1.43771,0.53696 -2.48196,1.77019 -2.78125,3.28125 -0.29926,1.50813 0.18866,3.07459 1.3125,4.125 L 117.8125,282.125 c -0.13802,1.247 -0.26939,2.49713 -0.375,3.75 l -12.875,7.96875 c -1.30568,0.80689 -2.125,2.24084 -2.125,3.78125 0,1.54042 0.81932,2.97732 2.125,3.78125 l 12.875,7.96875 c 0.10562,1.25579 0.23709,2.50301 0.375,3.75 l -11.09375,10.34375 c -1.12375,1.04748 -1.61176,2.58856 -1.3125,4.09375 0.29929,1.51108 1.34354,2.77262 2.78125,3.3125 l 14.1875,5.28125 c 0.35209,1.22645 0.70937,2.44448 1.09375,3.65625 l -8.84375,12.28125 c -0.89783,1.24994 -1.0585,2.86408 -0.46875,4.28125 0.58974,1.42305 1.85807,2.44398 3.375,2.6875 l 14.9375,2.4375 c 0.58389,1.13256 1.16508,2.23172 1.78125,3.34375 l -6.28125,13.78125 c -0.63963,1.39957 -0.48176,3.03323 0.375,4.3125 0.85676,1.2822 2.3151,2.03036 3.84375,1.96875 l 15.125,-0.53125 c 0.7893,0.98589 1.59645,1.94679 2.40625,2.90625 l -3.46875,14.75 c -0.3521,1.49639 0.096,3.0677 1.1875,4.15625 1.08268,1.09444 2.65692,1.53958 4.15625,1.1875 l 14.75,-3.46875 c 0.95946,0.81567 1.92627,1.59453 2.90625,2.375 l -0.53125,15.15625 c -0.0588,1.53454 0.68949,2.98699 1.96875,3.84375 1.27342,0.85383 2.91293,0.98339 4.3125,0.34375 l 13.78125,-6.28125 c 1.1091,0.61614 2.21412,1.22861 3.34375,1.8125 l 2.4375,14.9375 c 0.24648,1.51985 1.26739,2.79111 2.6875,3.375 1.41718,0.58976 3.03425,0.39489 4.28125,-0.5 L 213.8125,430.125 c 1.21179,0.38438 2.42979,0.77294 3.65625,1.125 l 5.28125,14.15625 c 0.53693,1.4377 1.80144,2.51908 3.3125,2.8125 1.50815,0.30514 3.04629,-0.21709 4.09375,-1.34375 L 240.5,435.8125 c 1.247,0.14385 2.49421,0.26351 3.75,0.375 l 8,12.875 c 0.80396,1.29981 2.21255,2.09375 3.75,2.09375 1.53748,0 2.97439,-0.791 3.78125,-2.09375 l 7.96875,-12.875 c 1.25578,-0.11146 2.50301,-0.23123 3.75,-0.375 l 10.34375,11.0625 c 1.04746,1.1267 2.6198,1.64889 4.125,1.34375 1.51106,-0.29635 2.74432,-1.3748 3.28125,-2.8125 L 294.53125,431.25 c 1.22646,-0.35206 2.44446,-0.74062 3.65625,-1.125 l 12.28125,8.84375 c 1.24699,0.89489 2.86407,1.08976 4.28125,0.5 1.42011,-0.58389 2.44102,-1.85807 2.6875,-3.375 l 2.4375,-14.9375 c 1.1267,-0.58389 2.26296,-1.20514 3.375,-1.8125 L 337,425.625 c 1.39957,0.63964 3.03617,0.51008 4.3125,-0.34375 1.27929,-0.85676 2.0245,-2.30628 1.96875,-3.84375 L 342.75,406.28125 c 0.98,-0.7834 1.94971,-1.55933 2.90625,-2.375 l 14.78125,3.46875 c 1.49933,0.35208 3.04229,-0.0931 4.125,-1.1875 1.09146,-1.08855 1.53959,-2.65986 1.1875,-4.15625 l -3.46875,-14.75 c 0.8098,-0.95946 1.59452,-1.92036 2.375,-2.90625 l 15.1875,0.53125 c 1.52866,0.0616 2.95868,-0.68655 3.8125,-1.96875 0.85676,-1.27927 1.01757,-2.91293 0.375,-4.3125 L 377.75,364.84375 c 0.61324,-1.11203 1.2003,-2.21119 1.78125,-3.34375 l 14.9375,-2.4375 c 1.51984,-0.24352 2.78819,-1.26445 3.375,-2.6875 0.58682,-1.41717 0.43203,-3.03131 -0.46875,-4.28125 l -8.84375,-12.28125 c 0.38142,-1.21177 0.73871,-2.4298 1.09375,-3.65625 l 14.1875,-5.28125 c 1.44065,-0.53988 2.48784,-1.80142 2.78125,-3.3125 0.30514,-1.50813 -0.18586,-3.04627 -1.3125,-4.09375 L 394.1875,313.125 c 0.13499,-1.24699 0.26644,-2.49715 0.375,-3.75 l 12.875,-7.96875 c 1.30569,-0.80393 2.125,-2.24377 2.125,-3.78125 0,-1.53746 -0.81932,-2.97436 -2.125,-3.78125 l -12.875,-7.96875 c -0.10867,-1.25582 -0.24004,-2.503 -0.375,-3.75 l 11.09375,-10.34375 c 1.1267,-1.05041 1.61764,-2.61979 1.3125,-4.125 -0.29636,-1.51106 -1.3406,-2.74429 -2.78125,-3.28125 l -14.1875,-5.28125 c -0.35501,-1.22646 -0.7123,-2.44445 -1.09375,-3.65625 l 8.84375,-12.28125 c 0.90079,-1.247 1.08682,-2.85821 0.5,-4.28125 -0.58681,-1.41718 -1.88934,-2.43812 -3.40625,-2.6875 l -14.9375,-2.4375 c -0.58095,-1.13256 -1.17096,-2.23758 -1.78125,-3.34375 l 6.28125,-13.78125 c 0.64258,-1.40251 0.51301,-3.03911 -0.34375,-4.3125 -0.85382,-1.2793 -2.30042,-2.02744 -3.84375,-1.96875 L 364.6875,210.875 c -0.78342,-0.98001 -1.59352,-1.95266 -2.40625,-2.90625 L 365.75,193.1875 c 0.35209,-1.49932 -0.0647,-3.0677 -1.15625,-4.15625 -1.08267,-1.08564 -2.65691,-1.50832 -4.15625,-1.15625 l -14.78125,3.46875 c -0.95652,-0.80981 -1.92332,-1.62286 -2.90625,-2.40625 l 0.53125,-15.15625 c 0.0588,-1.53453 -0.68948,-2.99287 -1.96875,-3.84375 -1.28221,-0.85676 -2.91293,-0.98045 -4.3125,-0.34375 l -13.75,6.28125 c -1.11202,-0.61031 -2.2483,-1.22861 -3.375,-1.8125 l -2.4375,-14.9375 c -0.24649,-1.51399 -1.23614,-2.78817 -2.65625,-3.375 -1.41719,-0.58976 -3.0655,-0.39784 -4.3125,0.5 l -12.28125,8.84375 c -1.20886,-0.38438 -2.39853,-0.77291 -3.625,-1.125 L 289.25,149.8125 c -0.53694,-1.44358 -1.77018,-2.51323 -3.28125,-2.8125 -1.50814,-0.29635 -3.07752,0.22293 -4.125,1.34375 l -10.3125,11.09375 c -1.24698,-0.13801 -2.5284,-0.27231 -3.78125,-0.375 l -7.96875,-12.90625 C 258.97438,144.85059 257.53748,144.0625 256,144.0625 z"
     id="path5220"
     style="fill:#fbfbfb;fill-opacity:1;stroke:none" />
  <path
     d="m 407.44984,293.84836 -12.89248,-7.98076 c -0.10867,-1.25582 -0.23179,-2.50867 -0.36675,-3.75567 l 11.07918,-10.33392 c 1.1267,-1.05041 1.63137,-2.60548 1.32623,-4.11069 -0.29636,-1.51106 -1.35556,-2.75512 -2.79621,-3.29208 l -14.16295,-5.29605 c -0.35501,-1.22646 -0.72764,-2.4441 -1.10909,-3.6559 l 8.8346,-12.27044 c 0.90079,-1.247 1.08562,-2.86956 0.4988,-4.2926 -0.58681,-1.41718 -1.86904,-2.43239 -3.38595,-2.68177 l -14.93461,-2.42946 c -0.58095,-1.13256 -1.18539,-2.24751 -1.79568,-3.35368 l 6.27604,-13.77564 c 0.64258,-1.40251 0.51055,-3.03386 -0.34621,-4.30725 -0.85382,-1.2793 -2.30035,-2.02749 -3.84368,-1.9688 l -15.15759,0.52815 c -0.78342,-0.98001 -1.5815,-1.9512 -2.39423,-2.90479 l 3.48278,-14.76442 c 0.35209,-1.49932 -0.0909,-3.06907 -1.18247,-4.15762 -1.08267,-1.08564 -2.65535,-1.53454 -4.15469,-1.18247 l -14.76148,3.47985 c -0.95652,-0.80981 -1.92772,-1.61082 -2.91065,-2.39421 l 0.53107,-15.15762 c 0.0588,-1.53453 -0.68951,-2.99279 -1.96878,-3.84367 -1.28221,-0.85676 -2.90476,-0.98586 -4.30433,-0.34916 l -13.77272,6.27899 c -1.11202,-0.61031 -2.22697,-1.21471 -3.35367,-1.7986 l -2.43531,-14.93756 c -0.24649,-1.51399 -1.26167,-2.79913 -2.68178,-3.38596 -1.41719,-0.58976 -3.04268,-0.39903 -4.28968,0.49881 l -12.27923,8.8346 c -1.20886,-0.38438 -2.42356,-0.75407 -3.65003,-1.10616 l -5.29607,-14.16588 c -0.53694,-1.44358 -1.78099,-2.5028 -3.29206,-2.80207 -1.50814,-0.29635 -3.06028,0.2054 -4.10776,1.32622 l -10.33394,11.08798 c -1.24698,-0.13801 -2.50279,-0.26406 -3.75564,-0.36675 l -7.98079,-12.89542 c -0.80687,-1.30566 -2.23579,-2.1008 -3.77327,-2.1008 -1.53746,0 -2.96637,0.79514 -3.77032,2.1008 l -7.98076,12.89542 c -1.25581,0.10283 -2.51161,0.22885 -3.75861,0.36675 l -10.33685,-11.08798 c -1.04748,-1.12085 -2.60255,-1.62257 -4.10776,-1.32622 -1.51107,0.3022 -2.75512,1.35849 -3.29206,2.80207 l -5.29607,14.16588 c -1.22646,0.35209 -2.44117,0.72473 -3.65296,1.10616 l -12.2763,-8.8346 c -1.247,-0.90077 -2.87252,-1.09149 -4.29263,-0.49881 -1.41716,0.58683 -2.43529,1.87197 -2.68177,3.38596 l -2.43529,14.93756 c -1.1267,0.58389 -2.24166,1.18537 -3.3537,1.7986 l -13.77269,-6.27899 c -1.39957,-0.63963 -3.03093,-0.5076 -4.30435,0.34916 -1.27926,0.85088 -2.02747,2.30914 -1.96879,3.84367 l 0.52814,15.15762 c -0.97998,0.78339 -1.95116,1.5844 -2.91062,2.39421 l -14.76151,-3.47985 c -1.49933,-0.34915 -3.07201,0.0967 -4.15763,1.18247 -1.09149,1.08855 -1.53454,2.6583 -1.18244,4.15762 l 3.47691,14.76442 c -0.80687,0.95653 -1.60494,1.92478 -2.38836,2.90479 l -15.1576,-0.52815 c -1.52865,-0.044 -2.98984,0.6895 -3.84367,1.9688 -0.85676,1.27339 -0.98587,2.90474 -0.34916,4.30725 l 6.27899,13.77564 c -0.6103,1.10617 -1.21472,2.22112 -1.79861,3.35368 l -14.9346,2.42946 c -1.51694,0.24645 -2.79623,1.26166 -3.38597,2.68177 -0.58682,1.42304 -0.3961,3.0456 0.49879,4.2926 l 8.83461,12.27044 c -0.38438,1.2118 -0.757,2.42944 -1.10909,3.6559 l -14.16589,5.29605 c -1.43771,0.53696 -2.49691,1.78102 -2.7962,3.29208 -0.29926,1.50813 0.20238,3.06028 1.32622,4.11069 l 11.08213,10.33392 c -0.13802,1.247 -0.26115,2.5028 -0.36676,3.75567 l -12.89247,7.98076 c -1.30568,0.80689 -2.10083,2.23285 -2.10083,3.77326 0,1.54042 0.79515,2.9664 2.10083,3.77033 l 12.89247,7.98079 c 0.10562,1.25579 0.22885,2.50866 0.36676,3.75565 l -11.08213,10.33687 c -1.12375,1.04748 -1.62548,2.60255 -1.32622,4.10774 0.29929,1.51108 1.35849,2.7522 2.7962,3.29208 l 14.16589,5.29606 c 0.35209,1.22645 0.72471,2.44412 1.10909,3.65589 l -8.83461,12.27338 c -0.89783,1.24994 -1.08854,2.87249 -0.49879,4.28966 0.58974,1.42305 1.87195,2.43825 3.38888,2.68177 l 14.93169,2.42947 c 0.58389,1.13256 1.18244,2.24752 1.79861,3.35955 l -6.27899,13.76978 c -0.63963,1.39957 -0.5076,3.02799 0.34916,4.30726 0.85676,1.2822 2.31502,2.0304 3.84367,1.96879 l 15.15172,-0.53109 c 0.7893,0.98589 1.58444,1.9512 2.39424,2.91066 l -3.47691,14.76736 c -0.3521,1.49639 0.0909,3.06026 1.18244,4.14881 1.08268,1.09444 2.6583,1.53162 4.15763,1.17954 l 14.76151,-3.47692 c 0.95946,0.81567 1.93064,1.60788 2.91062,2.38835 l -0.52814,15.16054 c -0.0588,1.53454 0.68953,2.98985 1.96879,3.84661 1.27342,0.85383 2.90478,0.98293 4.30435,0.34329 l 13.77269,-6.27605 c 1.1091,0.61614 2.22407,1.21472 3.3537,1.79861 l 2.43529,14.92875 c 0.24648,1.51985 1.26166,2.80499 2.68177,3.38888 1.41718,0.58976 3.04563,0.39904 4.29263,-0.49585 l 12.27042,-8.84048 c 1.21179,0.38438 2.42944,0.75995 3.6559,1.11201 l 5.29607,14.16003 c 0.53693,1.4377 1.781,2.50278 3.29206,2.7962 1.50815,0.30514 3.06029,-0.19957 4.10775,-1.32623 l 10.33687,-11.08212 c 1.247,0.14385 2.50281,0.26408 3.7586,0.37557 l 7.98076,12.89247 c 0.80396,1.29981 2.23288,2.10083 3.77033,2.10083 1.53748,0 2.9664,-0.79808 3.77326,-2.10083 l 7.9808,-12.89247 c 1.25578,-0.11146 2.50866,-0.2318 3.75565,-0.37557 l 10.33393,11.08212 c 1.04746,1.1267 2.60255,1.63137 4.10775,1.32623 1.51106,-0.29635 2.75513,-1.3585 3.29206,-2.7962 l 5.29607,-14.16003 c 1.22646,-0.35206 2.44411,-0.72763 3.6559,-1.11201 l 12.27337,8.84048 c 1.24699,0.89489 2.8725,1.08561 4.28968,0.49585 1.42011,-0.58389 2.43529,-1.87195 2.68177,-3.38888 l 2.43531,-14.92875 c 1.1267,-0.58389 2.24164,-1.19125 3.35368,-1.79861 l 13.77272,6.27605 c 1.39957,0.63964 3.02799,0.51054 4.30432,-0.34329 1.27929,-0.85676 2.02454,-2.30914 1.96879,-3.84661 l -0.52814,-15.16054 c 0.98,-0.7834 1.95118,-1.57268 2.90772,-2.38835 l 14.76148,3.47692 c 1.49933,0.35208 3.07201,-0.0851 4.15472,-1.17954 1.09146,-1.08855 1.53453,-2.65242 1.18244,-4.14881 l -3.47692,-14.76736 c 0.8098,-0.95946 1.60788,-1.92477 2.38836,-2.91066 l 15.1576,0.53109 c 1.52866,0.0616 2.98985,-0.68659 3.84367,-1.96879 0.85676,-1.27927 0.98879,-2.90769 0.34622,-4.30726 l -6.27606,-13.76978 c 0.61324,-1.11203 1.21474,-2.22699 1.79569,-3.35955 l 14.93462,-2.42947 c 1.51984,-0.24352 2.79914,-1.25872 3.38595,-2.68177 0.58682,-1.41717 0.40198,-3.03972 -0.4988,-4.28966 l -8.83459,-12.27338 c 0.38142,-1.21177 0.75406,-2.42944 1.1091,-3.65589 l 14.16293,-5.29606 c 1.44065,-0.53988 2.50278,-1.781 2.79619,-3.29208 0.30514,-1.50813 -0.19957,-3.06026 -1.32621,-4.10774 l -11.0792,-10.33687 c 0.13499,-1.24699 0.25821,-2.5028 0.36677,-3.75565 l 12.89247,-7.98079 c 1.30569,-0.80393 2.10082,-2.23285 2.10082,-3.77033 0,-1.53746 -0.7922,-2.96637 -2.09788,-3.77326 z m -86.28919,106.95119 c -4.92343,-1.06213 -8.05413,-5.91516 -6.99785,-10.85327 1.05333,-4.93223 5.90343,-8.07174 10.82393,-7.00957 4.92344,1.05334 8.05999,5.91517 7.00372,10.84446 -1.05629,4.92929 -5.90929,8.07174 -10.8298,7.01838 z m -4.38062,-29.62862 c -4.49213,-0.96241 -8.91091,1.89542 -9.87328,6.39636 l -4.57721,21.36031 c -14.1248,6.41102 -29.81054,9.97302 -46.32956,9.97302 -16.89754,0 -32.92364,-3.73806 -47.30077,-10.42195 l -4.57428,-21.36031 c -0.96237,-4.49506 -5.38115,-7.35872 -9.87033,-6.39342 l -18.85752,4.04908 c -3.50039,-3.60309 -6.75725,-7.44092 -9.75004,-11.4929 l 91.75544,0 c 1.03867,0 1.73113,-0.18791 1.73113,-1.13258 l 0,-32.45712 c 0,-0.94478 -0.69246,-1.13255 -1.73113,-1.13255 l -26.83536,0 0,-20.57398 29.0242,0 c 2.64951,0 14.16586,0.75701 17.84818,15.47743 1.15312,4.52734 3.68524,19.2536 5.41636,23.96874 1.72525,5.28725 8.74952,15.85006 16.23442,15.85006 l 45.72221,0 c 0.51936,0 1.07389,-0.0588 1.65778,-0.16437 -3.17177,4.31022 -6.65162,8.38863 -10.39848,12.20004 l -19.29176,-4.14591 z m -126.90607,29.18264 c -4.92341,1.06214 -9.77056,-2.07734 -10.82977,-7.0096 -1.05335,-4.94102 2.07735,-9.7911 7.00076,-10.85324 4.92345,-1.05335 9.77353,2.08613 10.8298,7.01838 1.05335,4.9293 -2.08029,9.78818 -7.00079,10.84446 z m -34.80732,-141.1453 c 2.04215,4.6095 -0.0352,10.01119 -4.63881,12.05039 -4.60361,2.04508 -9.99064,-0.0352 -12.03278,-4.64763 -2.04213,-4.6124 0.0352,-10.00531 4.63883,-12.05038 4.60653,-2.04214 9.99063,0.0352 12.03276,4.64762 z m -10.69774,25.35952 19.64385,-8.72897 c 4.19578,-1.86316 6.09122,-6.78073 4.22803,-10.98531 l -4.0461,-9.14856 15.91165,0 0,71.72136 -32.10208,0 c -2.78445,-9.78821 -4.27791,-20.11919 -4.27791,-30.79641 0,-4.07548 0.22004,-8.104 0.64256,-12.06211 z m 86.2041,-6.96558 0,-21.14026 37.89108,0 c 1.95704,0 13.81964,2.26221 13.81964,11.13202 0,7.3646 -9.09867,10.0053 -16.58064,10.0053 l -35.13008,0 z m 137.70355,19.02769 c 0,2.80501 -0.10258,5.58068 -0.30807,8.3358 l -11.5193,0 c -1.15312,0 -1.61669,0.75699 -1.61669,1.88663 l 0,5.2902 c 0,12.45237 -7.02133,15.16053 -13.17415,15.85006 -5.85942,0.66017 -12.35554,-2.45292 -13.15655,-6.0384 -3.45638,-19.44142 -9.21604,-23.59316 -18.31177,-30.76706 11.28752,-7.16802 23.03274,-17.74255 23.03274,-31.89669 0,-15.28378 -10.4777,-24.91059 -17.61931,-29.63157 -10.01998,-6.60467 -21.11384,-7.92795 -24.10663,-7.92795 l -119.1336,0 c 16.1552,-18.03009 38.04951,-30.80226 62.81338,-35.4499 l 14.04266,14.73216 c 3.17469,3.32435 8.43262,3.44758 11.75403,0.26994 l 15.71215,-15.0285 c 32.92362,6.12935 60.79765,26.62411 76.8619,54.74166 l -10.75644,24.2944 c -1.85729,4.20458 0.0382,9.12215 4.23098,10.98531 l 20.70893,9.19843 c 0.35797,3.67644 0.54574,7.39102 0.54574,11.15548 z M 249.22511,173.74944 c 3.63829,-3.48571 9.40969,-3.3478 12.89248,0.29635 3.47692,3.65297 3.34489,9.43023 -0.30221,12.91302 -3.63829,3.48573 -9.40968,3.35075 -12.89248,-0.29929 -3.47397,-3.64709 -3.34194,-9.42435 0.30221,-12.91008 z m 106.74286,85.90188 c 2.03923,-4.60945 7.42623,-6.68974 12.02986,-4.64468 4.60362,2.04213 6.68096,7.44091 4.63882,12.05037 -2.0392,4.61243 -7.42623,6.69272 -12.03278,4.64763 -4.59774,-2.04213 -6.6751,-7.43795 -4.6359,-12.05332 z"
     id="path3"
     style="stroke:none" />
</svg>
