<?xml version="1.0" encoding="UTF-8" standalone="no"?>
<!-- Created with Inkscape (http://www.inkscape.org/) -->

<svg
   xmlns:dc="http://purl.org/dc/elements/1.1/"
   xmlns:cc="http://creativecommons.org/ns#"
   xmlns:rdf="http://www.w3.org/1999/02/22-rdf-syntax-ns#"
   xmlns:svg="http://www.w3.org/2000/svg"
   xmlns="http://www.w3.org/2000/svg"
   xmlns:xlink="http://www.w3.org/1999/xlink"
   version="1.1"
   width="512"
   height="512"
   id="svg2">
  <defs
     id="defs4">
    <linearGradient
       id="linearGradient3170">
      <stop
         id="stop3172"
         style="stop-color:#cc7110;stop-opacity:1"
         offset="0" />
      <stop
         id="stop3174"
         style="stop-color:#673f0b;stop-opacity:0.78448278"
         offset="1" />
    </linearGradient>
    <linearGradient
       id="linearGradient3938">
      <stop
         id="stop3940"
         style="stop-color:#b1f1ee;stop-opacity:0.93103451"
         offset="0" />
      <stop
         id="stop3942"
         style="stop-color:#132682;stop-opacity:1"
         offset="1" />
    </linearGradient>
    <linearGradient
       x1="64.477501"
       y1="56.3008"
       x2="78.466103"
       y2="48.0854"
       id="XMLID_74_-8-1"
       gradientUnits="userSpaceOnUse">
      <stop
         id="stop155-3-8"
         style="stop-color:#ffffff;stop-opacity:1"
         offset="0" />
      <stop
         id="stop157-94-6"
         style="stop-color:#e6e6e6;stop-opacity:1"
         offset="1" />
    </linearGradient>
    <radialGradient
       cx="558.35437"
       cy="385.4841"
       r="191.6187"
       fx="558.35437"
       fy="385.4841"
       id="radialGradient3867"
       xlink:href="#XMLID_74_-8-1"
       gradientUnits="userSpaceOnUse"
       gradientTransform="matrix(1,0,0,1.0499906,0,-19.270593)" />
    <linearGradient
       x1="200.0508"
       y1="185.0742"
       x2="200.0508"
       y2="217.4595"
       id="SVGID_2_"
       gradientUnits="userSpaceOnUse">
      <stop
         id="stop13"
         style="stop-color:#61b74a;stop-opacity:1"
         offset="0" />
      <stop
         id="stop15"
         style="stop-color:#449934;stop-opacity:1"
         offset="1" />
    </linearGradient>
    <linearGradient
       x1="200.0508"
       y1="185.0742"
       x2="200.0508"
       y2="217.4595"
       id="linearGradient3021"
       xlink:href="#SVGID_2_"
       gradientUnits="userSpaceOnUse"
       gradientTransform="matrix(13.577628,0,0,13.577628,-2026.1619,-2566.7096)" />
    <linearGradient
       x1="19.244999"
       y1="21.030804"
       x2="19.360001"
       y2="44.984001"
       id="linearGradient2460"
       gradientUnits="userSpaceOnUse">
      <stop
         id="stop3602"
         style="stop-color:#fafafa;stop-opacity:1"
         offset="0" />
      <stop
         id="stop3604"
         style="stop-color:#f0f0f0;stop-opacity:1"
         offset="1" />
    </linearGradient>
    <linearGradient
       x1="19.244999"
       y1="21.030804"
       x2="19.360001"
       y2="44.984001"
       id="linearGradient3096"
       xlink:href="#linearGradient2460"
       gradientUnits="userSpaceOnUse"
       gradientTransform="matrix(11.076923,0,0,11.076923,-9.8523013,-20.578025)" />
    <linearGradient
       x1="1012.5133"
       y1="484.41721"
       x2="1006.8082"
       y2="20.625916"
       id="linearGradient4114-2"
       xlink:href="#ButtonShadow-0-1-1-5"
       gradientUnits="userSpaceOnUse"
       gradientTransform="matrix(1.0317796,0,0,1.0317796,-830.86406,592.67791)" />
    <linearGradient
       x1="45.447727"
       y1="92.539597"
       x2="45.447727"
       y2="7.0165396"
       id="ButtonShadow-0-1-1-5"
       gradientUnits="userSpaceOnUse"
       gradientTransform="matrix(1.0058652,0,0,0.994169,100,0)">
      <stop
         id="stop3750-8-9-3-6"
         style="stop-color:#000000;stop-opacity:1"
         offset="0" />
      <stop
         id="stop3752-5-6-4-2"
         style="stop-color:#000000;stop-opacity:0.58823532"
         offset="1" />
    </linearGradient>
    <linearGradient
       x1="1012.5133"
       y1="484.41721"
       x2="1006.8082"
       y2="20.625916"
       id="linearGradient4112-2"
       xlink:href="#ButtonShadow-0-1-1-5"
       gradientUnits="userSpaceOnUse"
       gradientTransform="matrix(1.0402541,0,0,1.0402541,-837.95116,592.51825)" />
    <linearGradient
       x1="45.447727"
       y1="92.539597"
       x2="45.447727"
       y2="7.0165396"
       id="linearGradient5292"
       gradientUnits="userSpaceOnUse"
       gradientTransform="matrix(1.0058652,0,0,0.994169,100,0)">
      <stop
         id="stop5294"
         style="stop-color:#000000;stop-opacity:1"
         offset="0" />
      <stop
         id="stop5296"
         style="stop-color:#000000;stop-opacity:0.58823532"
         offset="1" />
    </linearGradient>
    <linearGradient
       x1="1012.5133"
       y1="484.41721"
       x2="1006.8082"
       y2="20.625916"
       id="linearGradient4110-6"
       xlink:href="#ButtonShadow-0-1-1-5"
       gradientUnits="userSpaceOnUse"
       gradientTransform="matrix(1.023305,0,0,1.023305,-823.77704,592.83757)" />
    <linearGradient
       x1="45.447727"
       y1="92.539597"
       x2="45.447727"
       y2="7.0165396"
       id="linearGradient5299"
       gradientUnits="userSpaceOnUse"
       gradientTransform="matrix(1.0058652,0,0,0.994169,100,0)">
      <stop
         id="stop5301"
         style="stop-color:#000000;stop-opacity:1"
         offset="0" />
      <stop
         id="stop5303"
         style="stop-color:#000000;stop-opacity:0.58823532"
         offset="1" />
    </linearGradient>
    <linearGradient
       x1="1012.5133"
       y1="484.41721"
       x2="1006.8082"
       y2="20.625916"
       id="linearGradient4116-6"
       xlink:href="#ButtonShadow-0-1-1-5"
       gradientUnits="userSpaceOnUse"
       gradientTransform="matrix(1.0148305,0,0,1.0148305,-816.68996,592.99723)" />
    <linearGradient
       x1="45.447727"
       y1="92.539597"
       x2="45.447727"
       y2="7.0165396"
       id="linearGradient5306"
       gradientUnits="userSpaceOnUse"
       gradientTransform="matrix(1.0058652,0,0,0.994169,100,0)">
      <stop
         id="stop5308"
         style="stop-color:#000000;stop-opacity:1"
         offset="0" />
      <stop
         id="stop5310"
         style="stop-color:#000000;stop-opacity:0.58823532"
         offset="1" />
    </linearGradient>
    <linearGradient
       x1="1012.5133"
       y1="484.41721"
       x2="1006.8082"
       y2="20.625916"
       id="linearGradient3372"
       xlink:href="#ButtonShadow-0-1-1-5"
       gradientUnits="userSpaceOnUse"
       gradientTransform="matrix(1.0074153,0,0,1.0074153,-810.48879,593.1369)" />
    <linearGradient
       x1="45.447727"
       y1="92.539597"
       x2="45.447727"
       y2="7.0165396"
       id="linearGradient5313"
       gradientUnits="userSpaceOnUse"
       gradientTransform="matrix(1.0058652,0,0,0.994169,100,0)">
      <stop
         id="stop5315"
         style="stop-color:#000000;stop-opacity:1"
         offset="0" />
      <stop
         id="stop5317"
         style="stop-color:#000000;stop-opacity:0.58823532"
         offset="1" />
    </linearGradient>
    <linearGradient
       x1="1016.1035"
       y1="476.25983"
       x2="1011.9534"
       y2="251.66064"
       id="linearGradient4082"
       xlink:href="#linearGradient4487"
       gradientUnits="userSpaceOnUse"
       gradientTransform="translate(-146.22032,369.08845)" />
    <linearGradient
       id="linearGradient4487">
      <stop
         id="stop4489"
         style="stop-color:#000000;stop-opacity:1"
         offset="0" />
      <stop
         id="stop4491"
         style="stop-color:#000000;stop-opacity:0"
         offset="1" />
    </linearGradient>
    <linearGradient
       id="linearGradient3737">
      <stop
         id="stop3739"
         style="stop-color:#ffffff;stop-opacity:1"
         offset="0" />
      <stop
         id="stop3741"
         style="stop-color:#ffffff;stop-opacity:0"
         offset="1" />
    </linearGradient>
    <linearGradient
       id="linearGradient4046">
      <stop
         id="stop4048"
         style="stop-color:#000000;stop-opacity:1"
         offset="0" />
      <stop
         id="stop4050"
         style="stop-color:#ffffff;stop-opacity:0.2"
         offset="1" />
    </linearGradient>
    <linearGradient
       x1="1012.5133"
       y1="484.41721"
       x2="1006.8082"
       y2="20.625916"
       id="linearGradient5342"
       xlink:href="#ButtonShadow-0-1-1-5"
       gradientUnits="userSpaceOnUse"
       gradientTransform="matrix(1.0074153,0,0,1.0074153,-810.48879,593.1369)" />
    <linearGradient
       x1="1012.5133"
       y1="484.41721"
       x2="1006.8082"
       y2="20.625916"
       id="linearGradient4114-2-6"
       xlink:href="#ButtonShadow-0-1-1-5-9"
       gradientUnits="userSpaceOnUse"
       gradientTransform="matrix(1.0317796,0,0,1.0317796,-830.86406,592.67791)" />
    <linearGradient
       x1="45.447727"
       y1="92.539597"
       x2="45.447727"
       y2="7.0165396"
       id="ButtonShadow-0-1-1-5-9"
       gradientUnits="userSpaceOnUse"
       gradientTransform="matrix(1.0058652,0,0,0.994169,100,0)">
      <stop
         id="stop3750-8-9-3-6-4"
         style="stop-color:#000000;stop-opacity:1"
         offset="0" />
      <stop
         id="stop3752-5-6-4-2-9"
         style="stop-color:#000000;stop-opacity:0.58823532"
         offset="1" />
    </linearGradient>
    <linearGradient
       x1="1012.5133"
       y1="484.41721"
       x2="1006.8082"
       y2="20.625916"
       id="linearGradient4112-2-6"
       xlink:href="#ButtonShadow-0-1-1-5-9"
       gradientUnits="userSpaceOnUse"
       gradientTransform="matrix(1.0402541,0,0,1.0402541,-837.95116,592.51825)" />
    <linearGradient
       x1="45.447727"
       y1="92.539597"
       x2="45.447727"
       y2="7.0165396"
       id="linearGradient5292-5"
       gradientUnits="userSpaceOnUse"
       gradientTransform="matrix(1.0058652,0,0,0.994169,100,0)">
      <stop
         id="stop5294-8"
         style="stop-color:#000000;stop-opacity:1"
         offset="0" />
      <stop
         id="stop5296-4"
         style="stop-color:#000000;stop-opacity:0.58823532"
         offset="1" />
    </linearGradient>
    <linearGradient
       x1="1012.5133"
       y1="484.41721"
       x2="1006.8082"
       y2="20.625916"
       id="linearGradient4110-6-7"
       xlink:href="#ButtonShadow-0-1-1-5-9"
       gradientUnits="userSpaceOnUse"
       gradientTransform="matrix(1.023305,0,0,1.023305,-823.77704,592.83757)" />
    <linearGradient
       x1="45.447727"
       y1="92.539597"
       x2="45.447727"
       y2="7.0165396"
       id="linearGradient5299-2"
       gradientUnits="userSpaceOnUse"
       gradientTransform="matrix(1.0058652,0,0,0.994169,100,0)">
      <stop
         id="stop5301-9"
         style="stop-color:#000000;stop-opacity:1"
         offset="0" />
      <stop
         id="stop5303-1"
         style="stop-color:#000000;stop-opacity:0.58823532"
         offset="1" />
    </linearGradient>
    <linearGradient
       x1="1012.5133"
       y1="484.41721"
       x2="1006.8082"
       y2="20.625916"
       id="linearGradient4116-6-3"
       xlink:href="#ButtonShadow-0-1-1-5-9"
       gradientUnits="userSpaceOnUse"
       gradientTransform="matrix(1.0148305,0,0,1.0148305,-816.68996,592.99723)" />
    <linearGradient
       x1="45.447727"
       y1="92.539597"
       x2="45.447727"
       y2="7.0165396"
       id="linearGradient5306-9"
       gradientUnits="userSpaceOnUse"
       gradientTransform="matrix(1.0058652,0,0,0.994169,100,0)">
      <stop
         id="stop5308-0"
         style="stop-color:#000000;stop-opacity:1"
         offset="0" />
      <stop
         id="stop5310-6"
         style="stop-color:#000000;stop-opacity:0.58823532"
         offset="1" />
    </linearGradient>
    <linearGradient
       x1="1012.5133"
       y1="484.41721"
       x2="1006.8082"
       y2="20.625916"
       id="linearGradient3372-9"
       xlink:href="#ButtonShadow-0-1-1-5-9"
       gradientUnits="userSpaceOnUse"
       gradientTransform="matrix(1.0074153,0,0,1.0074153,-810.48879,593.1369)" />
    <linearGradient
       x1="45.447727"
       y1="92.539597"
       x2="45.447727"
       y2="7.0165396"
       id="linearGradient5313-8"
       gradientUnits="userSpaceOnUse"
       gradientTransform="matrix(1.0058652,0,0,0.994169,100,0)">
      <stop
         id="stop5315-8"
         style="stop-color:#000000;stop-opacity:1"
         offset="0" />
      <stop
         id="stop5317-1"
         style="stop-color:#000000;stop-opacity:0.58823532"
         offset="1" />
    </linearGradient>
    <linearGradient
       x1="1016.1035"
       y1="476.25983"
       x2="1011.9534"
       y2="251.66064"
       id="linearGradient4082-7"
       xlink:href="#linearGradient4487-8"
       gradientUnits="userSpaceOnUse"
       gradientTransform="translate(-146.22032,369.08845)" />
    <linearGradient
       id="linearGradient4487-8">
      <stop
         id="stop4489-0"
         style="stop-color:#000000;stop-opacity:1"
         offset="0" />
      <stop
         id="stop4491-4"
         style="stop-color:#000000;stop-opacity:0"
         offset="1" />
    </linearGradient>
    <linearGradient
       x1="993.43896"
       y1="51.511765"
       x2="988.78552"
       y2="363.73825"
       id="linearGradient4084-7"
       xlink:href="#linearGradient3737-8"
       gradientUnits="userSpaceOnUse"
       gradientTransform="translate(778.59979,-360.55963)" />
    <linearGradient
       id="linearGradient3737-8">
      <stop
         id="stop3739-4"
         style="stop-color:#ffffff;stop-opacity:1"
         offset="0" />
      <stop
         id="stop3741-7"
         style="stop-color:#ffffff;stop-opacity:0"
         offset="1" />
    </linearGradient>
    <linearGradient
       x1="1764.6487"
       y1="155.59685"
       x2="1763.6903"
       y2="-55.941216"
       id="linearGradient4086-1"
       xlink:href="#linearGradient4046-2"
       gradientUnits="userSpaceOnUse" />
    <linearGradient
       id="linearGradient4046-2">
      <stop
         id="stop4048-2"
         style="stop-color:#000000;stop-opacity:1"
         offset="0" />
      <stop
         id="stop4050-7"
         style="stop-color:#ffffff;stop-opacity:0.2"
         offset="1" />
    </linearGradient>
    <linearGradient
       x1="1012.5133"
       y1="484.41721"
       x2="1006.8082"
       y2="20.625916"
       id="linearGradient5342-3"
       xlink:href="#ButtonShadow-0-1-1-5-9"
       gradientUnits="userSpaceOnUse"
       gradientTransform="matrix(1.0074153,0,0,1.0074153,-810.48879,593.1369)" />
    <linearGradient
       id="linearGradient4487-1">
      <stop
         id="stop4489-6"
         style="stop-color:#000000;stop-opacity:1"
         offset="0" />
      <stop
         id="stop4491-0"
         style="stop-color:#000000;stop-opacity:0"
         offset="1" />
    </linearGradient>
    <linearGradient
       x1="993.43896"
       y1="51.511765"
       x2="988.78552"
       y2="363.73825"
       id="linearGradient4084-8"
       xlink:href="#linearGradient3737-9"
       gradientUnits="userSpaceOnUse"
       gradientTransform="translate(778.59979,-360.55963)" />
    <linearGradient
       id="linearGradient3737-9">
      <stop
         id="stop3739-7"
         style="stop-color:#ffffff;stop-opacity:1"
         offset="0" />
      <stop
         id="stop3741-4"
         style="stop-color:#ffffff;stop-opacity:0"
         offset="1" />
    </linearGradient>
    <linearGradient
       x1="1764.6487"
       y1="155.59685"
       x2="1763.6903"
       y2="-55.941216"
       id="linearGradient4086-12"
       xlink:href="#linearGradient4046-3"
       gradientUnits="userSpaceOnUse" />
    <linearGradient
       id="linearGradient4046-3">
      <stop
         id="stop4048-7"
         style="stop-color:#000000;stop-opacity:1"
         offset="0" />
      <stop
         id="stop4050-73"
         style="stop-color:#ffffff;stop-opacity:0.2"
         offset="1" />
    </linearGradient>
    <linearGradient
       id="linearGradient2760">
      <stop
         id="stop2770"
         style="stop-color:#ffffff;stop-opacity:1"
         offset="0" />
      <stop
         id="stop2764"
         style="stop-color:#a9a9a9;stop-opacity:1"
         offset="1" />
    </linearGradient>
    <linearGradient
       id="linearGradient4846">
      <stop
         id="stop4848"
         style="stop-color:#1a1a1a;stop-opacity:1"
         offset="0" />
      <stop
         id="stop4856"
         style="stop-color:#1e1e1e;stop-opacity:1"
         offset="1" />
    </linearGradient>
    <linearGradient
       id="linearGradient4922">
      <stop
         id="stop4924"
         style="stop-color:#1a1a1a;stop-opacity:1"
         offset="0" />
      <stop
         id="stop4926"
         style="stop-color:#636363;stop-opacity:1"
         offset="0.15622118" />
      <stop
         id="stop4928"
         style="stop-color:#b4b4b4;stop-opacity:1"
         offset="0.33151907" />
      <stop
         id="stop4930"
         style="stop-color:#636363;stop-opacity:1"
         offset="0.53579742" />
      <stop
         id="stop4932"
         style="stop-color:#000000;stop-opacity:1"
         offset="1" />
    </linearGradient>
    <linearGradient
       x1="201.33115"
       y1="152.12039"
       x2="166.77547"
       y2="110.85986"
       id="linearGradient4884"
       xlink:href="#linearGradient4888"
       gradientUnits="userSpaceOnUse"
       gradientTransform="matrix(1.2757694,0,0,1.2757694,-135.89444,2.4500392)"
       spreadMethod="reflect" />
    <linearGradient
       id="linearGradient4888">
      <stop
         id="stop4892"
         style="stop-color:#c0821c;stop-opacity:1"
         offset="0" />
      <stop
         id="stop4894"
         style="stop-color:#e4ae48;stop-opacity:1"
         offset="1" />
    </linearGradient>
    <linearGradient
       x1="13.021049"
       y1="160.82593"
       x2="258.22205"
       y2="158.47191"
       id="linearGradient4882"
       xlink:href="#linearGradient4898"
       gradientUnits="userSpaceOnUse" />
    <linearGradient
       id="linearGradient4898">
      <stop
         id="stop4900"
         style="stop-color:#d78617;stop-opacity:1"
         offset="0" />
      <stop
         id="stop4902"
         style="stop-color:#5c1234;stop-opacity:1"
         offset="1" />
    </linearGradient>
    <linearGradient
       x1="45.447727"
       y1="92.539597"
       x2="45.447727"
       y2="7.0165396"
       id="ButtonShadow"
       gradientUnits="userSpaceOnUse"
       gradientTransform="scale(1.0058652,0.994169)">
      <stop
         id="stop3750"
         style="stop-color:#000000;stop-opacity:1"
         offset="0" />
      <stop
         id="stop3752"
         style="stop-color:#000000;stop-opacity:0.58823532"
         offset="1" />
    </linearGradient>
    <filter
       color-interpolation-filters="sRGB"
       id="filter3174">
      <feGaussianBlur
         stdDeviation="1.71"
         id="feGaussianBlur3176" />
    </filter>
    <linearGradient
       id="linearGradient10386">
      <stop
         id="stop10388"
         style="stop-color:#ffffff;stop-opacity:1"
         offset="0" />
      <stop
         id="stop10390"
         style="stop-color:#ffffff;stop-opacity:0"
         offset="1" />
    </linearGradient>
    <linearGradient
       x1="212.86353"
       y1="11.425488"
       x2="214.26566"
       y2="168.28262"
       id="linearGradient8264"
       xlink:href="#linearGradient2760"
       gradientUnits="userSpaceOnUse"
       gradientTransform="matrix(1.8464564,0,0,1.8464564,-123.73343,86.826257)"
       spreadMethod="reflect" />
    <linearGradient
       x1="18.930269"
       y1="6.2951212"
       x2="19.360001"
       y2="36.643665"
       id="linearGradient3157"
       xlink:href="#linearGradient2460"
       gradientUnits="userSpaceOnUse"
       gradientTransform="matrix(12.102564,0,0,12.102564,-34.468255,-46.187105)" />
    <linearGradient
       x1="0"
       y1="0"
       x2="1"
       y2="1"
       id="acyl_gradient"
       xlink:href="#linearGradient4321" />
    <linearGradient
       id="linearGradient4321">
      <stop
         id="stop1"
         style="stop-color:#ee0c0c;stop-opacity:1"
         offset="0" />
      <stop
         id="stop2"
         style="stop-color:#7a0404;stop-opacity:1"
         offset="1" />
    </linearGradient>
    <radialGradient
       cx="94.710419"
       cy="98.692879"
       r="150"
       fx="94.710419"
       fy="98.692879"
       id="radialGradient3928"
       xlink:href="#linearGradient4321"
       gradientUnits="userSpaceOnUse"
       gradientTransform="matrix(2.4249551,-0.00787504,0.00770263,2.3718665,-135.71828,-134.64744)" />
    <radialGradient
       cx="94.710419"
       cy="98.692879"
       r="150"
       fx="94.710419"
       fy="98.692879"
       id="radialGradient3932"
       xlink:href="#linearGradient4321"
       gradientUnits="userSpaceOnUse"
       gradientTransform="matrix(2.4249551,-0.00787504,0.00770263,2.3718665,-135.71828,-134.64744)" />
    <radialGradient
       cx="110.73653"
       cy="112.57468"
       r="150"
       fx="110.73653"
       fy="112.57468"
       id="radialGradient3140"
       xlink:href="#linearGradient3938"
       gradientUnits="userSpaceOnUse"
       gradientTransform="matrix(1.6533901,0.0060994,-0.00539655,1.4623231,-50.506611,-35.439162)" />
    <linearGradient
       x1="-112.34483"
       y1="572.44672"
       x2="-109.97469"
       y2="107.89955"
       id="linearGradient5925"
       xlink:href="#ButtonShadow-0-1-1-5-9-5"
       gradientUnits="userSpaceOnUse"
       gradientTransform="matrix(1.0074417,0,0,1.0074152,261.62679,527.41078)" />
    <linearGradient
       x1="45.447727"
       y1="92.539597"
       x2="45.447727"
       y2="7.0165396"
       id="ButtonShadow-0-1-1-5-9-5"
       gradientUnits="userSpaceOnUse"
       gradientTransform="matrix(1.0058652,0,0,0.994169,100,0)">
      <stop
         id="stop3750-8-9-3-6-4-0"
         style="stop-color:#000000;stop-opacity:1"
         offset="0" />
      <stop
         id="stop3752-5-6-4-2-9-8"
         style="stop-color:#000000;stop-opacity:0.58823532"
         offset="1" />
    </linearGradient>
    <linearGradient
       x1="-112.34483"
       y1="572.44672"
       x2="-109.97469"
       y2="107.89955"
       id="linearGradient5927"
       xlink:href="#ButtonShadow-0-1-1-5-9-5"
       gradientUnits="userSpaceOnUse"
       gradientTransform="matrix(1.0318068,0,0,1.0317796,268.77841,524.78354)" />
    <linearGradient
       x1="45.447727"
       y1="92.539597"
       x2="45.447727"
       y2="7.0165396"
       id="linearGradient3129"
       gradientUnits="userSpaceOnUse"
       gradientTransform="matrix(1.0058652,0,0,0.994169,100,0)">
      <stop
         id="stop3131"
         style="stop-color:#000000;stop-opacity:1"
         offset="0" />
      <stop
         id="stop3133"
         style="stop-color:#000000;stop-opacity:0.58823532"
         offset="1" />
    </linearGradient>
    <linearGradient
       x1="-112.34483"
       y1="572.44672"
       x2="-109.97469"
       y2="107.89955"
       id="linearGradient5929"
       xlink:href="#ButtonShadow-0-1-1-5-9-5"
       gradientUnits="userSpaceOnUse"
       gradientTransform="matrix(1.0148572,0,0,1.0148305,263.80369,526.61118)" />
    <linearGradient
       x1="45.447727"
       y1="92.539597"
       x2="45.447727"
       y2="7.0165396"
       id="linearGradient3136"
       gradientUnits="userSpaceOnUse"
       gradientTransform="matrix(1.0058652,0,0,0.994169,100,0)">
      <stop
         id="stop3138"
         style="stop-color:#000000;stop-opacity:1"
         offset="0" />
      <stop
         id="stop3140"
         style="stop-color:#000000;stop-opacity:0.58823532"
         offset="1" />
    </linearGradient>
    <linearGradient
       x1="-112.34483"
       y1="572.44672"
       x2="-109.97469"
       y2="107.89955"
       id="linearGradient5931"
       xlink:href="#ButtonShadow-0-1-1-5-9-5"
       gradientUnits="userSpaceOnUse"
       gradientTransform="matrix(1.023332,0,0,1.023305,266.29153,525.69736)" />
    <linearGradient
       x1="45.447727"
       y1="92.539597"
       x2="45.447727"
       y2="7.0165396"
       id="linearGradient3143"
       gradientUnits="userSpaceOnUse"
       gradientTransform="matrix(1.0058652,0,0,0.994169,100,0)">
      <stop
         id="stop3145"
         style="stop-color:#000000;stop-opacity:1"
         offset="0" />
      <stop
         id="stop3147"
         style="stop-color:#000000;stop-opacity:0.58823532"
         offset="1" />
    </linearGradient>
    <linearGradient
       x1="-112.34483"
       y1="572.44672"
       x2="-109.97469"
       y2="107.89955"
       id="linearGradient5933"
       xlink:href="#ButtonShadow-0-1-1-5-9-5"
       gradientUnits="userSpaceOnUse"
       gradientTransform="matrix(1.0402816,0,0,1.0402542,271.26626,523.86971)" />
    <linearGradient
       x1="45.447727"
       y1="92.539597"
       x2="45.447727"
       y2="7.0165396"
       id="linearGradient3150"
       gradientUnits="userSpaceOnUse"
       gradientTransform="matrix(1.0058652,0,0,0.994169,100,0)">
      <stop
         id="stop3152"
         style="stop-color:#000000;stop-opacity:1"
         offset="0" />
      <stop
         id="stop3154"
         style="stop-color:#000000;stop-opacity:0.58823532"
         offset="1" />
    </linearGradient>
    <linearGradient
       x1="993.43896"
       y1="51.511765"
       x2="988.78552"
       y2="363.73825"
       id="linearGradient4084-8-2"
       xlink:href="#linearGradient3737-9-0"
       gradientUnits="userSpaceOnUse"
       gradientTransform="translate(-753.58716,-30.14348)" />
    <linearGradient
       id="linearGradient3737-9-0">
      <stop
         id="stop3739-7-5"
         style="stop-color:#ffffff;stop-opacity:1"
         offset="0" />
      <stop
         id="stop3741-4-2"
         style="stop-color:#ffffff;stop-opacity:0"
         offset="1" />
    </linearGradient>
    <linearGradient
       x1="1764.6487"
       y1="155.59685"
       x2="1763.6903"
       y2="-55.941216"
       id="linearGradient4086-12-9"
       xlink:href="#linearGradient4046-3-3"
       gradientUnits="userSpaceOnUse"
       gradientTransform="translate(-1532.187,330.41615)" />
    <linearGradient
       id="linearGradient4046-3-3">
      <stop
         id="stop4048-7-5"
         style="stop-color:#000000;stop-opacity:1"
         offset="0" />
      <stop
         id="stop4050-73-5"
         style="stop-color:#ffffff;stop-opacity:0.2"
         offset="1" />
    </linearGradient>
    <linearGradient
       x1="102.875"
       y1="170.42188"
       x2="153.125"
       y2="170.42188"
       id="linearGradient5071"
       xlink:href="#linearGradient5059"
       gradientUnits="userSpaceOnUse" />
    <linearGradient
       id="linearGradient5059">
      <stop
         id="stop5061"
         style="stop-color:#0b0826;stop-opacity:0.49803922"
         offset="0" />
      <stop
         id="stop5063"
         style="stop-color:#0b0826;stop-opacity:1"
         offset="1" />
    </linearGradient>
    <linearGradient
       x1="102.875"
       y1="170.42188"
       x2="153.125"
       y2="170.42188"
       id="linearGradient3985"
       xlink:href="#linearGradient5059"
       gradientUnits="userSpaceOnUse" />
    <radialGradient
       cx="244.26477"
       cy="286.95432"
       r="62.545898"
       fx="244.26477"
       fy="286.95432"
       id="radialGradient14612"
       xlink:href="#linearGradient3938"
       gradientUnits="userSpaceOnUse"
       gradientTransform="matrix(1,0,0,1.2036395,0,-58.435237)"
       spreadMethod="pad" />
    <linearGradient
       x1="185.36807"
       y1="852.85938"
       x2="242.93663"
       y2="759.92535"
       id="linearGradient6536"
       gradientUnits="userSpaceOnUse"
       gradientTransform="matrix(-1,0,0,1,677.42112,-90.05924)"
       spreadMethod="reflect">
      <stop
         id="stop12"
         style="stop-color:#ab0000;stop-opacity:1"
         offset="0" />
      <stop
         id="stop14"
         style="stop-color:#7a1010;stop-opacity:1"
         offset="1" />
    </linearGradient>
    <linearGradient
       x1="216.79665"
       y1="747.14508"
       x2="274.3652"
       y2="654.21106"
       id="linearGradient6538"
       xlink:href="#linearGradient6335"
       gradientUnits="userSpaceOnUse"
       spreadMethod="reflect" />
    <linearGradient
       id="linearGradient6335">
      <stop
         id="stop7"
         style="stop-color:#ab0000;stop-opacity:1"
         offset="0" />
      <stop
         id="stop9"
         style="stop-color:#911313;stop-opacity:1"
         offset="1" />
    </linearGradient>
    <radialGradient
       cx="173.02412"
       cy="169.44389"
       r="198.88028"
       id="radialGradient6540"
       xlink:href="#linearGradient6335"
       gradientUnits="userSpaceOnUse"
       gradientTransform="matrix(1,0,0,0.94882,0,10.40559)" />
    <linearGradient
       id="linearGradient3061">
      <stop
         id="stop3063"
         style="stop-color:#ab0000;stop-opacity:1"
         offset="0" />
      <stop
         id="stop3065"
         style="stop-color:#911313;stop-opacity:1"
         offset="1" />
    </linearGradient>
    <radialGradient
       cx="173.02412"
       cy="169.44389"
       r="198.88028"
       id="radialGradient4045"
       xlink:href="#linearGradient6335"
       gradientUnits="userSpaceOnUse"
       gradientTransform="matrix(0.50376846,0,0,0.47798559,179.04618,157.92523)" />
    <linearGradient
       x1="216.79665"
       y1="747.14508"
       x2="274.3652"
       y2="654.21106"
       id="linearGradient4050"
       xlink:href="#linearGradient6335"
       gradientUnits="userSpaceOnUse"
       gradientTransform="matrix(0.50376846,0,0,0.50376846,81.52298,56.701644)"
       spreadMethod="reflect" />
    <linearGradient
       x1="185.36807"
       y1="852.85938"
       x2="242.93663"
       y2="759.92535"
       id="linearGradient4053"
       xlink:href="#linearGradient6536"
       gradientUnits="userSpaceOnUse"
       gradientTransform="matrix(-0.50376846,0,0,0.50376846,422.78637,11.332639)"
       spreadMethod="reflect" />
    <linearGradient
       x1="185.36807"
       y1="852.85938"
       x2="242.93663"
       y2="759.92535"
       id="linearGradient4099"
       xlink:href="#linearGradient6536"
       gradientUnits="userSpaceOnUse"
       gradientTransform="matrix(-0.50376846,0,0,0.50376846,422.78637,11.332639)"
       spreadMethod="reflect" />
  </defs>
  <metadata
     id="metadata7">
    <rdf:RDF>
      <cc:Work
         rdf:about="">
        <dc:format>image/svg+xml</dc:format>
        <dc:type
           rdf:resource="http://purl.org/dc/dcmitype/StillImage" />
        <dc:title></dc:title>
        <cc:license
           rdf:resource="https://pixabay.com/en/certificate-official-red-seal-161050/" />
        <dc:source>pixabay.com</dc:source>
      </cc:Work>
    </rdf:RDF>
  </metadata>
  <g
     transform="translate(0,-540.36218)"
     id="layer1" />
  <g
     transform="matrix(1.1,0,0,0.44444,95.081063,256.39254)"
     id="g2036">
    <g
       transform="matrix(1.0526,0,0,1.2857,-1.2632,-13.429)"
       id="g3712"
       style="opacity:0.4" />
  </g>
  <g
     transform="translate(97.481063,231.28154)"
     id="g3541" />
  <g
     transform="translate(97.481063,231.28154)"
     id="g3536" />
  <g
     transform="translate(-605.51932,-353.96833)"
     id="g4076">
    <g
       transform="translate(-926.66758,684.38448)"
       id="g4038" />
  </g>
  <g
     transform="translate(54.089264,-616.0416)"
     id="g5918">
    <path
       d="m 60.989673,1111.5416 144.328367,-0.2064 147.52725,-0.2409 c 49.0412,-5.1221 87.2248,-45.726 88.537,-95.8499 9e-4,-0.035 -9e-4,-0.069 0,-0.1032 9e-4,-0.414 -8e-4,-0.6473 0,-1.0665 0.042,-21.50295 0.034,-49.94202 0.034,-87.7651 l 0,-152.51368 -68.8621,-68.87715 -68.8965,-68.87715 -152.82436,0.0688 c -40.25265,0.0173 -69.340747,0.0413 -91.323117,0.10316 -50.88989,2.75481 -91.3364,43.54773 -93.49012,94.61146 -0.0987,30.63047 -0.10318,74.7573 -0.10318,143.01819 0,68.26875 0.005,112.38763 0.10312,143.01817 2.17453,51.5569 43.38652,92.644 94.96919,94.6802 z"
       id="path5873"
       style="opacity:0.25;color:#000000;fill:url(#linearGradient5925);fill-opacity:1;fill-rule:nonzero;stroke:none;stroke-width:1.5;marker:none;visibility:visible;display:inline;overflow:visible;enable-background:accumulate" />
    <path
       d="m 63.288833,1123.0416 147.818967,-0.2114 151.09521,-0.2467 c 50.2273,-5.246 89.3343,-46.8319 90.6783,-98.1681 9e-4,-0.035 -9e-4,-0.07 0,-0.1056 9e-4,-0.424 -8e-4,-0.663 0,-1.0924 0.043,-22.0229 0.035,-51.14981 0.035,-89.88764 l 0,-156.20224 -70.5276,-70.54295 -70.5627,-70.54295 -156.52046,0.0705 c -41.22616,0.0177 -71.017757,0.0423 -93.531777,0.10565 -52.12067,2.82144 -93.54538,44.60094 -95.75119,96.89965 -0.10109,31.37127 -0.10567,76.56531 -0.10567,146.47709 0,69.91984 0.005,115.10574 0.10561,146.47699 2.22712,52.804 44.43583,94.8848 97.26603,96.9702 z"
       id="path5902"
       style="opacity:0.1;color:#000000;fill:url(#linearGradient5927);fill-opacity:1;fill-rule:nonzero;stroke:none;stroke-width:1.5;marker:none;visibility:visible;display:inline;overflow:visible;enable-background:accumulate" />
    <path
       d="m 61.689723,1115.0417 145.390727,-0.2079 148.61314,-0.2427 c 49.4022,-5.1598 87.8668,-46.0626 89.1887,-96.5555 9e-4,-0.035 -9e-4,-0.069 0,-0.1039 9e-4,-0.4171 -8e-4,-0.6521 0,-1.0744 0.042,-21.66124 0.034,-50.30964 0.034,-88.41113 l 0,-153.63628 -69.369,-69.38413 -69.4036,-69.38414 -153.94925,0.0693 c -40.54894,0.0174 -69.851137,0.0416 -91.995317,0.10392 -51.26448,2.77509 -92.0087,43.86827 -94.17827,95.30786 -0.0994,30.85594 -0.10394,75.30757 -0.10394,144.07091 0,68.77125 0.005,113.21488 0.10387,144.07079 2.19054,51.9366 43.70588,93.3261 95.66824,95.3773 z"
       id="path5906"
       style="opacity:0.25;color:#000000;fill:url(#linearGradient5929);fill-opacity:1;fill-rule:nonzero;stroke:none;stroke-width:1.5;marker:none;visibility:visible;display:inline;overflow:visible;enable-background:accumulate" />
    <path
       d="m 62.489783,1119.0417 146.604847,-0.2097 149.8542,-0.2447 c 49.8147,-5.2028 88.6006,-46.4472 89.9335,-97.3618 9e-4,-0.035 -9e-4,-0.07 0,-0.1048 9e-4,-0.4205 -8e-4,-0.6575 0,-1.0833 0.043,-21.84214 0.034,-50.72977 0.034,-89.14943 l 0,-154.91926 -69.9483,-69.96355 -69.9832,-69.96354 -155.23483,0.0699 c -40.88755,0.0176 -70.434457,0.0419 -92.763547,0.10478 -51.69258,2.79827 -92.77705,44.23461 -94.96474,96.10376 -0.10025,31.1136 -0.1048,75.93644 -0.1048,145.274 0,69.34555 0.005,114.16031 0.10474,145.27394 2.20883,52.3702 44.07085,94.1054 96.46713,96.1737 z"
       id="path5910"
       style="opacity:0.2;color:#000000;fill:url(#linearGradient5931);fill-opacity:1;fill-rule:nonzero;stroke:none;stroke-width:1.5;marker:none;visibility:visible;display:inline;overflow:visible;enable-background:accumulate" />
    <path
       d="m 64.088893,1127.0416 149.033087,-0.2131 152.33628,-0.2488 c 50.6398,-5.289 90.068,-47.2165 91.423,-98.9744 10e-4,-0.036 -9e-4,-0.071 0,-0.1065 10e-4,-0.4274 -8e-4,-0.6684 0,-1.1013 0.043,-22.2038 0.035,-51.56994 0.035,-90.62595 l 0,-157.48521 -71.1068,-71.12236 -71.1423,-71.12236 -157.80606,0.071 c -41.56477,0.0179 -71.601067,0.0427 -94.299997,0.10653 -52.54877,2.84461 -94.31372,44.96726 -96.53765,97.69553 -0.10192,31.62894 -0.10654,77.19419 -0.10654,147.6802 0,70.49412 0.005,116.05116 0.10648,147.68012 2.24541,53.2376 44.8008,95.664 98.06493,97.7666 z"
       id="path5914"
       style="opacity:0.07999998;color:#000000;fill:url(#linearGradient5933);fill-opacity:1;fill-rule:nonzero;stroke:none;stroke-width:1.5;marker:none;visibility:visible;display:inline;overflow:visible;enable-background:accumulate" />
  </g>
  <path
     d="m 114.3763,492.00004 143.26225,-0.20491 146.43752,-0.23905 c 48.67892,-5.08446 86.58047,-45.3894 87.883,-95.1445 8.9e-4,-0.0342 -8.7e-4,-0.0682 0,-0.10239 8.5e-4,-0.41093 -8.2e-4,-0.64253 0,-1.05868 0.0421,-21.34466 0.0341,-49.5744 0.0341,-87.11908 l 0,-151.39108 -68.35344,-68.37017 -68.38759,-68.37016 -151.69547,0.0683 c -39.95531,0.0172 -68.82855,0.041 -90.64854,0.1024 -50.513983,2.73453 -90.661723,43.22719 -92.799533,93.91506 -0.098,30.40501 -0.10242,74.20703 -0.10242,141.96548 0,67.76624 0.005,111.56038 0.10236,141.96542 2.15846,51.17745 43.06603,91.96213 94.267673,93.98336 z"
     id="rect4121"
     style="color:#000000;fill:#e4e6d2;fill-opacity:1;fill-rule:nonzero;stroke:none;stroke-width:1.5;marker:none;visibility:visible;display:inline;overflow:visible;enable-background:accumulate" />
  <path
     d="m 287.78125,161.75 c -6.08075,0.0206 -7.82875,14.62191 -25.90625,13.8125 -13.58572,0.28256 -25.62599,-13.18047 -38.40625,-8.25 -1.9672,23.4946 3.11684,35.48634 -15.125,37 -8.54053,0.48968 -16.77762,-7.14832 -22.21875,2.03125 -6.96464,11.74985 3.79908,14.11928 1.59375,27.59375 -2.20534,13.47448 -20.12953,25.6316 -17.65625,39.09375 15.30986,15.97924 18.38832,18.80748 28.59375,29.5 -4.283,4.11626 -9.5186,7.4719 -5.03125,12.75 0.0969,34.02027 12.24896,72.4465 4.03125,88.40625 -11.52775,14.86256 -17.936,19.53232 -53.90625,19.5 -2.30414,0.0381 -3.65625,-0.0312 -3.65625,-0.0312 10.06395,9.17928 11.6975,10.73205 18.21875,17.09375 -5.66318,2.07479 -10.0625,3.78125 -10.0625,3.78125 15.82041,15.68022 31.97674,31.70602 48.21875,47.84375 l 61.15625,-0.0937 146.4375,-0.21875 c 48.67892,-5.08446 86.60372,-45.40115 87.90625,-95.15625 8.9e-4,-0.0342 -8.7e-4,-0.0596 0,-0.0937 8.5e-4,-0.41093 -8.2e-4,-0.64635 0,-1.0625 0.0334,-16.91856 0.0319,-39.75121 0.0312,-66.53125 C 421.53083,257.91491 397.23034,234.00856 345.1875,183 c -0.0996,-0.12457 -0.17247,-0.25112 -0.28125,-0.375 -6.5914,-7.50503 -17.52759,2.29358 -27.5,6.21875 -8.53203,-7.95476 -14.89495,-13.78605 -24.46875,-24.40625 -2.11859,-1.91621 -3.753,-2.69225 -5.15625,-2.6875 z"
     id="path4334"
     style="fill:#000000;fill-opacity:0.15686275;stroke:none" />
  <g
     transform="translate(-605.51939,-353.9683)"
     id="g4076-9-1">
    <g
       transform="translate(-926.66758,684.38448)"
       id="g4038-9-8">
      <g
         id="g4929">
        <path
           d="m 355.25,20 -151.6875,0.0625 c -39.95531,0.0172 -68.83626,0.03235 -90.65625,0.09375 -4.73569,0.256362 -9.37556,0.852632 -13.90625,1.75 -1.51023,0.299123 -3.015922,0.633019 -4.5,1 -2.226117,0.550471 -4.431221,1.176579 -6.59375,1.875 -20.904452,6.751404 -38.687843,20.284416 -50.8125,38.03125 -0.108334,0.158619 -0.236324,0.30946 -0.34375,0.46875 -0.306456,0.454303 -0.607242,0.915291 -0.90625,1.375 -1.617953,2.487519 -3.108135,5.049674 -4.5,7.6875 -2.416204,4.579126 -4.508261,9.398403 -6.1875,14.375 -0.01359,0.04029 -0.01771,0.08469 -0.03125,0.125 -0.481865,1.434239 -0.926843,2.880345 -1.34375,4.34375 -0.208453,0.731702 -0.401853,1.448822 -0.59375,2.1875 -0.02741,0.105607 -0.06668,0.206753 -0.09375,0.3125 -0.162917,0.635705 -0.318229,1.296808 -0.46875,1.9375 -0.175131,0.745444 -0.341847,1.466751 -0.5,2.21875 -0.04199,0.199929 -0.08422,0.393368 -0.125,0.59375 -0.113545,0.556834 -0.208352,1.127218 -0.3125,1.6875 -0.140964,0.75834 -0.282685,1.51677 -0.40625,2.28125 -0.123565,0.76448 -0.237796,1.5421 -0.34375,2.3125 -0.211908,1.54081 -0.391049,3.09301 -0.53125,4.65625 -0.140201,1.56324 -0.245693,3.13475 -0.3125,4.71875 C 19.99575,144.49876 20,188.30405 20,256.0625 c 0,67.67336 -0.0032,111.41246 0.09375,141.8125 1.33e-4,0.0417 -1.33e-4,0.11458 0,0.15625 0.0027,0.0629 -0.0028,0.12467 0,0.1875 0.0075,0.16637 0.02289,0.33385 0.03125,0.5 0.103117,2.10033 0.268283,4.18721 0.5,6.25 0.01417,0.12613 0.04786,0.24901 0.0625,0.375 0.08359,0.71923 0.182346,1.4107 0.28125,2.125 0.09803,0.70307 0.199799,1.39561 0.3125,2.09375 0.0432,0.26966 0.07962,0.54359 0.125,0.8125 0.06179,0.36349 0.121762,0.73165 0.1875,1.09375 0.03935,0.21824 0.08422,0.43852 0.125,0.65625 0.08776,0.46552 0.187003,0.94311 0.28125,1.40625 0.135112,0.66395 0.257917,1.30981 0.40625,1.96875 0.03076,0.13664 0.06243,0.26983 0.09375,0.40625 0.05764,0.25224 0.127935,0.49851 0.1875,0.75 0.128911,0.54185 0.268464,1.08673 0.40625,1.625 0.05292,0.20754 0.102023,0.418 0.15625,0.625 0.151575,0.57628 0.307082,1.14672 0.46875,1.71875 0.220124,0.77886 0.448884,1.57299 0.6875,2.34375 0.715848,2.31229 1.497285,4.57766 2.375,6.8125 0.280689,0.71657 0.57813,1.4481 0.875,2.15625 0.009,0.0214 0.02224,0.0411 0.03125,0.0625 0.2845,0.67727 0.575897,1.33065 0.875,2 0.02851,0.0637 0.0651,0.12391 0.09375,0.1875 0.28142,0.62616 0.549706,1.25597 0.84375,1.875 0.04962,0.10427 0.106275,0.20843 0.15625,0.3125 0.27599,0.5757 0.556957,1.1494 0.84375,1.71875 0.06944,0.13761 0.14868,0.26901 0.21875,0.40625 1.443868,2.82788 3.01751,5.59026 4.71875,8.25 1.27593,1.9948 2.618525,3.92027 4.03125,5.8125 0.470908,0.63074 0.951899,1.25616 1.4375,1.875 0.971202,1.23768 1.971546,2.46771 3,3.65625 C 61.815337,478.79047 88.261556,491.87122 117.875,492 l 2.625,0 C 67.525103,491.60021 25,448.82259 25,395.75 l 0,-269.5 C 25,72.9275 67.9275,30 121.25,30 l 244,0 -10,-10 z M 487,151.75 l 0,244 c 0,50.25665 -38.12758,91.26134 -87.15625,95.8125 l 3.1875,0 c 30.1265,-2.82213 56.21626,-19.11931 72.21875,-42.84375 0.44099,-0.65379 0.88696,-1.30382 1.3125,-1.96875 0.42554,-0.66493 0.84018,-1.35543 1.25,-2.03125 1.22947,-2.02747 2.38524,-4.09784 3.46875,-6.21875 0.36117,-0.70697 0.71805,-1.40816 1.0625,-2.125 0.34445,-0.71684 0.67253,-1.46103 1,-2.1875 1.60228,-3.55458 3.00961,-7.20174 4.1875,-10.96875 0.0255,-0.0819 0.0372,-0.16801 0.0625,-0.25 0.71629,-2.31229 1.35875,-4.67961 1.90625,-7.0625 0.1825,-0.7943 0.33676,-1.57337 0.5,-2.375 0.16324,-0.80163 0.32503,-1.62878 0.46875,-2.4375 0.14372,-0.80872 0.2823,-1.62195 0.40625,-2.4375 0.0398,-0.26208 0.0872,-0.51848 0.125,-0.78125 0.079,-0.55396 0.14894,-1.09929 0.21875,-1.65625 0.025,-0.19753 0.0387,-0.39585 0.0625,-0.59375 0.0742,-0.62299 0.15612,-1.24841 0.21875,-1.875 0.0136,-0.1345 0.0182,-0.27159 0.0312,-0.40625 0.0671,-0.70043 0.13504,-1.38901 0.1875,-2.09375 0.005,-0.0616 -0.005,-0.12589 0,-0.1875 0.0474,-0.65349 0.0903,-1.31169 0.125,-1.96875 0.006,-0.11421 0.0255,-0.22944 0.0312,-0.34375 5.1e-4,-0.0103 -5e-4,-0.021 0,-0.0312 0.0387,-0.76781 0.0726,-1.54004 0.0937,-2.3125 8.9e-4,-0.0342 -8.7e-4,-0.0596 0,-0.0937 1e-4,-0.0483 -4e-5,-0.081 0,-0.125 0.008,-0.31325 -0.005,-0.62352 0,-0.9375 0.0211,-10.67233 0.028,-23.05015 0.0312,-37.46875 0.003,-14.4186 0,-30.88391 0,-49.65625 l 0,-151.375 -5,-5 z"
           transform="translate(1532.187,-330.41615)"
           id="rect6809-2-3-8"
           style="opacity:0.5;color:#000000;fill:url(#linearGradient4084-8-2);fill-opacity:1;fill-rule:nonzero;stroke:none;stroke-width:1.5;marker:none;visibility:visible;display:inline;overflow:visible;enable-background:accumulate" />
        <path
           d="m 112.90625,20.15625 c -4.73569,0.256362 -9.37556,0.852632 -13.90625,1.75 -1.51023,0.299123 -3.015922,0.633019 -4.5,1 -2.226117,0.550471 -4.431221,1.176579 -6.59375,1.875 -2.162529,0.698421 -4.281752,1.471807 -6.375,2.3125 -9.76849,3.923234 -18.747925,9.359992 -26.65625,16.03125 -5.083924,4.288666 -9.725026,9.084055 -13.84375,14.3125 -1.372908,1.742815 -2.683225,3.539121 -3.9375,5.375 -0.109552,0.160436 -0.235127,0.307628 -0.34375,0.46875 -0.306456,0.454303 -0.607242,0.915291 -0.90625,1.375 -0.808977,1.243759 -1.590452,2.530323 -2.34375,3.8125 -0.166868,0.284301 -0.335918,0.557614 -0.5,0.84375 -0.207159,0.360853 -0.391059,0.730006 -0.59375,1.09375 -0.184795,0.331891 -0.381451,0.665735 -0.5625,1 -0.170654,0.314981 -0.332698,0.620433 -0.5,0.9375 -0.347966,0.659456 -0.697942,1.331675 -1.03125,2 -0.666617,1.33665 -1.29953,2.691638 -1.90625,4.0625 -0.879859,1.988008 -1.719204,4.006876 -2.46875,6.0625 -0.02575,0.07061 -0.03691,0.148066 -0.0625,0.21875 -0.255282,0.70525 -0.51044,1.412248 -0.75,2.125 -0.0063,0.0187 0.0063,0.04379 0,0.0625 -0.478277,1.425001 -0.929585,2.858721 -1.34375,4.3125 -0.01792,0.06293 -0.0447,0.124518 -0.0625,0.1875 -0.188998,0.668565 -0.356058,1.325628 -0.53125,2 -0.02999,0.115391 -0.06417,0.228192 -0.09375,0.34375 -0.160255,0.626112 -0.320519,1.275303 -0.46875,1.90625 -0.14068,0.598804 -0.276512,1.178203 -0.40625,1.78125 -0.05606,0.260594 -0.102244,0.519878 -0.15625,0.78125 -0.01964,0.09505 -0.04314,0.186096 -0.0625,0.28125 -0.11135,0.546937 -0.210215,1.105987 -0.3125,1.65625 -0.04812,0.25885 -0.110151,0.52168 -0.15625,0.78125 -0.0886,0.49905 -0.168912,0.99832 -0.25,1.5 -0.05057,0.31267 -0.108609,0.62383 -0.15625,0.9375 -0.06911,0.45519 -0.124613,0.91774 -0.1875,1.375 -0.105954,0.7704 -0.193117,1.53638 -0.28125,2.3125 -0.08813,0.77612 -0.179899,1.56213 -0.25,2.34375 -0.139283,1.553 -0.245648,3.11401 -0.3125,4.6875 -4.41e-4,0.0104 4.38e-4,0.0209 0,0.0312 -2.7e-5,0.008 2.7e-5,0.0229 0,0.0312 C 19.995828,144.52902 20,188.32263 20,256.0625 c 0,67.69194 -0.0033,111.44271 0.09375,141.84375 1.07e-4,0.0334 -1.07e-4,0.0917 0,0.125 0.0022,0.0524 -0.0023,0.10389 0,0.15625 0.0084,0.18714 0.02184,0.37564 0.03125,0.5625 0.10587,2.14272 0.291576,4.27142 0.53125,6.375 0.0023,0.0206 -0.0024,0.0419 0,0.0625 0.08856,0.77298 0.206258,1.51395 0.3125,2.28125 0.107671,0.77762 0.218135,1.57218 0.34375,2.34375 0.110714,0.67613 0.219415,1.35992 0.34375,2.03125 0.01731,0.0939 0.04493,0.18743 0.0625,0.28125 0.08949,0.47548 0.184986,0.96451 0.28125,1.4375 0.115748,0.56872 0.218291,1.12246 0.34375,1.6875 0.05136,0.2313 0.103277,0.45683 0.15625,0.6875 0.05544,0.24229 0.130278,0.47716 0.1875,0.71875 0.168714,0.71001 0.347315,1.42115 0.53125,2.125 0.01079,0.0414 0.02041,0.0836 0.03125,0.125 0.153969,0.58602 0.304342,1.16838 0.46875,1.75 0.04405,0.15622 0.08021,0.31285 0.125,0.46875 0.179375,0.62283 0.371264,1.2574 0.5625,1.875 0.03482,0.11268 0.05854,0.23125 0.09375,0.34375 0.205574,0.65538 0.437456,1.2882 0.65625,1.9375 0.256854,0.76225 0.50641,1.52761 0.78125,2.28125 0.01464,0.0402 0.01656,0.0848 0.03125,0.125 0.261099,0.71305 0.535514,1.41991 0.8125,2.125 0.277337,0.70739 0.58189,1.42582 0.875,2.125 0.01273,0.0303 0.01849,0.0635 0.03125,0.0937 0.280961,0.66829 0.579817,1.30817 0.875,1.96875 0.126258,0.28202 0.246174,0.56316 0.375,0.84375 0.186593,0.40717 0.370539,0.81463 0.5625,1.21875 0.05022,0.10551 0.105669,0.2072 0.15625,0.3125 0.296257,0.61798 0.597551,1.2331 0.90625,1.84375 0.104796,0.20699 0.206286,0.41886 0.3125,0.625 0.310007,0.60166 0.646774,1.18698 0.96875,1.78125 0.377433,0.69663 0.762605,1.40751 1.15625,2.09375 0.251968,0.43977 0.491461,0.87707 0.75,1.3125 0.144428,0.24294 0.291042,0.47718 0.4375,0.71875 0.409604,0.6756 0.82469,1.33529 1.25,2 0.85062,1.32942 1.744326,2.65318 2.65625,3.9375 0.379219,0.53462 0.766661,1.06718 1.15625,1.59375 0.137991,0.18627 0.266973,0.37725 0.40625,0.5625 0.294429,0.39216 0.606107,0.7687 0.90625,1.15625 0.199718,0.25754 0.39153,0.52578 0.59375,0.78125 0.08327,0.10531 0.166308,0.20754 0.25,0.3125 0.325327,0.4076 0.668339,0.81652 1,1.21875 0.500041,0.60644 0.985773,1.18722 1.5,1.78125 0.514227,0.59403 1.03434,1.19989 1.5625,1.78125 1.056321,1.16272 2.139466,2.29572 3.25,3.40625 1.105203,1.1052 2.218105,2.19849 3.375,3.25 0.0056,0.005 0.02567,-0.005 0.03125,0 1.744081,1.58448 3.550447,3.1057 5.40625,4.5625 16.595324,13.02732 37.53268,20.80712 60.34375,20.90625 0.14694,6.4e-4 0.2904,0 0.4375,0 l 139.3125,-0.21875 145.40625,-0.21875 c 30.1265,-2.8202 56.21626,-19.12761 72.21875,-42.84375 0.44099,-0.65356 0.88696,-1.30404 1.3125,-1.96875 0.29883,-0.46679 0.5839,-0.93407 0.875,-1.40625 0.12249,-0.19908 0.25389,-0.39372 0.375,-0.59375 0.0486,-0.0801 0.0766,-0.16976 0.125,-0.25 0.35959,-0.59664 0.71533,-1.17635 1.0625,-1.78125 0.78772,-1.37249 1.55891,-2.77397 2.28125,-4.1875 0.36117,-0.70677 0.71805,-1.4396 1.0625,-2.15625 0.34445,-0.71665 0.67253,-1.42998 1,-2.15625 0.9824,-2.17882 1.89373,-4.39533 2.71875,-6.65625 0.0158,-0.0433 0.0468,-0.0817 0.0625,-0.125 0.25824,-0.71082 0.4765,-1.43778 0.71875,-2.15625 0.23268,-0.69009 0.46976,-1.36554 0.6875,-2.0625 0.0226,-0.0724 0.0401,-0.14628 0.0625,-0.21875 0.71629,-2.31184 1.35875,-4.67996 1.90625,-7.0625 0.1825,-0.79418 0.33676,-1.57347 0.5,-2.375 0.16324,-0.80153 0.32503,-1.62888 0.46875,-2.4375 0.14372,-0.80862 0.2823,-1.62203 0.40625,-2.4375 0.0414,-0.2723 0.0858,-0.53945 0.125,-0.8125 0.0775,-0.54368 0.15007,-1.07843 0.21875,-1.625 0.0263,-0.20779 0.0375,-0.4168 0.0625,-0.625 0.073,-0.61274 0.15696,-1.22753 0.21875,-1.84375 0.0146,-0.14477 0.0173,-0.29255 0.0312,-0.4375 0.0731,-0.7627 0.1318,-1.51345 0.1875,-2.28125 0.0557,-0.7678 0.11813,-1.53979 0.15625,-2.3125 0.0392,-0.77814 0.0726,-1.56082 0.0937,-2.34375 8.9e-4,-0.0342 -8.7e-4,-0.0596 0,-0.0937 7e-5,-0.0363 -4e-5,-0.06 0,-0.0937 0.008,-0.32368 -0.005,-0.64428 0,-0.96875 0.0211,-10.67233 0.028,-23.05015 0.0312,-37.46875 0.003,-14.4186 0,-30.88391 0,-49.65625 l 0,-151.375 -5,-5 0,234 C 487,439.0725 444.0725,482 390.75,482 l -269.5,0 C 67.9275,482 25,439.0725 25,385.75 l 0,-269.5 c 0,-51.518951 40.071412,-93.32402 90.875,-96.09375 -0.86176,0.0023 -2.12816,-0.0024 -2.96875,0 z"
           transform="translate(1532.187,-330.41615)"
           id="path3981-7-8"
           style="opacity:0.15;color:#000000;fill:url(#linearGradient4086-12-9);fill-opacity:1;fill-rule:nonzero;stroke:none;stroke-width:1.5;marker:none;visibility:visible;display:inline;overflow:visible;enable-background:accumulate" />
      </g>
    </g>
  </g>
  <path
     d="m 355.24998,20.00003 0,102.5625 c 0,9.77909 4.10646,18.58192 10.6875,24.8125 l 126.0625,126.09375 0,-116.71875 -68.375,-68.375 z"
     id="path6657"
     style="fill:#000000;fill-opacity:0.15686275;fill-rule:nonzero;stroke:none" />
  <path
     d="m 355.25321,20.00002 0,102.555 c 0,18.88151 15.30349,34.185 34.185,34.185 l 102.555,0 -136.74,-136.74"
     id="path24"
     style="fill:#000000;fill-opacity:1;fill-rule:nonzero;stroke:none" />
  <path
     d="m 257.3994,279.91366 c 59.53931,60.55707 16.28426,102.28548 33.0774,130.78293 18.76241,31.83923 73.27915,39.18398 73.27915,39.18398 0,0 -15.12229,-6.71966 -23.40862,-15.26648 -7.73637,-7.97957 -10.17766,-13.73984 -10.17766,-13.73984 0,0 2.04922,2.58876 17.30202,6.61547 13.49319,3.56219 24.42639,1.52665 24.42639,1.52665 0,0 -36.96874,-4.12633 -44.78171,-31.55074 -5.46298,-19.17569 5.59772,-25.44415 -1.01777,-58.52155 -6.72226,-33.61132 -29.51521,-54.45047 -39.69287,-58.01266 -10.17766,-3.56218 -29.00633,-1.01776 -29.00633,-1.01776 z"
     id="path20"
     style="fill:url(#linearGradient4053)" />
  <path
     d="m 262.74268,272.02713 c -59.53932,60.55708 0,130.78294 -29.00634,153.68267 -29.00633,22.89973 -85.49234,18.31979 -85.49234,18.31979 0,0 17.15782,-6.71967 27.47968,-9.66878 10.68655,-3.0533 18.31979,-11.19542 18.31979,-11.19542 0,0 -10.17766,6.10659 -25.95303,6.10659 -12.47543,0 -27.98856,-6.10659 -27.98856,-6.10659 0,0 38.6751,2.03553 52.92383,-21.37309 10.53395,-17.30579 -16.79315,-38.16623 -6.1066,-70.73474 10.68655,-32.56851 36.63957,-54.45047 46.81723,-58.01266 10.17766,-3.56218 29.00634,-1.01777 29.00634,-1.01777 z"
     id="path22"
     style="fill:url(#linearGradient4050)" />
  <path
     d="m 294.2603,337.98709 -5.02259,0.38968 c 1.18052,11.73061 0.75994,23.65945 -0.68091,35.48925 -0.52738,4.32052 -1.17624,8.67245 -1.6211,13.07896 -0.37353,3.64816 -0.59434,7.39124 -0.19824,11.13354 v 0 c 0.45812,4.31222 1.40228,8.64174 3.24379,12.62473 2.28996,4.9159 5.87873,9.08666 10.05282,12.3945 l 0,0 c 5.62647,4.46769 11.37367,8.99923 17.90316,12.03217 h 10e-6 c 1.09535,0.50867 2.22319,0.9877 3.40821,1.20869 h 0 l 0.93649,0.0577 5e-5,-1e-5 -5e-5,1e-5 -0.93054,-0.0985 c -1.17074,-0.27143 -2.26126,-0.79495 -3.32601,-1.34741 v -10e-6 c -6.36318,-3.30054 -11.82935,-8.03299 -17.25941,-12.73519 h -1e-5 c -3.90887,-3.39587 -7.17317,-7.54949 -9.10103,-12.25045 -1.57282,-3.8019 -2.26687,-7.93479 -2.53764,-12.09197 v 0 c -0.22604,-3.48669 0.15279,-7.02373 0.66375,-10.57717 0.6235,-4.29217 1.45824,-8.58211 2.18455,-12.93551 1.99632,-11.95079 2.96282,-24.14797 2.2847,-36.37307 z"
     id="path24-2"
     style="fill:#d22b2b;fill-rule:evenodd" />
  <path
     d="m 238.16661,322.16968 -4.78947,-1.56178 c -1.65712,5.37399 -2.73899,10.95654 -3.01736,16.60943 -0.22841,4.77167 0.12988,9.52133 0.89058,14.16613 1.47573,9.003 4.22466,17.52842 5.54477,26.18802 1.27071,8.32874 3.31754,16.40156 4.16977,24.57797 0.32558,3.16877 0.45561,6.34051 -0.0675,9.40186 v 0 c -0.46456,2.73118 -1.50697,5.38225 -3.19357,7.56192 -2.97801,3.86876 -6.816,7.07656 -10.94181,9.82545 -3.9973,2.66064 -8.29031,4.89046 -12.71522,6.8199 l -1e-5,1e-5 c -3.43284,1.4966 -6.94841,2.81234 -10.52464,3.947 h -1e-5 c -1.06334,0.33737 -2.13197,0.65871 -3.20751,0.95675 h -1e-5 c -0.29107,0.0807 -0.58261,0.15961 -0.87497,0.23565 l 0,0 h -1e-5 l -0.22845,0.0586 -0.0586,0.0147 c -0.005,0.002 -0.01,0.003 -0.015,0.004 l -0.005,0.001 h -1e-5 1e-5 l 0.005,-0.001 0.0151,-0.003 0.0591,-0.0126 0.23038,-0.0507 h 1e-5 l 1e-5,-1e-5 c 0.29489,-0.0659 0.58915,-0.13475 0.88299,-0.20533 1.08581,-0.2608 2.16623,-0.54532 3.24215,-0.84614 h 1e-5 c 3.6185,-1.01172 7.18903,-2.20857 10.68961,-3.59266 l 1e-5,0 c 4.51235,-1.78379 8.91931,-3.88208 13.07144,-6.44155 4.28739,-2.64018 8.33688,-5.79672 11.60033,-9.72978 1.94158,-2.35556 3.20201,-5.2201 3.80677,-8.19756 l 0,0 v -10e-6 c 0.66778,-3.29641 0.66227,-6.66228 0.42688,-9.93747 -0.59178,-8.41131 -2.36588,-16.62606 -3.32496,-24.79779 v -10e-6 c -1.06963,-9.02442 -3.53087,-17.69955 -4.63289,-26.35414 -0.56564,-4.44067 -0.75109,-8.90705 -0.38163,-13.29764 0.43054,-5.2112 1.62555,-10.36211 3.34368,-15.33889 z"
     id="path26"
     style="fill:#650000;fill-rule:evenodd" />
  <path
     d="m 320.85507,314.53999 c -9.88321,9.70503 5.07197,27.33436 -7.95899,33.03718 -13.03096,5.70281 -21.18526,-13.40144 -35.29355,-11.61551 -14.10828,1.78594 -14.63874,15.84007 -28.10267,13.74605 -13.46393,-2.09401 -2.75724,-18.84992 -14.89617,-25.52893 -12.13894,-6.679 -30.03748,1.97319 -40.17016,-8.00059 -10.13269,-9.97379 13.67842,-13.15194 7.66093,-25.51338 -6.01749,-12.36144 -32.06186,-8.19391 -34.53515,-21.65605 -2.47328,-13.46215 17.96091,-21.59323 20.16625,-35.06771 2.20533,-13.47447 -8.55169,-15.83651 -1.58705,-27.58636 6.96465,-11.74985 18.47683,4.0361 29.38017,-4.91429 10.90334,-8.95039 -5.2337,-29.03452 7.95884,-34.12404 13.19253,-5.08952 25.58292,9.42968 39.71276,8.18745 14.12983,-1.24223 9.30394,-17.8193 23.15429,-14.84865 13.85035,2.97066 7.46432,20.38073 19.15375,28.165 11.68942,7.78428 29.9703,-16.92698 39.39612,-6.19326 9.42583,10.73373 -15.81332,24.09823 -10.07603,37.16456 5.73728,13.06633 31.43258,6.87747 32.36955,20.58391 0.93697,13.70645 -15.05373,18.69493 -18.53977,31.84809 -3.48604,13.15315 9.13656,14.69942 1.58689,26.49951 -7.54968,11.80009 -19.4968,6.11197 -29.38001,15.81701 z"
     id="path28"
     style="fill:url(#radialGradient4045)" />
  <path
     d="m 220.42717,175.10345 c -0.16369,-0.32739 0.10054,-0.84332 0.67915,-1.50514 0.57862,-0.66183 1.47322,-1.46769 2.51786,-2.42821 0.45604,-0.43325 1.01608,-1.00655 1.89872,-1.62122 0.76154,-0.47648 1.66033,-0.76353 2.62904,-0.78014 1.20251,-0.008 2.29852,0.17914 3.19129,0.33209 1.22585,0.20513 2.44617,0.52618 3.63254,0.91337 0.58605,0.19127 1.14852,0.39293 1.68815,0.59633 2.13568,0.79648 4.0522,1.68649 5.68077,2.55073 3.81407,2.11512 6.1483,3.98104 5.79186,4.81603 l -0.002,0.005 -0.002,0.005 v 1e-5 c -0.37692,0.8262 -3.3384,0.42266 -7.44611,-0.8571 -1.72599,-0.50227 -3.64874,-1.13014 -5.68091,-1.79782 l -1.59797,-0.52637 c -1.07345,-0.35255 -2.07742,-0.66658 -3.02578,-0.89629 -1.03928,-0.23346 -1.80144,-0.49391 -2.39739,-0.5675 -0.0961,-0.0557 -0.22702,-0.0771 -0.32835,-0.0605 -0.57683,0.21931 -1.25302,0.63128 -2.00324,0.98757 -1.44582,0.66962 -2.68025,1.02272 -3.58361,1.1461 -0.90336,0.12338 -1.47806,0.0158 -1.64175,-0.31163 z"
     id="path30"
     style="fill:#ffffff;fill-rule:evenodd" />
  <path
     d="m 259.2893,180.14114 c 0.0827,-0.42735 0.85597,-0.68737 2.11601,-0.83498 0.63002,-0.0738 1.38065,-0.12096 2.22014,-0.16733 0.83949,-0.0464 1.76747,-0.0918 2.7517,-0.1827 1.38153,-0.14123 2.84357,-0.32661 4.08347,-0.88594 0.83452,-0.34011 1.6646,-0.90175 2.47619,-1.61241 0.14502,-0.12698 0.28791,-0.25725 0.4286,-0.39001 1.25225,-1.17635 2.32783,-2.60913 3.39676,-3.96742 1.51522,-2.28294 2.93857,-4.15642 4.10203,-5.41062 1.16347,-1.25419 2.06692,-1.88887 2.52629,-1.66556 h 0 l 0.008,0.004 0.008,0.004 c 0.44855,0.24243 0.38709,1.31491 -0.0987,2.97854 -0.48574,1.66364 -1.3959,3.91868 -2.62869,6.49759 -0.91642,1.61973 -2.0953,3.43869 -3.78869,5.15213 -0.19819,0.1997 -0.40524,0.3953 -0.62106,0.5857 -1.20788,1.0656 -2.62398,1.90077 -4.13188,2.41583 -2.19453,0.69451 -4.211,0.69473 -5.86821,0.47468 -1.15571,-0.14644 -2.17619,-0.37505 -3.05593,-0.63223 -0.87975,-0.25718 -1.6192,-0.54314 -2.21238,-0.82569 -1.18634,-0.5651 -1.79384,-1.11014 -1.71112,-1.5375 z"
     id="path32"
     style="fill:#ffffff;fill-rule:evenodd" />
  <path
     d="m 219.34765,282.694 c 0.15893,-0.0781 0.57682,0.40417 1.27452,1.34578 0.69769,0.9416 1.67982,2.34208 3.0398,4.05183 1.35997,1.70975 3.10256,3.72897 5.32196,5.86104 2.2194,2.13208 4.91945,4.37724 8.12978,6.48827 l 1e-5,0 c 3.03397,1.99401 6.52376,3.87439 10.43534,5.4489 3.91159,1.57451 8.24544,2.84255 12.88371,3.6165 3.9146,0.65029 8.0521,0.94643 12.29368,0.77981 4.24157,-0.16662 8.58661,-0.79627 12.87904,-1.98769 1.99422,-0.55182 3.97697,-1.22905 5.92983,-2.03048 6.39123,-2.62289 12.06746,-6.42151 16.66377,-10.87854 3.11364,-3.02412 5.83918,-6.25416 8.11439,-9.56837 2.27521,-3.31422 4.10001,-6.71243 5.47757,-10.08498 1.32713,-3.23452 2.2533,-6.4414 2.87597,-9.49961 0.62267,-3.0582 0.9422,-5.96802 1.06215,-8.64869 0.12961,-2.83431 0.0443,-5.41507 -0.13783,-7.68766 -0.18216,-2.27258 -0.46046,-4.23806 -0.72732,-5.8665 -0.79483,-3.48579 -1.1014,-5.4838 -0.80578,-5.59879 h 10e-6 l 0.002,-4.8e-4 0.002,-4.7e-4 h 10e-6 c 0.29902,-0.10409 1.1767,1.69052 2.53993,5.11597 0.53027,1.61918 1.0698,3.61675 1.50229,5.97205 0.4325,2.35531 0.75712,5.06943 0.84087,8.09105 0.0767,2.84536 -0.0718,5.96446 -0.5663,9.27445 -0.49446,3.30998 -1.33544,6.81112 -2.6382,10.37587 -1.3639,3.71515 -3.22291,7.46653 -5.58455,11.11572 -2.36164,3.64918 -5.22591,7.19565 -8.53062,10.48983 -4.97397,4.96407 -11.16562,9.18177 -18.17652,12.05905 -2.1422,0.87916 -4.32033,1.61763 -6.51357,2.21443 -4.70639,1.27694 -9.44719,1.91929 -14.05136,2.03541 -4.60417,0.11612 -9.07111,-0.29349 -13.27202,-1.10365 -4.9755,-0.95613 -9.58736,-2.47073 -13.70889,-4.32398 -4.12153,-1.85326 -7.75328,-4.04407 -10.86027,-6.3496 h 0 c -3.29592,-2.44428 -5.98953,-5.02858 -8.13022,-7.47351 -2.14068,-2.44493 -3.73251,-4.75033 -4.89133,-6.70755 -1.15882,-1.95721 -1.88946,-3.56644 -2.30647,-4.68897 -0.41702,-1.12253 -0.52487,-1.75836 -0.36594,-1.83644 z"
     id="path34"
     style="fill:#ff7d7d;fill-rule:evenodd" />
  <path
     d="m 188.76172,215.04509 c -0.17492,0.0152 -0.35625,-0.0817 -0.53956,-0.28716 -0.1833,-0.20549 -0.36961,-0.51954 -0.53663,-0.94752 -0.16703,-0.42797 -0.31583,-0.97047 -0.39018,-1.63746 -0.0744,-0.667 -0.0749,-1.45944 0.10161,-2.38036 0.12537,-0.60193 0.37032,-1.23136 0.77382,-1.83572 0.4035,-0.60436 0.9658,-1.18363 1.72003,-1.66378 1.23625,-0.67816 2.5845,-0.98626 3.75391,-1.00818 1.24847,-0.0687 2.46482,0.004 3.58494,0.0708 0.85851,0.0707 1.66501,0.23139 2.40837,0.44146 0.62739,0.1773 1.19493,0.3846 1.70725,0.59229 1.26142,0.47399 2.2925,0.92783 3.20262,1.16036 1.12995,0.3089 2.25268,0.37236 3.24208,0.25657 0.74871,-0.0749 1.45405,-0.24895 2.09924,-0.43283 0.6452,-0.18388 1.22979,-0.37799 1.73573,-0.52532 1.01188,-0.29468 1.70984,-0.39164 1.96535,-0.0793 0.25552,0.31229 0.0551,1.00453 -0.67316,1.92693 -0.36414,0.4612 -0.86433,0.97643 -1.53031,1.49063 -0.66598,0.5142 -1.49848,1.02782 -2.5326,1.44848 -1.47443,0.56911 -3.289,0.83867 -5.20279,0.56018 -1.45118,-0.22315 -2.8119,-0.66749 -4.0278,-1.09986 -0.49862,-0.16215 -0.9663,-0.32453 -1.40125,-0.45794 -0.51534,-0.15808 -0.97015,-0.26967 -1.37622,-0.29623 -1.21103,-0.11229 -2.24776,-0.26583 -3.15071,-0.31153 -0.84912,-3.2e-4 -1.46578,-0.0536 -1.83478,0.0938 -0.3535,-0.003 -0.75446,0.40302 -1.07076,0.84101 -0.29803,0.45309 -0.49728,0.95838 -0.66662,1.44201 -0.16933,0.48363 -0.30773,0.94552 -0.44706,1.33669 -0.27864,0.78235 -0.56467,1.27158 -0.91452,1.302 z"
     id="path36"
     style="fill:#ffffff;fill-rule:evenodd" />
  <path
     d="m 342.77094,188.0575 c -0.18554,0.0742 -0.42647,-0.0171 -0.72385,-0.18652 -0.29737,-0.16945 -0.65391,-0.42715 -1.07304,-0.56194 -0.31409,-0.10981 -0.6912,-0.16695 -1.07739,-0.13935 -0.36987,-0.005 -0.77737,0.0809 -1.2472,0.2497 -0.46983,0.16884 -1.00283,0.42086 -1.6144,0.68745 -1.21304,0.59158 -2.49311,1.38471 -3.83813,2.37572 -1.34502,0.991 -2.75757,2.1795 -4.25977,3.44543 l -0.19889,0.1667 c -2.12374,1.75654 -4.46779,2.94569 -6.70088,3.67663 -2.23309,0.73093 -4.35224,1.0096 -6.1412,1.02832 -1.92785,0.0257 -3.49445,-0.23128 -4.5629,-0.56851 -0.55577,-0.17534 -0.98383,-0.37435 -1.26518,-0.5744 -0.14322,-0.10184 -0.25026,-0.20427 -0.31769,-0.30446 -0.0347,-0.0506 -0.0594,-0.10069 -0.0734,-0.14984 -3.4e-4,-0.0714 -0.003,-0.10877 -0.005,-0.12816 -0.003,-0.019 -0.005,-0.0208 -0.005,-0.0209 l -2e-5,-1e-5 2e-5,-1e-5 c 3.7e-4,-4e-5 0.004,-0.001 0.0108,-0.0186 0.008,-0.018 0.0202,-0.0533 0.0396,-0.12216 0.0253,-0.044 0.059,-0.0867 0.10095,-0.12825 0.0846,-0.0822 0.20208,-0.16003 0.35212,-0.23498 0.29466,-0.14723 0.70814,-0.28435 1.22986,-0.42584 1.00249,-0.27216 2.38585,-0.5607 4.01825,-0.99853 1.49832,-0.40929 3.20772,-0.95165 4.95623,-1.73303 1.7485,-0.78137 3.53297,-1.80162 5.13495,-3.15991 0.0503,-0.0427 0.10031,-0.0856 0.14999,-0.12863 1.56405,-1.36229 3.22877,-2.61611 4.92548,-3.61476 1.69671,-0.99865 3.42309,-1.74027 5.05448,-2.19119 0.81548,-0.25642 1.69737,-0.40124 2.54733,-0.40572 0.84996,-0.005 1.6676,0.13034 2.38613,0.37858 0.85674,0.31726 1.48493,0.84743 1.88805,1.38044 0.49337,0.68309 0.61961,1.27605 0.62139,1.68633 0.002,0.41028 -0.12532,0.64622 -0.31085,0.72044 z"
     id="path38"
     style="fill:#ff7d7d;fill-rule:evenodd" />
  <path
     d="m 320.61682,233.50989 c -0.15893,0.0781 -0.57682,-0.40417 -1.27452,-1.34578 -0.69769,-0.94161 -1.67982,-2.34208 -3.0398,-4.05183 -1.35997,-1.70975 -3.10256,-3.72897 -5.32196,-5.86105 -2.2194,-2.13207 -4.91945,-4.37723 -8.12978,-6.48826 l -10e-6,0 c -3.03397,-1.99401 -6.52377,-3.87439 -10.43535,-5.4489 -3.91158,-1.57451 -8.24543,-2.84256 -12.8837,-3.61651 -3.9146,-0.65029 -8.0521,-0.94643 -12.29368,-0.7798 -4.24158,0.16662 -8.58661,0.79627 -12.87904,1.98769 -1.99422,0.55182 -3.97697,1.22905 -5.92983,2.03048 -6.39123,2.62289 -12.06746,6.42151 -16.66377,10.87854 -3.11364,3.02412 -5.83918,6.25416 -8.11439,9.56837 -2.27521,3.31422 -4.10002,6.71243 -5.47757,10.08498 -1.32713,3.23452 -2.2533,6.4414 -2.87597,9.49961 -0.62267,3.0582 -0.9422,5.96802 -1.06216,8.64869 -0.1296,2.83431 -0.0443,5.41507 0.13784,7.68766 0.18216,2.27258 0.46047,4.23806 0.72732,5.8665 0.79483,3.48579 1.1014,5.4838 0.80577,5.59879 h 0 l -0.002,4.8e-4 -0.002,4.7e-4 h -1e-5 c -0.29902,0.10409 -1.17671,-1.69052 -2.53993,-5.11598 -0.53028,-1.61917 -1.0698,-3.61674 -1.50229,-5.97204 -0.4325,-2.35531 -0.75712,-5.06943 -0.84087,-8.09105 -0.0767,-2.84536 0.0718,-5.96446 0.56629,-9.27445 0.49447,-3.30998 1.33545,-6.81112 2.6382,-10.37588 1.36391,-3.71514 3.22292,-7.46652 5.58456,-11.11571 2.36164,-3.64918 5.22591,-7.19565 8.53062,-10.48983 4.97397,-4.96408 11.16562,-9.18177 18.17652,-12.05905 2.1422,-0.87916 4.32033,-1.61763 6.51357,-2.21443 4.70639,-1.27694 9.44718,-1.91929 14.05136,-2.03541 4.60417,-0.11612 9.07111,0.29349 13.27202,1.10365 4.9755,0.95613 9.58736,2.47073 13.70889,4.32398 4.12153,1.85325 7.75328,4.04407 10.86027,6.3496 h 0 c 3.29592,2.44428 5.98953,5.02858 8.13022,7.47351 2.14068,2.44493 3.73251,4.75033 4.89133,6.70755 1.15882,1.95721 1.88946,3.56644 2.30647,4.68897 0.41701,1.12252 0.52487,1.75836 0.36594,1.83644 z"
     id="path40"
     style="fill:#650000;fill-rule:evenodd" />
  <path
     d="m 220.42717,175.10345 c -0.16369,-0.32739 0.10054,-0.84332 0.67915,-1.50514 0.57862,-0.66183 1.47322,-1.46769 2.51786,-2.42821 0.45604,-0.43325 1.01608,-1.00655 1.89872,-1.62122 0.76154,-0.47648 1.66033,-0.76353 2.62904,-0.78014 1.20251,-0.008 2.29852,0.17914 3.19129,0.33209 1.22585,0.20513 2.44617,0.52618 3.63254,0.91337 0.58605,0.19127 1.14852,0.39293 1.68815,0.59633 2.13568,0.79648 4.0522,1.68649 5.68077,2.55073 3.81407,2.11512 6.1483,3.98104 5.79186,4.81603 l -0.002,0.005 -0.002,0.005 v 1e-5 c -0.37692,0.8262 -3.3384,0.42266 -7.44611,-0.8571 -1.72599,-0.50227 -3.64874,-1.13014 -5.68091,-1.79782 l -1.59797,-0.52637 c -1.07345,-0.35255 -2.07742,-0.66658 -3.02578,-0.89629 -1.03928,-0.23346 -1.80144,-0.49391 -2.39739,-0.5675 -0.0961,-0.0557 -0.22702,-0.0771 -0.32835,-0.0605 -0.57683,0.21931 -1.25302,0.63128 -2.00324,0.98757 -1.44582,0.66962 -2.68025,1.02272 -3.58361,1.1461 -0.90336,0.12338 -1.47806,0.0158 -1.64175,-0.31163 z"
     id="path42"
     style="fill:#ff7d7d;fill-rule:evenodd" />
  <path
     d="m 259.2893,180.14114 c 0.0827,-0.42735 0.85597,-0.68737 2.11601,-0.83498 0.63002,-0.0738 1.38065,-0.12096 2.22014,-0.16733 0.83949,-0.0464 1.76747,-0.0918 2.7517,-0.1827 1.38153,-0.14123 2.84357,-0.32661 4.08347,-0.88594 0.83452,-0.34011 1.6646,-0.90175 2.47619,-1.61241 0.14502,-0.12698 0.28791,-0.25725 0.4286,-0.39001 1.25225,-1.17635 2.32783,-2.60913 3.39676,-3.96742 1.51522,-2.28294 2.93857,-4.15642 4.10203,-5.41062 1.16347,-1.25419 2.06692,-1.88887 2.52629,-1.66556 h 0 l 0.008,0.004 0.008,0.004 c 0.44855,0.24243 0.38709,1.31491 -0.0987,2.97854 -0.48574,1.66364 -1.3959,3.91868 -2.62869,6.49759 -0.91642,1.61973 -2.0953,3.43869 -3.78869,5.15213 -0.19819,0.1997 -0.40524,0.3953 -0.62106,0.5857 -1.20788,1.0656 -2.62398,1.90077 -4.13188,2.41583 -2.19453,0.69451 -4.211,0.69473 -5.86821,0.47468 -1.15571,-0.14644 -2.17619,-0.37505 -3.05593,-0.63223 -0.87975,-0.25718 -1.6192,-0.54314 -2.21238,-0.82569 -1.18634,-0.5651 -1.79384,-1.11014 -1.71112,-1.5375 z"
     id="path44"
     style="fill:#ff7d7d;fill-rule:evenodd" />
  <path
     d="m 188.76172,215.04509 c -0.17492,0.0152 -0.35625,-0.0817 -0.53956,-0.28716 -0.1833,-0.20549 -0.36961,-0.51954 -0.53663,-0.94752 -0.16703,-0.42797 -0.31583,-0.97047 -0.39018,-1.63746 -0.0744,-0.667 -0.0749,-1.45944 0.10161,-2.38036 0.12537,-0.60193 0.37032,-1.23136 0.77382,-1.83572 0.4035,-0.60436 0.9658,-1.18363 1.72003,-1.66378 1.23625,-0.67816 2.5845,-0.98626 3.75391,-1.00818 1.24847,-0.0687 2.46482,0.004 3.58494,0.0708 0.85851,0.0707 1.66501,0.23139 2.40837,0.44146 0.62739,0.1773 1.19493,0.3846 1.70725,0.59229 1.26142,0.47399 2.2925,0.92783 3.20262,1.16036 1.12995,0.3089 2.25268,0.37236 3.24208,0.25657 0.74871,-0.0749 1.45405,-0.24895 2.09924,-0.43283 0.6452,-0.18388 1.22979,-0.37799 1.73573,-0.52532 1.01188,-0.29468 1.70984,-0.39164 1.96535,-0.0793 0.25552,0.31229 0.0551,1.00453 -0.67316,1.92693 -0.36414,0.4612 -0.86433,0.97643 -1.53031,1.49063 -0.66598,0.5142 -1.49848,1.02782 -2.5326,1.44848 -1.47443,0.56911 -3.289,0.83867 -5.20279,0.56018 -1.45118,-0.22315 -2.8119,-0.66749 -4.0278,-1.09986 -0.49862,-0.16215 -0.9663,-0.32453 -1.40125,-0.45794 -0.51534,-0.15808 -0.97015,-0.26967 -1.37622,-0.29623 -1.21103,-0.11229 -2.24776,-0.26583 -3.15071,-0.31153 -0.84912,-3.2e-4 -1.46578,-0.0536 -1.83478,0.0938 -0.3535,-0.003 -0.75446,0.40302 -1.07076,0.84101 -0.29803,0.45309 -0.49728,0.95838 -0.66662,1.44201 -0.16933,0.48363 -0.30773,0.94552 -0.44706,1.33669 -0.27864,0.78235 -0.56467,1.27158 -0.91452,1.302 z"
     id="path46"
     style="fill:#ff7d7d;fill-rule:evenodd" />
  <path
     d="m 195.54013,312.5713 c 0.17661,0.0306 0.30471,0.23681 0.49384,0.48993 0.0946,0.12656 0.20681,0.26645 0.34689,0.40449 0.14008,0.13805 0.30885,0.27503 0.49686,0.38464 0.22633,0.15398 0.50007,0.29143 0.83435,0.41978 0.33428,0.12835 0.72987,0.24721 1.1799,0.39168 0.90252,0.26511 1.94775,0.48713 3.1483,0.65381 1.20055,0.16668 2.55791,0.27712 4.05466,0.40246 2.64747,0.19609 5.62098,0.28912 8.8067,0.25837 1.0455,-0.0134 2.09742,-0.0296 3.146,-0.0715 1.35153,-0.0541 2.64433,-0.15054 3.87042,-0.32459 2.95083,-0.40621 5.72614,0.0383 8.05247,0.87084 2.58261,0.93684 4.64513,2.23535 6.23453,3.48816 3.24308,3.23798 4.93944,5.42294 4.4783,5.92507 v 0 l -0.003,0.003 -0.003,0.003 v 0 h -1e-5 c -0.47808,0.48827 -2.98162,-0.76109 -6.53698,-3.0823 -1.58367,-0.77588 -3.42474,-1.57251 -5.47189,-2.0374 -1.88106,-0.4413 -3.9607,-0.64253 -5.97559,-0.2642 -1.45627,0.24973 -2.94436,0.39115 -4.43761,0.45456 -1.15853,0.0492 -2.28493,0.0511 -3.37151,0.0302 -3.37791,-0.0538 -6.56601,-0.38218 -9.37247,-0.92035 -1.5403,-0.28354 -3.02912,-0.64027 -4.36453,-1.09599 -1.33541,-0.45572 -2.51709,-1.00861 -3.49208,-1.60861 -0.49895,-0.29279 -0.96999,-0.64162 -1.36654,-1.01901 -0.39655,-0.37739 -0.71923,-0.78275 -0.95625,-1.18157 -0.2411,-0.40235 -0.35531,-0.8004 -0.39419,-1.14408 -0.0389,-0.34368 -0.003,-0.63392 0.0628,-0.85552 0.0659,-0.22159 0.16155,-0.37541 0.25785,-0.46738 0.0963,-0.092 0.19312,-0.12281 0.28143,-0.10752 z"
     id="path48"
     style="fill:#650000;fill-rule:evenodd" />
  <path
     d="m 243.75797,343.51708 c 0.11715,-0.096 0.33573,-0.0617 0.64955,0.0818 0.31383,0.14355 0.72348,0.39827 1.22561,0.72079 0.50212,0.32252 1.0966,0.7154 1.77977,1.07834 0.68317,0.36295 1.45442,0.69822 2.3156,0.81171 0.64006,0.10744 1.34945,0.099 2.05705,-0.0562 0.69101,-0.14169 1.4255,-0.44797 2.20778,-0.85597 0.90289,-0.46931 1.81047,-1.07825 2.74751,-1.80097 0.93703,-0.72272 1.90376,-1.55927 2.93917,-2.44753 2.4047,-2.09733 4.95068,-4.48413 7.7498,-6.92321 0.0431,-0.0378 0.0865,-0.0755 0.13012,-0.11292 1.56928,-1.34795 3.37764,-2.39853 5.30521,-3.06056 1.88006,-0.63289 3.79141,-0.86761 5.60222,-0.79534 2.01188,0.11153 3.85962,0.52856 5.52058,1.09754 1.66097,0.56897 3.13553,1.28942 4.42382,2.04447 2.82605,2.30218 5.06092,4.25628 6.51837,5.70472 1.45745,1.44845 2.13783,2.39149 1.88638,2.69435 v 10e-6 h -10e-6 v 0 l -0.002,0.002 -0.002,0.002 0,10e-6 c -0.26008,0.2967 -1.41965,-0.0756 -3.23242,-0.96487 -1.81276,-0.8893 -4.27839,-2.2954 -7.18206,-4.08915 -1.19428,-0.48162 -2.47998,-0.93468 -3.82553,-1.26109 -1.34556,-0.32641 -2.75066,-0.52597 -4.17428,-0.46399 -1.30342,0.0274 -2.63687,0.24498 -3.88385,0.71333 -1.28499,0.46933 -2.53597,1.23461 -3.68123,2.20665 l -0.0951,0.0814 c -2.73877,2.38418 -5.40868,4.73651 -8.05363,6.78461 -1.10163,0.86611 -2.23973,1.70744 -3.41398,2.44505 -1.17424,0.73762 -2.3844,1.37138 -3.61233,1.85738 -1.11151,0.44104 -2.29089,0.71985 -3.45708,0.78987 -1.24137,0.0669 -2.39973,-0.148 -3.39594,-0.53458 -1.24451,-0.52227 -2.16526,-1.20144 -2.87213,-1.86462 -0.70686,-0.66318 -1.19999,-1.31281 -1.55042,-1.86737 -0.35043,-0.55456 -0.55781,-1.0166 -0.65591,-1.358 -0.0981,-0.3414 -0.0862,-0.56384 0.031,-0.65986 z"
     id="path50"
     style="fill:#650000;fill-rule:evenodd" />
  <path
     d="m 171.48966,267.58091 c -0.044,-0.006 -0.0869,-0.0181 -0.12864,-0.0371 -0.0417,-0.0189 -0.0785,-0.0425 -0.11587,-0.0727 -0.0739,-0.0604 -0.14237,-0.1458 -0.20399,-0.25301 -0.12116,-0.2109 -0.21524,-0.51379 -0.26978,-0.8919 -0.10555,-0.73187 -0.0617,-1.77284 0.24596,-2.99937 0.30101,-1.19749 0.86322,-2.57858 1.77137,-3.96191 0.90816,-1.38333 2.1654,-2.76574 3.76345,-3.91689 0.42698,-0.3008 0.84987,-0.62934 1.26951,-0.98429 1.07044,-0.9054 2.0392,-1.91114 2.94141,-2.90664 0.90222,-0.99549 1.73735,-1.97874 2.50749,-2.85414 1.99153,-2.61087 3.67975,-4.15122 4.40596,-3.79453 l 0.006,0.003 0.006,0.003 h 1e-5 c 0.71513,0.37642 0.28689,2.60962 -1.00062,5.84509 -0.52697,1.13769 -1.22365,2.40161 -2.1411,3.69331 -0.91744,1.2917 -2.05806,2.61052 -3.45719,3.80801 -0.54851,0.46945 -1.11952,0.90519 -1.70779,1.30237 -1.1816,0.75987 -2.20825,1.64808 -3.07853,2.5439 -0.87028,0.89581 -1.58372,1.79917 -2.17431,2.60473 -0.61151,0.83855 -1.09678,1.55943 -1.51173,2.073 -0.21447,0.26566 -0.40937,0.47009 -0.59236,0.60782 -0.093,0.07 -0.18278,0.12095 -0.27029,0.15321 -0.0442,0.0166 -0.0877,0.0279 -0.1308,0.034 -0.0431,0.006 -0.0895,0.007 -0.13351,10e-4 z"
     id="path52"
     style="fill:#ff7d7d;fill-rule:evenodd" />
  <path
     d="m 363.64134,240.23352 c -0.47435,0.50823 -1.40343,0.48298 -2.52108,0.17562 -1.11766,-0.30737 -2.43336,-0.88905 -3.81995,-1.61526 -0.74876,-0.39215 -1.44522,-0.79001 -2.07093,-1.18732 -0.85867,-0.54377 -1.56731,-1.0826 -2.06224,-1.61098 -0.24184,-0.25805 -0.42411,-0.51286 -0.54313,-0.76572 -0.0591,-0.12557 -0.10018,-0.25038 -0.12409,-0.37481 -0.011,-0.062 -0.0177,-0.12383 -0.0203,-0.18568 0.0121,-0.17897 0.008,-0.19235 0.007,-0.19316 l -3e-5,-5e-5 4e-5,-4e-5 c 0.001,-5.1e-4 0.009,-0.0125 0.0433,-0.18831 0.0204,-0.0587 0.0476,-0.11574 0.0809,-0.17105 0.0649,-0.11111 0.15448,-0.21517 0.26434,-0.31096 0.22127,-0.19287 0.53484,-0.35088 0.9149,-0.4629 0.77862,-0.22938 1.87334,-0.25877 3.07872,-0.011 0.88433,0.18177 1.83638,0.51241 2.76744,0.99953 0.86208,0.45102 1.62247,0.99199 2.24738,1.56133 0.62491,0.56933 1.11464,1.16626 1.45658,1.73025 0.34194,0.56398 0.53674,1.09439 0.58567,1.54259 0.0489,0.44821 -0.0472,0.81381 -0.28439,1.06792 z"
     id="path54"
     style="fill:#ff7d7d;fill-rule:evenodd" />
  <path
     d="m 316.52019,318.9022 c -0.20147,-0.1096 -0.25194,-0.48731 -0.1483,-1.10093 0.10365,-0.61363 0.36128,-1.46398 0.80544,-2.4995 0.44416,-1.03552 1.07506,-2.25732 1.95433,-3.57867 0.87926,-1.32135 2.00775,-2.74282 3.46801,-4.12916 1.04226,-0.97484 2.24661,-1.89674 3.59685,-2.71035 1.35023,-0.8136 2.84629,-1.51861 4.45162,-2.06528 1.50663,-0.50762 3.03741,-0.87676 4.53587,-1.20507 0.89587,-0.19628 1.75807,-0.37469 2.58006,-0.56065 2.08181,-0.50851 3.89724,-1.04703 5.20983,-1.96388 1.50503,-1.00631 2.713,-2.25798 3.58675,-3.54226 0.90001,-1.31169 1.4895,-2.68498 1.91087,-3.90122 0.45731,-1.32846 0.71631,-2.47059 0.93853,-3.30125 0.1186,-0.44424 0.22617,-0.79565 0.33976,-1.04711 0.0586,-0.12966 0.11895,-0.23106 0.18298,-0.30447 0.0326,-0.0365 0.0661,-0.0659 0.10077,-0.0882 0.0548,-0.0174 0.083,-0.0285 0.0973,-0.0354 0.0144,-0.007 0.0149,-0.009 0.015,-0.01 l 10e-6,-2e-5 10e-6,2e-5 c 1.6e-4,3.4e-4 0.002,0.003 0.0172,0.005 0.0152,0.002 0.0459,0.004 0.10335,0.004 0.0397,0.0121 0.0806,0.0335 0.12206,0.0638 0.0816,0.0583 0.16584,0.15121 0.24992,0.27609 0.1631,0.24226 0.32704,0.61155 0.46784,1.09564 0.26377,0.90587 0.45763,2.23908 0.34533,3.90811 -0.10222,1.53913 -0.47775,3.37637 -1.38836,5.29696 -0.9054,1.8918 -2.3376,3.79706 -4.30678,5.35306 -1.00955,0.77016 -2.11764,1.40148 -3.27422,1.90469 -1.15658,0.50322 -2.36135,0.87841 -3.55234,1.15823 -0.89652,0.22527 -1.79058,0.42191 -2.67037,0.61342 -1.47158,0.32031 -2.84093,0.617 -4.08491,0.99917 -2.62399,0.7941 -4.93307,1.99439 -6.79143,3.36366 -1.35284,0.98161 -2.5068,2.04313 -3.50867,3.04413 -1.00187,1.001 -1.8513,1.94143 -2.5714,2.72069 -0.72009,0.77926 -1.31057,1.39819 -1.77584,1.78969 -0.46526,0.3915 -0.80561,0.55658 -1.00707,0.44698 z"
     id="path56"
     style="fill:#650000;fill-rule:evenodd" />
  <path
     d="m 294.19326,339.18803 c 0.12797,-0.19904 0.48093,-0.24293 1.02539,-0.15885 0.54446,0.0841 1.28077,0.29702 2.17852,0.59226 0.89774,0.29523 1.95664,0.67357 3.14877,1.05528 1.19213,0.38171 2.51689,0.7668 3.95529,1.03554 0.91856,0.15148 1.86494,0.28167 2.77375,0.30423 0.90882,0.0226 1.7794,-0.0628 2.53691,-0.37824 0.64871,-0.22397 1.27776,-0.64795 1.7727,-1.19732 0.21927,-0.24337 0.40783,-0.50679 0.55769,-0.78132 0.65899,-1.07832 0.85391,-2.52857 0.90742,-3.96693 -0.073,-8.15584 0.5569,-14.05526 1.64866,-14.13621 l 0.005,-3.3e-4 0.005,-2.8e-4 h 0 c 1.09376,-0.0419 2.32426,5.76956 3.08799,13.93084 0.17567,2.00319 -0.0918,4.31921 -1.2394,6.56948 -0.34109,0.63006 -0.75658,1.21913 -1.23828,1.75305 -1.08736,1.20521 -2.46857,2.07831 -3.96922,2.55417 -1.53694,0.43162 -3.00971,0.5192 -4.35748,0.4079 -1.34777,-0.1113 -2.57077,-0.42069 -3.64251,-0.80801 -1.67764,-0.57482 -3.10978,-1.28313 -4.31167,-1.99895 -1.2019,-0.71583 -2.17445,-1.4394 -2.93003,-2.08952 -0.75558,-0.65012 -1.29462,-1.22773 -1.6166,-1.68692 -0.32198,-0.45919 -0.42681,-0.80082 -0.29885,-0.99987 z"
     id="path58"
     style="fill:#650000;fill-rule:evenodd" />
  <path
     d="m 346.00944,276.21698 c -0.45124,-0.0615 -0.75728,-1.03206 -0.88757,-2.70076 -0.0651,-0.83435 -0.0849,-1.84442 -0.0339,-3.00653 0.051,-1.1621 0.17245,-2.47669 0.41261,-3.91492 0.29376,-1.81163 0.83973,-3.89314 2.02369,-6.00506 0.84785,-1.44897 1.91522,-2.73831 3.04318,-3.87678 0.19307,-0.19487 0.38602,-0.38372 0.57792,-0.56706 1.93946,-1.8822 3.83237,-3.49162 5.4938,-4.94071 1.45121,-1.30219 2.75517,-2.39149 3.79297,-3.36772 1.03779,-0.97623 1.81955,-1.84037 2.42498,-2.53566 0.21343,-0.25251 0.40361,-0.45109 0.56309,-0.62496 l 0.40565,-0.45149 c 0.10096,-0.11102 0.19383,-0.18659 0.27986,-0.25379 l 0.12592,-0.0724 c 0.12196,-0.0526 0.12905,-0.0656 0.12935,-0.0672 l 3e-5,-1.1e-4 1e-4,7e-5 c 10e-4,0.001 0.0147,0.007 0.14444,-0.009 0.0489,0.0135 0.10058,0.0463 0.15092,0.0951 0.10102,0.0872 0.19694,0.24527 0.26188,0.43717 0.0747,0.21706 0.1205,0.5024 0.11935,0.83481 -10e-4,0.33241 -0.0507,0.71191 -0.14142,1.09206 -0.23558,1.05409 -0.77052,2.38589 -1.63955,3.80442 -0.86904,1.41852 -2.07719,2.91441 -3.40825,4.36378 -1.55182,1.7287 -3.35693,3.48371 -5.17881,5.28974 -0.17127,0.17277 -0.34142,0.34464 -0.5095,0.51599 -0.98197,1.00102 -1.83379,1.93165 -2.43999,2.87933 -0.91636,1.34996 -1.50714,2.9578 -2.04249,4.49391 -0.42604,1.2518 -0.7907,2.43084 -1.12913,3.48769 -0.33843,1.05685 -0.65029,1.99118 -0.94829,2.75938 -0.596,1.53642 -1.13959,2.40217 -1.59083,2.34064 z"
     id="path60"
     style="fill:#650000;fill-rule:evenodd" />
  <path
     d="m 174.36834,275.49731 c 0.19921,-0.73262 3.05057,-0.66316 7.39364,0.039 3.45728,0.54126 7.84236,1.47814 12.59796,2.54424 0.24033,0.0507 0.48174,0.1066 0.72381,0.16778 1.50417,0.38016 2.96359,0.95156 4.29072,1.70083 1.32713,0.74927 2.52133,1.67612 3.52499,2.7381 v 0 c 0.93699,1.02866 1.63924,2.14365 2.14129,3.25179 0.50206,1.10814 0.80443,2.20924 0.95687,3.23665 0.16289,1.11225 0.16649,2.12354 0.0845,3.00371 -0.082,0.88016 -0.24926,1.62974 -0.44506,2.23744 -0.21422,0.66834 -0.46571,1.17371 -0.70612,1.50102 -0.12543,0.17075 -0.24885,0.29566 -0.36459,0.37105 -0.0593,0.0395 -0.11661,0.0662 -0.17123,0.0793 v 0 l -0.13763,-0.005 c -0.0207,0.002 -0.0227,0.005 -0.0229,0.005 l -1e-5,2e-5 v -2e-5 c 3e-5,-3.6e-4 -2.1e-4,-0.004 -0.0177,-0.0151 -0.0178,-0.0113 -0.0533,-0.0303 -0.12364,-0.0613 v -10e-6 c -0.0426,-0.0356 -0.0827,-0.0811 -0.12044,-0.13663 -0.0735,-0.11102 -0.13844,-0.26065 -0.19801,-0.44884 -0.11419,-0.36056 -0.21066,-0.85376 -0.32292,-1.46325 -0.20628,-1.10729 -0.45446,-2.59328 -1.07337,-4.16655 -0.55782,-1.4134 -1.45286,-2.93284 -2.78569,-4.0938 -0.69774,-0.64549 -1.5478,-1.20014 -2.52575,-1.66992 -0.97795,-0.46978 -2.08354,-0.85518 -3.2596,-1.17467 l -0.56859,-0.14824 c -4.87053,-1.13234 -9.18915,-2.52475 -12.46616,-3.77931 h 0 c -4.10833,-1.5958 -6.60356,-2.98012 -6.40436,-3.71275 z"
     id="path62"
     style="fill:#650000;fill-rule:evenodd" />
</svg>
