<?xml version="1.0" encoding="UTF-8" standalone="no"?>
<svg
   xmlns:dc="http://purl.org/dc/elements/1.1/"
   xmlns:cc="http://creativecommons.org/ns#"
   xmlns:rdf="http://www.w3.org/1999/02/22-rdf-syntax-ns#"
   xmlns:svg="http://www.w3.org/2000/svg"
   xmlns="http://www.w3.org/2000/svg"
   xmlns:sodipodi="http://sodipodi.sourceforge.net/DTD/sodipodi-0.dtd"
   xmlns:inkscape="http://www.inkscape.org/namespaces/inkscape"
   viewBox="0 0 22 22"
   id="svg3007"
   version="1.1"
   inkscape:version="0.48.3.1 r9886"
   width="100%"
   height="100%"
   sodipodi:docname="nm-vpn-connecting13.svg">
  <metadata
     id="metadata3037">
    <rdf:RDF>
      <cc:Work
         rdf:about="">
        <dc:format>image/svg+xml</dc:format>
        <dc:type
           rdf:resource="http://purl.org/dc/dcmitype/StillImage" />
        <dc:title></dc:title>
      </cc:Work>
    </rdf:RDF>
  </metadata>
  <defs
     id="defs3035" />
  <sodipodi:namedview
     pagecolor="#ffffff"
     bordercolor="#666666"
     borderopacity="1"
     objecttolerance="10"
     gridtolerance="10"
     guidetolerance="10"
     inkscape:pageopacity="0"
     inkscape:pageshadow="2"
     inkscape:window-width="838"
     inkscape:window-height="948"
     id="namedview3033"
     showgrid="false"
     inkscape:zoom="9.4972032"
     inkscape:cx="-12.51554"
     inkscape:cy="5.7232857"
     inkscape:window-x="840"
     inkscape:window-y="22"
     inkscape:window-maximized="0"
     inkscape:current-layer="svg3007" />
  <path
     inkscape:connector-curvature="0"
     style="opacity:0.90000000000000002;fill:#ffffff;fill-opacity:0.18039216"
     d="m 18,13 c -1.108,0 -2,0.910763 -2,2.03125 L 16,16 c -0.554,0 -1,0.446 -1,1 l 0,3 c 0,0.554 0.446,1 1,1 l 4,0 c 0.554,0 1,-0.446 1,-1 l 0,-3 c 0,-0.554 -0.446,-1 -1,-1 l 0,-0.96875 C 20,13.910764 19.108,13 18,13 z m 0,1 c 0.554,0 1,0.442363 1,1 l 0,1 -2,0 0,-1 c 0,-0.557637 0.446,-1 1,-1 z"
     id="path26" />
  <path
     inkscape:connector-curvature="0"
     style="opacity:0.9;color:#000000;fill:#ffffff;fill-opacity:1;fill-rule:nonzero;stroke:none;marker:none;visibility:visible;display:inline;overflow:visible;enable-background:accumulate"
     d="m 18.403584,2.0000011 c -0.137139,0 -0.268309,0.0512 -0.36457,0.14954 l -3.655049,3.65463 -1.66394,0 c -0.13701,-10e-4 -0.27696,0.0528 -0.37392,0.14955 l -2.42112,2.42085 c -0.19663,0.19249 -0.19663,0.55526 0,0.74775 l 2.9633,2.9629599 c 0.0989,0.0988 0.23412,0.1529 0.37392,0.14955 0.1342,-10e-4 0.2696,-0.0547 0.36457,-0.14955 l 2.43048,-2.4301899 c 0.0968,-0.0969 0.15066,-0.22754 0.14956,-0.36453 l 0,-1.67309 3.64571,-3.64528 c 0.19663,-0.1925 0.19663,-0.55526 0,-0.74775 L 18.777505,2.149541 c -0.0963,-0.0983 -0.23677,-0.14954 -0.373919,-0.14954 z"
     id="path2994" />
  <path
     inkscape:connector-curvature="0"
     style="opacity:0.9;color:#000000;fill:#ffffff;fill-opacity:1;fill-rule:nonzero;stroke:none;marker:none;visibility:visible;display:inline;overflow:visible;enable-background:accumulate"
     d="m 8.737795,9.7672511 c -0.1342,0.001 -0.2696,0.0641 -0.36457,0.1589 l -2.43048,2.4208399 c -0.0968,0.0969 -0.15066,0.23689 -0.14956,0.37388 l 0,1.66374 -3.64571,3.65463 c -0.19663,0.1925 -0.19663,0.54591 0,0.73841 l 1.07502,1.07489 c 0.19251,0.19661 0.54597,0.19661 0.73849,0 l 3.65505,-3.64529 1.66394,0 c 0.13701,0.001 0.27696,-0.0528 0.37392,-0.14955 l 2.421121,-2.43019 c 0.19664,-0.19249 0.19664,-0.5459 0,-0.7384 L 9.111715,9.926151 c -0.0989,-0.0988 -0.23413,-0.16225 -0.37392,-0.1589 z"
     id="path3804-7" />
</svg>
