<?xml version="1.0" encoding="UTF-8" standalone="no"?>
<!-- Created with Inkscape (http://www.inkscape.org/) -->

<svg
   xmlns:dc="http://purl.org/dc/elements/1.1/"
   xmlns:cc="http://creativecommons.org/ns#"
   xmlns:rdf="http://www.w3.org/1999/02/22-rdf-syntax-ns#"
   xmlns:svg="http://www.w3.org/2000/svg"
   xmlns="http://www.w3.org/2000/svg"
   xmlns:sodipodi="http://sodipodi.sourceforge.net/DTD/sodipodi-0.dtd"
   xmlns:inkscape="http://www.inkscape.org/namespaces/inkscape"
   id="svg7384"
   height="24"
   width="24"
   version="1.1"
   inkscape:version="0.48.3.1 r9886"
   sodipodi:docname="battery-caution-charging.svg">
  <defs
     id="defs18" />
  <sodipodi:namedview
     pagecolor="#ffffff"
     bordercolor="#666666"
     borderopacity="1"
     objecttolerance="10"
     gridtolerance="10"
     guidetolerance="10"
     inkscape:pageopacity="0"
     inkscape:pageshadow="2"
     inkscape:window-width="1375"
     inkscape:window-height="876"
     id="namedview16"
     showgrid="false"
     inkscape:zoom="41.27778"
     inkscape:cx="12"
     inkscape:cy="12"
     inkscape:window-x="1431"
     inkscape:window-y="24"
     inkscape:window-maximized="1"
     inkscape:current-layer="svg7384" />
  <metadata
     id="metadata90">
    <rdf:RDF>
      <cc:Work
         rdf:about="">
        <dc:format>image/svg+xml</dc:format>
        <dc:type
           rdf:resource="http://purl.org/dc/dcmitype/StillImage" />
        <dc:title>Gnome Symbolic Icon Theme</dc:title>
      </cc:Work>
    </rdf:RDF>
  </metadata>
  <title
     id="title9167">Gnome Symbolic Icon Theme</title>
  <g
     id="g3240"
     transform="matrix(1.4999997,0,0,1.4999999,2.2499997e-6,1.4e-6)">
    <g
       style="fill:#f57900;fill-opacity:1"
       inkscape:label="Capa 1"
       id="g13005"
       transform="matrix(0.1875,0,0,0.1875,14.614908,-183.32995)">
      <g
         transform="matrix(0.52495376,0,0,0.52495376,-127.33203,212.74148)"
         id="g13007"
         style="fill:#f57900;fill-opacity:1" />
    </g>
    <path
       style="opacity:0.2;fill:#ffffff;fill-opacity:1;stroke:none"
       d="M 12 3 C 7.0294355 3 3 7.0294128 3 12 C 3 16.970587 7.0294355 21 12 21 C 16.970558 21 21 16.970587 21 12 C 21 7.0294128 16.970558 3 12 3 z M 11.78125 6.375 L 11.78125 10.59375 L 15.8125 10.59375 L 11.65625 17.625 L 11.65625 12.9375 L 8.1875 12.9375 L 11.78125 6.375 z "
       transform="matrix(0.6666668,0,0,0.66666671,-1.5000001e-6,-9.333334e-7)"
       id="path4302" />
    <path
       id="path4073"
       d="M 3.5585929,12.023225 C 4.6546349,13.235674 6.2361369,14 8.0000012,14 c 1.4785012,0 2.8268738,-0.53895 3.8701158,-1.426763 -1.144413,-0.20055 -2.6480246,-0.311475 -4.62378,-0.2124 -1.7101361,0.0858 -2.8697551,-0.10425 -3.6877441,-0.337612 z"
       style="fill:#ef2929;fill-opacity:1;stroke:none"
       inkscape:connector-curvature="0" />
  </g>
</svg>
