<?xml version="1.0" encoding="UTF-8" standalone="no"?>
<!-- Created with Inkscape (http://www.inkscape.org/) -->

<svg
   xmlns:dc="http://purl.org/dc/elements/1.1/"
   xmlns:cc="http://creativecommons.org/ns#"
   xmlns:rdf="http://www.w3.org/1999/02/22-rdf-syntax-ns#"
   xmlns:svg="http://www.w3.org/2000/svg"
   xmlns="http://www.w3.org/2000/svg"
   xmlns:sodipodi="http://sodipodi.sourceforge.net/DTD/sodipodi-0.dtd"
   xmlns:inkscape="http://www.inkscape.org/namespaces/inkscape"
   width="24"
   height="24"
   id="svg3025"
   version="1.1"
   inkscape:version="0.48.3.1 r9886"
   sodipodi:docname="user.svg">
  <defs
     id="defs3027" />
  <sodipodi:namedview
     id="base"
     pagecolor="#ffffff"
     bordercolor="#666666"
     borderopacity="1.0"
     inkscape:pageopacity="0.0"
     inkscape:pageshadow="2"
     inkscape:zoom="23.880618"
     inkscape:cx="13.507499"
     inkscape:cy="11.999959"
     inkscape:document-units="px"
     inkscape:current-layer="layer1"
     showgrid="false"
     inkscape:window-width="1375"
     inkscape:window-height="876"
     inkscape:window-x="1431"
     inkscape:window-y="24"
     inkscape:window-maximized="1" />
  <metadata
     id="metadata3030">
    <rdf:RDF>
      <cc:Work
         rdf:about="">
        <dc:format>image/svg+xml</dc:format>
        <dc:type
           rdf:resource="http://purl.org/dc/dcmitype/StillImage" />
        <dc:title></dc:title>
      </cc:Work>
    </rdf:RDF>
  </metadata>
  <g
     inkscape:label="Livello 1"
     inkscape:groupmode="layer"
     id="layer1"
     transform="translate(0,-1028.3622)">
    <path
       inkscape:connector-curvature="0"
       style="font-size:medium;font-style:normal;font-variant:normal;font-weight:normal;font-stretch:normal;text-indent:0;text-align:start;text-decoration:none;line-height:normal;letter-spacing:normal;word-spacing:normal;text-transform:none;direction:ltr;block-progression:tb;writing-mode:lr-tb;text-anchor:start;baseline-shift:baseline;opacity:0.9;color:#000000;fill:#ffffff;fill-opacity:1;fill-rule:evenodd;stroke:none;stroke-width:4;marker:none;visibility:visible;display:inline;overflow:visible;enable-background:accumulate;font-family:Sans;-inkscape-font-specification:Sans"
       d="m 10.884495,1029.3621 a 0.14339113,0.14339113 0 0 0 -0.138897,0.1434 l 0,8.3674 -4.6597447,-3.4859 a 0.14339113,0.14339113 0 0 0 -0.18594,0.014 l -1.35984,1.3531 a 0.14339113,0.14339113 0 0 0 0.0134,0.215 l 5.6544217,4.3954 -5.4214317,4.3417 a 0.14339113,0.14339113 0 0 0 -0.0134,0.2128 l 1.46513,1.4965 a 0.14339113,0.14339113 0 0 0 0.19266,0.011 l 4.3147447,-3.4903 0,8.2822 a 0.14339113,0.14339113 0 0 0 0.230747,0.1143 l 8.468192,-6.3198 a 0.14339113,0.14339113 0 0 0 0.0045,-0.2263 l -5.47296,-4.3528 5.29374,-4.2924 a 0.14339113,0.14339113 0 0 0 -0.0022,-0.224 l -8.288974,-6.5236 a 0.14339113,0.14339113 0 0 0 -0.09409,-0.031 z m 2.249223,4.3551 2.842893,2.3836 -2.842893,2.1529 0,-4.5365 z m 0,8.9879 2.932503,2.1215 -2.934743,1.9177 c 0,-1.4539 0.0022,-2.6137 0.0022,-4.0392 z"
       id="path5178" />
  </g>
</svg>
