<?xml version="1.0" encoding="UTF-8" standalone="no"?>
<!-- Created with Inkscape (http://www.inkscape.org/) -->

<svg
   xmlns:dc="http://purl.org/dc/elements/1.1/"
   xmlns:cc="http://creativecommons.org/ns#"
   xmlns:rdf="http://www.w3.org/1999/02/22-rdf-syntax-ns#"
   xmlns:svg="http://www.w3.org/2000/svg"
   xmlns="http://www.w3.org/2000/svg"
   xmlns:sodipodi="http://sodipodi.sourceforge.net/DTD/sodipodi-0.dtd"
   xmlns:inkscape="http://www.inkscape.org/namespaces/inkscape"
   width="24"
   height="24"
   id="svg3025"
   version="1.1"
   inkscape:version="0.48.3.1 r9886"
   sodipodi:docname="bluetooth-active.svg">
  <defs
     id="defs3027" />
  <sodipodi:namedview
     id="base"
     pagecolor="#ffffff"
     bordercolor="#666666"
     borderopacity="1.0"
     inkscape:pageopacity="0.0"
     inkscape:pageshadow="2"
     inkscape:zoom="23.880618"
     inkscape:cx="8.6739076"
     inkscape:cy="12.167459"
     inkscape:document-units="px"
     inkscape:current-layer="layer1"
     showgrid="false"
     inkscape:window-width="1375"
     inkscape:window-height="876"
     inkscape:window-x="1431"
     inkscape:window-y="24"
     inkscape:window-maximized="1" />
  <metadata
     id="metadata3030">
    <rdf:RDF>
      <cc:Work
         rdf:about="">
        <dc:format>image/svg+xml</dc:format>
        <dc:type
           rdf:resource="http://purl.org/dc/dcmitype/StillImage" />
        <dc:title />
      </cc:Work>
    </rdf:RDF>
  </metadata>
  <g
     inkscape:label="Livello 1"
     inkscape:groupmode="layer"
     id="layer1"
     transform="translate(0,-1028.3622)">
    <path
       inkscape:connector-curvature="0"
       style="font-size:medium;font-style:normal;font-variant:normal;font-weight:normal;font-stretch:normal;text-indent:0;text-align:start;text-decoration:none;line-height:normal;letter-spacing:normal;word-spacing:normal;text-transform:none;direction:ltr;block-progression:tb;writing-mode:lr-tb;text-anchor:start;baseline-shift:baseline;opacity:0.9;color:#000000;fill:#ffffff;fill-opacity:1;fill-rule:evenodd;stroke:none;stroke-width:4;marker:none;visibility:visible;display:inline;overflow:visible;enable-background:accumulate;font-family:Sans;-inkscape-font-specification:Sans"
       d="m 10.882669,1031.3622 a 0.14335014,0.11731174 0 0 0 -0.138857,0.1173 l 0,6.8456 -4.6584126,-2.852 a 0.14335014,0.11731174 0 0 0 -0.1858869,0.012 l -1.3594513,1.1071 a 0.14335014,0.11731174 0 0 0 0.013396,0.1758 l 5.6528058,3.596 -5.4198824,3.5521 a 0.14335014,0.11731174 0 0 0 -0.013396,0.174 l 1.4647113,1.2245 a 0.14335014,0.11731174 0 0 0 0.1926049,0.01 l 4.3135112,-2.8556 0,6.7759 a 0.14335014,0.11731174 0 0 0 0.230681,0.093 l 8.465772,-5.1704 a 0.14335014,0.11731174 0 0 0 0.0045,-0.1851 l -5.471395,-3.5612 5.292227,-3.5117 a 0.14335014,0.11731174 0 0 0 -0.0022,-0.1832 l -8.286604,-5.3371 a 0.14335014,0.11731174 0 0 0 -0.09406,-0.025 z m 2.248581,3.5629 2.84208,1.9501 -2.84208,1.7615 0,-3.7116 z m 0,7.3532 2.931664,1.7357 -2.933904,1.569 c 0,-1.1895 0.0022,-2.1384 0.0022,-3.3047 z"
       id="path5178" />
  </g>
</svg>
