<?xml version="1.0" encoding="UTF-8" standalone="no"?>
<!-- Created with Inkscape (http://www.inkscape.org/) -->

<svg
   xmlns:dc="http://purl.org/dc/elements/1.1/"
   xmlns:cc="http://creativecommons.org/ns#"
   xmlns:rdf="http://www.w3.org/1999/02/22-rdf-syntax-ns#"
   xmlns:svg="http://www.w3.org/2000/svg"
   xmlns="http://www.w3.org/2000/svg"
   xmlns:sodipodi="http://sodipodi.sourceforge.net/DTD/sodipodi-0.dtd"
   xmlns:inkscape="http://www.inkscape.org/namespaces/inkscape"
   width="24"
   height="24"
   id="svg2"
   version="1.1"
   inkscape:version="0.48.3.1 r9886"
   sodipodi:docname="indicator-messages.svg">
  <defs
     id="defs4" />
  <sodipodi:namedview
     id="base"
     pagecolor="#ffffff"
     bordercolor="#666666"
     borderopacity="1.0"
     inkscape:pageopacity="0.0"
     inkscape:pageshadow="2"
     inkscape:zoom="11.8125"
     inkscape:cx="2.1375661"
     inkscape:cy="12"
     inkscape:document-units="px"
     inkscape:current-layer="layer1"
     showgrid="false"
     inkscape:window-width="1044"
     inkscape:window-height="700"
     inkscape:window-x="1431"
     inkscape:window-y="24"
     inkscape:window-maximized="0" />
  <metadata
     id="metadata7">
    <rdf:RDF>
      <cc:Work
         rdf:about="">
        <dc:format>image/svg+xml</dc:format>
        <dc:type
           rdf:resource="http://purl.org/dc/dcmitype/StillImage" />
        <dc:title />
      </cc:Work>
    </rdf:RDF>
  </metadata>
  <g
     inkscape:label="Livello 1"
     inkscape:groupmode="layer"
     id="layer1"
     transform="translate(0,-1028.3622)">
    <path
       sodipodi:nodetypes="cccccccssccssccccccccccc"
       inkscape:connector-curvature="0"
       id="path5740"
       d="m 11.999979,1031.1122 c -0.488332,0.01 -0.914809,0.2903 -1.060515,0.7622 -0.06439,0.2081 -0.06933,0.4427 -0.05521,0.6628 0.0156,0.2464 -0.07496,0.3463 -0.309315,0.4161 -2.2295172,0.6648 -3.6221646,2.1325 -4.0229384,4.4281 -0.1568329,0.8984 -0.082325,1.836 -0.117837,2.7562 -0.021925,0.566 -0.052081,1.1319 -0.081024,1.6975 -0.052081,1.0148 -0.5071546,1.8439 -1.3348468,2.3843 -0.6831008,0.4461 -0.8174721,1.66 -0.8174721,1.7583 l 0,1.1306 c 5.1994529,0 10.3989053,0 15.5983583,0 l 0,-1.1306 c 0,-0.098 -0.134371,-1.3122 -0.817476,-1.7583 -0.827692,-0.5404 -1.282782,-1.3695 -1.334846,-2.3843 -0.02886,-0.5656 -0.05909,-1.1315 -0.08103,-1.6975 -0.03553,-0.9202 0.039,-1.8578 -0.117837,-2.7562 -0.400782,-2.2956 -1.793422,-3.7633 -4.022946,-4.4281 -0.234323,-0.07 -0.324948,-0.1697 -0.309315,-0.4161 0.01404,-0.2201 0.0091,-0.4547 -0.05521,-0.6628 -0.145706,-0.4719 -0.572175,-0.7577 -1.060516,-0.7622 z m -2.3916698,17.097 c 0.5593138,0.9297 1.4745388,1.3969 2.3916698,1.403 0.917132,-0.01 1.832357,-0.4733 2.391679,-1.403 -1.594456,0 -3.188902,0 -4.7833488,0 z"
       style="opacity:0.9;fill:#ffffff;fill-rule:evenodd" />
  </g>
</svg>
