<?xml version="1.0" encoding="UTF-8" standalone="no"?>
<!-- Created with Inkscape (http://www.inkscape.org/) -->

<svg
   xmlns:dc="http://purl.org/dc/elements/1.1/"
   xmlns:cc="http://creativecommons.org/ns#"
   xmlns:rdf="http://www.w3.org/1999/02/22-rdf-syntax-ns#"
   xmlns:svg="http://www.w3.org/2000/svg"
   xmlns="http://www.w3.org/2000/svg"
   xmlns:sodipodi="http://sodipodi.sourceforge.net/DTD/sodipodi-0.dtd"
   xmlns:inkscape="http://www.inkscape.org/namespaces/inkscape"
   width="24"
   height="24"
   id="svg2"
   version="1.1"
   inkscape:version="0.48.3.1 r9886"
   sodipodi:docname="indicator-messages-new.svg">
  <defs
     id="defs4" />
  <sodipodi:namedview
     id="base"
     pagecolor="#ffffff"
     bordercolor="#666666"
     borderopacity="1.0"
     inkscape:pageopacity="0.0"
     inkscape:pageshadow="2"
     inkscape:zoom="11.8125"
     inkscape:cx="8.6137566"
     inkscape:cy="12"
     inkscape:document-units="px"
     inkscape:current-layer="layer1"
     showgrid="false"
     inkscape:window-width="1044"
     inkscape:window-height="700"
     inkscape:window-x="1432"
     inkscape:window-y="49"
     inkscape:window-maximized="0" />
  <metadata
     id="metadata7">
    <rdf:RDF>
      <cc:Work
         rdf:about="">
        <dc:format>image/svg+xml</dc:format>
        <dc:type
           rdf:resource="http://purl.org/dc/dcmitype/StillImage" />
        <dc:title></dc:title>
      </cc:Work>
    </rdf:RDF>
  </metadata>
  <g
     inkscape:label="Livello 1"
     inkscape:groupmode="layer"
     id="layer1"
     transform="translate(0,-1028.3622)">
    <path
       sodipodi:nodetypes="cccccccssccssccccccccccc"
       inkscape:connector-curvature="0"
       id="path5740"
       d="m 3.1667827,1031.5291 c -0.3662297,0.3803 -0.4774265,0.9212 -0.2280441,1.3933 0.1098774,0.2083 0.2854237,0.3914 0.4644419,0.5489 0.2002951,0.1764 0.2074369,0.322 0.081674,0.5545 -1.1961339,2.2126 -1.1387626,4.3991 0.3096968,6.4603 0.5668529,0.8066 1.3406038,1.4665 2.0168869,2.1971 0.4159188,0.4494 0.8254029,0.905 1.2356733,1.3595 0.7359539,0.8156 1.0218575,1.7972 0.8022991,2.8431 -0.1812225,0.8632 0.6439953,1.8938 0.7191603,1.969 l 0.864226,0.8642 c 3.9746691,-3.9746 7.9493371,-7.9493 11.9240051,-11.924 l -0.864226,-0.8642 c -0.07516,-0.075 -1.10582,-0.9004 -1.968979,-0.7192 -1.045883,0.2196 -2.027552,-0.066 -2.843118,-0.8023 -0.454458,-0.4103 -0.91011,-0.8197 -1.359555,-1.2356 -0.730589,-0.6763 -1.390412,-1.4501 -2.197045,-2.0169 -2.0612,-1.4485 -4.2477556,-1.5058 -6.4602914,-0.3097 -0.2328651,0.1254 -0.3781571,0.1186 -0.5545803,-0.082 -0.1574868,-0.1789 -0.3406133,-0.3544 -0.5488421,-0.4644 -0.4721493,-0.2494 -1.0166548,-0.1419 -1.393356,0.228 z m 11.2413783,14.8979 c 1.138204,0.2831 2.194999,-0.059 2.900757,-0.7558 0.694021,-0.7082 1.0389,-1.7626 0.755826,-2.9008 -1.218866,1.2189 -2.437724,2.4377 -3.656583,3.6566 z"
       style="opacity:0.9;color:#000000;fill:#55cdef;fill-opacity:1;fill-rule:nonzero;stroke-width:1;stroke-linecap:butt;stroke-linejoin:miter;stroke-miterlimit:4;stroke-opacity:1;stroke-dasharray:none;stroke-dashoffset:0;marker:none;visibility:visible;display:inline;overflow:visible;enable-background:accumulate" />
  </g>
</svg>
