<?xml version="1.0" encoding="UTF-8" standalone="no"?>
<!-- Generator: Adobe Illustrator 14.0.0, SVG Export Plug-In . SVG Version: 6.00 Build 43363)  -->

<svg
   xmlns:dc="http://purl.org/dc/elements/1.1/"
   xmlns:cc="http://creativecommons.org/ns#"
   xmlns:rdf="http://www.w3.org/1999/02/22-rdf-syntax-ns#"
   xmlns:svg="http://www.w3.org/2000/svg"
   xmlns="http://www.w3.org/2000/svg"
   xmlns:sodipodi="http://sodipodi.sourceforge.net/DTD/sodipodi-0.dtd"
   xmlns:inkscape="http://www.inkscape.org/namespaces/inkscape"
   id="Layer_1"
   enable-background="new 0 0 22 22"
   xml:space="preserve"
   height="22px"
   viewBox="0 0 22 22"
   width="22px"
   version="1.1"
   y="0px"
   x="0px"
   inkscape:version="0.48.3.1 r9886"
   sodipodi:docname="system-devices-panel.svg"><defs
   id="defs12" /><sodipodi:namedview
   pagecolor="#ffffff"
   bordercolor="#666666"
   borderopacity="1"
   objecttolerance="10"
   gridtolerance="10"
   guidetolerance="10"
   inkscape:pageopacity="0"
   inkscape:pageshadow="2"
   inkscape:window-width="1301"
   inkscape:window-height="744"
   id="namedview10"
   showgrid="false"
   inkscape:zoom="13.126614"
   inkscape:cx="9.15602"
   inkscape:cy="4.2223046"
   inkscape:window-x="65"
   inkscape:window-y="24"
   inkscape:window-maximized="1"
   inkscape:current-layer="Layer_1" /><metadata
   id="metadata13"><rdf:RDF><cc:Work
       rdf:about=""><dc:format>image/svg+xml</dc:format><dc:type
         rdf:resource="http://purl.org/dc/dcmitype/StillImage" /><dc:title></dc:title></cc:Work></rdf:RDF></metadata>

<g
   id="g5"
   style="opacity:.3"
   transform="translate(0,1)">
	
</g>
<path
   style="opacity:0.90000000000000002;fill:#f53737;fill-opacity:1;color:#000000;fill-rule:nonzero;stroke-width:1;stroke-linecap:butt;stroke-linejoin:miter;stroke-miterlimit:4;stroke-opacity:1;stroke-dasharray:none;stroke-dashoffset:0;marker:none;visibility:visible;display:inline;overflow:visible;enable-background:accumulate"
   d="M 9.5 2.65625 L 9.5 10.625 L 12.5 10.625 L 12.5 2.65625 L 9.5 2.65625 z M 6.15625 4.65625 C 6.0669672 4.6584562 5.9932649 4.6773995 5.90625 4.71875 C 5.7239385 4.8054115 5.5234503 4.986667 5.25 5.25 C 4.5127957 5.9599227 4.4796357 6.098805 4.84375 6.84375 C 5.1752809 7.5219653 5.1522816 7.758329 4.75 8.625 C 4.3844535 9.4124846 4.2212444 9.5756166 3.71875 9.625 C 3.1094264 9.6848823 2.7593735 10.185519 2.75 11.03125 C 2.739438 11.984524 2.8556733 12.181835 3.625 12.4375 C 4.3140959 12.666504 4.5182953 12.891273 4.84375 13.8125 C 5.0902291 14.51015 5.0898897 14.668814 4.78125 15.25 C 4.4298178 15.911769 4.4828035 16.176288 5.15625 16.875 C 5.8292915 17.573291 6.0350481 17.632754 6.65625 17.28125 C 7.3090128 16.911889 7.4738116 16.902998 8.34375 17.28125 C 9.292737 17.693858 9.2695966 17.678795 9.46875 18.375 C 9.713252 19.229735 9.8720872 19.322102 10.90625 19.34375 C 11.938758 19.36536 12.090109 19.262047 12.34375 18.4375 C 12.551177 17.763188 12.669788 17.687899 13.53125 17.34375 C 14.299184 17.036974 14.724391 16.996485 14.96875 17.25 C 15.154881 17.443111 15.425655 17.567579 15.8125 17.59375 C 16.063272 17.61071 16.173671 17.554955 16.75 17 C 17.499813 16.277942 17.553437 16.049632 17.21875 15.5 C 16.773814 14.769294 16.771531 14.655989 17.15625 13.78125 C 17.576081 12.826649 17.635946 12.744332 18.15625 12.65625 C 18.95934 12.5203 19.215898 12.228201 19.25 11.375 C 19.29002 10.37311 19.094716 9.9711843 18.53125 9.84375 C 17.703455 9.656578 17.55992 9.5303646 17.21875 8.65625 C 16.886771 7.8056883 16.908169 7.5268056 17.375 6.90625 C 17.721762 6.4453014 17.653861 6.2615006 17 5.53125 C 16.219437 4.6594852 16.014675 4.574651 15.25 4.96875 C 14.691415 5.2566137 14.514595 5.288044 14 5.09375 L 14 8.21875 C 14.320724 8.5416589 14.577054 8.9058528 14.78125 9.34375 C 15.754043 11.429915 14.898672 13.902206 12.8125 14.875 C 10.72634 15.847793 8.2227948 14.961172 7.25 12.875 C 6.5094346 11.286855 6.8707446 9.4837234 8 8.28125 L 8 5.0625 C 7.6500035 5.1737145 7.3892083 5.2213107 7.28125 5.15625 C 6.726101 4.8217053 6.4240985 4.6496314 6.15625 4.65625 z "
   id="path10426" /></svg>