<?xml version="1.0" encoding="UTF-8" standalone="no"?>
<!-- Created with Inkscape (http://www.inkscape.org/) -->

<svg
   xmlns:dc="http://purl.org/dc/elements/1.1/"
   xmlns:cc="http://creativecommons.org/ns#"
   xmlns:rdf="http://www.w3.org/1999/02/22-rdf-syntax-ns#"
   xmlns:svg="http://www.w3.org/2000/svg"
   xmlns="http://www.w3.org/2000/svg"
   xmlns:sodipodi="http://sodipodi.sourceforge.net/DTD/sodipodi-0.dtd"
   xmlns:inkscape="http://www.inkscape.org/namespaces/inkscape"
   width="24"
   height="24"
   id="svg3025"
   version="1.1"
   inkscape:version="0.48.3.1 r9886"
   sodipodi:docname="user.svg">
  <defs
     id="defs3027" />
  <sodipodi:namedview
     id="base"
     pagecolor="#ffffff"
     bordercolor="#666666"
     borderopacity="1.0"
     inkscape:pageopacity="0.0"
     inkscape:pageshadow="2"
     inkscape:zoom="23.880924"
     inkscape:cx="12"
     inkscape:cy="12"
     inkscape:document-units="px"
     inkscape:current-layer="layer1"
     showgrid="false"
     inkscape:window-width="1375"
     inkscape:window-height="876"
     inkscape:window-x="1431"
     inkscape:window-y="24"
     inkscape:window-maximized="1" />
  <metadata
     id="metadata3030">
    <rdf:RDF>
      <cc:Work
         rdf:about="">
        <dc:format>image/svg+xml</dc:format>
        <dc:type
           rdf:resource="http://purl.org/dc/dcmitype/StillImage" />
        <dc:title />
      </cc:Work>
    </rdf:RDF>
  </metadata>
  <g
     inkscape:label="Livello 1"
     inkscape:groupmode="layer"
     id="layer1"
     transform="translate(0,-1028.3622)">
    <path
       inkscape:connector-curvature="0"
       id="path5013"
       d="m 11.959533,1029.3622 c -3.0730903,0 -5.5650003,2.9123 -5.5650003,6.506 0,3.5936 2.49191,6.506 5.5650003,6.506 3.07309,0 5.565,-2.9124 5.565,-6.506 0,-3.5937 -2.49191,-6.506 -5.565,-6.506 z m 4.71479,14.2904 c -0.98404,1.8341 -2.72663,3.0518 -4.71479,3.0518 -1.9676703,0 -3.6983903,-1.1923 -4.6877303,-2.9948 -2.64324,0.636 -5.10318,2.4645 -4.54089,7.6526 l 9.2749903,0 9.275,0 c 0.514775,-5.3006 -1.928668,-7.1092 -4.60658,-7.7096 z"
       style="color:#000000;fill:#ffffff;fill-opacity:1;fill-rule:nonzero;stroke:none;stroke-width:4.24592399999999959;marker:none;visibility:visible;display:inline;overflow:visible;filter:url(#filter3794-0-7);enable-background:accumulate;opacity:0.9" />
  </g>
</svg>
