<?xml version="1.0" encoding="UTF-8" standalone="no"?>
<!-- Created with Inkscape (http://www.inkscape.org/) -->

<svg
   xmlns:dc="http://purl.org/dc/elements/1.1/"
   xmlns:cc="http://creativecommons.org/ns#"
   xmlns:rdf="http://www.w3.org/1999/02/22-rdf-syntax-ns#"
   xmlns:svg="http://www.w3.org/2000/svg"
   xmlns="http://www.w3.org/2000/svg"
   xmlns:xlink="http://www.w3.org/1999/xlink"
   xmlns:sodipodi="http://sodipodi.sourceforge.net/DTD/sodipodi-0.dtd"
   xmlns:inkscape="http://www.inkscape.org/namespaces/inkscape"
   width="512"
   height="512"
   id="svg2"
   version="1.1"
   inkscape:version="0.48.3.1 r9886"
   sodipodi:docname="firefox.svg"
   inkscape:export-filename="/home/alecive/Scrivania/firefoxTest1.png"
   inkscape:export-xdpi="100"
   inkscape:export-ydpi="100">
  <sodipodi:namedview
     id="base"
     pagecolor="#ffffff"
     bordercolor="#666666"
     borderopacity="1.0"
     inkscape:pageopacity="0.0"
     inkscape:pageshadow="2"
     inkscape:zoom="1"
     inkscape:cx="172.43968"
     inkscape:cy="249.83977"
     inkscape:document-units="px"
     inkscape:current-layer="svg2"
     showgrid="false"
     inkscape:window-width="1317"
     inkscape:window-height="744"
     inkscape:window-x="49"
     inkscape:window-y="24"
     inkscape:window-maximized="1"
     inkscape:object-paths="false"
     inkscape:snap-intersection-paths="true"
     inkscape:object-nodes="false"
     inkscape:snap-smooth-nodes="false"
     inkscape:snap-nodes="false" />
  <defs
     id="defs4">
    <linearGradient
       id="linearGradient3840"
       gradientUnits="userSpaceOnUse"
       x1="-172.72121"
       y1="332.082"
       x2="-161.4561"
       y2="309.89331"
       gradientTransform="matrix(0.9975,-0.0707,0.0707,0.9975,254.6004,-268.4704)">
      <stop
         offset="0"
         style="stop-color:#f79b09;stop-opacity:0.19607843;"
         id="stop3842" />
      <stop
         id="stop3844"
         style="stop-color:#facb04;stop-opacity:1;"
         offset="0.368" />
      <stop
         offset="0.736"
         style="stop-color:#FEFD00"
         id="stop3846" />
      <stop
         offset="0.7783"
         style="stop-color:#FEFE26"
         id="stop3848" />
      <stop
         offset="0.8369"
         style="stop-color:#FFFE54"
         id="stop3850" />
      <stop
         offset="0.889"
         style="stop-color:#FFFF76"
         id="stop3852" />
      <stop
         offset="0.932"
         style="stop-color:#FFFF8B"
         id="stop3854" />
      <stop
         offset="0.9607"
         style="stop-color:#FFFF92"
         id="stop3856" />
    </linearGradient>
    <linearGradient
       id="linearGradient21900"
       gradientUnits="userSpaceOnUse"
       x1="64.477501"
       y1="56.3008"
       x2="78.466103"
       y2="48.0854">
      <stop
         offset="0"
         style="stop-color:#2d7787;stop-opacity:1;"
         id="stop21902" />
      <stop
         id="stop21912"
         style="stop-color:#3c9fb4;stop-opacity:1;"
         offset="0.65713483" />
      <stop
         offset="1"
         style="stop-color:#64bacc;stop-opacity:1;"
         id="stop21910" />
    </linearGradient>
    <linearGradient
       y2="48.0854"
       x2="78.466103"
       y1="56.3008"
       x1="64.477501"
       gradientUnits="userSpaceOnUse"
       id="XMLID_74_-8-1">
      <stop
         id="stop149-5-9"
         style="stop-color:#DF731B"
         offset="0" />
      <stop
         id="stop151-3-7"
         style="stop-color:#DF731B"
         offset="0.5449" />
      <stop
         id="stop153-2-2"
         style="stop-color:#EC8811"
         offset="0.7014" />
      <stop
         id="stop155-3-8"
         style="stop-color:#F4950B"
         offset="0.8593" />
      <stop
         id="stop157-94-6"
         style="stop-color:#F79A09"
         offset="1" />
    </linearGradient>
    <linearGradient
       gradientTransform="matrix(0.9975,-0.0707,0.0707,0.9975,254.6004,-268.4704)"
       y2="309.89331"
       x2="-161.4561"
       y1="332.082"
       x1="-172.72121"
       gradientUnits="userSpaceOnUse"
       id="linearGradient4295-7-5">
      <stop
         id="stop4297-3-0"
         style="stop-color:#f79b09;stop-opacity:0;"
         offset="0" />
      <stop
         offset="0.368"
         style="stop-color:#facb04;stop-opacity:1;"
         id="stop4299-1-7" />
      <stop
         id="stop4301-1-6"
         style="stop-color:#FEFD00"
         offset="0.736" />
      <stop
         id="stop4303-6-2"
         style="stop-color:#FEFE26"
         offset="0.7783" />
      <stop
         id="stop4305-62-7"
         style="stop-color:#FFFE54"
         offset="0.8369" />
      <stop
         id="stop4307-5-4"
         style="stop-color:#FFFF76"
         offset="0.889" />
      <stop
         id="stop4309-6-8"
         style="stop-color:#FFFF8B"
         offset="0.932" />
      <stop
         id="stop4311-51-9"
         style="stop-color:#FFFF92"
         offset="0.9607" />
    </linearGradient>
    <linearGradient
       y2="36.0061"
       x2="61.244999"
       y1="34.297401"
       x1="60.286098"
       gradientUnits="userSpaceOnUse"
       id="XMLID_100_-3-6">
      <stop
         id="stop373-71-0"
         style="stop-color:#8B8B89"
         offset="0" />
      <stop
         id="stop375-1-5"
         style="stop-color:#120500"
         offset="1" />
    </linearGradient>
    <linearGradient
       y2="71.759697"
       x2="60.433201"
       y1="67.844704"
       x1="80.929199"
       gradientUnits="userSpaceOnUse"
       id="XMLID_90_-58-6">
      <stop
         id="stop291-7-1"
         style="stop-color:#FFFAEE"
         offset="0.0047" />
      <stop
         id="stop293-9-9"
         style="stop-color:#F5F89B"
         offset="0.2757" />
      <stop
         id="stop295-2-0"
         style="stop-color:#F3ED91"
         offset="0.3102" />
      <stop
         id="stop297-2-4"
         style="stop-color:#ECC267"
         offset="0.4668" />
      <stop
         id="stop299-0-5"
         style="stop-color:#E6A046"
         offset="0.6182" />
      <stop
         id="stop301-65-89"
         style="stop-color:#E2872E"
         offset="0.7611" />
      <stop
         id="stop303-7-6"
         style="stop-color:#E07820"
         offset="0.8921" />
      <stop
         id="stop305-30-0"
         style="stop-color:#DF731B"
         offset="1" />
    </linearGradient>
    <linearGradient
       y2="63.893299"
       x2="50.721401"
       y1="48.361301"
       x1="35.5"
       gradientUnits="userSpaceOnUse"
       id="XMLID_87_-8-6">
      <stop
         id="stop268-3-27"
         style="stop-color:#DF731B"
         offset="0.1966" />
      <stop
         id="stop270-6-29"
         style="stop-color:#F9BD5F"
         offset="0.8427" />
      <stop
         id="stop272-8-2"
         style="stop-color:#FFFCCF"
         offset="1" />
    </linearGradient>
    <linearGradient
       y2="44.27"
       x2="58.138699"
       y1="41.267101"
       x1="54.825199"
       gradientUnits="userSpaceOnUse"
       id="XMLID_86_-84-8">
      <stop
         id="stop253-4-9"
         style="stop-color:#EEA272"
         offset="0" />
      <stop
         id="stop255-2-7"
         style="stop-color:#EFA777"
         offset="0.1865" />
      <stop
         id="stop257-9-6"
         style="stop-color:#F2B585"
         offset="0.4064" />
      <stop
         id="stop259-3-5"
         style="stop-color:#F6CD9C"
         offset="0.643" />
      <stop
         id="stop261-1-7"
         style="stop-color:#FCEEBB"
         offset="0.8898" />
      <stop
         id="stop263-51-5"
         style="stop-color:#FFFFCC"
         offset="1" />
    </linearGradient>
    <linearGradient
       y2="42.945099"
       x2="51.856499"
       y1="44.320301"
       x1="48.730999"
       gradientUnits="userSpaceOnUse"
       id="XMLID_77_-55-1">
      <stop
         id="stop182-23-4"
         style="stop-color:#F2C8A9"
         offset="0" />
      <stop
         id="stop184-77-8"
         style="stop-color:#FFFFCC"
         offset="1" />
    </linearGradient>
    <radialGradient
       inkscape:collect="always"
       xlink:href="#XMLID_74_-8-1"
       id="radialGradient3347"
       gradientUnits="userSpaceOnUse"
       gradientTransform="matrix(2.5419383,0,0,2.4642576,440.50522,451.70079)"
       cx="63.993507"
       cy="61.808781"
       fx="63.993507"
       fy="61.808781"
       r="59.037315" />
    <linearGradient
       inkscape:collect="always"
       xlink:href="#linearGradient4295-7-5"
       id="linearGradient3350"
       gradientUnits="userSpaceOnUse"
       gradientTransform="matrix(2.5399048,-0.10472786,0.10472786,2.5399048,433.01385,-301.41194)"
       x1="-51.904507"
       y1="211.28944"
       x2="-52.194302"
       y2="196.4341" />
    <linearGradient
       inkscape:collect="always"
       xlink:href="#linearGradient4295-7-5"
       id="linearGradient3353"
       gradientUnits="userSpaceOnUse"
       gradientTransform="matrix(2.5419384,0,0,2.5419384,90.504929,96.069587)"
       x1="105.1567"
       y1="22.737801"
       x2="86.211197"
       y2="14.4171" />
    <linearGradient
       inkscape:collect="always"
       xlink:href="#XMLID_100_-3-6"
       id="linearGradient3356"
       gradientUnits="userSpaceOnUse"
       gradientTransform="matrix(4.4314987,0,0,4.4314987,-18.461321,26.201097)"
       x1="60.286098"
       y1="34.297401"
       x2="61.244999"
       y2="36.0061" />
    <linearGradient
       inkscape:collect="always"
       xlink:href="#XMLID_90_-58-6"
       id="linearGradient3359"
       gradientUnits="userSpaceOnUse"
       gradientTransform="matrix(2.5419384,0,0,2.5419384,94.817039,83.453027)"
       x1="80.929199"
       y1="67.844704"
       x2="60.433201"
       y2="71.759697" />
    <linearGradient
       inkscape:collect="always"
       xlink:href="#XMLID_87_-8-6"
       id="linearGradient3362"
       gradientUnits="userSpaceOnUse"
       gradientTransform="matrix(2.5419384,0,0,2.5419384,90.504929,96.069587)"
       x1="41.5"
       y1="47.486301"
       x2="50.721401"
       y2="63.893299" />
    <linearGradient
       inkscape:collect="always"
       xlink:href="#XMLID_86_-84-8"
       id="linearGradient3365"
       gradientUnits="userSpaceOnUse"
       gradientTransform="matrix(2.5419384,0,0,2.5419384,93.364609,97.341177)"
       x1="54.825199"
       y1="41.267101"
       x2="58.138699"
       y2="44.27" />
    <linearGradient
       inkscape:collect="always"
       xlink:href="#XMLID_77_-55-1"
       id="linearGradient3368"
       gradientUnits="userSpaceOnUse"
       gradientTransform="matrix(2.5419384,0,0,2.5419384,95.447839,97.417667)"
       x1="48.730999"
       y1="44.320301"
       x2="51.856499"
       y2="42.945099" />
    <radialGradient
       inkscape:collect="always"
       xlink:href="#XMLID_74_-8-1"
       id="radialGradient3371"
       gradientUnits="userSpaceOnUse"
       gradientTransform="matrix(2.5419384,0,0,2.4642576,90.504929,100.87095)"
       cx="63.993507"
       cy="61.808781"
       fx="63.993507"
       fy="61.808781"
       r="59.037315" />
    <radialGradient
       inkscape:collect="always"
       xlink:href="#XMLID_74_-8-1"
       id="radialGradient3374"
       gradientUnits="userSpaceOnUse"
       gradientTransform="matrix(2.5419384,0,0,2.4642576,90.504929,100.87095)"
       cx="63.993507"
       cy="61.808781"
       fx="63.993507"
       fy="61.808781"
       r="59.037315" />
    <radialGradient
       inkscape:collect="always"
       xlink:href="#XMLID_74_-8-1"
       id="radialGradient21898"
       cx="255.99385"
       cy="256"
       fx="255.99385"
       fy="256"
       r="216"
       gradientUnits="userSpaceOnUse" />
    <radialGradient
       inkscape:collect="always"
       xlink:href="#XMLID_74_-8-1"
       id="radialGradient3858"
       gradientUnits="userSpaceOnUse"
       gradientTransform="matrix(2.5419384,0,0,2.4642576,90.504929,100.87095)"
       cx="63.993507"
       cy="61.808781"
       fx="63.993507"
       fy="61.808781"
       r="59.037315" />
    <linearGradient
       inkscape:collect="always"
       xlink:href="#XMLID_100_-3-6"
       id="linearGradient3861"
       gradientUnits="userSpaceOnUse"
       gradientTransform="matrix(4.4314987,0,0,4.4314987,-18.461321,26.201097)"
       x1="60.286098"
       y1="34.297401"
       x2="61.244999"
       y2="36.0061" />
    <linearGradient
       inkscape:collect="always"
       xlink:href="#XMLID_90_-58-6"
       id="linearGradient3864"
       gradientUnits="userSpaceOnUse"
       gradientTransform="matrix(2.5419384,0,0,2.5419384,94.817039,83.453027)"
       x1="80.929199"
       y1="67.844704"
       x2="60.433201"
       y2="71.759697" />
    <linearGradient
       inkscape:collect="always"
       xlink:href="#XMLID_87_-8-6"
       id="linearGradient3867"
       gradientUnits="userSpaceOnUse"
       gradientTransform="matrix(2.5419384,0,0,2.5419384,90.504929,96.069587)"
       x1="41.5"
       y1="47.486301"
       x2="50.721401"
       y2="63.893299" />
    <linearGradient
       inkscape:collect="always"
       xlink:href="#XMLID_86_-84-8"
       id="linearGradient3870"
       gradientUnits="userSpaceOnUse"
       gradientTransform="matrix(2.5419384,0,0,2.5419384,93.364609,97.341177)"
       x1="54.825199"
       y1="41.267101"
       x2="58.138699"
       y2="44.27" />
    <linearGradient
       inkscape:collect="always"
       xlink:href="#XMLID_77_-55-1"
       id="linearGradient3873"
       gradientUnits="userSpaceOnUse"
       gradientTransform="matrix(2.5419384,0,0,2.5419384,95.447839,97.417667)"
       x1="48.730999"
       y1="44.320301"
       x2="51.856499"
       y2="42.945099" />
  </defs>
  <metadata
     id="metadata7">
    <rdf:RDF>
      <cc:Work
         rdf:about="">
        <dc:format>image/svg+xml</dc:format>
        <dc:type
           rdf:resource="http://purl.org/dc/dcmitype/StillImage" />
        <dc:title />
      </cc:Work>
    </rdf:RDF>
  </metadata>
  <g
     id="layer1"
     inkscape:groupmode="layer"
     inkscape:label="Livello 1"
     transform="translate(0,-540.36218)" />
  <path
     style="color:#000000;fill:#000000;fill-opacity:0.47058824;fill-rule:nonzero;stroke:none;stroke-width:1.5;marker:none;visibility:visible;display:none;overflow:visible;enable-background:accumulate"
     d="m 40.5,40.5 c 0.333787,143.99955 -0.667273,289.33394 0.5,432.5 16.92965,16.19535 32.996576,33.25342 49.9375,49.4375 16.35962,17.11955 33.60024,33.35809 49.96875,50.46875 17.26797,16.52369 33.66095,33.92239 50.9375,50.4375 15.6697,16.4657 32.284,31.9868 47.9375,48.4687 16.15,15.31873 31.33687,31.6006 47.46875,46.93745 16.17586,16.95954 33.2828,32.988 49.4375,49.9687 16.98008,16.15534 33.0114,33.25944 49.96875,49.4375 15.18364,15.94135 31.25007,30.9999 46.4375,46.93745 17.11453,16.36463 33.35234,33.60599 50.46875,49.96875 15.34612,16.1122 31.58801,31.32862 46.9375,47.43745 5.65517,4.73361 8.55199,12.22557 22.16633,9 139.61122,0 279.22245,0 418.83367,0 -0.33379,-143.99955 0.66727,-289.33394 -0.5,-432.5 C 954.90218,523.63926 939.66359,507.41953 923.5625,492.0623 908.19728,475.94837 891.96109,460.70541 876.59375,444.5936 859.4883,428.24072 843.25942,411.01127 826.15625,394.6561 810.79233,378.54087 794.55178,363.30227 779.1875,347.1874 763.0771,331.83948 747.85788,315.60038 731.75,300.24995 715.38447,283.13632 698.1418,266.89982 681.78125,249.7812 664.67573,233.42839 648.44214,216.20364 631.34375,199.8437 614.97251,182.73579 597.73981,166.48934 581.375,149.375 564.6053,133.35304 548.69875,116.46791 531.9375,100.4375 515.726,83.513588 498.69746,67.406707 482.46875,50.5 c -6.17476,-4.870267 -8.71972,-13.370334 -23.13508,-10 -139.61122,0 -279.22245,0 -418.83367,0 z"
     id="path17584"
     inkscape:connector-curvature="0" />
  <rect
     ry="90"
     y="40.000004"
     x="39.993851"
     height="432"
     width="432"
     id="rect4121"
     style="color:#000000;fill:url(#radialGradient21898);fill-opacity:1.0;fill-rule:nonzero;stroke:none;stroke-width:1.50000000000000000;marker:none;visibility:visible;display:inline;overflow:visible;enable-background:accumulate" />
  <path
     style="fill:#000000;fill-opacity:0.39215686999999999;opacity:0.85"
     d="M 154.0625 108.0625 C 114.49224 142.81909 104.26888 198.73036 103.53125 248.90625 C 102.60095 289.9331 115.72359 332.91113 146.875 360.53125 C 183.95627 397.68579 221.00499 434.84691 258.0625 472 L 382 472 C 431.86 472 472 431.86 472 382 L 472 259.3125 C 434.07222 221.29652 396.16623 183.30987 358.25 145.3125 C 348.59282 134.46894 313.67623 110.66813 315.59375 119.40625 C 339.65398 145.91506 355.89959 185.65315 353.4375 218.9375 C 341.7836 208.36268 332.48415 193.56532 315.90625 190.75 L 242.78125 117.40625 C 222.56608 118.66251 199.6718 130.60672 186.59375 140.6875 L 154.0625 108.0625 z "
     id="path7521" />
  <path
     style="fill:#000000;fill-opacity:0.47058824;display:none"
     d="m 154.0625,108.0625 c -39.57026,34.75659 -49.78204,90.65965 -50.51967,140.83554 -0.9303,41.02685 12.18006,84.01234 43.33147,111.63246 115.35008,115.57801 230.513,231.15484 345.93785,346.694 56.27226,52.60762 152.66605,56.95323 209.77112,3.22602 37.31758,-34.50938 55.77529,-89.12727 47.9014,-139.11132 -7.80299,-37.8234 -33.17153,-67.37977 -60.07712,-93.11285 C 579.81206,367.36648 468.9837,256.26256 358.2629,145.3048 c -9.65718,-10.84356 -44.59622,-34.62281 -42.6787,-25.88469 24.06023,26.50881 40.32834,66.22539 37.86625,99.50974 C 341.79655,208.35503 332.4689,193.55922 315.891,190.7439 l -73.125,-73.3438 c -20.21517,1.25626 -43.10955,13.20047 -56.1876,23.28125 z"
     id="path21927"
     inkscape:connector-curvature="0"
     sodipodi:nodetypes="cccccccccccccc" />
  <path
     inkscape:connector-curvature="0"
     style="fill:#ffffff;fill-opacity:1"
     id="path159"
     d="m 403.01608,233.20049 c -0.59919,-12.70957 -17.5303,-88.37108 -91.71128,-119.09372 22.04147,27.74444 43.53885,53.56561 42.45837,113.97463 -0.64057,1.92933 -16.24705,-37.90502 -38.23561,-37.71288 30.6647,44.09621 28.88982,70.21135 1.37639,102.29984 -23.27236,27.14221 -66.4659,36.09292 -106.98383,8.40264 15.57102,-2.00721 33.20145,-1.22251 43.96911,-8.58142 10.86678,-7.42755 22.62443,-20.85076 28.39717,-19.56708 5.7702,1.28876 11.30669,-12.01094 6.82525,-17.14819 -4.48652,-5.14743 -17.99106,-7.30649 -32.54174,-2.79421 -13.88915,4.31113 -24.48621,21.73313 -44.14703,10.08669 -16.77533,-9.93716 -16.71532,-20.14854 -15.81206,-25.21093 2.17571,-9.96844 14.99186,1.51771 24.69822,7.57717 1.45937,-9.05197 0.38697,-21.15384 -0.54428,-30.01608 10.62879,-6.56525 38.01077,-16.34051 38.2862,-32.73625 -0.25119,-3.63632 -4.31724,-9.23532 -26.07115,-7.15347 -44.94075,6.73506 -0.66081,-49.50926 9.41009,-58.49909 -27.28262,3.7954 -50.24278,13.89775 -67.01952,36.64753 -7.99638,-0.73672 -11.49713,-0.88722 -19.05961,0.43436 -4.51194,-4.67462 -3.47038,-30.80721 -2.60164,-46.40947 -21.62043,17.00153 -37.37283,53.09598 -40.24824,65.26857 -3.45896,14.64293 -10.03717,46.93677 -10.23952,59.0553 -0.46737,27.99041 0.45874,64.21435 17.07165,95.13253 31.84008,59.25741 115.83379,83.65321 173.89534,65.58892 105.54485,-32.83745 109.93887,-135.97626 108.82772,-159.54539 z"
     sodipodi:nodetypes="scccscccccscccccccccsssss" />
  <path
     inkscape:connector-curvature="0"
     style="fill:url(#radialGradient3347);fill-opacity:1;display:none"
     id="path3322"
     d="m 753.01637,584.03033 c -0.59919,-12.70957 -17.5303,-88.37108 -91.71127,-119.09372 22.04147,27.74444 43.53884,53.56561 42.45836,113.97463 -0.64057,1.92933 -16.24704,-37.90502 -38.2356,-37.71288 30.6647,44.09621 28.88982,70.21135 1.37639,102.29984 -23.27237,27.14221 -66.46591,36.09292 -106.98384,8.40264 15.57102,-2.00721 33.20145,-1.22251 43.96911,-8.58142 10.86678,-7.42755 22.62443,-20.85076 28.39717,-19.56708 5.7702,1.28876 11.30669,-12.01094 6.82525,-17.14819 -4.48652,-5.14743 -17.99106,-7.30649 -32.54174,-2.79421 -13.88915,4.31113 -24.48621,21.73313 -44.14703,10.08669 -16.77533,-9.93716 -16.71532,-20.14854 -15.81206,-25.21093 2.17571,-9.96844 14.99186,1.51771 24.69822,7.57717 1.45937,-9.05197 0.38697,-21.15384 -0.54428,-30.01608 10.62879,-6.56525 38.01077,-16.34051 38.2862,-32.73625 -0.25119,-3.63632 -4.31724,-9.23532 -26.07115,-7.15347 -44.94075,6.73506 -0.66081,-49.50926 9.41009,-58.49909 -27.28262,3.7954 -50.24278,13.89775 -67.01952,36.64753 -7.99638,-0.73672 -11.49713,-0.88722 -19.05961,0.43436 -4.51194,-4.67462 -3.47038,-30.80721 -2.60164,-46.40947 -21.62043,17.00153 -37.37283,53.09598 -40.24824,65.26857 -3.45896,14.64293 -10.03717,46.93677 -10.23952,59.0553 -0.46737,27.99041 0.45874,64.21435 17.07165,95.13253 31.84008,59.25741 115.83379,83.65321 173.89534,65.58892 C 749.7335,710.73827 754.12752,607.59946 753.01637,584.03033 z"
     sodipodi:nodetypes="scccscccccscccccccccsssss" />
  <path
     id="rect17286"
     d="m 540,540 432,0 0,432 -432,0 z"
     style="color:#000000;fill:#64bacc;fill-opacity:1;fill-rule:nonzero;stroke:none;stroke-width:1.5;marker:none;visibility:visible;display:none;overflow:visible;enable-background:accumulate"
     inkscape:connector-curvature="0" />
</svg>
