<?xml version="1.0" encoding="UTF-8" standalone="no"?>
<!-- Created with Inkscape (http://www.inkscape.org/) -->

<svg
   xmlns:dc="http://purl.org/dc/elements/1.1/"
   xmlns:cc="http://creativecommons.org/ns#"
   xmlns:rdf="http://www.w3.org/1999/02/22-rdf-syntax-ns#"
   xmlns:svg="http://www.w3.org/2000/svg"
   xmlns="http://www.w3.org/2000/svg"
   xmlns:xlink="http://www.w3.org/1999/xlink"
   xmlns:sodipodi="http://sodipodi.sourceforge.net/DTD/sodipodi-0.dtd"
   xmlns:inkscape="http://www.inkscape.org/namespaces/inkscape"
   width="512"
   height="512"
   id="svg2"
   version="1.1"
   inkscape:version="0.48.3.1 r9886"
   sodipodi:docname="music.svg"
   inkscape:export-filename="/home/alecive/Scrivania/firefoxTest1.png"
   inkscape:export-xdpi="100"
   inkscape:export-ydpi="100">
  <sodipodi:namedview
     id="base"
     pagecolor="#ffffff"
     bordercolor="#666666"
     borderopacity="1.0"
     inkscape:pageopacity="0.0"
     inkscape:pageshadow="2"
     inkscape:zoom="0.5"
     inkscape:cx="254.08668"
     inkscape:cy="88.188489"
     inkscape:document-units="px"
     inkscape:current-layer="svg2"
     showgrid="false"
     inkscape:window-width="1317"
     inkscape:window-height="744"
     inkscape:window-x="49"
     inkscape:window-y="24"
     inkscape:window-maximized="1"
     inkscape:object-paths="true"
     inkscape:snap-intersection-paths="true"
     inkscape:object-nodes="true"
     inkscape:snap-smooth-nodes="true"
     inkscape:snap-nodes="true" />
  <defs
     id="defs4">
    <linearGradient
       gradientTransform="matrix(0.9975,-0.0707,0.0707,0.9975,254.6004,-268.4704)"
       y2="309.89331"
       x2="-161.4561"
       y1="332.082"
       x1="-172.72121"
       gradientUnits="userSpaceOnUse"
       id="linearGradient3840">
      <stop
         id="stop3842"
         style="stop-color:#f79b09;stop-opacity:0.19607843;"
         offset="0" />
      <stop
         offset="0.368"
         style="stop-color:#facb04;stop-opacity:1;"
         id="stop3844" />
      <stop
         id="stop3846"
         style="stop-color:#FEFD00"
         offset="0.736" />
      <stop
         id="stop3848"
         style="stop-color:#FEFE26"
         offset="0.7783" />
      <stop
         id="stop3850"
         style="stop-color:#FFFE54"
         offset="0.8369" />
      <stop
         id="stop3852"
         style="stop-color:#FFFF76"
         offset="0.889" />
      <stop
         id="stop3854"
         style="stop-color:#FFFF8B"
         offset="0.932" />
      <stop
         id="stop3856"
         style="stop-color:#FFFF92"
         offset="0.9607" />
    </linearGradient>
    <linearGradient
       y2="48.0854"
       x2="78.466103"
       y1="56.3008"
       x1="64.477501"
       gradientUnits="userSpaceOnUse"
       id="linearGradient21900">
      <stop
         id="stop21902"
         style="stop-color:#2d7787;stop-opacity:1;"
         offset="0" />
      <stop
         offset="0.65713483"
         style="stop-color:#3c9fb4;stop-opacity:1;"
         id="stop21912" />
      <stop
         id="stop21910"
         style="stop-color:#64bacc;stop-opacity:1;"
         offset="1" />
    </linearGradient>
    <linearGradient
       id="XMLID_74_-8-1"
       gradientUnits="userSpaceOnUse"
       x1="64.477501"
       y1="56.3008"
       x2="78.466103"
       y2="48.0854">
      <stop
         offset="0"
         style="stop-color:#fd7d00;stop-opacity:1;"
         id="stop153-2-2" />
      <stop
         offset="0.85930002"
         style="stop-color:#ff8b00;stop-opacity:1;"
         id="stop155-3-8" />
      <stop
         offset="1"
         style="stop-color:#ff9001;stop-opacity:1;"
         id="stop157-94-6" />
    </linearGradient>
    <linearGradient
       id="linearGradient4295-7-5"
       gradientUnits="userSpaceOnUse"
       x1="-172.72121"
       y1="332.082"
       x2="-161.4561"
       y2="309.89331"
       gradientTransform="matrix(0.9975,-0.0707,0.0707,0.9975,254.6004,-268.4704)">
      <stop
         offset="0"
         style="stop-color:#f79b09;stop-opacity:0;"
         id="stop4297-3-0" />
      <stop
         id="stop4299-1-7"
         style="stop-color:#facb04;stop-opacity:1;"
         offset="0.368" />
      <stop
         offset="0.736"
         style="stop-color:#FEFD00"
         id="stop4301-1-6" />
      <stop
         offset="0.7783"
         style="stop-color:#FEFE26"
         id="stop4303-6-2" />
      <stop
         offset="0.8369"
         style="stop-color:#FFFE54"
         id="stop4305-62-7" />
      <stop
         offset="0.889"
         style="stop-color:#FFFF76"
         id="stop4307-5-4" />
      <stop
         offset="0.932"
         style="stop-color:#FFFF8B"
         id="stop4309-6-8" />
      <stop
         offset="0.9607"
         style="stop-color:#FFFF92"
         id="stop4311-51-9" />
    </linearGradient>
    <linearGradient
       id="XMLID_100_-3-6"
       gradientUnits="userSpaceOnUse"
       x1="60.286098"
       y1="34.297401"
       x2="61.244999"
       y2="36.0061">
      <stop
         offset="0"
         style="stop-color:#8B8B89"
         id="stop373-71-0" />
      <stop
         offset="1"
         style="stop-color:#120500"
         id="stop375-1-5" />
    </linearGradient>
    <linearGradient
       id="XMLID_90_-58-6"
       gradientUnits="userSpaceOnUse"
       x1="80.929199"
       y1="67.844704"
       x2="60.433201"
       y2="71.759697">
      <stop
         offset="0.0047"
         style="stop-color:#FFFAEE"
         id="stop291-7-1" />
      <stop
         offset="0.2757"
         style="stop-color:#F5F89B"
         id="stop293-9-9" />
      <stop
         offset="0.3102"
         style="stop-color:#F3ED91"
         id="stop295-2-0" />
      <stop
         offset="0.4668"
         style="stop-color:#ECC267"
         id="stop297-2-4" />
      <stop
         offset="0.6182"
         style="stop-color:#E6A046"
         id="stop299-0-5" />
      <stop
         offset="0.7611"
         style="stop-color:#E2872E"
         id="stop301-65-89" />
      <stop
         offset="0.8921"
         style="stop-color:#E07820"
         id="stop303-7-6" />
      <stop
         offset="1"
         style="stop-color:#DF731B"
         id="stop305-30-0" />
    </linearGradient>
    <linearGradient
       id="XMLID_87_-8-6"
       gradientUnits="userSpaceOnUse"
       x1="35.5"
       y1="48.361301"
       x2="50.721401"
       y2="63.893299">
      <stop
         offset="0.1966"
         style="stop-color:#DF731B"
         id="stop268-3-27" />
      <stop
         offset="0.8427"
         style="stop-color:#F9BD5F"
         id="stop270-6-29" />
      <stop
         offset="1"
         style="stop-color:#FFFCCF"
         id="stop272-8-2" />
    </linearGradient>
    <linearGradient
       id="XMLID_86_-84-8"
       gradientUnits="userSpaceOnUse"
       x1="54.825199"
       y1="41.267101"
       x2="58.138699"
       y2="44.27">
      <stop
         offset="0"
         style="stop-color:#EEA272"
         id="stop253-4-9" />
      <stop
         offset="0.1865"
         style="stop-color:#EFA777"
         id="stop255-2-7" />
      <stop
         offset="0.4064"
         style="stop-color:#F2B585"
         id="stop257-9-6" />
      <stop
         offset="0.643"
         style="stop-color:#F6CD9C"
         id="stop259-3-5" />
      <stop
         offset="0.8898"
         style="stop-color:#FCEEBB"
         id="stop261-1-7" />
      <stop
         offset="1"
         style="stop-color:#FFFFCC"
         id="stop263-51-5" />
    </linearGradient>
    <linearGradient
       id="XMLID_77_-55-1"
       gradientUnits="userSpaceOnUse"
       x1="48.730999"
       y1="44.320301"
       x2="51.856499"
       y2="42.945099">
      <stop
         offset="0"
         style="stop-color:#F2C8A9"
         id="stop182-23-4" />
      <stop
         offset="1"
         style="stop-color:#FFFFCC"
         id="stop184-77-8" />
    </linearGradient>
    <radialGradient
       r="59.037315"
       fy="61.808781"
       fx="63.993507"
       cy="61.808781"
       cx="63.993507"
       gradientTransform="matrix(2.5419383,0,0,2.4642576,440.50522,451.70079)"
       gradientUnits="userSpaceOnUse"
       id="radialGradient3347"
       xlink:href="#XMLID_74_-8-1"
       inkscape:collect="always" />
    <linearGradient
       y2="196.4341"
       x2="-52.194302"
       y1="211.28944"
       x1="-51.904507"
       gradientTransform="matrix(2.5399048,-0.10472786,0.10472786,2.5399048,433.01385,-301.41194)"
       gradientUnits="userSpaceOnUse"
       id="linearGradient3350"
       xlink:href="#linearGradient4295-7-5"
       inkscape:collect="always" />
    <linearGradient
       y2="14.4171"
       x2="86.211197"
       y1="22.737801"
       x1="105.1567"
       gradientTransform="matrix(2.5419384,0,0,2.5419384,90.504929,96.069587)"
       gradientUnits="userSpaceOnUse"
       id="linearGradient3353"
       xlink:href="#linearGradient4295-7-5"
       inkscape:collect="always" />
    <linearGradient
       y2="36.0061"
       x2="61.244999"
       y1="34.297401"
       x1="60.286098"
       gradientTransform="matrix(4.4314987,0,0,4.4314987,-18.461321,26.201097)"
       gradientUnits="userSpaceOnUse"
       id="linearGradient3356"
       xlink:href="#XMLID_100_-3-6"
       inkscape:collect="always" />
    <linearGradient
       y2="71.759697"
       x2="60.433201"
       y1="67.844704"
       x1="80.929199"
       gradientTransform="matrix(2.5419384,0,0,2.5419384,94.817039,83.453027)"
       gradientUnits="userSpaceOnUse"
       id="linearGradient3359"
       xlink:href="#XMLID_90_-58-6"
       inkscape:collect="always" />
    <linearGradient
       y2="63.893299"
       x2="50.721401"
       y1="47.486301"
       x1="41.5"
       gradientTransform="matrix(2.5419384,0,0,2.5419384,90.504929,96.069587)"
       gradientUnits="userSpaceOnUse"
       id="linearGradient3362"
       xlink:href="#XMLID_87_-8-6"
       inkscape:collect="always" />
    <linearGradient
       y2="44.27"
       x2="58.138699"
       y1="41.267101"
       x1="54.825199"
       gradientTransform="matrix(2.5419384,0,0,2.5419384,93.364609,97.341177)"
       gradientUnits="userSpaceOnUse"
       id="linearGradient3365"
       xlink:href="#XMLID_86_-84-8"
       inkscape:collect="always" />
    <linearGradient
       y2="42.945099"
       x2="51.856499"
       y1="44.320301"
       x1="48.730999"
       gradientTransform="matrix(2.5419384,0,0,2.5419384,95.447839,97.417667)"
       gradientUnits="userSpaceOnUse"
       id="linearGradient3368"
       xlink:href="#XMLID_77_-55-1"
       inkscape:collect="always" />
    <radialGradient
       r="59.037315"
       fy="61.808781"
       fx="63.993507"
       cy="61.808781"
       cx="63.993507"
       gradientTransform="matrix(2.5419384,0,0,2.4642576,90.504929,100.87095)"
       gradientUnits="userSpaceOnUse"
       id="radialGradient3371"
       xlink:href="#XMLID_74_-8-1"
       inkscape:collect="always" />
    <radialGradient
       r="59.037315"
       fy="61.808781"
       fx="63.993507"
       cy="61.808781"
       cx="63.993507"
       gradientTransform="matrix(2.5419384,0,0,2.4642576,90.504929,100.87095)"
       gradientUnits="userSpaceOnUse"
       id="radialGradient3374"
       xlink:href="#XMLID_74_-8-1"
       inkscape:collect="always" />
    <radialGradient
       gradientUnits="userSpaceOnUse"
       r="216"
       fy="256"
       fx="255.99385"
       cy="256"
       cx="255.99385"
       id="radialGradient21898"
       xlink:href="#XMLID_74_-8-1"
       inkscape:collect="always" />
    <radialGradient
       r="59.037315"
       fy="61.808781"
       fx="63.993507"
       cy="61.808781"
       cx="63.993507"
       gradientTransform="matrix(2.5419384,0,0,2.4642576,90.504929,100.87095)"
       gradientUnits="userSpaceOnUse"
       id="radialGradient3858"
       xlink:href="#XMLID_74_-8-1"
       inkscape:collect="always" />
    <linearGradient
       y2="36.0061"
       x2="61.244999"
       y1="34.297401"
       x1="60.286098"
       gradientTransform="matrix(4.4314987,0,0,4.4314987,-18.461321,26.201097)"
       gradientUnits="userSpaceOnUse"
       id="linearGradient3861"
       xlink:href="#XMLID_100_-3-6"
       inkscape:collect="always" />
    <linearGradient
       y2="71.759697"
       x2="60.433201"
       y1="67.844704"
       x1="80.929199"
       gradientTransform="matrix(2.5419384,0,0,2.5419384,94.817039,83.453027)"
       gradientUnits="userSpaceOnUse"
       id="linearGradient3864"
       xlink:href="#XMLID_90_-58-6"
       inkscape:collect="always" />
    <linearGradient
       y2="63.893299"
       x2="50.721401"
       y1="47.486301"
       x1="41.5"
       gradientTransform="matrix(2.5419384,0,0,2.5419384,90.504929,96.069587)"
       gradientUnits="userSpaceOnUse"
       id="linearGradient3867"
       xlink:href="#XMLID_87_-8-6"
       inkscape:collect="always" />
    <linearGradient
       y2="44.27"
       x2="58.138699"
       y1="41.267101"
       x1="54.825199"
       gradientTransform="matrix(2.5419384,0,0,2.5419384,93.364609,97.341177)"
       gradientUnits="userSpaceOnUse"
       id="linearGradient3870"
       xlink:href="#XMLID_86_-84-8"
       inkscape:collect="always" />
    <linearGradient
       y2="42.945099"
       x2="51.856499"
       y1="44.320301"
       x1="48.730999"
       gradientTransform="matrix(2.5419384,0,0,2.5419384,95.447839,97.417667)"
       gradientUnits="userSpaceOnUse"
       id="linearGradient3873"
       xlink:href="#XMLID_77_-55-1"
       inkscape:collect="always" />
  </defs>
  <metadata
     id="metadata7">
    <rdf:RDF>
      <cc:Work
         rdf:about="">
        <dc:format>image/svg+xml</dc:format>
        <dc:type
           rdf:resource="http://purl.org/dc/dcmitype/StillImage" />
        <dc:title />
      </cc:Work>
    </rdf:RDF>
  </metadata>
  <g
     transform="translate(0,-540.36218)"
     inkscape:label="Livello 1"
     inkscape:groupmode="layer"
     id="layer1" />
  <rect
     style="color:#000000;fill:url(#radialGradient21898);fill-opacity:1.0;fill-rule:nonzero;stroke:none;stroke-width:1.50000000000000000;marker:none;visibility:visible;display:inline;overflow:visible;enable-background:accumulate"
     id="rect4121"
     width="432"
     height="432"
     x="39.993851"
     y="40.000004"
     ry="90" />
  <path
     style="fill:#000000;fill-opacity:0.39215686000000000;opacity:0.85"
     d="M 256 106 C 234.25451 105.8304 212.60277 111.5074 195.75 119.5625 C 163.20185 135.49267 139.74161 162.45971 129.5625 195.65625 C 123.4103 215.72004 123.68485 224.90788 132.5 295.71875 C 139.07344 348.52229 140.75134 362.40921 145.96875 367.25 C 146.03195 367.3341 146.08861 367.38982 146.15625 367.46875 C 151.21446 372.52523 161.375 382.6875 161.375 382.6875 C 161.80884 385.76976 162.44744 387.66071 163.3125 389.5 C 164.66913 392.38446 166.53644 395.06673 168.8125 397.40625 C 169.00604 397.611 169.20648 397.80053 169.40625 398 C 169.96453 398.60086 170.4735 399.08805 171 399.59375 C 171.20739 399.79295 200.36764 429.83045 241.78125 472 L 382 472 C 431.86 472 472 431.86 472 382 L 472 272.625 C 406.41279 204.71009 353.875 146.875 353.875 146.875 C 353.8648 146.8643 353.85385 146.85435 353.84375 146.84375 C 352.89982 145.90557 351.93413 144.93041 351.125 144.125 C 349.695 142.7165 348.22161 141.34551 346.71875 140 C 346.61469 139.9075 346.51065 139.81099 346.40625 139.71875 C 337.53588 131.8297 327.43843 125.0385 316.25 119.5625 C 295.48007 111.21426 274.73394 106.1461 256 106 z "
     id="path10304" />
  <g
     id="g3801"
     transform="matrix(0.68181819,0,0,0.68181819,-124.69618,-19.649728)">
    <path
       style="fill:#ffffff;fill-opacity:1"
       d="m 469.97225,204.17169 c -47.73728,23.36425 -82.13531,62.92713 -97.06467,111.61539 -9.02322,29.42689 -8.61757,42.90871 4.31132,146.76465 13.21624,106.16425 12.88737,105.12306 31.01758,109.57949 10.25402,2.52042 10.38081,2.65641 11.85614,14.55072 16.86619,-99.48026 21.00972,-99.59046 6.94602,-155.26755 -6.94268,8.4227 -7.24724,8.56126 -7.30529,2.99398 -0.0334,-3.20243 -1.10497,-16.41662 -2.39518,-29.34096 -1.2902,-12.92433 -2.36491,-31.93545 -2.39518,-42.27492 -0.10244,-35.04448 14.95941,-68.02034 42.99348,-94.01082 28.00988,-25.96808 64.04173,-39.09334 100.41792,-38.98155 36.37619,-0.11179 72.40803,13.01347 100.41792,38.98155 28.03407,25.99048 43.09592,58.96634 42.99348,94.01082 -0.0303,10.33947 -1.10498,29.35059 -2.39518,42.27492 -1.29022,12.92434 -2.36182,26.13853 -2.39518,29.34096 -0.0581,5.56728 -0.36261,5.42872 -7.3053,-2.99398 -14.06369,55.67709 -9.92016,55.78729 6.94602,155.26755 1.47534,-11.89431 1.60213,-12.0303 11.85614,-14.55072 18.13021,-4.45643 17.80135,-3.41524 31.01759,-109.57949 12.92889,-103.85594 13.33454,-117.33776 4.31132,-146.76465 -14.92937,-48.68826 -49.32739,-88.25114 -97.06467,-111.61539 -30.46257,-12.24408 -60.90569,-19.66571 -88.38214,-19.87999 -31.89339,-0.24874 -63.66474,8.06585 -88.38214,19.87999 z"
       id="path3050"
       inkscape:connector-curvature="0"
       sodipodi:nodetypes="cssscccssscssscccssscsc" />
    <g
       id="g3784"
       transform="matrix(1.916144,0,0,1.916144,-161.35771,-640.86368)"
       style="fill:#1a1a1a">
      <path
         inkscape:connector-curvature="0"
         id="path3763"
         transform="translate(302.35439,550.50828)"
         d="m 21.9375,0.1875 c -9.05361,0 -16.30211,5.5599 -19.625,12.625 C 0.23892,17.22133 0.0243,21.36635 0,54.96875 0.0243,88.57115 0.23892,92.71617 2.3125,97.125 c 3.32289,7.0651 10.571392,12.625 19.625,12.625 9.053608,0 16.30212,-5.5599 19.625,-12.625 2.07358,-4.40883 2.2882,-8.55385 2.3125,-42.15625 C 43.8507,21.36635 43.63608,17.22133 41.5625,12.8125 38.23962,5.7474 30.99111,0.1875 21.9375,0.1875 z"
         style="fill:#ffffff;fill-opacity:1" />
      <g
         transform="matrix(-1,0,0,1,751.2011,0)"
         id="g3779"
         style="fill:#1a1a1a">
        <path
           inkscape:connector-curvature="0"
           id="path3777"
           transform="translate(302.35439,550.50828)"
           d="m 21.9375,0.1875 c -9.05361,0 -16.30211,5.5599 -19.625,12.625 C 0.23892,17.22133 0.0243,21.36635 0,54.96875 0.0243,88.57115 0.23892,92.71617 2.3125,97.125 c 3.32289,7.0651 10.571392,12.625 19.625,12.625 9.053608,0 16.30212,-5.5599 19.625,-12.625 2.07358,-4.40883 2.2882,-8.55385 2.3125,-42.15625 C 43.8507,21.36635 43.63608,17.22133 41.5625,12.8125 38.23962,5.7474 30.99111,0.1875 21.9375,0.1875 z"
           style="fill:#ffffff;fill-opacity:1" />
      </g>
    </g>
  </g>
  <path
     sodipodi:nodetypes="ccsscccsccscccssccccsscsssscccccccsc"
     inkscape:connector-curvature="0"
     id="path3828"
     d="m 255.99735,106.0037 c -21.74549,-0.1696 -43.39723,5.5074 -60.25,13.5625 -32.54815,15.93017 -56.00839,42.89721 -66.1875,76.09375 -6.1522,20.06379 -5.87765,29.25163 2.9375,100.0625 6.57344,52.80354 8.25134,66.69046 13.46875,71.53125 0.0632,0.0841 0.11976,0.13977 0.1874,0.2187 5.05821,5.05648 15.21745,15.21695 15.21745,15.21695 0.43384,3.08226 1.07244,4.97321 1.9375,6.8125 1.35663,2.88446 3.22394,5.56673 5.5,7.90625 0.19354,0.20475 0.39398,0.39428 0.59375,0.59375 0.55828,0.60086 1.06705,1.08785 1.59355,1.59355 0.54178,0.52037 197.92683,203.99239 298.30695,298.27605 0.10676,0.0988 0.20415,0.21516 0.3125,0.3125 0.0984,0.0909 0.1815,0.19164 0.28125,0.28125 4.91459,4.55203 11.50377,7.53125 19.0625,7.53125 11.82818,0 21.28378,-7.26972 25.625,-16.5 2.70905,-5.75997 2.9995,-11.16224 3.03125,-55.0625 -0.007,-9.0915 -0.0458,-16.20722 -0.0937,-22.34375 0,0 57.54197,57.29349 86.1484,86.08635 0.0984,0.0909 0.1815,0.19164 0.28125,0.28125 4.91459,4.55203 11.50377,7.53125 19.0625,7.53125 11.82819,0 21.28377,-7.26972 25.625,-16.5 1.4372,-3.05576 2.19813,-6.18422 2.59375,-14.84375 0.83523,-2.62451 2.38765,-3.06199 7.09375,-4.21875 12.36151,-3.03847 12.14518,-2.33403 21.15625,-74.71875 8.81515,-70.81087 9.0897,-79.99871 2.9375,-100.0625 -5.1292,-16.72754 -13.66289,-31.86349 -25,-44.8125 -0.71234,-0.81362 -1.42165,-1.61013 -2.15625,-2.40625 C 547.28064,359.7495 353.86785,146.8829 353.86785,146.8829 c -0.0102,-0.0107 -0.0211,-0.0206 -0.0312,-0.0312 -0.94393,-0.93818 -1.90947,-1.91309 -2.7186,-2.7185 -1.43,-1.4085 -2.90339,-2.77949 -4.40625,-4.125 -0.10406,-0.0925 -0.2081,-0.18901 -0.3125,-0.28125 -8.87037,-7.88905 -18.96782,-14.68025 -30.15625,-20.15625 -20.76993,-8.34824 -41.51606,-13.4164 -60.25,-13.5625 z"
     style="fill:#000000;fill-opacity:0.39215686;display:none" />
</svg>
