<?xml version="1.0" encoding="UTF-8" standalone="no"?>
<!-- Created with Inkscape (http://www.inkscape.org/) -->

<svg
   xmlns:dc="http://purl.org/dc/elements/1.1/"
   xmlns:cc="http://creativecommons.org/ns#"
   xmlns:rdf="http://www.w3.org/1999/02/22-rdf-syntax-ns#"
   xmlns:svg="http://www.w3.org/2000/svg"
   xmlns="http://www.w3.org/2000/svg"
   xmlns:xlink="http://www.w3.org/1999/xlink"
   xmlns:sodipodi="http://sodipodi.sourceforge.net/DTD/sodipodi-0.dtd"
   xmlns:inkscape="http://www.inkscape.org/namespaces/inkscape"
   width="512"
   height="512"
   id="svg2"
   version="1.1"
   inkscape:version="0.48.3.1 r9886"
   sodipodi:docname="hangouts.svg"
   inkscape:export-filename="/home/alecive/Scrivania/firefoxTest1.png"
   inkscape:export-xdpi="100"
   inkscape:export-ydpi="100">
  <sodipodi:namedview
     id="base"
     pagecolor="#ffffff"
     bordercolor="#666666"
     borderopacity="1.0"
     inkscape:pageopacity="0.0"
     inkscape:pageshadow="2"
     inkscape:zoom="0.5"
     inkscape:cx="218.65256"
     inkscape:cy="155.9581"
     inkscape:document-units="px"
     inkscape:current-layer="svg2"
     showgrid="false"
     inkscape:window-width="1317"
     inkscape:window-height="744"
     inkscape:window-x="49"
     inkscape:window-y="24"
     inkscape:window-maximized="1"
     inkscape:object-paths="true"
     inkscape:snap-intersection-paths="true"
     inkscape:object-nodes="true"
     inkscape:snap-smooth-nodes="true"
     inkscape:snap-nodes="true" />
  <defs
     id="defs4">
    <linearGradient
       id="XMLID_74_-8-1"
       gradientUnits="userSpaceOnUse"
       x1="64.477501"
       y1="56.3008"
       x2="78.466103"
       y2="48.0854">
      <stop
         offset="0"
         style="stop-color:#ffffff;stop-opacity:1;"
         id="stop155-3-8" />
      <stop
         offset="1"
         style="stop-color:#e6e6e6;stop-opacity:1;"
         id="stop157-94-6" />
    </linearGradient>
    <radialGradient
       inkscape:collect="always"
       xlink:href="#XMLID_74_-8-1"
       id="radialGradient3867"
       cx="558.35437"
       cy="385.4841"
       fx="558.35437"
       fy="385.4841"
       r="191.6187"
       gradientTransform="matrix(1,0,0,1.0499906,0,-19.270593)"
       gradientUnits="userSpaceOnUse" />
    <linearGradient
       id="SVGID_2_"
       gradientUnits="userSpaceOnUse"
       x1="200.0508"
       y1="185.0742"
       x2="200.0508"
       y2="217.4595">
      <stop
         offset="0"
         style="stop-color:#61B74A"
         id="stop13" />
      <stop
         offset="1"
         style="stop-color:#449934"
         id="stop15" />
    </linearGradient>
    <linearGradient
       y2="217.4595"
       x2="200.0508"
       y1="185.0742"
       x1="200.0508"
       gradientTransform="matrix(13.577628,0,0,13.577628,-2026.1619,-2566.7096)"
       gradientUnits="userSpaceOnUse"
       id="linearGradient3021"
       xlink:href="#SVGID_2_"
       inkscape:collect="always" />
    <linearGradient
       inkscape:collect="always"
       xlink:href="#SVGID_2_"
       id="linearGradient3017"
       gradientUnits="userSpaceOnUse"
       gradientTransform="matrix(9.2574736,0,0,9.2574736,-1595.9285,-1607.2111)"
       x1="200.0508"
       y1="185.0742"
       x2="200.0508"
       y2="217.4595" />
    <linearGradient
       gradientUnits="userSpaceOnUse"
       y2="464"
       x2="259.99384"
       y1="44"
       x1="259.99384"
       id="linearGradient3803"
       xlink:href="#SVGID_2_"
       inkscape:collect="always" />
  </defs>
  <metadata
     id="metadata7">
    <rdf:RDF>
      <cc:Work
         rdf:about="">
        <dc:format>image/svg+xml</dc:format>
        <dc:type
           rdf:resource="http://purl.org/dc/dcmitype/StillImage" />
        <dc:title />
      </cc:Work>
    </rdf:RDF>
  </metadata>
  <g
     transform="translate(0,-540.36218)"
     inkscape:label="Livello 1"
     inkscape:groupmode="layer"
     id="layer1" />
  <rect
     style="color:#000000;fill:url(#linearGradient3803);fill-opacity:1;fill-rule:nonzero;stroke:none;stroke-width:1.50000000000000000;marker:none;visibility:visible;display:inline;overflow:visible;enable-background:accumulate"
     id="rect4121"
     width="432"
     height="432"
     x="39.993851"
     y="40.000004"
     ry="90" />
  <path
     style="fill:#000000;fill-opacity:0.31372549000000000;opacity:0.85"
     d="M 142.875 169.125 C 136.39271 169.125 131 174.5342 131 181 L 131 262.96875 C 131 266.31174 132.42324 269.33402 134.6875 271.5 C 134.7384 271.5523 134.79191 271.60483 134.84375 271.65625 C 135.0176 271.84119 135.1899 272.01385 135.375 272.1875 L 171.03125 307.875 C 168.99076 308.16837 166.8444 308.34375 164.53125 308.34375 L 164.53125 342.875 L 293.59375 472 L 382 472 C 431.86 472 472 431.86 472 382 L 472 267.0625 L 378.71875 173.78125 C 376.475 171.05935 372.51418 169.17297 369.65625 169.125 L 287.1875 169.125 C 280.70523 169.125 275.3125 174.5342 275.3125 181 L 275.3125 214.8125 L 234.375 173.84375 C 234.18153 173.63606 233.98877 173.44368 233.78125 173.25 C 231.20667 170.90847 227.68582 169.17234 224.8125 169.125 L 142.875 169.125 z "
     id="path3825" />
  <path
     inkscape:connector-curvature="0"
     id="path11853"
     d="M 142.85968,169.14031 C 136.37739,169.14031 131,174.5342 131,181 l 0,81.95991 c 0,6.49879 5.37739,11.85969 11.85968,11.85969 l 59.24276,0 c 0,0 -3.836,33.51893 -37.58351,33.51893 l 0,34.52115 c 71.91549,0 72.16035,-73.40098 72.16035,-79.89977 l 0,-81.95991 c 0,-6.4658 -5.37739,-11.85969 -11.85969,-11.85969 l -81.95991,0 z m 144.32071,0 c -6.48227,0 -11.85968,5.39389 -11.85968,11.85969 l 0,81.95991 c 0,6.49879 5.37741,11.85969 11.85968,11.85969 l 59.24276,0 c 0,0 -3.33489,33.51893 -37.0824,33.51893 l 0,34.52115 c 71.88332,0 71.65924,-73.40098 71.65924,-79.89977 l 0,-81.95991 c 0,-6.4658 -4.87627,-11.85969 -11.35858,-11.85969 l -82.46102,0 z"
     style="fill:#ffffff;fill-opacity:1" />
  <path
     sodipodi:nodetypes="sssccccccccccsscccssccccs"
     inkscape:connector-curvature="0"
     id="path7847"
     d="M 142.875,169.125 C 136.39271,169.125 131,174.5342 131,181 l 0,81.96875 c 0,3.34299 1.42324,6.36527 3.6875,8.53125 0.0509,0.0523 0.10441,0.10483 0.15625,0.15625 0.17385,0.18494 0.34615,0.3576 0.53125,0.53125 l 35.6549,35.68615 c -2.04049,0.29337 -4.18685,0.46875 -6.5,0.46875 l 0,34.53125 299.9999,300.125 c 71.91549,0 72.15625,-73.40746 72.15625,-79.90625 0,-0.55208 0,-1.10417 0,-1.65625 15.12077,29.02784 72.65815,81.56565 72.65815,81.56565 C 681.22707,643 681,569.59254 681,563.09375 l 0,-81.96875 c 0,-3.37321 -1.34123,-6.41771 -3.53125,-8.59375 L 378.7191,173.78165 c -2.24375,-2.7219 -6.20442,-4.60813 -9.06235,-4.6561 l -82.46875,0 c -6.48227,0 -11.875,5.4092 -11.875,11.875 l 0,33.8125 -40.9375,-40.96875 c -0.19347,-0.20769 -0.38623,-0.40007 -0.59375,-0.59375 -2.57458,-2.34153 -6.09543,-4.07766 -8.96875,-4.125 z"
     style="fill:#000000;fill-opacity:0.31372549;display:none" />
</svg>
