<?xml version="1.0" encoding="UTF-8" standalone="no"?>
<!-- Created with Inkscape (http://www.inkscape.org/) -->

<svg
   xmlns:dc="http://purl.org/dc/elements/1.1/"
   xmlns:cc="http://creativecommons.org/ns#"
   xmlns:rdf="http://www.w3.org/1999/02/22-rdf-syntax-ns#"
   xmlns:svg="http://www.w3.org/2000/svg"
   xmlns="http://www.w3.org/2000/svg"
   xmlns:xlink="http://www.w3.org/1999/xlink"
   xmlns:sodipodi="http://sodipodi.sourceforge.net/DTD/sodipodi-0.dtd"
   xmlns:inkscape="http://www.inkscape.org/namespaces/inkscape"
   width="512"
   height="512"
   id="svg2"
   version="1.1"
   inkscape:version="0.48.3.1 r9886"
   sodipodi:docname="chrome.svg"
   inkscape:export-filename="/home/alecive/Scrivania/firefoxTest1.png"
   inkscape:export-xdpi="100"
   inkscape:export-ydpi="100">
  <sodipodi:namedview
     id="base"
     pagecolor="#ffffff"
     bordercolor="#666666"
     borderopacity="1.0"
     inkscape:pageopacity="0.0"
     inkscape:pageshadow="2"
     inkscape:zoom="0.70710678"
     inkscape:cx="163.35705"
     inkscape:cy="438.51045"
     inkscape:document-units="px"
     inkscape:current-layer="svg2"
     showgrid="false"
     inkscape:window-width="1317"
     inkscape:window-height="744"
     inkscape:window-x="49"
     inkscape:window-y="24"
     inkscape:window-maximized="1"
     inkscape:object-paths="true"
     inkscape:snap-intersection-paths="true"
     inkscape:object-nodes="true"
     inkscape:snap-smooth-nodes="true"
     inkscape:snap-nodes="true" />
  <defs
     id="defs4">
    <linearGradient
       y2="48.0854"
       x2="78.466103"
       y1="56.3008"
       x1="64.477501"
       gradientUnits="userSpaceOnUse"
       id="linearGradient3834">
      <stop
         id="stop3836"
         style="stop-color:#ffffff;stop-opacity:0.50980395;"
         offset="0" />
      <stop
         offset="1"
         style="stop-color:#ffffff;stop-opacity:0.27450982;"
         id="stop3838" />
    </linearGradient>
    <linearGradient
       id="linearGradient21900"
       gradientUnits="userSpaceOnUse"
       x1="64.477501"
       y1="56.3008"
       x2="78.466103"
       y2="48.0854">
      <stop
         offset="0"
         style="stop-color:#2d7787;stop-opacity:1;"
         id="stop21902" />
      <stop
         id="stop21912"
         style="stop-color:#3c9fb4;stop-opacity:1;"
         offset="0.65713483" />
      <stop
         offset="1"
         style="stop-color:#64bacc;stop-opacity:1;"
         id="stop21910" />
    </linearGradient>
    <radialGradient
       inkscape:collect="always"
       xlink:href="#linearGradient3834"
       id="radialGradient3850"
       gradientUnits="userSpaceOnUse"
       gradientTransform="matrix(0.69246168,0.05092335,-0.0509484,0.69280223,-458.2293,60.606564)"
       cx="255.99385"
       cy="256"
       fx="255.99385"
       fy="256"
       r="216" />
    <linearGradient
       inkscape:collect="always"
       xlink:href="#circle53_2_-7"
       id="linearGradient28146"
       x1="-297.38913"
       y1="35.000004"
       x2="-301.88116"
       y2="467"
       gradientUnits="userSpaceOnUse"
       spreadMethod="pad" />
    <linearGradient
       id="circle53_2_-7"
       gradientUnits="userSpaceOnUse"
       x1="-175.6665"
       y1="582.19751"
       x2="-175.6665"
       y2="581.43579"
       gradientTransform="matrix(82,0,0,-82,14489.971,47794.699)">
      <stop
         offset="0"
         style="stop-color:#81B4E0"
         id="stop23-0" />
      <stop
         offset="1"
         style="stop-color:#0C5A94"
         id="stop25-1" />
    </linearGradient>
    <linearGradient
       inkscape:collect="always"
       xlink:href="#circle53_2_"
       id="linearGradient4469"
       gradientUnits="userSpaceOnUse"
       gradientTransform="matrix(211.9635,0,0,-211.9635,37491.427,123580.79)"
       x1="-175.6665"
       y1="582.19751"
       x2="-175.6665"
       y2="581.43579" />
    <linearGradient
       id="circle53_2_"
       gradientUnits="userSpaceOnUse"
       x1="-175.6665"
       y1="582.19751"
       x2="-175.6665"
       y2="581.43579"
       gradientTransform="matrix(82,0,0,-82,14489.971,47794.699)">
      <stop
         offset="0"
         style="stop-color:#3678ba;stop-opacity:1;"
         id="stop23" />
      <stop
         offset="1"
         style="stop-color:#6ca0d4;stop-opacity:1;"
         id="stop25" />
    </linearGradient>
    <radialGradient
       inkscape:collect="always"
       xlink:href="#circle53_2_"
       id="radialGradient3015"
       gradientUnits="userSpaceOnUse"
       gradientTransform="matrix(1.0006762,0.01270787,-0.0126993,0.99999998,3.0840664,-3.2531365)"
       cx="255.99385"
       cy="256"
       fx="255.99385"
       fy="256"
       r="216" />
    <linearGradient
       inkscape:collect="always"
       xlink:href="#circle53_2_-7"
       id="linearGradient3018"
       gradientUnits="userSpaceOnUse"
       spreadMethod="pad"
       x1="-297.38913"
       y1="35.000004"
       x2="-301.88116"
       y2="467"
       gradientTransform="translate(550.00616,4.9999962)" />
  </defs>
  <metadata
     id="metadata7">
    <rdf:RDF>
      <cc:Work
         rdf:about="">
        <dc:format>image/svg+xml</dc:format>
        <dc:type
           rdf:resource="http://purl.org/dc/dcmitype/StillImage" />
        <dc:title />
      </cc:Work>
    </rdf:RDF>
  </metadata>
  <g
     id="layer1"
     inkscape:groupmode="layer"
     inkscape:label="Livello 1"
     transform="translate(0,-540.36218)" />
  <rect
     style="color:#000000;fill:url(#radialGradient3015);fill-opacity:1;fill-rule:nonzero;stroke:none;stroke-width:1.50000000000000000;marker:none;visibility:visible;display:inline;overflow:visible;enable-background:accumulate"
     id="rect3830"
     width="432"
     height="432"
     x="39.999996"
     y="40"
     ry="90" />
  <path
     inkscape:connector-curvature="0"
     id="rect28177"
     d="m 254.03125,105.96875 c -21.89215,0.26785 -44.08163,5.35352 -65,15.75 -20.0662,9.97286 -37.62886,24.28257 -51.40625,41.84375 14.51533,24.74859 26.89749,47.32434 40.3125,70.09375 -0.0114,0.02 -0.0199,0.0425 -0.0312,0.0625 0,0 -34.67211,-35.79334 -52.09375,-52.59375 C 92.427398,239.42271 102.27318,312.08221 147.5,359.46875 147.68008,359.66653 196.68485,410.79094 256.96875,472 L 382,472 c 49.86,0 90,-40.14 90,-90 l 0,-117.59375 C 408.05491,198.85961 357.09375,145.0625 357.09375,145.0625 328.88917,119.44272 291.89754,105.50544 254.03125,105.96875 z"
     style="color:#000000;fill:#000000;fill-opacity:0.39215686000000000;fill-rule:nonzero;stroke:none;stroke-width:1.50000000000000000;marker:none;visibility:visible;display:inline;overflow:visible;enable-background:accumulate;opacity:0.85" />
  <g
     id="g28148">
    <path
       inkscape:connector-curvature="0"
       id="path4226"
       d="m 125.81528,181.1336 c -38.87896,67.89119 -19.13456,155.27919 46.85335,199.51557 18.45019,12.36869 39.37911,20.4502 61.25664,23.75693 14.88671,-25.2362 29.72136,-50.50708 44.57354,-75.76649 -12.71022,3.93101 -26.43909,4.71162 -39.45994,1.78976 -26.8204,-5.1724 -48.6954,-26.59594 -56.65441,-52.35046 -19.88485,-31.69019 -37.69178,-64.66625 -56.56918,-96.94531 z"
       style="fill:#ffffff;fill-opacity:1" />
    <path
       inkscape:connector-curvature="0"
       id="path4228"
       d="m 394.9184,198.98859 c -29.85773,0.001 -59.71546,0.0162 -89.5732,0.0213 3.88793,3.41331 7.44123,7.19338 10.5468,11.31384 18.72106,23.62235 20.55208,58.93581 5.19882,84.73658 -2.31704,4.18981 -5.07814,8.06651 -8.18176,11.61213 -16.93947,31.06001 -35.67493,61.14427 -53.45841,91.74648 -1.64175,2.19935 -2.84936,4.96707 -4.1761,7.62779 78.12289,0.25744 144.31411,-59.91683 150.29718,-139.04727 1.75621,-23.23532 -1.90713,-46.51413 -10.65333,-68.01086 z"
       style="fill:#ffffff;fill-opacity:1" />
    <path
       sodipodi:nodetypes="ssccccccs"
       inkscape:connector-curvature="0"
       id="path55_1_"
       d="m 254.01745,105.96371 c -21.89215,0.26785 -44.06694,5.34914 -64.98531,15.74562 -20.0662,9.97286 -37.61428,24.2851 -51.39167,41.84628 8.87485,15.43039 17.74313,30.85652 26.63333,46.27807 5.37948,9.77744 11.09485,19.37948 16.76834,28.99836 7.96545,-32.83236 39.45648,-59.23559 73.82758,-58.76376 l 6.0724,0 c 41.46569,-0.54917 82.95882,0.17932 124.43089,-0.2983 -28.03162,-47.46889 -78.87549,-74.44838 -131.35556,-73.80627 z"
       style="fill:#ffffff;fill-opacity:1" />
  </g>
  <g
     id="g28153"
     style="display:none">
    <path
       style="fill:#ea5347;fill-opacity:1"
       d="m 554.01745,407.86821 c -21.89215,0.26786 -44.06695,5.34914 -64.98532,15.74562 -20.06619,9.97286 -37.61428,24.28509 -51.39166,41.84628 8.87485,15.43039 17.74313,30.85652 26.63332,46.27807 5.37948,9.77744 11.09486,19.37948 16.76835,28.99836 7.96545,-32.83236 39.45647,-59.23559 73.82757,-58.76376 l 6.0724,0 c 41.4657,-0.54917 82.95882,0.17932 124.4309,-0.2983 -28.03162,-47.46889 -78.8755,-74.44838 -131.35556,-73.80627 z"
       id="path3082"
       inkscape:connector-curvature="0"
       sodipodi:nodetypes="ssccccccs" />
    <path
       style="fill:#4bb549;fill-opacity:1"
       d="m 425.81528,483.03811 c -38.87896,67.89118 -19.13456,155.27918 46.85335,199.51556 18.45019,12.36869 39.37911,20.4502 61.25664,23.75693 14.88671,-25.2362 29.72136,-50.50707 44.57354,-75.76648 -12.71022,3.931 -26.43909,4.71161 -39.45994,1.78976 -26.8204,-5.17241 -48.6954,-26.59595 -56.65441,-52.35047 -19.88485,-31.69019 -37.69178,-64.66624 -56.56918,-96.9453 z"
       id="path3078"
       inkscape:connector-curvature="0" />
    <path
       style="fill:#fcd209;fill-opacity:1"
       d="m 694.9184,500.89309 c -29.85773,0.001 -59.71546,0.0162 -89.5732,0.0213 3.88793,3.41331 7.44123,7.19338 10.5468,11.31384 18.72106,23.62235 20.55208,58.93581 5.19882,84.73659 -2.31705,4.18981 -5.07814,8.06651 -8.18176,11.61213 -16.93947,31.06 -35.67493,61.14426 -53.45841,91.74647 -1.64175,2.19935 -2.84936,4.96707 -4.1761,7.62779 78.12289,0.25744 144.31411,-59.91683 150.29718,-139.04727 1.75621,-23.23532 -1.90713,-46.51413 -10.65333,-68.01086 z"
       id="path3080"
       inkscape:connector-curvature="0" />
  </g>
  <g
     id="g27124" />
  <path
     sodipodi:nodetypes="csccccccscccccccccsc"
     inkscape:connector-curvature="0"
     id="path28175"
     d="m 254.03125,105.96875 c -21.89215,0.26785 -44.08163,5.35352 -65,15.75 -20.0662,9.97286 -37.62886,24.28257 -51.40625,41.84375 14.51533,24.74859 26.89749,47.32434 40.3125,70.09375 -0.0114,0.02 -0.0199,0.0425 -0.0312,0.0625 0,0 -34.67216,-35.79334 -52.0938,-52.59375 -33.385102,58.29771 -23.53932,130.95721 21.6875,178.34375 0.35962,0.39496 195.41,203.864 286.2165,285.2168 10.27636,14.4906 23.30576,27.39594 38.9375,37.875 18.45019,12.36869 39.40372,20.44327 61.28125,23.75 2.4702,-4.18753 4.9391,-8.37259 7.40625,-12.5625 l 13.93745,14.1889 c 78.12289,0.25744 144.29818,-59.90081 150.28125,-139.03125 1.75621,-23.23532 -1.91005,-46.50327 -10.65625,-68 -6.54758,-5.19599 -19.12475,-19.15625 -19.12475,-19.15625 3.19603,-0.0234 6.39802,-0.0257 9.59375,-0.0625 -6.20944,-10.51509 -13.53288,-20.01025 -21.75,-28.4375 -104.27409,-94.75268 -306.5267,-308.1846 -306.5267,-308.1846 -28.20458,-25.61978 -65.19621,-39.55706 -103.0625,-39.09375 z"
     style="fill:#000000;fill-opacity:0.47058824;display:none" />
  <path
     inkscape:connector-curvature="0"
     id="circle53_1_"
     d="m 254.76134,201.03486 c -33.64777,-0.29233 -60.87998,35.04969 -52.09664,67.40103 6.32218,31.76143 44.14179,51.44156 73.62758,38.57359 30.47475,-10.87077 44.3279,-51.28165 27.39768,-78.43883 -9.73962,-17.30482 -29.18313,-28.27158 -48.92862,-27.53579 z"
     style="fill:#ffffff;fill-opacity:1" />
</svg>
