<?xml version="1.0" encoding="UTF-8" standalone="no"?>
<!-- Created with Inkscape (http://www.inkscape.org/) -->

<svg
   xmlns:dc="http://purl.org/dc/elements/1.1/"
   xmlns:cc="http://creativecommons.org/ns#"
   xmlns:rdf="http://www.w3.org/1999/02/22-rdf-syntax-ns#"
   xmlns:svg="http://www.w3.org/2000/svg"
   xmlns="http://www.w3.org/2000/svg"
   xmlns:xlink="http://www.w3.org/1999/xlink"
   xmlns:sodipodi="http://sodipodi.sourceforge.net/DTD/sodipodi-0.dtd"
   xmlns:inkscape="http://www.inkscape.org/namespaces/inkscape"
   width="512"
   height="512"
   id="svg2"
   version="1.1"
   inkscape:version="0.48.3.1 r9886"
   sodipodi:docname="phone.svg"
   inkscape:export-filename="/home/alecive/Scrivania/firefoxTest1.png"
   inkscape:export-xdpi="100"
   inkscape:export-ydpi="100">
  <sodipodi:namedview
     id="base"
     pagecolor="#ffffff"
     bordercolor="#666666"
     borderopacity="1.0"
     inkscape:pageopacity="0.0"
     inkscape:pageshadow="2"
     inkscape:zoom="0.70710678"
     inkscape:cx="-2.4515051"
     inkscape:cy="229.33855"
     inkscape:document-units="px"
     inkscape:current-layer="svg2"
     showgrid="false"
     inkscape:window-width="1317"
     inkscape:window-height="744"
     inkscape:window-x="49"
     inkscape:window-y="24"
     inkscape:window-maximized="1"
     inkscape:object-paths="true"
     inkscape:snap-intersection-paths="true"
     inkscape:object-nodes="true"
     inkscape:snap-smooth-nodes="true"
     inkscape:snap-nodes="true" />
  <defs
     id="defs4">
    <linearGradient
       gradientTransform="matrix(82,0,0,-82,14489.971,47794.699)"
       y2="581.43579"
       x2="-175.6665"
       y1="582.19751"
       x1="-175.6665"
       gradientUnits="userSpaceOnUse"
       id="circle53_2_">
      <stop
         id="stop23"
         style="stop-color:#005b96;stop-opacity:1;"
         offset="0" />
      <stop
         id="stop25"
         style="stop-color:#0085dc;stop-opacity:1;"
         offset="1" />
    </linearGradient>
    <radialGradient
       r="216"
       fy="256"
       fx="255.99385"
       cy="256"
       cx="255.99385"
       gradientTransform="matrix(1.0006762,0.01270787,-0.0126993,0.99999998,3.0840664,-3.2531365)"
       gradientUnits="userSpaceOnUse"
       id="radialGradient3015"
       xlink:href="#circle53_2_"
       inkscape:collect="always" />
  </defs>
  <metadata
     id="metadata7">
    <rdf:RDF>
      <cc:Work
         rdf:about="">
        <dc:format>image/svg+xml</dc:format>
        <dc:type
           rdf:resource="http://purl.org/dc/dcmitype/StillImage" />
        <dc:title />
      </cc:Work>
    </rdf:RDF>
  </metadata>
  <g
     transform="translate(0,-540.36218)"
     inkscape:label="Livello 1"
     inkscape:groupmode="layer"
     id="layer1" />
  <rect
     ry="90"
     y="40"
     x="39.999996"
     height="432"
     width="432"
     id="rect3830"
     style="color:#000000;fill:url(#radialGradient3015);fill-opacity:1;fill-rule:nonzero;stroke:none;stroke-width:1.50000000000000000;marker:none;visibility:visible;display:inline;overflow:visible;enable-background:accumulate" />
  <g
     id="g27124" />
  <path
     style="fill:#000000;fill-opacity:0.39215686000000000;display:inline;opacity:0.85"
     d="M 327.8125 131 C 326.20693 131.0581 324.99617 131.28965 324.40625 131.71875 C 323.44162 132.42042 320.88724 136.19171 318.71875 140.09375 C 316.54974 143.99552 309.83536 155.91843 303.78125 166.59375 C 290.86609 189.36693 290.71475 189.68702 292.28125 193.03125 C 292.87853 194.30609 294.86344 196.66832 297.59375 199.5625 C 297.60375 199.5727 297.6154 199.58365 297.625 199.59375 C 297.89103 199.8801 298.18642 200.17143 298.46875 200.46875 C 299.0329 201.05485 299.57237 201.63277 300.1875 202.25 C 308.18013 210.26807 323.0625 225.09375 323.0625 225.09375 C 323.31636 226.11011 323.30416 227.46281 323.25 228.4375 C 323.04598 231.87416 314.12693 247.9289 305.8125 259.84375 C 289.7848 282.81255 269.3813 300.85744 243.5625 314.875 C 233.28953 320.45167 230.38568 321.37946 224.71875 316.46875 C 224.38637 316.18072 224.00957 315.85969 223.65625 315.53125 C 221.57414 313.48621 219.56265 311.41863 217.34375 309.3125 C 217.23659 309.2126 217.13872 309.09933 217.03125 309 C 209.43641 301.91645 201.021 296.34193 197.28125 296.125 C 194.69155 295.97468 149.86189 310.9125 139.03125 315.53125 C 132.25079 318.42333 131.41564 320.4502 131.09375 334.28125 C 130.84074 345.15307 131.06685 346.89303 133.3125 351.25 C 134.85639 354.24536 136.97962 357.13038 139.5625 359.875 C 139.5725 359.8856 139.58385 359.89575 139.59375 359.90625 C 139.60375 359.91705 139.6151 359.9268 139.625 359.9375 C 141.08179 361.46251 142.46567 362.80899 143.90625 364.28125 C 143.90625 364.28125 193.91601 414.21471 251.75 472 L 382 472 C 431.86 472 472 431.86 472 382 L 472 252.71875 L 362.34375 143 C 360.15455 140.81447 357.48222 138.34952 355.09375 136.9375 C 349.35492 133.66807 334.76996 130.74829 327.8125 131 z "
     id="path3837" />
  <path
     d="m 380.19518,203.42422 c -1.18589,5.40224 -9.23847,29.00641 -13.07191,38.31011 -5.32505,12.92426 -17.34416,33.6101 -26.08781,44.89948 -10.44906,13.4912 -20.2338,23.37542 -39.00954,39.4062 -28.8224,24.60876 -57.21453,41.18855 -86.26531,50.37542 -13.38928,4.2339 -18.6524,5.01693 -29.55798,4.39725 -21.77947,-1.23058 -44.98312,-14.20595 -52.89932,-29.5645 -2.24563,-4.35697 -2.47463,-6.10718 -2.22162,-16.979 0.32189,-13.83105 1.18162,-15.8523 7.96208,-18.74438 10.83064,-4.61875 55.64985,-19.54136 58.23955,-19.39104 4.274,0.24792 14.6527,7.47979 22.93703,15.98218 9.19713,9.43897 10.70239,9.61636 23.34604,2.75277 25.8188,-14.01756 46.22897,-32.05714 62.25667,-55.02594 8.31443,-11.91485 17.21791,-27.96064 17.42193,-31.3973 0.29011,-4.88219 -1.03141,-6.82443 -9.25386,-13.6113 -9.66317,-7.97563 -20.16583,-18.53089 -21.70261,-21.81099 -1.5665,-3.34423 -1.43473,-3.64714 11.48043,-26.42032 6.05411,-10.67532 12.78166,-22.60219 14.95067,-26.50396 2.16849,-3.90204 4.73199,-7.66844 5.69662,-8.37011 3.14625,-2.28854 23.6187,1.18891 30.68188,5.21282 7.1677,4.08265 17.09198,17.03786 21.04357,27.47042 4.11578,10.86594 6.07984,29.77089 4.05344,39.01271 z"
     inkscape:connector-curvature="0"
     id="path4609"
     style="fill:#ffffff;fill-opacity:1;display:inline" />
  <path
     sodipodi:nodetypes="cscscccccccscscccccsccccccccssccscccsc"
     inkscape:connector-curvature="0"
     id="path3758"
     d="m 327.8125,131 c -1.60557,0.0581 -2.81633,0.28965 -3.40625,0.71875 -0.96463,0.70167 -3.51901,4.47296 -5.6875,8.375 -2.16901,3.90177 -8.88339,15.82468 -14.9375,26.5 -12.91516,22.77318 -13.0665,23.09327 -11.5,26.4375 0.59728,1.27484 2.58219,3.63707 5.3125,6.53125 0.01,0.0102 0.0216,0.0211 0.0312,0.0312 0.26603,0.28635 0.56142,0.57768 0.84375,0.875 0.56415,0.5861 1.10362,1.16402 1.71875,1.78125 7.99263,8.01807 22.86367,22.8453 22.86367,22.8453 0.25386,1.01636 0.25119,2.36561 0.19703,3.3403 -0.20402,3.43666 -9.12307,19.4914 -17.4375,31.40625 -16.0277,22.9688 -36.4312,41.01369 -62.25,55.03125 -10.27297,5.57667 -13.17682,6.50446 -18.84375,1.59375 -0.33238,-0.28803 -0.70918,-0.60906 -1.0625,-0.9375 -2.08211,-2.04504 -4.0924,-4.11137 -6.3113,-6.2175 -0.10716,-0.0999 -0.20503,-0.21317 -0.3125,-0.3125 -7.59484,-7.08355 -16.01025,-12.65807 -19.75,-12.875 -2.5897,-0.15032 -47.41936,14.7875 -58.25,19.40625 -6.78046,2.89208 -7.61561,4.91895 -7.9375,18.75 -0.25301,10.87182 -0.0269,12.61178 2.21875,16.96875 1.54389,2.99536 3.66712,5.88038 6.25,8.625 0.01,0.0106 0.0213,0.0207 0.0312,0.0312 0.01,0.0108 0.0213,0.0205 0.0312,0.0312 1.45679,1.52501 2.84027,2.87084 4.28085,4.3431 0,0 206.80503,206.4569 297.6214,297.58935 10.86867,10.3403 28.1596,18.00541 44.65625,18.9375 10.90558,0.61968 16.17322,-0.17235 29.5625,-4.40625 29.05078,-9.18687 57.45885,-25.76624 86.28125,-50.375 18.77574,-16.03078 28.55094,-25.91505 39,-39.40625 8.74365,-11.28938 20.7687,-31.98199 26.09375,-44.90625 3.83344,-9.3037 11.87661,-32.87901 13.0625,-38.28125 2.0264,-9.24182 0.0845,-28.16531 -4.03125,-39.03125 -2.5181,-6.648 -7.4838,-14.28315 -12.59375,-20.03125 l -301.2164,-301.3724 c -2.1892,-2.18553 -4.86143,-4.65033 -7.2499,-6.06235 -5.73883,-3.26943 -20.32379,-6.18921 -27.28125,-5.9375 z"
     style="fill:#000000;fill-opacity:0.39215686;display:none" />
</svg>
