<?xml version="1.0" encoding="UTF-8" standalone="no"?>
<!-- Created with Inkscape (http://www.inkscape.org/) -->

<svg
   xmlns:dc="http://purl.org/dc/elements/1.1/"
   xmlns:cc="http://creativecommons.org/ns#"
   xmlns:rdf="http://www.w3.org/1999/02/22-rdf-syntax-ns#"
   xmlns:svg="http://www.w3.org/2000/svg"
   xmlns="http://www.w3.org/2000/svg"
   xmlns:xlink="http://www.w3.org/1999/xlink"
   xmlns:sodipodi="http://sodipodi.sourceforge.net/DTD/sodipodi-0.dtd"
   xmlns:inkscape="http://www.inkscape.org/namespaces/inkscape"
   width="512"
   height="512"
   id="svg2"
   version="1.1"
   inkscape:version="0.48.3.1 r9886"
   sodipodi:docname="phone.svg"
   inkscape:export-filename="/home/alecive/Scrivania/firefoxTest1.png"
   inkscape:export-xdpi="100"
   inkscape:export-ydpi="100">
  <sodipodi:namedview
     id="base"
     pagecolor="#ffffff"
     bordercolor="#666666"
     borderopacity="1.0"
     inkscape:pageopacity="0.0"
     inkscape:pageshadow="2"
     inkscape:zoom="0.5"
     inkscape:cx="433.27703"
     inkscape:cy="196.20146"
     inkscape:document-units="px"
     inkscape:current-layer="svg2"
     showgrid="false"
     inkscape:window-width="1305"
     inkscape:window-height="744"
     inkscape:window-x="61"
     inkscape:window-y="24"
     inkscape:window-maximized="1"
     inkscape:object-paths="true"
     inkscape:snap-intersection-paths="true"
     inkscape:object-nodes="true"
     inkscape:snap-smooth-nodes="true"
     inkscape:snap-nodes="true" />
  <defs
     id="defs4">
    <linearGradient
       gradientTransform="matrix(82,0,0,-82,14489.971,47794.699)"
       y2="581.43579"
       x2="-175.6665"
       y1="582.19751"
       x1="-175.6665"
       gradientUnits="userSpaceOnUse"
       id="circle53_2_">
      <stop
         id="stop23"
         style="stop-color:#0b89db;stop-opacity:1;"
         offset="0" />
      <stop
         id="stop25"
         style="stop-color:#2097e4;stop-opacity:1;"
         offset="1" />
    </linearGradient>
    <radialGradient
       inkscape:collect="always"
       xlink:href="#circle53_2_"
       id="radialGradient5147"
       gradientUnits="userSpaceOnUse"
       gradientTransform="matrix(1.0933314,0.01388452,-0.01387516,1.0925926,-20.334076,-27.258059)"
       cx="255.99385"
       cy="256"
       fx="255.99385"
       fy="256"
       r="216" />
    <radialGradient
       inkscape:collect="always"
       xlink:href="#circle53_2_"
       id="radialGradient5180"
       gradientUnits="userSpaceOnUse"
       gradientTransform="matrix(1.0933314,0.01388452,-0.01387516,1.0925926,-20.334076,-27.258059)"
       cx="255.99385"
       cy="256"
       fx="255.99385"
       fy="256"
       r="216" />
  </defs>
  <metadata
     id="metadata7">
    <rdf:RDF>
      <cc:Work
         rdf:about="">
        <dc:format>image/svg+xml</dc:format>
        <dc:type
           rdf:resource="http://purl.org/dc/dcmitype/StillImage" />
        <dc:title></dc:title>
      </cc:Work>
    </rdf:RDF>
  </metadata>
  <g
     transform="translate(0,-540.36218)"
     inkscape:label="Livello 1"
     inkscape:groupmode="layer"
     id="layer1" />
  <rect
     ry="98.333336"
     y="19.999998"
     x="19.999996"
     height="472"
     width="472"
     id="rect3830"
     style="color:#000000;fill:#4ea6de;fill-opacity:1;fill-rule:nonzero;stroke:none;stroke-width:1.50000000000000000;marker:none;visibility:visible;display:inline;overflow:visible;enable-background:accumulate" />
  <g
     id="g27124"
     transform="matrix(1.0925926,0,0,1.0925926,-23.703704,-23.703706)" />
  <path
     inkscape:connector-curvature="0"
     style="opacity:0.85;fill:#000000;fill-opacity:0.39215686;display:inline"
     d="m 334.46181,119.42592 c -1.75424,0.0635 -3.0771,0.31647 -3.72165,0.78531 -1.05394,0.76663 -3.84484,4.88712 -6.21412,9.15046 -2.36984,4.26304 -9.70592,17.28993 -16.3206,28.9537 -14.11101,24.88181 -14.27636,25.23154 -12.56481,28.88542 0.65258,1.39288 2.82128,3.97384 5.8044,7.13599 0.0109,0.0111 0.0237,0.0232 0.0341,0.0341 0.29067,0.31287 0.61341,0.63117 0.92188,0.95602 0.61639,0.64037 1.20581,1.2718 1.87789,1.94618 8.73269,8.76049 24.99306,24.95891 24.99306,24.95891 0.27736,1.11047 0.26403,2.58842 0.20486,3.65336 -0.22291,3.75487 -9.9678,21.29616 -19.05208,34.31424 -17.51175,25.09554 -39.80446,44.81125 -68.01389,60.12673 -11.22417,6.09303 -14.3969,7.10673 -20.58855,1.74132 -0.36315,-0.3147 -0.77484,-0.66545 -1.16087,-1.0243 -2.2749,-2.2344 -4.47264,-4.49342 -6.897,-6.79456 -0.11708,-0.10915 -0.22401,-0.23291 -0.34143,-0.34144 -8.29807,-7.73943 -17.49268,-13.83011 -21.5787,-14.06713 -2.82949,-0.16424 -51.81005,16.15672 -63.64352,21.20313 -7.40828,3.15986 -8.32076,5.37441 -8.67246,20.48611 -0.27643,11.87847 -0.0294,13.77954 2.42419,18.53993 1.68685,3.27271 4.00667,6.42486 6.82871,9.42361 0.0109,0.0116 0.0234,0.0227 0.0341,0.0341 0.0109,0.0118 0.0234,0.0225 0.0341,0.0341 1.59168,1.66621 3.1037,3.13737 4.67767,4.74595 0,0 54.64029,54.55693 117.82928,117.69271 L 393.66667,492 C 448.14334,492 492,448.14333 492,393.66667 L 492,252.41493 372.1904,132.53704 c -2.39191,-2.3879 -5.31168,-5.08108 -7.9213,-6.62385 -6.2702,-3.57215 -22.20562,-6.76228 -29.80729,-6.48727 z"
     id="path3837" />
  <path
     d="m 391.69474,198.55609 c -1.2957,5.90245 -10.09389,31.69219 -14.28228,41.85734 -5.81811,14.12095 -18.9501,36.72215 -28.50334,49.05684 -11.41657,14.74039 -22.1073,25.53981 -42.62154,43.05493 -31.49114,26.88735 -62.51217,45.0023 -94.25284,55.03981 -14.62903,4.62593 -20.37947,5.48146 -32.29483,4.8044 -23.79609,-1.34452 -49.14822,-15.52132 -57.7974,-32.30195 -2.45356,-4.7604 -2.70377,-6.67266 -2.42733,-18.55113 0.3517,-15.11171 1.29103,-17.32011 8.69931,-20.47997 11.83348,-5.04642 60.80261,-21.35075 63.6321,-21.18651 4.66974,0.27087 16.00943,8.17236 25.06083,17.46201 10.04872,10.31295 11.69335,10.50676 25.50771,3.00766 28.20943,-15.31549 50.50943,-35.0254 68.02118,-60.12094 9.08428,-13.01808 18.81216,-30.54959 19.03507,-34.30446 0.31697,-5.33424 -1.12691,-7.45632 -10.1107,-14.8716 -10.55791,-8.71412 -22.03304,-20.24671 -23.71211,-23.83053 -1.71155,-3.65388 -1.56758,-3.98484 12.54343,-28.86664 6.61468,-11.66378 13.96515,-24.69499 16.33499,-28.95803 2.36928,-4.26334 5.17014,-8.37849 6.22409,-9.14512 3.43757,-2.50045 25.80562,1.29899 33.52279,5.69548 7.83138,4.46068 18.67458,18.61544 22.99205,30.01398 4.49687,11.87205 6.64279,32.52746 4.42876,42.625 z"
     inkscape:connector-curvature="0"
     id="path4609"
     style="fill:#ffffff;fill-opacity:1;display:inline" />
  <path
     style="color:#000000;fill:#000000;fill-opacity:1;fill-rule:nonzero;stroke:none;stroke-width:1.50000000000000000;marker:none;visibility:visible;display:inline;overflow:visible;enable-background:accumulate;opacity:0.2"
     d="M 446.625 35.375 C 456.36487 50.642707 462 68.815881 462 88.34375 L 462 363.65625 C 462 418.13292 418.13292 462 363.65625 462 L 88.34375 462 C 68.815881 462 50.642707 456.36487 35.375 446.625 C 52.80634 473.94944 83.394951 492 118.34375 492 L 393.65625 492 C 448.13292 492 492 448.13292 492 393.65625 L 492 118.34375 C 492 83.394951 473.94944 52.80634 446.625 35.375 z "
     id="rect3081" />
</svg>
