<?xml version="1.0" encoding="UTF-8" standalone="no"?>
<!-- Created with Inkscape (http://www.inkscape.org/) -->

<svg
   xmlns:dc="http://purl.org/dc/elements/1.1/"
   xmlns:cc="http://creativecommons.org/ns#"
   xmlns:rdf="http://www.w3.org/1999/02/22-rdf-syntax-ns#"
   xmlns:svg="http://www.w3.org/2000/svg"
   xmlns="http://www.w3.org/2000/svg"
   xmlns:sodipodi="http://sodipodi.sourceforge.net/DTD/sodipodi-0.dtd"
   xmlns:inkscape="http://www.inkscape.org/namespaces/inkscape"
   id="svg7384"
   height="22"
   width="22"
   version="1.1"
   inkscape:version="0.91+devel r"
   sodipodi:docname="actions-warning.svg">
  <defs
     id="defs11">
    <linearGradient
       id="linearGradient3758">
      <stop
         id="stop3760"
         style="stop-color:#c00000;stop-opacity:1"
         offset="0" />
      <stop
         id="stop3762"
         style="stop-color:#ff7e7e;stop-opacity:1"
         offset="1" />
    </linearGradient>
  </defs>
  <sodipodi:namedview
     pagecolor="#ffffff"
     bordercolor="#666666"
     borderopacity="1"
     objecttolerance="10"
     gridtolerance="10"
     guidetolerance="10"
     inkscape:pageopacity="0"
     inkscape:pageshadow="2"
     inkscape:window-width="1855"
     inkscape:window-height="1056"
     id="namedview9"
     showgrid="false"
     inkscape:zoom="29.625"
     inkscape:cx="13.700422"
     inkscape:cy="11"
     inkscape:window-x="65"
     inkscape:window-y="24"
     inkscape:window-maximized="1"
     inkscape:current-layer="svg7384" />
  <metadata
     id="metadata90">
    <rdf:RDF>
      <cc:Work
         rdf:about="">
        <dc:format>image/svg+xml</dc:format>
        <dc:type
           rdf:resource="http://purl.org/dc/dcmitype/StillImage" />
        <dc:title>Gnome Symbolic Icon Theme</dc:title>
      </cc:Work>
    </rdf:RDF>
  </metadata>
  <title
     id="title9167">Gnome Symbolic Icon Theme</title>
  <g
     id="g4181"
     transform="matrix(0.03813559,0,0,0.03813559,-6.3407707,2.9419292)">
    <path
       style="color:#000000;text-decoration:none;text-decoration-line:none;text-decoration-style:solid;text-decoration-color:#000000;white-space:normal;clip-rule:nonzero;display:inline;overflow:visible;visibility:visible;opacity:0.9;isolation:auto;mix-blend-mode:normal;color-interpolation:sRGB;color-interpolation-filters:linearRGB;solid-color:#000000;solid-opacity:1;fill:#f4d633;fill-opacity:1;fill-rule:nonzero;stroke:none;stroke-width:26.22222444;stroke-linecap:butt;stroke-linejoin:miter;stroke-miterlimit:4;stroke-dasharray:none;stroke-dashoffset:0;stroke-opacity:1;marker:none;color-rendering:auto;image-rendering:auto;shape-rendering:auto;text-rendering:auto;enable-background:accumulate;filter-blend-mode:normal;filter-gaussianBlur-deviation:0"
       d="m 317.0469,-24.699469 c -54.47666,0 -98.33334,43.856675 -98.33334,98.33334 l 0,23.04688 0,252.286469 c 0,54.47667 43.85668,98.33334 98.33334,98.33334 l 275.33335,0 c 54.47667,0 98.33334,-43.85667 98.33334,-98.33334 l 0,-252.286469 0,-23.04688 c 0,-54.476665 -43.85667,-98.33334 -98.33334,-98.33334 l -275.33335,0 z m 107.65452,72.418409 60.02431,0 0,91.41928 c -2.94,44.06343 -15.00608,91.4478 -15.00608,125.73351 l -30.01215,0 c 0,-34.28571 -14.76878,-89.05077 -15.00608,-125.73351 l 0,-91.41928 z m 30.01216,267.13891 A 29.999992,29.999992 0 0 1 484.72573,344.87 29.999992,29.999992 0 0 1 454.71358,374.88215 29.999992,29.999992 0 0 1 424.70142,344.87 29.999992,29.999992 0 0 1 454.71358,314.85785 Z"
       id="rect5505"
       inkscape:connector-curvature="0" />
  </g>
</svg>
