<?xml version="1.0" encoding="UTF-8" standalone="no"?>
<svg
   xmlns:dc="http://purl.org/dc/elements/1.1/"
   xmlns:cc="http://creativecommons.org/ns#"
   xmlns:rdf="http://www.w3.org/1999/02/22-rdf-syntax-ns#"
   xmlns:svg="http://www.w3.org/2000/svg"
   xmlns="http://www.w3.org/2000/svg"
   xmlns:xlink="http://www.w3.org/1999/xlink"
   xmlns:sodipodi="http://sodipodi.sourceforge.net/DTD/sodipodi-0.dtd"
   xmlns:inkscape="http://www.inkscape.org/namespaces/inkscape"
   viewBox="0 0 22 22"
   id="svg3007"
   version="1.1"
   inkscape:version="0.91pre2 r"
   width="100%"
   height="100%"
   sodipodi:docname="actions-redo.svg">
  <metadata
     id="metadata3037">
    <rdf:RDF>
      <cc:Work
         rdf:about="">
        <dc:format>image/svg+xml</dc:format>
        <dc:type
           rdf:resource="http://purl.org/dc/dcmitype/StillImage" />
        <dc:title></dc:title>
      </cc:Work>
    </rdf:RDF>
  </metadata>
  <defs
     id="defs3035">
    <linearGradient
       id="linearGradient4008-4-7">
      <stop
         id="stop4010-2-0"
         style="stop-color:#dab980;stop-opacity:1"
         offset="0" />
      <stop
         id="stop4012-5-1"
         style="stop-color:#c29856;stop-opacity:1"
         offset="0.71691591" />
      <stop
         id="stop4014-6-6"
         style="stop-color:#a2773a;stop-opacity:1"
         offset="1" />
    </linearGradient>
    <linearGradient
       inkscape:collect="always"
       xlink:href="#linearGradient3187-7-5"
       id="linearGradient3756"
       gradientUnits="userSpaceOnUse"
       gradientTransform="matrix(5.6190474,0,0,4.9043651,-170.71372,8.7516906)"
       x1="48"
       y1="78"
       x2="48"
       y2="5.9877172" />
    <linearGradient
       id="linearGradient3187-7-5">
      <stop
         id="stop3189-4-5"
         style="stop-color:#c29656;stop-opacity:1"
         offset="0" />
      <stop
         id="stop3191-1-8"
         style="stop-color:#ddc08b;stop-opacity:1"
         offset="1" />
    </linearGradient>
    <linearGradient
       inkscape:collect="always"
       xlink:href="#linearGradient4008-4-7"
       id="linearGradient3822"
       gradientUnits="userSpaceOnUse"
       gradientTransform="matrix(4.4715789,0,0,4.4715789,-908.22105,-66.542998)"
       x1="34.85965"
       y1="16.275133"
       x2="34.994316"
       y2="28.905609" />
    <linearGradient
       inkscape:collect="always"
       xlink:href="#linearGradient3187-7-5"
       id="linearGradient3824"
       gradientUnits="userSpaceOnUse"
       gradientTransform="matrix(5.6190474,0,0,4.9043651,-891.75432,21.86152)"
       x1="48"
       y1="78"
       x2="48"
       y2="5.9877172" />
  </defs>
  <sodipodi:namedview
     pagecolor="#ffffff"
     bordercolor="#666666"
     borderopacity="1"
     objecttolerance="10"
     gridtolerance="10"
     guidetolerance="10"
     inkscape:pageopacity="0"
     inkscape:pageshadow="2"
     inkscape:window-width="1855"
     inkscape:window-height="1056"
     id="namedview3033"
     showgrid="false"
     inkscape:zoom="12.001175"
     inkscape:cx="-15.224759"
     inkscape:cy="11"
     inkscape:window-x="65"
     inkscape:window-y="24"
     inkscape:window-maximized="1"
     inkscape:current-layer="svg3007" />
  <path
     style="color:#000000;text-decoration:none;text-decoration-line:none;text-decoration-style:solid;text-decoration-color:#000000;clip-rule:nonzero;display:inline;overflow:visible;visibility:visible;opacity:0.9;isolation:auto;mix-blend-mode:normal;color-interpolation:sRGB;color-interpolation-filters:linearRGB;solid-color:#000000;solid-opacity:1;fill:#ffffff;fill-opacity:0.88235294;fill-rule:nonzero;stroke:none;stroke-width:0.21176472;stroke-linecap:butt;stroke-linejoin:miter;stroke-miterlimit:4;stroke-dasharray:none;stroke-dashoffset:0;stroke-opacity:1;marker:none;color-rendering:auto;image-rendering:auto;shape-rendering:auto;text-rendering:auto;enable-background:accumulate"
     d="m 8.735594,19.938237 c 0.39986,-0.14262 0.74019,-0.50421 0.84731,-0.90021 0.0717,-0.26517 0.0275,-0.77617 -0.0863,-0.99829 -0.14669,-0.28616 -0.30921,-0.45546 -0.75056,-0.7819 -0.82669,-0.61147 -1.31412,-1.1507 -1.63146,-1.80484 -0.23266,-0.47958 -0.30102,-0.79028 -0.27454,-1.24778 0.0298,-0.51517 0.26598,-1.00009 0.69292,-1.42285 0.41722,-0.41314 1.23909,-0.82718 1.97688,-0.99593 0.62002,-0.14181 1.31112,-0.19304 1.5074,-0.11173 0.26356,0.10916 0.2708,0.15783 0.2708,1.81914 0,1.07344 0.0155,1.54223 0.0538,1.62625 0.10197,0.2238 0.4151,0.30881 0.66379,0.18021 0.16573,-0.0857 6.925881,-6.2785103 7.059221,-6.4667803 0.11676,-0.16486 0.12932,-0.35006 0.036,-0.53055 -0.0626,-0.1211 -6.901671,-6.13494 -7.105801,-6.24841 -0.22201,-0.12341 -0.55498,-0.0276 -0.6532,0.18798 -0.038,0.0834 -0.0538,0.52752 -0.0538,1.5137 0,1.52598 -0.0117,1.60313 -0.25673,1.69669 -0.0692,0.0264 -0.29811,0.0609 -0.50857,0.0765 -0.86112,0.064 -2.13666,0.40286 -2.94882,0.78345 -0.86862,0.40705 -1.65249,0.95592 -2.37921,1.66594 -1.39135,1.35936 -2.13401,2.8332603 -2.32744,4.6190203 -0.121,1.1172 0.13061,2.49185 0.64216,3.50841 0.38243,0.75995 1.19594,1.7662 1.91033,2.36291 0.45377,0.37903 1.28377,0.95918 1.72666,1.20689 0.52695,0.29474 1.19087,0.40427 1.58921,0.26218 z"
     id="path4261"
     inkscape:connector-curvature="0" />
</svg>
