<?xml version="1.0" encoding="UTF-8" standalone="no"?>
<svg
   xmlns:dc="http://purl.org/dc/elements/1.1/"
   xmlns:cc="http://creativecommons.org/ns#"
   xmlns:rdf="http://www.w3.org/1999/02/22-rdf-syntax-ns#"
   xmlns:svg="http://www.w3.org/2000/svg"
   xmlns="http://www.w3.org/2000/svg"
   xmlns:xlink="http://www.w3.org/1999/xlink"
   xmlns:sodipodi="http://sodipodi.sourceforge.net/DTD/sodipodi-0.dtd"
   xmlns:inkscape="http://www.inkscape.org/namespaces/inkscape"
   viewBox="0 0 22 22"
   id="svg3007"
   version="1.1"
   inkscape:version="0.91pre2 r"
   width="100%"
   height="100%"
   sodipodi:docname="actions-cut.svg">
  <metadata
     id="metadata3037">
    <rdf:RDF>
      <cc:Work
         rdf:about="">
        <dc:format>image/svg+xml</dc:format>
        <dc:type
           rdf:resource="http://purl.org/dc/dcmitype/StillImage" />
        <dc:title></dc:title>
      </cc:Work>
    </rdf:RDF>
  </metadata>
  <defs
     id="defs3035">
    <linearGradient
       id="linearGradient4008-4-7">
      <stop
         id="stop4010-2-0"
         style="stop-color:#dab980;stop-opacity:1"
         offset="0" />
      <stop
         id="stop4012-5-1"
         style="stop-color:#c29856;stop-opacity:1"
         offset="0.71691591" />
      <stop
         id="stop4014-6-6"
         style="stop-color:#a2773a;stop-opacity:1"
         offset="1" />
    </linearGradient>
    <linearGradient
       inkscape:collect="always"
       xlink:href="#linearGradient3187-7-5"
       id="linearGradient3756"
       gradientUnits="userSpaceOnUse"
       gradientTransform="matrix(5.6190474,0,0,4.9043651,-170.71372,8.7516906)"
       x1="48"
       y1="78"
       x2="48"
       y2="5.9877172" />
    <linearGradient
       id="linearGradient3187-7-5">
      <stop
         id="stop3189-4-5"
         style="stop-color:#c29656;stop-opacity:1"
         offset="0" />
      <stop
         id="stop3191-1-8"
         style="stop-color:#ddc08b;stop-opacity:1"
         offset="1" />
    </linearGradient>
    <linearGradient
       inkscape:collect="always"
       xlink:href="#linearGradient4008-4-7"
       id="linearGradient3822"
       gradientUnits="userSpaceOnUse"
       gradientTransform="matrix(4.4715789,0,0,4.4715789,-908.22105,-66.542998)"
       x1="34.85965"
       y1="16.275133"
       x2="34.994316"
       y2="28.905609" />
    <linearGradient
       inkscape:collect="always"
       xlink:href="#linearGradient3187-7-5"
       id="linearGradient3824"
       gradientUnits="userSpaceOnUse"
       gradientTransform="matrix(5.6190474,0,0,4.9043651,-891.75432,21.86152)"
       x1="48"
       y1="78"
       x2="48"
       y2="5.9877172" />
  </defs>
  <sodipodi:namedview
     pagecolor="#ffffff"
     bordercolor="#666666"
     borderopacity="1"
     objecttolerance="10"
     gridtolerance="10"
     guidetolerance="10"
     inkscape:pageopacity="0"
     inkscape:pageshadow="2"
     inkscape:window-width="1855"
     inkscape:window-height="1056"
     id="namedview3033"
     showgrid="false"
     inkscape:zoom="12.001175"
     inkscape:cx="9.0228668"
     inkscape:cy="11"
     inkscape:window-x="65"
     inkscape:window-y="24"
     inkscape:window-maximized="1"
     inkscape:current-layer="svg3007" />
  <path
     id="path3186"
     sodipodi:nodetypes="cccccccccccccsssccsczcccccccczsccccssccsccccccsssccscc"
     inkscape:connector-curvature="0"
     d="m 4.4370223,4.5710971 c -0.99029,-0.008 -2.007009,0.42646 -2.304639,1.238379 -0.44235,0.97963 0.267529,2.1241 1.479718,2.47681 0.0039,10e-4 0.0095,-10e-4 0.01306,0 1.321873,0.47781 2.967148,0.71108 4.399788,2.1934499 l 0.53686,0.55625 -0.48449,0.493281 c -1.43685,1.47983 -3.076526,1.70745 -4.399784,2.18291 -0.0029,10e-4 -0.0097,-0.001 -0.01306,0 -1.208877,0.34928 -1.909967,1.48821 -1.479718,2.46634 0.0015,0.003 -0.0015,0.007 0,0.0105 0.367763,0.98975 1.812143,1.42801 2.972439,1.16499 0.0039,-8.4e-4 0.0092,7.2e-4 0.01306,0 1.188413,-0.20714 2.161423,-1.17414 1.885653,-2.15149 -0.13606,-0.4822 -0.31015,-0.70608 -0.47143,-0.83955 -0.0806,-0.0667 -0.15098,-0.10842 -0.19643,-0.14694 -0.0455,-0.0385 -0.23671,-0.14569 -0.23671,-0.14569 0.11835,-0.0861 0.18746,-0.12684 0.28908,-0.19011 0.15177,-0.0989 0.41695,-0.22045 0.75948,-0.36734 0.67906,-0.29119 1.67917,-0.7023 2.8284397,-1.36431 2.07871,1.1816 4.77953,2.71183 6.27237,3.55776 1.49278,0.84593 3.02072,0.41929 3.65342,0.0314 l -8.00577,-4.699221 8.05164,-4.7449699 c -1.24795,-0.769659 -2.6721,-0.44374 -3.62073,0.0197 -2.10899,1.19618 -4.22472,2.38657 -6.3378,3.57872 -0.9635597,-0.52669 -1.9974997,-1.00956 -2.8938797,-1.3958 -0.34284,-0.14773 -0.60742,-0.26795 -0.75948,-0.36734 -0.076,-0.0497 -0.26843,-0.15743 -0.26843,-0.15743 0.17584,-0.10252 0.36222,-0.29142 0.49761,-0.43554 0.13539,-0.14412 0.29474,-0.35759 0.3863,-0.72939 0.24213,-0.98312 -0.69766,-1.952649 -1.885644,-2.161959 -0.229543,-0.0508 -0.477627,-0.0583 -0.680923,-0.0734 l 0,0 z m -0.130935,0.82914 c 0.442049,-0.0208 0.898245,0.10011 1.1916,0.335859 0.439521,0.35313 0.523262,0.83948 0.353555,1.23837 -0.169704,0.39883 -0.576536,0.69369 -1.152349,0.69266 l -0.01306,0 c -0.527774,0.0244 -1.042485,-0.21937 -1.348722,-0.5772 -0.306238,-0.35782 -0.393528,-0.80294 -0.09162,-1.18594 l 0,-0.0105 c 0.208532,-0.31774 0.618916,-0.472569 1.060604,-0.493279 l 0,0 z m 0.340491,8.9310999 c 0.03913,-7.2e-4 0.07953,-10e-4 0.104749,0 0.575934,0 0.983608,0.29396 1.152349,0.69266 0.168743,0.39877 0.08699,0.88609 -0.353555,1.23844 -0.293716,0.2349 -0.762494,0.3671 -1.204723,0.34627 -0.44223,-0.0207 -0.839851,-0.18554 -1.047602,-0.5037 l -0.01306,-0.0105 c -0.291308,-0.37144 -0.206727,-0.79151 0.07856,-1.14398 0.285288,-0.35247 0.774594,-0.61182 1.283284,-0.61922 l 0,0 z"
     style="color:#000000;text-decoration:none;text-decoration-line:none;text-decoration-style:solid;text-decoration-color:#000000;clip-rule:nonzero;display:inline;overflow:visible;visibility:visible;opacity:1;isolation:auto;color-interpolation:sRGB;color-interpolation-filters:linearRGB;fill:#ffffff;fill-opacity:1;fill-rule:nonzero;stroke:none;stroke-width:1;stroke-linecap:butt;stroke-linejoin:miter;stroke-miterlimit:4;stroke-dasharray:none;stroke-dashoffset:0;stroke-opacity:1;marker:none;color-rendering:auto;image-rendering:auto;shape-rendering:auto;text-rendering:auto;enable-background:accumulate" />
</svg>
