<?xml version="1.0" encoding="UTF-8" standalone="no"?>
<!-- Created with Inkscape (http://www.inkscape.org/) -->

<svg
   xmlns:dc="http://purl.org/dc/elements/1.1/"
   xmlns:cc="http://creativecommons.org/ns#"
   xmlns:rdf="http://www.w3.org/1999/02/22-rdf-syntax-ns#"
   xmlns:svg="http://www.w3.org/2000/svg"
   xmlns="http://www.w3.org/2000/svg"
   xmlns:sodipodi="http://sodipodi.sourceforge.net/DTD/sodipodi-0.dtd"
   xmlns:inkscape="http://www.inkscape.org/namespaces/inkscape"
   id="svg7384"
   height="22"
   width="22"
   version="1.1"
   inkscape:version="0.48.4 r9939"
   sodipodi:docname="battery-low.svg">
  <defs
     id="defs10" />
  <sodipodi:namedview
     pagecolor="#ffffff"
     bordercolor="#666666"
     borderopacity="1"
     objecttolerance="10"
     gridtolerance="10"
     guidetolerance="10"
     inkscape:pageopacity="0"
     inkscape:pageshadow="2"
     inkscape:window-width="983"
     inkscape:window-height="715"
     id="namedview8"
     showgrid="false"
     inkscape:zoom="11.313709"
     inkscape:cx="11.538644"
     inkscape:cy="7.3958334"
     inkscape:window-x="66"
     inkscape:window-y="24"
     inkscape:window-maximized="0"
     inkscape:current-layer="svg7384" />
  <metadata
     id="metadata90">
    <rdf:RDF>
      <cc:Work
         rdf:about="">
        <dc:format>image/svg+xml</dc:format>
        <dc:type
           rdf:resource="http://purl.org/dc/dcmitype/StillImage" />
        <dc:title>Gnome Symbolic Icon Theme</dc:title>
      </cc:Work>
    </rdf:RDF>
  </metadata>
  <title
     id="title9167">Gnome Symbolic Icon Theme</title>
  <path
     style="color:#000000;fill:#ffffff;fill-opacity:1;fill-rule:nonzero;stroke:none;stroke-width:1.50000000000000000;marker:none;visibility:visible;display:inline;overflow:visible;enable-background:accumulate;opacity:0.9"
     d="m 11,2.0000003 c -4.970564,0 -9,4.02944 -9,8.9999997 0,4.97056 4.029436,9 9,9 4.970564,0 9,-4.02944 9,-9 0,-4.9705597 -4.029436,-8.9999997 -9,-8.9999997 z m 0.417613,4.90909 c 2.037035,0.0723 3.242123,1.36392 3.375,3.2471597 0.149787,2.12292 -0.51562,2.67568 -0.230112,3.10227 0.596197,0.89082 -0.249168,1.12439 -0.809659,1.55966 -0.348621,0.27073 -1.021296,0.14666 -1.355115,-0.23863 -1.014363,-0.55007 -0.623834,0.50676 -2.7187499,0.51136 C 8.5899481,15.04911 7.591688,14.31177 7.309659,13.31818 6.877136,11.79442 7.511965,10.66995 9.2784091,10.13921 9.7893391,9.9856903 10.801382,10.07841 11.247159,9.7727303 11.668168,9.4840603 11.516974,9.0682903 11,9.0142103 c -0.741444,-0.0776 -1.8982359,0.23808 -2.5823869,0.11079 -0.549171,-0.10218 -0.716324,-1.08557 -0.357953,-1.50852 0.586461,-0.69216 2.0904819,-0.66198 2.9403399,-0.69887 0.143119,-0.006 0.281812,-0.0133 0.417613,-0.009 z M 11.144886,11.46023 c -0.47182,0 -0.860796,0.33039 -0.860796,0.74147 0,0.41109 0.388976,0.75001 0.860796,0.75001 0.471821,0 0.84375,-0.33892 0.84375,-0.75001 0,-0.41108 -0.371929,-0.74147 -0.84375,-0.74147 z"
     id="path4069"
     inkscape:connector-curvature="0" />
</svg>
