<?xml version="1.0" encoding="UTF-8" standalone="no"?>
<!-- Created with Inkscape (http://www.inkscape.org/) -->

<svg
   xmlns:dc="http://purl.org/dc/elements/1.1/"
   xmlns:cc="http://creativecommons.org/ns#"
   xmlns:rdf="http://www.w3.org/1999/02/22-rdf-syntax-ns#"
   xmlns:svg="http://www.w3.org/2000/svg"
   xmlns="http://www.w3.org/2000/svg"
   xmlns:sodipodi="http://sodipodi.sourceforge.net/DTD/sodipodi-0.dtd"
   xmlns:inkscape="http://www.inkscape.org/namespaces/inkscape"
   id="svg7384"
   height="22"
   width="22"
   version="1.1"
   inkscape:version="0.48.3.1 r9886"
   sodipodi:docname="battery-low-charging.svg">
  <defs
     id="defs10" />
  <sodipodi:namedview
     pagecolor="#ffffff"
     bordercolor="#666666"
     borderopacity="1"
     objecttolerance="10"
     gridtolerance="10"
     guidetolerance="10"
     inkscape:pageopacity="0"
     inkscape:pageshadow="2"
     inkscape:window-width="983"
     inkscape:window-height="718"
     id="namedview8"
     showgrid="false"
     inkscape:zoom="11.313709"
     inkscape:cx="21.305556"
     inkscape:cy="7.3958334"
     inkscape:window-x="66"
     inkscape:window-y="24"
     inkscape:window-maximized="0"
     inkscape:current-layer="svg7384" />
  <metadata
     id="metadata90">
    <rdf:RDF>
      <cc:Work
         rdf:about="">
        <dc:format>image/svg+xml</dc:format>
        <dc:type
           rdf:resource="http://purl.org/dc/dcmitype/StillImage" />
        <dc:title>Gnome Symbolic Icon Theme</dc:title>
      </cc:Work>
    </rdf:RDF>
  </metadata>
  <title
     id="title9167">Gnome Symbolic Icon Theme</title>
  <g
     id="g2984"
     transform="matrix(1.3333334,0,0,1.3333334,0.33333337,-10.333341)">
    <path
       style="opacity:0.2;fill:#ffffff;fill-opacity:1;stroke:none"
       d="M 12,2 C 6.4771524,2 2,6.4771249 2,12 c 0,0.924808 0.1400358,1.806198 0.375,2.65625 0.3699832,-0.152157 0.7802063,-0.240833 1.25,-0.25 1.6158925,-0.0318 3.8488224,0.737028 6.84375,2.0625 0.401662,0.177763 0.773996,0.335167 1.15625,0.46875 l 0,1.3125 0.65625,-1.125 c 4.119608,1.21868 7.050966,-0.01029 8.875,-1.1875 C 21.681572,14.727107 22,13.399801 22,12 22,6.4771249 17.522848,2 12,2 z"
       transform="matrix(0.59999999,0,0,0.59999999,0.79999996,8.8000018)"
       id="path4190"
       inkscape:connector-curvature="0" />
    <path
       style="color:#000000;fill:#ef2929;fill-opacity:1;fill-rule:nonzero;stroke:none;stroke-width:0.89999998;marker:none;visibility:visible;display:inline;overflow:visible;enable-background:accumulate"
       d="m 7.8520509,12.250005 0,2.81175 2.6791991,0 -2.7524415,4.68825 0,-3.1245 -2.3100585,0 2.3833009,-4.374037 z"
       id="path3230"
       inkscape:connector-curvature="0" />
    <path
       id="path4073"
       d="m 2.9711915,17.438482 c -0.2818762,0.0055 -0.5309399,0.05519 -0.7529298,0.146484 C 2.9142665,20.128293 5.2358495,22.000005 8,22.000005 c 2.479699,0 4.600212,-1.507783 5.51294,-3.654053 -1.092939,0.710187 -2.855951,1.473284 -5.3430181,0.737549 l -0.3911134,0.666504 0,-0.793213 C 7.5494559,18.876642 7.3159483,18.787327 7.0749511,18.680669 5.2779946,17.885386 3.940727,17.419405 2.9711915,17.438482 z"
       style="opacity:0.9;fill:#ffffff;fill-opacity:1;stroke:none"
       inkscape:connector-curvature="0" />
  </g>
</svg>
