<?xml version="1.0" encoding="UTF-8" standalone="no"?>
<!-- Created with Inkscape (http://www.inkscape.org/) -->

<svg
   xmlns:dc="http://purl.org/dc/elements/1.1/"
   xmlns:cc="http://creativecommons.org/ns#"
   xmlns:rdf="http://www.w3.org/1999/02/22-rdf-syntax-ns#"
   xmlns:svg="http://www.w3.org/2000/svg"
   xmlns="http://www.w3.org/2000/svg"
   xmlns:sodipodi="http://sodipodi.sourceforge.net/DTD/sodipodi-0.dtd"
   xmlns:inkscape="http://www.inkscape.org/namespaces/inkscape"
   id="svg7384"
   height="22"
   width="22"
   version="1.1"
   inkscape:version="0.91pre2 r"
   sodipodi:docname="battery-caution-charging.svg">
  <defs
     id="defs18" />
  <sodipodi:namedview
     pagecolor="#ffffff"
     bordercolor="#666666"
     borderopacity="1"
     objecttolerance="10"
     gridtolerance="10"
     guidetolerance="10"
     inkscape:pageopacity="0"
     inkscape:pageshadow="2"
     inkscape:window-width="1375"
     inkscape:window-height="876"
     id="namedview16"
     showgrid="false"
     inkscape:zoom="27.772727"
     inkscape:cx="1.5662847"
     inkscape:cy="11"
     inkscape:window-x="1985"
     inkscape:window-y="24"
     inkscape:window-maximized="1"
     inkscape:current-layer="svg7384" />
  <metadata
     id="metadata90">
    <rdf:RDF>
      <cc:Work
         rdf:about="">
        <dc:format>image/svg+xml</dc:format>
        <dc:type
           rdf:resource="http://purl.org/dc/dcmitype/StillImage" />
        <dc:title>Gnome Symbolic Icon Theme</dc:title>
      </cc:Work>
    </rdf:RDF>
  </metadata>
  <title
     id="title9167">Gnome Symbolic Icon Theme</title>
  <g
     id="g3240"
     transform="matrix(1.3333331,0,0,1.3333333,0.33333527,0.33333373)">
    <g
       style="fill:#f57900;fill-opacity:1"
       inkscape:label="Capa 1"
       id="g13005"
       transform="matrix(0.1875,0,0,0.1875,14.614908,-183.32995)">
      <g
         transform="matrix(0.52495376,0,0,0.52495376,-127.33203,212.74148)"
         id="g13007"
         style="fill:#f57900;fill-opacity:1" />
    </g>
    <path
       style="opacity:0.2;fill:#ffffff;fill-opacity:1;stroke:none"
       d="m 8.0000012,1.9999998 c -3.3137103,0 -6.0000023,2.686275 -6.0000023,6 0,3.3137252 2.686292,5.9999992 6.0000023,5.9999992 3.3137058,0 5.9999998,-2.686274 5.9999998,-5.9999992 0,-3.313725 -2.686294,-6 -5.9999998,-6 z"
       id="path4302"
       inkscape:connector-curvature="0" />
    <path
       style="color:#000000;fill:#ef2929;fill-opacity:1;fill-rule:nonzero;stroke:none;stroke-width:0.9000001;marker:none;visibility:visible;display:inline;overflow:visible;enable-background:accumulate"
       d="m 7.8520487,4.2499998 0,2.81175 2.6792023,0 -2.7524436,4.6882492 0,-3.1244997 -2.3100581,0 2.3832994,-4.374037 z"
       id="path3230"
       inkscape:connector-curvature="0" />
    <path
       id="path4073"
       d="M 3.5585929,12.023225 C 4.6546349,13.235674 6.2361369,14 8.0000012,14 c 1.4785012,0 2.8268738,-0.53895 3.8701158,-1.426763 -1.144413,-0.20055 -2.6480246,-0.311475 -4.62378,-0.2124 -1.7101361,0.0858 -2.8697551,-0.10425 -3.6877441,-0.337612 z"
       style="fill:#ef2929;fill-opacity:1;stroke:none"
       inkscape:connector-curvature="0" />
  </g>
</svg>
