<?xml version="1.0" encoding="UTF-8" standalone="no"?>
<!-- Created with Inkscape (http://www.inkscape.org/) -->

<svg
   xmlns:dc="http://purl.org/dc/elements/1.1/"
   xmlns:cc="http://creativecommons.org/ns#"
   xmlns:rdf="http://www.w3.org/1999/02/22-rdf-syntax-ns#"
   xmlns:svg="http://www.w3.org/2000/svg"
   xmlns="http://www.w3.org/2000/svg"
   xmlns:sodipodi="http://sodipodi.sourceforge.net/DTD/sodipodi-0.dtd"
   xmlns:inkscape="http://www.inkscape.org/namespaces/inkscape"
   id="svg7384"
   height="22"
   width="22"
   version="1.1"
   inkscape:version="0.48.3.1 r9886"
   sodipodi:docname="battery-missing.svg">
  <defs
     id="defs10">
    <linearGradient
       id="linearGradient3758">
      <stop
         offset="0"
         style="stop-color:#c00000;stop-opacity:1"
         id="stop3760" />
      <stop
         offset="1"
         style="stop-color:#ff7e7e;stop-opacity:1"
         id="stop3762" />
    </linearGradient>
  </defs>
  <sodipodi:namedview
     pagecolor="#ffffff"
     bordercolor="#666666"
     borderopacity="1"
     objecttolerance="10"
     gridtolerance="10"
     guidetolerance="10"
     inkscape:pageopacity="0"
     inkscape:pageshadow="2"
     inkscape:window-width="1301"
     inkscape:window-height="744"
     id="namedview8"
     showgrid="false"
     inkscape:zoom="12.729167"
     inkscape:cx="7.4238953"
     inkscape:cy="12"
     inkscape:window-x="65"
     inkscape:window-y="24"
     inkscape:window-maximized="1"
     inkscape:current-layer="svg7384" />
  <metadata
     id="metadata90">
    <rdf:RDF>
      <cc:Work
         rdf:about="">
        <dc:format>image/svg+xml</dc:format>
        <dc:type
           rdf:resource="http://purl.org/dc/dcmitype/StillImage" />
        <dc:title>Gnome Symbolic Icon Theme</dc:title>
      </cc:Work>
    </rdf:RDF>
  </metadata>
  <title
     id="title9167">Gnome Symbolic Icon Theme</title>
  <path
     sodipodi:type="arc"
     style="opacity:0.4;fill:#ffffff;fill-opacity:1;stroke:none"
     id="path3230-3"
     sodipodi:cx="22.015171"
     sodipodi:cy="26.160952"
     sodipodi:rx="17.788258"
     sodipodi:ry="17.788258"
     d="m 39.803429,26.160952 a 17.788258,17.788258 0 1 1 -35.5765155,0 17.788258,17.788258 0 1 1 35.5765155,0 z"
     transform="matrix(0.44973489,0,0,0.44973489,1.0990095,-0.7654926)" />
  <path
     inkscape:connector-curvature="0"
     id="path3567"
     d="M 10.793174,6.0005935 C 10.412725,6.0002498 10.032151,6.049966 9.6448328,6.1490222 9.1227137,6.2824518 8.403513,6.5465299 8.3906419,6.6100261 8.3828219,6.6493981 8.9173886,8.105281 8.9463591,8.12328 8.9579231,8.12948 9.0950062,8.07297 9.2506844,7.9957876 9.6610257,7.7920498 9.8679919,7.7351781 10.201947,7.7339282 c 0.211175,-7.501e-4 0.304888,0.00937 0.445689,0.048748 0.35601,0.099682 0.414957,0.1371794 0.568251,0.3614168 0.09099,0.133117 0.15599,0.298107 0.15599,0.396257 0,0.296545 -0.382308,1.018721 -0.804327,1.519504 -0.431324,0.511813 -0.7200478,1.079717 -0.8126825,1.598904 -0.047964,0.268735 -0.08256,0.888261 -0.052933,0.9436 0.022187,0.04156 0.055369,0.0425 1.0299535,0.03687 l 1.007672,-0.0062 0.0021,-0.345417 c 0.0017,-0.281546 0.01093,-0.377446 0.05015,-0.518782 0.113463,-0.4081 0.424356,-0.891915 0.889979,-1.38373 0.376877,-0.39807 0.703389,-0.986598 0.866305,-1.564094 0.05712,-0.202489 0.0618,-0.252798 0.06128,-0.589122 C 13.608751,7.8389844 13.582803,7.6941179 13.455467,7.3808554 13.224074,6.8113579 12.726366,6.3761025 12.096122,6.1928009 11.655382,6.0646835 11.224358,6.0003123 10.793184,5.9999998 z m -0.07103,7.3252835 c -0.7384373,0 -1.3370613,0.598622 -1.3370613,1.337078 0,0.738425 0.598624,1.337045 1.3370613,1.337045 0.73844,0 1.337061,-0.59862 1.337061,-1.337045 0,-0.738456 -0.598621,-1.337078 -1.337061,-1.337078 z"
     style="color:#000000;fill:#ef2929;fill-opacity:1;fill-rule:nonzero;stroke:none;stroke-width:1.5;marker:none;visibility:visible;display:inline;overflow:visible;enable-background:accumulate" />
</svg>
