<?xml version="1.0" encoding="UTF-8" standalone="no"?>
<!-- Created with Inkscape (http://www.inkscape.org/) -->

<svg
   xmlns:dc="http://purl.org/dc/elements/1.1/"
   xmlns:cc="http://creativecommons.org/ns#"
   xmlns:rdf="http://www.w3.org/1999/02/22-rdf-syntax-ns#"
   xmlns:svg="http://www.w3.org/2000/svg"
   xmlns="http://www.w3.org/2000/svg"
   xmlns:sodipodi="http://sodipodi.sourceforge.net/DTD/sodipodi-0.dtd"
   xmlns:inkscape="http://www.inkscape.org/namespaces/inkscape"
   id="svg7384"
   height="22"
   width="22"
   version="1.1"
   inkscape:version="0.48.3.1 r9886"
   sodipodi:docname="battery-good.svg">
  <defs
     id="defs11" />
  <sodipodi:namedview
     pagecolor="#ffffff"
     bordercolor="#666666"
     borderopacity="1"
     objecttolerance="10"
     gridtolerance="10"
     guidetolerance="10"
     inkscape:pageopacity="0"
     inkscape:pageshadow="2"
     inkscape:window-width="1301"
     inkscape:window-height="744"
     id="namedview9"
     showgrid="false"
     inkscape:zoom="14.777417"
     inkscape:cx="10.021469"
     inkscape:cy="6.2749245"
     inkscape:window-x="65"
     inkscape:window-y="24"
     inkscape:window-maximized="1"
     inkscape:current-layer="svg7384" />
  <metadata
     id="metadata90">
    <rdf:RDF>
      <cc:Work
         rdf:about="">
        <dc:format>image/svg+xml</dc:format>
        <dc:type
           rdf:resource="http://purl.org/dc/dcmitype/StillImage" />
        <dc:title>Gnome Symbolic Icon Theme</dc:title>
      </cc:Work>
    </rdf:RDF>
  </metadata>
  <title
     id="title9167">Gnome Symbolic Icon Theme</title>
  <g
     id="g3000"
     transform="matrix(0.80000001,0,0,0.80000001,1.4000005,1.3999966)">
    <path
       id="path4125"
       d="M 12,2 C 8.268967,2 5.0310741,4.0338608 3.3125,7.0625 4.0024749,6.9590744 4.6212307,6.887792 5.15625,6.875 8.0399757,6.8060501 8.8769731,7.9534744 9.9375,9.0625 L 11.75,5.75 l 0,4.6875 4.46875,0 -0.375,0.65625 C 18.479595,10.972379 20.35702,10.004207 21.6875,9.53125 20.583974,5.2086039 16.666396,2 12,2 z"
       style="opacity:0.2;fill:#ffffff;fill-opacity:1;stroke:none"
       inkscape:connector-curvature="0" />
    <path
       inkscape:connector-curvature="0"
       style="opacity:0.9;fill:#ffffff;fill-opacity:1;stroke:none"
       d="M 5.1506341,6.8901405 C 4.6156148,6.9029325 3.998568,6.9637169 3.3085931,7.0671425 2.4800754,8.5237036 1.9999993,10.204477 1.9999993,12.000004 c 0,5.522847 4.4771524,10 9.9999997,10 5.522847,0 10,-4.477153 10,-10 0,-0.848693 -0.117166,-1.66798 -0.316163,-2.4548341 -1.33048,0.4729571 -3.213763,1.4252601 -5.849608,1.5466311 l -4.202882,7.158202 0,-5.207519 -3.8500969,-0.0024 2.1679687,-3.9782709 C 8.8886909,7.9527875 8.0343598,6.8211951 5.1506341,6.890145 z"
       id="path3230" />
  </g>
</svg>
