<?xml version="1.0" encoding="UTF-8" standalone="no"?>
<!-- Created with Inkscape (http://www.inkscape.org/) -->

<svg
   xmlns:dc="http://purl.org/dc/elements/1.1/"
   xmlns:cc="http://creativecommons.org/ns#"
   xmlns:rdf="http://www.w3.org/1999/02/22-rdf-syntax-ns#"
   xmlns:svg="http://www.w3.org/2000/svg"
   xmlns="http://www.w3.org/2000/svg"
   xmlns:sodipodi="http://sodipodi.sourceforge.net/DTD/sodipodi-0.dtd"
   xmlns:inkscape="http://www.inkscape.org/namespaces/inkscape"
   id="svg7384"
   height="22"
   width="22"
   version="1.1"
   inkscape:version="0.48.3.1 r9886"
   sodipodi:docname="battery-good-charging.svg">
  <defs
     id="defs11" />
  <sodipodi:namedview
     pagecolor="#ffffff"
     bordercolor="#666666"
     borderopacity="1"
     objecttolerance="10"
     gridtolerance="10"
     guidetolerance="10"
     inkscape:pageopacity="0"
     inkscape:pageshadow="2"
     inkscape:window-width="1301"
     inkscape:window-height="744"
     id="namedview9"
     showgrid="false"
     inkscape:zoom="14.777417"
     inkscape:cx="10.021469"
     inkscape:cy="6.2749245"
     inkscape:window-x="65"
     inkscape:window-y="24"
     inkscape:window-maximized="1"
     inkscape:current-layer="svg7384" />
  <metadata
     id="metadata90">
    <rdf:RDF>
      <cc:Work
         rdf:about="">
        <dc:format>image/svg+xml</dc:format>
        <dc:type
           rdf:resource="http://purl.org/dc/dcmitype/StillImage" />
        <dc:title>Gnome Symbolic Icon Theme</dc:title>
      </cc:Work>
    </rdf:RDF>
  </metadata>
  <title
     id="title9167">Gnome Symbolic Icon Theme</title>
  <g
     id="g3312"
     transform="matrix(0.88888889,0,0,0.88888889,0.33333333,0.3333333)">
    <path
       sodipodi:nodetypes="scsccccccs"
       inkscape:connector-curvature="0"
       id="path4125"
       d="M 12.000001,3 C 8.642071,3 5.7279673,4.8304744 4.1812506,7.5562491 4.8022281,7.4631661 5.3591083,7.399012 5.8406257,7.3874992 8.4359788,7.3254443 9.1892765,8.3581259 10.143751,9.3562488 l -1.9406253,3.5718742 3.4593753,0 0,4.696874 3.796875,-6.440624 C 17.831636,11.07514 19.521319,10.203785 20.718751,9.7781237 19.725577,5.887743 16.199757,3 12.000001,3 z"
       style="opacity:0.2;fill:#ffffff;fill-opacity:1;stroke:none" />
    <path
       id="path3233"
       d="m 11.778076,6.3750028 0,4.2176502 4.0188,0 -4.128664,7.032347 0,-4.686766 -3.4650871,-0.0022 3.5749511,-6.5610336 z"
       style="color:#000000;fill:#ef2929;fill-opacity:1;fill-rule:nonzero;stroke:none;stroke-width:1.5;marker:none;visibility:visible;display:inline;overflow:visible;enable-background:accumulate"
       inkscape:connector-curvature="0" />
    <path
       inkscape:connector-curvature="0"
       style="opacity:0.9;fill:#ffffff;fill-opacity:1;stroke:none"
       d="M 5.8355713,7.4011256 C 5.354054,7.4126384 4.7987118,7.4673444 4.1777344,7.5604274 3.4320685,8.8713321 3,10.384028 3,12.000002 3,16.970563 7.0294372,21 12,21 c 4.970562,0 9,-4.029437 9,-8.999998 0,-0.763824 -0.105449,-1.501182 -0.284547,-2.2093504 -1.197432,0.4256614 -2.892387,1.2827334 -5.264647,1.3919674 l -3.782594,6.442381 0,-4.686766 -3.4650871,-0.0022 1.9511721,-3.5804434 C 9.1998225,8.3575077 8.4309245,7.3390748 5.8355713,7.4011297 z"
       id="path3230" />
  </g>
</svg>
