<?xml version="1.0" encoding="UTF-8" standalone="no"?>
<svg
   xmlns:dc="http://purl.org/dc/elements/1.1/"
   xmlns:cc="http://creativecommons.org/ns#"
   xmlns:rdf="http://www.w3.org/1999/02/22-rdf-syntax-ns#"
   xmlns:svg="http://www.w3.org/2000/svg"
   xmlns="http://www.w3.org/2000/svg"
   xmlns:xlink="http://www.w3.org/1999/xlink"
   xmlns:sodipodi="http://sodipodi.sourceforge.net/DTD/sodipodi-0.dtd"
   xmlns:inkscape="http://www.inkscape.org/namespaces/inkscape"
   viewBox="0 0 22 22"
   id="svg3007"
   version="1.1"
   inkscape:version="0.48.3.1 r9886"
   width="100%"
   height="100%"
   sodipodi:docname="caffeine-cup-full.svg">
  <metadata
     id="metadata3037">
    <rdf:RDF>
      <cc:Work
         rdf:about="">
        <dc:format>image/svg+xml</dc:format>
        <dc:type
           rdf:resource="http://purl.org/dc/dcmitype/StillImage" />
        <dc:title></dc:title>
      </cc:Work>
    </rdf:RDF>
  </metadata>
  <defs
     id="defs3035">
    <linearGradient
       id="linearGradient4008-4-7">
      <stop
         id="stop4010-2-0"
         style="stop-color:#dab980;stop-opacity:1"
         offset="0" />
      <stop
         id="stop4012-5-1"
         style="stop-color:#c29856;stop-opacity:1"
         offset="0.71691591" />
      <stop
         id="stop4014-6-6"
         style="stop-color:#a2773a;stop-opacity:1"
         offset="1" />
    </linearGradient>
    <linearGradient
       inkscape:collect="always"
       xlink:href="#linearGradient3187-7-5"
       id="linearGradient3756"
       gradientUnits="userSpaceOnUse"
       gradientTransform="matrix(5.6190474,0,0,4.9043651,-170.71372,8.7516906)"
       x1="48"
       y1="78"
       x2="48"
       y2="5.9877172" />
    <linearGradient
       id="linearGradient3187-7-5">
      <stop
         id="stop3189-4-5"
         style="stop-color:#c29656;stop-opacity:1"
         offset="0" />
      <stop
         id="stop3191-1-8"
         style="stop-color:#ddc08b;stop-opacity:1"
         offset="1" />
    </linearGradient>
    <linearGradient
       inkscape:collect="always"
       xlink:href="#linearGradient4008-4-7"
       id="linearGradient3822"
       gradientUnits="userSpaceOnUse"
       gradientTransform="matrix(4.4715789,0,0,4.4715789,-908.22105,-66.542998)"
       x1="34.85965"
       y1="16.275133"
       x2="34.994316"
       y2="28.905609" />
    <linearGradient
       inkscape:collect="always"
       xlink:href="#linearGradient3187-7-5"
       id="linearGradient3824"
       gradientUnits="userSpaceOnUse"
       gradientTransform="matrix(5.6190474,0,0,4.9043651,-891.75432,21.86152)"
       x1="48"
       y1="78"
       x2="48"
       y2="5.9877172" />
  </defs>
  <sodipodi:namedview
     pagecolor="#ffffff"
     bordercolor="#666666"
     borderopacity="1"
     objecttolerance="10"
     gridtolerance="10"
     guidetolerance="10"
     inkscape:pageopacity="0"
     inkscape:pageshadow="2"
     inkscape:window-width="1301"
     inkscape:window-height="744"
     id="namedview3033"
     showgrid="false"
     inkscape:zoom="13.501323"
     inkscape:cx="4.9635544"
     inkscape:cy="11"
     inkscape:window-x="65"
     inkscape:window-y="24"
     inkscape:window-maximized="1"
     inkscape:current-layer="svg3007" />
  <path
     style="opacity:0.90000000000000002;color:#000000;fill:#ffffff;fill-opacity:1;fill-rule:nonzero;stroke:none;stroke-width:1;marker:none;visibility:visible;display:inline;overflow:visible;enable-background:accumulate"
     id="path3"
     d="m 16.95749,11.067775 c 0.0281,-0.25312 0.0422,-0.46875 0.0422,-0.64687 0,-0.9187502 -0.15469,-0.9234402 -0.75,-0.9234402 -0.09074,0.022024 -13.5000002,0 -13.5000002,0 -0.59531,0 -0.75,0.005 -0.75,0.9234402 0,0.91875 0.36094,2.87343 1.32656,5.20312 0.96563,2.32969 2.08125,3.35625 2.86875,4.04063 l 0.005,-0.009 c 0.23906,0.21563 0.55313,0.34219 0.9,0.34219 l 4.8000002,0 c 0.34688,0 0.66094,-0.12656 0.9,-0.34219 l 0.005,0.009 c 0.42187,-0.36563 0.9375,-0.83438 1.47187,-1.54219 0.22031,0.0937 0.45938,0.17344 0.72188,0.23437 0.39375,0.0937 0.7875,0.14063 1.1625,0.14063 1.125,0 2.1375,-0.43125 2.85,-1.20938 0.62812,-0.68437 0.98906,-1.6125 0.98906,-2.54062 0,-1.82344 -1.3125,-3.34688 -3.04219,-3.67969 z m -0.79687,5.94375 c -0.40313,0 -0.73125,-0.0562 -1.03594,-0.19687 0.1875,-0.375 0.37031,-0.74532 0.54844,-1.17657 0.47343,-1.14375 0.80156,-2.20312 1.0125,-3.08437 1.03125,0.20156 1.81406,1.11562 1.81406,2.20781 0,1.06406 -0.80625,2.25 -2.33906,2.25 z"
     inkscape:connector-curvature="0"
     sodipodi:nodetypes="csccssccssccccscsccscccss" />
</svg>
