<?xml version="1.0" encoding="UTF-8" standalone="no"?>
<!-- Created with Inkscape (http://www.inkscape.org/) -->

<svg
   xmlns:dc="http://purl.org/dc/elements/1.1/"
   xmlns:cc="http://creativecommons.org/ns#"
   xmlns:rdf="http://www.w3.org/1999/02/22-rdf-syntax-ns#"
   xmlns:svg="http://www.w3.org/2000/svg"
   xmlns="http://www.w3.org/2000/svg"
   xmlns:sodipodi="http://sodipodi.sourceforge.net/DTD/sodipodi-0.dtd"
   xmlns:inkscape="http://www.inkscape.org/namespaces/inkscape"
   id="svg7384"
   height="22"
   width="22"
   version="1.1"
   inkscape:version="0.48+devel r"
   sodipodi:docname="diodon-panel.svg">
  <defs
     id="defs12" />
  <sodipodi:namedview
     pagecolor="#ffffff"
     bordercolor="#666666"
     borderopacity="1"
     objecttolerance="10"
     gridtolerance="10"
     guidetolerance="10"
     inkscape:pageopacity="0"
     inkscape:pageshadow="2"
     inkscape:window-width="1855"
     inkscape:window-height="1056"
     id="namedview10"
     showgrid="false"
     showguides="true"
     inkscape:guide-bbox="true"
     inkscape:zoom="8.0148699"
     inkscape:cx="-27.188853"
     inkscape:cy="-1.0034133"
     inkscape:window-x="65"
     inkscape:window-y="24"
     inkscape:window-maximized="1"
     inkscape:current-layer="svg7384" />
  <metadata
     id="metadata90">
    <rdf:RDF>
      <cc:Work
         rdf:about="">
        <dc:format>image/svg+xml</dc:format>
        <dc:type
           rdf:resource="http://purl.org/dc/dcmitype/StillImage" />
        <dc:title>Gnome Symbolic Icon Theme</dc:title>
      </cc:Work>
    </rdf:RDF>
  </metadata>
  <title
     id="title9167">Gnome Symbolic Icon Theme</title>
  <path
     d="m 7.7466932,17.546019 c -1.09762,1.08402 -2.82762,1.02823 -3.91069,-0.0399 -1.07884,-1.07175 -1.13559,-2.78565 -0.0413,-3.87281 L 12.825413,4.6901989 c 1.42748,-1.4091 3.67363,-1.337832 5.0851,0.0553 1.40667,1.3987 1.47841,3.6229999 0.0562,5.0366399 l -7.52562,7.4525502 c -0.16618,0.16487 -0.43563,0.16487 -0.6011698,0 -0.16641,-0.16455 -0.16704,-0.43114 -6.7e-4,-0.59575 L 17.364233,9.1854488 c 1.08376,-1.07448 1.04002,-2.75011 -0.0556,-3.8439999 -1.10317,-1.0845 -2.79562,-1.12736 -3.88122,-0.0547 L 4.3967032,14.229269 c -0.75371,0.74954 -0.72554,1.91363 0.0413,2.68058 0.77568,0.76069 1.95014,0.78742 2.70761,0.042 L 14.670593,9.4996288 c 0.39125,-0.38701 0.37696,-1.01235 -0.0612,-1.45523 -0.4463,-0.43293 -1.07757,-0.44733 -1.46881,-0.0587 L 6.3680132,14.692559 c -0.16618,0.16547 -0.43563,0.16475 -0.60181,0 -0.16619,-0.16473 -0.16684,-0.4318 -6.7e-4,-0.59641 L 12.539443,7.3895588 c 0.7488,-0.73942 1.93494,-0.66742 2.67188,0.06 0.73579,0.73081 0.80747,1.90604 0.0619,2.6471902 l -7.5265298,7.45242 z"
     style="fill:#ffffff;fill-opacity:1;opacity:0.9"
     id="path108"
     inkscape:connector-curvature="0" />
</svg>
