<?xml version="1.0" encoding="UTF-8" standalone="no"?>
<svg
   xmlns:dc="http://purl.org/dc/elements/1.1/"
   xmlns:cc="http://creativecommons.org/ns#"
   xmlns:rdf="http://www.w3.org/1999/02/22-rdf-syntax-ns#"
   xmlns:svg="http://www.w3.org/2000/svg"
   xmlns="http://www.w3.org/2000/svg"
   xmlns:xlink="http://www.w3.org/1999/xlink"
   xmlns:sodipodi="http://sodipodi.sourceforge.net/DTD/sodipodi-0.dtd"
   xmlns:inkscape="http://www.inkscape.org/namespaces/inkscape"
   viewBox="0 0 22 22"
   id="svg3007"
   version="1.1"
   inkscape:version="0.48.3.1 r9886"
   width="100%"
   height="100%"
   sodipodi:docname="system-shutdown-symbolic.svg">
  <metadata
     id="metadata3037">
    <rdf:RDF>
      <cc:Work
         rdf:about="">
        <dc:format>image/svg+xml</dc:format>
        <dc:type
           rdf:resource="http://purl.org/dc/dcmitype/StillImage" />
        <dc:title></dc:title>
      </cc:Work>
    </rdf:RDF>
  </metadata>
  <defs
     id="defs3035">
    <linearGradient
       id="linearGradient4008-4-7">
      <stop
         id="stop4010-2-0"
         style="stop-color:#dab980;stop-opacity:1"
         offset="0" />
      <stop
         id="stop4012-5-1"
         style="stop-color:#c29856;stop-opacity:1"
         offset="0.71691591" />
      <stop
         id="stop4014-6-6"
         style="stop-color:#a2773a;stop-opacity:1"
         offset="1" />
    </linearGradient>
    <linearGradient
       inkscape:collect="always"
       xlink:href="#linearGradient3187-7-5"
       id="linearGradient3756"
       gradientUnits="userSpaceOnUse"
       gradientTransform="matrix(5.6190474,0,0,4.9043651,-170.71372,8.7516906)"
       x1="48"
       y1="78"
       x2="48"
       y2="5.9877172" />
    <linearGradient
       id="linearGradient3187-7-5">
      <stop
         id="stop3189-4-5"
         style="stop-color:#c29656;stop-opacity:1"
         offset="0" />
      <stop
         id="stop3191-1-8"
         style="stop-color:#ddc08b;stop-opacity:1"
         offset="1" />
    </linearGradient>
    <linearGradient
       inkscape:collect="always"
       xlink:href="#linearGradient4008-4-7"
       id="linearGradient3822"
       gradientUnits="userSpaceOnUse"
       gradientTransform="matrix(4.4715789,0,0,4.4715789,-908.22105,-66.542998)"
       x1="34.85965"
       y1="16.275133"
       x2="34.994316"
       y2="28.905609" />
    <linearGradient
       inkscape:collect="always"
       xlink:href="#linearGradient3187-7-5"
       id="linearGradient3824"
       gradientUnits="userSpaceOnUse"
       gradientTransform="matrix(5.6190474,0,0,4.9043651,-891.75432,21.86152)"
       x1="48"
       y1="78"
       x2="48"
       y2="5.9877172" />
  </defs>
  <sodipodi:namedview
     pagecolor="#ffffff"
     bordercolor="#666666"
     borderopacity="1"
     objecttolerance="10"
     gridtolerance="10"
     guidetolerance="10"
     inkscape:pageopacity="0"
     inkscape:pageshadow="2"
     inkscape:window-width="1301"
     inkscape:window-height="744"
     id="namedview3033"
     showgrid="false"
     inkscape:zoom="12.001175"
     inkscape:cx="9.9394437"
     inkscape:cy="11"
     inkscape:window-x="65"
     inkscape:window-y="24"
     inkscape:window-maximized="1"
     inkscape:current-layer="svg3007" />
  <g
     id="g54382"
     transform="translate(22.74885,0.66552505)">
    <path
       id="path4319"
       d="m -16.998452,1.3344759 c -2.0775,0 -3.750397,1.6728971 -3.750397,3.7503969 l 0,0.8795021 0,9.6197021 c 0,2.0775 1.672897,3.750397 3.750397,3.750397 l 10.4992044,0 c 2.0774999,0 3.7503969,-1.672897 3.7503969,-3.750397 l 0,-9.6197021 0,-0.8795021 c 0,-2.0774998 -1.672897,-3.7503969 -3.7503969,-3.7503969 l -10.4992044,0 z m 0.945047,1.6207626 8.6091098,0 c 1.7033738,0 3.0746819,1.3713081 3.0746819,3.0746819 l 0,0.7221927 0,7.8869169 c 0,1.703374 -1.3713081,3.074682 -3.0746819,3.074682 l -8.6091098,0 c -1.703373,0 -3.074682,-1.371308 -3.074682,-3.074682 l 0,-7.8869169 0,-0.7221927 c 0,-1.7033738 1.371309,-3.0746819 3.074682,-3.0746819 z"
       style="opacity:0.9;color:#000000;fill:#ffffff;fill-opacity:1;fill-rule:nonzero;stroke:none;stroke-width:3.32902193;marker:none;visibility:visible;display:inline;overflow:visible;enable-background:accumulate"
       inkscape:connector-curvature="0" />
    <path
       sodipodi:nodetypes="ccccccc"
       inkscape:connector-curvature="0"
       id="path4270"
       d="m -10.562584,11.70114 -1.655723,-0.87727 -4.186988,-4.0253477 0.378202,-0.4507234 4.691256,3.424383 1.151455,1.4782341 z"
       style="opacity:0.9;color:#000000;fill:#ffffff;fill-opacity:1;fill-rule:nonzero;stroke:none;stroke-width:1;marker:none;visibility:visible;display:inline;overflow:visible;enable-background:accumulate" />
    <path
       style="opacity:0.9;color:#000000;fill:#ffffff;fill-opacity:1;fill-rule:nonzero;stroke:none;stroke-width:1;marker:none;visibility:visible;display:inline;overflow:visible;enable-background:accumulate"
       d="m -14.138235,10.105662 2.389385,-0.3050851 6.9538342,0.3050851 0,0.457627 -6.9538342,0.305084 -2.389385,-0.305084 z"
       id="rect4196"
       inkscape:connector-curvature="0"
       sodipodi:nodetypes="ccccccc" />
    <path
       style="opacity:0.9;color:#000000;fill:#ffffff;fill-opacity:1;fill-rule:nonzero;stroke:none;stroke-width:3.32902193;marker:none;visibility:visible;display:inline;overflow:visible;enable-background:accumulate"
       d="m -11.74885,9.9531192 c -0.210617,0 -0.381356,0.1707388 -0.381356,0.3813558 0,0.1637 0.103037,0.303446 0.247881,0.357521 l 0,6.545021 0.26695,0 0,-6.545021 c 0.144844,-0.05407 0.247881,-0.193821 0.247881,-0.357521 0,-0.210617 -0.170739,-0.3813558 -0.381356,-0.3813558 z"
       id="path4246"
       inkscape:connector-curvature="0"
       sodipodi:nodetypes="ssccccss" />
  </g>
</svg>
