<?xml version="1.0" encoding="UTF-8" standalone="no"?>
<svg
   xmlns:dc="http://purl.org/dc/elements/1.1/"
   xmlns:cc="http://creativecommons.org/ns#"
   xmlns:rdf="http://www.w3.org/1999/02/22-rdf-syntax-ns#"
   xmlns:svg="http://www.w3.org/2000/svg"
   xmlns="http://www.w3.org/2000/svg"
   xmlns:xlink="http://www.w3.org/1999/xlink"
   xmlns:sodipodi="http://sodipodi.sourceforge.net/DTD/sodipodi-0.dtd"
   xmlns:inkscape="http://www.inkscape.org/namespaces/inkscape"
   viewBox="0 0 22 22"
   id="svg3007"
   version="1.1"
   inkscape:version="0.91pre2 r"
   width="100%"
   height="100%"
   sodipodi:docname="draw-freehand.svg">
  <metadata
     id="metadata3037">
    <rdf:RDF>
      <cc:Work
         rdf:about="">
        <dc:format>image/svg+xml</dc:format>
        <dc:type
           rdf:resource="http://purl.org/dc/dcmitype/StillImage" />
        <dc:title></dc:title>
      </cc:Work>
    </rdf:RDF>
  </metadata>
  <defs
     id="defs3035">
    <linearGradient
       id="linearGradient4008-4-7">
      <stop
         id="stop4010-2-0"
         style="stop-color:#dab980;stop-opacity:1"
         offset="0" />
      <stop
         id="stop4012-5-1"
         style="stop-color:#c29856;stop-opacity:1"
         offset="0.71691591" />
      <stop
         id="stop4014-6-6"
         style="stop-color:#a2773a;stop-opacity:1"
         offset="1" />
    </linearGradient>
    <linearGradient
       inkscape:collect="always"
       xlink:href="#linearGradient3187-7-5"
       id="linearGradient3756"
       gradientUnits="userSpaceOnUse"
       gradientTransform="matrix(5.6190474,0,0,4.9043651,-170.71372,8.7516906)"
       x1="48"
       y1="78"
       x2="48"
       y2="5.9877172" />
    <linearGradient
       id="linearGradient3187-7-5">
      <stop
         id="stop3189-4-5"
         style="stop-color:#c29656;stop-opacity:1"
         offset="0" />
      <stop
         id="stop3191-1-8"
         style="stop-color:#ddc08b;stop-opacity:1"
         offset="1" />
    </linearGradient>
    <linearGradient
       inkscape:collect="always"
       xlink:href="#linearGradient4008-4-7"
       id="linearGradient3822"
       gradientUnits="userSpaceOnUse"
       gradientTransform="matrix(4.4715789,0,0,4.4715789,-908.22105,-66.542998)"
       x1="34.85965"
       y1="16.275133"
       x2="34.994316"
       y2="28.905609" />
    <linearGradient
       inkscape:collect="always"
       xlink:href="#linearGradient3187-7-5"
       id="linearGradient3824"
       gradientUnits="userSpaceOnUse"
       gradientTransform="matrix(5.6190474,0,0,4.9043651,-891.75432,21.86152)"
       x1="48"
       y1="78"
       x2="48"
       y2="5.9877172" />
  </defs>
  <sodipodi:namedview
     pagecolor="#ffffff"
     bordercolor="#666666"
     borderopacity="1"
     objecttolerance="10"
     gridtolerance="10"
     guidetolerance="10"
     inkscape:pageopacity="0"
     inkscape:pageshadow="2"
     inkscape:window-width="1375"
     inkscape:window-height="876"
     id="namedview3033"
     showgrid="true"
     inkscape:zoom="24.459466"
     inkscape:cx="6.0325981"
     inkscape:cy="11"
     inkscape:window-x="1985"
     inkscape:window-y="24"
     inkscape:window-maximized="1"
     inkscape:current-layer="svg3007">
    <inkscape:grid
       type="xygrid"
       id="grid4169" />
  </sodipodi:namedview>
  <path
     inkscape:connector-curvature="0"
     id="path3034"
     d="M 3.5259541,2.6384085 2.0000025,3.9152251 c 1.1162538,1.3536651 2.5137761,2.0462066 3.9238754,2.3044983 1.4100994,0.2582915 2.8307083,0.1276977 4.1107271,-0.062284 1.280018,-0.1899815 2.460685,-0.45048 3.33218,-0.49827 0.871494,-0.04779 1.246634,0.077754 1.463668,0.3425606 0.10698,0.1305284 0.102556,0.1196484 0.09342,0.1868512 -0.0092,0.067203 -0.08793,0.2550551 -0.280277,0.4982699 -0.384686,0.4864297 -1.19872,1.1314078 -2.086506,1.7439445 -0.887784,0.612537 -1.840211,1.222139 -2.5847742,1.8062294 -0.3722823,0.292044 -0.7006741,0.55879 -0.9653979,0.934256 -0.1323616,0.187733 -0.2531547,0.392661 -0.3114187,0.685121 -0.058264,0.292459 -0.006,0.67244 0.1557094,0.965398 0.2330348,0.42217 0.6227138,0.709078 0.9965398,0.84083 0.3738256,0.131753 0.7571076,0.153061 1.1211076,0.155709 0.727998,0.0053 1.486765,-0.105848 2.242215,-0.217993 0.755449,-0.112144 1.491306,-0.221255 2.055363,-0.217993 0.376037,0.0022 0.474538,0.0685 0.622837,0.124568 -0.205548,0.204238 -0.481678,0.380609 -0.747404,0.871972 -0.173917,0.321594 -0.301236,0.778881 -0.249135,1.245675 0.0521,0.466794 0.295871,0.911041 0.622837,1.307958 0.653927,0.793835 1.735199,1.513164 3.612456,2.429066 l 0.871972,-1.806228 c -1.758288,-0.857859 -2.65531,-1.531625 -2.958478,-1.899654 -0.151583,-0.184015 -0.155226,-0.244811 -0.155708,-0.249135 -4.83e-4,-0.0043 -0.0059,0.0062 0.03114,-0.06228 0.07407,-0.13697 0.387708,-0.421043 0.747405,-0.871972 0.179848,-0.225464 0.395889,-0.552557 0.435986,-1.027682 0.04009,-0.475125 -0.212031,-0.964345 -0.529412,-1.276817 -0.660099,-0.64989 -1.51116,-0.773957 -2.304498,-0.778546 -0.793338,-0.0046 -1.606361,0.105111 -2.366782,0.217993 -0.662169,0.0983 -1.223385,0.167793 -1.681661,0.186851 0.601759,-0.472064 1.52467,-1.067318 2.460208,-1.712803 0.935537,-0.6454854 1.867542,-1.3206174 2.52249,-2.1487891 C 16.528168,7.5184403 16.807427,7.045859 16.885815,6.468858 16.964203,5.8918573 16.782932,5.2384728 16.387546,4.7560555 15.599845,3.7949705 14.36463,3.6356823 13.242217,3.697232 12.119804,3.7587813 10.921662,4.0176229 9.7231859,4.1955019 8.5247095,4.3733808 7.345978,4.4498234 6.2975804,4.2577856 5.2491827,4.0657478 4.3436138,3.6299728 3.5259541,2.6384085 Z"
     style="color:#000000;font-style:normal;font-variant:normal;font-weight:normal;font-stretch:normal;font-size:medium;line-height:normal;font-family:Sans;-inkscape-font-specification:Sans;text-indent:0;text-align:start;text-decoration:none;text-decoration-line:none;letter-spacing:normal;word-spacing:normal;text-transform:none;direction:ltr;block-progression:tb;writing-mode:lr-tb;baseline-shift:baseline;text-anchor:start;display:inline;overflow:visible;visibility:visible;fill:#ffffff;fill-opacity:1;fill-rule:nonzero;stroke:none;stroke-width:2;marker:none;enable-background:accumulate;opacity:0.9" />
</svg>
