<?xml version="1.0" encoding="UTF-8" standalone="no"?>
<!-- Created with Inkscape (http://www.inkscape.org/) -->

<svg
   xmlns:dc="http://purl.org/dc/elements/1.1/"
   xmlns:cc="http://creativecommons.org/ns#"
   xmlns:rdf="http://www.w3.org/1999/02/22-rdf-syntax-ns#"
   xmlns:svg="http://www.w3.org/2000/svg"
   xmlns="http://www.w3.org/2000/svg"
   xmlns:xlink="http://www.w3.org/1999/xlink"
   xmlns:sodipodi="http://sodipodi.sourceforge.net/DTD/sodipodi-0.dtd"
   xmlns:inkscape="http://www.inkscape.org/namespaces/inkscape"
   id="svg7384"
   height="22"
   width="22"
   version="1.1"
   inkscape:version="0.48.4 r9939"
   sodipodi:docname="battery-full.svg">
  <defs
     id="defs12">
    <linearGradient
       inkscape:collect="always"
       xlink:href="#linearGradient4327"
       id="linearGradient3279"
       gradientUnits="userSpaceOnUse"
       gradientTransform="matrix(0.46153846,0,0,0.46153846,-525.10827,505.2697)"
       x1="18.930269"
       y1="6.2951212"
       x2="19.360001"
       y2="36.643665" />
    <linearGradient
       id="linearGradient4327">
      <stop
         id="stop4329"
         style="stop-color:#c8c8c8;stop-opacity:1;"
         offset="0" />
      <stop
         id="stop4331"
         style="stop-color:#8c8c8c;stop-opacity:1;"
         offset="1" />
    </linearGradient>
    <linearGradient
       y2="36.643665"
       x2="19.360001"
       y1="6.2951212"
       x1="18.930269"
       gradientTransform="matrix(0.46153846,0,0,0.46153846,-22.306308,-3.2485698)"
       gradientUnits="userSpaceOnUse"
       id="linearGradient4158"
       xlink:href="#linearGradient4327"
       inkscape:collect="always" />
    <linearGradient
       inkscape:collect="always"
       xlink:href="#linearGradient4327-2"
       id="linearGradient4179"
       gradientUnits="userSpaceOnUse"
       gradientTransform="matrix(0.46153846,0,0,0.46153846,17.922821,433.00134)"
       x1="18.930269"
       y1="6.2951212"
       x2="19.360001"
       y2="36.643665" />
    <linearGradient
       id="linearGradient4327-2">
      <stop
         id="stop4329-4"
         style="stop-color:#c8c8c8;stop-opacity:1;"
         offset="0" />
      <stop
         id="stop4331-9"
         style="stop-color:#8c8c8c;stop-opacity:1;"
         offset="1" />
    </linearGradient>
    <linearGradient
       y2="36.643665"
       x2="19.360001"
       y1="6.2951212"
       x1="18.930269"
       gradientTransform="matrix(0.46153846,0,0,0.46153846,-23.678756,18.849483)"
       gradientUnits="userSpaceOnUse"
       id="linearGradient4213"
       xlink:href="#linearGradient4327-2"
       inkscape:collect="always" />
    <linearGradient
       inkscape:collect="always"
       xlink:href="#linearGradient4327-0"
       id="linearGradient4254"
       gradientUnits="userSpaceOnUse"
       gradientTransform="matrix(0.46153846,0,0,0.46153846,17.922821,471.47592)"
       x1="18.930269"
       y1="6.2951212"
       x2="19.360001"
       y2="36.643665" />
    <linearGradient
       id="linearGradient4327-0">
      <stop
         id="stop4329-1"
         style="stop-color:#c8c8c8;stop-opacity:1;"
         offset="0" />
      <stop
         id="stop4331-0"
         style="stop-color:#8c8c8c;stop-opacity:1;"
         offset="1" />
    </linearGradient>
  </defs>
  <sodipodi:namedview
     pagecolor="#ffffff"
     bordercolor="#666666"
     borderopacity="1"
     objecttolerance="10"
     gridtolerance="10"
     guidetolerance="10"
     inkscape:pageopacity="0"
     inkscape:pageshadow="2"
     inkscape:window-width="1301"
     inkscape:window-height="744"
     id="namedview10"
     showgrid="false"
     showguides="true"
     inkscape:guide-bbox="true"
     inkscape:zoom="8.0148699"
     inkscape:cx="-23.570578"
     inkscape:cy="-1.0034133"
     inkscape:window-x="65"
     inkscape:window-y="24"
     inkscape:window-maximized="1"
     inkscape:current-layer="svg7384" />
  <metadata
     id="metadata90">
    <rdf:RDF>
      <cc:Work
         rdf:about="">
        <dc:format>image/svg+xml</dc:format>
        <dc:type
           rdf:resource="http://purl.org/dc/dcmitype/StillImage" />
        <dc:title>Gnome Symbolic Icon Theme</dc:title>
      </cc:Work>
    </rdf:RDF>
  </metadata>
  <title
     id="title9167">Gnome Symbolic Icon Theme</title>
  <path
     style="fill:url(#linearGradient4158);fill-opacity:1;stroke:none"
     d="m -16.478728,-0.72448978 c -2.0775,0 -3.7504,1.6729 -3.7504,3.75039998 l 0,0.8795 0,9.6196998 c 0,2.0775 1.6729,3.7504 3.7504,3.7504 l 10.4992,0 c 2.0775,0 3.7504,-1.6729 3.7504,-3.7504 l 0,-9.6196998 0,-0.8795 c 0,-2.07749998 -1.6729,-3.75039998 -3.7504,-3.75039998 l -10.4992,0 z m 5.2496,2.89829998 c 3.37016,1.2e-4 6.1017,2.72968 6.1017,6.10051 0,3.3698498 -2.73154,6.1028798 -6.1017,6.1028798 -0.84945,0 -1.65799,-0.17336 -2.39301,-0.48742 1.14604,-0.95011 2.34405,-1.8807 3.52159,-2.96981 l -5.68936,1.40625 c -0.95807,-1.07805 -1.54091,-2.4966898 -1.54091,-4.0518998 0,-3.37095 2.73322,-6.10051 6.10169,-6.10051 z m 0,4.59773 c -0.82871,0 -1.50278,0.67275 -1.50278,1.50278 0,0.82954 0.67407,1.5004 1.50278,1.5004 0.82859,0 1.49801,-0.67098 1.49801,-1.5004 0,-0.83003 -0.66942,-1.50278 -1.49801,-1.50278 z"
     id="rect5505"
     inkscape:connector-curvature="0" />
  <path
     style="fill:#ffffff;fill-opacity:1;stroke:none;opacity:0.9"
     d="M 5.750397,2.0000001 C 3.672897,2.0000001 2,3.6729001 2,5.7504001 l 0,0.8795 L 2,16.2496 C 2,18.3271 3.672897,20 5.750397,20 l 10.499206,0 C 18.327103,20 20,18.3271 20,16.2496 l 0,-9.6196999 0,-0.8795 c 0,-2.0775 -1.672897,-3.7504 -3.750397,-3.7504 l -10.499206,0 z m 5.253178,3.27489 c 2.948893,1.1e-4 5.338983,2.38832 5.338983,5.3377999 0,2.94862 -2.39009,5.34017 -5.338983,5.34017 -0.743272,0 -1.450745,-0.15184 -2.093882,-0.42664 1.002781,-0.83135 2.051489,-1.64502 3.081832,-2.59799 L 7.012447,14.1581 C 6.174134,13.21481 5.664592,11.9735 5.664592,10.61269 c 0,-2.9495799 2.391574,-5.3377999 5.338983,-5.3377999 z m 0,4.02331 c -0.725122,0 -1.314486,0.58821 -1.314486,1.3144899 0,0.72584 0.589364,1.31329 1.314486,1.31329 0.725016,0 1.310911,-0.58755 1.310911,-1.31329 0,-0.7262799 -0.585895,-1.3144899 -1.310911,-1.3144899 z m -0.05005,4.1508199 -3.422669,2.86494 c -0.293312,0.2455 -0.616708,0.46847 -1.009402,0.39923 -0.571109,-0.1007 -0.950297,-0.66297 -0.846133,-1.25371 0.09267,-0.52553 0.551813,-0.77506 1.033236,-0.90095 l 4.244968,-1.10951 z"
     id="rect5505-7"
     inkscape:connector-curvature="0" />
</svg>
