<?xml version="1.0" encoding="UTF-8" standalone="no"?>
<!-- Created with Inkscape (http://www.inkscape.org/) -->

<svg
   xmlns:dc="http://purl.org/dc/elements/1.1/"
   xmlns:cc="http://creativecommons.org/ns#"
   xmlns:rdf="http://www.w3.org/1999/02/22-rdf-syntax-ns#"
   xmlns:svg="http://www.w3.org/2000/svg"
   xmlns="http://www.w3.org/2000/svg"
   xmlns:xlink="http://www.w3.org/1999/xlink"
   xmlns:sodipodi="http://sodipodi.sourceforge.net/DTD/sodipodi-0.dtd"
   xmlns:inkscape="http://www.inkscape.org/namespaces/inkscape"
   id="svg7384"
   height="22"
   width="22"
   version="1.1"
   inkscape:version="0.48.4 r9939"
   sodipodi:docname="drive-harddisk-symbolic.svg">
  <defs
     id="defs12">
    <linearGradient
       id="linearGradient4327">
      <stop
         id="stop4329"
         style="stop-color:#c8c8c8;stop-opacity:1;"
         offset="0" />
      <stop
         id="stop4331"
         style="stop-color:#8c8c8c;stop-opacity:1;"
         offset="1" />
    </linearGradient>
    <linearGradient
       inkscape:collect="always"
       xlink:href="#linearGradient4327-2"
       id="linearGradient4179"
       gradientUnits="userSpaceOnUse"
       gradientTransform="matrix(0.46153846,0,0,0.46153846,17.922821,433.00134)"
       x1="18.930269"
       y1="6.2951212"
       x2="19.360001"
       y2="36.643665" />
    <linearGradient
       id="linearGradient4327-2">
      <stop
         id="stop4329-4"
         style="stop-color:#c8c8c8;stop-opacity:1;"
         offset="0" />
      <stop
         id="stop4331-9"
         style="stop-color:#8c8c8c;stop-opacity:1;"
         offset="1" />
    </linearGradient>
    <linearGradient
       inkscape:collect="always"
       xlink:href="#linearGradient4327-0"
       id="linearGradient4254"
       gradientUnits="userSpaceOnUse"
       gradientTransform="matrix(0.46153846,0,0,0.46153846,17.922821,471.47592)"
       x1="18.930269"
       y1="6.2951212"
       x2="19.360001"
       y2="36.643665" />
    <linearGradient
       id="linearGradient4327-0">
      <stop
         id="stop4329-1"
         style="stop-color:#c8c8c8;stop-opacity:1;"
         offset="0" />
      <stop
         id="stop4331-0"
         style="stop-color:#8c8c8c;stop-opacity:1;"
         offset="1" />
    </linearGradient>
  </defs>
  <sodipodi:namedview
     pagecolor="#ffffff"
     bordercolor="#666666"
     borderopacity="1"
     objecttolerance="10"
     gridtolerance="10"
     guidetolerance="10"
     inkscape:pageopacity="0"
     inkscape:pageshadow="2"
     inkscape:window-width="1301"
     inkscape:window-height="744"
     id="namedview10"
     showgrid="false"
     showguides="true"
     inkscape:guide-bbox="true"
     inkscape:zoom="8.0148699"
     inkscape:cx="-23.570578"
     inkscape:cy="-1.0034133"
     inkscape:window-x="65"
     inkscape:window-y="24"
     inkscape:window-maximized="1"
     inkscape:current-layer="svg7384" />
  <metadata
     id="metadata90">
    <rdf:RDF>
      <cc:Work
         rdf:about="">
        <dc:format>image/svg+xml</dc:format>
        <dc:type
           rdf:resource="http://purl.org/dc/dcmitype/StillImage" />
        <dc:title>Gnome Symbolic Icon Theme</dc:title>
      </cc:Work>
    </rdf:RDF>
  </metadata>
  <title
     id="title9167">Gnome Symbolic Icon Theme</title>
  <path
     style="opacity:0.9;color:#000000;fill:#ffffff;fill-opacity:1;fill-rule:nonzero;stroke:none;marker:none;visibility:visible;display:inline;overflow:visible;enable-background:accumulate"
     d="m 5.7504,2.0000001 c -2.0775,0 -3.7504,1.6729 -3.7504,3.7504 l 0,0.8795 L 2,16.2496 C 2,18.3271 3.6729,20 5.7504,20 l 10.4992,0 C 18.3271,20 20,18.3271 20,16.2496 l 0,-9.6196999 0,-0.8795 c 0,-2.0775 -1.6729,-3.7504 -3.7504,-3.7504 l -10.4992,0 z M 11,4.8983001 c 3.37016,1.2e-4 6.1017,2.72968 6.1017,6.1005099 0,3.36985 -2.73154,6.10288 -6.1017,6.10288 -0.84945,0 -1.65799,-0.17336 -2.39301,-0.48742 1.14604,-0.95011 2.34405,-1.8807 3.52159,-2.96981 L 6.43922,15.05071 C 5.48115,13.97266 4.89831,12.55402 4.89831,10.99881 4.89831,7.6278601 7.63153,4.8983001 11,4.8983001 z m 0,4.59773 c -0.82871,0 -1.50278,0.6727499 -1.50278,1.5027799 0,0.82954 0.67407,1.5004 1.50278,1.5004 0.82859,0 1.49801,-0.67098 1.49801,-1.5004 0,-0.83003 -0.66942,-1.5027799 -1.49801,-1.5027799 z"
     id="rect5505"
     inkscape:connector-curvature="0" />
</svg>
