<?xml version="1.0" encoding="UTF-8" standalone="no"?>
<svg
   xmlns:dc="http://purl.org/dc/elements/1.1/"
   xmlns:cc="http://creativecommons.org/ns#"
   xmlns:rdf="http://www.w3.org/1999/02/22-rdf-syntax-ns#"
   xmlns:svg="http://www.w3.org/2000/svg"
   xmlns="http://www.w3.org/2000/svg"
   xmlns:xlink="http://www.w3.org/1999/xlink"
   xmlns:sodipodi="http://sodipodi.sourceforge.net/DTD/sodipodi-0.dtd"
   xmlns:inkscape="http://www.inkscape.org/namespaces/inkscape"
   viewBox="0 0 22 22"
   id="svg3007"
   version="1.1"
   inkscape:version="0.48+devel r"
   width="100%"
   height="100%"
   sodipodi:docname="file-save_B.svg">
  <metadata
     id="metadata3037">
    <rdf:RDF>
      <cc:Work
         rdf:about="">
        <dc:format>image/svg+xml</dc:format>
        <dc:type
           rdf:resource="http://purl.org/dc/dcmitype/StillImage" />
        <dc:title></dc:title>
      </cc:Work>
    </rdf:RDF>
  </metadata>
  <defs
     id="defs3035">
    <linearGradient
       id="linearGradient4008-4-7">
      <stop
         id="stop4010-2-0"
         style="stop-color:#dab980;stop-opacity:1"
         offset="0" />
      <stop
         id="stop4012-5-1"
         style="stop-color:#c29856;stop-opacity:1"
         offset="0.71691591" />
      <stop
         id="stop4014-6-6"
         style="stop-color:#a2773a;stop-opacity:1"
         offset="1" />
    </linearGradient>
    <linearGradient
       inkscape:collect="always"
       xlink:href="#linearGradient3187-7-5"
       id="linearGradient3756"
       gradientUnits="userSpaceOnUse"
       gradientTransform="matrix(5.6190474,0,0,4.9043651,-170.71372,8.7516906)"
       x1="48"
       y1="78"
       x2="48"
       y2="5.9877172" />
    <linearGradient
       id="linearGradient3187-7-5">
      <stop
         id="stop3189-4-5"
         style="stop-color:#c29656;stop-opacity:1"
         offset="0" />
      <stop
         id="stop3191-1-8"
         style="stop-color:#ddc08b;stop-opacity:1"
         offset="1" />
    </linearGradient>
    <linearGradient
       inkscape:collect="always"
       xlink:href="#linearGradient4008-4-7"
       id="linearGradient3822"
       gradientUnits="userSpaceOnUse"
       gradientTransform="matrix(4.4715789,0,0,4.4715789,-908.22105,-66.542998)"
       x1="34.85965"
       y1="16.275133"
       x2="34.994316"
       y2="28.905609" />
    <linearGradient
       inkscape:collect="always"
       xlink:href="#linearGradient3187-7-5"
       id="linearGradient3824"
       gradientUnits="userSpaceOnUse"
       gradientTransform="matrix(5.6190474,0,0,4.9043651,-891.75432,21.86152)"
       x1="48"
       y1="78"
       x2="48"
       y2="5.9877172" />
  </defs>
  <sodipodi:namedview
     pagecolor="#ffffff"
     bordercolor="#666666"
     borderopacity="1"
     objecttolerance="10"
     gridtolerance="10"
     guidetolerance="10"
     inkscape:pageopacity="0"
     inkscape:pageshadow="2"
     inkscape:window-width="1855"
     inkscape:window-height="1056"
     id="namedview3033"
     showgrid="false"
     inkscape:zoom="12.001175"
     inkscape:cx="11.772598"
     inkscape:cy="11"
     inkscape:window-x="65"
     inkscape:window-y="24"
     inkscape:window-maximized="1"
     inkscape:current-layer="svg3007" />
  <g
     id="g5054"
     transform="matrix(0.05625,0,0,0.05625,-3.3999996,-3.4)">
    <path
       inkscape:connector-curvature="0"
       style="fill:#ffffff;fill-opacity:1;stroke:#ffffff;stroke-width:6.18405962;stroke-linecap:round;stroke-linejoin:round;stroke-miterlimit:4;stroke-dasharray:none;stroke-opacity:1"
       d="m 186.93662,121.77404 c -50.18674,25.31909 -84.62016,77.32761 -84.62016,137.37792 0,84.92801 68.85293,153.75601 153.78017,153.75601 41.71843,0 79.55174,-16.60729 107.25478,-43.5783 L 341.5381,347.41974 c -23.0333,22.31364 -53.29364,34.56793 -85.44147,34.56793 -32.81494,0 -63.66258,-12.76486 -86.86671,-35.969 -23.20569,-23.20414 -35.99316,-54.05023 -35.99316,-86.86671 0,-41.7424 20.72027,-79.02165 53.69986,-101.57801 l 0,-35.79991 z m 138.32002,0 0,35.79991 c 3.6857,2.52 7.21177,5.24099 10.58054,8.11658 l 22.00655,-21.83746 c -9.8257,-8.67701 -20.77013,-16.11837 -32.58709,-22.07903 z m 48.77193,38.69869 -22.03071,21.83746 c 4.56538,5.68237 8.6115,11.77309 12.1024,18.18983 l 28.45634,-12.31981 c -5.17065,-9.92 -11.40322,-19.20363 -18.52803,-27.70748 z m 27.65918,49.0135 -28.4805,12.34396 c 2.23477,7.03746 3.84533,14.33311 4.78299,21.83746 l 31.11355,0 c -1.18348,-11.84093 -3.70097,-23.28665 -7.41604,-34.18142 z m -22.97282,57.37165 c -0.46226,7.51749 -1.5978,14.91498 -3.38191,22.10318 l 29.10857,10.84626 c 2.89259,-10.57397 4.67998,-21.59706 5.24195,-32.94944 l -30.96861,0 z m -11.08782,43.96479 c -3.06034,6.59376 -6.71609,12.94401 -10.94289,18.93869 l 22.05487,22.15149 c 7.05833,-9.31551 13.08798,-19.46684 17.89995,-30.26807 l -29.01193,-10.82211 z"
       id="path4492" />
    <path
       style="color:#000000;font-style:normal;font-variant:normal;font-weight:normal;font-stretch:normal;font-size:medium;line-height:normal;font-family:Sans;-inkscape-font-specification:Sans;text-indent:0;text-align:start;text-decoration:none;text-decoration-line:none;letter-spacing:normal;word-spacing:normal;text-transform:none;direction:ltr;block-progression:tb;writing-mode:lr-tb;baseline-shift:baseline;text-anchor:start;display:inline;overflow:visible;visibility:visible;fill:#ffffff;fill-opacity:1;fill-rule:nonzero;stroke:none;stroke-width:1;marker:none;enable-background:accumulate"
       d="m 225.80492,96.000002 c -3.49372,-0.003 -6.6739,3.17729 -6.67101,6.671008 l 0,103.85671 c -13.31582,-1.5098 -25.2745,-3.58254 -38.05894,-5.38811 -0.34003,-0.0433 -0.68439,-0.0529 -1.02631,-0.0285 -1.881,0.12003 -3.64922,1.35142 -4.41418,3.07403 -0.76496,1.72262 -0.49274,3.86011 0.67956,5.336 l 75.71876,94.36337 c 1.09486,1.36445 2.24779,2.58191 4.36181,1.93859 1.7884,-0.58348 11.45965,-11.59382 15.53713,-16.67738 7.09472,-8.84351 16.5553,-20.649 26.02832,-32.44275 18.94602,-23.58751 37.91639,-47.15319 37.91639,-47.15319 1.28722,-1.59765 1.49174,-3.98649 0.49483,-5.77971 -0.99689,-1.79321 -3.13384,-2.88036 -5.17023,-2.63031 -14.56986,1.74117 -26.01912,3.72506 -38.14446,5.21707 l 0,-103.68567 c 0.003,-3.493718 -3.17729,-6.673898 -6.67101,-6.670998 l -60.5807,0 z"
       id="path4529"
       inkscape:connector-curvature="0"
       sodipodi:nodetypes="cccccscsccscscccccc" />
  </g>
</svg>
