<?xml version="1.0" encoding="UTF-8" standalone="no"?>
<svg
   xmlns:dc="http://purl.org/dc/elements/1.1/"
   xmlns:cc="http://creativecommons.org/ns#"
   xmlns:rdf="http://www.w3.org/1999/02/22-rdf-syntax-ns#"
   xmlns:svg="http://www.w3.org/2000/svg"
   xmlns="http://www.w3.org/2000/svg"
   xmlns:xlink="http://www.w3.org/1999/xlink"
   xmlns:sodipodi="http://sodipodi.sourceforge.net/DTD/sodipodi-0.dtd"
   xmlns:inkscape="http://www.inkscape.org/namespaces/inkscape"
   viewBox="0 0 22 22"
   id="svg3007"
   version="1.1"
   inkscape:version="0.91pre2 r"
   width="100%"
   height="100%"
   sodipodi:docname="file-save_B.svg">
  <metadata
     id="metadata3037">
    <rdf:RDF>
      <cc:Work
         rdf:about="">
        <dc:format>image/svg+xml</dc:format>
        <dc:type
           rdf:resource="http://purl.org/dc/dcmitype/StillImage" />
        <dc:title />
      </cc:Work>
    </rdf:RDF>
  </metadata>
  <defs
     id="defs3035">
    <linearGradient
       id="linearGradient4008-4-7">
      <stop
         id="stop4010-2-0"
         style="stop-color:#dab980;stop-opacity:1"
         offset="0" />
      <stop
         id="stop4012-5-1"
         style="stop-color:#c29856;stop-opacity:1"
         offset="0.71691591" />
      <stop
         id="stop4014-6-6"
         style="stop-color:#a2773a;stop-opacity:1"
         offset="1" />
    </linearGradient>
    <linearGradient
       inkscape:collect="always"
       xlink:href="#linearGradient3187-7-5"
       id="linearGradient3756"
       gradientUnits="userSpaceOnUse"
       gradientTransform="matrix(5.6190474,0,0,4.9043651,-170.71372,8.7516906)"
       x1="48"
       y1="78"
       x2="48"
       y2="5.9877172" />
    <linearGradient
       id="linearGradient3187-7-5">
      <stop
         id="stop3189-4-5"
         style="stop-color:#c29656;stop-opacity:1"
         offset="0" />
      <stop
         id="stop3191-1-8"
         style="stop-color:#ddc08b;stop-opacity:1"
         offset="1" />
    </linearGradient>
    <linearGradient
       inkscape:collect="always"
       xlink:href="#linearGradient4008-4-7"
       id="linearGradient3822"
       gradientUnits="userSpaceOnUse"
       gradientTransform="matrix(4.4715789,0,0,4.4715789,-908.22105,-66.542998)"
       x1="34.85965"
       y1="16.275133"
       x2="34.994316"
       y2="28.905609" />
    <linearGradient
       inkscape:collect="always"
       xlink:href="#linearGradient3187-7-5"
       id="linearGradient3824"
       gradientUnits="userSpaceOnUse"
       gradientTransform="matrix(5.6190474,0,0,4.9043651,-891.75432,21.86152)"
       x1="48"
       y1="78"
       x2="48"
       y2="5.9877172" />
  </defs>
  <sodipodi:namedview
     pagecolor="#ffffff"
     bordercolor="#666666"
     borderopacity="1"
     objecttolerance="10"
     gridtolerance="10"
     guidetolerance="10"
     inkscape:pageopacity="0"
     inkscape:pageshadow="2"
     inkscape:window-width="1855"
     inkscape:window-height="1056"
     id="namedview3033"
     showgrid="false"
     inkscape:zoom="24.00235"
     inkscape:cx="17.522035"
     inkscape:cy="4.333986"
     inkscape:window-x="65"
     inkscape:window-y="24"
     inkscape:window-maximized="1"
     inkscape:current-layer="svg3007" />
  <path
     style="opacity:0.9;fill:#ffffff;fill-opacity:1;stroke:none;stroke-width:0.34799999;stroke-linecap:round;stroke-linejoin:round;stroke-miterlimit:4;stroke-dasharray:none;stroke-opacity:1"
     d="M 9.2842119,2.0000001 C 9.0857738,1.9998298 8.9053912,2.1802189 8.9055552,2.3786568 l 0,5.8987619 C 8.1492367,8.1916644 7.4701936,8.0742859 6.7440564,7.9717323 c -0.019313,-0.00246 -0.037772,-0.00337 -0.057193,-0.00197 -0.106838,0.00682 -0.2089893,0.077681 -0.2524378,0.1755232 -0.043449,0.097842 -0.027142,0.2179137 0.039443,0.301742 l 4.3013044,5.3603585 c 0.06219,0.0775 0.126448,0.146982 0.246521,0.110442 0.101579,-0.03314 0.651938,-0.657904 0.883532,-0.946642 0.40297,-0.502299 0.939102,-1.174113 1.477156,-1.84398 1.076105,-1.3397342 2.153611,-2.6782063 2.153611,-2.6782062 0.07311,-0.090744 0.08621,-0.2255281 0.02958,-0.3273804 C 15.508953,8.0197678 15.387385,7.957532 15.271721,7.9717345 14.444175,8.0706305 13.793006,8.182816 13.104305,8.26756 l 0,-5.888901 C 13.10448,2.1802156 12.924087,1.9998354 12.725649,2.0000001 l -3.4414371,0 z M 7.0773533,3.4633506 C 4.2268213,4.9014372 2.2711739,7.8564608 2.2711739,11.267229 2.2711739,16.091012 6.1821761,20 11.005916,20 c 2.369545,0 4.518543,-0.943161 6.092035,-2.475074 l -1.240495,-1.24444 c -1.308258,1.267383 -3.025591,1.962311 -4.85154,1.962311 -1.863839,0 -3.6164097,-0.723237 -4.9343697,-2.041198 -1.3180486,-1.31796 -2.0451407,-3.070443 -2.0451407,-4.93437 0,-2.3709063 1.1777561,-4.4894031 3.0509477,-5.7705707 l 0,-2.0333077 z m 7.8571267,0 0,2.0333077 c 0.209343,0.1431323 0.408198,0.2981588 0.59954,0.461488 L 16.784377,4.717651 C 16.226292,4.2248098 15.605666,3.8019072 14.93448,3.4633506 Z m 2.768928,2.19897 -1.250356,1.2404953 c 0.259307,0.3227501 0.488037,0.668956 0.686315,1.0334172 l 1.61718,-0.7001204 C 18.462862,6.6726715 18.108087,6.1453266 17.703408,5.6623206 Z m 1.571819,2.7827326 -1.617179,0.7020927 c 0.126931,0.3997172 0.21693,0.8142595 0.270187,1.2404951 l 1.767065,0 C 19.628079,9.7150942 19.486239,9.06386 19.275227,8.4450532 Z m -1.305576,3.2599978 c -0.02625,0.426982 -0.08997,0.846021 -0.191301,1.254301 l 1.652679,0.617289 c 0.164294,-0.600586 0.265878,-1.226792 0.297797,-1.87159 l -1.759175,0 z m -0.629123,2.496767 c -0.173822,0.374516 -0.381159,0.734345 -0.621234,1.074834 l 1.252329,1.258244 c 0.400902,-0.529108 0.742355,-1.104267 1.015667,-1.71776 l -1.646762,-0.615318 z"
     id="path4492"
     inkscape:connector-curvature="0" />
</svg>
