<?xml version="1.0" encoding="UTF-8" standalone="no"?>
<svg
   xmlns:dc="http://purl.org/dc/elements/1.1/"
   xmlns:cc="http://creativecommons.org/ns#"
   xmlns:rdf="http://www.w3.org/1999/02/22-rdf-syntax-ns#"
   xmlns:svg="http://www.w3.org/2000/svg"
   xmlns="http://www.w3.org/2000/svg"
   xmlns:xlink="http://www.w3.org/1999/xlink"
   xmlns:sodipodi="http://sodipodi.sourceforge.net/DTD/sodipodi-0.dtd"
   xmlns:inkscape="http://www.inkscape.org/namespaces/inkscape"
   viewBox="0 0 22 22"
   id="svg3007"
   version="1.1"
   inkscape:version="0.91pre2 r"
   width="100%"
   height="100%"
   sodipodi:docname="find-location-symbolic.svg">
  <metadata
     id="metadata3037">
    <rdf:RDF>
      <cc:Work
         rdf:about="">
        <dc:format>image/svg+xml</dc:format>
        <dc:type
           rdf:resource="http://purl.org/dc/dcmitype/StillImage" />
        <dc:title />
      </cc:Work>
    </rdf:RDF>
  </metadata>
  <defs
     id="defs3035">
    <linearGradient
       id="linearGradient4008-4-7">
      <stop
         id="stop4010-2-0"
         style="stop-color:#dab980;stop-opacity:1"
         offset="0" />
      <stop
         id="stop4012-5-1"
         style="stop-color:#c29856;stop-opacity:1"
         offset="0.71691591" />
      <stop
         id="stop4014-6-6"
         style="stop-color:#a2773a;stop-opacity:1"
         offset="1" />
    </linearGradient>
    <linearGradient
       inkscape:collect="always"
       xlink:href="#linearGradient3187-7-5"
       id="linearGradient3756"
       gradientUnits="userSpaceOnUse"
       gradientTransform="matrix(5.6190474,0,0,4.9043651,-170.71372,8.7516906)"
       x1="48"
       y1="78"
       x2="48"
       y2="5.9877172" />
    <linearGradient
       id="linearGradient3187-7-5">
      <stop
         id="stop3189-4-5"
         style="stop-color:#c29656;stop-opacity:1"
         offset="0" />
      <stop
         id="stop3191-1-8"
         style="stop-color:#ddc08b;stop-opacity:1"
         offset="1" />
    </linearGradient>
    <linearGradient
       inkscape:collect="always"
       xlink:href="#linearGradient4008-4-7"
       id="linearGradient3822"
       gradientUnits="userSpaceOnUse"
       gradientTransform="matrix(4.4715789,0,0,4.4715789,-908.22105,-66.542998)"
       x1="34.85965"
       y1="16.275133"
       x2="34.994316"
       y2="28.905609" />
    <linearGradient
       inkscape:collect="always"
       xlink:href="#linearGradient3187-7-5"
       id="linearGradient3824"
       gradientUnits="userSpaceOnUse"
       gradientTransform="matrix(5.6190474,0,0,4.9043651,-891.75432,21.86152)"
       x1="48"
       y1="78"
       x2="48"
       y2="5.9877172" />
  </defs>
  <sodipodi:namedview
     pagecolor="#ffffff"
     bordercolor="#666666"
     borderopacity="1"
     objecttolerance="10"
     gridtolerance="10"
     guidetolerance="10"
     inkscape:pageopacity="0"
     inkscape:pageshadow="2"
     inkscape:window-width="1855"
     inkscape:window-height="1056"
     id="namedview3033"
     showgrid="false"
     inkscape:zoom="13.501323"
     inkscape:cx="-8.4795727"
     inkscape:cy="11"
     inkscape:window-x="65"
     inkscape:window-y="24"
     inkscape:window-maximized="1"
     inkscape:current-layer="svg3007" />
  <path
     d="m 11.89206,11.892172 4.37404,0 c -0.37627,2.23749 -2.13655,3.99777 -4.37404,4.37404 l 0,-4.37404 z m -6.1581641,0 4.3740441,0 0,4.37404 C 7.8704509,15.889942 6.1101649,14.129662 5.7338959,11.892172 z M 11.89206,5.7340115 c 2.23749,0.37627 3.99777,2.13655 4.37404,4.3740405 l -4.37404,0 0,-4.3740405 z m -1.78412,0 0,4.3740405 -4.3740441,0 C 6.1101649,7.8705615 7.8704509,6.1102815 10.10794,5.7340115 z m 0.14839,-3.7338997 a 0.16566074,0.16566074 0 0 0 -0.14839,0.16564 l 0,2.2241201 C 7.1371669,4.7878215 4.7877049,7.1372815 4.3897619,10.108052 l -2.224118,0 a 0.16566074,0.16566074 0 0 0 -0.165644,0.16564 l 0,1.45284 a 0.16566074,0.16566074 0 0 0 0.165644,0.16564 l 2.224118,0 c 0.397943,2.97077 2.747405,5.32023 5.7181781,5.71818 l 0,2.22412 a 0.16566074,0.16566074 0 0 0 0.16564,0.16564 l 1.45284,0 a 0.16566074,0.16566074 0 0 0 0.16564,-0.16564 l 0,-2.22412 c 2.97077,-0.39795 5.32023,-2.74741 5.71818,-5.71818 l 2.22412,0 A 0.16566074,0.16566074 0 0 0 20,11.726532 l 0,-1.45284 a 0.16566074,0.16566074 0 0 0 -0.16564,-0.16564 l -2.22412,0 C 17.21229,7.1372815 14.86283,4.7878215 11.89206,4.3898719 l 0,-2.2241201 a 0.16566074,0.16566074 0 0 0 -0.16564,-0.16564 l -1.45284,0 a 0.16566074,0.16566074 0 0 0 -0.0172,0 z"
     style="font-size:medium;font-style:normal;font-variant:normal;font-weight:normal;font-stretch:normal;text-indent:0;text-align:start;text-decoration:none;line-height:normal;letter-spacing:normal;word-spacing:normal;text-transform:none;direction:ltr;block-progression:tb;writing-mode:lr-tb;text-anchor:start;baseline-shift:baseline;color:#000000;fill:#ffffff;fill-opacity:1;fill-rule:nonzero;stroke:none;stroke-width:6;marker:none;visibility:visible;display:inline;overflow:visible;enable-background:accumulate;font-family:Sans;-inkscape-font-specification:Sans;opacity:0.9"
     id="path3901"
     inkscape:connector-curvature="0" />
</svg>
