<?xml version="1.0" encoding="UTF-8" standalone="no"?>
<svg
   xmlns:dc="http://purl.org/dc/elements/1.1/"
   xmlns:cc="http://creativecommons.org/ns#"
   xmlns:rdf="http://www.w3.org/1999/02/22-rdf-syntax-ns#"
   xmlns:svg="http://www.w3.org/2000/svg"
   xmlns="http://www.w3.org/2000/svg"
   xmlns:xlink="http://www.w3.org/1999/xlink"
   xmlns:sodipodi="http://sodipodi.sourceforge.net/DTD/sodipodi-0.dtd"
   xmlns:inkscape="http://www.inkscape.org/namespaces/inkscape"
   viewBox="0 0 22 22"
   id="svg3007"
   version="1.1"
   inkscape:version="0.48.4 r9939"
   width="100%"
   height="100%"
   sodipodi:docname="folder-pictures-symbolic.svg">
  <metadata
     id="metadata3037">
    <rdf:RDF>
      <cc:Work
         rdf:about="">
        <dc:format>image/svg+xml</dc:format>
        <dc:type
           rdf:resource="http://purl.org/dc/dcmitype/StillImage" />
        <dc:title></dc:title>
      </cc:Work>
    </rdf:RDF>
  </metadata>
  <defs
     id="defs3035">
    <linearGradient
       id="linearGradient4008-4-7">
      <stop
         id="stop4010-2-0"
         style="stop-color:#dab980;stop-opacity:1"
         offset="0" />
      <stop
         id="stop4012-5-1"
         style="stop-color:#c29856;stop-opacity:1"
         offset="0.71691591" />
      <stop
         id="stop4014-6-6"
         style="stop-color:#a2773a;stop-opacity:1"
         offset="1" />
    </linearGradient>
    <linearGradient
       inkscape:collect="always"
       xlink:href="#linearGradient3187-7-5"
       id="linearGradient3756"
       gradientUnits="userSpaceOnUse"
       gradientTransform="matrix(5.6190474,0,0,4.9043651,-170.71372,8.7516906)"
       x1="48"
       y1="78"
       x2="48"
       y2="5.9877172" />
    <linearGradient
       id="linearGradient3187-7-5">
      <stop
         id="stop3189-4-5"
         style="stop-color:#c29656;stop-opacity:1"
         offset="0" />
      <stop
         id="stop3191-1-8"
         style="stop-color:#ddc08b;stop-opacity:1"
         offset="1" />
    </linearGradient>
    <linearGradient
       inkscape:collect="always"
       xlink:href="#linearGradient4008-4-7"
       id="linearGradient3822"
       gradientUnits="userSpaceOnUse"
       gradientTransform="matrix(4.4715789,0,0,4.4715789,-908.22105,-66.542998)"
       x1="34.85965"
       y1="16.275133"
       x2="34.994316"
       y2="28.905609" />
    <linearGradient
       inkscape:collect="always"
       xlink:href="#linearGradient3187-7-5"
       id="linearGradient3824"
       gradientUnits="userSpaceOnUse"
       gradientTransform="matrix(5.6190474,0,0,4.9043651,-891.75432,21.86152)"
       x1="48"
       y1="78"
       x2="48"
       y2="5.9877172" />
  </defs>
  <sodipodi:namedview
     pagecolor="#ffffff"
     bordercolor="#666666"
     borderopacity="1"
     objecttolerance="10"
     gridtolerance="10"
     guidetolerance="10"
     inkscape:pageopacity="0"
     inkscape:pageshadow="2"
     inkscape:window-width="1375"
     inkscape:window-height="876"
     id="namedview3033"
     showgrid="false"
     inkscape:zoom="7.2282027"
     inkscape:cx="11"
     inkscape:cy="11"
     inkscape:window-x="1431"
     inkscape:window-y="24"
     inkscape:window-maximized="1"
     inkscape:current-layer="svg3007" />
  <path
     style="color:#000000;fill:#ffffff;fill-opacity:1;fill-rule:nonzero;stroke:none;stroke-width:1.50000000000000000;marker:none;visibility:visible;display:inline;overflow:visible;enable-background:accumulate;opacity:0.9"
     d="M 5.75 2 C 3.6725 2 2 3.6725 2 5.75 L 2 16.25 C 2 18.3275 3.6725 20 5.75 20 L 16.25 20 C 18.3275 20 20 18.3275 20 16.25 L 20 5.75 C 20 3.6725 18.3275 2 16.25 2 L 5.75 2 z M 15.875 3.46875 L 17.8125 3.46875 C 18.127915 3.46875 18.375 3.74876 18.375 4.0625 L 18.375 6 C 18.375 6.31373 18.127915 6.5625 17.8125 6.5625 L 15.875 6.5625 C 15.559497 6.5625 15.3125 6.31373 15.3125 6 L 15.3125 4.0625 C 15.3125 3.74876 15.559497 3.46875 15.875 3.46875 z M 10.5 7.40625 C 10.66455 7.388192 10.830681 7.40625 11 7.40625 C 11.677333 7.40625 12.326575 7.54883 12.90625 7.8125 C 13.320426 8.0008 13.693297 8.23503 14.03125 8.53125 C 14.994487 9.37609 15.59375 10.6211 15.59375 12 C 15.59375 14.53974 13.539955 16.59375 11 16.59375 C 8.4602731 16.59375 6.40625 14.53969 6.40625 12 C 6.40625 10.62104 7.00557 9.37609 7.96875 8.53125 C 8.306589 8.23497 8.679745 8.0008 9.09375 7.8125 C 9.5285062 7.6147475 10.006349 7.460423 10.5 7.40625 z M 11 9.125 C 9.4203361 9.12497 8.125 10.42028 8.125 12 C 8.125 13.57967 9.4203361 14.875 11 14.875 C 12.579665 14.875 13.875 13.57972 13.875 12 C 13.875 10.42028 12.579761 9.125 11 9.125 z "
     id="path5521" />
</svg>
