<?xml version="1.0" encoding="UTF-8" standalone="no"?>
<svg
   xmlns:dc="http://purl.org/dc/elements/1.1/"
   xmlns:cc="http://creativecommons.org/ns#"
   xmlns:rdf="http://www.w3.org/1999/02/22-rdf-syntax-ns#"
   xmlns:svg="http://www.w3.org/2000/svg"
   xmlns="http://www.w3.org/2000/svg"
   xmlns:xlink="http://www.w3.org/1999/xlink"
   xmlns:sodipodi="http://sodipodi.sourceforge.net/DTD/sodipodi-0.dtd"
   xmlns:inkscape="http://www.inkscape.org/namespaces/inkscape"
   viewBox="0 0 22 22"
   id="svg3007"
   version="1.1"
   inkscape:version="0.48.3.1 r9886"
   width="100%"
   height="100%"
   sodipodi:docname="folder-symbolic.svg">
  <metadata
     id="metadata3037">
    <rdf:RDF>
      <cc:Work
         rdf:about="">
        <dc:format>image/svg+xml</dc:format>
        <dc:type
           rdf:resource="http://purl.org/dc/dcmitype/StillImage" />
        <dc:title />
      </cc:Work>
    </rdf:RDF>
  </metadata>
  <defs
     id="defs3035">
    <linearGradient
       id="linearGradient4008-4-7">
      <stop
         id="stop4010-2-0"
         style="stop-color:#dab980;stop-opacity:1"
         offset="0" />
      <stop
         id="stop4012-5-1"
         style="stop-color:#c29856;stop-opacity:1"
         offset="0.71691591" />
      <stop
         id="stop4014-6-6"
         style="stop-color:#a2773a;stop-opacity:1"
         offset="1" />
    </linearGradient>
    <linearGradient
       inkscape:collect="always"
       xlink:href="#linearGradient3187-7-5"
       id="linearGradient3756"
       gradientUnits="userSpaceOnUse"
       gradientTransform="matrix(5.6190474,0,0,4.9043651,-170.71372,8.7516906)"
       x1="48"
       y1="78"
       x2="48"
       y2="5.9877172" />
    <linearGradient
       id="linearGradient3187-7-5">
      <stop
         id="stop3189-4-5"
         style="stop-color:#c29656;stop-opacity:1"
         offset="0" />
      <stop
         id="stop3191-1-8"
         style="stop-color:#ddc08b;stop-opacity:1"
         offset="1" />
    </linearGradient>
    <linearGradient
       inkscape:collect="always"
       xlink:href="#linearGradient4008-4-7"
       id="linearGradient3822"
       gradientUnits="userSpaceOnUse"
       gradientTransform="matrix(4.4715789,0,0,4.4715789,-908.22105,-66.542998)"
       x1="34.85965"
       y1="16.275133"
       x2="34.994316"
       y2="28.905609" />
    <linearGradient
       inkscape:collect="always"
       xlink:href="#linearGradient3187-7-5"
       id="linearGradient3824"
       gradientUnits="userSpaceOnUse"
       gradientTransform="matrix(5.6190474,0,0,4.9043651,-891.75432,21.86152)"
       x1="48"
       y1="78"
       x2="48"
       y2="5.9877172" />
    <linearGradient
       inkscape:collect="always"
       xlink:href="#linearGradient3187-7-5"
       id="linearGradient4005"
       gradientUnits="userSpaceOnUse"
       gradientTransform="matrix(0.21428569,0,0,0.18703086,-7.4973101,3.9570342)"
       x1="48"
       y1="78"
       x2="48"
       y2="5.9877172" />
    <linearGradient
       inkscape:collect="always"
       xlink:href="#linearGradient4008-4-7"
       id="linearGradient4008"
       gradientUnits="userSpaceOnUse"
       gradientTransform="matrix(0.1705263,0,0,0.1705263,-8.1252786,0.58567571)"
       x1="34.85965"
       y1="16.275133"
       x2="34.994316"
       y2="28.905609" />
  </defs>
  <sodipodi:namedview
     pagecolor="#ffffff"
     bordercolor="#666666"
     borderopacity="1"
     objecttolerance="10"
     gridtolerance="10"
     guidetolerance="10"
     inkscape:pageopacity="0"
     inkscape:pageshadow="2"
     inkscape:window-width="1301"
     inkscape:window-height="744"
     id="namedview3033"
     showgrid="false"
     inkscape:zoom="12.001175"
     inkscape:cx="9.9394437"
     inkscape:cy="11"
     inkscape:window-x="65"
     inkscape:window-y="24"
     inkscape:window-maximized="1"
     inkscape:current-layer="svg3007" />
  <path
     inkscape:connector-curvature="0"
     id="path3742"
     d="M 5.75,2 C 3.7701071,2 2.1783912,3.5277574 2.03125,5.46875 c 0.1794784,-0.7527971 0.9423734,-1.3125 1.75,-1.3125 l 3.9375,0 c 0.7276267,0.1205245 0.7900778,0.4818227 1.5,1.21875 l 9,0 C 19.25616,5.375 20,6.0841698 20,7 L 20,6.625 20,5.75 C 20,3.6725002 18.3275,2 16.25,2 L 5.75,2 z"
     style="color:#000000;fill:#ffffff;fill-opacity:1;fill-rule:nonzero;stroke:none;stroke-width:1;marker:none;visibility:visible;display:inline;overflow:visible;enable-background:accumulate;opacity:0.90000000000000002" />
  <path
     sodipodi:nodetypes="sscccsssscccssccs"
     id="path3744"
     d="m 3.7947571,5.6610865 c -0.9230018,0 -1.7947563,0.7275756 -1.7947563,1.6434055 l 0,2.918495 0,0.798464 0,3.668167 0,1.559984 c 0,2.0775 1.6728974,3.750397 3.750397,3.750397 l 10.4992042,0 c 2.0775,0 3.750397,-1.672897 3.750397,-3.750397 l 0,-1.559984 0,-3.668167 0,-0.798464 0,-1.7100735 c 0,-0.9158304 -0.757346,-1.6434056 -1.794756,-1.6434056 l -8.9892735,0 C 8.5060473,6.1325807 8.4491578,5.781611 7.7215311,5.6610865 z"
     style="opacity:0.90000000000000002;color:#000000;fill:#ffffff;fill-opacity:1;fill-rule:nonzero;stroke:none;stroke-width:1;marker:none;visibility:visible;display:inline;overflow:visible;enable-background:accumulate"
     inkscape:connector-curvature="0" />
  <path
     inkscape:connector-curvature="0"
     id="path3818"
     d="m -21.746909,2.4999519 c -2.077501,0 -3.750399,1.6728972 -3.750399,3.750397 l 0,0.8795019 0,9.6197022 c 0,2.0775 1.672898,3.750397 3.750399,3.750397 l 10.499203,0 c 2.0774997,0 3.7503966,-1.672897 3.7503966,-3.750397 l 0,-9.6197022 0,-0.8795019 c 0,-2.0774998 -1.6728969,-3.750397 -3.7503966,-3.750397 l -10.499203,0 z"
     style="color:#000000;fill:url(#linearGradient4008);fill-opacity:1;fill-rule:nonzero;stroke:none;stroke-width:1;marker:none;visibility:visible;display:inline;overflow:visible;enable-background:accumulate" />
  <path
     inkscape:connector-curvature="0"
     style="color:#000000;fill:url(#linearGradient4005);fill-opacity:1;fill-rule:nonzero;stroke:none;stroke-width:1;marker:none;visibility:visible;display:inline;overflow:visible;enable-background:accumulate"
     d="m -23.702552,4.6605715 c -0.923003,0 -1.794756,0.7275755 -1.794756,1.6434055 l 0,4.418961 0,0.798464 0,3.668167 0,1.559984 c 0,2.0775 1.672898,3.750397 3.750399,3.750397 l 10.499203,0 c 2.0774997,0 3.7503966,-1.672897 3.7503966,-3.750397 l 0,-1.559984 0,-3.668167 0,-0.798464 0,-3.2105396 c 0,-0.9158302 -0.7573461,-1.6434054 -1.7947562,-1.6434054 l -8.9892714,0 c -0.709925,-0.7369274 -0.766815,-1.0878971 -1.494439,-1.2084215 l -3.926776,0 z"
     id="path3820" />
</svg>
