<?xml version="1.0" encoding="UTF-8" standalone="no"?>
<svg
   xmlns:dc="http://purl.org/dc/elements/1.1/"
   xmlns:cc="http://creativecommons.org/ns#"
   xmlns:rdf="http://www.w3.org/1999/02/22-rdf-syntax-ns#"
   xmlns:svg="http://www.w3.org/2000/svg"
   xmlns="http://www.w3.org/2000/svg"
   xmlns:xlink="http://www.w3.org/1999/xlink"
   xmlns:sodipodi="http://sodipodi.sourceforge.net/DTD/sodipodi-0.dtd"
   xmlns:inkscape="http://www.inkscape.org/namespaces/inkscape"
   viewBox="0 0 22 22"
   id="svg3007"
   version="1.1"
   inkscape:version="0.48.3.1 r9886"
   width="100%"
   height="100%"
   sodipodi:docname="folder-music-symbolic.svg">
  <metadata
     id="metadata3037">
    <rdf:RDF>
      <cc:Work
         rdf:about="">
        <dc:format>image/svg+xml</dc:format>
        <dc:type
           rdf:resource="http://purl.org/dc/dcmitype/StillImage" />
        <dc:title></dc:title>
      </cc:Work>
    </rdf:RDF>
  </metadata>
  <defs
     id="defs3035">
    <linearGradient
       id="linearGradient4008-4-7">
      <stop
         id="stop4010-2-0"
         style="stop-color:#dab980;stop-opacity:1"
         offset="0" />
      <stop
         id="stop4012-5-1"
         style="stop-color:#c29856;stop-opacity:1"
         offset="0.71691591" />
      <stop
         id="stop4014-6-6"
         style="stop-color:#a2773a;stop-opacity:1"
         offset="1" />
    </linearGradient>
    <linearGradient
       inkscape:collect="always"
       xlink:href="#linearGradient3187-7-5"
       id="linearGradient3756"
       gradientUnits="userSpaceOnUse"
       gradientTransform="matrix(5.6190474,0,0,4.9043651,-170.71372,8.7516906)"
       x1="48"
       y1="78"
       x2="48"
       y2="5.9877172" />
    <linearGradient
       id="linearGradient3187-7-5">
      <stop
         id="stop3189-4-5"
         style="stop-color:#c29656;stop-opacity:1"
         offset="0" />
      <stop
         id="stop3191-1-8"
         style="stop-color:#ddc08b;stop-opacity:1"
         offset="1" />
    </linearGradient>
    <linearGradient
       inkscape:collect="always"
       xlink:href="#linearGradient4008-4-7"
       id="linearGradient3822"
       gradientUnits="userSpaceOnUse"
       gradientTransform="matrix(4.4715789,0,0,4.4715789,-908.22105,-66.542998)"
       x1="34.85965"
       y1="16.275133"
       x2="34.994316"
       y2="28.905609" />
    <linearGradient
       inkscape:collect="always"
       xlink:href="#linearGradient3187-7-5"
       id="linearGradient3824"
       gradientUnits="userSpaceOnUse"
       gradientTransform="matrix(5.6190474,0,0,4.9043651,-891.75432,21.86152)"
       x1="48"
       y1="78"
       x2="48"
       y2="5.9877172" />
  </defs>
  <sodipodi:namedview
     pagecolor="#ffffff"
     bordercolor="#666666"
     borderopacity="1"
     objecttolerance="10"
     gridtolerance="10"
     guidetolerance="10"
     inkscape:pageopacity="0"
     inkscape:pageshadow="2"
     inkscape:window-width="1301"
     inkscape:window-height="744"
     id="namedview3033"
     showgrid="false"
     inkscape:zoom="12.001175"
     inkscape:cx="-2.7676454"
     inkscape:cy="11"
     inkscape:window-x="65"
     inkscape:window-y="24"
     inkscape:window-maximized="1"
     inkscape:current-layer="svg3007" />
  <path
     inkscape:connector-curvature="0"
     id="path3971"
     d="m 12.701834,2.8956281 c -3.4615106,-0.007 -6.6061106,2.3063799 -7.5346306,5.8082199 -0.79732,3.00707 0.25672,6.07703 2.48084,7.96574 a 0.18813944,0.18813944 0 0 0 -0.0353,0.0686 c -0.0401,0.14083 -0.0714,0.25662 -0.11366,0.38604 -0.0903,0.2768 -0.19959,0.528 -0.31549,0.68194 -0.12671,0.16829 -0.20432,0.23885 -0.39192,0.27434 -0.38316,0.0725 -0.79751,-0.17684 -1.29921,-0.58396 -0.49768,-0.40385 -1.04717,-0.98095 -1.84593,-1.07777 -0.16824,-0.0204 -0.32466,-0.0238 -0.4703,-0.0137 -0.43691,0.0303 -0.77395,0.18144 -1.01703,0.34489 -0.15516,0.10433 -0.27793,0.20147 -0.37036,0.27434 -0.0924,0.0729 -0.16355,0.11958 -0.16852,0.1215 a 0.18813944,0.18813944 0 0 0 -0.10778,0.24299 l 0.22927,0.59767 a 0.18813944,0.18813944 0 0 0 0.24495,0.10778 c 0.38395,-0.14767 0.56767,-0.39452 0.72701,-0.50166 0.1736,-0.11674 0.34359,-0.18867 0.81715,-0.13129 0.31277,0.0379 0.79834,0.40132 1.33252,0.83479 0.54104,0.43904 1.23768,0.94149 2.11243,0.77599 0.44902,-0.0849 0.78374,-0.34136 1.01507,-0.64862 0.2271,-0.30163 0.38001,-0.64504 0.48794,-0.97588 0.0221,-0.0676 0.0301,-0.11484 0.0372,-0.1548 0.65713,0.41597 1.3900503,0.73872 2.1810306,0.94844 4.16662,1.10478 8.4345,-1.36334 9.53928,-5.52996 1.10477,-4.16662 -1.36334,-8.45606 -5.52996,-9.5608399 -0.0162,-0.004 -0.0523,0.004 -0.0686,0 -0.64862,-0.16758 -1.29505,-0.25328 -1.93607,-0.25475 z m -1.76559,1.2423799 c 0.18033,-0.002 0.34389,0.0302 0.52125,0.0725 0.006,0.001 0.0169,-0.001 0.0235,0 0.65135,0.16158 1.23678,0.61645 1.49713,1.28941 0.42452,1.09734 -0.12349,2.34047 -1.22083,2.76499 -1.09734,0.42452 -2.3404606,-0.12349 -2.7649806,-1.22083 -0.42452,-1.09733 0.12349,-2.34045 1.2208306,-2.76498 0.20886,-0.0808 0.43218,-0.12564 0.6447,-0.13913 0.0266,-0.002 0.0526,-0.002 0.0784,-0.002 z m 5.45157,1.4305 c 0.15984,0.001 0.32841,0.0102 0.48402,0.047 0.43557,0.10627 0.87108,0.36256 1.17576,0.73681 0.74284,0.91244 0.58911,2.25337 -0.32334,2.99621 -0.91244,0.74285 -2.25141,0.6126299 -2.99425,-0.29982 -0.74284,-0.91244 -0.61263,-2.25336 0.29982,-2.99621 0.4005,-0.32605 0.87849,-0.48771 1.35799,-0.48402 z m -8.4654206,3.24704 c 0.19106,-10e-4 0.38829,0.0299 0.5624,0.0725 0.0132,0.003 0.0103,0.0179 0.0235,0.0215 0.86856,0.23028 1.5156906,0.9907199 1.5676806,1.93608 0.0647,1.17481 -0.8298506,2.19278 -2.0046706,2.25744 -1.17481,0.0646 -2.17122,-0.85139 -2.23589,-2.02621 -0.0647,-1.1748101 0.82985,-2.19475 2.00466,-2.25941 0.0269,-0.001 0.055,-0.002 0.0823,-0.002 z m 4.8597806,1.0346599 c 0.0266,-0.002 0.0528,-0.002 0.0803,0.004 0.0125,0.003 0.0346,0.0198 0.047,0.0235 0.45492,0.12063 0.74181,0.5817001 0.62119,1.0366201 -0.12062,0.45492 -0.58171,0.74378 -1.03662,0.62315 -0.45493,-0.12062 -0.74182,-0.60522 -0.62119,-1.06014 0.10225,-0.38565 0.44721,-0.6283101 0.82891,-0.6231501 0.0273,3.8e-4 0.0537,-0.002 0.0803,-0.004 z m 3.90938,1.2894101 c 0.16807,-0.001 0.34283,0.0117 0.50362,0.051 0.0136,0.003 0.01,0.0198 0.0235,0.0235 0.21081,0.0559 0.42814,0.15165 0.62119,0.2763 0.98844,0.63824 1.28295,1.96074 0.64471,2.94918 -0.63824,0.98845 -1.96075,1.26139 -2.94919,0.62315 -0.98845,-0.63823 -1.28294,-1.96073 -0.6447,-2.94918 0.37916,-0.58722 0.98812,-0.92343 1.63626,-0.96804 0.054,-0.004 0.10858,-0.005 0.1646,-0.006 z m -5.24778,2.00858 c 0.18043,-0.002 0.36026,0.0254 0.54477,0.0706 0.009,0.002 0.0127,-0.002 0.0216,0 1.13729,0.30155 1.8222,1.49052 1.52064,2.62781 -0.30155,1.1373 -1.46504,1.79868 -2.60233,1.49713 -1.1373003,-0.30156 -1.8222006,-1.467 -1.5206406,-2.6043 0.2421403,-0.91324 1.0626206,-1.53754 1.9576306,-1.58923 0.0258,-10e-4 0.0526,-0.002 0.0784,-0.002 z"
     style="font-size:medium;font-style:normal;font-variant:normal;font-weight:normal;font-stretch:normal;text-indent:0;text-align:start;text-decoration:none;line-height:normal;letter-spacing:normal;word-spacing:normal;text-transform:none;direction:ltr;block-progression:tb;writing-mode:lr-tb;text-anchor:start;baseline-shift:baseline;color:#000000;fill:#ffffff;fill-opacity:1;fill-rule:nonzero;stroke:none;stroke-width:1;marker:none;visibility:visible;display:inline;overflow:visible;filter:url(#filter1111);enable-background:accumulate;font-family:Sans;-inkscape-font-specification:Sans;opacity:0.9" />
</svg>
