<?xml version="1.0" encoding="UTF-8" standalone="no"?>
<svg
   xmlns:dc="http://purl.org/dc/elements/1.1/"
   xmlns:cc="http://creativecommons.org/ns#"
   xmlns:rdf="http://www.w3.org/1999/02/22-rdf-syntax-ns#"
   xmlns:svg="http://www.w3.org/2000/svg"
   xmlns="http://www.w3.org/2000/svg"
   xmlns:xlink="http://www.w3.org/1999/xlink"
   xmlns:sodipodi="http://sodipodi.sourceforge.net/DTD/sodipodi-0.dtd"
   xmlns:inkscape="http://www.inkscape.org/namespaces/inkscape"
   viewBox="0 0 22 22"
   id="svg3007"
   version="1.1"
   inkscape:version="0.48.4 r9939"
   width="100%"
   height="100%"
   sodipodi:docname="folder-music-symbolic.svg">
  <metadata
     id="metadata3037">
    <rdf:RDF>
      <cc:Work
         rdf:about="">
        <dc:format>image/svg+xml</dc:format>
        <dc:type
           rdf:resource="http://purl.org/dc/dcmitype/StillImage" />
        <dc:title></dc:title>
      </cc:Work>
    </rdf:RDF>
  </metadata>
  <defs
     id="defs3035">
    <linearGradient
       id="linearGradient4008-4-7">
      <stop
         id="stop4010-2-0"
         style="stop-color:#dab980;stop-opacity:1"
         offset="0" />
      <stop
         id="stop4012-5-1"
         style="stop-color:#c29856;stop-opacity:1"
         offset="0.71691591" />
      <stop
         id="stop4014-6-6"
         style="stop-color:#a2773a;stop-opacity:1"
         offset="1" />
    </linearGradient>
    <linearGradient
       inkscape:collect="always"
       xlink:href="#linearGradient3187-7-5"
       id="linearGradient3756"
       gradientUnits="userSpaceOnUse"
       gradientTransform="matrix(5.6190474,0,0,4.9043651,-170.71372,8.7516906)"
       x1="48"
       y1="78"
       x2="48"
       y2="5.9877172" />
    <linearGradient
       id="linearGradient3187-7-5">
      <stop
         id="stop3189-4-5"
         style="stop-color:#c29656;stop-opacity:1"
         offset="0" />
      <stop
         id="stop3191-1-8"
         style="stop-color:#ddc08b;stop-opacity:1"
         offset="1" />
    </linearGradient>
    <linearGradient
       inkscape:collect="always"
       xlink:href="#linearGradient4008-4-7"
       id="linearGradient3822"
       gradientUnits="userSpaceOnUse"
       gradientTransform="matrix(4.4715789,0,0,4.4715789,-908.22105,-66.542998)"
       x1="34.85965"
       y1="16.275133"
       x2="34.994316"
       y2="28.905609" />
    <linearGradient
       inkscape:collect="always"
       xlink:href="#linearGradient3187-7-5"
       id="linearGradient3824"
       gradientUnits="userSpaceOnUse"
       gradientTransform="matrix(5.6190474,0,0,4.9043651,-891.75432,21.86152)"
       x1="48"
       y1="78"
       x2="48"
       y2="5.9877172" />
  </defs>
  <sodipodi:namedview
     pagecolor="#ffffff"
     bordercolor="#666666"
     borderopacity="1"
     objecttolerance="10"
     gridtolerance="10"
     guidetolerance="10"
     inkscape:pageopacity="0"
     inkscape:pageshadow="2"
     inkscape:window-width="1301"
     inkscape:window-height="744"
     id="namedview3033"
     showgrid="false"
     inkscape:zoom="12.001175"
     inkscape:cx="0.23206088"
     inkscape:cy="11"
     inkscape:window-x="65"
     inkscape:window-y="24"
     inkscape:window-maximized="1"
     inkscape:current-layer="svg3007" />
  <path
     style="opacity:0.90000000000000002;fill:#ffffff;stroke:none"
     d="M 5.75 2 C 3.6725 2 2 3.6725 2 5.75 L 2 6.625 L 2 16.25 C 2 18.3275 3.6725 20 5.75 20 L 16.25 20 C 18.3275 20 20 18.3275 20 16.25 L 20 6.625 L 20 5.75 C 20 3.6725 18.3275 2 16.25 2 L 5.75 2 z M 4.90625 6.84375 L 10.25 6.84375 L 10.25 8.125 L 6.40625 8.125 L 6.40625 10.1875 L 9.8125 10.1875 L 9.8125 11.4375 L 6.40625 11.4375 L 6.40625 13.875 L 10.53125 13.875 L 10.53125 15.15625 L 4.90625 15.15625 L 4.90625 6.84375 z M 14.4375 8.75 C 14.949496 8.7500064 15.374746 8.8247563 15.71875 8.96875 C 16.062745 9.1047561 16.331245 9.3065059 16.53125 9.5625 C 16.739244 9.8105054 16.888744 10.108755 16.96875 10.46875 C 17.056744 10.820754 17.093744 11.201004 17.09375 11.625 L 17.09375 15.15625 L 15.65625 15.15625 L 15.65625 11.84375 C 15.656245 11.507754 15.610495 11.232004 15.5625 11 C 15.522495 10.760004 15.478995 10.581505 15.375 10.4375 C 15.278996 10.285505 15.144746 10.157755 14.96875 10.09375 C 14.800746 10.021755 14.591746 10.000005 14.34375 10 C 14.159747 10.000005 13.949997 10.007255 13.75 10.03125 C 13.549997 10.055255 13.408498 10.077755 13.3125 10.09375 L 13.3125 15.15625 L 11.84375 15.15625 L 11.84375 9.09375 C 12.123749 9.0137562 12.489498 8.9157562 12.9375 8.84375 C 13.385498 8.7717564 13.893497 8.7500064 14.4375 8.75 z "
     id="rect5505" />
</svg>
