<?xml version="1.0" encoding="UTF-8" standalone="no"?>
<!-- Created with Inkscape (http://www.inkscape.org/) -->

<svg
   xmlns:dc="http://purl.org/dc/elements/1.1/"
   xmlns:cc="http://creativecommons.org/ns#"
   xmlns:rdf="http://www.w3.org/1999/02/22-rdf-syntax-ns#"
   xmlns:svg="http://www.w3.org/2000/svg"
   xmlns="http://www.w3.org/2000/svg"
   xmlns:sodipodi="http://sodipodi.sourceforge.net/DTD/sodipodi-0.dtd"
   xmlns:inkscape="http://www.inkscape.org/namespaces/inkscape"
   width="22"
   height="22"
   id="svg2"
   version="1.1"
   inkscape:version="0.48.3.1 r9886"
   sodipodi:docname="indicator-messages-new.svg">
  <defs
     id="defs4" />
  <sodipodi:namedview
     id="base"
     pagecolor="#ffffff"
     bordercolor="#666666"
     borderopacity="1.0"
     inkscape:pageopacity="0.0"
     inkscape:pageshadow="2"
     inkscape:zoom="11.8125"
     inkscape:cx="8.6137566"
     inkscape:cy="12"
     inkscape:document-units="px"
     inkscape:current-layer="layer1"
     showgrid="false"
     inkscape:window-width="1044"
     inkscape:window-height="700"
     inkscape:window-x="65"
     inkscape:window-y="38"
     inkscape:window-maximized="0" />
  <metadata
     id="metadata7">
    <rdf:RDF>
      <cc:Work
         rdf:about="">
        <dc:format>image/svg+xml</dc:format>
        <dc:type
           rdf:resource="http://purl.org/dc/dcmitype/StillImage" />
        <dc:title />
      </cc:Work>
    </rdf:RDF>
  </metadata>
  <g
     inkscape:label="Livello 1"
     inkscape:groupmode="layer"
     id="layer1"
     transform="translate(0,-1030.3622)">
    <path
       style="opacity:0.9;color:#000000;fill:#55cdef;fill-opacity:1;fill-rule:nonzero;stroke-width:1;stroke-linecap:butt;stroke-linejoin:miter;stroke-miterlimit:4;stroke-opacity:1;stroke-dasharray:none;stroke-dashoffset:0;marker:none;visibility:visible;display:inline;overflow:visible;enable-background:accumulate"
       d="m 3.9476608,1034.31 c -0.3131239,0.3251 -0.4081963,0.7876 -0.1949761,1.1912 0.093944,0.1781 0.2440352,0.3347 0.3970945,0.4693 0.1712509,0.1509 0.1773571,0.2753 0.069831,0.4741 -1.0226861,1.8918 -0.973634,3.7612 0.2647886,5.5235 0.4846553,0.6897 1.1462069,1.2539 1.7244242,1.8785 0.3556076,0.3843 0.7057137,0.7738 1.056492,1.1624 0.6292354,0.6973 0.873681,1.5366 0.6859601,2.4308 -0.154944,0.7381 0.5506115,1.6192 0.614877,1.6835 l 0.7389072,0.7389 C 12.703374,1046.4639 16.101687,1043.0656 19.5,1039.6673 l -0.738907,-0.7389 c -0.06426,-0.064 -0.945468,-0.7699 -1.683463,-0.6149 -0.894223,0.1877 -1.733543,-0.056 -2.430846,-0.686 -0.388559,-0.3508 -0.778138,-0.7008 -1.16241,-1.0564 -0.624649,-0.5783 -1.188793,-1.2398 -1.878458,-1.7245 -1.762312,-1.2384 -3.6318017,-1.2874 -5.5235042,-0.2647 -0.1990981,0.1072 -0.3233217,0.1014 -0.4741623,-0.07 -0.1346501,-0.1529 -0.291222,-0.303 -0.4692562,-0.397 -0.4036843,-0.2133 -0.8692327,-0.1213 -1.1913096,0.1949 z"
       id="path2995" />
    <path
       style="opacity:0.9;color:#000000;fill:#55cdef;fill-opacity:1;fill-rule:nonzero;stroke-width:1;stroke-linecap:butt;stroke-linejoin:miter;stroke-miterlimit:4;stroke-opacity:1;stroke-dasharray:none;stroke-dashoffset:0;marker:none;visibility:visible;display:inline;overflow:visible;enable-background:accumulate"
       d="m 12.059,1048.5481 c 0.973156,0.242 1.876709,-0.05 2.480127,-0.6462 0.593383,-0.6055 0.888252,-1.5071 0.646226,-2.4802 -1.042122,1.0421 -2.084237,2.0842 -3.126353,3.1264 z"
       id="path5740"
       inkscape:connector-curvature="0" />
  </g>
</svg>
