<?xml version="1.0" encoding="UTF-8" standalone="no"?>
<svg
   xmlns:dc="http://purl.org/dc/elements/1.1/"
   xmlns:cc="http://creativecommons.org/ns#"
   xmlns:rdf="http://www.w3.org/1999/02/22-rdf-syntax-ns#"
   xmlns:svg="http://www.w3.org/2000/svg"
   xmlns="http://www.w3.org/2000/svg"
   xmlns:xlink="http://www.w3.org/1999/xlink"
   xmlns:sodipodi="http://sodipodi.sourceforge.net/DTD/sodipodi-0.dtd"
   xmlns:inkscape="http://www.inkscape.org/namespaces/inkscape"
   viewBox="0 0 22 22"
   id="svg3007"
   version="1.1"
   inkscape:version="0.48.4 r9939"
   width="100%"
   height="100%"
   sodipodi:docname="indicator-keyboard-En.svg">
  <metadata
     id="metadata3037">
    <rdf:RDF>
      <cc:Work
         rdf:about="">
        <dc:format>image/svg+xml</dc:format>
        <dc:type
           rdf:resource="http://purl.org/dc/dcmitype/StillImage" />
        <dc:title></dc:title>
      </cc:Work>
    </rdf:RDF>
  </metadata>
  <defs
     id="defs3035">
    <linearGradient
       id="linearGradient4008-4-7">
      <stop
         id="stop4010-2-0"
         style="stop-color:#dab980;stop-opacity:1"
         offset="0" />
      <stop
         id="stop4012-5-1"
         style="stop-color:#c29856;stop-opacity:1"
         offset="0.71691591" />
      <stop
         id="stop4014-6-6"
         style="stop-color:#a2773a;stop-opacity:1"
         offset="1" />
    </linearGradient>
    <linearGradient
       inkscape:collect="always"
       xlink:href="#linearGradient3187-7-5"
       id="linearGradient3756"
       gradientUnits="userSpaceOnUse"
       gradientTransform="matrix(5.6190474,0,0,4.9043651,-170.71372,8.7516906)"
       x1="48"
       y1="78"
       x2="48"
       y2="5.9877172" />
    <linearGradient
       id="linearGradient3187-7-5">
      <stop
         id="stop3189-4-5"
         style="stop-color:#c29656;stop-opacity:1"
         offset="0" />
      <stop
         id="stop3191-1-8"
         style="stop-color:#ddc08b;stop-opacity:1"
         offset="1" />
    </linearGradient>
    <linearGradient
       inkscape:collect="always"
       xlink:href="#linearGradient4008-4-7"
       id="linearGradient3822"
       gradientUnits="userSpaceOnUse"
       gradientTransform="matrix(4.4715789,0,0,4.4715789,-908.22105,-66.542998)"
       x1="34.85965"
       y1="16.275133"
       x2="34.994316"
       y2="28.905609" />
    <linearGradient
       inkscape:collect="always"
       xlink:href="#linearGradient3187-7-5"
       id="linearGradient3824"
       gradientUnits="userSpaceOnUse"
       gradientTransform="matrix(5.6190474,0,0,4.9043651,-891.75432,21.86152)"
       x1="48"
       y1="78"
       x2="48"
       y2="5.9877172" />
  </defs>
  <sodipodi:namedview
     pagecolor="#ffffff"
     bordercolor="#666666"
     borderopacity="1"
     objecttolerance="10"
     gridtolerance="10"
     guidetolerance="10"
     inkscape:pageopacity="0"
     inkscape:pageshadow="2"
     inkscape:window-width="1301"
     inkscape:window-height="744"
     id="namedview3033"
     showgrid="false"
     inkscape:zoom="12.001175"
     inkscape:cx="0.23206088"
     inkscape:cy="11"
     inkscape:window-x="65"
     inkscape:window-y="24"
     inkscape:window-maximized="1"
     inkscape:current-layer="svg3007" />
  <path
     style="opacity:0.90000000000000002;fill:#ffffff;stroke:none"
     d="M 5.75 2 C 3.6725 2 2 3.6725 2 5.75 L 2 6.625 L 2 16.25 C 2 18.3275 3.6725 20 5.75 20 L 16.25 20 C 18.3275 20 20 18.3275 20 16.25 L 20 6.625 L 20 5.75 C 20 3.6725 18.3275 2 16.25 2 L 5.75 2 z M 7.34375 6.78125 L 8.84375 6.78125 L 8.84375 15.09375 L 7.34375 15.09375 L 7.34375 6.78125 z M 12.15625 6.90625 L 12.15625 8.8125 L 14.40625 8.8125 L 14.40625 10.03125 L 12.15625 10.03125 L 12.15625 12.5625 C 12.156248 13.066502 12.246248 13.440252 12.40625 13.65625 C 12.566247 13.872251 12.834747 13.968751 13.21875 13.96875 C 13.482746 13.968751 13.706246 13.962251 13.90625 13.90625 C 14.114246 13.850251 14.286246 13.798001 14.40625 13.75 L 14.65625 14.90625 C 14.488245 14.97825 14.271996 15.053 14 15.125 C 13.727996 15.205 13.399246 15.21875 13.03125 15.21875 C 12.583247 15.21875 12.210248 15.1825 11.90625 15.0625 C 11.610248 14.9425 11.363498 14.75525 11.1875 14.53125 C 11.011499 14.299251 10.884499 14.038751 10.8125 13.71875 C 10.740499 13.390752 10.718749 13.009752 10.71875 12.59375 L 10.71875 7.15625 L 12.15625 6.90625 z "
     id="rect5505" />
</svg>
