<?xml version="1.0" encoding="UTF-8" standalone="no"?>
<!-- Created with Inkscape (http://www.inkscape.org/) -->

<svg
   xmlns:dc="http://purl.org/dc/elements/1.1/"
   xmlns:cc="http://creativecommons.org/ns#"
   xmlns:rdf="http://www.w3.org/1999/02/22-rdf-syntax-ns#"
   xmlns:svg="http://www.w3.org/2000/svg"
   xmlns="http://www.w3.org/2000/svg"
   xmlns:sodipodi="http://sodipodi.sourceforge.net/DTD/sodipodi-0.dtd"
   xmlns:inkscape="http://www.inkscape.org/namespaces/inkscape"
   width="22"
   height="22"
   id="svg2"
   version="1.1"
   inkscape:version="0.48.3.1 r9886"
   sodipodi:docname="indicator-messages.svg">
  <defs
     id="defs4" />
  <sodipodi:namedview
     id="base"
     pagecolor="#ffffff"
     bordercolor="#666666"
     borderopacity="1.0"
     inkscape:pageopacity="0.0"
     inkscape:pageshadow="2"
     inkscape:zoom="11.8125"
     inkscape:cx="15.978836"
     inkscape:cy="15.386243"
     inkscape:document-units="px"
     inkscape:current-layer="layer1"
     showgrid="false"
     inkscape:window-width="1044"
     inkscape:window-height="700"
     inkscape:window-x="88"
     inkscape:window-y="24"
     inkscape:window-maximized="0" />
  <metadata
     id="metadata7">
    <rdf:RDF>
      <cc:Work
         rdf:about="">
        <dc:format>image/svg+xml</dc:format>
        <dc:type
           rdf:resource="http://purl.org/dc/dcmitype/StillImage" />
        <dc:title />
      </cc:Work>
    </rdf:RDF>
  </metadata>
  <g
     inkscape:label="Livello 1"
     inkscape:groupmode="layer"
     id="layer1"
     transform="translate(0,-1030.3622)">
    <path
       sodipodi:nodetypes="cccccccssccssccccccccccc"
       inkscape:connector-curvature="0"
       id="path5740"
       d="m 10.999982,1033.1122 c -0.43554,0.01 -0.815911,0.2589 -0.945865,0.6798 -0.057429,0.1856 -0.061835,0.3948 -0.04924,0.5911 0.01391,0.2198 -0.066856,0.3089 -0.2758757,0.3712 -1.9884884,0.5929 -3.2305793,1.9019 -3.5880262,3.9493 -0.1398781,0.8013 -0.073425,1.6376 -0.1050979,2.4583 -0.019555,0.5048 -0.046451,1.0095 -0.072265,1.514 -0.046451,0.9051 -0.4523271,1.6445 -1.1905392,2.1265 -0.6092519,0.3979 -0.7290966,1.4805 -0.7290966,1.5682 l 0,1.0084 c 4.6373499,0 9.2746996,0 13.9120496,0 l 0,-1.0084 c 0,-0.087 -0.119844,-1.1703 -0.7291,-1.5682 -0.738212,-0.482 -1.144103,-1.2214 -1.190539,-2.1265 -0.02574,-0.5045 -0.0527,-1.0092 -0.07227,-1.514 -0.03169,-0.8207 0.03478,-1.657 -0.105097,-2.4583 -0.357455,-2.0474 -1.599539,-3.3564 -3.588033,-3.9493 -0.208991,-0.062 -0.289819,-0.1514 -0.275876,-0.3712 0.01252,-0.1963 0.0081,-0.4055 -0.04924,-0.5911 -0.129954,-0.4209 -0.510318,-0.6758 -0.945866,-0.6798 z m -2.1331113,15.2487 c 0.4988475,0.8292 1.3151293,1.2459 2.1331113,1.2513 0.817982,-0.01 1.634264,-0.4221 2.133119,-1.2513 -1.422082,0 -2.844156,0 -4.2662303,0 z"
       style="opacity:0.9;fill:#ffffff;fill-rule:evenodd" />
  </g>
</svg>
