<?xml version="1.0" encoding="UTF-8" standalone="no"?>
<!-- Created with Inkscape (http://www.inkscape.org/) -->

<svg
   xmlns:dc="http://purl.org/dc/elements/1.1/"
   xmlns:cc="http://creativecommons.org/ns#"
   xmlns:rdf="http://www.w3.org/1999/02/22-rdf-syntax-ns#"
   xmlns:svg="http://www.w3.org/2000/svg"
   xmlns="http://www.w3.org/2000/svg"
   xmlns:sodipodi="http://sodipodi.sourceforge.net/DTD/sodipodi-0.dtd"
   xmlns:inkscape="http://www.inkscape.org/namespaces/inkscape"
   width="22"
   height="22"
   id="svg2"
   version="1.1"
   inkscape:version="0.48.3.1 r9886"
   sodipodi:docname="indicator-messages-red.svg">
  <defs
     id="defs4" />
  <sodipodi:namedview
     id="base"
     pagecolor="#ffffff"
     bordercolor="#666666"
     borderopacity="1.0"
     inkscape:pageopacity="0.0"
     inkscape:pageshadow="2"
     inkscape:zoom="11.8125"
     inkscape:cx="-1.3333334"
     inkscape:cy="12"
     inkscape:document-units="px"
     inkscape:current-layer="layer1"
     showgrid="false"
     inkscape:window-width="1044"
     inkscape:window-height="700"
     inkscape:window-x="177"
     inkscape:window-y="24"
     inkscape:window-maximized="0" />
  <metadata
     id="metadata7">
    <rdf:RDF>
      <cc:Work
         rdf:about="">
        <dc:format>image/svg+xml</dc:format>
        <dc:type
           rdf:resource="http://purl.org/dc/dcmitype/StillImage" />
        <dc:title />
      </cc:Work>
    </rdf:RDF>
  </metadata>
  <g
     inkscape:label="Livello 1"
     inkscape:groupmode="layer"
     id="layer1"
     transform="translate(0,-1030.3622)">
    <path
       style="opacity:0.9;color:#000000;fill:#f53737;fill-opacity:1;fill-rule:nonzero;stroke-width:1;stroke-linecap:butt;stroke-linejoin:miter;stroke-miterlimit:4;stroke-opacity:1;stroke-dasharray:none;stroke-dashoffset:0;marker:none;visibility:visible;display:inline;overflow:visible;enable-background:accumulate"
       d="m 3.9476621,1034.3099 c -0.3131246,0.3252 -0.4081973,0.7876 -0.1949766,1.1913 0.093945,0.1781 0.2440359,0.3346 0.3970956,0.4693 0.1712514,0.1508 0.1773576,0.2753 0.069831,0.4741 -1.0226887,1.8918 -0.9736366,3.7612 0.2647893,5.5235 0.4846565,0.6897 1.1462098,1.2539 1.7244286,1.8785 0.3556086,0.3843 0.7057155,0.7738 1.0564947,1.1624 0.6292371,0.6973 0.8736833,1.5366 0.6859619,2.4308 -0.1549444,0.7381 0.5506133,1.6192 0.6148783,1.6835 l 0.738909,0.7389 c 3.3983231,-3.3983 6.7966461,-6.7966 10.1949681,-10.195 l -0.73891,-0.7388 c -0.06426,-0.064 -0.94547,-0.7699 -1.683467,-0.615 -0.894225,0.1878 -1.733547,-0.056 -2.430852,-0.6859 -0.38856,-0.3508 -0.77814,-0.7009 -1.162413,-1.0565 -0.62465,-0.5782 -1.188796,-1.2398 -1.878463,-1.7244 -1.7623161,-1.2385 -3.6318111,-1.2874 -5.5235186,-0.2648 -0.1990985,0.1072 -0.3233225,0.1014 -0.4741635,-0.07 -0.1346504,-0.153 -0.2912227,-0.303 -0.4692573,-0.3971 -0.4036854,-0.2132 -0.869235,-0.1213 -1.1913127,0.195 z"
       id="path2991" />
    <path
       style="opacity:0.9;color:#000000;fill:#f53737;fill-opacity:1;fill-rule:nonzero;stroke-width:1;stroke-linecap:butt;stroke-linejoin:miter;stroke-miterlimit:4;stroke-opacity:1;stroke-dasharray:none;stroke-dashoffset:0;marker:none;visibility:visible;display:inline;overflow:visible;enable-background:accumulate"
       d="m 12.059,1048.5481 c 0.973159,0.242 1.876713,-0.05 2.480133,-0.6462 0.593385,-0.6056 0.888255,-1.5071 0.646228,-2.4802 -1.042125,1.0421 -2.084243,2.0842 -3.126361,3.1264 z"
       id="path5740"
       inkscape:connector-curvature="0" />
  </g>
</svg>
