<?xml version="1.0" encoding="UTF-8" standalone="no"?>
<!-- Created with Inkscape (http://www.inkscape.org/) -->

<svg
   xmlns:dc="http://purl.org/dc/elements/1.1/"
   xmlns:cc="http://creativecommons.org/ns#"
   xmlns:rdf="http://www.w3.org/1999/02/22-rdf-syntax-ns#"
   xmlns:svg="http://www.w3.org/2000/svg"
   xmlns="http://www.w3.org/2000/svg"
   xmlns:sodipodi="http://sodipodi.sourceforge.net/DTD/sodipodi-0.dtd"
   xmlns:inkscape="http://www.inkscape.org/namespaces/inkscape"
   id="svg7384"
   height="22"
   width="22"
   version="1.1"
   inkscape:version="0.48.4 r9939"
   sodipodi:docname="audacious-panel.svg">
  <defs
     id="defs10" />
  <sodipodi:namedview
     pagecolor="#ffffff"
     bordercolor="#666666"
     borderopacity="1"
     objecttolerance="10"
     gridtolerance="10"
     guidetolerance="10"
     inkscape:pageopacity="0"
     inkscape:pageshadow="2"
     inkscape:window-width="1375"
     inkscape:window-height="876"
     id="namedview8"
     showgrid="false"
     inkscape:zoom="16.020392"
     inkscape:cx="-8.7134043"
     inkscape:cy="12.30309"
     inkscape:window-x="1431"
     inkscape:window-y="24"
     inkscape:window-maximized="1"
     inkscape:current-layer="svg7384" />
  <metadata
     id="metadata90">
    <rdf:RDF>
      <cc:Work
         rdf:about="">
        <dc:format>image/svg+xml</dc:format>
        <dc:type
           rdf:resource="http://purl.org/dc/dcmitype/StillImage" />
        <dc:title>Gnome Symbolic Icon Theme</dc:title>
      </cc:Work>
    </rdf:RDF>
  </metadata>
  <title
     id="title9167">Gnome Symbolic Icon Theme</title>
  <path
     style="fill:#ffffff;opacity:0.9"
     d="m 3.4395995,19.985589 c -0.163588,-0.0329 -0.395554,-0.31565 -0.423882,-0.51676 -0.01391,-0.0985 -0.01966,-0.83199 -0.01286,-1.62991 0.01218,-1.42283 0.0141,-1.45325 0.10086,-1.58 0.04864,-0.0711 0.13811,-0.16435 0.198814,-0.20725 0.107124,-0.0757 0.334774,-0.078 7.7051015,-0.078 7.370337,0 7.597987,0.002 7.705102,0.078 0.06072,0.0429 0.150177,0.13616 0.198813,0.20725 0.08778,0.12821 0.08845,0.14201 0.08845,1.72508 0,1.58307 -7e-4,1.59687 -0.08845,1.72508 -0.04864,0.0711 -0.138109,0.16435 -0.198813,0.20725 -0.107048,0.0756 -0.337729,0.0782 -7.645453,0.0829 -4.1442955,0.003 -7.5767775,-0.003 -7.6277355,-0.0137 z m 0.278349,-6.38334 c -0.05094,-0.0102 -0.160346,-0.0892 -0.243075,-0.17543 -0.159339,-0.16609 -0.218968,-0.35468 -0.17864,-0.56489 0.03079,-0.16025 7.2369485,-10.5678703 7.4298435,-10.7306203 0.201029,-0.16961 0.504108,-0.17573 0.707171,-0.0143 0.07876,0.0626 1.696326,2.3609 3.790988,5.38629 l 3.653675,5.2771103 0,0.20988 c 0,0.23169 -0.09152,0.40635 -0.284411,0.54266 -0.107019,0.0756 -0.333585,0.0782 -7.446639,0.083 -4.0349465,0.003 -7.3779555,-0.003 -7.4289125,-0.0137 z"
     id="path3048"
     inkscape:connector-curvature="0" />
</svg>
