<?xml version="1.0" encoding="UTF-8" standalone="no"?>
<!-- Created with Inkscape (http://www.inkscape.org/) -->

<svg
   xmlns:dc="http://purl.org/dc/elements/1.1/"
   xmlns:cc="http://creativecommons.org/ns#"
   xmlns:rdf="http://www.w3.org/1999/02/22-rdf-syntax-ns#"
   xmlns:svg="http://www.w3.org/2000/svg"
   xmlns="http://www.w3.org/2000/svg"
   xmlns:xlink="http://www.w3.org/1999/xlink"
   xmlns:sodipodi="http://sodipodi.sourceforge.net/DTD/sodipodi-0.dtd"
   xmlns:inkscape="http://www.inkscape.org/namespaces/inkscape"
   id="svg7384"
   height="22"
   width="22"
   version="1.1"
   inkscape:version="0.48.4 r9939"
   sodipodi:docname="drive-harddisk-symbolic_B.svg">
  <defs
     id="defs12">
    <linearGradient
       id="linearGradient4327">
      <stop
         id="stop4329"
         style="stop-color:#c8c8c8;stop-opacity:1;"
         offset="0" />
      <stop
         id="stop4331"
         style="stop-color:#8c8c8c;stop-opacity:1;"
         offset="1" />
    </linearGradient>
    <linearGradient
       inkscape:collect="always"
       xlink:href="#linearGradient4327-2"
       id="linearGradient4179"
       gradientUnits="userSpaceOnUse"
       gradientTransform="matrix(0.46153846,0,0,0.46153846,17.922821,433.00134)"
       x1="18.930269"
       y1="6.2951212"
       x2="19.360001"
       y2="36.643665" />
    <linearGradient
       id="linearGradient4327-2">
      <stop
         id="stop4329-4"
         style="stop-color:#c8c8c8;stop-opacity:1;"
         offset="0" />
      <stop
         id="stop4331-9"
         style="stop-color:#8c8c8c;stop-opacity:1;"
         offset="1" />
    </linearGradient>
    <linearGradient
       inkscape:collect="always"
       xlink:href="#linearGradient4327-0"
       id="linearGradient4254"
       gradientUnits="userSpaceOnUse"
       gradientTransform="matrix(0.46153846,0,0,0.46153846,17.922821,471.47592)"
       x1="18.930269"
       y1="6.2951212"
       x2="19.360001"
       y2="36.643665" />
    <linearGradient
       id="linearGradient4327-0">
      <stop
         id="stop4329-1"
         style="stop-color:#c8c8c8;stop-opacity:1;"
         offset="0" />
      <stop
         id="stop4331-0"
         style="stop-color:#8c8c8c;stop-opacity:1;"
         offset="1" />
    </linearGradient>
  </defs>
  <sodipodi:namedview
     pagecolor="#ffffff"
     bordercolor="#666666"
     borderopacity="1"
     objecttolerance="10"
     gridtolerance="10"
     guidetolerance="10"
     inkscape:pageopacity="0"
     inkscape:pageshadow="2"
     inkscape:window-width="1301"
     inkscape:window-height="744"
     id="namedview10"
     showgrid="false"
     showguides="true"
     inkscape:guide-bbox="true"
     inkscape:zoom="8.0148699"
     inkscape:cx="-23.570578"
     inkscape:cy="-1.0034133"
     inkscape:window-x="65"
     inkscape:window-y="24"
     inkscape:window-maximized="1"
     inkscape:current-layer="svg7384" />
  <metadata
     id="metadata90">
    <rdf:RDF>
      <cc:Work
         rdf:about="">
        <dc:format>image/svg+xml</dc:format>
        <dc:type
           rdf:resource="http://purl.org/dc/dcmitype/StillImage" />
        <dc:title>Gnome Symbolic Icon Theme</dc:title>
      </cc:Work>
    </rdf:RDF>
  </metadata>
  <title
     id="title9167">Gnome Symbolic Icon Theme</title>
  <path
     style="fill:#ffffff;fill-opacity:1;stroke:none;display:inline;opacity:0.9"
     d="m 11,2 c -4.97056,0 -9,4.02944 -9,9 0,4.97056 4.02944,9 9,9 4.97056,0 9,-4.02944 9,-9 0,-4.97056 -4.02944,-9 -9,-9 z m 2.74312,1.05938 c 1.70726,0.58472 3.19886,1.73611 4.21126,3.22875 l -4.18501,2.415 C 13.42557,8.28528 12.99095,7.95055 12.49625,7.73 L 13.74312,3.05938 z M 11,8 c 1.65685,0 3,1.34315 3,3 0,1.65685 -1.34315,3 -3,3 C 9.34315,14 8,12.65685 8,11 8,9.34315 9.34315,8 11,8 z m -2.775,5.29688 c 0.33013,0.39918 0.74977,0.71886 1.21125,0.94687 C 9.19629,15.84147 8.62324,17.3706 8.24,18.93875 6.54298,18.34539 5.04996,17.20181 4.04563,15.71188 l 4.17937,-2.415 z"
     id="path3978"
     inkscape:connector-curvature="0" />
</svg>
