<?xml version="1.0" encoding="UTF-8" standalone="no"?>
<svg
   xmlns:dc="http://purl.org/dc/elements/1.1/"
   xmlns:cc="http://creativecommons.org/ns#"
   xmlns:rdf="http://www.w3.org/1999/02/22-rdf-syntax-ns#"
   xmlns:svg="http://www.w3.org/2000/svg"
   xmlns="http://www.w3.org/2000/svg"
   xmlns:xlink="http://www.w3.org/1999/xlink"
   xmlns:sodipodi="http://sodipodi.sourceforge.net/DTD/sodipodi-0.dtd"
   xmlns:inkscape="http://www.inkscape.org/namespaces/inkscape"
   viewBox="0 0 22 22"
   id="svg3007"
   version="1.1"
   inkscape:version="0.91+devel r"
   width="100%"
   height="100%"
   sodipodi:docname="microphone-medium.svg">
  <metadata
     id="metadata3037">
    <rdf:RDF>
      <cc:Work
         rdf:about="">
        <dc:format>image/svg+xml</dc:format>
        <dc:type
           rdf:resource="http://purl.org/dc/dcmitype/StillImage" />
        <dc:title></dc:title>
      </cc:Work>
    </rdf:RDF>
  </metadata>
  <defs
     id="defs3035">
    <linearGradient
       id="linearGradient4008-4-7">
      <stop
         id="stop4010-2-0"
         style="stop-color:#dab980;stop-opacity:1"
         offset="0" />
      <stop
         id="stop4012-5-1"
         style="stop-color:#c29856;stop-opacity:1"
         offset="0.71691591" />
      <stop
         id="stop4014-6-6"
         style="stop-color:#a2773a;stop-opacity:1"
         offset="1" />
    </linearGradient>
    <linearGradient
       inkscape:collect="always"
       xlink:href="#linearGradient3187-7-5"
       id="linearGradient3756"
       gradientUnits="userSpaceOnUse"
       gradientTransform="matrix(5.6190474,0,0,4.9043651,-170.71372,8.7516906)"
       x1="48"
       y1="78"
       x2="48"
       y2="5.9877172" />
    <linearGradient
       id="linearGradient3187-7-5">
      <stop
         id="stop3189-4-5"
         style="stop-color:#c29656;stop-opacity:1"
         offset="0" />
      <stop
         id="stop3191-1-8"
         style="stop-color:#ddc08b;stop-opacity:1"
         offset="1" />
    </linearGradient>
    <linearGradient
       inkscape:collect="always"
       xlink:href="#linearGradient4008-4-7"
       id="linearGradient3822"
       gradientUnits="userSpaceOnUse"
       gradientTransform="matrix(4.4715789,0,0,4.4715789,-908.22105,-66.542998)"
       x1="34.85965"
       y1="16.275133"
       x2="34.994316"
       y2="28.905609" />
    <linearGradient
       inkscape:collect="always"
       xlink:href="#linearGradient3187-7-5"
       id="linearGradient3824"
       gradientUnits="userSpaceOnUse"
       gradientTransform="matrix(5.6190474,0,0,4.9043651,-891.75432,21.86152)"
       x1="48"
       y1="78"
       x2="48"
       y2="5.9877172" />
  </defs>
  <sodipodi:namedview
     pagecolor="#ffffff"
     bordercolor="#666666"
     borderopacity="1"
     objecttolerance="10"
     gridtolerance="10"
     guidetolerance="10"
     inkscape:pageopacity="0"
     inkscape:pageshadow="2"
     inkscape:window-width="1855"
     inkscape:window-height="1056"
     id="namedview3033"
     showgrid="true"
     inkscape:zoom="15.854167"
     inkscape:cx="11.795252"
     inkscape:cy="8"
     inkscape:window-x="65"
     inkscape:window-y="24"
     inkscape:window-maximized="1"
     inkscape:current-layer="svg3007">
    <inkscape:grid
       type="xygrid"
       id="grid4168" />
  </sodipodi:namedview>
  <path
     sodipodi:nodetypes="sssssssssccccccccccccccccscccc"
     inkscape:connector-curvature="0"
     id="path4770"
     d="M 11.00002,2 C 10.273497,2 9.5469641,2.29026 8.9704603,2.87062 8.158696,3.68781 8.0603323,4.20651 8.0603323,7.66957 c 0,3.46324 0.098344,3.98157 0.9103366,4.79896 0.8090126,0.8144 1.6669191,1.03969 2.8342711,0.74379 0.878658,-0.22272 1.749916,-1.10001 1.971169,-1.98454 0.09834,-0.39305 0.163609,-1.81073 0.163609,-3.55821 0,-3.46306 -0.09834,-3.98176 -0.910118,-4.79895 C 12.453096,2.29026 11.726543,2 11.00002,2 Z m -6.2500225,8.4175 c 0.030894,1.70035 0.8899725,3.47963 1.8313023,4.44798 0.7905955,0.79587 1.7636139,1.36131 2.7916154,1.62189 l 0.6472128,0.16404 0,1.67429 0,1.6743 1.115518,0 1.115497,0 0.03934,-1.71107 0.03934,-1.71084 0.559945,-0.16823 c 0.965767,-0.29021 1.772902,-0.78331 2.53002,-1.54548 1.222663,-1.53132 1.832157,-2.76549 1.83021,-4.44688 l -0.789076,0 -0.841446,0 c 0.05374,1.34454 -0.616467,2.60185 -1.318911,3.32261 -1.028617,1.03546 -1.754941,1.32772 -3.300599,1.32772 -1.5456488,0 -2.2721916,-0.29226 -3.3008091,-1.32772 C 6.7212263,12.63698 6.3804498,11.7044 6.3804498,10.4175 l -0.8416548,0 z"
     style="color:#000000;text-decoration:none;text-decoration-line:none;text-decoration-style:solid;text-decoration-color:#000000;clip-rule:nonzero;display:inline;overflow:visible;visibility:visible;opacity:0.2;isolation:auto;mix-blend-mode:normal;color-interpolation:sRGB;color-interpolation-filters:linearRGB;solid-color:#000000;solid-opacity:1;fill:#ffffff;fill-opacity:1;fill-rule:nonzero;stroke:none;stroke-width:1.17795563;stroke-linecap:butt;stroke-linejoin:miter;stroke-miterlimit:4;stroke-dasharray:none;stroke-dashoffset:0;stroke-opacity:1;marker:none;color-rendering:auto;image-rendering:auto;shape-rendering:auto;text-rendering:auto;enable-background:accumulate" />
  <path
     style="color:#bebebe;text-decoration:none;text-decoration-line:none;text-decoration-style:solid;text-decoration-color:#000000;white-space:normal;clip-rule:nonzero;display:inline;overflow:visible;visibility:visible;opacity:0.9;isolation:auto;mix-blend-mode:normal;color-interpolation:sRGB;color-interpolation-filters:linearRGB;solid-color:#000000;solid-opacity:1;fill:#ffffff;fill-opacity:1;fill-rule:nonzero;stroke:none;stroke-width:0;stroke-linecap:butt;stroke-linejoin:miter;stroke-miterlimit:4;stroke-dasharray:none;stroke-dashoffset:0;stroke-opacity:1;marker:none;color-rendering:auto;image-rendering:auto;shape-rendering:auto;text-rendering:auto;enable-background:accumulate"
     d="M 8.0644531 8 C 8.0728092 11.108927 8.1906827 11.683545 8.9707031 12.46875 C 9.7797157 13.28315 10.637336 13.508791 11.804688 13.212891 C 12.683345 12.990171 13.554138 12.113046 13.775391 11.228516 C 13.866635 10.863827 13.92501 9.5738679 13.933594 8 L 8.0644531 8 z M 4.75 10.417969 C 4.780894 12.118319 5.6407015 13.896884 6.5820312 14.865234 C 7.3726268 15.661104 8.3450454 16.227701 9.3730469 16.488281 L 10.019531 16.652344 L 10.019531 18.326172 L 10.019531 20 L 12.251953 20 L 12.291016 18.289062 L 12.330078 16.578125 L 12.890625 16.410156 C 13.856392 16.119946 14.662804 15.627404 15.419922 14.865234 C 16.642585 13.333914 17.251947 12.099359 17.25 10.417969 L 16.460938 10.417969 L 15.619141 10.417969 C 15.672881 11.762509 15.003225 13.019474 14.300781 13.740234 C 13.272164 14.775694 12.545658 15.068359 11 15.068359 C 9.4543512 15.068359 8.7278363 14.775694 7.6992188 13.740234 C 6.7212882 12.637104 6.3808594 11.704869 6.3808594 10.417969 L 5.5390625 10.417969 L 4.75 10.417969 z "
     id="rect4148" />
</svg>
