<?xml version="1.0" encoding="UTF-8" standalone="no"?>
<!-- Created with Inkscape (http://www.inkscape.org/) -->

<svg
   xmlns:dc="http://purl.org/dc/elements/1.1/"
   xmlns:cc="http://creativecommons.org/ns#"
   xmlns:rdf="http://www.w3.org/1999/02/22-rdf-syntax-ns#"
   xmlns:svg="http://www.w3.org/2000/svg"
   xmlns="http://www.w3.org/2000/svg"
   xmlns:xlink="http://www.w3.org/1999/xlink"
   xmlns:sodipodi="http://sodipodi.sourceforge.net/DTD/sodipodi-0.dtd"
   xmlns:inkscape="http://www.inkscape.org/namespaces/inkscape"
   id="svg7384"
   height="22"
   width="22"
   version="1.1"
   inkscape:version="0.48.4 r9939"
   sodipodi:docname="drive-harddisk-symbolic.svg">
  <defs
     id="defs12">
    <linearGradient
       id="linearGradient4327">
      <stop
         id="stop4329"
         style="stop-color:#c8c8c8;stop-opacity:1;"
         offset="0" />
      <stop
         id="stop4331"
         style="stop-color:#8c8c8c;stop-opacity:1;"
         offset="1" />
    </linearGradient>
    <linearGradient
       inkscape:collect="always"
       xlink:href="#linearGradient4327-2"
       id="linearGradient4179"
       gradientUnits="userSpaceOnUse"
       gradientTransform="matrix(0.46153846,0,0,0.46153846,17.922821,433.00134)"
       x1="18.930269"
       y1="6.2951212"
       x2="19.360001"
       y2="36.643665" />
    <linearGradient
       id="linearGradient4327-2">
      <stop
         id="stop4329-4"
         style="stop-color:#c8c8c8;stop-opacity:1;"
         offset="0" />
      <stop
         id="stop4331-9"
         style="stop-color:#8c8c8c;stop-opacity:1;"
         offset="1" />
    </linearGradient>
    <linearGradient
       inkscape:collect="always"
       xlink:href="#linearGradient4327-0"
       id="linearGradient4254"
       gradientUnits="userSpaceOnUse"
       gradientTransform="matrix(0.46153846,0,0,0.46153846,17.922821,471.47592)"
       x1="18.930269"
       y1="6.2951212"
       x2="19.360001"
       y2="36.643665" />
    <linearGradient
       id="linearGradient4327-0">
      <stop
         id="stop4329-1"
         style="stop-color:#c8c8c8;stop-opacity:1;"
         offset="0" />
      <stop
         id="stop4331-0"
         style="stop-color:#8c8c8c;stop-opacity:1;"
         offset="1" />
    </linearGradient>
  </defs>
  <sodipodi:namedview
     pagecolor="#ffffff"
     bordercolor="#666666"
     borderopacity="1"
     objecttolerance="10"
     gridtolerance="10"
     guidetolerance="10"
     inkscape:pageopacity="0"
     inkscape:pageshadow="2"
     inkscape:window-width="1301"
     inkscape:window-height="744"
     id="namedview10"
     showgrid="false"
     showguides="true"
     inkscape:guide-bbox="true"
     inkscape:zoom="8.0148699"
     inkscape:cx="16.791899"
     inkscape:cy="3.9873103"
     inkscape:window-x="65"
     inkscape:window-y="24"
     inkscape:window-maximized="1"
     inkscape:current-layer="svg7384" />
  <metadata
     id="metadata90">
    <rdf:RDF>
      <cc:Work
         rdf:about="">
        <dc:format>image/svg+xml</dc:format>
        <dc:type
           rdf:resource="http://purl.org/dc/dcmitype/StillImage" />
        <dc:title>Gnome Symbolic Icon Theme</dc:title>
      </cc:Work>
    </rdf:RDF>
  </metadata>
  <title
     id="title9167">Gnome Symbolic Icon Theme</title>
  <path
     style="opacity:0.90000000000000002;color:#000000;fill:#ffffff;fill-opacity:1;fill-rule:nonzero;stroke:none;marker:none;visibility:visible;display:inline;overflow:visible;enable-background:accumulate"
     d="M 5.75 2 C 3.6725 2 2 3.6725 2 5.75 L 2 6.625 L 2 16.25 C 2 18.3275 3.6725 20 5.75 20 L 16.25 20 C 18.3275 20 20 18.3275 20 16.25 L 20 6.625 L 20 5.75 C 20 3.6725 18.3275 2 16.25 2 L 5.75 2 z M 16.0625 4.8125 C 16.371322 4.859321 16.59375 5.073412 16.59375 5.40625 L 16.5625 14.09375 C 16.460714 14.739691 15.832175 15.346012 14.90625 15.5625 C 13.745652 15.833873 12.62379 15.372707 12.375 14.5625 C 12.126219 13.752308 12.808151 12.865117 13.96875 12.59375 C 14.611917 12.443372 15.266955 12.553647 15.75 12.78125 L 15.75 7.53125 L 9.71875 9 L 9.6875 15.625 C 9.5857037 16.270934 8.9259233 16.908513 8 17.125 C 6.8393943 17.396367 5.7175323 16.935207 5.46875 16.125 C 5.2199603 15.314801 5.9331504 14.42761 7.09375 14.15625 C 7.7369179 14.005871 8.3607125 14.084888 8.84375 14.3125 L 8.84375 7.28125 C 8.84375 6.8374559 9.2423867 6.3961139 9.71875 6.28125 L 16.0625 4.8125 z "
     id="path3060" />
</svg>
