<?xml version="1.0" encoding="UTF-8" standalone="no"?>
<!-- Created with Inkscape (http://www.inkscape.org/) -->

<svg
   xmlns:dc="http://purl.org/dc/elements/1.1/"
   xmlns:cc="http://creativecommons.org/ns#"
   xmlns:rdf="http://www.w3.org/1999/02/22-rdf-syntax-ns#"
   xmlns:svg="http://www.w3.org/2000/svg"
   xmlns="http://www.w3.org/2000/svg"
   xmlns:sodipodi="http://sodipodi.sourceforge.net/DTD/sodipodi-0.dtd"
   xmlns:inkscape="http://www.inkscape.org/namespaces/inkscape"
   id="svg7384"
   height="22"
   width="22"
   version="1.1"
   inkscape:version="0.48.3.1 r9886"
   sodipodi:docname="network-transmit-receive.svg">
  <defs
     id="defs11" />
  <sodipodi:namedview
     pagecolor="#ffffff"
     bordercolor="#666666"
     borderopacity="1"
     objecttolerance="10"
     gridtolerance="10"
     guidetolerance="10"
     inkscape:pageopacity="0"
     inkscape:pageshadow="2"
     inkscape:window-width="1301"
     inkscape:window-height="744"
     id="namedview9"
     showgrid="false"
     inkscape:zoom="20.898424"
     inkscape:cx="8.696566"
     inkscape:cy="10.102964"
     inkscape:window-x="65"
     inkscape:window-y="24"
     inkscape:window-maximized="1"
     inkscape:current-layer="svg7384" />
  <metadata
     id="metadata90">
    <rdf:RDF>
      <cc:Work
         rdf:about="">
        <dc:format>image/svg+xml</dc:format>
        <dc:type
           rdf:resource="http://purl.org/dc/dcmitype/StillImage" />
        <dc:title>Gnome Symbolic Icon Theme</dc:title>
      </cc:Work>
    </rdf:RDF>
  </metadata>
  <title
     id="title9167">Gnome Symbolic Icon Theme</title>
  <g
     id="g3000"
     transform="matrix(0.80000001,0,0,0.80000001,1.4000005,1.3999966)" />
  <path
     style="opacity:0.2;color:#000000;fill:#ffffff;fill-opacity:1;fill-rule:nonzero;stroke:none;marker:none;visibility:visible;display:inline;overflow:visible;enable-background:accumulate"
     d="m 18.403585,2.0000013 c -0.13714,0 -0.26831,0.0512 -0.36457,0.14954 l -3.65505,3.65463 -1.66394,0 c -0.13701,-0.001 -0.27696,0.0528 -0.37392,0.14955 l -2.42112,2.42085 c -0.19663,0.19249 -0.19663,0.55526 0,0.74775 l 2.9633,2.9629597 c 0.0989,0.0988 0.23412,0.1529 0.37392,0.14955 0.1342,-10e-4 0.2696,-0.0547 0.36457,-0.14955 l 2.43048,-2.4301897 c 0.0968,-0.0969 0.15066,-0.22754 0.14956,-0.36453 l 0,-1.67309 3.64571,-3.64528 c 0.19663,-0.1925 0.19663,-0.55526 0,-0.74775 l -1.07502,-1.0749001 c -0.0963,-0.0983 -0.23677,-0.14954 -0.37392,-0.14954 z"
     id="path2994" />
  <path
     style="opacity:0.9;color:#000000;fill:#ffffff;fill-opacity:1;fill-rule:nonzero;stroke:none;marker:none;visibility:visible;display:inline;overflow:visible;enable-background:accumulate"
     d="m 8.737795,9.7672513 c -0.1342,10e-4 -0.2696,0.0641 -0.36457,0.1589 l -2.43048,2.4208397 c -0.0968,0.0969 -0.15066,0.23689 -0.14956,0.37388 l 0,1.66374 -3.64571,3.65463 c -0.19663,0.1925 -0.19663,0.54591 0,0.73841 l 1.07502,1.07489 c 0.19251,0.19661 0.54597,0.19661 0.73849,0 l 3.65505,-3.64529 1.66394,0 c 0.13701,0.001 0.27696,-0.0528 0.37392,-0.14955 l 2.42112,-2.43019 c 0.19664,-0.19249 0.19664,-0.5459 0,-0.7384 l -2.9633,-2.9629598 c -0.0989,-0.0988 -0.23413,-0.16225 -0.37392,-0.1589 z"
     id="path3804-7" />
</svg>
