<?xml version="1.0" encoding="UTF-8" standalone="no"?>
<!-- Created with Inkscape (http://www.inkscape.org/) -->

<svg
   xmlns:dc="http://purl.org/dc/elements/1.1/"
   xmlns:cc="http://creativecommons.org/ns#"
   xmlns:rdf="http://www.w3.org/1999/02/22-rdf-syntax-ns#"
   xmlns:svg="http://www.w3.org/2000/svg"
   xmlns="http://www.w3.org/2000/svg"
   xmlns:xlink="http://www.w3.org/1999/xlink"
   xmlns:sodipodi="http://sodipodi.sourceforge.net/DTD/sodipodi-0.dtd"
   xmlns:inkscape="http://www.inkscape.org/namespaces/inkscape"
   id="svg7384"
   height="22"
   width="22"
   version="1.1"
   inkscape:version="0.48.3.1 r9886"
   sodipodi:docname="network-error.svg">
  <defs
     id="defs11">
    <linearGradient
       x1="11"
       y1="11.015625"
       x2="19"
       y2="11.015625"
       id="linearGradient2927-4"
       xlink:href="#linearGradient3183-0"
       gradientUnits="userSpaceOnUse"
       gradientTransform="matrix(0,-3.0000004,2.9652505,0,33.335916,111.00001)" />
    <linearGradient
       id="linearGradient3183-0">
      <stop
         id="stop3185-9"
         style="stop-color:#c80000;stop-opacity:1"
         offset="0" />
      <stop
         id="stop3187-6"
         style="stop-color:#f3604d;stop-opacity:1"
         offset="1" />
    </linearGradient>
    <linearGradient
       y2="11.015625"
       x2="19"
       y1="11.015625"
       x1="11"
       gradientTransform="matrix(0,-1.2500004,1.2355212,0,3.3899615,35.750006)"
       gradientUnits="userSpaceOnUse"
       id="linearGradient3056"
       xlink:href="#linearGradient3183-0"
       inkscape:collect="always" />
  </defs>
  <sodipodi:namedview
     pagecolor="#ffffff"
     bordercolor="#666666"
     borderopacity="1"
     objecttolerance="10"
     gridtolerance="10"
     guidetolerance="10"
     inkscape:pageopacity="0"
     inkscape:pageshadow="2"
     inkscape:window-width="1301"
     inkscape:window-height="744"
     id="namedview9"
     showgrid="false"
     inkscape:zoom="20.898424"
     inkscape:cx="6.9739481"
     inkscape:cy="10.102964"
     inkscape:window-x="65"
     inkscape:window-y="24"
     inkscape:window-maximized="1"
     inkscape:current-layer="svg7384" />
  <metadata
     id="metadata90">
    <rdf:RDF>
      <cc:Work
         rdf:about="">
        <dc:format>image/svg+xml</dc:format>
        <dc:type
           rdf:resource="http://purl.org/dc/dcmitype/StillImage" />
        <dc:title>Gnome Symbolic Icon Theme</dc:title>
      </cc:Work>
    </rdf:RDF>
  </metadata>
  <title
     id="title9167">Gnome Symbolic Icon Theme</title>
  <g
     id="g3000"
     transform="matrix(0.80000001,0,0,0.80000001,1.4000005,1.3999966)" />
  <path
     style="opacity:0.20000000000000001;color:#000000;fill:#ffffff;fill-opacity:1;fill-rule:nonzero;stroke:none;marker:none;visibility:visible;display:inline;overflow:visible;enable-background:accumulate"
     d="m 18.403585,2.0000013 c -0.13714,0 -0.26831,0.0512 -0.36457,0.14954 l -2.15495,2.1551287 -1.66394,0 c -0.13701,-10e-4 -0.27696,0.0528 -0.37392,0.14955 l -2.42112,2.42085 c -0.19663,0.1924901 -0.19663,0.55526 0,0.74775 l 2.9633,2.96296 c 0.0989,0.0988 0.23412,0.1529 0.37392,0.14955 0.1342,-10e-4 0.2696,-0.0547 0.36457,-0.14955 l 2.43048,-2.43019 c 0.0968,-0.0969 0.15066,-0.22754 0.14956,-0.36453 l 0,-1.67309 2.14561,-2.1457787 c 0.19663,-0.1925 0.19663,-0.55526 0,-0.74775 l -1.07502,-1.0749001 c -0.0963,-0.0983 -0.23677,-0.14954 -0.37392,-0.1495399 z"
     id="path2994"
     inkscape:connector-curvature="0"
     sodipodi:nodetypes="scccccccccccccccs" />
  <path
     style="opacity:0.20000000000000001;color:#000000;fill:#ffffff;fill-opacity:1;fill-rule:nonzero;stroke:none;marker:none;visibility:visible;display:inline;overflow:visible;enable-background:accumulate"
     d="m 7.237695,11.267 c -0.1342,0.001 -0.2696,0.0641 -0.36457,0.1589 l -2.43048,2.42084 c -0.0968,0.0969 -0.15066,0.23689 -0.14956,0.37388 l 0,1.66374 -2.14561,2.154881 c -0.19663,0.1925 -0.19663,0.54591 0,0.73841 l 1.07502,1.07489 c 0.19251,0.19661 0.54597,0.19661 0.73849,0 l 2.15495,-2.145541 1.66394,0 c 0.13701,10e-4 0.27696,-0.0528 0.37392,-0.14955 l 2.42112,-2.43019 c 0.19664,-0.19249 0.19664,-0.5459 0,-0.7384 l -2.9633,-2.96296 c -0.0989,-0.0988 -0.23413,-0.16225 -0.37392,-0.1589 z"
     id="path3804-7"
     inkscape:connector-curvature="0"
     sodipodi:nodetypes="cccccccccccccccc" />
</svg>
