<?xml version="1.0" encoding="UTF-8" standalone="no"?>
<!-- Created with Inkscape (http://www.inkscape.org/) -->

<svg
   xmlns:dc="http://purl.org/dc/elements/1.1/"
   xmlns:cc="http://creativecommons.org/ns#"
   xmlns:rdf="http://www.w3.org/1999/02/22-rdf-syntax-ns#"
   xmlns:svg="http://www.w3.org/2000/svg"
   xmlns="http://www.w3.org/2000/svg"
   xmlns:sodipodi="http://sodipodi.sourceforge.net/DTD/sodipodi-0.dtd"
   xmlns:inkscape="http://www.inkscape.org/namespaces/inkscape"
   id="svg7384"
   height="22"
   width="22"
   version="1.1"
   inkscape:version="0.91pre2 r"
   sodipodi:docname="new-tab.svg">
  <defs
     id="defs10" />
  <sodipodi:namedview
     pagecolor="#8c8c8c"
     bordercolor="#666666"
     borderopacity="1"
     objecttolerance="10"
     gridtolerance="10"
     guidetolerance="10"
     inkscape:pageopacity="1"
     inkscape:pageshadow="2"
     inkscape:window-width="1855"
     inkscape:window-height="1056"
     id="namedview8"
     showgrid="false"
     inkscape:zoom="9.2804891"
     inkscape:cx="-4.678053"
     inkscape:cy="6.4999998"
     inkscape:window-x="65"
     inkscape:window-y="24"
     inkscape:window-maximized="1"
     inkscape:current-layer="svg7384"
     showguides="false" />
  <metadata
     id="metadata90">
    <rdf:RDF>
      <cc:Work
         rdf:about="">
        <dc:format>image/svg+xml</dc:format>
        <dc:type
           rdf:resource="http://purl.org/dc/dcmitype/StillImage" />
        <dc:title>Gnome Symbolic Icon Theme</dc:title>
      </cc:Work>
    </rdf:RDF>
  </metadata>
  <title
     id="title9167">Gnome Symbolic Icon Theme</title>
  <path
     style="opacity:0.9;fill:#ffffff;fill-opacity:1;stroke:none"
     d="m 5.4325082,3.2522194 a 0.64960178,0.64960178 0 0 0 -0.648812,0.6488119 l 0,4.9186472 -2.7837293,0 0,5.9371715 3.3201772,0 c -8.01e-5,-0.07686 -0.00362,-0.124345 -0.00362,-0.192106 l 0,-2.616996 0.04712,-0.07431 c 0.025942,-0.04085 0.075679,-0.09251 0.1105518,-0.114176 l 0.063431,-0.03987 2.216472,-0.0072 0.1612968,-0.0091 0.067056,-0.0435 c 0.036523,-0.02417 0.083737,-0.07075 0.1051148,-0.105115 l 0.038059,-0.06343 0.00906,-1.178011 c 0.00452,-0.6481355 0.015478,-1.1944415 0.02356,-1.2124435 0.031659,-0.07046 0.095707,-0.140772 0.1612968,-0.175796 0.067853,-0.03622 2.0329487,-0.03625 2.6804267,-0.03625 0.647468,0 2.612572,2.5e-5 2.680427,0.03625 0.06559,0.03499 0.129637,0.105344 0.161297,0.175796 0.008,0.01798 0.01907,0.563645 0.02356,1.2124435 l 0.0091,1.179823 0.0435,0.06706 c 0.02417,0.03649 0.07071,0.08376 0.105115,0.105115 l 0.06343,0.03806 0.159484,0.0091 2.216472,0.0072 0.06343,0.03987 c 0.03489,0.02163 0.08463,0.07331 0.110552,0.114176 l 0.04712,0.07431 0,2.616996 c 0,0.06776 -0.0035,0.115241 -0.0036,0.192106 l 3.320177,0 0,-5.9371715 -2.783729,0 0,-4.9186472 A 0.64960178,0.64960178 0 0 0 16.567426,3.2522194 l -11.1349178,0 z m 5.5674588,7.1441796 c -0.725344,0 -0.734095,0.0011 -0.810109,0.04168 -0.07348,0.03923 -0.14758,0.118615 -0.183045,0.197543 -0.00905,0.02017 -0.020269,0.629544 -0.025372,1.355618 l -0.00906,1.319372 -0.043496,0.07068 c -0.02395,0.0385 -0.076889,0.09254 -0.117801,0.119613 l -0.074305,0.04893 -1.332058,0.0091 -1.332058,0.0091 -0.072493,0.0435 c -0.039072,0.02428 -0.094181,0.08291 -0.123238,0.128675 l -0.052557,0.08337 0,0.739428 c 0,0.691043 0.00182,0.744717 0.034434,0.808297 0.03724,0.07254 0.088254,0.123717 0.1757954,0.179421 0.051454,0.03283 0.1210192,0.03487 1.3755538,0.04349 l 1.3229963,0.0091 0.070681,0.0435 c 0.038535,0.02393 0.092528,0.07692 0.1196134,0.117801 l 0.048933,0.0743 0.00906,1.321184 c 0.00824,1.186304 0.012498,1.327946 0.039871,1.377367 0.04157,0.07503 0.12036,0.147809 0.197543,0.181232 0.05365,0.02295 0.183058,0.0284 0.777488,0.029 0.775648,7.83e-4 0.788484,-0.0021 0.898912,-0.106927 0.119037,-0.113023 0.113226,-0.02863 0.123238,-1.480669 l 0.0091,-1.321184 0.04893,-0.0743 c 0.02709,-0.04087 0.08107,-0.09386 0.119613,-0.117801 l 0.07068,-0.0435 1.321184,-0.0091 c 1.254533,-0.0087 1.325913,-0.01073 1.377367,-0.04349 0.08754,-0.05571 0.138549,-0.106868 0.175795,-0.179421 0.03266,-0.06355 0.03443,-0.117253 0.03443,-0.808297 l 0,-0.739428 -0.05256,-0.08337 c -0.02904,-0.04578 -0.08415,-0.104438 -0.123237,-0.128675 l -0.07249,-0.0435 -1.330246,-0.0091 -1.330246,-0.0091 -0.07068,-0.0435 c -0.03853,-0.02393 -0.09254,-0.07692 -0.119613,-0.117801 l -0.04893,-0.07431 -0.0091,-1.321184 c -0.005,-0.726818 -0.01637,-1.337285 -0.02537,-1.35743 -0.03547,-0.07892 -0.109563,-0.158358 -0.183044,-0.197543 -0.07602,-0.04058 -0.08478,-0.04168 -0.810109,-0.04168 z"
     id="path4275"
     inkscape:connector-curvature="0" />
</svg>
