<?xml version="1.0" encoding="UTF-8" standalone="no"?>
<svg
   xmlns:dc="http://purl.org/dc/elements/1.1/"
   xmlns:cc="http://creativecommons.org/ns#"
   xmlns:rdf="http://www.w3.org/1999/02/22-rdf-syntax-ns#"
   xmlns:svg="http://www.w3.org/2000/svg"
   xmlns="http://www.w3.org/2000/svg"
   xmlns:sodipodi="http://sodipodi.sourceforge.net/DTD/sodipodi-0.dtd"
   xmlns:inkscape="http://www.inkscape.org/namespaces/inkscape"
   viewBox="0 0 22 22"
   id="svg3007"
   version="1.1"
   inkscape:version="0.48.3.1 r9886"
   width="100%"
   height="100%"
   sodipodi:docname="nm-signal-25-secure.svg">
  <metadata
     id="metadata3037">
    <rdf:RDF>
      <cc:Work
         rdf:about="">
        <dc:format>image/svg+xml</dc:format>
        <dc:type
           rdf:resource="http://purl.org/dc/dcmitype/StillImage" />
        <dc:title></dc:title>
      </cc:Work>
    </rdf:RDF>
  </metadata>
  <defs
     id="defs3035" />
  <sodipodi:namedview
     pagecolor="#ffffff"
     bordercolor="#666666"
     borderopacity="1"
     objecttolerance="10"
     gridtolerance="10"
     guidetolerance="10"
     inkscape:pageopacity="0"
     inkscape:pageshadow="2"
     inkscape:window-width="1301"
     inkscape:window-height="744"
     id="namedview3033"
     showgrid="false"
     inkscape:zoom="9.4972032"
     inkscape:cx="3.2259367"
     inkscape:cy="5.7232857"
     inkscape:window-x="65"
     inkscape:window-y="24"
     inkscape:window-maximized="1"
     inkscape:current-layer="svg3007" />
  <path
     style="font-size:medium;font-style:normal;font-variant:normal;font-weight:normal;font-stretch:normal;text-indent:0;text-align:start;text-decoration:none;line-height:normal;letter-spacing:normal;word-spacing:normal;text-transform:none;direction:ltr;block-progression:tb;writing-mode:lr-tb;text-anchor:start;baseline-shift:baseline;opacity:0.2;color:#000000;fill:#ffffff;fill-opacity:1;stroke:none;stroke-width:1.69959152000000002;marker:none;visibility:visible;display:inline;overflow:visible;enable-background:accumulate;font-family:Sans;-inkscape-font-specification:Sans"
     d="m 10.96875,2.984375 c -3.2667912,0 -5.7002954,1.038453 -7.3125,2.09375 -1.6122046,1.0552971 -2.4375,2.21875 -2.4375,2.21875 L 2.5,8.640625 c 0,0 0.6047767,-0.8367317 2,-1.75 1.3952233,-0.9132682 3.5013367,-1.875 6.46875,-1.875 2.951095,0 5.1215,0.9584901 6.53125,1.875 1.40975,0.91651 2.03125,1.75 2.03125,1.75 l 1.25,-1.34375 c 0,0 -0.845369,-1.1633537 -2.46875,-2.21875 -1.623381,-1.0553962 -4.091288,-2.09375 -7.34375,-2.09375 z"
     id="path3875" />
  <path
     style="font-size:medium;font-style:normal;font-variant:normal;font-weight:normal;font-stretch:normal;text-indent:0;text-align:start;text-decoration:none;line-height:normal;letter-spacing:normal;word-spacing:normal;text-transform:none;direction:ltr;block-progression:tb;writing-mode:lr-tb;text-anchor:start;baseline-shift:baseline;opacity:0.2;color:#000000;fill:#ffffff;fill-opacity:1;stroke:none;stroke-width:1.69959152000000002;marker:none;visibility:visible;display:inline;overflow:visible;enable-background:accumulate;font-family:Sans;-inkscape-font-specification:Sans"
     d="m 10.125,7.515625 c -1.9595577,0.1065701 -3.4442387,0.7194429 -4.5,1.34375 -1.2065844,0.7134942 -1.875,1.5 -1.875,1.5 l 1.21875,1.40625 c 0,0 0.4136111,-0.53802 1.40625,-1.125 0.9926389,-0.58698 2.515126,-1.1691432 4.625,-1.125 2.142015,0.044816 3.661495,0.671087 4.65625,1.25 0.994755,0.578914 1.40625,1.09375 1.40625,1.09375 l 1.1875,-1.46875 c 0,0 -0.648621,-0.7732253 -1.84375,-1.46875 C 15.211121,8.2263507 13.398445,7.5658066 11,7.515625 c -0.299154,-0.00626 -0.595063,-0.015224 -0.875,0 z"
     id="path3873" />
  <path
     style="font-size:medium;font-style:normal;font-variant:normal;font-weight:normal;font-stretch:normal;text-indent:0;text-align:start;text-decoration:none;line-height:normal;letter-spacing:normal;word-spacing:normal;text-transform:none;direction:ltr;block-progression:tb;writing-mode:lr-tb;text-anchor:start;baseline-shift:baseline;opacity:0.2;color:#000000;fill:#ffffff;fill-opacity:1;stroke:none;stroke-width:1.69959152000000002;marker:none;visibility:visible;display:inline;overflow:visible;enable-background:accumulate;font-family:Sans;-inkscape-font-specification:Sans"
     d="m 10.9375,11.671875 c -1.4304617,0.01313 -2.4419365,0.331793 -3.125,0.71875 -0.6830635,0.386958 -1.09375,0.90625 -1.09375,0.90625 l 1.25,1.34375 c 0,0 0.1041687,-0.146604 0.5625,-0.40625 0.4583313,-0.259646 1.2361787,-0.551466 2.4375,-0.5625 1.177358,-0.01075 1.944413,0.292079 2.4375,0.5625 0.493087,0.270421 0.625,0.4375 0.625,0.4375 L 15.25,13.265625 c 0,0 -0.417171,-0.486809 -1.125,-0.875 -0.707829,-0.38819 -1.765882,-0.731804 -3.1875,-0.71875 z"
     id="path3871" />
  <path
     style="font-size:medium;font-style:normal;font-variant:normal;font-weight:normal;font-stretch:normal;text-indent:0;text-align:start;text-decoration:none;line-height:normal;letter-spacing:normal;word-spacing:normal;text-transform:none;direction:ltr;block-progression:tb;writing-mode:lr-tb;text-anchor:start;baseline-shift:baseline;opacity:0.2;color:#000000;fill:#ffffff;fill-opacity:1;stroke:none;stroke-width:1.69959152000000002;marker:none;visibility:visible;display:inline;overflow:visible;enable-background:accumulate;font-family:Sans;-inkscape-font-specification:Sans"
     d="M 11 15.875 C 10.102537 15.875 9.375 16.602537 9.375 17.5 C 9.375 18.397463 10.102537 19.125 11 19.125 C 11.897463 19.125 12.625 18.397463 12.625 17.5 C 12.625 16.602537 11.897463 15.875 11 15.875 z "
     id="path3013" />
  <path
     inkscape:connector-curvature="0"
     style="opacity:0.90000000000000002;fill:#ffffff"
     d="m 18,13 c -1.108,0 -2,0.910763 -2,2.03125 L 16,16 c -0.554,0 -1,0.446 -1,1 l 0,3 c 0,0.554 0.446,1 1,1 l 4,0 c 0.554,0 1,-0.446 1,-1 l 0,-3 c 0,-0.554 -0.446,-1 -1,-1 l 0,-0.96875 C 20,13.910764 19.108,13 18,13 z m 0,1 c 0.554,0 1,0.442363 1,1 l 0,1 -2,0 0,-1 c 0,-0.557637 0.446,-1 1,-1 z"
     id="path26" />
</svg>
