<?xml version="1.0" encoding="UTF-8" standalone="no"?>
<svg
   xmlns:dc="http://purl.org/dc/elements/1.1/"
   xmlns:cc="http://creativecommons.org/ns#"
   xmlns:rdf="http://www.w3.org/1999/02/22-rdf-syntax-ns#"
   xmlns:svg="http://www.w3.org/2000/svg"
   xmlns="http://www.w3.org/2000/svg"
   xmlns:sodipodi="http://sodipodi.sourceforge.net/DTD/sodipodi-0.dtd"
   xmlns:inkscape="http://www.inkscape.org/namespaces/inkscape"
   viewBox="0 0 22 22"
   id="svg3007"
   version="1.1"
   inkscape:version="0.48.3.1 r9886"
   width="100%"
   height="100%"
   sodipodi:docname="nm-secure-lock.svg">
  <metadata
     id="metadata3037">
    <rdf:RDF>
      <cc:Work
         rdf:about="">
        <dc:format>image/svg+xml</dc:format>
        <dc:type
           rdf:resource="http://purl.org/dc/dcmitype/StillImage" />
        <dc:title></dc:title>
      </cc:Work>
    </rdf:RDF>
  </metadata>
  <defs
     id="defs3035" />
  <sodipodi:namedview
     pagecolor="#ffffff"
     bordercolor="#666666"
     borderopacity="1"
     objecttolerance="10"
     gridtolerance="10"
     guidetolerance="10"
     inkscape:pageopacity="0"
     inkscape:pageshadow="2"
     inkscape:window-width="1301"
     inkscape:window-height="744"
     id="namedview3033"
     showgrid="false"
     inkscape:zoom="9.4972032"
     inkscape:cx="-5.2502429"
     inkscape:cy="5.7232857"
     inkscape:window-x="65"
     inkscape:window-y="24"
     inkscape:window-maximized="1"
     inkscape:current-layer="svg3007" />
  <path
     inkscape:connector-curvature="0"
     style="opacity:0.9;fill:#ffffff"
     d="M 11,2 C 8.507,2 6.5,4.0492167 6.5,6.5703125 L 6.5,8.75 C 5.2535,8.75 4.25,9.7535 4.25,11 l 0,6.75 C 4.25,18.9965 5.2535,20 6.5,20 l 9,0 c 1.2465,0 2.25,-1.0035 2.25,-2.25 l 0,-6.75 c 0,-1.2465 -1.0035,-2.25 -2.25,-2.25 l 0,-2.1796875 C 15.5,4.049219 13.493,2 11,2 z m 0,2.25 c 1.2465,0 2.25,0.9953168 2.25,2.25 l 0,2.25 -4.5,0 0,-2.25 C 8.75,5.2453168 9.7535,4.25 11,4.25 z"
     id="path26" />
</svg>
