<?xml version="1.0" encoding="UTF-8" standalone="no"?>
<svg
   xmlns:dc="http://purl.org/dc/elements/1.1/"
   xmlns:cc="http://creativecommons.org/ns#"
   xmlns:rdf="http://www.w3.org/1999/02/22-rdf-syntax-ns#"
   xmlns:svg="http://www.w3.org/2000/svg"
   xmlns="http://www.w3.org/2000/svg"
   xmlns:xlink="http://www.w3.org/1999/xlink"
   xmlns:sodipodi="http://sodipodi.sourceforge.net/DTD/sodipodi-0.dtd"
   xmlns:inkscape="http://www.inkscape.org/namespaces/inkscape"
   viewBox="0 0 22 22"
   id="svg3007"
   version="1.1"
   inkscape:version="0.48.3.1 r9886"
   width="100%"
   height="100%"
   sodipodi:docname="preferences-system-symbolic.svg">
  <metadata
     id="metadata3037">
    <rdf:RDF>
      <cc:Work
         rdf:about="">
        <dc:format>image/svg+xml</dc:format>
        <dc:type
           rdf:resource="http://purl.org/dc/dcmitype/StillImage" />
        <dc:title></dc:title>
      </cc:Work>
    </rdf:RDF>
  </metadata>
  <defs
     id="defs3035">
    <linearGradient
       id="linearGradient4008-4-7">
      <stop
         id="stop4010-2-0"
         style="stop-color:#dab980;stop-opacity:1"
         offset="0" />
      <stop
         id="stop4012-5-1"
         style="stop-color:#c29856;stop-opacity:1"
         offset="0.71691591" />
      <stop
         id="stop4014-6-6"
         style="stop-color:#a2773a;stop-opacity:1"
         offset="1" />
    </linearGradient>
    <linearGradient
       inkscape:collect="always"
       xlink:href="#linearGradient3187-7-5"
       id="linearGradient3756"
       gradientUnits="userSpaceOnUse"
       gradientTransform="matrix(5.6190474,0,0,4.9043651,-170.71372,8.7516906)"
       x1="48"
       y1="78"
       x2="48"
       y2="5.9877172" />
    <linearGradient
       id="linearGradient3187-7-5">
      <stop
         id="stop3189-4-5"
         style="stop-color:#c29656;stop-opacity:1"
         offset="0" />
      <stop
         id="stop3191-1-8"
         style="stop-color:#ddc08b;stop-opacity:1"
         offset="1" />
    </linearGradient>
    <linearGradient
       inkscape:collect="always"
       xlink:href="#linearGradient4008-4-7"
       id="linearGradient3822"
       gradientUnits="userSpaceOnUse"
       gradientTransform="matrix(4.4715789,0,0,4.4715789,-908.22105,-66.542998)"
       x1="34.85965"
       y1="16.275133"
       x2="34.994316"
       y2="28.905609" />
    <linearGradient
       inkscape:collect="always"
       xlink:href="#linearGradient3187-7-5"
       id="linearGradient3824"
       gradientUnits="userSpaceOnUse"
       gradientTransform="matrix(5.6190474,0,0,4.9043651,-891.75432,21.86152)"
       x1="48"
       y1="78"
       x2="48"
       y2="5.9877172" />
    <linearGradient
       inkscape:collect="always"
       xlink:href="#linearGradient3700-2"
       id="linearGradient3844"
       gradientUnits="userSpaceOnUse"
       gradientTransform="matrix(0.21428571,0,0,0.21428571,41.116702,471.49236)"
       x1="48"
       y1="90"
       x2="48"
       y2="5.9877172" />
    <linearGradient
       id="linearGradient3700-2">
      <stop
         id="stop3702-7"
         style="stop-color:#e6e6e6;stop-opacity:1"
         offset="0" />
      <stop
         id="stop3704-3"
         style="stop-color:#f5f5f5;stop-opacity:1"
         offset="1" />
    </linearGradient>
    <linearGradient
       inkscape:collect="always"
       xlink:href="#linearGradient3700-2-5"
       id="linearGradient3930"
       gradientUnits="userSpaceOnUse"
       gradientTransform="matrix(0.21428571,0,0,0.21428571,-532.53914,489.74271)"
       x1="48"
       y1="90"
       x2="48"
       y2="5.9877172" />
    <linearGradient
       id="linearGradient3700-2-5">
      <stop
         id="stop3702-7-3"
         style="stop-color:#e6e6e6;stop-opacity:1"
         offset="0" />
      <stop
         id="stop3704-3-2"
         style="stop-color:#f5f5f5;stop-opacity:1"
         offset="1" />
    </linearGradient>
  </defs>
  <sodipodi:namedview
     pagecolor="#ffffff"
     bordercolor="#666666"
     borderopacity="1"
     objecttolerance="10"
     gridtolerance="10"
     guidetolerance="10"
     inkscape:pageopacity="0"
     inkscape:pageshadow="2"
     inkscape:window-width="1301"
     inkscape:window-height="744"
     id="namedview3033"
     showgrid="false"
     inkscape:zoom="16.972222"
     inkscape:cx="11"
     inkscape:cy="11"
     inkscape:window-x="65"
     inkscape:window-y="24"
     inkscape:window-maximized="1"
     inkscape:current-layer="svg3007" />
  <path
     style="fill:#ffffff;opacity:0.9"
     d="m 3.916985,18.01965 -0.18459,-0.18458 0,-1.77719 c 0,-1.55929 -0.008,-1.78533 -0.0664,-1.84359 -0.0538,-0.0538 -0.17483,-0.0664 -0.63938,-0.0664 -0.64361,0 -0.7729,-0.0431 -0.93998,-0.31345 -0.0826,-0.13363 -0.0866,-0.20293 -0.0866,-1.48232 0,-1.27939 0.004,-1.34869 0.0866,-1.48232 0.16708,-0.27034 0.29637,-0.31346 0.93998,-0.31346 0.46455,0 0.58554,-0.0126 0.63938,-0.0664 0.0592,-0.0592 0.0664,-0.40721 0.0664,-3.1957 l 0,-3.1293 0.18459,-0.18458 0.18458,-0.18458 0.94069,0 0.9407,0 0.18458,0.18458 0.18458,0.18458 0,3.1293 c 0,2.78849 0.007,3.13654 0.0664,3.1957 0.0536,0.0536 0.17291,0.0664 0.61825,0.0664 0.62035,0 0.75313,0.0453 0.91886,0.31346 0.0826,0.13363 0.0866,0.20293 0.0866,1.48232 0,1.27939 -0.004,1.34869 -0.0866,1.48232 -0.16573,0.26816 -0.29851,0.31345 -0.91886,0.31345 -0.44534,0 -0.56467,0.0128 -0.61825,0.0664 -0.0583,0.0583 -0.0664,0.2843 -0.0664,1.84359 l 0,1.77719 -0.18458,0.18458 -0.18458,0.18458 -0.9407,0 -0.94069,0 -0.18458,-0.18458 z m 2.38227,-5.04513 c 0.0987,-0.0528 0.23184,-0.17495 0.29577,-0.27156 0.23912,-0.36133 0.10412,-0.84413 -0.29577,-1.05775 -0.17437,-0.0931 -0.21356,-0.0959 -1.36263,-0.0959 -1.14907,0 -1.18826,0.003 -1.36263,0.0959 -0.64776,0.34603 -0.50967,1.22272 0.22178,1.4081 0.0697,0.0177 0.62113,0.0288 1.22536,0.0246 1.05375,-0.007 1.10592,-0.0114 1.27812,-0.10341 z m 3.61773,5.04513 -0.18459,-0.18458 0,-4.10114 c 0,-3.67196 -0.007,-4.10808 -0.0664,-4.16753 C 9.612195,9.5126 9.491165,9.5 9.026615,9.5 c -0.64361,0 -0.7729,-0.0431 -0.93998,-0.31345 -0.0826,-0.13363 -0.0866,-0.20293 -0.0866,-1.48232 0,-1.27939 0.004,-1.34869 0.0866,-1.48232 0.16708,-0.27034 0.29637,-0.31345 0.93998,-0.31345 0.46455,0 0.58554,-0.0126 0.63938,-0.0664 0.0557,-0.0557 0.0664,-0.19595 0.0664,-0.87176 l 0,-0.80536 0.18459,-0.18458 0.18458,-0.18458 0.94069,0 0.9407,0 0.18458,0.18458 0.18458,0.18458 0,0.80536 c 0,0.67581 0.0107,0.81604 0.0664,0.87176 0.0536,0.0536 0.17291,0.0664 0.61825,0.0664 0.62035,0 0.75313,0.0453 0.91886,0.31345 0.0826,0.13363 0.0866,0.20293 0.0866,1.48232 0,1.27939 -0.004,1.34869 -0.0866,1.48232 C 13.789895,9.45471 13.657115,9.5 13.036765,9.5 c -0.44534,0 -0.56467,0.0128 -0.61825,0.0664 -0.0594,0.0594 -0.0664,0.49557 -0.0664,4.16753 l 0,4.10114 -0.18458,0.18458 -0.18458,0.18458 -0.9407,0 -0.94069,0 -0.18458,-0.18458 z m 2.38227,-9.69301 c 0.54797,-0.29273 0.54797,-1.03659 0,-1.32932 -0.17437,-0.0932 -0.21356,-0.0959 -1.36263,-0.0959 -1.14907,0 -1.18826,0.003 -1.36263,0.0959 -0.64776,0.34603 -0.50967,1.22272 0.22178,1.4081 0.0697,0.0177 0.62113,0.0288 1.22536,0.0246 1.05375,-0.007 1.10592,-0.0114 1.27812,-0.1034 z m 3.57547,9.69301 -0.18458,-0.18458 0,-0.86874 c 0,-0.73343 -0.0103,-0.87908 -0.0664,-0.93514 -0.0538,-0.0538 -0.17482,-0.0664 -0.63938,-0.0664 -0.6436,0 -0.7729,-0.0431 -0.93998,-0.31345 -0.0826,-0.13363 -0.0866,-0.20293 -0.0866,-1.48232 0,-1.27939 0.004,-1.34869 0.0866,-1.48232 0.16708,-0.27034 0.29638,-0.31346 0.93998,-0.31346 0.46456,0 0.58555,-0.0126 0.63938,-0.0664 0.0594,-0.0594 0.0664,-0.48981 0.0664,-4.10416 l 0,-4.03775 0.18458,-0.18458 0.18458,-0.18458 0.9407,0 0.9407,0 0.18458,0.18458 0.18458,0.18458 0,4.03775 c 0,3.61435 0.007,4.04472 0.0664,4.10416 0.0536,0.0536 0.1729,0.0664 0.61825,0.0664 0.62034,0 0.75312,0.0453 0.91885,0.31346 0.0826,0.13363 0.0866,0.20293 0.0866,1.48232 0,1.27939 -0.004,1.34869 -0.0866,1.48232 -0.16573,0.26816 -0.29851,0.31345 -0.91885,0.31345 -0.44535,0 -0.56467,0.0128 -0.61825,0.0664 -0.0561,0.0561 -0.0664,0.20171 -0.0664,0.93514 l 0,0.86874 -0.18458,0.18458 -0.18458,0.18458 -0.9407,0 -0.9407,0 -0.18458,-0.18458 z m 2.38227,-3.22823 c 0.54798,-0.29272 0.54798,-1.03658 0,-1.32931 -0.17436,-0.0931 -0.21356,-0.0959 -1.36262,-0.0959 -1.14907,0 -1.18827,0.003 -1.36263,0.0959 -0.64776,0.34603 -0.50968,1.22272 0.22178,1.4081 0.0697,0.0177 0.62113,0.0288 1.22535,0.0246 1.05376,-0.007 1.10592,-0.0114 1.27812,-0.10341 z"
     id="path6672"
     inkscape:connector-curvature="0" />
</svg>
