<?xml version="1.0" encoding="UTF-8" standalone="no"?>
<!-- Created with Inkscape (http://www.inkscape.org/) -->

<svg
   xmlns:dc="http://purl.org/dc/elements/1.1/"
   xmlns:cc="http://creativecommons.org/ns#"
   xmlns:rdf="http://www.w3.org/1999/02/22-rdf-syntax-ns#"
   xmlns:svg="http://www.w3.org/2000/svg"
   xmlns="http://www.w3.org/2000/svg"
   xmlns:sodipodi="http://sodipodi.sourceforge.net/DTD/sodipodi-0.dtd"
   xmlns:inkscape="http://www.inkscape.org/namespaces/inkscape"
   id="svg7384"
   height="22"
   width="22"
   version="1.1"
   inkscape:version="0.91pre2 r"
   sodipodi:docname="psensor_hot.svg">
  <defs
     id="defs17" />
  <sodipodi:namedview
     pagecolor="#ffffff"
     bordercolor="#666666"
     borderopacity="1"
     objecttolerance="10"
     gridtolerance="10"
     guidetolerance="10"
     inkscape:pageopacity="0"
     inkscape:pageshadow="2"
     inkscape:window-width="1855"
     inkscape:window-height="1056"
     id="namedview15"
     showgrid="false"
     inkscape:zoom="25.783559"
     inkscape:cx="8.483094"
     inkscape:cy="7.0907555"
     inkscape:window-x="65"
     inkscape:window-y="24"
     inkscape:window-maximized="1"
     inkscape:current-layer="svg7384"
     showguides="true"
     inkscape:guide-bbox="true" />
  <metadata
     id="metadata90">
    <rdf:RDF>
      <cc:Work
         rdf:about="">
        <dc:format>image/svg+xml</dc:format>
        <dc:type
           rdf:resource="http://purl.org/dc/dcmitype/StillImage" />
        <dc:title>Gnome Symbolic Icon Theme</dc:title>
      </cc:Work>
    </rdf:RDF>
  </metadata>
  <title
     id="title9167">Gnome Symbolic Icon Theme</title>
  <path
     style="color:#000000;display:inline;overflow:visible;visibility:visible;fill:#ef2929;fill-opacity:1;fill-rule:nonzero;stroke:none;stroke-width:0.89999998;marker:none;enable-background:accumulate"
     d="m 5.3281758,38.341129 3.1774002,-5.831951 0,3.7494 3.5726,0 -3.6698,6.2506 0,-4.166049 z"
     id="path878"
     inkscape:connector-curvature="0"
     sodipodi:nodetypes="ccccccc" />
  <path
     style="color:#000000;text-decoration:none;text-decoration-line:none;text-decoration-style:solid;text-decoration-color:#000000;clip-rule:nonzero;display:inline;overflow:visible;visibility:visible;opacity:0.2;isolation:auto;color-interpolation:sRGB;color-interpolation-filters:linearRGB;fill:#ffffff;fill-opacity:1;fill-rule:nonzero;stroke:none;stroke-width:6.95044851;stroke-linecap:butt;stroke-linejoin:miter;stroke-miterlimit:4;stroke-dasharray:none;stroke-dashoffset:0;stroke-opacity:1;color-rendering:auto;image-rendering:auto;shape-rendering:auto;text-rendering:auto;enable-background:accumulate"
     id="path10946"
     d="m 6.8528222,15.852823 q 0,-1.039889 0.477854,-1.938651 0.477854,-0.898762 1.3469046,-1.505364 l 0,-8.076475 q 0,-0.9779915 0.6709765,-1.6563956 0.6709757,-0.6784042 1.6514437,-0.6759281 0.980467,0.00248 1.656395,0.6759281 0.675928,0.6734526 0.675928,1.6563956 l 0,8.076475 q 0.859147,0.604126 1.337001,1.505364 0.477854,0.901237 0.477854,1.938651 0,1.730674 -1.21568,2.938926 -1.21568,1.208252 -2.931498,1.208252 -1.715818,0 -2.9314984,-1.208252 -1.2156804,-1.208252 -1.2156804,-2.938926 z m 1.4261343,0 q 0,1.136451 0.7997247,1.941127 0.7997242,0.804677 1.9213198,0.804677 1.136451,0 1.95103,-0.817056 0.81458,-0.817056 0.817057,-1.928748 0,-0.760109 -0.393673,-1.406327 -0.393672,-0.646217 -1.0696,-1.010178 l -0.230262,-0.108941 q -0.118844,-0.04952 -0.118844,-0.242641 l 0,-8.752403 q 0,-0.3862446 -0.272352,-0.6536447 -0.272353,-0.2674006 -0.683356,-0.2649245 -0.398625,0 -0.678404,0.2649245 -0.27978,0.2649241 -0.277304,0.6536447 l 0,8.752403 q 0,0.193123 -0.1089409,0.242641 L 9.695187,13.436318 q -0.6660244,0.361486 -1.0398897,1.00275 -0.3738648,0.641266 -0.3763408,1.413755 z"
     inkscape:connector-curvature="0" />
  <path
     sodipodi:nodetypes="csccscssscsccscc"
     inkscape:connector-curvature="0"
     id="path10948"
     d="m 10.044268,5.219878 0,7.864889 c 0,0.128748 -0.03625,0.209565 -0.1088815,0.242578 L 9.695187,13.436329 c -0.4440166,0.24099 -0.7906579,0.575271 -1.0399013,1.002781 -0.2492434,0.42751 -0.3747283,0.898702 -0.376379,1.413694 0,0.757634 0.2666552,1.404692 0.7998047,1.941143 0.5331494,0.536451 1.1735596,0.804664 1.9212896,0.804664 0.757634,0 1.408015,-0.272368 1.951069,-0.817073 0.543053,-0.544703 0.815318,-1.187606 0.816969,-1.928734 0,-0.506739 -0.131198,-0.975541 -0.393647,-1.406353 -0.262448,-0.430811 -0.618959,-0.767481 -1.069577,-1.010122 l -0.230273,-0.108984 c -0.07923,-0.03301 -0.118808,-0.11383 -0.118808,-0.242578 l 0,-7.864889 z"
     style="color:#000000;text-decoration:none;text-decoration-line:none;text-decoration-style:solid;text-decoration-color:#000000;clip-rule:nonzero;display:inline;overflow:visible;visibility:visible;opacity:0.9;isolation:auto;color-interpolation:sRGB;color-interpolation-filters:linearRGB;fill:#f53737;fill-opacity:1;fill-rule:nonzero;stroke:none;stroke-width:1;stroke-linecap:butt;stroke-linejoin:miter;stroke-miterlimit:4;stroke-dasharray:none;stroke-dashoffset:0;stroke-opacity:1;marker:none;color-rendering:auto;image-rendering:auto;shape-rendering:auto;text-rendering:auto;enable-background:accumulate;mix-blend-mode:normal;solid-color:#000000;solid-opacity:1;filter-blend-mode:normal;filter-gaussianBlur-deviation:0" />
</svg>
