<?xml version="1.0" encoding="UTF-8" standalone="no"?>
<!-- Created with Inkscape (http://www.inkscape.org/) -->

<svg
   xmlns:dc="http://purl.org/dc/elements/1.1/"
   xmlns:cc="http://creativecommons.org/ns#"
   xmlns:rdf="http://www.w3.org/1999/02/22-rdf-syntax-ns#"
   xmlns:svg="http://www.w3.org/2000/svg"
   xmlns="http://www.w3.org/2000/svg"
   xmlns:sodipodi="http://sodipodi.sourceforge.net/DTD/sodipodi-0.dtd"
   xmlns:inkscape="http://www.inkscape.org/namespaces/inkscape"
   id="svg7384"
   height="22"
   width="22"
   version="1.1"
   inkscape:version="0.48+devel r"
   sodipodi:docname="psensor_normal.svg">
  <defs
     id="defs17" />
  <sodipodi:namedview
     pagecolor="#ffffff"
     bordercolor="#666666"
     borderopacity="1"
     objecttolerance="10"
     gridtolerance="10"
     guidetolerance="10"
     inkscape:pageopacity="0"
     inkscape:pageshadow="2"
     inkscape:window-width="1375"
     inkscape:window-height="876"
     id="namedview15"
     showgrid="false"
     inkscape:zoom="10.449211"
     inkscape:cx="-1.6446968"
     inkscape:cy="5.5219985"
     inkscape:window-x="1985"
     inkscape:window-y="24"
     inkscape:window-maximized="1"
     inkscape:current-layer="svg7384"
     showguides="true"
     inkscape:guide-bbox="true" />
  <metadata
     id="metadata90">
    <rdf:RDF>
      <cc:Work
         rdf:about="">
        <dc:format>image/svg+xml</dc:format>
        <dc:type
           rdf:resource="http://purl.org/dc/dcmitype/StillImage" />
        <dc:title>Gnome Symbolic Icon Theme</dc:title>
      </cc:Work>
    </rdf:RDF>
  </metadata>
  <title
     id="title9167">Gnome Symbolic Icon Theme</title>
  <g
     id="g10996"
     transform="matrix(0.81818185,0,0,0.81818185,20.567248,3.0773569)">
    <g
       transform="matrix(0.06470588,0,0,0.06470588,-28.258008,-6.8814752)"
       id="g10950">
      <path
         style="color:#000000;text-decoration:none;text-decoration-line:none;text-decoration-style:solid;text-decoration-color:#000000;clip-rule:nonzero;display:inline;overflow:visible;visibility:visible;opacity:0.2;isolation:auto;color-interpolation:sRGB;color-interpolation-filters:linearRGB;fill:#ffffff;fill-opacity:1;fill-rule:nonzero;stroke:none;stroke-width:6.95044851;stroke-linecap:butt;stroke-linejoin:miter;stroke-miterlimit:4;stroke-dasharray:none;stroke-dashoffset:0;stroke-opacity:1;color-rendering:auto;image-rendering:auto;shape-rendering:auto;text-rendering:auto;enable-background:accumulate"
         id="path10946"
         d="m 177.66441,347.66441 q 0,-19.64235 9.02613,-36.61896 9.02613,-16.97661 25.44153,-28.43465 l 0,-152.55563 q 0,-18.47317 12.674,-31.28747 Q 237.48006,85.9534 256,86.00017 q 18.51993,0.0468 31.28746,12.76753 12.76754,12.72077 12.76754,31.28747 l 0,152.55563 q 16.22832,11.41127 25.25446,28.43465 9.02613,17.02337 9.02613,36.61896 0,32.6905 -22.96285,55.51304 Q 288.40989,426 256,426 q -32.40989,0 -55.37274,-22.82255 -22.96285,-22.82254 -22.96285,-55.51304 z m 26.93809,0 q 0,21.46629 15.10591,36.66573 15.1059,15.19945 36.29159,15.19945 21.46629,0 36.8528,-15.43328 15.38651,-15.43328 15.43328,-36.4319 0,-14.35762 -7.43604,-26.56395 -7.43603,-12.20632 -20.20356,-19.08114 l -4.34938,-2.05777 q -2.24484,-0.93535 -2.24484,-4.58322 l 0,-165.32316 q 0,-7.29573 -5.14443,-12.34662 -5.14443,-5.0509 -12.90783,-5.00413 -7.52957,0 -12.8143,5.00413 -5.28473,5.00412 -5.23796,12.34662 l 0,165.32316 q 0,3.64787 -2.05777,4.58322 l -4.53645,2.05777 q -12.58046,6.82806 -19.64236,18.94084 -7.06189,12.11279 -7.10866,26.70425 z"
         inkscape:connector-curvature="0" />
      <path
         sodipodi:nodetypes="csccscssscsccscc"
         inkscape:connector-curvature="0"
         id="path10948"
         d="m 237.94727,260.15323 0,35.22568 c 0,2.43191 -0.6848,3.95846 -2.05665,4.58203 l -4.5371,2.05859 c -8.38698,4.55204 -14.93465,10.86622 -19.64258,18.94141 -4.70793,8.07519 -7.0782,16.97548 -7.10938,26.70312 0,14.31086 5.03682,26.53306 15.10742,36.66602 10.0706,10.13296 22.16723,15.19922 36.29102,15.19922 14.31086,0 26.59584,-5.14474 36.85352,-15.4336 10.25767,-10.28885 15.40046,-22.43256 15.43164,-36.43164 0,-9.57174 -2.47819,-18.4269 -7.43555,-26.56445 -4.95735,-8.13755 -11.69144,-14.49687 -20.20313,-19.08008 l -4.3496,-2.05859 c -1.49656,-0.62357 -2.24415,-2.15012 -2.24415,-4.58203 l 0,-35.22568 z"
         style="color:#000000;text-decoration:none;text-decoration-line:none;text-decoration-style:solid;text-decoration-color:#000000;clip-rule:nonzero;display:inline;overflow:visible;visibility:visible;opacity:0.9;isolation:auto;color-interpolation:sRGB;color-interpolation-filters:linearRGB;fill:#ffffff;fill-opacity:1;fill-rule:nonzero;stroke:none;stroke-width:6.95044851;stroke-linecap:butt;stroke-linejoin:miter;stroke-miterlimit:4;stroke-dasharray:none;stroke-dashoffset:0;stroke-opacity:1;color-rendering:auto;image-rendering:auto;shape-rendering:auto;text-rendering:auto;enable-background:accumulate" />
    </g>
  </g>
</svg>
