<?xml version="1.0" encoding="UTF-8" standalone="no"?>
<svg
   xmlns:dc="http://purl.org/dc/elements/1.1/"
   xmlns:cc="http://creativecommons.org/ns#"
   xmlns:rdf="http://www.w3.org/1999/02/22-rdf-syntax-ns#"
   xmlns:svg="http://www.w3.org/2000/svg"
   xmlns="http://www.w3.org/2000/svg"
   xmlns:xlink="http://www.w3.org/1999/xlink"
   xmlns:sodipodi="http://sodipodi.sourceforge.net/DTD/sodipodi-0.dtd"
   xmlns:inkscape="http://www.inkscape.org/namespaces/inkscape"
   viewBox="0 0 22 22"
   id="svg3007"
   version="1.1"
   inkscape:version="0.91+devel r"
   width="100%"
   height="100%"
   sodipodi:docname="redshift-status-on.svg">
  <metadata
     id="metadata3037">
    <rdf:RDF>
      <cc:Work
         rdf:about="">
        <dc:format>image/svg+xml</dc:format>
        <dc:type
           rdf:resource="http://purl.org/dc/dcmitype/StillImage" />
        <dc:title />
      </cc:Work>
    </rdf:RDF>
  </metadata>
  <defs
     id="defs3035">
    <linearGradient
       id="linearGradient4008-4-7">
      <stop
         id="stop4010-2-0"
         style="stop-color:#dab980;stop-opacity:1"
         offset="0" />
      <stop
         id="stop4012-5-1"
         style="stop-color:#c29856;stop-opacity:1"
         offset="0.71691591" />
      <stop
         id="stop4014-6-6"
         style="stop-color:#a2773a;stop-opacity:1"
         offset="1" />
    </linearGradient>
    <linearGradient
       inkscape:collect="always"
       xlink:href="#linearGradient3187-7-5"
       id="linearGradient3756"
       gradientUnits="userSpaceOnUse"
       gradientTransform="matrix(5.6190474,0,0,4.9043651,-170.71372,8.7516906)"
       x1="48"
       y1="78"
       x2="48"
       y2="5.9877172" />
    <linearGradient
       id="linearGradient3187-7-5">
      <stop
         id="stop3189-4-5"
         style="stop-color:#c29656;stop-opacity:1"
         offset="0" />
      <stop
         id="stop3191-1-8"
         style="stop-color:#ddc08b;stop-opacity:1"
         offset="1" />
    </linearGradient>
    <linearGradient
       inkscape:collect="always"
       xlink:href="#linearGradient4008-4-7"
       id="linearGradient3822"
       gradientUnits="userSpaceOnUse"
       gradientTransform="matrix(4.4715789,0,0,4.4715789,-908.22105,-66.542998)"
       x1="34.85965"
       y1="16.275133"
       x2="34.994316"
       y2="28.905609" />
    <linearGradient
       inkscape:collect="always"
       xlink:href="#linearGradient3187-7-5"
       id="linearGradient3824"
       gradientUnits="userSpaceOnUse"
       gradientTransform="matrix(5.6190474,0,0,4.9043651,-891.75432,21.86152)"
       x1="48"
       y1="78"
       x2="48"
       y2="5.9877172" />
  </defs>
  <sodipodi:namedview
     pagecolor="#ffffff"
     bordercolor="#666666"
     borderopacity="1"
     objecttolerance="10"
     gridtolerance="10"
     guidetolerance="10"
     inkscape:pageopacity="0"
     inkscape:pageshadow="2"
     inkscape:window-width="1855"
     inkscape:window-height="1056"
     id="namedview3033"
     showgrid="true"
     inkscape:zoom="26.138887"
     inkscape:cx="14.892668"
     inkscape:cy="7.9394269"
     inkscape:window-x="65"
     inkscape:window-y="24"
     inkscape:window-maximized="1"
     inkscape:current-layer="svg3007">
    <inkscape:grid
       type="xygrid"
       id="grid4707" />
  </sodipodi:namedview>
  <g
     id="g4717"
     transform="translate(-1e-7,2.076032)">
    <path
       inkscape:connector-curvature="0"
       style="color:#000000;font-style:normal;font-variant:normal;font-weight:normal;font-stretch:normal;font-size:medium;line-height:normal;font-family:sans-serif;text-indent:0;text-align:start;text-decoration:none;text-decoration-line:none;text-decoration-style:solid;text-decoration-color:#000000;letter-spacing:normal;word-spacing:normal;text-transform:none;direction:ltr;block-progression:tb;writing-mode:lr-tb;baseline-shift:baseline;text-anchor:start;white-space:normal;clip-rule:nonzero;display:inline;overflow:visible;visibility:visible;opacity:0.9;isolation:auto;mix-blend-mode:normal;color-interpolation:sRGB;color-interpolation-filters:linearRGB;solid-color:#000000;solid-opacity:1;fill:#ef2929;fill-opacity:1;fill-rule:nonzero;stroke:none;stroke-width:1.17795563;stroke-linecap:butt;stroke-linejoin:miter;stroke-miterlimit:4;stroke-dasharray:none;stroke-dashoffset:0;stroke-opacity:1;marker:none;color-rendering:auto;image-rendering:auto;shape-rendering:auto;text-rendering:auto;enable-background:accumulate"
       d="M 11,2 C 7.0770279,2 3.8789062,5.1981212 3.8789062,9.1210938 c 0,2.3414952 1.046902,4.4229672 2.9941407,5.7929682 l 0.7871093,3.179688 c 0.012469,0.08026 0.02776,0.169213 0.058594,0.261719 0.075409,0.226226 0.222543,0.507699 0.4804688,0.765625 C 8.71507,19.636945 9.6043546,20 11,20 c 1.395646,0 2.28493,-0.363055 2.800781,-0.878906 0.257926,-0.257926 0.40506,-0.539399 0.480469,-0.765625 0.03106,-0.09316 0.04614,-0.183057 0.05859,-0.263672 l 0.794922,-3.244141 c 0.622441,-0.495113 1.202639,-1.094178 1.685546,-1.785156 0.04451,-0.06164 0.08438,-0.126426 0.126954,-0.189453 0.09138,-0.139106 0.180979,-0.278125 0.263672,-0.423828 0.09744,-0.168537 0.184357,-0.342709 0.267578,-0.519531 0.03001,-0.06427 0.06363,-0.126072 0.0918,-0.191407 0.100549,-0.232215 0.185565,-0.472021 0.259766,-0.716797 0.01004,-0.03285 0.0217,-0.06459 0.03125,-0.09766 0.06723,-0.23493 0.119133,-0.475454 0.160156,-0.720703 0.01,-0.0585 0.02479,-0.114743 0.0332,-0.173828 0.04131,-0.2965765 0.06641,-0.5986344 0.06641,-0.9082032 C 18.121094,5.1981212 14.922974,2 11,2 Z m 0,1.7207031 c 2.99303,10e-8 5.400391,2.4073617 5.400391,5.4003907 0,1.8547332 -1.150517,3.5210692 -2.535157,4.5429682 -0.0033,0.0024 -0.0064,0.0054 -0.0098,0.0078 l -0.02344,0.01367 c -0.77837,0.562115 -1.809617,0.775077 -2.884765,0.771484 -0.923886,-0.0032 -2.1624564,-0.342698 -2.8515629,-0.779297 -0.023191,-0.01469 -0.0416,-0.03202 -0.064453,-0.04687 -1.4544432,-0.968073 -2.4316406,-2.629907 -2.4316406,-4.5097652 0,-0.1870643 0.00898,-0.3726435 0.027344,-0.5546876 C 5.9023946,5.8357457 8.194036,3.7207031 11,3.7207031 Z M 8.8828125,15.875 c 0.6772175,0.194064 1.3846455,0.300432 2.0585935,0.302734 0.705519,0.0024 1.443881,-0.08039 2.164063,-0.283203 l -0.460938,1.888672 0,0.0332 c -0.0034,0.01057 -0.0088,0.03807 -0.06055,0.08984 C 12.473712,18.016532 12.10886,18.279297 11,18.279297 c -1.1088594,0 -1.4737095,-0.262772 -1.5839844,-0.373047 -0.051772,-0.05177 -0.057118,-0.07928 -0.060547,-0.08984 l 0,-0.0332 L 8.8828125,15.875 Z"
       transform="translate(0,-2.076032)"
       id="path4672" />
    <path
       style="color:#000000;font-style:normal;font-variant:normal;font-weight:normal;font-stretch:normal;font-size:medium;line-height:normal;font-family:sans-serif;text-indent:0;text-align:start;text-decoration:none;text-decoration-line:none;text-decoration-style:solid;text-decoration-color:#000000;letter-spacing:normal;word-spacing:normal;text-transform:none;direction:ltr;block-progression:tb;writing-mode:lr-tb;baseline-shift:baseline;text-anchor:start;white-space:normal;clip-rule:nonzero;display:inline;overflow:visible;visibility:visible;opacity:0.2;isolation:auto;mix-blend-mode:normal;color-interpolation:sRGB;color-interpolation-filters:linearRGB;solid-color:#000000;solid-opacity:1;fill:#ffffff;fill-opacity:0.88235294;fill-rule:nonzero;stroke:none;stroke-width:0.21176472;stroke-linecap:butt;stroke-linejoin:miter;stroke-miterlimit:4;stroke-dasharray:none;stroke-dashoffset:0;stroke-opacity:1;marker:none;color-rendering:auto;image-rendering:auto;shape-rendering:auto;text-rendering:auto;enable-background:accumulate"
       d="M 11 3.7207031 C 8.194036 3.7207031 5.9024312 5.8357558 5.6269531 8.5664062 C 5.6085891 8.7484504 5.5996094 8.9340294 5.5996094 9.1210938 C 5.5996094 11.000952 6.5768068 12.662786 8.03125 13.630859 C 8.054103 13.645709 8.0725121 13.663044 8.0957031 13.677734 C 8.7848096 14.114333 10.02338 14.453831 10.947266 14.457031 C 12.022414 14.460624 13.053661 14.247662 13.832031 13.685547 L 13.855469 13.671875 C 13.858869 13.669475 13.861934 13.666462 13.865234 13.664062 C 15.249874 12.642164 16.400391 10.975827 16.400391 9.1210938 C 16.400391 6.1280648 13.99303 3.7207032 11 3.7207031 z M 8.8828125 15.875 L 9.3554688 17.783203 L 9.3554688 17.816406 C 9.3588977 17.826966 9.3642436 17.85448 9.4160156 17.90625 C 9.5262905 18.016525 9.8911406 18.279297 11 18.279297 C 12.10886 18.279297 12.473715 18.016539 12.583984 17.90625 C 12.635734 17.85448 12.641131 17.826976 12.644531 17.816406 L 12.644531 17.783203 L 13.105469 15.894531 C 12.385287 16.097344 11.646925 16.180134 10.941406 16.177734 C 10.267458 16.175432 9.56003 16.069064 8.8828125 15.875 z "
       transform="translate(1e-7,-2.076032)"
       id="path4776" />
  </g>
</svg>
