<?xml version="1.0" encoding="UTF-8" standalone="no"?>
<svg
   xmlns:dc="http://purl.org/dc/elements/1.1/"
   xmlns:cc="http://creativecommons.org/ns#"
   xmlns:rdf="http://www.w3.org/1999/02/22-rdf-syntax-ns#"
   xmlns:svg="http://www.w3.org/2000/svg"
   xmlns="http://www.w3.org/2000/svg"
   xmlns:xlink="http://www.w3.org/1999/xlink"
   xmlns:sodipodi="http://sodipodi.sourceforge.net/DTD/sodipodi-0.dtd"
   xmlns:inkscape="http://www.inkscape.org/namespaces/inkscape"
   viewBox="0 0 22 22"
   id="svg3007"
   version="1.1"
   inkscape:version="0.48.4 r9939"
   width="100%"
   height="100%"
   sodipodi:docname="redshift-status-off.svg">
  <metadata
     id="metadata3037">
    <rdf:RDF>
      <cc:Work
         rdf:about="">
        <dc:format>image/svg+xml</dc:format>
        <dc:type
           rdf:resource="http://purl.org/dc/dcmitype/StillImage" />
        <dc:title />
      </cc:Work>
    </rdf:RDF>
  </metadata>
  <defs
     id="defs3035">
    <linearGradient
       id="linearGradient4008-4-7">
      <stop
         id="stop4010-2-0"
         style="stop-color:#dab980;stop-opacity:1"
         offset="0" />
      <stop
         id="stop4012-5-1"
         style="stop-color:#c29856;stop-opacity:1"
         offset="0.71691591" />
      <stop
         id="stop4014-6-6"
         style="stop-color:#a2773a;stop-opacity:1"
         offset="1" />
    </linearGradient>
    <linearGradient
       inkscape:collect="always"
       xlink:href="#linearGradient3187-7-5"
       id="linearGradient3756"
       gradientUnits="userSpaceOnUse"
       gradientTransform="matrix(5.6190474,0,0,4.9043651,-170.71372,8.7516906)"
       x1="48"
       y1="78"
       x2="48"
       y2="5.9877172" />
    <linearGradient
       id="linearGradient3187-7-5">
      <stop
         id="stop3189-4-5"
         style="stop-color:#c29656;stop-opacity:1"
         offset="0" />
      <stop
         id="stop3191-1-8"
         style="stop-color:#ddc08b;stop-opacity:1"
         offset="1" />
    </linearGradient>
    <linearGradient
       inkscape:collect="always"
       xlink:href="#linearGradient4008-4-7"
       id="linearGradient3822"
       gradientUnits="userSpaceOnUse"
       gradientTransform="matrix(4.4715789,0,0,4.4715789,-908.22105,-66.542998)"
       x1="34.85965"
       y1="16.275133"
       x2="34.994316"
       y2="28.905609" />
    <linearGradient
       inkscape:collect="always"
       xlink:href="#linearGradient3187-7-5"
       id="linearGradient3824"
       gradientUnits="userSpaceOnUse"
       gradientTransform="matrix(5.6190474,0,0,4.9043651,-891.75432,21.86152)"
       x1="48"
       y1="78"
       x2="48"
       y2="5.9877172" />
  </defs>
  <sodipodi:namedview
     pagecolor="#ffffff"
     bordercolor="#666666"
     borderopacity="1"
     objecttolerance="10"
     gridtolerance="10"
     guidetolerance="10"
     inkscape:pageopacity="0"
     inkscape:pageshadow="2"
     inkscape:window-width="1366"
     inkscape:window-height="744"
     id="namedview3033"
     showgrid="true"
     inkscape:zoom="9.2173913"
     inkscape:cx="-3.3270186"
     inkscape:cy="2.6717294"
     inkscape:window-x="0"
     inkscape:window-y="24"
     inkscape:window-maximized="1"
     inkscape:current-layer="svg3007">
    <inkscape:grid
       type="xygrid"
       id="grid4707" />
  </sodipodi:namedview>
  <g
     id="g12355"
     style="fill:#ffffff">
    <path
       id="path12340"
       d="M 3.71875 2.4375 L 2.5 3.625 L 4.71875 5.8125 C 4.1910704 6.8013891 3.875 7.9289823 3.875 9.125 C 3.875 11.466495 4.9277613 13.536249 6.875 14.90625 L 7.65625 18.09375 C 7.668719 18.17401 7.687916 18.251244 7.71875 18.34375 C 7.794159 18.569976 7.9295742 18.867074 8.1875 19.125 C 8.703351 19.640851 9.6043546 20 11 20 C 12.395646 20 13.296649 19.640851 13.8125 19.125 C 14.070426 18.867074 14.205841 18.569976 14.28125 18.34375 C 14.31231 18.25059 14.3313 18.174365 14.34375 18.09375 L 14.84375 15.96875 L 18.375 19.46875 L 19.5625 18.28125 L 15.65625 14.375 L 14.4375 13.1875 L 6.90625 5.625 L 5.6875 4.40625 L 3.71875 2.4375 z M 6 7.125 L 13.03125 14.125 C 12.397281 14.370695 11.673177 14.471209 10.9375 14.46875 C 10.013614 14.46555 8.7828565 14.124099 8.09375 13.6875 C 8.070559 13.67281 8.054103 13.63985 8.03125 13.625 C 6.5768068 12.656927 5.59375 11.004858 5.59375 9.125 C 5.59375 8.9379357 5.606636 8.7445441 5.625 8.5625 C 5.6759994 8.0569734 5.8160652 7.5745578 6 7.125 z M 8.875 15.875 C 9.5522175 16.069064 10.263552 16.185198 10.9375 16.1875 C 11.643019 16.1899 12.373568 16.10906 13.09375 15.90625 L 12.65625 17.78125 L 12.65625 17.8125 C 12.65285 17.82307 12.6455 17.85448 12.59375 17.90625 C 12.483481 18.016539 12.10886 18.28125 11 18.28125 C 9.8911406 18.28125 9.5165249 18.016525 9.40625 17.90625 C 9.354478 17.85448 9.347179 17.82306 9.34375 17.8125 L 9.34375 17.78125 L 8.875 15.875 z "
       style="font-size:medium;font-style:normal;font-variant:normal;font-weight:normal;font-stretch:normal;text-indent:0;text-align:start;text-decoration:none;line-height:normal;letter-spacing:normal;word-spacing:normal;text-transform:none;direction:ltr;block-progression:tb;writing-mode:lr-tb;text-anchor:start;baseline-shift:baseline;opacity:1;color:#000000;fill:#ffffff;fill-opacity:0.88235293999999997;fill-rule:nonzero;stroke:none;stroke-width:0.21176471999999999;marker:none;visibility:visible;display:inline;overflow:visible;enable-background:accumulate;font-family:sans-serif" />
    <path
       d="m 7.9433977,4.2895037 7.5312713,7.5624853 c 0.417889,-0.38427 0.781531,-0.823535 1.09375,-1.312497 L 9.193401,3.1645037 c -0.4849057,0.2967125 -0.8827388,0.6950445 -1.2500033,1.125 z M 6.9375,3.28125 8.15625,4.5 C 8.9770521,3.9977499 9.9627954,3.71875 11,3.71875 c 2.99303,10e-8 5.40625,2.413221 5.40625,5.40625 0,0.99573 -0.353597,1.933433 -0.875,2.75 l 1.25,1.25 c 0.01339,-0.01881 0.018,-0.04355 0.03125,-0.0625 0.04451,-0.06164 0.08243,-0.124473 0.125,-0.1875 0.09138,-0.139106 0.198557,-0.291797 0.28125,-0.4375 0.09744,-0.168537 0.166779,-0.323178 0.25,-0.5 0.03001,-0.06427 0.06558,-0.122165 0.09375,-0.1875 0.100549,-0.232215 0.207049,-0.473974 0.28125,-0.71875 0.01004,-0.03285 0.0217,-0.06068 0.03125,-0.09375 0.06723,-0.23493 0.115227,-0.504751 0.15625,-0.75 0.01,-0.0585 0.02284,-0.09717 0.03125,-0.15625 C 18.10381,9.7346735 18.125,9.4345688 18.125,9.125 18.125,5.2020314 14.922974,2 11,2 9.4890987,2 8.0920634,2.4737649 6.9375,3.28125 z"
       style="font-size:medium;font-style:normal;font-variant:normal;font-weight:normal;font-stretch:normal;text-indent:0;text-align:start;text-decoration:none;line-height:normal;letter-spacing:normal;word-spacing:normal;text-transform:none;direction:ltr;block-progression:tb;writing-mode:lr-tb;text-anchor:start;baseline-shift:baseline;color:#000000;fill:#ffffff;fill-opacity:0.88235293999999997;fill-rule:nonzero;stroke:none;stroke-width:0.21176471999999999;marker:none;visibility:visible;display:inline;overflow:visible;enable-background:accumulate;font-family:sans-serif"
       id="path12338" />
  </g>
</svg>
