<?xml version="1.0" encoding="UTF-8" standalone="no"?>
<svg
   xmlns:dc="http://purl.org/dc/elements/1.1/"
   xmlns:cc="http://creativecommons.org/ns#"
   xmlns:rdf="http://www.w3.org/1999/02/22-rdf-syntax-ns#"
   xmlns:svg="http://www.w3.org/2000/svg"
   xmlns="http://www.w3.org/2000/svg"
   xmlns:xlink="http://www.w3.org/1999/xlink"
   xmlns:sodipodi="http://sodipodi.sourceforge.net/DTD/sodipodi-0.dtd"
   xmlns:inkscape="http://www.inkscape.org/namespaces/inkscape"
   viewBox="0 0 22 22"
   id="svg3007"
   version="1.1"
   inkscape:version="0.48.4 r9939"
   width="100%"
   height="100%"
   sodipodi:docname="redshift-status-on.svg">
  <metadata
     id="metadata3037">
    <rdf:RDF>
      <cc:Work
         rdf:about="">
        <dc:format>image/svg+xml</dc:format>
        <dc:type
           rdf:resource="http://purl.org/dc/dcmitype/StillImage" />
        <dc:title />
      </cc:Work>
    </rdf:RDF>
  </metadata>
  <defs
     id="defs3035">
    <linearGradient
       id="linearGradient4008-4-7">
      <stop
         id="stop4010-2-0"
         style="stop-color:#dab980;stop-opacity:1"
         offset="0" />
      <stop
         id="stop4012-5-1"
         style="stop-color:#c29856;stop-opacity:1"
         offset="0.71691591" />
      <stop
         id="stop4014-6-6"
         style="stop-color:#a2773a;stop-opacity:1"
         offset="1" />
    </linearGradient>
    <linearGradient
       inkscape:collect="always"
       xlink:href="#linearGradient3187-7-5"
       id="linearGradient3756"
       gradientUnits="userSpaceOnUse"
       gradientTransform="matrix(5.6190474,0,0,4.9043651,-170.71372,8.7516906)"
       x1="48"
       y1="78"
       x2="48"
       y2="5.9877172" />
    <linearGradient
       id="linearGradient3187-7-5">
      <stop
         id="stop3189-4-5"
         style="stop-color:#c29656;stop-opacity:1"
         offset="0" />
      <stop
         id="stop3191-1-8"
         style="stop-color:#ddc08b;stop-opacity:1"
         offset="1" />
    </linearGradient>
    <linearGradient
       inkscape:collect="always"
       xlink:href="#linearGradient4008-4-7"
       id="linearGradient3822"
       gradientUnits="userSpaceOnUse"
       gradientTransform="matrix(4.4715789,0,0,4.4715789,-908.22105,-66.542998)"
       x1="34.85965"
       y1="16.275133"
       x2="34.994316"
       y2="28.905609" />
    <linearGradient
       inkscape:collect="always"
       xlink:href="#linearGradient3187-7-5"
       id="linearGradient3824"
       gradientUnits="userSpaceOnUse"
       gradientTransform="matrix(5.6190474,0,0,4.9043651,-891.75432,21.86152)"
       x1="48"
       y1="78"
       x2="48"
       y2="5.9877172" />
  </defs>
  <sodipodi:namedview
     pagecolor="#ffffff"
     bordercolor="#666666"
     borderopacity="1"
     objecttolerance="10"
     gridtolerance="10"
     guidetolerance="10"
     inkscape:pageopacity="0"
     inkscape:pageshadow="2"
     inkscape:window-width="1366"
     inkscape:window-height="744"
     id="namedview3033"
     showgrid="true"
     inkscape:zoom="18.482984"
     inkscape:cx="10.253924"
     inkscape:cy="9.7807895"
     inkscape:window-x="0"
     inkscape:window-y="24"
     inkscape:window-maximized="1"
     inkscape:current-layer="svg3007">
    <inkscape:grid
       type="xygrid"
       id="grid4707" />
  </sodipodi:namedview>
  <path
     id="path4672"
     d="M 11,2 C 7.0770279,2 3.8789062,5.1981212 3.8789062,9.1210938 c 0,2.3414952 1.046902,4.4229672 2.9941407,5.7929682 l 0.7871093,3.179688 c 0.012469,0.08026 0.02776,0.169213 0.058594,0.261719 0.075409,0.226226 0.222543,0.507699 0.4804688,0.765625 C 8.71507,19.636945 9.6043546,20 11,20 c 1.395646,0 2.28493,-0.363055 2.800781,-0.878906 0.257926,-0.257926 0.40506,-0.539399 0.480469,-0.765625 0.03106,-0.09316 0.04614,-0.183057 0.05859,-0.263672 l 0.794922,-3.244141 c 0.622441,-0.495113 1.202639,-1.094178 1.685546,-1.785156 0.04451,-0.06164 0.08438,-0.126426 0.126954,-0.189453 0.09138,-0.139106 0.180979,-0.278125 0.263672,-0.423828 0.09744,-0.168537 0.184357,-0.342709 0.267578,-0.519531 0.03001,-0.06427 0.06363,-0.126072 0.0918,-0.191407 0.100549,-0.232215 0.185565,-0.472021 0.259766,-0.716797 0.01004,-0.03285 0.0217,-0.06459 0.03125,-0.09766 0.06723,-0.23493 0.119133,-0.475454 0.160156,-0.720703 0.01,-0.0585 0.02479,-0.114743 0.0332,-0.173828 0.04131,-0.2965765 0.06641,-0.5986344 0.06641,-0.9082032 C 18.121094,5.1981212 14.922974,2 11,2 z m 0,1.7207031 c 2.99303,10e-8 5.400391,2.4073617 5.400391,5.4003907 0,1.8547332 -1.150517,3.5210692 -2.535157,4.5429682 -0.0033,0.0024 -0.0064,0.0054 -0.0098,0.0078 l -0.02344,0.01367 c -0.77837,0.562115 -1.809617,0.775077 -2.884765,0.771484 -0.923886,-0.0032 -2.1624564,-0.342698 -2.8515629,-0.779297 -0.023191,-0.01469 -0.0416,-0.03202 -0.064453,-0.04687 -1.4544432,-0.968073 -2.4316406,-2.629907 -2.4316406,-4.5097652 0,-0.1870643 0.00898,-0.3726435 0.027344,-0.5546876 C 5.9023946,5.8357457 8.194036,3.7207031 11,3.7207031 z M 8.8828125,15.875 c 0.6772175,0.194064 1.3846455,0.300432 2.0585935,0.302734 0.705519,0.0024 1.443881,-0.08039 2.164063,-0.283203 l -0.460938,1.888672 0,0.0332 c -0.0034,0.01057 -0.0088,0.03807 -0.06055,0.08984 C 12.473712,18.016532 12.10886,18.279297 11,18.279297 c -1.1088594,0 -1.4737095,-0.262772 -1.5839844,-0.373047 -0.051772,-0.05177 -0.057118,-0.07928 -0.060547,-0.08984 l 0,-0.0332 L 8.8828125,15.875 z"
     style="font-size:medium;font-style:normal;font-variant:normal;font-weight:normal;font-stretch:normal;text-indent:0;text-align:start;text-decoration:none;line-height:normal;letter-spacing:normal;word-spacing:normal;text-transform:none;direction:ltr;block-progression:tb;writing-mode:lr-tb;text-anchor:start;baseline-shift:baseline;opacity:0.90000000000000002;color:#000000;fill:#ffffff;fill-opacity:1;fill-rule:nonzero;stroke:none;stroke-width:1.17795563000000003;marker:none;visibility:visible;display:inline;overflow:visible;enable-background:accumulate;font-family:sans-serif"
     inkscape:connector-curvature="0" />
</svg>
