<?xml version="1.0" encoding="UTF-8"?>
<svg xmlns="http://www.w3.org/2000/svg" xmlns:xlink="http://www.w3.org/1999/xlink" width="17pt" height="17pt" viewBox="0 0 17 17" version="1.1">
<g id="surface1">
<path style=" stroke:none;fill-rule:nonzero;fill:rgb(100%,100%,100%);fill-opacity:0.2;" d="M 8.5 2.125 C 4.980469 2.125 2.125 4.980469 2.125 8.5 C 2.125 12.019531 4.980469 14.875 8.5 14.875 C 12.019531 14.875 14.875 12.019531 14.875 8.5 C 14.875 4.980469 12.019531 2.125 8.5 2.125 Z M 8.34375 4.515625 L 8.34375 7.503906 L 11.199219 7.503906 L 8.257812 12.484375 L 8.257812 9.164062 L 5.800781 9.164062 Z "/>
<path style=" stroke:none;fill-rule:nonzero;fill:rgb(93.72549%,16.078431%,16.078431%);fill-opacity:1;" d="M 3.78125 12.773438 C 4.945312 14.0625 6.625 14.875 8.5 14.875 C 10.070312 14.875 11.503906 14.300781 12.613281 13.359375 C 11.394531 13.144531 9.796875 13.027344 7.699219 13.132812 C 5.882812 13.222656 4.648438 13.023438 3.78125 12.773438 Z "/>
</g>
</svg>
