<?xml version="1.0" encoding="UTF-8" standalone="no"?>
<!-- Created with Inkscape (http://www.inkscape.org/) -->

<svg
   xmlns:dc="http://purl.org/dc/elements/1.1/"
   xmlns:cc="http://creativecommons.org/ns#"
   xmlns:rdf="http://www.w3.org/1999/02/22-rdf-syntax-ns#"
   xmlns:svg="http://www.w3.org/2000/svg"
   xmlns="http://www.w3.org/2000/svg"
   xmlns:xlink="http://www.w3.org/1999/xlink"
   xmlns:sodipodi="http://sodipodi.sourceforge.net/DTD/sodipodi-0.dtd"
   xmlns:inkscape="http://www.inkscape.org/namespaces/inkscape"
   id="svg7384"
   height="22"
   width="22"
   version="1.1"
   inkscape:version="0.48.4 r9939"
   sodipodi:docname="solaar.svg">
  <defs
     id="defs10">
    <linearGradient
       inkscape:collect="always"
       xlink:href="#gradient_blue-8"
       id="linearGradient3038"
       gradientUnits="userSpaceOnUse"
       gradientTransform="matrix(0.2,0,0,0.2,-490.89121,710.72794)"
       x1="123.2282"
       y1="50.681431"
       x2="211.86534"
       y2="50.681431" />
    <linearGradient
       id="gradient_blue-8">
      <stop
         id="stop7-1"
         offset="0"
         style="stop-color:#009099;stop-opacity:1" />
      <stop
         id="stop9-6"
         offset="1"
         style="stop-color:#00a899;stop-opacity:1;" />
    </linearGradient>
  </defs>
  <sodipodi:namedview
     pagecolor="#ffffff"
     bordercolor="#666666"
     borderopacity="1"
     objecttolerance="10"
     gridtolerance="10"
     guidetolerance="10"
     inkscape:pageopacity="0"
     inkscape:pageshadow="2"
     inkscape:window-width="983"
     inkscape:window-height="715"
     id="namedview8"
     showgrid="false"
     inkscape:zoom="11.313709"
     inkscape:cx="11.538644"
     inkscape:cy="7.3958334"
     inkscape:window-x="66"
     inkscape:window-y="24"
     inkscape:window-maximized="0"
     inkscape:current-layer="svg7384" />
  <metadata
     id="metadata90">
    <rdf:RDF>
      <cc:Work
         rdf:about="">
        <dc:format>image/svg+xml</dc:format>
        <dc:type
           rdf:resource="http://purl.org/dc/dcmitype/StillImage" />
        <dc:title>Gnome Symbolic Icon Theme</dc:title>
      </cc:Work>
    </rdf:RDF>
  </metadata>
  <title
     id="title9167">Gnome Symbolic Icon Theme</title>
  <path
     style="color:#000000;fill:#ffffff;fill-opacity:1;fill-rule:nonzero;stroke:none;marker:none;visibility:visible;display:inline;overflow:visible;enable-background:accumulate;opacity:0.90000000000000002"
     d="m 5.7504,1.9999998 c -2.0775,0 -3.7504,1.6729 -3.7504,3.7504 L 2,6.6299002 2,16.2496 C 2,18.3271 3.6729,20 5.7504,20 l 10.4992,0 C 18.3271,20 20,18.3271 20,16.2496 l 0,-9.6196998 0,-0.8795004 c 0,-2.0775 -1.6729,-3.7504 -3.7504,-3.7504 l -10.4992,0 z m 3.10328,3.19147 1.57429,2.7255104 c 0.18575,-0.0343 0.37637,-0.0548 0.57203,-0.0548 0.19566,0 0.38628,0.0205 0.57203,0.0548 l 1.57429,-2.7255104 1.80906,1.04635 -1.57429,2.7255004 c 0.24789,0.28937 0.44203,0.624 0.57204,0.99033 l 3.14856,0 0,2.0926998 -3.14856,0 c -0.13001,0.36633 -0.32415,0.70096 -0.57204,0.99033 l 1.57429,2.7255 -1.80906,1.04635 -1.57429,-2.72551 c -0.18575,0.0343 -0.37637,0.0548 -0.57203,0.0548 -0.19566,0 -0.38628,-0.0205 -0.57203,-0.0548 L 8.85368,16.80853 7.04462,15.76218 8.61891,13.03668 C 8.37102,12.74731 8.17688,12.41268 8.04688,12.04635 l -3.14857,0 0,-2.0926998 3.14857,0 c 0.13,-0.36633 0.32414,-0.70096 0.57203,-0.99033 L 7.04462,6.2378198 8.85368,5.1914698 z m 2.20591,3.7158404 A 2.0921086,2.0921086 0 0 0 8.90731,11 a 2.0922472,2.0922472 0 0 0 4.18419,0 2.0921086,2.0921086 0 0 0 -2.03072,-2.0926898 2.0921086,2.0921086 0 0 0 -10e-4,0 z"
     id="rect5505"
     inkscape:connector-curvature="0" />
</svg>
