<?xml version="1.0" encoding="UTF-8" standalone="no"?>
<!-- Created with Inkscape (http://www.inkscape.org/) -->

<svg
   xmlns:dc="http://purl.org/dc/elements/1.1/"
   xmlns:cc="http://creativecommons.org/ns#"
   xmlns:rdf="http://www.w3.org/1999/02/22-rdf-syntax-ns#"
   xmlns:svg="http://www.w3.org/2000/svg"
   xmlns="http://www.w3.org/2000/svg"
   xmlns:xlink="http://www.w3.org/1999/xlink"
   xmlns:sodipodi="http://sodipodi.sourceforge.net/DTD/sodipodi-0.dtd"
   xmlns:inkscape="http://www.inkscape.org/namespaces/inkscape"
   width="22"
   height="22"
   id="svg3025"
   version="1.1"
   inkscape:version="0.48.4 r9939"
   sodipodi:docname="bluetooth-active.svg">
  <defs
     id="defs3027">
    <radialGradient
       inkscape:collect="always"
       xlink:href="#linearGradient3110"
       id="radialGradient3788"
       gradientUnits="userSpaceOnUse"
       gradientTransform="matrix(-4.3996089e-4,0.04703902,-0.03673109,-3.4354971e-4,53.81634,447.68463)"
       cx="256"
       cy="148.82405"
       fx="256"
       fy="148.82405"
       r="216" />
    <linearGradient
       id="linearGradient3110">
      <stop
         id="stop3112"
         offset="0"
         style="stop-color:#c5da35;stop-opacity:1;" />
      <stop
         style="stop-color:#c5da35;stop-opacity:1;"
         offset="0.07105015"
         id="stop3122" />
      <stop
         style="stop-color:#bad535;stop-opacity:1;"
         offset="0.24677444"
         id="stop3120" />
      <stop
         id="stop3126"
         offset="0.45569649"
         style="stop-color:#add333;stop-opacity:1;" />
      <stop
         id="stop3124"
         offset="0.5965941"
         style="stop-color:#a5cf36;stop-opacity:1;" />
      <stop
         style="stop-color:#9cc537;stop-opacity:1;"
         offset="0.79657596"
         id="stop3118" />
      <stop
         id="stop3114"
         offset="1"
         style="stop-color:#92c137;stop-opacity:1;" />
    </linearGradient>
  </defs>
  <sodipodi:namedview
     id="base"
     pagecolor="#ffffff"
     bordercolor="#666666"
     borderopacity="1.0"
     inkscape:pageopacity="0.0"
     inkscape:pageshadow="2"
     inkscape:zoom="23.880618"
     inkscape:cx="3.7954744"
     inkscape:cy="12.167459"
     inkscape:document-units="px"
     inkscape:current-layer="layer1"
     showgrid="false"
     inkscape:window-width="1301"
     inkscape:window-height="744"
     inkscape:window-x="65"
     inkscape:window-y="24"
     inkscape:window-maximized="1" />
  <metadata
     id="metadata3030">
    <rdf:RDF>
      <cc:Work
         rdf:about="">
        <dc:format>image/svg+xml</dc:format>
        <dc:type
           rdf:resource="http://purl.org/dc/dcmitype/StillImage" />
        <dc:title></dc:title>
      </cc:Work>
    </rdf:RDF>
  </metadata>
  <g
     inkscape:label="Livello 1"
     inkscape:groupmode="layer"
     id="layer1"
     transform="translate(0,-1030.3622)">
    <path
       style="opacity:0.9;color:#000000;fill:#ffffff;fill-opacity:1;fill-rule:nonzero;stroke:none;stroke-width:1.5;marker:none;visibility:visible;display:inline;overflow:visible;enable-background:accumulate"
       d="M 5.750397,1032.3622 C 3.672897,1032.3622 2,1034.0351 2,1036.1126 l 0,10.4992 c 0,2.0775 1.672897,3.7504 3.750397,3.7504 l 10.499206,0 c 2.0775,0 3.750397,-1.6729 3.750397,-3.7504 l 0,-10.4992 c 0,-2.0775 -1.672897,-3.7504 -3.750397,-3.7504 l -10.499206,0 z m 3.742055,4.7252 c 2.642696,0 5.422142,0.5435 7.453124,1.7364 0.273755,0.1551 0.464778,0.389 0.464778,0.8175 0,0.4906 -0.395165,0.8426 -0.849708,0.8426 -0.183241,0 -0.291799,-0.044 -0.463586,-0.1382 -1.629042,-0.9768 -4.15737,-1.5148 -6.602224,-1.5148 -1.220405,0 -2.458904,0.1245 -3.594281,0.4327 -0.130764,0.033 -0.296949,0.098 -0.462393,0.098 -0.480108,0 -0.848518,-0.3791 -0.848518,-0.8592 0,-0.4891 0.303447,-0.7638 0.630429,-0.8604 1.28294,-0.378 2.715641,-0.5542 4.272379,-0.5542 z m -0.183527,3.0926 c 2.355749,0 4.63414,0.5866 6.425847,1.6589 0.300373,0.1722 0.411149,0.391 0.411149,0.7115 0,0.3897 -0.310673,0.7043 -0.701933,0.7043 -0.195282,0 -0.317763,-0.079 -0.450477,-0.1561 -1.46401,-0.8688 -3.493627,-1.4456 -5.715571,-1.4456 -1.139614,0 -2.122247,0.1586 -2.936442,0.3754 -0.175419,0.048 -0.274399,0.1013 -0.438559,0.1013 -0.387072,0 -0.703125,-0.3165 -0.703125,-0.7067 0,-0.3828 0.185891,-0.6454 0.560116,-0.7508 1.011706,-0.2779 2.045258,-0.4922 3.548995,-0.4922 z m 0.122748,2.9388 c 1.969425,0 3.725005,0.451 5.235303,1.3562 0.224785,0.1313 0.356329,0.2654 0.356329,0.5983 0,0.3244 -0.264132,0.5637 -0.560117,0.5637 -0.145548,0 -0.24406,-0.051 -0.380164,-0.1335 -1.304365,-0.7892 -2.931178,-1.2037 -4.657309,-1.2037 -0.963,0 -1.932234,0.1236 -2.838718,0.3123 -0.147402,0.032 -0.332602,0.088 -0.443327,0.088 -0.341779,0 -0.56965,-0.2708 -0.56965,-0.5648 0,-0.3782 0.218427,-0.5667 0.489804,-0.6186 1.111617,-0.2533 2.217993,-0.398 3.367849,-0.398 z"
       id="rect3830-7"
       inkscape:connector-curvature="0" />
  </g>
</svg>
