<?xml version="1.0" encoding="UTF-8" standalone="no"?>
<!-- Created with Inkscape (http://www.inkscape.org/) -->

<svg
   xmlns:dc="http://purl.org/dc/elements/1.1/"
   xmlns:cc="http://creativecommons.org/ns#"
   xmlns:rdf="http://www.w3.org/1999/02/22-rdf-syntax-ns#"
   xmlns:svg="http://www.w3.org/2000/svg"
   xmlns="http://www.w3.org/2000/svg"
   xmlns:xlink="http://www.w3.org/1999/xlink"
   xmlns:sodipodi="http://sodipodi.sourceforge.net/DTD/sodipodi-0.dtd"
   xmlns:inkscape="http://www.inkscape.org/namespaces/inkscape"
   id="svg7384"
   height="22"
   width="22"
   version="1.1"
   inkscape:version="0.48.4 r9939"
   sodipodi:docname="subtitles-active.svg">
  <defs
     id="defs12">
    <linearGradient
       inkscape:collect="always"
       xlink:href="#linearGradient4327"
       id="linearGradient3279"
       gradientUnits="userSpaceOnUse"
       gradientTransform="matrix(0.46153846,0,0,0.46153846,-525.10827,505.2697)"
       x1="18.930269"
       y1="6.2951212"
       x2="19.360001"
       y2="36.643665" />
    <linearGradient
       id="linearGradient4327">
      <stop
         id="stop4329"
         style="stop-color:#c8c8c8;stop-opacity:1;"
         offset="0" />
      <stop
         id="stop4331"
         style="stop-color:#8c8c8c;stop-opacity:1;"
         offset="1" />
    </linearGradient>
    <linearGradient
       inkscape:collect="always"
       xlink:href="#linearGradient4327-2"
       id="linearGradient4179"
       gradientUnits="userSpaceOnUse"
       gradientTransform="matrix(0.46153846,0,0,0.46153846,17.922821,433.00134)"
       x1="18.930269"
       y1="6.2951212"
       x2="19.360001"
       y2="36.643665" />
    <linearGradient
       id="linearGradient4327-2">
      <stop
         id="stop4329-4"
         style="stop-color:#c8c8c8;stop-opacity:1;"
         offset="0" />
      <stop
         id="stop4331-9"
         style="stop-color:#8c8c8c;stop-opacity:1;"
         offset="1" />
    </linearGradient>
    <linearGradient
       y2="36.643665"
       x2="19.360001"
       y1="6.2951212"
       x1="18.930269"
       gradientTransform="matrix(0.46153846,0,0,0.46153846,-23.678756,18.849483)"
       gradientUnits="userSpaceOnUse"
       id="linearGradient4213"
       xlink:href="#linearGradient4327-2"
       inkscape:collect="always" />
    <linearGradient
       inkscape:collect="always"
       xlink:href="#linearGradient4327-0"
       id="linearGradient4254"
       gradientUnits="userSpaceOnUse"
       gradientTransform="matrix(0.46153846,0,0,0.46153846,17.922821,471.47592)"
       x1="18.930269"
       y1="6.2951212"
       x2="19.360001"
       y2="36.643665" />
    <linearGradient
       id="linearGradient4327-0">
      <stop
         id="stop4329-1"
         style="stop-color:#c8c8c8;stop-opacity:1;"
         offset="0" />
      <stop
         id="stop4331-0"
         style="stop-color:#8c8c8c;stop-opacity:1;"
         offset="1" />
    </linearGradient>
  </defs>
  <sodipodi:namedview
     pagecolor="#ffffff"
     bordercolor="#666666"
     borderopacity="1"
     objecttolerance="10"
     gridtolerance="10"
     guidetolerance="10"
     inkscape:pageopacity="0"
     inkscape:pageshadow="2"
     inkscape:window-width="1301"
     inkscape:window-height="744"
     id="namedview10"
     showgrid="false"
     showguides="true"
     inkscape:guide-bbox="true"
     inkscape:zoom="8.0148699"
     inkscape:cx="1.8197281"
     inkscape:cy="8.9780338"
     inkscape:window-x="65"
     inkscape:window-y="24"
     inkscape:window-maximized="1"
     inkscape:current-layer="svg7384" />
  <metadata
     id="metadata90">
    <rdf:RDF>
      <cc:Work
         rdf:about="">
        <dc:format>image/svg+xml</dc:format>
        <dc:type
           rdf:resource="http://purl.org/dc/dcmitype/StillImage" />
        <dc:title>Gnome Symbolic Icon Theme</dc:title>
      </cc:Work>
    </rdf:RDF>
  </metadata>
  <title
     id="title9167">Gnome Symbolic Icon Theme</title>
  <path
     style="opacity:0.2;fill:#ffffff;fill-opacity:1;stroke:none"
     d="M 5.75 2 C 3.6725 2 2 3.6725 2 5.75 L 2 6.625 L 2 16.25 C 2 18.3275 3.6725 20 5.75 20 L 16.25 20 C 18.3275 20 20 18.3275 20 16.25 L 20 6.625 L 20 5.75 C 20 3.6725 18.3275 2 16.25 2 L 5.75 2 z M 7.625 7 C 8.2064 7 8.7339 7.1015 9.1875 7.3125 C 9.642 7.5225 9.9517 7.8705 10.1875 8.3125 L 8.9375 9.3125 C 8.7863 9.0885 8.6409 8.9205 8.4375 8.8125 C 8.2359 8.7035 7.9436 8.625 7.625 8.625 C 7.0553 8.625 6.6796 8.8005 6.4375 9.1875 C 6.1963 9.5755 6.0625 10.187 6.0625 11 C 6.0625 11.812 6.19 12.4365 6.4375 12.8125 C 6.6832 13.1885 7.0899 13.375 7.6875 13.375 C 7.9458 13.375 8.2233 13.33 8.4375 13.25 C 8.6526 13.168 8.8681 12.9635 9.0625 12.6875 L 10.3125 13.6875 C 10.0551 14.1175 9.673 14.404 9.25 14.625 C 8.8279 14.844 8.3319 15 7.6875 15 C 6.594 15 5.7473 14.662 5.1875 14 C 4.6286 13.338 4.375 12.3605 4.375 11.0625 C 4.375 9.7935 4.6466 8.7705 5.1875 8.0625 C 5.7302 7.3545 6.5396 7 7.625 7 z M 14.9375 7 C 15.5189 7 16.0455 7.1015 16.5 7.3125 C 16.9536 7.5225 17.3258 7.8705 17.5625 8.3125 L 16.3125 9.3125 C 16.1631 9.0875 15.9534 8.9195 15.75 8.8125 C 15.5475 8.7055 15.3159 8.625 15 8.625 C 14.4303 8.625 13.9921 8.7995 13.75 9.1875 C 13.5079 9.5755 13.4375 10.186 13.4375 11 C 13.4375 11.814 13.5043 12.4365 13.75 12.8125 C 13.9975 13.1885 14.464 13.375 15.0625 13.375 C 15.3199 13.375 15.5349 13.332 15.75 13.25 C 15.9624 13.17 16.1788 12.9635 16.375 12.6875 L 17.625 13.6875 C 17.3694 14.1145 17.0471 14.404 16.625 14.625 C 16.202 14.844 15.6453 15 15 15 C 13.9065 15 13.0598 14.662 12.5 14 C 11.9411 13.338 11.6875 12.3605 11.6875 11.0625 C 11.6875 9.7935 11.96 8.7705 12.5 8.0625 C 13.04 7.3545 13.853 7 14.9375 7 z "
     id="path3018" />
</svg>
