<?xml version="1.0" encoding="UTF-8" standalone="no"?>
<svg
   xmlns:dc="http://purl.org/dc/elements/1.1/"
   xmlns:cc="http://creativecommons.org/ns#"
   xmlns:rdf="http://www.w3.org/1999/02/22-rdf-syntax-ns#"
   xmlns:svg="http://www.w3.org/2000/svg"
   xmlns="http://www.w3.org/2000/svg"
   xmlns:xlink="http://www.w3.org/1999/xlink"
   xmlns:sodipodi="http://sodipodi.sourceforge.net/DTD/sodipodi-0.dtd"
   xmlns:inkscape="http://www.inkscape.org/namespaces/inkscape"
   viewBox="0 0 22 22"
   id="svg3007"
   version="1.1"
   inkscape:version="0.91pre2 r"
   width="100%"
   height="100%"
   sodipodi:docname="user-home-symbolic.svg">
  <metadata
     id="metadata3037">
    <rdf:RDF>
      <cc:Work
         rdf:about="">
        <dc:format>image/svg+xml</dc:format>
        <dc:type
           rdf:resource="http://purl.org/dc/dcmitype/StillImage" />
        <dc:title />
      </cc:Work>
    </rdf:RDF>
  </metadata>
  <defs
     id="defs3035">
    <linearGradient
       id="linearGradient4008-4-7">
      <stop
         id="stop4010-2-0"
         style="stop-color:#dab980;stop-opacity:1"
         offset="0" />
      <stop
         id="stop4012-5-1"
         style="stop-color:#c29856;stop-opacity:1"
         offset="0.71691591" />
      <stop
         id="stop4014-6-6"
         style="stop-color:#a2773a;stop-opacity:1"
         offset="1" />
    </linearGradient>
    <linearGradient
       inkscape:collect="always"
       xlink:href="#linearGradient3187-7-5"
       id="linearGradient3756"
       gradientUnits="userSpaceOnUse"
       gradientTransform="matrix(5.6190474,0,0,4.9043651,-170.71372,8.7516906)"
       x1="48"
       y1="78"
       x2="48"
       y2="5.9877172" />
    <linearGradient
       id="linearGradient3187-7-5">
      <stop
         id="stop3189-4-5"
         style="stop-color:#c29656;stop-opacity:1"
         offset="0" />
      <stop
         id="stop3191-1-8"
         style="stop-color:#ddc08b;stop-opacity:1"
         offset="1" />
    </linearGradient>
    <linearGradient
       inkscape:collect="always"
       xlink:href="#linearGradient4008-4-7"
       id="linearGradient3822"
       gradientUnits="userSpaceOnUse"
       gradientTransform="matrix(4.4715789,0,0,4.4715789,-908.22105,-66.542998)"
       x1="34.85965"
       y1="16.275133"
       x2="34.994316"
       y2="28.905609" />
    <linearGradient
       inkscape:collect="always"
       xlink:href="#linearGradient3187-7-5"
       id="linearGradient3824"
       gradientUnits="userSpaceOnUse"
       gradientTransform="matrix(5.6190474,0,0,4.9043651,-891.75432,21.86152)"
       x1="48"
       y1="78"
       x2="48"
       y2="5.9877172" />
  </defs>
  <sodipodi:namedview
     pagecolor="#ffffff"
     bordercolor="#666666"
     borderopacity="1"
     objecttolerance="10"
     gridtolerance="10"
     guidetolerance="10"
     inkscape:pageopacity="0"
     inkscape:pageshadow="2"
     inkscape:window-width="1855"
     inkscape:window-height="1056"
     id="namedview3033"
     showgrid="false"
     inkscape:zoom="12.001175"
     inkscape:cx="-14.891458"
     inkscape:cy="11"
     inkscape:window-x="65"
     inkscape:window-y="24"
     inkscape:window-maximized="1"
     inkscape:current-layer="svg3007" />
  <path
     sodipodi:nodetypes="cccccccccsccssccsssssccssccsccc"
     style="font-size:medium;font-style:normal;font-variant:normal;font-weight:normal;font-stretch:normal;text-indent:0;text-align:start;text-decoration:none;line-height:normal;letter-spacing:normal;word-spacing:normal;text-transform:none;direction:ltr;block-progression:tb;writing-mode:lr-tb;text-anchor:start;baseline-shift:baseline;color:#000000;fill:#ffffff;fill-opacity:1;fill-rule:nonzero;stroke:none;stroke-width:20;marker:none;visibility:visible;display:inline;overflow:visible;enable-background:accumulate;font-family:Sans;-inkscape-font-specification:Sans;opacity:0.9"
     d="m 11.007287,2.801885 c -0.0902,-10e-4 -0.18054,0.034 -0.24878,0.0975 -0.9068297,0.84167 -2.1736197,2.0147 -3.2666657,3.04421 l 0,-0.42757 c -1.9e-5,-0.20946 -0.177229,-0.40004 -0.372005,-0.40006 l -2.178552,0 c -0.194776,2e-5 -0.371986,0.1906 -0.372005,0.40006 l 0,3.20174 -2.4447678,2.32785 c -0.112487,0.10675 -0.1549,0.29078 -0.101786,0.44166 0.05311,0.15089 0.198221,0.25858 0.34824,0.25845 l 2.1983408,0 -2.7e-5,6.668511 c -2e-6,0.42849 0.333082,0.78387 0.73006,0.78387 l 3.638668,0 c 0.19478,-2e-5 0.37199,-0.19059 0.37201,-0.40006 l 0,-3.68056 c 0,-0.18883 0.0756,-0.32005 0.28249,-0.32005 l 2.8144497,0 c 0.11579,0 0.16217,0.0357 0.20692,0.0913 0.0448,0.0556 0.0756,0.14621 0.0756,0.22878 l 0,3.68056 c 2e-5,0.20947 0.17723,0.40004 0.372,0.40006 l 3.63984,0 c 0.39697,0 0.72889,-0.35695 0.72889,-0.78387 l 0,-6.668511 2.19832,0 c 0.15099,3.3e-4 0.29705,-0.10863 0.3496,-0.26086 0.0525,-0.15223 0.008,-0.33731 -0.10664,-0.443 -0.84157,-0.77744 -7.10074,-6.71683 -8.62586,-8.14248 -0.0656,-0.061 -0.15157,-0.0962 -0.23831,-0.0975 z"
     id="path3919"
     inkscape:connector-curvature="0" />
</svg>
