<?xml version="1.0" encoding="UTF-8" standalone="no"?>
<svg
   xmlns:dc="http://purl.org/dc/elements/1.1/"
   xmlns:cc="http://creativecommons.org/ns#"
   xmlns:rdf="http://www.w3.org/1999/02/22-rdf-syntax-ns#"
   xmlns:svg="http://www.w3.org/2000/svg"
   xmlns="http://www.w3.org/2000/svg"
   xmlns:xlink="http://www.w3.org/1999/xlink"
   xmlns:sodipodi="http://sodipodi.sourceforge.net/DTD/sodipodi-0.dtd"
   xmlns:inkscape="http://www.inkscape.org/namespaces/inkscape"
   viewBox="0 0 22 22"
   id="svg3007"
   version="1.1"
   inkscape:version="0.48.4 r9939"
   width="100%"
   height="100%"
   sodipodi:docname="user-trash-full-symbolic.svg">
  <metadata
     id="metadata3037">
    <rdf:RDF>
      <cc:Work
         rdf:about="">
        <dc:format>image/svg+xml</dc:format>
        <dc:type
           rdf:resource="http://purl.org/dc/dcmitype/StillImage" />
        <dc:title />
      </cc:Work>
    </rdf:RDF>
  </metadata>
  <defs
     id="defs3035">
    <linearGradient
       id="linearGradient4008-4-7">
      <stop
         id="stop4010-2-0"
         style="stop-color:#dab980;stop-opacity:1"
         offset="0" />
      <stop
         id="stop4012-5-1"
         style="stop-color:#c29856;stop-opacity:1"
         offset="0.71691591" />
      <stop
         id="stop4014-6-6"
         style="stop-color:#a2773a;stop-opacity:1"
         offset="1" />
    </linearGradient>
    <linearGradient
       inkscape:collect="always"
       xlink:href="#linearGradient3187-7-5"
       id="linearGradient3756"
       gradientUnits="userSpaceOnUse"
       gradientTransform="matrix(5.6190474,0,0,4.9043651,-170.71372,8.7516906)"
       x1="48"
       y1="78"
       x2="48"
       y2="5.9877172" />
    <linearGradient
       id="linearGradient3187-7-5">
      <stop
         id="stop3189-4-5"
         style="stop-color:#c29656;stop-opacity:1"
         offset="0" />
      <stop
         id="stop3191-1-8"
         style="stop-color:#ddc08b;stop-opacity:1"
         offset="1" />
    </linearGradient>
    <linearGradient
       inkscape:collect="always"
       xlink:href="#linearGradient4008-4-7"
       id="linearGradient3822"
       gradientUnits="userSpaceOnUse"
       gradientTransform="matrix(4.4715789,0,0,4.4715789,-908.22105,-66.542998)"
       x1="34.85965"
       y1="16.275133"
       x2="34.994316"
       y2="28.905609" />
    <linearGradient
       inkscape:collect="always"
       xlink:href="#linearGradient3187-7-5"
       id="linearGradient3824"
       gradientUnits="userSpaceOnUse"
       gradientTransform="matrix(5.6190474,0,0,4.9043651,-891.75432,21.86152)"
       x1="48"
       y1="78"
       x2="48"
       y2="5.9877172" />
  </defs>
  <sodipodi:namedview
     pagecolor="#ffffff"
     bordercolor="#666666"
     borderopacity="1"
     objecttolerance="10"
     gridtolerance="10"
     guidetolerance="10"
     inkscape:pageopacity="0"
     inkscape:pageshadow="2"
     inkscape:window-width="1366"
     inkscape:window-height="717"
     id="namedview3033"
     showgrid="false"
     inkscape:zoom="12.001175"
     inkscape:cx="-2.9342957"
     inkscape:cy="11"
     inkscape:window-x="0"
     inkscape:window-y="27"
     inkscape:window-maximized="1"
     inkscape:current-layer="svg3007" />
  <g
     id="g7339"
     transform="matrix(0.97312554,0,0,0.97312554,24.299468,-1.8947224)">
    <path
       style="opacity:0.90000000000000002;fill:#b3b3b3;fill-opacity:1;fill-rule:nonzero;stroke:none"
       d="m -16.812506,5.6243818 c -0.09444,4.807e-4 -0.193146,0.026725 -0.290612,0.089996 -0.313851,0.1834811 -0.586848,0.432853 -0.746217,0.7087188 l -1.355565,2.3286468 1.548682,2.6792566 2.866747,0 0.871837,-1.657427 -1.953664,-3.3823501 c 0,0 -0.28726,-0.5112908 -0.669345,-0.6993438 -0.08687,-0.042676 -0.177426,-0.067956 -0.271863,-0.067497 z"
       id="path7317"
       inkscape:connector-curvature="0" />
    <path
       style="opacity:0.90000000000000002;fill:#b3b3b3;fill-opacity:1;fill-rule:nonzero;stroke:none"
       d="m -9.5903259,11.945268 -1.3068171,2.559262 0.871837,1.507433 3.9073265,0 c 0,0 0.5855034,0.0084 0.9393334,-0.22874 0.1607748,-0.107744 0.2743682,-0.266514 0.2624883,-0.498728 -0.00199,-0.363483 -0.082652,-0.72534 -0.2418642,-1.001206 l -1.3386909,-2.338021 -3.093613,0 z"
       id="path7315"
       inkscape:connector-curvature="0" />
    <path
       style="opacity:0.90000000000000002;fill:#b3b3b3;fill-opacity:1;fill-rule:nonzero;stroke:none"
       d="m -17.306441,16.511949 -1.953663,3.384225 c 0,0 -0.2984,0.504963 -0.269989,0.929959 0.01282,0.19329 0.09302,0.368877 0.299987,0.474354 0.315728,0.180159 0.669619,0.292487 0.988082,0.292487 l 2.677381,0 1.563681,-2.669882 -1.563681,-2.411143 -1.741798,0 z"
       id="path22"
       inkscape:connector-curvature="0" />
    <path
       style="opacity:0.9;fill:#ffffff;fill-opacity:1;fill-rule:nonzero;stroke:none"
       d="m -15.591041,4.9086907 c -0.29934,0 -0.629239,0.099271 -0.929959,0.2606132 0.166746,-0.074811 0.330747,-0.050808 0.479979,0.022499 0.382085,0.188053 0.669345,0.6993438 0.669345,0.6993438 l 1.953664,3.3823502 0.871836,1.5093081 c 0.323309,0.560096 1.038741,0.753172 1.599304,0.431231 l 0.0038,-0.0038 2.3605207,-1.363064 0.013124,-0.0075 c 0.5552097,-0.325614 0.74411,-1.039015 0.4218566,-1.5974292 L -9.4863093,5.9230186 C -9.808719,5.3646043 -10.600161,4.9086887 -11.244981,4.9086887 l -4.346058,0 z"
       id="path7311"
       inkscape:connector-curvature="0" />
    <path
       style="opacity:0.9;fill:#ffffff;fill-opacity:1;fill-rule:nonzero;stroke:none"
       d="m -20.292352,11.378665 c -0.413829,-0.0091 -0.820797,0.201172 -1.042454,0.584974 l -1.33869,2.319272 c -0.322411,0.558415 -0.322411,1.472121 0,2.030536 l 2.173028,3.764833 c 0.151025,0.261472 0.405678,0.498416 0.699344,0.67872 -0.154259,-0.107137 -0.217524,-0.262103 -0.22874,-0.431231 -0.02841,-0.424996 0.269989,-0.929959 0.269989,-0.929959 l 1.953663,-3.384225 0.871837,-1.507433 c 0.323347,-0.560096 0.131714,-1.276933 -0.427481,-1.60118 l -0.0038,-0.0019 -2.360521,-1.363064 -0.015,-0.0075 c -0.174883,-0.09936 -0.363121,-0.147728 -0.551225,-0.151868 z"
       id="path7309"
       inkscape:connector-curvature="0" />
    <path
       style="opacity:0.9;fill:#ffffff;fill-opacity:1;fill-rule:nonzero;stroke:none"
       d="m -4.4182299,15.870727 c -0.016367,0.186279 -0.1204113,0.318526 -0.2606132,0.412482 -0.35383,0.237099 -0.9393334,0.22874 -0.9393334,0.22874 l -5.6509995,0 c -0.646657,0 -1.170612,0.523565 -1.171824,1.169948 l 0,0.0056 0.0019,2.726129 0,0.015 c 0.0044,0.643765 0.525285,1.164167 1.169949,1.164324 l 2.6792562,0 c 0.6448201,0 1.4362618,-0.455916 1.7586719,-1.01433 l 2.1730287,-3.764834 c 0.1506883,-0.260889 0.2301907,-0.599365 0.2399896,-0.943083 z"
       id="path24"
       inkscape:connector-curvature="0" />
  </g>
</svg>
