<?xml version="1.0" encoding="UTF-8" standalone="no"?>
<svg
   xmlns:dc="http://purl.org/dc/elements/1.1/"
   xmlns:cc="http://creativecommons.org/ns#"
   xmlns:rdf="http://www.w3.org/1999/02/22-rdf-syntax-ns#"
   xmlns:svg="http://www.w3.org/2000/svg"
   xmlns="http://www.w3.org/2000/svg"
   xmlns:xlink="http://www.w3.org/1999/xlink"
   xmlns:sodipodi="http://sodipodi.sourceforge.net/DTD/sodipodi-0.dtd"
   xmlns:inkscape="http://www.inkscape.org/namespaces/inkscape"
   viewBox="0 0 22 22"
   id="svg3007"
   version="1.1"
   inkscape:version="0.48.3.1 r9886"
   width="100%"
   height="100%"
   sodipodi:docname="user-trash-full-symbolic.svg">
  <metadata
     id="metadata3037">
    <rdf:RDF>
      <cc:Work
         rdf:about="">
        <dc:format>image/svg+xml</dc:format>
        <dc:type
           rdf:resource="http://purl.org/dc/dcmitype/StillImage" />
        <dc:title></dc:title>
      </cc:Work>
    </rdf:RDF>
  </metadata>
  <defs
     id="defs3035">
    <linearGradient
       id="linearGradient4008-4-7">
      <stop
         id="stop4010-2-0"
         style="stop-color:#dab980;stop-opacity:1"
         offset="0" />
      <stop
         id="stop4012-5-1"
         style="stop-color:#c29856;stop-opacity:1"
         offset="0.71691591" />
      <stop
         id="stop4014-6-6"
         style="stop-color:#a2773a;stop-opacity:1"
         offset="1" />
    </linearGradient>
    <linearGradient
       inkscape:collect="always"
       xlink:href="#linearGradient3187-7-5"
       id="linearGradient3756"
       gradientUnits="userSpaceOnUse"
       gradientTransform="matrix(5.6190474,0,0,4.9043651,-170.71372,8.7516906)"
       x1="48"
       y1="78"
       x2="48"
       y2="5.9877172" />
    <linearGradient
       id="linearGradient3187-7-5">
      <stop
         id="stop3189-4-5"
         style="stop-color:#c29656;stop-opacity:1"
         offset="0" />
      <stop
         id="stop3191-1-8"
         style="stop-color:#ddc08b;stop-opacity:1"
         offset="1" />
    </linearGradient>
    <linearGradient
       inkscape:collect="always"
       xlink:href="#linearGradient4008-4-7"
       id="linearGradient3822"
       gradientUnits="userSpaceOnUse"
       gradientTransform="matrix(4.4715789,0,0,4.4715789,-908.22105,-66.542998)"
       x1="34.85965"
       y1="16.275133"
       x2="34.994316"
       y2="28.905609" />
    <linearGradient
       inkscape:collect="always"
       xlink:href="#linearGradient3187-7-5"
       id="linearGradient3824"
       gradientUnits="userSpaceOnUse"
       gradientTransform="matrix(5.6190474,0,0,4.9043651,-891.75432,21.86152)"
       x1="48"
       y1="78"
       x2="48"
       y2="5.9877172" />
  </defs>
  <sodipodi:namedview
     pagecolor="#ffffff"
     bordercolor="#666666"
     borderopacity="1"
     objecttolerance="10"
     gridtolerance="10"
     guidetolerance="10"
     inkscape:pageopacity="0"
     inkscape:pageshadow="2"
     inkscape:window-width="1301"
     inkscape:window-height="744"
     id="namedview3033"
     showgrid="false"
     inkscape:zoom="12.001175"
     inkscape:cx="9.9394437"
     inkscape:cy="11"
     inkscape:window-x="65"
     inkscape:window-y="24"
     inkscape:window-maximized="1"
     inkscape:current-layer="svg3007" />
  <path
     inkscape:connector-curvature="0"
     id="path7317"
     d="M 7.938789,3.5785072 C 7.846887,3.578975 7.7508337,3.604514 7.6559871,3.6660846 7.3505706,3.8446347 7.0849103,4.0873049 6.9298242,4.3557569 l -1.3191349,2.2660657 1.507062,2.607253 2.7897047,0 0.848407,-1.6128845 -1.9011604,-3.2914513 c 0,0 -0.2795401,-0.4975501 -0.6513568,-0.6805493 -0.084535,-0.041529 -0.1726577,-0.06613 -0.2645568,-0.065683 z"
     style="opacity:0.2;fill:#ffffff;fill-opacity:1;fill-rule:nonzero;stroke:none" />
  <path
     inkscape:connector-curvature="0"
     id="path7315"
     d="m 14.966877,9.729523 -1.271697,2.490483 0.848407,1.466922 3.802319,0 c 0,0 0.569768,0.0082 0.914089,-0.222593 0.156454,-0.104848 0.266995,-0.259352 0.255434,-0.485325 -0.0019,-0.353715 -0.08043,-0.705847 -0.235364,-0.974299 l -1.302714,-2.275188 -3.010474,0 z"
     style="opacity:0.2;fill:#ffffff;fill-opacity:1;fill-rule:nonzero;stroke:none" />
  <path
     inkscape:connector-curvature="0"
     id="path22"
     d="m 7.4581283,14.173477 -1.9011594,3.293276 c 0,0 -0.2903807,0.491392 -0.2627332,0.904967 0.012475,0.188095 0.09052,0.358963 0.291925,0.461606 0.307243,0.175317 0.6516234,0.284626 0.9615278,0.284626 l 2.6054279,0 1.5216576,-2.59813 -1.5216576,-2.346345 -1.6949881,0 z"
     style="opacity:0.2;fill:#ffffff;fill-opacity:1;fill-rule:nonzero;stroke:none" />
  <path
     inkscape:connector-curvature="0"
     id="path7311"
     d="m 9.1274278,2.8820499 c -0.2912954,0 -0.6123285,0.096603 -0.9049668,0.2536093 0.1622647,-0.0728 0.3218583,-0.049443 0.4670798,0.021894 0.3718166,0.1829992 0.6513567,0.6805493 0.6513567,0.6805493 l 1.9011605,3.2914514 0.848406,1.4687462 c 0.31462,0.5450438 1.010825,0.7329309 1.556323,0.4196419 l 0.0037,-0.0037 2.297083,-1.3264324 0.01277,-0.0073 c 0.540289,-0.3168633 0.724113,-1.011092 0.41052,-1.5544991 L 15.068098,3.8691183 C 14.754353,3.3257111 13.984181,2.8820479 13.35669,2.8820479 l -4.2292602,0 z"
     style="opacity:0.2;fill:#ffffff;fill-opacity:1;fill-rule:nonzero;stroke:none" />
  <path
     inkscape:connector-curvature="0"
     id="path7309"
     d="M 4.552462,9.1781471 C 4.1497544,9.1692917 3.7537235,9.3739127 3.5380234,9.7474003 L 2.23531,12.004343 c -0.3137464,0.543408 -0.3137464,1.432559 0,1.975967 l 2.114629,3.663655 C 4.4969053,17.89841 4.7447146,18.128986 5.0304885,18.304444 4.8803751,18.200187 4.8188104,18.049385 4.8078958,17.884803 4.7802493,17.471228 5.070629,16.979836 5.070629,16.979836 L 6.9717883,13.68656 7.8201952,12.219638 C 8.1348524,11.674595 7.9483694,10.977022 7.4042025,10.661489 l -0.0037,-0.0018 -2.2970832,-1.3264321 -0.014597,-0.0073 C 4.9186414,9.2292197 4.7354622,9.1821515 4.5524133,9.1781228 z"
     style="opacity:0.2;fill:#ffffff;fill-opacity:1;fill-rule:nonzero;stroke:none" />
  <path
     inkscape:connector-curvature="0"
     id="path24"
     d="m 19.999976,13.549487 c -0.01593,0.181273 -0.117176,0.309966 -0.25361,0.401397 -0.344321,0.230727 -0.914089,0.222593 -0.914089,0.222593 l -5.499132,0 c -0.629278,0 -1.139152,0.509494 -1.140332,1.138506 l 0,0.0054 0.0018,2.652865 0,0.0146 c 0.0043,0.626464 0.511168,1.132881 1.138507,1.133034 l 2.607253,0 c 0.627491,0 1.397663,-0.443664 1.711409,-0.987071 L 19.76646,14.467202 C 19.913099,14.213324 19.990465,13.883945 20,13.549464 z"
     style="opacity:0.2;fill:#ffffff;fill-opacity:1;fill-rule:nonzero;stroke:none" />
</svg>
