<?xml version="1.0" encoding="UTF-8" standalone="no"?>
<!-- Created with Inkscape (http://www.inkscape.org/) -->

<svg
   xmlns:dc="http://purl.org/dc/elements/1.1/"
   xmlns:cc="http://creativecommons.org/ns#"
   xmlns:rdf="http://www.w3.org/1999/02/22-rdf-syntax-ns#"
   xmlns:svg="http://www.w3.org/2000/svg"
   xmlns="http://www.w3.org/2000/svg"
   xmlns:sodipodi="http://sodipodi.sourceforge.net/DTD/sodipodi-0.dtd"
   xmlns:inkscape="http://www.inkscape.org/namespaces/inkscape"
   width="22"
   height="22"
   id="svg3025"
   version="1.1"
   inkscape:version="0.48.3.1 r9886"
   sodipodi:docname="user.svg">
  <defs
     id="defs3027" />
  <sodipodi:namedview
     id="base"
     pagecolor="#ffffff"
     bordercolor="#666666"
     borderopacity="1.0"
     inkscape:pageopacity="0.0"
     inkscape:pageshadow="2"
     inkscape:zoom="23.880924"
     inkscape:cx="7.1216293"
     inkscape:cy="12"
     inkscape:document-units="px"
     inkscape:current-layer="layer1"
     showgrid="false"
     inkscape:window-width="1301"
     inkscape:window-height="744"
     inkscape:window-x="65"
     inkscape:window-y="24"
     inkscape:window-maximized="1" />
  <metadata
     id="metadata3030">
    <rdf:RDF>
      <cc:Work
         rdf:about="">
        <dc:format>image/svg+xml</dc:format>
        <dc:type
           rdf:resource="http://purl.org/dc/dcmitype/StillImage" />
        <dc:title />
      </cc:Work>
    </rdf:RDF>
  </metadata>
  <g
     inkscape:label="Livello 1"
     inkscape:groupmode="layer"
     id="layer1"
     transform="translate(0,-1030.3622)">
    <path
       inkscape:connector-curvature="0"
       id="path5013"
       d="m 10.96358,1032.3622 c -2.7657819,0 -5.0085009,2.3827 -5.0085009,5.3231 0,2.9403 2.242719,5.3231 5.0085009,5.3231 2.765781,0 5.0085,-2.3828 5.0085,-5.3231 0,-2.9404 -2.242719,-5.3231 -5.0085,-5.3231 z m 4.243311,11.6922 c -0.885636,1.5005 -2.453967,2.4968 -4.243311,2.4968 -1.7709039,0 -3.3285519,-0.9755 -4.2189579,-2.4502 -2.378916,0.5204 -4.592862,2.0163 -4.086801,6.2612 l 8.3474919,0 8.3475,0 c 0.463297,-4.3368 -1.735801,-5.8166 -4.145922,-6.3078 z"
       style="opacity:0.9;color:#000000;fill:#ffffff;fill-opacity:1;fill-rule:nonzero;stroke:none;stroke-width:4.245924;marker:none;visibility:visible;display:inline;overflow:visible;filter:url(#filter3794-0-7);enable-background:accumulate" />
  </g>
</svg>
