<?xml version="1.0" encoding="UTF-8" standalone="no"?>
<svg
   xmlns:dc="http://purl.org/dc/elements/1.1/"
   xmlns:cc="http://creativecommons.org/ns#"
   xmlns:rdf="http://www.w3.org/1999/02/22-rdf-syntax-ns#"
   xmlns:svg="http://www.w3.org/2000/svg"
   xmlns="http://www.w3.org/2000/svg"
   xmlns:xlink="http://www.w3.org/1999/xlink"
   xmlns:sodipodi="http://sodipodi.sourceforge.net/DTD/sodipodi-0.dtd"
   xmlns:inkscape="http://www.inkscape.org/namespaces/inkscape"
   viewBox="0 0 22 22"
   id="svg3007"
   version="1.1"
   inkscape:version="0.48.3.1 r9886"
   width="100%"
   height="100%"
   sodipodi:docname="window-close-symbolic.svg">
  <metadata
     id="metadata3037">
    <rdf:RDF>
      <cc:Work
         rdf:about="">
        <dc:format>image/svg+xml</dc:format>
        <dc:type
           rdf:resource="http://purl.org/dc/dcmitype/StillImage" />
        <dc:title></dc:title>
      </cc:Work>
    </rdf:RDF>
  </metadata>
  <defs
     id="defs3035">
    <linearGradient
       id="linearGradient4008-4-7">
      <stop
         id="stop4010-2-0"
         style="stop-color:#dab980;stop-opacity:1"
         offset="0" />
      <stop
         id="stop4012-5-1"
         style="stop-color:#c29856;stop-opacity:1"
         offset="0.71691591" />
      <stop
         id="stop4014-6-6"
         style="stop-color:#a2773a;stop-opacity:1"
         offset="1" />
    </linearGradient>
    <linearGradient
       inkscape:collect="always"
       xlink:href="#linearGradient3187-7-5"
       id="linearGradient3756"
       gradientUnits="userSpaceOnUse"
       gradientTransform="matrix(5.6190474,0,0,4.9043651,-170.71372,8.7516906)"
       x1="48"
       y1="78"
       x2="48"
       y2="5.9877172" />
    <linearGradient
       id="linearGradient3187-7-5">
      <stop
         id="stop3189-4-5"
         style="stop-color:#c29656;stop-opacity:1"
         offset="0" />
      <stop
         id="stop3191-1-8"
         style="stop-color:#ddc08b;stop-opacity:1"
         offset="1" />
    </linearGradient>
    <linearGradient
       inkscape:collect="always"
       xlink:href="#linearGradient4008-4-7"
       id="linearGradient3822"
       gradientUnits="userSpaceOnUse"
       gradientTransform="matrix(4.4715789,0,0,4.4715789,-908.22105,-66.542998)"
       x1="34.85965"
       y1="16.275133"
       x2="34.994316"
       y2="28.905609" />
    <linearGradient
       inkscape:collect="always"
       xlink:href="#linearGradient3187-7-5"
       id="linearGradient3824"
       gradientUnits="userSpaceOnUse"
       gradientTransform="matrix(5.6190474,0,0,4.9043651,-891.75432,21.86152)"
       x1="48"
       y1="78"
       x2="48"
       y2="5.9877172" />
  </defs>
  <sodipodi:namedview
     pagecolor="#ffffff"
     bordercolor="#666666"
     borderopacity="1"
     objecttolerance="10"
     gridtolerance="10"
     guidetolerance="10"
     inkscape:pageopacity="0"
     inkscape:pageshadow="2"
     inkscape:window-width="1301"
     inkscape:window-height="744"
     id="namedview3033"
     showgrid="false"
     inkscape:zoom="12.001175"
     inkscape:cx="-2.7676454"
     inkscape:cy="11"
     inkscape:window-x="65"
     inkscape:window-y="24"
     inkscape:window-maximized="1"
     inkscape:current-layer="svg3007" />
  <g
     id="g3029"
     transform="matrix(0.05625,0,0,0.05625,-3.3999977,-3.3999999)"
     style="fill:#ffffff">
    <g
       id="g8899"
       style="fill:#ffffff">
      <path
         transform="matrix(3.4419114,0,0,3.4419114,-2066.9661,-573.74887)"
         sodipodi:open="true"
         sodipodi:end="6.2212787"
         sodipodi:start="0"
         d="m 650.5475,223.23657 c 0,6.11033 -4.9534,11.06374 -11.06374,11.06374 -6.11033,0 -11.06373,-4.95341 -11.06373,-11.06374 0,-6.11033 4.9534,-11.06373 11.06373,-11.06373 5.84454,0 10.68096,4.54591 11.04254,10.37925"
         sodipodi:ry="11.063733"
         sodipodi:rx="11.063733"
         sodipodi:cy="223.23657"
         sodipodi:cx="639.48376"
         id="path3900"
         style="color:#000000;fill:#ffffff;fill-opacity:1;fill-rule:nonzero;stroke:none;stroke-width:1;marker:none;visibility:visible;display:inline;overflow:visible;enable-background:accumulate"
         sodipodi:type="arc" />
      <path
         sodipodi:type="arc"
         style="color:#000000;fill:#ffffff;fill-opacity:1;fill-rule:nonzero;stroke:none;stroke-width:1;marker:none;visibility:visible;display:inline;overflow:visible;enable-background:accumulate"
         id="path3902"
         sodipodi:cx="639.48376"
         sodipodi:cy="223.23657"
         sodipodi:rx="11.063733"
         sodipodi:ry="11.063733"
         d="m 650.5475,223.23657 c 0,6.11033 -4.9534,11.06374 -11.06374,11.06374 -6.11033,0 -11.06373,-4.95341 -11.06373,-11.06374 0,-6.11033 4.9534,-11.06373 11.06373,-11.06373 5.84454,0 10.68096,4.54591 11.04254,10.37925"
         sodipodi:start="0"
         sodipodi:end="6.2212787"
         sodipodi:open="true"
         transform="matrix(3.4419114,0,0,3.4419114,-1823.1269,-450.97214)" />
      <path
         transform="matrix(3.4419114,0,0,3.4419114,-1823.1269,-573.74887)"
         sodipodi:open="true"
         sodipodi:end="6.2212787"
         sodipodi:start="0"
         d="m 650.5475,223.23657 c 0,6.11033 -4.9534,11.06374 -11.06374,11.06374 -6.11033,0 -11.06373,-4.95341 -11.06373,-11.06374 0,-6.11033 4.9534,-11.06373 11.06373,-11.06373 5.84454,0 10.68096,4.54591 11.04254,10.37925"
         sodipodi:ry="11.063733"
         sodipodi:rx="11.063733"
         sodipodi:cy="223.23657"
         sodipodi:cx="639.48376"
         id="path3904"
         style="color:#000000;fill:#ffffff;fill-opacity:1;fill-rule:nonzero;stroke:none;stroke-width:1;marker:none;visibility:visible;display:inline;overflow:visible;enable-background:accumulate"
         sodipodi:type="arc" />
      <path
         sodipodi:type="arc"
         style="color:#000000;fill:#ffffff;fill-opacity:1;fill-rule:nonzero;stroke:none;stroke-width:1;marker:none;visibility:visible;display:inline;overflow:visible;enable-background:accumulate"
         id="path3906"
         sodipodi:cx="639.48376"
         sodipodi:cy="223.23657"
         sodipodi:rx="11.063733"
         sodipodi:ry="11.063733"
         d="m 650.5475,223.23657 c 0,6.11033 -4.9534,11.06374 -11.06374,11.06374 -6.11033,0 -11.06373,-4.95341 -11.06373,-11.06374 0,-6.11033 4.9534,-11.06373 11.06373,-11.06373 5.84454,0 10.68096,4.54591 11.04254,10.37925"
         sodipodi:start="0"
         sodipodi:end="6.2212787"
         sodipodi:open="true"
         transform="matrix(3.4419114,0,0,3.4419114,-1943.8817,-450.97214)" />
      <path
         transform="matrix(3.4419114,0,0,3.4419114,-2066.9661,-450.97214)"
         sodipodi:open="true"
         sodipodi:end="6.2212787"
         sodipodi:start="0"
         d="m 650.5475,223.23657 c 0,6.11033 -4.9534,11.06374 -11.06374,11.06374 -6.11033,0 -11.06373,-4.95341 -11.06373,-11.06374 0,-6.11033 4.9534,-11.06373 11.06373,-11.06373 5.84454,0 10.68096,4.54591 11.04254,10.37925"
         sodipodi:ry="11.063733"
         sodipodi:rx="11.063733"
         sodipodi:cy="223.23657"
         sodipodi:cx="639.48376"
         id="path3908"
         style="color:#000000;fill:#ffffff;fill-opacity:1;fill-rule:nonzero;stroke:none;stroke-width:1;marker:none;visibility:visible;display:inline;overflow:visible;enable-background:accumulate"
         sodipodi:type="arc" />
      <path
         sodipodi:type="arc"
         style="color:#000000;fill:#ffffff;fill-opacity:1;fill-rule:nonzero;stroke:none;stroke-width:1;marker:none;visibility:visible;display:inline;overflow:visible;enable-background:accumulate"
         id="path3910"
         sodipodi:cx="639.48376"
         sodipodi:cy="223.23657"
         sodipodi:rx="11.063733"
         sodipodi:ry="11.063733"
         d="m 650.5475,223.23657 c 0,6.11033 -4.9534,11.06374 -11.06374,11.06374 -6.11033,0 -11.06373,-4.95341 -11.06373,-11.06374 0,-6.11033 4.9534,-11.06373 11.06373,-11.06373 5.84454,0 10.68096,4.54591 11.04254,10.37925"
         sodipodi:start="0"
         sodipodi:end="6.2212787"
         sodipodi:open="true"
         transform="matrix(3.4419114,0,0,3.4419114,-1943.8817,-573.74887)" />
    </g>
  </g>
</svg>
