<?xml version="1.0" encoding="UTF-8" standalone="no"?>
<svg
   xmlns:dc="http://purl.org/dc/elements/1.1/"
   xmlns:cc="http://creativecommons.org/ns#"
   xmlns:rdf="http://www.w3.org/1999/02/22-rdf-syntax-ns#"
   xmlns:svg="http://www.w3.org/2000/svg"
   xmlns="http://www.w3.org/2000/svg"
   xmlns:xlink="http://www.w3.org/1999/xlink"
   xmlns:sodipodi="http://sodipodi.sourceforge.net/DTD/sodipodi-0.dtd"
   xmlns:inkscape="http://www.inkscape.org/namespaces/inkscape"
   viewBox="0 0 22 22"
   id="svg3007"
   version="1.1"
   inkscape:version="0.91pre2 r"
   width="100%"
   height="100%"
   sodipodi:docname="view-grid-symbolic.svg">
  <metadata
     id="metadata3037">
    <rdf:RDF>
      <cc:Work
         rdf:about="">
        <dc:format>image/svg+xml</dc:format>
        <dc:type
           rdf:resource="http://purl.org/dc/dcmitype/StillImage" />
        <dc:title />
      </cc:Work>
    </rdf:RDF>
  </metadata>
  <defs
     id="defs3035">
    <linearGradient
       id="linearGradient4008-4-7">
      <stop
         id="stop4010-2-0"
         style="stop-color:#dab980;stop-opacity:1"
         offset="0" />
      <stop
         id="stop4012-5-1"
         style="stop-color:#c29856;stop-opacity:1"
         offset="0.71691591" />
      <stop
         id="stop4014-6-6"
         style="stop-color:#a2773a;stop-opacity:1"
         offset="1" />
    </linearGradient>
    <linearGradient
       inkscape:collect="always"
       xlink:href="#linearGradient3187-7-5"
       id="linearGradient3756"
       gradientUnits="userSpaceOnUse"
       gradientTransform="matrix(5.6190474,0,0,4.9043651,-170.71372,8.7516906)"
       x1="48"
       y1="78"
       x2="48"
       y2="5.9877172" />
    <linearGradient
       id="linearGradient3187-7-5">
      <stop
         id="stop3189-4-5"
         style="stop-color:#c29656;stop-opacity:1"
         offset="0" />
      <stop
         id="stop3191-1-8"
         style="stop-color:#ddc08b;stop-opacity:1"
         offset="1" />
    </linearGradient>
    <linearGradient
       inkscape:collect="always"
       xlink:href="#linearGradient4008-4-7"
       id="linearGradient3822"
       gradientUnits="userSpaceOnUse"
       gradientTransform="matrix(4.4715789,0,0,4.4715789,-908.22105,-66.542998)"
       x1="34.85965"
       y1="16.275133"
       x2="34.994316"
       y2="28.905609" />
    <linearGradient
       inkscape:collect="always"
       xlink:href="#linearGradient3187-7-5"
       id="linearGradient3824"
       gradientUnits="userSpaceOnUse"
       gradientTransform="matrix(5.6190474,0,0,4.9043651,-891.75432,21.86152)"
       x1="48"
       y1="78"
       x2="48"
       y2="5.9877172" />
  </defs>
  <sodipodi:namedview
     pagecolor="#ffffff"
     bordercolor="#666666"
     borderopacity="1"
     objecttolerance="10"
     gridtolerance="10"
     guidetolerance="10"
     inkscape:pageopacity="0"
     inkscape:pageshadow="2"
     inkscape:window-width="1855"
     inkscape:window-height="1056"
     id="namedview3033"
     showgrid="false"
     inkscape:zoom="12.001175"
     inkscape:cx="-14.891458"
     inkscape:cy="11"
     inkscape:window-x="65"
     inkscape:window-y="24"
     inkscape:window-maximized="1"
     inkscape:current-layer="svg3007" />
  <path
     sodipodi:open="true"
     sodipodi:end="6.2212787"
     sodipodi:start="0"
     d="M 6.2840478,7.546905 A 2.1420219,2.1420219 0 0 1 4.175176,9.6886704 2.1420219,2.1420219 0 0 1 2.0010301,7.6131971 2.1420219,2.1420219 0 0 1 4.0426077,5.4071916 2.1420219,2.1420219 0 0 1 6.2799446,7.4143844"
     sodipodi:ry="2.1420219"
     sodipodi:rx="2.1420219"
     sodipodi:cy="7.546905"
     sodipodi:cx="4.1420259"
     id="path3900"
     style="color:#000000;display:inline;overflow:visible;visibility:visible;fill:#ffffff;fill-opacity:1;fill-rule:nonzero;stroke:none;stroke-width:1;marker:none;enable-background:accumulate;opacity:0.9"
     sodipodi:type="arc" />
  <path
     sodipodi:type="arc"
     style="color:#000000;display:inline;overflow:visible;visibility:visible;fill:#ffffff;fill-opacity:1;fill-rule:nonzero;stroke:none;stroke-width:1;marker:none;enable-background:accumulate;opacity:0.9"
     id="path3902"
     sodipodi:cx="17.857975"
     sodipodi:cy="14.453096"
     sodipodi:rx="2.1420219"
     sodipodi:ry="2.1420219"
     d="m 19.999997,14.453096 a 2.1420219,2.1420219 0 0 1 -2.108872,2.141766 2.1420219,2.1420219 0 0 1 -2.174146,-2.075474 2.1420219,2.1420219 0 0 1 2.041578,-2.206005 2.1420219,2.1420219 0 0 1 2.237337,2.007193"
     sodipodi:start="0"
     sodipodi:end="6.2212787"
     sodipodi:open="true" />
  <path
     sodipodi:open="true"
     sodipodi:end="6.2212787"
     sodipodi:start="0"
     d="M 19.999997,7.546905 A 2.1420219,2.1420219 0 0 1 17.891125,9.6886704 2.1420219,2.1420219 0 0 1 15.716979,7.6131971 2.1420219,2.1420219 0 0 1 17.758557,5.4071916 2.1420219,2.1420219 0 0 1 19.995894,7.4143844"
     sodipodi:ry="2.1420219"
     sodipodi:rx="2.1420219"
     sodipodi:cy="7.546905"
     sodipodi:cx="17.857975"
     id="path3904"
     style="color:#000000;display:inline;overflow:visible;visibility:visible;fill:#ffffff;fill-opacity:1;fill-rule:nonzero;stroke:none;stroke-width:1;marker:none;enable-background:accumulate;opacity:0.9"
     sodipodi:type="arc" />
  <path
     sodipodi:type="arc"
     style="color:#000000;display:inline;overflow:visible;visibility:visible;fill:#ffffff;fill-opacity:1;fill-rule:nonzero;stroke:none;stroke-width:1;marker:none;enable-background:accumulate;opacity:0.9"
     id="path3906"
     sodipodi:cx="11.065526"
     sodipodi:cy="14.453096"
     sodipodi:rx="2.1420219"
     sodipodi:ry="2.1420219"
     d="m 13.207548,14.453096 a 2.1420219,2.1420219 0 0 1 -2.108872,2.141766 2.1420219,2.1420219 0 0 1 -2.1741458,-2.075474 2.1420219,2.1420219 0 0 1 2.0415778,-2.206005 2.1420219,2.1420219 0 0 1 2.237337,2.007193"
     sodipodi:start="0"
     sodipodi:end="6.2212787"
     sodipodi:open="true" />
  <path
     sodipodi:open="true"
     sodipodi:end="6.2212787"
     sodipodi:start="0"
     d="M 6.2840478,14.453096 A 2.1420219,2.1420219 0 0 1 4.175176,16.594862 2.1420219,2.1420219 0 0 1 2.0010301,14.519388 2.1420219,2.1420219 0 0 1 4.0426077,12.313383 2.1420219,2.1420219 0 0 1 6.2799446,14.320576"
     sodipodi:ry="2.1420219"
     sodipodi:rx="2.1420219"
     sodipodi:cy="14.453096"
     sodipodi:cx="4.1420259"
     id="path3908"
     style="color:#000000;display:inline;overflow:visible;visibility:visible;fill:#ffffff;fill-opacity:1;fill-rule:nonzero;stroke:none;stroke-width:1;marker:none;enable-background:accumulate;opacity:0.9"
     sodipodi:type="arc" />
  <path
     sodipodi:type="arc"
     style="color:#000000;display:inline;overflow:visible;visibility:visible;fill:#ffffff;fill-opacity:1;fill-rule:nonzero;stroke:none;stroke-width:1;marker:none;enable-background:accumulate;opacity:0.9"
     id="path3910"
     sodipodi:cx="11.065526"
     sodipodi:cy="7.546905"
     sodipodi:rx="2.1420219"
     sodipodi:ry="2.1420219"
     d="M 13.207548,7.546905 A 2.1420219,2.1420219 0 0 1 11.098676,9.6886704 2.1420219,2.1420219 0 0 1 8.9245302,7.6131971 2.1420219,2.1420219 0 0 1 10.966108,5.4071916 2.1420219,2.1420219 0 0 1 13.203445,7.4143844"
     sodipodi:start="0"
     sodipodi:end="6.2212787"
     sodipodi:open="true" />
</svg>
