<?xml version="1.0" encoding="UTF-8" standalone="no"?>
<!-- Created with Inkscape (http://www.inkscape.org/) -->

<svg
   xmlns:dc="http://purl.org/dc/elements/1.1/"
   xmlns:cc="http://creativecommons.org/ns#"
   xmlns:rdf="http://www.w3.org/1999/02/22-rdf-syntax-ns#"
   xmlns:svg="http://www.w3.org/2000/svg"
   xmlns="http://www.w3.org/2000/svg"
   xmlns:sodipodi="http://sodipodi.sourceforge.net/DTD/sodipodi-0.dtd"
   xmlns:inkscape="http://www.inkscape.org/namespaces/inkscape"
   width="22"
   height="22"
   id="svg2"
   version="1.1"
   inkscape:version="0.48.3.1 r9886"
   sodipodi:docname="volume-medium.svg">
  <defs
     id="defs4" />
  <sodipodi:namedview
     id="base"
     pagecolor="#ffffff"
     bordercolor="#666666"
     borderopacity="1.0"
     inkscape:pageopacity="0.0"
     inkscape:pageshadow="2"
     inkscape:zoom="15.718677"
     inkscape:cx="-3.4534199"
     inkscape:cy="11.905016"
     inkscape:document-units="px"
     inkscape:current-layer="layer1"
     showgrid="false"
     inkscape:window-width="1301"
     inkscape:window-height="744"
     inkscape:window-x="65"
     inkscape:window-y="24"
     inkscape:window-maximized="1" />
  <metadata
     id="metadata7">
    <rdf:RDF>
      <cc:Work
         rdf:about="">
        <dc:format>image/svg+xml</dc:format>
        <dc:type
           rdf:resource="http://purl.org/dc/dcmitype/StillImage" />
        <dc:title />
      </cc:Work>
    </rdf:RDF>
  </metadata>
  <g
     inkscape:label="Livello 1"
     inkscape:groupmode="layer"
     id="layer1"
     transform="translate(0,-1030.3622)">
    <g
       id="g3376"
       transform="matrix(0.9090909,0,0,0.9090909,0.09090914,95.578421)">
      <path
         inkscape:connector-curvature="0"
         id="path3030"
         d="m 12.499585,1035.0397 c -0.311848,0 -0.603792,0.1576 -0.774435,0.4488 -0.106741,0.1821 -0.121774,0.252 -0.105605,0.506 0.01646,0.2586 0.04751,0.3409 0.256679,0.6674 0.856614,1.337 1.224758,2.7574 1.095649,4.233 -0.101027,1.1547 -0.427095,2.0962 -1.073648,3.1021 -0.305755,0.4757 -0.375174,0.7157 -0.293347,1.0121 0.06923,0.2507 0.270469,0.4924 0.494289,0.594 0.361703,0.1643 0.796022,0.075 1.067781,-0.22 0.196146,-0.2132 0.529603,-0.7584 0.805237,-1.3142 1.339604,-2.7013 1.122359,-5.9428 -0.564692,-8.4206 -0.209175,-0.3072 -0.318161,-0.4216 -0.479622,-0.5031 -0.139617,-0.07 -0.286537,-0.1046 -0.428286,-0.1055 z"
         style="opacity:0.9;fill:#ffffff" />
      <path
         inkscape:connector-curvature="0"
         id="path3035"
         d="m 16.067917,1033.1426 c -0.26543,0.01 -0.531487,0.1375 -0.7231,0.3887 -0.105004,0.1377 -0.135027,0.2328 -0.14814,0.4606 -0.01563,0.2715 -0.004,0.3101 0.203876,0.6644 0.505599,0.8617 0.686648,1.2069 0.890307,1.6926 1.315625,3.1378 1.030467,6.58 -0.793503,9.566 -0.28322,0.4637 -0.312414,0.5336 -0.312414,0.7642 0,0.3996 0.177783,0.6857 0.517757,0.8332 0.234421,0.1016 0.544219,0.091 0.787636,-0.026 0.171966,-0.083 0.260528,-0.18 0.500156,-0.5515 1.007475,-1.5619 1.605764,-3.241 1.859818,-5.2142 0.07371,-0.5726 0.07495,-2.146 0.0015,-2.7223 -0.157223,-1.2332 -0.490355,-2.4785 -0.921108,-3.4498 -0.374398,-0.8442 -0.94147,-1.8406 -1.210056,-2.1238 -0.184185,-0.1942 -0.418493,-0.2867 -0.652696,-0.2816 z"
         style="opacity:0.9;fill:#ffffff" />
      <path
         inkscape:connector-curvature="0"
         id="path3037"
         d="m 19.743672,1031.363 c -0.257406,-0.011 -0.522379,0.091 -0.718699,0.3007 -0.159841,0.1711 -0.225715,0.3467 -0.22441,0.5955 0.0012,0.2346 0.08521,0.4271 0.44002,1.0106 1.00798,1.6575 1.64371,3.5328 1.886219,5.5662 0.08972,0.7524 0.08903,2.2837 -0.0015,3.0582 -0.245138,2.0977 -0.83948,3.8245 -1.96249,5.7085 -0.355048,0.5956 -0.419785,0.8277 -0.318281,1.1353 0.07747,0.2347 0.266547,0.4452 0.492822,0.5515 0.256567,0.1204 0.628672,0.088 0.863906,-0.074 0.295982,-0.2051 1.060521,-1.5199 1.556204,-2.6782 0.599634,-1.4014 0.988686,-2.858 1.179254,-4.412 0.08281,-0.6752 0.08494,-2.8366 0.0029,-3.4967 -0.203578,-1.6385 -0.611941,-3.1379 -1.25259,-4.5997 -0.403223,-0.9201 -1.122411,-2.1774 -1.390463,-2.4303 -0.156355,-0.1476 -0.352753,-0.2256 -0.552959,-0.2348 z"
         style="opacity:0.2;fill:#ffffff" />
      <path
         id="path3002"
         transform="translate(0,1028.3622)"
         d="m 9.21875,5.5625 c -0.0356,0 -0.11809,0.00425 -0.1875,0.03125 C 8.84345,5.66475 4.33248,9.093 4.21875,9.25 4.08717,9.4317 4.03048,10.1435 4.03125,12 c -7.7e-4,1.8565 0.05592,2.5683 0.1875,2.75 0.11373,0.157 4.6247,3.58525 4.8125,3.65625 0.06941,0.027 0.1519,0.03125 0.1875,0.03125 0.1491,0.01 0.4049,-0.12565 0.5,-0.28125 C 9.8684676,17.881342 9.5749121,17.883682 9.5625,12 9.574912,6.1163 9.868468,6.11865 9.71875,5.84375 9.62365,5.68815 9.36785,5.5525 9.21875,5.5625 z M 1.375,9.375 C 1.2647713,9.388 1.2256,9.42675 1.1875,9.46875 1.06872,9.60005 1.0000075,10.8 1,12 c 7.5e-6,1.199988 0.06872,2.4 0.1875,2.53125 0.0762,0.084 0.1455299,0.09375 0.8125,0.09375 0.96269,0 0.9389,0.041 0.875,-1 C 2.84485,13.13745 2.8438,12.567287 2.84375,12 c 5e-5,-0.5673 0.0011,-1.1375 0.03125,-1.625 0.0639,-1.041 0.08769,-1 -0.875,-1 -0.333485,0 -0.5147713,-0.013 -0.625,0 z"
         style="opacity:0.9;fill:#ffffff"
         inkscape:connector-curvature="0" />
    </g>
  </g>
</svg>
