<?xml version="1.0" encoding="UTF-8" standalone="no"?>
<!-- Created with Inkscape (http://www.inkscape.org/) -->

<svg
   xmlns:dc="http://purl.org/dc/elements/1.1/"
   xmlns:cc="http://creativecommons.org/ns#"
   xmlns:rdf="http://www.w3.org/1999/02/22-rdf-syntax-ns#"
   xmlns:svg="http://www.w3.org/2000/svg"
   xmlns="http://www.w3.org/2000/svg"
   xmlns:sodipodi="http://sodipodi.sourceforge.net/DTD/sodipodi-0.dtd"
   xmlns:inkscape="http://www.inkscape.org/namespaces/inkscape"
   width="22"
   height="22"
   id="svg2"
   version="1.1"
   inkscape:version="0.48.3.1 r9886"
   sodipodi:docname="volume-muted.svg">
  <defs
     id="defs4" />
  <sodipodi:namedview
     id="base"
     pagecolor="#ffffff"
     bordercolor="#666666"
     borderopacity="1.0"
     inkscape:pageopacity="0.0"
     inkscape:pageshadow="2"
     inkscape:zoom="16.776984"
     inkscape:cx="5.0559629"
     inkscape:cy="12"
     inkscape:document-units="px"
     inkscape:current-layer="layer1"
     showgrid="false"
     inkscape:window-width="1301"
     inkscape:window-height="744"
     inkscape:window-x="65"
     inkscape:window-y="24"
     inkscape:window-maximized="1" />
  <metadata
     id="metadata7">
    <rdf:RDF>
      <cc:Work
         rdf:about="">
        <dc:format>image/svg+xml</dc:format>
        <dc:type
           rdf:resource="http://purl.org/dc/dcmitype/StillImage" />
        <dc:title />
      </cc:Work>
    </rdf:RDF>
  </metadata>
  <g
     inkscape:label="Livello 1"
     inkscape:groupmode="layer"
     id="layer1"
     transform="translate(0,-1030.3622)">
    <g
       id="g3366"
       transform="translate(0,0.41550438)">
      <path
         inkscape:connector-curvature="0"
         id="path3002"
         d="m 8.4715909,1035.0952 c -0.032364,0 -0.1073545,0 -0.1704545,0.028 -0.1707273,0.065 -4.2716091,3.1811 -4.375,3.3239 -0.1196182,0.1652 -0.1711546,0.8122 -0.1704546,2.5 -7e-4,1.6877 0.050836,2.3348 0.1704546,2.5 0.1033909,0.1427 4.2042727,3.2593 4.375,3.3238 0.0631,0.025 0.1380909,0.028 0.1704545,0.028 0.1355455,0.01 0.3680909,-0.1142 0.4545455,-0.2556 0.1361069,-0.25 -0.1307618,-0.2478 -0.1420455,-5.5966 0.011284,-5.3488 0.2781527,-5.3467 0.1420455,-5.5966 -0.086455,-0.1415 -0.319,-0.2648 -0.4545455,-0.2557 z m -7.1306818,3.4659 c -0.1002079,0.012 -0.1358182,0.047 -0.1704546,0.085 -0.1079818,0.1194 -0.1704477,1.2103 -0.1704545,2.3012 6.8e-6,1.0909 0.062473,2.1818 0.1704545,2.3011 0.069273,0.076 0.1323,0.085 0.7386364,0.085 0.8751727,0 0.8535455,0.037 0.7954546,-0.9091 -0.027409,-0.4432 -0.028364,-0.9615 -0.028409,-1.4772 4.54e-5,-0.5158 10e-4,-1.0341 0.028409,-1.4773 0.058091,-0.9464 0.079718,-0.9091 -0.7954546,-0.9091 -0.3031682,0 -0.4679739,-0.012 -0.5681818,0 z"
         style="opacity:0.9;fill:#ffffff;fill-opacity:1" />
      <path
         inkscape:connector-curvature="0"
         id="path2998"
         d="m 12.732955,1040.0952 c -0.476974,0 -0.880682,0.3753 -0.880682,0.8523 0,0.4769 0.403708,0.8522 0.880682,0.8522 0.476973,0 0.852272,-0.3753 0.852272,-0.8522 0,-0.477 -0.375299,-0.8523 -0.852272,-0.8523 z m 3.693181,0 c -0.476973,0 -0.880681,0.3753 -0.880681,0.8523 0,0.4769 0.403708,0.8522 0.880681,0.8522 0.476974,0 0.852273,-0.3753 0.852273,-0.8522 0,-0.477 -0.375299,-0.8523 -0.852273,-0.8523 z m 3.693182,0 c -0.476973,0 -0.852273,0.3753 -0.852273,0.8523 0,0.4769 0.3753,0.8522 0.852273,0.8522 0.476974,0 0.880682,-0.3753 0.880682,-0.8522 0,-0.477 -0.403708,-0.8523 -0.880682,-0.8523 z"
         style="opacity:0.9;fill:#ffffff;fill-opacity:1" />
    </g>
  </g>
</svg>
