<?xml version="1.0" encoding="UTF-8" standalone="no"?>
<svg
   xmlns:dc="http://purl.org/dc/elements/1.1/"
   xmlns:cc="http://creativecommons.org/ns#"
   xmlns:rdf="http://www.w3.org/1999/02/22-rdf-syntax-ns#"
   xmlns:svg="http://www.w3.org/2000/svg"
   xmlns="http://www.w3.org/2000/svg"
   xmlns:xlink="http://www.w3.org/1999/xlink"
   xmlns:sodipodi="http://sodipodi.sourceforge.net/DTD/sodipodi-0.dtd"
   xmlns:inkscape="http://www.inkscape.org/namespaces/inkscape"
   viewBox="0 0 22 22"
   id="svg3007"
   version="1.1"
   inkscape:version="0.48.3.1 r9886"
   width="100%"
   height="100%"
   sodipodi:docname="zoom-out-symbolic.svg">
  <metadata
     id="metadata3037">
    <rdf:RDF>
      <cc:Work
         rdf:about="">
        <dc:format>image/svg+xml</dc:format>
        <dc:type
           rdf:resource="http://purl.org/dc/dcmitype/StillImage" />
        <dc:title></dc:title>
      </cc:Work>
    </rdf:RDF>
  </metadata>
  <defs
     id="defs3035">
    <linearGradient
       id="linearGradient4008-4-7">
      <stop
         id="stop4010-2-0"
         style="stop-color:#dab980;stop-opacity:1"
         offset="0" />
      <stop
         id="stop4012-5-1"
         style="stop-color:#c29856;stop-opacity:1"
         offset="0.71691591" />
      <stop
         id="stop4014-6-6"
         style="stop-color:#a2773a;stop-opacity:1"
         offset="1" />
    </linearGradient>
    <linearGradient
       inkscape:collect="always"
       xlink:href="#linearGradient3187-7-5"
       id="linearGradient3756"
       gradientUnits="userSpaceOnUse"
       gradientTransform="matrix(5.6190474,0,0,4.9043651,-170.71372,8.7516906)"
       x1="48"
       y1="78"
       x2="48"
       y2="5.9877172" />
    <linearGradient
       id="linearGradient3187-7-5">
      <stop
         id="stop3189-4-5"
         style="stop-color:#c29656;stop-opacity:1"
         offset="0" />
      <stop
         id="stop3191-1-8"
         style="stop-color:#ddc08b;stop-opacity:1"
         offset="1" />
    </linearGradient>
    <linearGradient
       inkscape:collect="always"
       xlink:href="#linearGradient4008-4-7"
       id="linearGradient3822"
       gradientUnits="userSpaceOnUse"
       gradientTransform="matrix(4.4715789,0,0,4.4715789,-908.22105,-66.542998)"
       x1="34.85965"
       y1="16.275133"
       x2="34.994316"
       y2="28.905609" />
    <linearGradient
       inkscape:collect="always"
       xlink:href="#linearGradient3187-7-5"
       id="linearGradient3824"
       gradientUnits="userSpaceOnUse"
       gradientTransform="matrix(5.6190474,0,0,4.9043651,-891.75432,21.86152)"
       x1="48"
       y1="78"
       x2="48"
       y2="5.9877172" />
  </defs>
  <sodipodi:namedview
     pagecolor="#ffffff"
     bordercolor="#666666"
     borderopacity="1"
     objecttolerance="10"
     gridtolerance="10"
     guidetolerance="10"
     inkscape:pageopacity="0"
     inkscape:pageshadow="2"
     inkscape:window-width="1301"
     inkscape:window-height="744"
     id="namedview3033"
     showgrid="false"
     inkscape:zoom="12.001175"
     inkscape:cx="-2.7676454"
     inkscape:cy="11"
     inkscape:window-x="65"
     inkscape:window-y="24"
     inkscape:window-maximized="1"
     inkscape:current-layer="svg3007" />
  <path
     inkscape:connector-curvature="0"
     id="path3341"
     d="m 4.8019388,19.931297 c -0.21107,-0.10416 -2.65606,-2.57869 -2.73485,-2.7679 -0.0862,-0.207 -0.0864,-0.59953 -3.2e-4,-0.80708 0.0462,-0.11136 0.79548,-0.8918 2.4092,-2.50928 2.47734,-2.483111 2.43641,-2.435641 2.43641,-2.825871 0,-0.38951 0.0407,-0.34236 -2.45607,-2.8476099 -2.56107,-2.5698102 -2.45697,-2.4453802 -2.45536,-2.9345602 4.5e-4,-0.1203 0.0371,-0.29504 0.0822,-0.39128 0.11283,-0.24065 2.57483,-2.68962 2.79564,-2.78083 0.0889,-0.0367 0.25522,-0.0667 0.36957,-0.0665 0.47952,5.1e-4 0.36185,-0.0982 2.92535,2.45609 2.5054802,2.49651 2.4583302,2.45585 2.8478702,2.45585 0.39026,0 0.34279,0.0409 2.82613,-2.43619 1.61763,-1.61357 2.39814,-2.36282 2.50951,-2.40899 0.20756,-0.086 0.60013,-0.0859 0.80715,3.3e-4 0.19508,0.0812 2.66974,2.5309 2.76988,2.74191 0.0766,0.16147 0.0885,0.68941 0.0197,0.87245 -0.0253,0.0673 -1.09961,1.17883 -2.38733,2.4700402 -2.49407,2.5008499 -2.43578,2.4326999 -2.43578,2.8476099 0,0.41454 -0.0562,0.34872 2.41183,2.825871 1.27452,1.27925 2.34882,2.38852 2.38732,2.46505 0.0466,0.0926 0.07,0.2533 0.07,0.48058 0,0.30266 -0.0142,0.3634 -0.12538,0.53473 -0.16226,0.25012 -2.46176,2.5312 -2.64424,2.62305 -0.18866,0.095 -0.75037,0.095 -0.93911,4e-5 -0.0765,-0.0385 -1.1859,-1.11269 -2.46527,-2.3871 -2.47738,-2.46778 -2.41155,-2.41161 -2.82613,-2.41161 -0.41495,0 -0.34679,-0.0583 -2.8478702,2.43556 -1.29132,1.2876 -2.40293,2.3618 -2.47025,2.38712 -0.18237,0.0686 -0.72419,0.0554 -0.87985,-0.0214 z"
     style="fill:#ffffff;fill-opacity:1;opacity:0.9" />
</svg>
