<?xml version="1.0" encoding="UTF-8" standalone="no"?>
<svg
   xmlns:dc="http://purl.org/dc/elements/1.1/"
   xmlns:cc="http://creativecommons.org/ns#"
   xmlns:rdf="http://www.w3.org/1999/02/22-rdf-syntax-ns#"
   xmlns:svg="http://www.w3.org/2000/svg"
   xmlns="http://www.w3.org/2000/svg"
   xmlns:xlink="http://www.w3.org/1999/xlink"
   xmlns:sodipodi="http://sodipodi.sourceforge.net/DTD/sodipodi-0.dtd"
   xmlns:inkscape="http://www.inkscape.org/namespaces/inkscape"
   viewBox="0 0 22 22"
   id="svg3007"
   version="1.1"
   inkscape:version="0.48.3.1 r9886"
   width="100%"
   height="100%"
   sodipodi:docname="user-home-symbolic.svg">
  <metadata
     id="metadata3037">
    <rdf:RDF>
      <cc:Work
         rdf:about="">
        <dc:format>image/svg+xml</dc:format>
        <dc:type
           rdf:resource="http://purl.org/dc/dcmitype/StillImage" />
        <dc:title></dc:title>
      </cc:Work>
    </rdf:RDF>
  </metadata>
  <defs
     id="defs3035">
    <linearGradient
       id="linearGradient4008-4-7">
      <stop
         id="stop4010-2-0"
         style="stop-color:#dab980;stop-opacity:1"
         offset="0" />
      <stop
         id="stop4012-5-1"
         style="stop-color:#c29856;stop-opacity:1"
         offset="0.71691591" />
      <stop
         id="stop4014-6-6"
         style="stop-color:#a2773a;stop-opacity:1"
         offset="1" />
    </linearGradient>
    <linearGradient
       inkscape:collect="always"
       xlink:href="#linearGradient3187-7-5"
       id="linearGradient3756"
       gradientUnits="userSpaceOnUse"
       gradientTransform="matrix(5.6190474,0,0,4.9043651,-170.71372,8.7516906)"
       x1="48"
       y1="78"
       x2="48"
       y2="5.9877172" />
    <linearGradient
       id="linearGradient3187-7-5">
      <stop
         id="stop3189-4-5"
         style="stop-color:#c29656;stop-opacity:1"
         offset="0" />
      <stop
         id="stop3191-1-8"
         style="stop-color:#ddc08b;stop-opacity:1"
         offset="1" />
    </linearGradient>
    <linearGradient
       inkscape:collect="always"
       xlink:href="#linearGradient4008-4-7"
       id="linearGradient3822"
       gradientUnits="userSpaceOnUse"
       gradientTransform="matrix(4.4715789,0,0,4.4715789,-908.22105,-66.542998)"
       x1="34.85965"
       y1="16.275133"
       x2="34.994316"
       y2="28.905609" />
    <linearGradient
       inkscape:collect="always"
       xlink:href="#linearGradient3187-7-5"
       id="linearGradient3824"
       gradientUnits="userSpaceOnUse"
       gradientTransform="matrix(5.6190474,0,0,4.9043651,-891.75432,21.86152)"
       x1="48"
       y1="78"
       x2="48"
       y2="5.9877172" />
  </defs>
  <sodipodi:namedview
     pagecolor="#ffffff"
     bordercolor="#666666"
     borderopacity="1"
     objecttolerance="10"
     gridtolerance="10"
     guidetolerance="10"
     inkscape:pageopacity="0"
     inkscape:pageshadow="2"
     inkscape:window-width="1301"
     inkscape:window-height="744"
     id="namedview3033"
     showgrid="false"
     inkscape:zoom="12.001175"
     inkscape:cx="-2.7676454"
     inkscape:cy="11"
     inkscape:window-x="65"
     inkscape:window-y="24"
     inkscape:window-maximized="1"
     inkscape:current-layer="svg3007" />
  <path
     style="fill:#ffffff;fill-opacity:1;stroke:none;opacity:0.9"
     d="M 5.750397,2 C 3.672897,2 2,3.6729 2,5.7504 l 0,0.8795 0,9.6197 C 2,18.3271 3.672897,20 5.750397,20 l 10.499206,0 C 18.327103,20 20,18.3271 20,16.2496 L 20,6.6299 20,5.7504 C 20,3.6729 18.327103,2 16.249603,2 L 5.750397,2 z M 11,5.27966 c 0.993674,0 1.006561,4.1e-4 1.110699,0.056 0.100658,0.0537 0.200484,0.1624 0.249073,0.27053 0.01242,0.0276 0.02884,0.86458 0.03575,1.8603 l 0.01311,1.81025 0.06674,0.10249 c 0.0371,0.056 0.110477,0.1281 0.163268,0.16088 l 0.09653,0.0596 1.822167,0.0131 1.823358,0.0119 0.09772,0.0608 c 0.05354,0.0332 0.129416,0.11129 0.169227,0.174 l 0.0727,0.1144 0,1.01417 c 0,0.94671 -0.003,1.01887 -0.04767,1.10593 -0.05101,0.0994 -0.120794,0.17037 -0.24073,0.24669 -0.07049,0.0449 -0.16666,0.0477 -1.885329,0.0596 l -1.811441,0.0131 -0.09653,0.0596 c -0.05279,0.0328 -0.126168,0.10489 -0.163268,0.16088 l -0.06674,0.10249 -0.01311,1.81025 c -0.01381,1.98925 -0.0049,1.8735 -0.168035,2.02834 -0.151281,0.14355 -0.170838,0.14646 -1.233448,0.14539 -0.814352,-8.2e-4 -0.989536,-0.008 -1.063029,-0.0393 -0.105748,-0.0458 -0.214763,-0.14629 -0.271716,-0.24907 -0.03749,-0.0677 -0.04354,-0.26013 -0.05482,-1.88533 L 9.591366,12.7364 9.524626,12.63391 c -0.0371,-0.056 -0.110477,-0.1281 -0.163268,-0.16088 l -0.09653,-0.0596 -1.811441,-0.0131 c -1.718669,-0.0119 -1.814841,-0.0147 -1.885329,-0.0596 -0.119934,-0.0763 -0.189713,-0.1473 -0.24073,-0.24669 -0.04469,-0.0871 -0.04767,-0.15922 -0.04767,-1.10593 l 0,-1.01417 0.0727,-0.1144 c 0.03981,-0.0627 0.115689,-0.14075 0.169227,-0.174 l 0.09772,-0.0608 1.82455,-0.0119 1.82455,-0.0131 0.102489,-0.0667 C 9.426944,9.49594 9.498959,9.42251 9.531779,9.36977 l 0.05959,-0.0965 0.01311,-1.80786 c 0.0069,-0.9947 0.02334,-1.83148 0.03575,-1.85911 0.04859,-0.10813 0.148415,-0.21678 0.249073,-0.27053 0.104139,-0.0556 0.117025,-0.056 1.110699,-0.056 z"
     id="rect5505"
     inkscape:connector-curvature="0" />
</svg>
