<?xml version="1.0" encoding="UTF-8" standalone="no"?>
<!-- Created with Inkscape (http://www.inkscape.org/) -->

<svg
   xmlns:dc="http://purl.org/dc/elements/1.1/"
   xmlns:cc="http://creativecommons.org/ns#"
   xmlns:rdf="http://www.w3.org/1999/02/22-rdf-syntax-ns#"
   xmlns:svg="http://www.w3.org/2000/svg"
   xmlns="http://www.w3.org/2000/svg"
   xmlns:xlink="http://www.w3.org/1999/xlink"
   xmlns:sodipodi="http://sodipodi.sourceforge.net/DTD/sodipodi-0.dtd"
   xmlns:inkscape="http://www.inkscape.org/namespaces/inkscape"
   width="512"
   height="512"
   id="svg2"
   version="1.1"
   inkscape:version="0.48.3.1 r9886"
   sodipodi:docname="angry-birds.svg">
  <sodipodi:namedview
     id="base"
     pagecolor="#ffffff"
     bordercolor="#666666"
     borderopacity="1.0"
     inkscape:pageopacity="0.0"
     inkscape:pageshadow="2"
     inkscape:zoom="0.5"
     inkscape:cx="88.66468"
     inkscape:cy="296.6241"
     inkscape:document-units="px"
     inkscape:current-layer="layer1"
     showgrid="false"
     inkscape:window-width="1317"
     inkscape:window-height="744"
     inkscape:window-x="49"
     inkscape:window-y="24"
     inkscape:window-maximized="1"
     inkscape:object-paths="true"
     inkscape:snap-intersection-paths="true"
     inkscape:object-nodes="true"
     inkscape:snap-smooth-nodes="true" />
  <defs
     id="defs4">
    <radialGradient
       inkscape:collect="always"
       xlink:href="#linearGradient3853"
       id="radialGradient21898"
       cx="255.99385"
       cy="256"
       fx="255.99385"
       fy="256"
       r="216"
       gradientUnits="userSpaceOnUse" />
    <linearGradient
       id="linearGradient3853"
       gradientUnits="userSpaceOnUse"
       x1="64.477501"
       y1="56.3008"
       x2="78.466103"
       y2="48.0854">
      <stop
         offset="0"
         style="stop-color:#d8222c;stop-opacity:1;"
         id="stop3857" />
      <stop
         offset="1"
         style="stop-color:#dc2831;stop-opacity:1;"
         id="stop3859" />
    </linearGradient>
    <radialGradient
       inkscape:collect="always"
       xlink:href="#linearGradient3853"
       id="radialGradient3010"
       gradientUnits="userSpaceOnUse"
       cx="255.99385"
       cy="256"
       fx="255.99385"
       fy="256"
       r="216"
       gradientTransform="matrix(0.97737557,0,0,0.97737557,5.797851,546.154)" />
    <radialGradient
       inkscape:collect="always"
       xlink:href="#linearGradient3853"
       id="radialGradient8001"
       gradientUnits="userSpaceOnUse"
       gradientTransform="translate(0.00614246,540.36218)"
       cx="255.99385"
       cy="256"
       fx="255.99385"
       fy="256"
       r="216" />
    <radialGradient
       inkscape:collect="always"
       xlink:href="#linearGradient3853"
       id="radialGradient3961"
       gradientUnits="userSpaceOnUse"
       gradientTransform="translate(0.00614246,540.36218)"
       cx="255.99385"
       cy="256"
       fx="255.99385"
       fy="256"
       r="216" />
  </defs>
  <metadata
     id="metadata7">
    <rdf:RDF>
      <cc:Work
         rdf:about="">
        <dc:format>image/svg+xml</dc:format>
        <dc:type
           rdf:resource="http://purl.org/dc/dcmitype/StillImage" />
        <dc:title />
      </cc:Work>
    </rdf:RDF>
  </metadata>
  <g
     transform="translate(0,-540.36218)"
     id="layer1"
     inkscape:groupmode="layer"
     inkscape:label="Livello 1">
    <path
       sodipodi:nodetypes="cssssssscssscssscssssccccccsccsscccsssscscscscsccccssscc"
       inkscape:connector-curvature="0"
       d="m -154.63092,655.95918 c -6.52952,-15.1196 -16.00932,-28.8314 -29.15329,-42.1679 -12.32904,-12.5097 -23.59101,-21.0264 -35.71431,-27.0087 -9.13643,-4.5083 -16.43816,-6.4411 -23.34669,-6.1799 -8.70073,0.3289 -14.96349,3.8719 -19.03725,10.7699 -3.30323,5.5932 -2.86584,10.4984 1.56149,17.5119 3.83559,6.0762 8.3783,10.4513 15.53384,14.9607 4.40508,2.776 10.64831,6.412 20.7584,12.0895 7.45155,4.1845 22.52842,12.7964 22.73738,12.9876 0.13778,0.1261 0.11706,0.2784 -0.10671,0.7843 -0.15273,0.3453 -0.32979,0.6278 -0.39347,0.6278 -0.0637,0 -0.73904,-0.1473 -1.50078,-0.3273 -0.76176,-0.18 -2.77096,-0.5732 -4.46489,-0.8739 -10.34093,-1.8353 -17.8981,-4.2316 -25.78021,-8.1747 -5.19315,-2.5979 -8.49871,-4.7452 -19.687,-12.7888 -8.87318,-6.3791 -10.17767,-7.2476 -11.68404,-7.7791 -1.00582,-0.3549 -10.47287,-1.8967 -15.50277,-2.5249 -12.15959,-1.5185 -21.18067,-1.2379 -30.13317,0.9375 -5.57526,1.3547 -9.00996,2.7221 -12.1993,4.8566 -5.67917,3.8009 -9.54078,11.0617 -8.23922,15.4918 0.46082,1.5685 1.62057,3.3394 3.29551,5.032 2.72814,2.7569 5.70164,4.2129 11.98689,5.8696 10.41855,2.746 19.98804,3.9956 35.02144,4.573 2.09927,0.081 8.54777,0.1642 14.32999,0.1857 45.35731,-1.74216 95.49856,25.05732 111.71816,1.1473 z m -154.90913,6.4176 c -5.25777,-1.1083 -12.77488,-3.0168 -15.25152,-3.8722 -1.48087,-0.5115 -3.40265,-1.3843 -4.50244,-2.0449 -1.34401,-0.8073 -4.76077,-3.3741 -5.74292,-4.3142 -1.76143,-1.6862 -4.80337,-5.8779 -5.37613,-7.4082 -0.15734,-0.4204 -0.5907,-2.03 -0.96301,-3.5768 -0.91624,-3.8067 -0.91568,-4.24 0.0105,-8.1695 0.81447,-3.4556 1.06698,-4.2719 1.82274,-5.8927 0.75727,-1.6239 1.4088,-2.6577 3.31151,-5.2541 1.88954,-2.5785 3.25089,-3.9869 5.42268,-5.61 6.027,-4.5045 8.91823,-5.6915 20.17135,-8.2815 4.83513,-1.1128 8.25756,-1.5819 13.28447,-1.8208 5.91436,-0.2811 13.82283,0.3009 22.46595,1.6532 1.08647,0.17 1.97539,0.2986 1.97539,0.2858 0,-0.013 -0.0823,-0.2568 -0.18294,-0.5423 -0.10062,-0.2855 -0.53491,-1.9956 -0.9651,-3.8002 -0.75968,-3.1869 -0.78217,-3.335 -0.78277,-5.1561 0,-1.7998 0.0276,-1.9931 0.70289,-4.8213 0.38693,-1.6205 0.82972,-3.3381 0.98398,-3.8169 0.61109,-1.8966 1.6761,-3.7916 3.72858,-6.6341 2.59107,-3.5884 3.79634,-4.8297 6.79312,-6.9962 4.48404,-3.2418 5.85364,-3.8623 11.48509,-5.2032 4.14444,-0.9868 5.76814,-1.25 8.30336,-1.3459 3.76948,-0.1425 6.34486,0.1955 12.32111,1.6173 4.19518,0.998 6.08058,1.5535 8.7721,2.5845 7.5272,2.8835 15.0242,7.0683 23.3903,13.0565 6.92115,4.9538 11.28276,8.5627 17.91464,14.8227 8.80563,8.3118 15.79578,16.5315 23.47685,27.6063 4.47759,6.456 8.8709,14.3548 12.02745,21.6245 2.03088,4.6772 2.45924,5.4074 4.17782,7.1213 -43.4248,37.91113 -82.04291,7.01486 -168.77505,4.189 z"
       style="fill:#000000"
       id="path3062" />
    <g
       id="g3949"
       transform="matrix(1.1388889,0,0,1.1388889,-35.555558,-110.60587)">
      <path
         style="opacity:0.85;color:#000000;fill:#f8f8f8;fill-opacity:1;fill-rule:nonzero;stroke:none;stroke-width:12;marker:none;visibility:visible;display:inline;overflow:visible;enable-background:accumulate"
         d="m 86.1875,447.46875 c 1.013982,0.69766 1.989121,1.43891 3.03125,2.09375 2.236328,1.40524 4.522975,2.70819 6.875,3.90625 2.352025,1.19806 4.77002,2.30403 7.21875,3.28125 2.44873,0.97722 4.9423,1.81978 7.46875,2.5625 2.52645,0.74272 5.07107,1.38044 7.65625,1.875 2.58518,0.49456 5.21883,0.86101 7.84375,1.09375 2.62492,0.23274 5.26058,0.32399 7.90625,0.28125 2.64567,-0.0427 5.29007,-0.23061 7.9375,-0.5625 20.97151,-0.15172 41.96166,-0.13514 62.9375,-0.0625 20.97584,0.0726 41.93046,0.21565 62.90625,0.28125 20.97579,0.0656 41.96616,0.0791 62.9375,-0.0937 20.97134,-0.17284 41.94374,-0.54483 62.90625,-1.1875 2.6042,-0.41438 5.16732,-0.9714 7.6875,-1.65625 2.52018,-0.68485 4.98332,-1.49988 7.40625,-2.4375 2.42293,-0.93762 4.78132,-1.98356 7.09375,-3.15625 2.31243,-1.17269 4.59255,-2.45369 6.78125,-3.84375 1.04923,-0.66637 2.0127,-1.44293 3.03125,-2.15625 C 423.94583,367.04395 348.71693,302.125 256,302.125 c -92.63269,0 -167.814109,64.80214 -169.8125,145.34375 z"
         id="path3911"
         transform="translate(0,540.36218)"
         inkscape:connector-curvature="0" />
      <rect
         style="color:#000000;fill:url(#radialGradient3961);fill-opacity:1;fill-rule:nonzero;stroke:none;stroke-width:9.77375603;marker:none;visibility:visible;display:inline;overflow:visible;enable-background:accumulate"
         id="rect4121"
         width="432"
         height="432"
         x="40"
         y="580.36218"
         ry="89.999992" />
      <path
         id="path8044"
         transform="translate(0,540.36218)"
         d="m 256,302.125 c -93.19805,0 -169.844701,66.90147 -179.0625,152.625 0.005,0.004 -0.005,0.0276 0,0.0312 C 91.798221,465.61402 110.12154,472 130,472 l 252,0 c 19.87846,0 38.20178,-6.38598 53.0625,-17.21875 -10e-4,-0.0103 10e-4,-0.0209 0,-0.0312 C 425.8447,369.02647 349.19805,302.125 256,302.125 z"
         style="opacity:0.85;color:#000000;fill:#e5caad;fill-opacity:1;fill-rule:nonzero;stroke:none;stroke-width:9.77400017;marker:none;visibility:visible;display:inline;overflow:visible;enable-background:accumulate"
         inkscape:connector-curvature="0" />
      <path
         id="path7996"
         transform="translate(0,540.36218)"
         d="m 382.59375,149 c -0.029,-0.007 -0.0345,0.0204 -0.0625,0.0312 -0.15221,0.0589 -3.01954,1.11629 -6.375,2.375 -18.39735,6.90112 -39.22465,15.30527 -71.5,28.8125 -19.71362,8.25016 -31.4556,13.1191 -40.53125,16.84375 l -8.28125,3.40625 -3.5,-1.1875 c -2.10838,-0.71809 -8.83161,-3.44935 -17.125,-6.9375 -7.51433,-3.16043 -25.32123,-10.65184 -39.59375,-16.65625 -40.00856,-16.83126 -55.37501,-23.24173 -57.0625,-23.8125 -2.39424,-0.80971 -9.38478,-2.7786 -9.53125,-2.6875 -0.22048,0.13628 -2.51239,4.86953 -3.34375,6.90625 -3.82322,9.36642 -6.66084,21.98795 -7.125,31.6875 -0.14574,3.04545 -0.003,8.00991 0.25,8.25 0,0 18.20511,18.6612 27.28125,27.28125 -0.88951,3.85524 -1.72162,7.48497 -1.875,8.3125 -1.11782,6.03136 -1.04004,13.28321 0.1875,19.4375 1.59421,7.99262 5.28713,15.8834 10.40625,22.28125 0.53061,0.66312 1.22864,1.45352 2,2.28125 0.11274,0.12283 0.25847,0.25011 0.375,0.375 0.45184,0.47735 0.89648,0.95826 1.375,1.4375 0.18964,0.19244 0.37083,0.37199 0.5625,0.5625 0.0965,0.0971 0.18433,0.1847 0.28125,0.28125 0.0214,0.0213 0.0411,0.0412 0.0625,0.0625 0.0108,0.0106 0.0205,0.0208 0.0312,0.0312 0.10722,0.10782 0.20478,0.20543 0.3125,0.3125 0.0108,0.0106 0.0205,0.0208 0.0312,0.0312 0.0538,0.0541 0.10231,0.10232 0.15625,0.15625 0.10559,0.10697 0.2062,0.20604 0.3125,0.3125 0.043,0.0425 0.082,0.0827 0.125,0.125 0.1535,0.15506 0.28283,0.31511 0.4375,0.46875 0,0 21.49995,21.4687 21.46875,21.4375 l 0.0312,0.0312 c -7.93752,13.92061 -11.9409,21.1705 -12.03125,21.78125 -0.1883,1.27269 0.19996,3.35599 0.875,4.78125 0.34088,0.71968 0.78244,1.32694 1.34375,1.9375 0.10208,0.12542 0.22991,0.25186 0.34375,0.375 0.0714,0.0689 0.14282,0.14995 0.21875,0.21875 0.0388,0.044 0.0846,0.0812 0.125,0.125 0.0505,0.0487 0.10356,0.10763 0.15625,0.15625 l 10.53125,10.53125 c 1.2909,3.63465 2.83753,7.33726 4.46875,10.59375 3.90365,7.79291 9.02418,15.03928 15.53125,21.96875 0.10978,0.11796 0.23316,0.22598 0.34375,0.34375 1.23292,1.34747 2.54459,2.63925 3.78125,3.875 L 302.125,472 382,472 c 49.86,0 90,-40.14 90,-90 l 0,-143.5 c -33.85385,-33.85173 -89.12721,-89.12201 -89.125,-89.125 -0.11773,-0.21673 -0.20037,-0.35489 -0.28125,-0.375 z"
         style="fill:#000000;fill-opacity:0.33333333"
         inkscape:connector-curvature="0" />
      <g
         transform="translate(1.7949774e-6,0)"
         id="g7989">
        <path
           inkscape:connector-curvature="0"
           id="path3060"
           d="m 249.53313,947.59422 c -10.08848,-5.91638 -16.94373,-10.19769 -22.64611,-14.14332 -18.49373,-12.79633 -30.80817,-26.02792 -38.48278,-41.34884 -2.09951,-4.19136 -4.08118,-9.10248 -5.52274,-13.68688 -0.35664,-1.13424 -0.76408,-2.19828 -0.90537,-2.36458 -0.14132,-0.16618 -1.26901,-0.81407 -2.506,-1.43964 -5.34415,-2.7027 -7.15806,-4.11757 -8.25884,-6.4416 -0.67504,-1.42526 -1.05144,-3.51164 -0.86314,-4.78433 0.10446,-0.70615 5.10098,-9.67491 15.80563,-28.37133 l 1.23465,-2.15644 -4.13848,-1.25562 c -5.91977,-1.79599 -8.03046,-2.58516 -11.52823,-4.30967 -3.31232,-1.63315 -6.34707,-3.55053 -9.11032,-5.75573 -2.23001,-1.77969 -5.98571,-5.54104 -7.81266,-7.82426 -5.11912,-6.39785 -8.79631,-14.28024 -10.39052,-22.27286 -1.22754,-6.15429 -1.29299,-13.42395 -0.17517,-19.45531 0.37334,-2.01426 4.51124,-19.80909 4.70313,-20.22549 l 1.20428,-5.49066 c -0.0388,-0.0359 -5.60613,-1.96955 -14.68005,-4.73026 -9.07392,-2.76083 -16.55984,-5.07819 -16.63538,-5.14979 -0.25326,-0.24009 -0.41579,-5.20651 -0.27005,-8.25196 0.46416,-9.69955 3.30133,-22.31649 7.12455,-31.68291 0.83136,-2.03672 3.12492,-6.77511 3.3454,-6.91139 0.14647,-0.0911 7.13462,1.88799 9.52886,2.6977 1.68749,0.57077 17.04715,6.98132 57.05571,23.81258 14.27252,6.00441 32.09814,13.50287 39.61247,16.6633 8.29339,3.48815 15.02737,6.21126 17.13575,6.92935 l 3.47334,1.18299 8.29871,-3.40565 c 9.07565,-3.72465 20.80782,-8.60458 40.52144,-16.85474 32.27535,-13.50723 53.09414,-21.89213 71.49149,-28.79325 3.35546,-1.25871 6.22538,-2.33673 6.37759,-2.39563 0.22401,-0.0873 0.44863,0.34492 1.17866,2.265 4.37569,11.50862 7.47908,23.80232 8.92827,35.3683 0.31062,2.47891 0.87278,8.04151 0.87278,8.63602 0,0.45529 -5.82621,2.89416 -10.91276,4.56812 -3.51556,1.15681 -7.2655,2.22894 -13.92021,3.9795 -5.40538,1.42205 -8.77935,2.37227 -11.60018,3.26718 -1.0516,0.32239 -2.17642,0.56822 -3.1201,1.06315 0.46509,1.00038 1.14505,2.41647 1.64524,3.73248 0.59129,1.51684 0.93542,3.08369 1.64116,4.60006 3.7234,7.99994 5.39591,15.55485 5.39591,24.37361 0,11.93478 -3.50247,24.17471 -9.49815,33.19249 -4.17378,6.27747 -9.84943,11.38312 -16.25697,14.62401 -0.9452,0.47812 -4.42342,2.09728 -7.72938,3.598 -3.30596,1.50071 -6.06659,2.7847 -6.13475,2.85309 -0.0681,0.068 3.38885,6.21961 7.68221,13.66917 l 7.80611,13.54496 0.30495,1.6642 c 0.2608,1.42321 0.29252,2.34738 0.21903,6.38039 l -0.086,4.71619 -6.35147,2.95768 -6.35147,2.95768 -2.33633,4.61379 c -3.24302,6.40426 -5.6214,10.36965 -9.36408,15.61221 -4.43272,6.20922 -8.36191,10.79388 -14.59433,17.0294 -8.6394,8.64346 -17.2994,15.65532 -28.88722,23.38912 -4.94183,3.29812 -14.68251,9.35167 -15.00169,9.32293 -0.0656,0 -2.99794,-1.69897 -6.51647,-3.76251 z"
           style="fill:#000000"
           sodipodi:nodetypes="cssccsccscccscscccccssccsssccsscsssccccccsscscscsccccssscccc" />
        <path
           inkscape:connector-curvature="0"
           id="path3058"
           d="m 258.32132,937.98783 c 13.96514,-7.18792 25.33016,-15.26972 34.8241,-24.7637 6.56578,-6.56569 11.57935,-12.96135 16.23563,-20.71106 1.38253,-2.30106 4.03474,-7.29584 4.03474,-7.59842 0,-0.0937 -0.63801,-0.26447 -1.4178,-0.37816 l -1.41779,-0.2066 -18.64623,3.77752 c -32.4756,6.57916 -34.08387,6.86699 -37.20651,6.66039 -1.8402,-0.1219 -7.04898,-1.39511 -26.72337,-6.53296 -22.32273,-5.82938 -21.50829,-5.64139 -29.12926,-6.72289 -5.13423,-0.72848 -5.16417,-0.59504 -5.54539,-1.03826 -0.40236,-0.46773 -0.63362,0.0652 -0.46465,0.50484 0.77263,1.25333 1.04429,1.23794 1.28579,2.16193 0.75409,2.89981 1.02873,3.55758 2.66914,6.3931 11.36948,19.65266 29.12102,35.53127 54.21287,48.49313 1.93766,1.00091 3.5549,1.82127 3.59386,1.82281 0.039,0 1.70166,-0.8364 3.69487,-1.86233 z"
           style="fill:#f5bb19;fill-opacity:1"
           sodipodi:nodetypes="csssccscsccccscccc" />
        <path
           inkscape:connector-curvature="0"
           id="path3056"
           d="m 266.04706,887.52856 c 1.2162,-0.15951 3.49756,-0.55884 5.0697,-0.88722 5.30542,-1.10831 7.99098,-1.58258 14.45859,-2.55308 3.54451,-0.53176 7.79791,-1.23535 9.45201,-1.56347 9.36387,-1.85745 27.15211,-6.85582 30.65996,-8.61536 1.51504,-0.75992 2.87095,-2.03736 3.38925,-3.19302 0.61275,-1.36624 0.55203,-3.83437 -0.15996,-6.50319 -1.59055,-5.96168 -4.24454,-11.59409 -8.51702,-18.07483 -6.48797,-9.84135 -15.46452,-19.41283 -26.27279,-28.01408 -12.05721,-9.5951 -22.18907,-15.15026 -33.39046,-18.30735 -5.60213,-1.57899 -9.56769,-1.37124 -14.46324,0.75761 -8.55686,3.72093 -19.19411,10.01035 -27.89287,16.49211 -12.43115,9.26288 -22.72052,19.00542 -29.21753,27.66492 -4.88855,6.51577 -7.5476,11.52403 -8.25741,15.55293 -0.25042,1.42129 -0.21953,4.90547 0.0563,6.35858 l 0.21209,1.11703 3.52301,1.84296 c 8.63329,4.51601 20.12366,8.18138 38.07287,12.14471 29.1257,6.43121 27.86969,6.21909 36.25422,6.12503 3.23508,-0.0359 5.53655,-0.14911 7.02323,-0.34428 z"
           style="fill:#f5bb19;fill-opacity:1" />
        <path
           inkscape:connector-curvature="0"
           id="path3054"
           d="m 320.24985,825.38178 c 7.44476,-2.51998 9.33489,-3.24807 12.67143,-4.8816 7.53916,-3.69117 13.22598,-9.09927 17.585,-16.72322 2.56856,-4.4924 4.38178,-9.79169 5.12355,-14.97394 0.3768,-2.63252 0.3664,-7.56852 -0.0207,-9.80568 -1.12036,-10.48446 -1.83841,-20.94511 -9.85084,-28.58434 -0.34026,-0.30682 -0.94211,-0.16117 -25.41084,6.14621 -13.78429,3.55321 -25.16892,6.49934 -25.29918,6.54695 -0.16452,0.0603 0.022,0.36122 0.6107,0.98576 3.05384,3.23986 5.69327,7.45355 6.86084,10.95274 0.45101,1.35174 0.48753,1.65958 0.48923,4.12451 10e-4,2.58567 -0.0142,2.70603 -0.54901,4.10397 -1.95752,5.11796 -6.24497,8.6128 -11.63244,9.48192 -1.83048,0.29526 -4.83949,0.12703 -6.3693,-0.35648 -3.36991,-1.06468 -6.6744,-3.54103 -8.50538,-6.37385 -0.74812,-1.15746 -1.54812,-3.41707 -1.54812,-4.37255 0,-0.56962 0.025,-0.59284 0.64445,-0.59643 1.31297,-0.0128 2.82579,-1.09779 3.38543,-2.43965 0.85464,-2.04903 -0.52535,-4.83207 -2.58795,-5.21896 -0.48442,-0.0911 -0.56524,-0.16925 -0.49153,-0.47658 0.21073,-0.87875 1.05944,-5.1838 1.02967,-5.22293 -0.0518,-0.068 -16.24641,4.1988 -16.35759,4.30992 -0.0548,0.0552 -0.10971,2.98399 -0.12191,6.50923 -0.0192,5.56427 0.0189,6.61342 0.28922,7.95618 0.41518,2.06186 0.73182,3.14451 1.4407,4.92651 l 0.59252,1.48955 2.26476,0.71976 c 10.7945,3.43105 20.9769,9.27096 34.97969,20.06214 4.96817,3.82859 5.30375,4.13515 9.91475,9.05884 2.43656,2.60171 4.49577,4.73056 4.57601,4.73056 0.0802,0 2.90933,-0.93533 6.28686,-2.07854 z"
           style="fill:#f8f8f8;fill-opacity:1"
           sodipodi:nodetypes="csssccscccccccsscccccccccccccscc" />
        <path
           inkscape:connector-curvature="0"
           id="path3050"
           d="m 205.09396,818.42304 c 3.80062,-3.53718 4.96091,-4.50267 7.97444,-6.63562 11.53316,-8.16329 18.14107,-12.26457 25.15856,-15.61504 2.56917,-1.22662 7.12003,-3.07253 9.47094,-3.84143 l 1.39133,-0.45515 0.62085,-2.01401 c 1.35522,-4.39603 1.83732,-6.92023 1.96024,-10.26301 0.13969,-3.79882 -0.45201,-7.67707 -1.2209,-8.00237 -0.55979,-0.23675 -18.83916,-4.51165 -18.92497,-4.4258 -0.0417,0.0423 0.42584,1.23548 1.03898,2.65279 0.61313,1.4173 1.31971,3.34597 1.57014,4.2858 0.40239,1.51008 0.45536,2.02863 0.45536,4.45852 0,2.41424 -0.0543,2.95306 -0.445,4.41759 -1.66342,6.23501 -6.09135,10.65632 -12.30618,12.28779 -2.27118,0.59619 -5.41342,0.62596 -7.66678,0.0732 -1.85845,-0.45631 -4.59783,-1.73927 -6.02752,-2.82281 -1.3523,-1.02504 -3.43405,-3.20983 -4.36602,-4.58223 -1.53218,-2.25615 -2.65898,-5.26669 -2.86562,-7.65616 l -0.10419,-1.20443 0.75273,-0.20133 c 1.80593,-0.483 2.90272,-1.90699 2.89585,-3.75956 -0.005,-1.29194 -0.42356,-2.23125 -1.34733,-3.02197 l -0.71038,-0.60811 0.85075,-1.41551 c 1.24582,-2.07278 2.5487,-3.58145 5.24933,-6.07846 1.32327,-1.22341 2.42595,-2.27513 2.45037,-2.33724 0.0359,-0.0911 -51.00024,-13.60065 -51.36313,-13.5959 -0.26941,0 -2.94104,4.30184 -4.11316,6.61779 -1.92169,3.79677 -3.01373,7.49781 -3.34675,11.34232 -0.0654,0.75619 -0.29943,2.13026 -0.51983,3.05353 -0.86111,3.60686 -1.02175,5.11617 -1.01942,9.57778 0.003,4.73813 0.26393,6.75881 1.373,10.61114 2.38009,8.26736 8.36277,17.50085 14.85586,22.92832 7.36527,6.15648 16.83154,9.39608 29.99695,10.26584 4.09718,0.27063 3.16715,0.72386 8.28147,-4.03584 z"
           style="fill:#f8f8f8;fill-opacity:1" />
      </g>
    </g>
    <path
       id="path3915"
       style="fill:#000000"
       d="m -370.90031,1082.9482 c 14.90101,-0.5072 28.99031,-2.2759 43.32479,-5.4388 22.69261,-5.0071 41.84843,-12.7246 59.2506,-23.8709 2.6736,-1.7124 3.5757,-2.4209 5.88478,-4.6214 1.57822,-1.504 1.94848,-1.7848 3.14544,-2.3854 2.81337,-1.4118 8.44673,-6.0576 13.6907,-11.2905 6.20416,-6.1912 11.08333,-12.2683 17.1528,-21.3642 5.81036,-8.7076 9.82885,-16.95065 11.58869,-23.77165 0.15204,-0.5893 1.1058,-3.3314 2.11949,-6.0936 2.76215,-7.5267 3.48307,-9.8462 4.54227,-14.6143 0.61168,-2.7536 1.51179,-7.7999 2.35006,-13.1752 0.41352,-2.6517 0.9632,-6.1472 1.22149,-7.7677 0.3229,-2.0259 0.50942,-3.7622 0.59704,-5.5579 0.0701,-1.4363 0.2169,-4.1784 0.32629,-6.0935 0.64106,-11.2242 0.57153,-15.4325 -0.40823,-24.7092 -2.53208,-23.9748 -9.2877,-45.4798 -21.01475,-66.8957 -18.1724,-33.1863 -44.63877,-60.0366 -78.48294,-79.6214 -7.37926,-4.2702 -8.47263,-4.9965 -10.70938,-7.1137 -2.91491,-2.7592 -4.47049,-5.1647 -6.74329,-10.4276 -6.52952,-15.1196 -16.00932,-28.8314 -29.15329,-42.1679 -12.32904,-12.5097 -23.59101,-21.0264 -35.71431,-27.0087 -9.13643,-4.5083 -16.43816,-6.4411 -23.34669,-6.1799 -8.70073,0.3289 -14.96349,3.8719 -19.03725,10.7699 -3.30323,5.5932 -2.86584,10.4984 1.56149,17.5119 3.83559,6.0762 8.3783,10.4513 15.53384,14.9607 4.40508,2.776 10.64831,6.412 20.7584,12.0895 7.45155,4.1845 22.52842,12.7964 22.73738,12.9876 0.13778,0.1261 0.11706,0.2784 -0.10671,0.7843 -0.15273,0.3453 -0.32979,0.6278 -0.39347,0.6278 -0.0637,0 -0.73904,-0.1473 -1.50078,-0.3273 -0.76176,-0.18 -2.77096,-0.5732 -4.46489,-0.8739 -10.34093,-1.8353 -17.8981,-4.2316 -25.78021,-8.1747 -5.19315,-2.5979 -8.49871,-4.7452 -19.687,-12.7888 -8.87318,-6.3791 -10.17767,-7.2476 -11.68404,-7.7791 -1.00582,-0.3549 -10.47287,-1.8967 -15.50277,-2.5249 -12.15959,-1.5185 -21.18067,-1.2379 -30.13317,0.9375 -5.57526,1.3547 -9.00996,2.7221 -12.1993,4.8566 -5.67917,3.8009 -9.54078,11.0617 -8.23922,15.4918 0.46082,1.5685 1.62057,3.3394 3.29551,5.032 2.72814,2.7569 5.70164,4.2129 11.98689,5.8696 10.41855,2.746 19.98804,3.9956 35.02144,4.573 2.09927,0.081 8.54777,0.1642 14.32999,0.1857 l 10.51313,0.039 0.80355,0.3437 c 0.44195,0.189 1.37147,0.6105 2.06559,0.9366 1.23876,0.582 1.25358,0.5945 0.80355,0.6748 -0.25217,0.045 -4.58673,0.6588 -9.63236,1.3639 -10.46353,1.4622 -17.68985,2.5301 -19.14741,2.8297 -2.373,0.4878 -4.83725,1.5781 -10.18221,4.5055 -20.8212,11.4033 -39.57077,27.3 -57.5322,48.7784 -17.85743,21.3541 -31.41153,44.8373 -40.69811,70.5116 -7.15087,19.7699 -10.94928,37.6604 -11.8541,55.833 -0.17126,3.4396 -0.16058,12.1859 0.0166,13.6072 0.0735,0.5893 0.1796,1.9754 0.23586,3.0803 0.0563,1.1049 0.17437,2.1897 0.26244,2.4107 0.0881,0.2209 0.79182,4.9337 1.56386,10.4728 1.38524,9.9385 2.05527,13.911 2.94333,17.4506 0.83425,3.3251 1.98747,6.2758 3.27136,8.3703 0.33334,0.5438 1.20787,2.5685 2.08252,4.8213 2.33413,6.0121 2.93748,7.27685 5.52613,11.58445 7.42872,12.3618 17.65377,23.3904 31.37139,33.837 3.45343,2.6299 10.89346,7.8776 13.21156,9.3185 31.82524,19.7826 69.0154,31.2487 111.94152,34.5126 9.85339,0.7493 18.03114,0.9599 26.3163,0.6779 z m -13.27465,10.8404 c -11.12483,-0.2966 -24.81012,-1.5708 -36.67944,-3.4149 -9.21411,-1.4317 -17.99389,-3.2636 -29.26265,-6.1061 -22.23294,-5.6078 -43.16907,-14.2875 -62.06657,-25.7317 -3.82894,-2.3188 -5.42733,-3.4071 -12.99849,-8.8504 -8.34587,-6.0002 -13.30863,-10.1644 -19.56336,-16.4154 -4.98172,-4.9787 -7.60448,-7.9902 -11.37912,-13.0656 -3.78502,-5.0893 -6.64304,-9.4157 -8.8919,-13.46 -1.36971,-2.4634 -1.97729,-3.8241 -3.83324,-8.58515 -1.02801,-2.6371 -1.74186,-4.2489 -2.33558,-5.2733 -1.58591,-2.7364 -2.36101,-4.8896 -3.61662,-10.0466 -2.14203,-8.7978 -3.21728,-15.0447 -4.62189,-26.852 -0.22344,-1.8783 -0.47004,-3.626 -0.548,-3.8838 -0.078,-0.2578 -0.19442,-1.2221 -0.2588,-2.1428 -0.0644,-0.9208 -0.1785,-2.3973 -0.25361,-3.2812 -0.17712,-2.0844 -0.18124,-10.3736 -0.007,-13.8751 0.6144,-12.3397 2.38563,-23.336 6.24285,-38.7575 5.67281,-22.6804 15.50527,-45.6622 28.2632,-66.0608 5.87609,-9.3953 13.94745,-20.4999 21.19479,-29.16 14.56565,-17.405 28.73165,-30.3245 46.34806,-42.2699 1.14171,-0.7742 2.10598,-1.4591 2.1428,-1.5219 0.0368,-0.063 -0.7165,-0.2795 -1.67406,-0.4813 -5.25777,-1.1083 -12.77488,-3.0168 -15.25152,-3.8722 -1.48087,-0.5115 -3.40265,-1.3843 -4.50244,-2.0449 -1.34401,-0.8073 -4.76077,-3.3741 -5.74292,-4.3142 -1.76143,-1.6862 -4.80337,-5.8779 -5.37613,-7.4082 -0.15734,-0.4204 -0.5907,-2.03 -0.96301,-3.5768 -0.91624,-3.8067 -0.91568,-4.24 0.0105,-8.1695 0.81447,-3.4556 1.06698,-4.2719 1.82274,-5.8927 0.75727,-1.6239 1.4088,-2.6577 3.31151,-5.2541 1.88954,-2.5785 3.25089,-3.9869 5.42268,-5.61 6.027,-4.5045 8.91823,-5.6915 20.17135,-8.2815 4.83513,-1.1128 8.25756,-1.5819 13.28447,-1.8208 5.91436,-0.2811 13.82283,0.3009 22.46595,1.6532 1.08647,0.17 1.97539,0.2986 1.97539,0.2858 0,-0.013 -0.0823,-0.2568 -0.18294,-0.5423 -0.10062,-0.2855 -0.53491,-1.9956 -0.9651,-3.8002 -0.75968,-3.1869 -0.78217,-3.335 -0.78277,-5.1561 0,-1.7998 0.0276,-1.9931 0.70289,-4.8213 0.38693,-1.6205 0.82972,-3.3381 0.98398,-3.8169 0.61109,-1.8966 1.6761,-3.7916 3.72858,-6.6341 2.59107,-3.5884 3.79634,-4.8297 6.79312,-6.9962 4.48404,-3.2418 5.85364,-3.8623 11.48509,-5.2032 4.14444,-0.9868 5.76814,-1.25 8.30336,-1.3459 3.76948,-0.1425 6.34486,0.1955 12.32111,1.6173 4.19518,0.998 6.08058,1.5535 8.7721,2.5845 7.5272,2.8835 15.0242,7.0683 23.3903,13.0565 6.92115,4.9538 11.28276,8.5627 17.91464,14.8227 8.80563,8.3118 15.79578,16.5315 23.47685,27.6063 4.47759,6.456 8.8709,14.3548 12.02745,21.6245 2.03088,4.6772 2.45924,5.4074 4.17782,7.1213 1.67073,1.6662 2.2242,2.0552 5.93038,4.1679 14.81577,8.4459 29.2456,18.7185 40.97912,29.1732 6.31406,5.6259 13.69256,13.1518 19.22345,19.6075 7.32941,8.5549 15.70686,20.2404 21.6583,30.2105 9.29138,15.5653 15.76404,30.619 19.97725,46.4617 3.61857,13.6066 5.80042,26.0011 6.69541,38.0347 0.43095,5.7942 0.40649,9.6283 -0.12001,18.8165 -0.10763,1.8783 -0.25696,4.676 -0.33184,6.2171 -0.11015,2.2668 -0.27696,3.6994 -0.87323,7.4998 -2.34622,14.9537 -2.79949,17.3747 -4.69097,25.0544 -1.11062,4.5093 -1.77285,6.5947 -4.14657,13.0577 -0.90627,2.4676 -1.80758,4.9988 -2.00293,5.6249 -1.82423,5.84715 -3.07733,9.09155 -4.97107,12.87075 -3.10357,6.1935 -7.85601,13.5403 -14.5885,22.5524 -5.78881,7.7489 -11.85994,14.2286 -18.51803,19.7644 -3.1759,2.6406 -7.56751,5.8921 -8.80197,6.5169 -0.36998,0.1873 -1.26989,0.9081 -1.99981,1.6017 -3.7857,3.5979 -13.276,9.518 -23.11422,14.4188 -12.30264,6.1284 -24.65934,10.5561 -39.64185,14.2046 -20.30716,4.9451 -35.47573,7.0747 -53.97185,7.5777 -5.15867,0.1402 -6.10546,0.1395 -11.66754,-0.01 z"
       inkscape:connector-curvature="0" />
    <path
       style="fill:#000000;fill-opacity:0.33333333;display:none"
       d="m 382.59375,149 c -0.029,-0.007 -0.0345,0.0203 -0.0625,0.0312 -0.15221,0.0589 -3.01954,1.11629 -6.375,2.375 -18.39735,6.90112 -39.22465,15.30527 -71.5,28.8125 -19.71362,8.25016 -31.4556,13.1191 -40.53125,16.84375 l -8.28125,3.40625 -3.5,-1.1875 c -2.10838,-0.71809 -8.83161,-3.44935 -17.125,-6.9375 -7.51433,-3.16043 -25.32123,-10.65184 -39.59375,-16.65625 -40.00856,-16.83126 -55.37501,-23.24173 -57.0625,-23.8125 -2.39424,-0.80971 -9.38478,-2.7786 -9.53125,-2.6875 -0.22048,0.13628 -2.51239,4.86953 -3.34375,6.90625 -3.82322,9.36642 -6.66084,21.98795 -7.125,31.6875 -0.14574,3.04545 -0.003,8.00991 0.25,8.25 0,0 18.20261,18.6573 27.27875,27.27735 -0.88951,3.85524 -1.72162,7.48497 -1.875,8.3125 -1.11782,6.03136 -1.04004,13.28321 0.1875,19.4375 1.59421,7.99262 5.28713,15.8834 10.40625,22.28125 0.53061,0.66312 1.22864,1.45352 2,2.28125 0.11274,0.12283 0.25847,0.25011 0.375,0.375 0.45184,0.47735 0.89648,0.95826 1.375,1.4375 0.18964,0.19244 0.37083,0.37199 0.5625,0.5625 0.0965,0.0971 0.18433,0.1847 0.28125,0.28125 0.0214,0.0213 0.0411,0.0412 0.0625,0.0625 0.0108,0.0106 0.0205,0.0207 0.0312,0.0312 0.10722,0.10782 0.20478,0.20543 0.3125,0.3125 0.0108,0.0106 0.0205,0.0207 0.0312,0.0312 0.0538,0.0541 0.10231,0.10232 0.15625,0.15625 0.10559,0.10697 0.2062,0.20604 0.3125,0.3125 0.043,0.0425 0.082,0.0827 0.125,0.125 0.1535,0.15506 0.28283,0.31511 0.4375,0.46875 0,0 21.4987,21.46755 21.4675,21.43635 0.0107,0.0107 0.0205,0.0205 0.0312,0.0312 -7.93752,13.92061 -11.9409,21.1705 -12.03125,21.78125 -0.1883,1.27269 0.19996,3.35599 0.875,4.78125 0.34088,0.71968 0.78244,1.32694 1.34375,1.9375 0.10208,0.12542 0.22991,0.25186 0.34375,0.375 0.0714,0.0689 0.14282,0.14995 0.21875,0.21875 0.0388,0.044 0.0846,0.0812 0.125,0.125 0.0505,0.0487 0.10356,0.10763 0.15625,0.15625 l 10.531,10.531 c 1.2909,3.63465 2.83753,7.33726 4.46875,10.59375 3.90365,7.79291 9.02418,15.03928 15.53125,21.96875 0.10978,0.11796 0.23316,0.22598 0.34375,0.34375 1.23292,1.34747 2.54439,2.6391 3.78105,3.87485 l 348.7798,348.7485 c 5.68296,5.62095 12.30192,11.05812 20.03125,16.40625 5.70238,3.9457 12.56777,8.2086 22.65625,14.125 3.51853,2.0635 6.46565,3.78125 6.53125,3.78125 0.31918,0.0287 10.05817,-6.0143 15,-9.3125 11.58782,-7.7338 20.2356,-14.76275 28.875,-23.40625 6.23242,-6.2355 10.16103,-10.82205 14.59375,-17.03125 3.74268,-5.2425 6.13198,-9.18945 9.375,-15.59375 l 2.3125,-4.625 6.375,-2.96875 6.34375,-2.9375 0.0937,-4.71875 c 0.0735,-4.033 0.0421,-4.98305 -0.21875,-6.40625 L 688.5,672.34375 680.6875,658.8125 C 676.39414,651.363 672.9319,645.193 673,645.125 c 0.0682,-0.0684 2.85029,-1.34305 6.15625,-2.84375 3.30596,-1.5008 6.77355,-3.11565 7.71875,-3.59375 6.40754,-3.2409 12.07622,-8.3476 16.25,-14.625 5.99568,-9.0178 9.5,-21.2528 9.5,-33.1875 0,-8.8188 -1.68285,-16.3751 -5.40625,-24.375 -0.70574,-1.5164 -1.20484,-2.95435 -1.625,-4.59375 -0.56039,-2.18656 -0.65537,-2.45188 -1.21875,-2.9375 -0.0992,-0.12494 -0.22981,-0.21945 -0.375,-0.34375 -0.014,-0.012 -0.0179,-0.0197 -0.0312,-0.0312 -0.14596,-0.17685 -0.15333,-0.29038 -0.0312,-0.4375 0.12228,-0.1473 0.48059,-0.313 0.78125,-0.375 0.30066,-0.0613 1.35129,-0.3726 2.34375,-0.6875 2.82083,-0.8949 6.18837,-1.828 11.59375,-3.25 6.65471,-1.7506 10.42194,-2.8432 13.9375,-4 5.08655,-1.674 10.90625,-4.1072 10.90625,-4.5625 0,-0.5945 -0.56438,-6.146 -0.875,-8.625 -1.44919,-11.5659 -4.56181,-23.8663 -8.9375,-35.375 -0.69353,-1.8241 -0.91093,-2.28105 -1.125,-2.25 0,0 -349.69626,-349.64456 -349.6876,-349.6563 -0.11773,-0.21673 -0.20037,-0.35489 -0.28125,-0.375 z"
       transform="translate(0,540.36218)"
       id="path8003"
       inkscape:connector-curvature="0"
       sodipodi:nodetypes="ccsscccssccsscccsccccccccccccccccccccccccsccccsscsssccccccccccccscsccccccscsssccc" />
  </g>
</svg>
