<?xml version="1.0" encoding="UTF-8" standalone="no"?>
<!-- Created with Inkscape (http://www.inkscape.org/) -->

<svg
   xmlns:dc="http://purl.org/dc/elements/1.1/"
   xmlns:cc="http://creativecommons.org/ns#"
   xmlns:rdf="http://www.w3.org/1999/02/22-rdf-syntax-ns#"
   xmlns:svg="http://www.w3.org/2000/svg"
   xmlns="http://www.w3.org/2000/svg"
   xmlns:xlink="http://www.w3.org/1999/xlink"
   xmlns:sodipodi="http://sodipodi.sourceforge.net/DTD/sodipodi-0.dtd"
   xmlns:inkscape="http://www.inkscape.org/namespaces/inkscape"
   width="512"
   height="512"
   id="svg2"
   version="1.1"
   inkscape:version="0.48.3.1 r9886"
   sodipodi:docname="angry-birds.svg">
  <sodipodi:namedview
     id="base"
     pagecolor="#ffffff"
     bordercolor="#666666"
     borderopacity="1.0"
     inkscape:pageopacity="0.0"
     inkscape:pageshadow="2"
     inkscape:zoom="0.62160493"
     inkscape:cx="-181.50344"
     inkscape:cy="271.67193"
     inkscape:document-units="px"
     inkscape:current-layer="layer1"
     showgrid="false"
     inkscape:window-width="1305"
     inkscape:window-height="744"
     inkscape:window-x="61"
     inkscape:window-y="24"
     inkscape:window-maximized="1"
     inkscape:object-paths="true"
     inkscape:snap-intersection-paths="true"
     inkscape:object-nodes="true"
     inkscape:snap-smooth-nodes="true"
     inkscape:snap-nodes="false" />
  <defs
     id="defs4">
    <radialGradient
       gradientUnits="userSpaceOnUse"
       r="216"
       fy="256"
       fx="255.99385"
       cy="256"
       cx="255.99385"
       id="radialGradient21898"
       xlink:href="#linearGradient3853"
       inkscape:collect="always" />
    <linearGradient
       y2="48.0854"
       x2="78.466103"
       y1="56.3008"
       x1="64.477501"
       gradientUnits="userSpaceOnUse"
       id="linearGradient3853">
      <stop
         id="stop3857"
         style="stop-color:#d8222c;stop-opacity:1;"
         offset="0" />
      <stop
         id="stop3859"
         style="stop-color:#dc2831;stop-opacity:1;"
         offset="1" />
    </linearGradient>
    <radialGradient
       gradientTransform="matrix(0.97737557,0,0,0.97737557,5.797851,546.154)"
       r="216"
       fy="256"
       fx="255.99385"
       cy="256"
       cx="255.99385"
       gradientUnits="userSpaceOnUse"
       id="radialGradient3010"
       xlink:href="#linearGradient3853"
       inkscape:collect="always" />
    <radialGradient
       r="216"
       fy="256"
       fx="255.99385"
       cy="256"
       cx="255.99385"
       gradientTransform="translate(0.00614246,540.36218)"
       gradientUnits="userSpaceOnUse"
       id="radialGradient8001"
       xlink:href="#linearGradient3853"
       inkscape:collect="always" />
    <radialGradient
       inkscape:collect="always"
       xlink:href="#linearGradient3853"
       id="radialGradient8593"
       gradientUnits="userSpaceOnUse"
       gradientTransform="translate(0.00614246,540.36218)"
       cx="255.99385"
       cy="256"
       fx="255.99385"
       fy="256"
       r="216" />
    <radialGradient
       inkscape:collect="always"
       xlink:href="#linearGradient3853"
       id="radialGradient3861"
       gradientUnits="userSpaceOnUse"
       gradientTransform="matrix(1.0925925,0,0,1.0925917,-23.696989,516.65811)"
       cx="255.99385"
       cy="256"
       fx="255.99385"
       fy="256"
       r="216" />
    <linearGradient
       inkscape:collect="always"
       xlink:href="#ButtonShadow-0-1-1-5"
       id="linearGradient4114-2"
       gradientUnits="userSpaceOnUse"
       gradientTransform="matrix(1.0317796,0,0,1.0317796,-830.86406,592.67791)"
       x1="1012.5133"
       y1="484.41721"
       x2="1006.8082"
       y2="20.625916" />
    <linearGradient
       x1="45.447727"
       y1="92.539597"
       x2="45.447727"
       y2="7.0165396"
       id="ButtonShadow-0-1-1-5"
       gradientUnits="userSpaceOnUse"
       gradientTransform="matrix(1.0058652,0,0,0.994169,100,0)">
      <stop
         id="stop3750-8-9-3-6"
         style="stop-color:#000000;stop-opacity:1"
         offset="0" />
      <stop
         id="stop3752-5-6-4-2"
         style="stop-color:#000000;stop-opacity:0.58823532"
         offset="1" />
    </linearGradient>
    <linearGradient
       inkscape:collect="always"
       xlink:href="#ButtonShadow-0-1-1-5"
       id="linearGradient4112-2"
       gradientUnits="userSpaceOnUse"
       gradientTransform="matrix(1.0402541,0,0,1.0402541,-837.95116,592.51825)"
       x1="1012.5133"
       y1="484.41721"
       x2="1006.8082"
       y2="20.625916" />
    <linearGradient
       x1="45.447727"
       y1="92.539597"
       x2="45.447727"
       y2="7.0165396"
       id="linearGradient5292"
       gradientUnits="userSpaceOnUse"
       gradientTransform="matrix(1.0058652,0,0,0.994169,100,0)">
      <stop
         id="stop5294"
         style="stop-color:#000000;stop-opacity:1"
         offset="0" />
      <stop
         id="stop5296"
         style="stop-color:#000000;stop-opacity:0.58823532"
         offset="1" />
    </linearGradient>
    <linearGradient
       inkscape:collect="always"
       xlink:href="#ButtonShadow-0-1-1-5"
       id="linearGradient4110-6"
       gradientUnits="userSpaceOnUse"
       gradientTransform="matrix(1.023305,0,0,1.023305,-823.77704,592.83757)"
       x1="1012.5133"
       y1="484.41721"
       x2="1006.8082"
       y2="20.625916" />
    <linearGradient
       x1="45.447727"
       y1="92.539597"
       x2="45.447727"
       y2="7.0165396"
       id="linearGradient5299"
       gradientUnits="userSpaceOnUse"
       gradientTransform="matrix(1.0058652,0,0,0.994169,100,0)">
      <stop
         id="stop5301"
         style="stop-color:#000000;stop-opacity:1"
         offset="0" />
      <stop
         id="stop5303"
         style="stop-color:#000000;stop-opacity:0.58823532"
         offset="1" />
    </linearGradient>
    <linearGradient
       inkscape:collect="always"
       xlink:href="#ButtonShadow-0-1-1-5"
       id="linearGradient4116-6"
       gradientUnits="userSpaceOnUse"
       gradientTransform="matrix(1.0148305,0,0,1.0148305,-816.68996,592.99723)"
       x1="1012.5133"
       y1="484.41721"
       x2="1006.8082"
       y2="20.625916" />
    <linearGradient
       x1="45.447727"
       y1="92.539597"
       x2="45.447727"
       y2="7.0165396"
       id="linearGradient5306"
       gradientUnits="userSpaceOnUse"
       gradientTransform="matrix(1.0058652,0,0,0.994169,100,0)">
      <stop
         id="stop5308"
         style="stop-color:#000000;stop-opacity:1"
         offset="0" />
      <stop
         id="stop5310"
         style="stop-color:#000000;stop-opacity:0.58823532"
         offset="1" />
    </linearGradient>
    <linearGradient
       y2="20.625916"
       x2="1006.8082"
       y1="484.41721"
       x1="1012.5133"
       gradientTransform="matrix(1.0074153,0,0,1.0074153,-810.48879,593.1369)"
       gradientUnits="userSpaceOnUse"
       id="linearGradient3372"
       xlink:href="#ButtonShadow-0-1-1-5"
       inkscape:collect="always" />
    <linearGradient
       x1="45.447727"
       y1="92.539597"
       x2="45.447727"
       y2="7.0165396"
       id="linearGradient5313"
       gradientUnits="userSpaceOnUse"
       gradientTransform="matrix(1.0058652,0,0,0.994169,100,0)">
      <stop
         id="stop5315"
         style="stop-color:#000000;stop-opacity:1"
         offset="0" />
      <stop
         id="stop5317"
         style="stop-color:#000000;stop-opacity:0.58823532"
         offset="1" />
    </linearGradient>
    <linearGradient
       inkscape:collect="always"
       xlink:href="#linearGradient4487"
       id="linearGradient4082"
       gradientUnits="userSpaceOnUse"
       gradientTransform="translate(-146.22032,369.08845)"
       x1="1016.1035"
       y1="476.25983"
       x2="1011.9534"
       y2="251.66064" />
    <linearGradient
       id="linearGradient4487">
      <stop
         id="stop4489"
         style="stop-color:#000000;stop-opacity:1"
         offset="0" />
      <stop
         id="stop4491"
         style="stop-color:#000000;stop-opacity:0"
         offset="1" />
    </linearGradient>
    <linearGradient
       inkscape:collect="always"
       xlink:href="#linearGradient3737"
       id="linearGradient4084"
       gradientUnits="userSpaceOnUse"
       gradientTransform="translate(778.59979,-360.55963)"
       x1="993.43896"
       y1="51.511765"
       x2="988.78552"
       y2="363.73825" />
    <linearGradient
       id="linearGradient3737">
      <stop
         id="stop3739"
         style="stop-color:#ffffff;stop-opacity:1"
         offset="0" />
      <stop
         id="stop3741"
         style="stop-color:#ffffff;stop-opacity:0"
         offset="1" />
    </linearGradient>
    <linearGradient
       inkscape:collect="always"
       xlink:href="#linearGradient4046"
       id="linearGradient4086"
       gradientUnits="userSpaceOnUse"
       x1="1764.6487"
       y1="155.59685"
       x2="1763.6903"
       y2="-55.941216" />
    <linearGradient
       id="linearGradient4046">
      <stop
         id="stop4048"
         style="stop-color:#000000;stop-opacity:1;"
         offset="0" />
      <stop
         id="stop4050"
         style="stop-color:#ffffff;stop-opacity:0.2"
         offset="1" />
    </linearGradient>
    <linearGradient
       y2="20.625916"
       x2="1006.8082"
       y1="484.41721"
       x1="1012.5133"
       gradientTransform="matrix(1.0074153,0,0,1.0074153,-810.48879,593.1369)"
       gradientUnits="userSpaceOnUse"
       id="linearGradient5342"
       xlink:href="#ButtonShadow-0-1-1-5"
       inkscape:collect="always" />
    <linearGradient
       inkscape:collect="always"
       xlink:href="#ButtonShadow-0-1-1-5"
       id="linearGradient3726"
       gradientUnits="userSpaceOnUse"
       gradientTransform="matrix(1.0317796,0,0,1.0317796,-830.86406,592.67791)"
       x1="1012.5133"
       y1="484.41721"
       x2="1006.8082"
       y2="20.625916" />
    <linearGradient
       inkscape:collect="always"
       xlink:href="#ButtonShadow-0-1-1-5"
       id="linearGradient3728"
       gradientUnits="userSpaceOnUse"
       gradientTransform="matrix(1.0402541,0,0,1.0402541,-837.95116,592.51825)"
       x1="1012.5133"
       y1="484.41721"
       x2="1006.8082"
       y2="20.625916" />
    <linearGradient
       inkscape:collect="always"
       xlink:href="#ButtonShadow-0-1-1-5"
       id="linearGradient3730"
       gradientUnits="userSpaceOnUse"
       gradientTransform="matrix(1.023305,0,0,1.023305,-823.77704,592.83757)"
       x1="1012.5133"
       y1="484.41721"
       x2="1006.8082"
       y2="20.625916" />
    <linearGradient
       inkscape:collect="always"
       xlink:href="#ButtonShadow-0-1-1-5"
       id="linearGradient3732"
       gradientUnits="userSpaceOnUse"
       gradientTransform="matrix(1.0148305,0,0,1.0148305,-816.68996,592.99723)"
       x1="1012.5133"
       y1="484.41721"
       x2="1006.8082"
       y2="20.625916" />
    <linearGradient
       inkscape:collect="always"
       xlink:href="#ButtonShadow-0-1-1-5"
       id="linearGradient3734"
       gradientUnits="userSpaceOnUse"
       gradientTransform="matrix(1.0074153,0,0,1.0074153,-810.48879,593.1369)"
       x1="1012.5133"
       y1="484.41721"
       x2="1006.8082"
       y2="20.625916" />
    <linearGradient
       inkscape:collect="always"
       xlink:href="#linearGradient4487"
       id="linearGradient3736"
       gradientUnits="userSpaceOnUse"
       gradientTransform="translate(-146.22032,369.08845)"
       x1="1016.1035"
       y1="476.25983"
       x2="1011.9534"
       y2="251.66064" />
    <linearGradient
       inkscape:collect="always"
       xlink:href="#linearGradient3737"
       id="linearGradient3738"
       gradientUnits="userSpaceOnUse"
       gradientTransform="translate(778.59979,-360.55963)"
       x1="993.43896"
       y1="51.511765"
       x2="988.78552"
       y2="363.73825" />
    <linearGradient
       inkscape:collect="always"
       xlink:href="#linearGradient4046"
       id="linearGradient3740"
       gradientUnits="userSpaceOnUse"
       x1="1764.6487"
       y1="155.59685"
       x2="1763.6903"
       y2="-55.941216" />
  </defs>
  <metadata
     id="metadata7">
    <rdf:RDF>
      <cc:Work
         rdf:about="">
        <dc:format>image/svg+xml</dc:format>
        <dc:type
           rdf:resource="http://purl.org/dc/dcmitype/StillImage" />
        <dc:title />
      </cc:Work>
    </rdf:RDF>
  </metadata>
  <g
     inkscape:label="Livello 1"
     inkscape:groupmode="layer"
     id="layer1"
     transform="translate(0,-540.36218)">
    <path
       id="path3062"
       style="fill:#000000"
       d="m -154.63092,655.95918 c -6.52952,-15.1196 -16.00932,-28.8314 -29.15329,-42.1679 -12.32904,-12.5097 -23.59101,-21.0264 -35.71431,-27.0087 -9.13643,-4.5083 -16.43816,-6.4411 -23.34669,-6.1799 -8.70073,0.3289 -14.96349,3.8719 -19.03725,10.7699 -3.30323,5.5932 -2.86584,10.4984 1.56149,17.5119 3.83559,6.0762 8.3783,10.4513 15.53384,14.9607 4.40508,2.776 10.64831,6.412 20.7584,12.0895 7.45155,4.1845 22.52842,12.7964 22.73738,12.9876 0.13778,0.1261 0.11706,0.2784 -0.10671,0.7843 -0.15273,0.3453 -0.32979,0.6278 -0.39347,0.6278 -0.0637,0 -0.73904,-0.1473 -1.50078,-0.3273 -0.76176,-0.18 -2.77096,-0.5732 -4.46489,-0.8739 -10.34093,-1.8353 -17.8981,-4.2316 -25.78021,-8.1747 -5.19315,-2.5979 -8.49871,-4.7452 -19.687,-12.7888 -8.87318,-6.3791 -10.17767,-7.2476 -11.68404,-7.7791 -1.00582,-0.3549 -10.47287,-1.8967 -15.50277,-2.5249 -12.15959,-1.5185 -21.18067,-1.2379 -30.13317,0.9375 -5.57526,1.3547 -9.00996,2.7221 -12.1993,4.8566 -5.67917,3.8009 -9.54078,11.0617 -8.23922,15.4918 0.46082,1.5685 1.62057,3.3394 3.29551,5.032 2.72814,2.7569 5.70164,4.2129 11.98689,5.8696 10.41855,2.746 19.98804,3.9956 35.02144,4.573 2.09927,0.081 8.54777,0.1642 14.32999,0.1857 45.35731,-1.74216 95.49856,25.05732 111.71816,1.1473 z m -154.90913,6.4176 c -5.25777,-1.1083 -12.77488,-3.0168 -15.25152,-3.8722 -1.48087,-0.5115 -3.40265,-1.3843 -4.50244,-2.0449 -1.34401,-0.8073 -4.76077,-3.3741 -5.74292,-4.3142 -1.76143,-1.6862 -4.80337,-5.8779 -5.37613,-7.4082 -0.15734,-0.4204 -0.5907,-2.03 -0.96301,-3.5768 -0.91624,-3.8067 -0.91568,-4.24 0.0105,-8.1695 0.81447,-3.4556 1.06698,-4.2719 1.82274,-5.8927 0.75727,-1.6239 1.4088,-2.6577 3.31151,-5.2541 1.88954,-2.5785 3.25089,-3.9869 5.42268,-5.61 6.027,-4.5045 8.91823,-5.6915 20.17135,-8.2815 4.83513,-1.1128 8.25756,-1.5819 13.28447,-1.8208 5.91436,-0.2811 13.82283,0.3009 22.46595,1.6532 1.08647,0.17 1.97539,0.2986 1.97539,0.2858 0,-0.013 -0.0823,-0.2568 -0.18294,-0.5423 -0.10062,-0.2855 -0.53491,-1.9956 -0.9651,-3.8002 -0.75968,-3.1869 -0.78217,-3.335 -0.78277,-5.1561 0,-1.7998 0.0276,-1.9931 0.70289,-4.8213 0.38693,-1.6205 0.82972,-3.3381 0.98398,-3.8169 0.61109,-1.8966 1.6761,-3.7916 3.72858,-6.6341 2.59107,-3.5884 3.79634,-4.8297 6.79312,-6.9962 4.48404,-3.2418 5.85364,-3.8623 11.48509,-5.2032 4.14444,-0.9868 5.76814,-1.25 8.30336,-1.3459 3.76948,-0.1425 6.34486,0.1955 12.32111,1.6173 4.19518,0.998 6.08058,1.5535 8.7721,2.5845 7.5272,2.8835 15.0242,7.0683 23.3903,13.0565 6.92115,4.9538 11.28276,8.5627 17.91464,14.8227 8.80563,8.3118 15.79578,16.5315 23.47685,27.6063 4.47759,6.456 8.8709,14.3548 12.02745,21.6245 2.03088,4.6772 2.45924,5.4074 4.17782,7.1213 -43.4248,37.91113 -82.04291,7.01486 -168.77505,4.189 z"
       inkscape:connector-curvature="0"
       sodipodi:nodetypes="cssssssscssscssscssssccccccsccsscccsssscscscscsccccssscc" />
    <path
       inkscape:connector-curvature="0"
       d="m -370.90031,1082.9482 c 14.90101,-0.5072 28.99031,-2.2759 43.32479,-5.4388 22.69261,-5.0071 41.84843,-12.7246 59.2506,-23.8709 2.6736,-1.7124 3.5757,-2.4209 5.88478,-4.6214 1.57822,-1.504 1.94848,-1.7848 3.14544,-2.3854 2.81337,-1.4118 8.44673,-6.0576 13.6907,-11.2905 6.20416,-6.1912 11.08333,-12.2683 17.1528,-21.3642 5.81036,-8.7076 9.82885,-16.95065 11.58869,-23.77165 0.15204,-0.5893 1.1058,-3.3314 2.11949,-6.0936 2.76215,-7.5267 3.48307,-9.8462 4.54227,-14.6143 0.61168,-2.7536 1.51179,-7.7999 2.35006,-13.1752 0.41352,-2.6517 0.9632,-6.1472 1.22149,-7.7677 0.3229,-2.0259 0.50942,-3.7622 0.59704,-5.5579 0.0701,-1.4363 0.2169,-4.1784 0.32629,-6.0935 0.64106,-11.2242 0.57153,-15.4325 -0.40823,-24.7092 -2.53208,-23.9748 -9.2877,-45.4798 -21.01475,-66.8957 -18.1724,-33.1863 -44.63877,-60.0366 -78.48294,-79.6214 -7.37926,-4.2702 -8.47263,-4.9965 -10.70938,-7.1137 -2.91491,-2.7592 -4.47049,-5.1647 -6.74329,-10.4276 -6.52952,-15.1196 -16.00932,-28.8314 -29.15329,-42.1679 -12.32904,-12.5097 -23.59101,-21.0264 -35.71431,-27.0087 -9.13643,-4.5083 -16.43816,-6.4411 -23.34669,-6.1799 -8.70073,0.3289 -14.96349,3.8719 -19.03725,10.7699 -3.30323,5.5932 -2.86584,10.4984 1.56149,17.5119 3.83559,6.0762 8.3783,10.4513 15.53384,14.9607 4.40508,2.776 10.64831,6.412 20.7584,12.0895 7.45155,4.1845 22.52842,12.7964 22.73738,12.9876 0.13778,0.1261 0.11706,0.2784 -0.10671,0.7843 -0.15273,0.3453 -0.32979,0.6278 -0.39347,0.6278 -0.0637,0 -0.73904,-0.1473 -1.50078,-0.3273 -0.76176,-0.18 -2.77096,-0.5732 -4.46489,-0.8739 -10.34093,-1.8353 -17.8981,-4.2316 -25.78021,-8.1747 -5.19315,-2.5979 -8.49871,-4.7452 -19.687,-12.7888 -8.87318,-6.3791 -10.17767,-7.2476 -11.68404,-7.7791 -1.00582,-0.3549 -10.47287,-1.8967 -15.50277,-2.5249 -12.15959,-1.5185 -21.18067,-1.2379 -30.13317,0.9375 -5.57526,1.3547 -9.00996,2.7221 -12.1993,4.8566 -5.67917,3.8009 -9.54078,11.0617 -8.23922,15.4918 0.46082,1.5685 1.62057,3.3394 3.29551,5.032 2.72814,2.7569 5.70164,4.2129 11.98689,5.8696 10.41855,2.746 19.98804,3.9956 35.02144,4.573 2.09927,0.081 8.54777,0.1642 14.32999,0.1857 l 10.51313,0.039 0.80355,0.3437 c 0.44195,0.189 1.37147,0.6105 2.06559,0.9366 1.23876,0.582 1.25358,0.5945 0.80355,0.6748 -0.25217,0.045 -4.58673,0.6588 -9.63236,1.3639 -10.46353,1.4622 -17.68985,2.5301 -19.14741,2.8297 -2.373,0.4878 -4.83725,1.5781 -10.18221,4.5055 -20.8212,11.4033 -39.57077,27.3 -57.5322,48.7784 -17.85743,21.3541 -31.41153,44.8373 -40.69811,70.5116 -7.15087,19.7699 -10.94928,37.6604 -11.8541,55.833 -0.17126,3.4396 -0.16058,12.1859 0.0166,13.6072 0.0735,0.5893 0.1796,1.9754 0.23586,3.0803 0.0563,1.1049 0.17437,2.1897 0.26244,2.4107 0.0881,0.2209 0.79182,4.9337 1.56386,10.4728 1.38524,9.9385 2.05527,13.911 2.94333,17.4506 0.83425,3.3251 1.98747,6.2758 3.27136,8.3703 0.33334,0.5438 1.20787,2.5685 2.08252,4.8213 2.33413,6.0121 2.93748,7.27685 5.52613,11.58445 7.42872,12.3618 17.65377,23.3904 31.37139,33.837 3.45343,2.6299 10.89346,7.8776 13.21156,9.3185 31.82524,19.7826 69.0154,31.2487 111.94152,34.5126 9.85339,0.7493 18.03114,0.9599 26.3163,0.6779 z m -13.27465,10.8404 c -11.12483,-0.2966 -24.81012,-1.5708 -36.67944,-3.4149 -9.21411,-1.4317 -17.99389,-3.2636 -29.26265,-6.1061 -22.23294,-5.6078 -43.16907,-14.2875 -62.06657,-25.7317 -3.82894,-2.3188 -5.42733,-3.4071 -12.99849,-8.8504 -8.34587,-6.0002 -13.30863,-10.1644 -19.56336,-16.4154 -4.98172,-4.9787 -7.60448,-7.9902 -11.37912,-13.0656 -3.78502,-5.0893 -6.64304,-9.4157 -8.8919,-13.46 -1.36971,-2.4634 -1.97729,-3.8241 -3.83324,-8.58515 -1.02801,-2.6371 -1.74186,-4.2489 -2.33558,-5.2733 -1.58591,-2.7364 -2.36101,-4.8896 -3.61662,-10.0466 -2.14203,-8.7978 -3.21728,-15.0447 -4.62189,-26.852 -0.22344,-1.8783 -0.47004,-3.626 -0.548,-3.8838 -0.078,-0.2578 -0.19442,-1.2221 -0.2588,-2.1428 -0.0644,-0.9208 -0.1785,-2.3973 -0.25361,-3.2812 -0.17712,-2.0844 -0.18124,-10.3736 -0.007,-13.8751 0.6144,-12.3397 2.38563,-23.336 6.24285,-38.7575 5.67281,-22.6804 15.50527,-45.6622 28.2632,-66.0608 5.87609,-9.3953 13.94745,-20.4999 21.19479,-29.16 14.56565,-17.405 28.73165,-30.3245 46.34806,-42.2699 1.14171,-0.7742 2.10598,-1.4591 2.1428,-1.5219 0.0368,-0.063 -0.7165,-0.2795 -1.67406,-0.4813 -5.25777,-1.1083 -12.77488,-3.0168 -15.25152,-3.8722 -1.48087,-0.5115 -3.40265,-1.3843 -4.50244,-2.0449 -1.34401,-0.8073 -4.76077,-3.3741 -5.74292,-4.3142 -1.76143,-1.6862 -4.80337,-5.8779 -5.37613,-7.4082 -0.15734,-0.4204 -0.5907,-2.03 -0.96301,-3.5768 -0.91624,-3.8067 -0.91568,-4.24 0.0105,-8.1695 0.81447,-3.4556 1.06698,-4.2719 1.82274,-5.8927 0.75727,-1.6239 1.4088,-2.6577 3.31151,-5.2541 1.88954,-2.5785 3.25089,-3.9869 5.42268,-5.61 6.027,-4.5045 8.91823,-5.6915 20.17135,-8.2815 4.83513,-1.1128 8.25756,-1.5819 13.28447,-1.8208 5.91436,-0.2811 13.82283,0.3009 22.46595,1.6532 1.08647,0.17 1.97539,0.2986 1.97539,0.2858 0,-0.013 -0.0823,-0.2568 -0.18294,-0.5423 -0.10062,-0.2855 -0.53491,-1.9956 -0.9651,-3.8002 -0.75968,-3.1869 -0.78217,-3.335 -0.78277,-5.1561 0,-1.7998 0.0276,-1.9931 0.70289,-4.8213 0.38693,-1.6205 0.82972,-3.3381 0.98398,-3.8169 0.61109,-1.8966 1.6761,-3.7916 3.72858,-6.6341 2.59107,-3.5884 3.79634,-4.8297 6.79312,-6.9962 4.48404,-3.2418 5.85364,-3.8623 11.48509,-5.2032 4.14444,-0.9868 5.76814,-1.25 8.30336,-1.3459 3.76948,-0.1425 6.34486,0.1955 12.32111,1.6173 4.19518,0.998 6.08058,1.5535 8.7721,2.5845 7.5272,2.8835 15.0242,7.0683 23.3903,13.0565 6.92115,4.9538 11.28276,8.5627 17.91464,14.8227 8.80563,8.3118 15.79578,16.5315 23.47685,27.6063 4.47759,6.456 8.8709,14.3548 12.02745,21.6245 2.03088,4.6772 2.45924,5.4074 4.17782,7.1213 1.67073,1.6662 2.2242,2.0552 5.93038,4.1679 14.81577,8.4459 29.2456,18.7185 40.97912,29.1732 6.31406,5.6259 13.69256,13.1518 19.22345,19.6075 7.32941,8.5549 15.70686,20.2404 21.6583,30.2105 9.29138,15.5653 15.76404,30.619 19.97725,46.4617 3.61857,13.6066 5.80042,26.0011 6.69541,38.0347 0.43095,5.7942 0.40649,9.6283 -0.12001,18.8165 -0.10763,1.8783 -0.25696,4.676 -0.33184,6.2171 -0.11015,2.2668 -0.27696,3.6994 -0.87323,7.4998 -2.34622,14.9537 -2.79949,17.3747 -4.69097,25.0544 -1.11062,4.5093 -1.77285,6.5947 -4.14657,13.0577 -0.90627,2.4676 -1.80758,4.9988 -2.00293,5.6249 -1.82423,5.84715 -3.07733,9.09155 -4.97107,12.87075 -3.10357,6.1935 -7.85601,13.5403 -14.5885,22.5524 -5.78881,7.7489 -11.85994,14.2286 -18.51803,19.7644 -3.1759,2.6406 -7.56751,5.8921 -8.80197,6.5169 -0.36998,0.1873 -1.26989,0.9081 -1.99981,1.6017 -3.7857,3.5979 -13.276,9.518 -23.11422,14.4188 -12.30264,6.1284 -24.65934,10.5561 -39.64185,14.2046 -20.30716,4.9451 -35.47573,7.0747 -53.97185,7.5777 -5.15867,0.1402 -6.10546,0.1395 -11.66754,-0.01 z"
       style="fill:#000000"
       id="path3915" />
    <path
       sodipodi:nodetypes="ccsscccssccsscccssccccccccscccccsccsscccsccccccccccccscsccccccsccsccsccsccsccsccsccsccsccsccsccsccsccscscccccccccccccssccccssscccc"
       inkscape:connector-curvature="0"
       id="path8574"
       transform="translate(0,540.36218)"
       d="m 382.59375,149 c -0.029,-0.007 -0.0345,0.0203 -0.0625,0.0312 -0.15221,0.0589 -3.01954,1.11629 -6.375,2.375 -18.39735,6.90112 -39.22465,15.30527 -71.5,28.8125 -19.71362,8.25016 -31.4556,13.1191 -40.53125,16.84375 l -8.28125,3.40625 -3.5,-1.1875 c -2.10838,-0.71809 -8.83161,-3.44935 -17.125,-6.9375 -7.51433,-3.16043 -25.32123,-10.65184 -39.59375,-16.65625 -40.00856,-16.83126 -55.37501,-23.24173 -57.0625,-23.8125 -2.39424,-0.80971 -9.38478,-2.7786 -9.53125,-2.6875 -0.22048,0.13628 -2.51239,4.86953 -3.34375,6.90625 -3.82322,9.36642 -6.66084,21.98795 -7.125,31.6875 -0.14574,3.04545 -0.003,8.00991 0.25,8.25 l 32.7734,32.68175 c -0.86111,3.60686 -1.00233,5.10089 -1,9.5625 0.003,4.73813 0.26593,6.77267 1.375,10.625 1.82891,6.35282 5.79171,13.26275 10.46875,18.59375 0.3083,0.3514 0.62327,0.69435 0.9375,1.03125 0.18528,0.2032 0.37525,0.39585 0.5625,0.59375 0.15978,0.1649 0.30775,0.3392 0.46875,0.5 0.24052,0.24614 0.47557,0.48206 0.71875,0.71875 0.0532,0.0531 0.10296,0.10362 0.15625,0.15625 0.0214,0.0206 0.041,0.0419 0.0625,0.0625 0.0408,0.0411 0.0841,0.0842 0.125,0.125 0,0 28.21234,28.18138 28.21375,28.1821 -1.64865,1.86426 -3.19097,3.71361 -4.53125,5.5 -4.88855,6.51577 -7.54019,11.5336 -8.25,15.5625 -0.25042,1.42129 -0.21333,4.89064 0.0625,6.34375 l 0.21875,1.125 13.2473,13.15505 c -0.74718,-0.11663 -0.89784,-0.20973 -1.09375,-0.4375 -0.15088,-0.1754 -0.28432,-0.23585 -0.375,-0.1875 -0.15113,0.0806 -0.19936,0.41273 -0.0937,0.6875 0.77263,1.25333 1.03975,1.23226 1.28125,2.15625 0.75409,2.89981 1.01584,3.53948 2.65625,6.375 3.63895,6.2901 7.95874,12.17282 12.9375,17.71875 0.9761,1.08729 1.97098,2.15879 3,3.21875 0.12285,0.12898 0.25137,0.24642 0.375,0.375 0.12276,0.12887 0.25147,0.24652 0.375,0.375 0.2594,0.26233 0.51854,0.5206 0.78125,0.78125 0.53335,0.52918 1.04672,1.07142 1.59375,1.59375 0.0316,0.0304 0.0621,0.0633 0.0937,0.0937 0.0958,0.0929 0.18505,0.18854 0.28125,0.28125 0.0316,0.0304 0.0621,0.0634 0.0937,0.0937 0.0957,0.0928 0.18514,0.18863 0.28125,0.28125 0.13254,0.12894 0.27288,0.24647 0.40625,0.375 0.0212,0.0202 0.0413,0.0423 0.0625,0.0625 0.1379,0.1339 0.26746,0.2728 0.40625,0.40625 l 347.671,347.69925 c 9.70301,9.4251 21.59614,17.7801 35.875,25.15625 1.93766,1.0009 3.55479,1.84215 3.59375,1.84375 0.039,0 1.69429,-0.849 3.6875,-1.875 13.96514,-7.1879 25.34981,-15.256 34.84375,-24.75 6.56578,-6.5657 11.56247,-12.96905 16.21875,-20.71875 1.38253,-2.3011 4.03125,-7.29115 4.03125,-7.59375 0,-0.047 -0.15216,-0.11971 -0.40625,-0.1875 0.008,-0.0257 0.0621,-0.14392 0.0625,-0.15625 0,-0.0484 -0.17023,-0.11767 -0.4375,-0.1875 0.008,-0.0257 0.0621,-0.14394 0.0625,-0.15625 -0.0234,-0.0473 -0.15998,-0.12315 -0.40625,-0.1875 0.006,-0.0195 0.0622,-0.11479 0.0625,-0.125 0.004,-0.01 0,-0.0293 0,-0.0312 0,-0.047 -0.15314,-0.12 -0.40625,-0.1875 0.006,-0.0194 0.0622,-0.1148 0.0625,-0.125 0.006,-0.01 0,-0.0293 0,-0.0312 0,-0.0485 -0.17062,-0.11783 -0.4375,-0.1875 0.006,-0.0194 0.0622,-0.11482 0.0625,-0.125 0.007,-0.012 0.0312,-0.0293 0.0312,-0.0312 0,-0.0479 -0.1713,-0.11786 -0.4375,-0.1875 0.006,-0.0194 0.0622,-0.11482 0.0625,-0.125 0.008,-0.014 0.0312,-0.0605 0.0312,-0.0625 0,-0.0479 -0.17173,-0.0867 -0.4375,-0.15625 0.006,-0.0194 0.0622,-0.11483 0.0625,-0.125 0.01,-0.017 0.0312,-0.0595 0.0312,-0.0625 0,-0.0465 -0.15416,-0.12019 -0.40625,-0.1875 0.003,-0.0122 0.031,-0.0864 0.0312,-0.0937 0.0111,-0.019 0.0312,-0.0605 0.0312,-0.0625 0,-0.0493 -0.18956,-0.11593 -0.46875,-0.1875 0.006,-0.0193 0.0622,-0.11485 0.0625,-0.125 0.0125,-0.021 0.0312,-0.0595 0.0312,-0.0625 0,-0.0465 -0.15466,-0.12035 -0.40625,-0.1875 0.003,-0.0118 0.031,-0.0866 0.0312,-0.0937 0.0138,-0.024 0.0312,-0.0585 0.0312,-0.0625 0,-0.0465 -0.15492,-0.12041 -0.40625,-0.1875 0.002,-0.008 0.0311,-0.0573 0.0312,-0.0625 0.0152,-0.026 0.0312,-0.0897 0.0312,-0.0937 0,-0.0479 -0.1729,-0.11835 -0.4375,-0.1875 0.002,-0.008 0.0311,-0.0573 0.0312,-0.0625 0.0166,-0.028 0.0625,-0.0897 0.0625,-0.0937 0,-0.0479 -0.17317,-0.11842 -0.4375,-0.1875 0.002,-0.008 0.0311,-0.0573 0.0312,-0.0625 0.018,-0.03 0.0625,-0.1206 0.0625,-0.125 0,-0.0479 -0.17344,-0.0873 -0.4375,-0.15625 0.002,-0.008 0.0311,-0.0573 0.0312,-0.0625 0.0194,-0.033 0.0312,-0.1202 0.0312,-0.125 0,-0.0465 -0.15593,-0.12074 -0.40625,-0.1875 3e-4,-0.003 -7e-5,-0.0291 0,-0.0312 0.0207,-0.035 0.0625,-0.1199 0.0625,-0.125 0,-0.0465 -0.15619,-0.12082 -0.40625,-0.1875 7.85697,-2.07595 15.73048,-4.45542 17.9375,-5.5625 1.51504,-0.7599 2.8567,-2.06315 3.375,-3.21875 0.61275,-1.3662 0.55574,-3.8312 -0.15625,-6.5 -1.59055,-5.9617 -4.22752,-11.5818 -8.5,-18.0625 -3.32108,-5.03765 -7.30447,-10.00585 -11.84375,-14.8125 -0.11008,-0.11743 -0.233,-0.22651 -0.34375,-0.34375 -0.24498,-0.26133 -0.50169,-0.52089 -0.75,-0.78125 -10.13723,-10.13786 -21.43184,-21.55203 -31.12385,-30.9055 -0.2193,-0.21848 -0.43442,-0.43864 -0.65625,-0.65625 -0.11417,-0.11285 -0.22891,-0.23113 -0.34375,-0.34375 -0.10366,-0.10247 -0.20828,-0.21022 -0.3125,-0.3125 -0.10355,-0.10236 -0.20839,-0.21034 -0.3125,-0.3125 7.4078,3.56103 15.18721,8.63047 24.75,16 1.39191,1.07264 2.3904,1.86337 3.25,2.5625 l 11.24705,11.2168 c 0.0802,0 2.90372,-0.9193 6.28125,-2.0625 7.44476,-2.52 9.31971,-3.27275 12.65625,-4.90625 7.53916,-3.6912 13.23473,-9.09475 17.59375,-16.71875 2.56856,-4.4924 4.38323,-9.78645 5.125,-14.96875 0.3768,-2.6325 0.35585,-7.5753 -0.0312,-9.8125 -2.95963,-12.47419 -2.69173,-21.41683 -9.90625,-28.5937 -0.23415,-0.24067 -0.4875,-0.50634 -0.6875,-0.7186 l 37.59375,-9.46875 c 5.08655,-1.6739 10.90625,-4.1072 10.90625,-4.5625 0,-0.5945 -0.56438,-6.1461 -0.875,-8.625 -1.44919,-11.566 -4.56181,-23.8664 -8.9375,-35.375 -0.73003,-1.9201 -1.15625,-2.28125 -1.15625,-2.28125 0,0 -349.67019,-349.71657 -349.6698,-349.71585 -0.11632,-0.2149 -0.18373,-0.26391 -0.26395,-0.28386 z"
       style="fill:#000000;fill-opacity:0.39215686;display:none" />
    <g
       id="g13652">
      <g
         transform="translate(-11.985071,-51.755371)"
         id="g4103">
        <rect
           style="opacity:0.1;color:#000000;fill:url(#linearGradient3726);fill-opacity:1;fill-rule:nonzero;stroke:none;stroke-width:1.5;marker:none;visibility:visible;display:inline;overflow:visible;enable-background:accumulate"
           id="rect6187"
           width="487"
           height="487"
           x="31.985071"
           y="612.11719"
           ry="101.45834" />
        <rect
           ry="102.29167"
           y="612.11719"
           x="31.985071"
           height="491"
           width="491"
           id="rect6191"
           style="opacity:0.07999998;color:#000000;fill:url(#linearGradient3728);fill-opacity:1;fill-rule:nonzero;stroke:none;stroke-width:1.5;marker:none;visibility:visible;display:inline;overflow:visible;enable-background:accumulate" />
        <rect
           ry="100.62501"
           y="612.11719"
           x="31.985071"
           height="483"
           width="483"
           id="rect6183"
           style="opacity:0.2;color:#000000;fill:url(#linearGradient3730);fill-opacity:1;fill-rule:nonzero;stroke:none;stroke-width:1.5;marker:none;visibility:visible;display:inline;overflow:visible;enable-background:accumulate" />
        <rect
           style="opacity:0.25;color:#000000;fill:url(#linearGradient3732);fill-opacity:1;fill-rule:nonzero;stroke:none;stroke-width:1.5;marker:none;visibility:visible;display:inline;overflow:visible;enable-background:accumulate"
           id="rect6179"
           width="479"
           height="479"
           x="31.985071"
           y="612.11719"
           ry="99.791664" />
        <rect
           ry="99.0625"
           y="612.11719"
           x="31.985071"
           height="475.5"
           width="475.5"
           id="rect5574"
           style="opacity:0.25;color:#000000;fill:url(#linearGradient3734);fill-opacity:1;fill-rule:nonzero;stroke:none;stroke-width:1.5;marker:none;visibility:visible;display:inline;overflow:visible;enable-background:accumulate" />
      </g>
      <g
         id="g3619">
        <path
           inkscape:connector-curvature="0"
           style="opacity:0.85;color:#000000;fill:#f8f8f8;fill-opacity:1;fill-rule:nonzero;stroke:none;stroke-width:12;marker:none;visibility:visible;display:inline;overflow:visible;enable-background:accumulate"
           d="m 70.464117,1005.5587 c 1.107869,0.7623 2.173298,1.5722 3.311921,2.2877 2.443395,1.5354 4.941768,2.9589 7.511573,4.2679 2.569805,1.309 5.211688,2.5174 7.887152,3.5851 2.675464,1.0677 5.39992,1.9883 8.160301,2.7997 2.760376,0.8115 5.540616,1.5083 8.365156,2.0486 2.82455,0.5404 5.70205,0.9407 8.57003,1.1951 2.86797,0.2543 5.74766,0.354 8.63831,0.3072 2.89063,-0.047 5.77989,-0.2519 8.67245,-0.6145 22.91332,-0.1658 45.847,-0.1477 68.76504,-0.068 22.91805,0.08 45.8129,0.2356 68.7309,0.3073 22.91799,0.072 45.85191,0.086 68.76504,-0.1024 22.91312,-0.1888 45.82742,-0.5953 68.7309,-1.2974 2.84532,-0.4528 5.64577,-1.0614 8.3993,-1.8097 2.75353,-0.7482 5.44474,-1.6387 8.09201,-2.6631 2.64728,-1.0245 5.22403,-2.1673 7.75058,-3.4486 2.52655,-1.2812 5.01779,-2.6808 7.40914,-4.1996 1.14638,-0.7281 2.19907,-1.5765 3.31192,-2.3559 -2.03951,-88.11073 -84.23404,-159.04063 -185.53586,-159.04063 -101.20978,0 -183.352437,70.80228 -185.535863,158.80133 z"
           id="path3911" />
        <rect
           style="color:#000000;fill:url(#radialGradient3861);fill-opacity:1;fill-rule:nonzero;stroke:none;stroke-width:9.77375603;marker:none;visibility:visible;display:inline;overflow:visible;enable-background:accumulate"
           id="rect4121"
           width="471.99997"
           height="471.9996"
           x="20"
           y="560.36182"
           ry="98.333244" />
        <path
           inkscape:connector-curvature="0"
           id="path8044"
           d="m 255.99998,846.75737 c -101.82749,0 -185.571046,73.09599 -195.642344,166.75673 0.0055,0 -0.0055,0.03 0,0.035 16.236712,11.8359 36.256634,18.8131 57.975684,18.8131 l 275.33331,0 c 21.71906,0 41.73899,-6.9772 57.97569,-18.8131 -9.6e-4,-0.011 9.6e-4,-0.023 0,-0.034 -10.0713,-93.66174 -93.81484,-166.75773 -195.64234,-166.75773 z"
           style="opacity:0.85;color:#000000;fill:#e5caad;fill-opacity:1;fill-rule:nonzero;stroke:none;stroke-width:9.77400017;marker:none;visibility:visible;display:inline;overflow:visible;enable-background:accumulate" />
        <path
           inkscape:connector-curvature="0"
           style="fill:#000000;fill-opacity:0.23529412"
           d="m 394.31537,679.45427 c -0.0317,-0.008 -0.0377,0.0223 -0.0683,0.0341 -0.1663,0.0644 -3.29913,1.21965 -6.96528,2.5949 -20.10081,7.54011 -42.85656,16.72241 -78.12037,31.4803 -21.53895,9.01405 -34.36815,14.33381 -44.28414,18.40334 l -9.04803,3.72164 -3.82407,-1.29745 c -2.3036,-0.78458 -9.64935,-3.76873 -18.71064,-7.57986 -8.21011,-3.45305 -27.66579,-11.63811 -43.25984,-18.19847 -43.71305,-18.3897 -60.50232,-25.39373 -62.34606,-26.01735 -2.61593,-0.88467 -10.25375,-3.03587 -10.41377,-2.93634 -0.2409,0.1489 -2.74502,5.32041 -3.65336,7.54571 -4.17722,10.23367 -7.27759,24.02385 -7.78472,34.6215 -0.15923,3.32743 -0.003,8.75156 0.27315,9.01389 l 35.81654,35.71409 c -0.94084,3.94082 -1.09513,5.57319 -1.09259,10.4479 0.003,5.17685 0.29056,7.39976 1.50231,11.60879 1.99826,6.94103 6.32799,14.49077 11.43809,20.31537 0.33684,0.38394 0.68097,0.75865 1.0243,1.12674 0.20244,0.22202 0.40999,0.4325 0.61458,0.64873 0.17457,0.18017 0.33624,0.37061 0.51216,0.54629 0.26279,0.26894 0.5196,0.5267 0.7853,0.78531 0.0581,0.058 0.11249,0.11321 0.17071,0.17071 0.0234,0.0226 0.0448,0.0458 0.0683,0.0683 0.0446,0.0449 0.0919,0.092 0.13657,0.13657 0,0 30.83006,30.79664 30.8316,30.79743 -1.8013,2.03688 -3.48643,4.05746 -4.95081,6.00925 -5.34119,7.11908 -8.23835,12.60152 -9.01389,17.00346 -0.27361,1.55289 -0.23308,5.34348 0.0683,6.93113 l 0.239,1.22917 14.47685,14.3744 c -0.81636,-0.12742 -0.98097,-0.22915 -1.19502,-0.478 -0.16485,-0.19164 -0.31065,-0.25769 -0.40972,-0.20486 -0.16512,0.0881 -0.21788,0.45094 -0.10237,0.75115 0.84417,1.36938 1.13602,1.34636 1.39988,2.3559 0.82391,3.16832 1.1099,3.86721 2.90219,6.96527 3.97589,6.87252 8.69566,13.29993 14.13542,19.35937 1.06648,1.18796 2.15348,2.35867 3.27778,3.51678 0.13422,0.14091 0.27464,0.26923 0.40972,0.40971 0.13413,0.14081 0.27475,0.26935 0.40972,0.40972 0.28342,0.28663 0.56656,0.56881 0.85359,0.85359 0.58273,0.57818 1.14363,1.17063 1.74132,1.74132 0.0345,0.0332 0.0679,0.0693 0.10237,0.10238 0.10468,0.1015 0.20219,0.20599 0.3073,0.30729 0.0345,0.0332 0.0679,0.0693 0.10237,0.10237 0.10456,0.10139 0.20228,0.2061 0.30729,0.3073 0.14482,0.14088 0.29815,0.26929 0.44387,0.40972 0.0231,0.0221 0.0451,0.0462 0.0683,0.0683 0.15067,0.1463 0.29222,0.29806 0.44386,0.44387 l 106.18639,106.1864 73.54513,0 C 448.14334,1032.3614 492,988.50476 492,934.02814 l 0,-156.8552 c -37.003,-37.00784 -97.41156,-97.41157 -97.41145,-97.41137 -0.12709,-0.2348 -0.1855,-0.28549 -0.27315,-0.30729 z"
           id="path4550" />
        <path
           sodipodi:type="arc"
           style="color:#000000;fill:#000000;fill-opacity:1;fill-rule:nonzero;stroke:none;stroke-width:0;marker:none;visibility:visible;display:inline;overflow:visible;enable-background:accumulate"
           id="path3080-5"
           sodipodi:cx="301.42456"
           sodipodi:cy="242.54662"
           sodipodi:rx="22.208464"
           sodipodi:ry="19.192354"
           d="m 323.63302,242.54662 c 0,10.59964 -9.94306,19.19235 -22.20846,19.19235 -12.2654,0 -22.20846,-8.59271 -22.20846,-19.19235 0,-10.59965 9.94306,-19.19236 22.20846,-19.19236 12.2654,0 22.20846,8.59271 22.20846,19.19236 z"
           transform="matrix(0.90714693,0,0,1.0497057,-59.506761,521.51694)" />
        <path
           sodipodi:type="arc"
           style="color:#000000;fill:#000000;fill-opacity:1;fill-rule:nonzero;stroke:none;stroke-width:0;marker:none;visibility:visible;display:inline;overflow:visible;enable-background:accumulate"
           id="path3080"
           sodipodi:cx="301.42456"
           sodipodi:cy="242.54662"
           sodipodi:rx="22.208464"
           sodipodi:ry="19.192354"
           d="m 323.63302,242.54662 c 0,10.59964 -9.94306,19.19235 -22.20846,19.19235 -12.2654,0 -22.20846,-8.59271 -22.20846,-19.19235 0,-10.59965 9.94306,-19.19236 22.20846,-19.19236 12.2654,0 22.20846,8.59271 22.20846,19.19236 z"
           transform="matrix(0.86394947,0,0,0.99971971,30.040928,533.93515)" />
        <g
           transform="matrix(1.0925925,0,0,1.0925917,-23.703698,-73.737115)"
           id="g7989">
          <path
             inkscape:connector-curvature="0"
             id="path3060"
             d="m 135.46041,741.5374 c -9.07392,-2.76083 -16.55984,-5.07819 -16.63538,-5.14979 -0.25326,-0.24009 -0.41579,-5.20651 -0.27005,-8.25196 0.46416,-9.69955 3.30133,-22.31649 7.12455,-31.68291 0.83136,-2.03672 3.12492,-6.77511 3.3454,-6.91139 0.14647,-0.0911 7.13462,1.88799 9.52886,2.6977 1.68749,0.57077 17.04715,6.98132 57.05571,23.81258 14.27252,6.00441 32.09814,13.50287 39.61247,16.6633 8.29339,3.48815 15.02737,6.21126 17.13575,6.92935 l 3.47334,1.18299 8.29871,-3.40565 c 9.07565,-3.72465 20.80782,-8.60458 40.52144,-16.85474 32.27535,-13.50723 53.09414,-21.89213 71.49149,-28.79325 3.35546,-1.25871 6.22538,-2.33673 6.37759,-2.39563 0.22401,-0.0873 0.44863,0.34492 1.17866,2.265 4.37569,11.50862 7.47908,23.80232 8.92827,35.3683 0.31062,2.47891 0.87278,8.04151 0.87278,8.63602 0,0.45529 -5.82621,2.89416 -10.91276,4.56812 l -126.9896,33.85589 z"
             style="fill:#000000"
             sodipodi:nodetypes="ccssccsssccsscsssccc" />
          <path
             inkscape:connector-curvature="0"
             id="path3058"
             d="m 258.32132,937.98783 c 13.96514,-7.18792 25.33016,-15.26972 34.8241,-24.7637 6.56578,-6.56569 11.57935,-12.96135 16.23563,-20.71106 1.38253,-2.30106 4.03474,-7.29584 4.03474,-7.59842 0,-0.0937 -0.63801,-0.26447 -1.4178,-0.37816 l -1.41779,-0.2066 -18.64623,3.77752 c -32.4756,6.57916 -34.08387,6.86699 -37.20651,6.66039 -1.8402,-0.1219 -7.04898,-1.39511 -26.72337,-6.53296 -22.32273,-5.82938 -21.50829,-5.64139 -29.12926,-6.72289 -5.13423,-0.72848 -5.16417,-0.59504 -5.54539,-1.03826 -0.40236,-0.46773 -0.63362,0.0652 -0.46465,0.50484 0.77263,1.25333 1.04429,1.23794 1.28579,2.16193 0.75409,2.89981 1.02873,3.55758 2.66914,6.3931 11.36948,19.65266 29.12102,35.53127 54.21287,48.49313 1.93766,1.00091 3.5549,1.82127 3.59386,1.82281 0.039,0 1.70166,-0.8364 3.69487,-1.86233 z"
             style="fill:#f5bb19;fill-opacity:1"
             sodipodi:nodetypes="csssccscsccccscccc" />
          <path
             inkscape:connector-curvature="0"
             id="path3056"
             d="m 266.04706,887.52856 c 1.2162,-0.15951 3.49756,-0.55884 5.0697,-0.88722 5.30542,-1.10831 7.99098,-1.58258 14.45859,-2.55308 3.54451,-0.53176 7.79791,-1.23535 9.45201,-1.56347 9.36387,-1.85745 27.15211,-6.85582 30.65996,-8.61536 1.51504,-0.75992 2.87095,-2.03736 3.38925,-3.19302 0.61275,-1.36624 0.55203,-3.83437 -0.15996,-6.50319 -1.59055,-5.96168 -4.24454,-11.59409 -8.51702,-18.07483 -6.48797,-9.84135 -15.46452,-19.41283 -26.27279,-28.01408 -12.05721,-9.5951 -22.18907,-15.15026 -33.39046,-18.30735 -5.60213,-1.57899 -9.56769,-1.37124 -14.46324,0.75761 -8.55686,3.72093 -19.19411,10.01035 -27.89287,16.49211 -12.43115,9.26288 -22.72052,19.00542 -29.21753,27.66492 -4.88855,6.51577 -7.5476,11.52403 -8.25741,15.55293 -0.25042,1.42129 -0.21953,4.90547 0.0563,6.35858 l 0.21209,1.11703 3.52301,1.84296 c 8.63329,4.51601 20.12366,8.18138 38.07287,12.14471 29.1257,6.43121 27.86969,6.21909 36.25422,6.12503 3.23508,-0.0359 5.53655,-0.14911 7.02323,-0.34428 z"
             style="fill:#f5bb19;fill-opacity:1" />
          <path
             inkscape:connector-curvature="0"
             id="path3054"
             d="m 320.24985,825.38178 c 7.44476,-2.51998 9.33489,-3.24807 12.67143,-4.8816 7.53916,-3.69117 13.22598,-9.09927 17.585,-16.72322 2.56856,-4.4924 4.38178,-9.79169 5.12355,-14.97394 0.3768,-2.63252 0.3664,-7.56852 -0.0207,-9.80568 -1.12036,-10.48446 -1.83841,-20.94511 -9.85084,-28.58434 -0.34026,-0.30682 -0.94211,-0.16117 -25.41084,6.14621 -13.78429,3.55321 -25.16892,6.49934 -25.29918,6.54695 -0.16452,0.0603 0.022,0.36122 0.6107,0.98576 3.05384,3.23986 5.69327,7.45355 6.86084,10.95274 0.45101,1.35174 0.48753,1.65958 0.48923,4.12451 10e-4,2.58567 -0.0142,2.70603 -0.54901,4.10397 -1.95752,5.11796 -6.24497,8.6128 -11.63244,9.48192 -1.83048,0.29526 -4.83949,0.12703 -6.3693,-0.35648 -3.36991,-1.06468 -6.6744,-3.54103 -8.50538,-6.37385 -0.74812,-1.15746 -1.54812,-3.41707 -1.54812,-4.37255 0,-0.56962 0.025,-0.59284 0.64445,-0.59643 1.31297,-0.0128 2.82579,-1.09779 3.38543,-2.43965 0.85464,-2.04903 -0.52535,-4.83207 -2.58795,-5.21896 -0.48442,-0.0911 -0.56524,-0.16925 -0.49153,-0.47658 0.21073,-0.87875 1.05944,-5.1838 1.02967,-5.22293 -0.0518,-0.068 -16.24641,4.1988 -16.35759,4.30992 -0.0548,0.0552 -0.10971,2.98399 -0.12191,6.50923 -0.0192,5.56427 0.0189,6.61342 0.28922,7.95618 0.41518,2.06186 0.73182,3.14451 1.4407,4.92651 l 0.59252,1.48955 2.26476,0.71976 c 10.7945,3.43105 20.9769,9.27096 34.97969,20.06214 4.96817,3.82859 5.30375,4.13515 9.91475,9.05884 2.43656,2.60171 4.49577,4.73056 4.57601,4.73056 0.0802,0 2.90933,-0.93533 6.28686,-2.07854 z"
             style="fill:#f8f8f8;fill-opacity:1"
             sodipodi:nodetypes="csssccscccccccsscccccccccccccscc" />
          <path
             inkscape:connector-curvature="0"
             id="path3050"
             d="m 205.09396,818.42304 c 3.80062,-3.53718 4.96091,-4.50267 7.97444,-6.63562 11.53316,-8.16329 18.14107,-12.26457 25.15856,-15.61504 2.56917,-1.22662 7.12003,-3.07253 9.47094,-3.84143 l 1.39133,-0.45515 0.62085,-2.01401 c 1.35522,-4.39603 1.83732,-6.92023 1.96024,-10.26301 0.13969,-3.79882 -0.45201,-7.67707 -1.2209,-8.00237 -0.55979,-0.23675 -18.83916,-4.51165 -18.92497,-4.4258 -0.0417,0.0423 0.42584,1.23548 1.03898,2.65279 0.61313,1.4173 1.31971,3.34597 1.57014,4.2858 0.40239,1.51008 0.45536,2.02863 0.45536,4.45852 0,2.41424 -0.0543,2.95306 -0.445,4.41759 -1.66342,6.23501 -6.09135,10.65632 -12.30618,12.28779 -2.27118,0.59619 -5.41342,0.62596 -7.66678,0.0732 -1.85845,-0.45631 -4.59783,-1.73927 -6.02752,-2.82281 -1.3523,-1.02504 -3.43405,-3.20983 -4.36602,-4.58223 -1.53218,-2.25615 -2.65898,-5.26669 -2.86562,-7.65616 l -0.10419,-1.20443 0.75273,-0.20133 c 1.80593,-0.483 2.90272,-1.90699 2.89585,-3.75956 -0.005,-1.29194 -0.42356,-2.23125 -1.34733,-3.02197 l -0.71038,-0.60811 0.85075,-1.41551 c 1.24582,-2.07278 2.5487,-3.58145 5.24933,-6.07846 1.32327,-1.22341 2.42595,-2.27513 2.45037,-2.33724 0.0359,-0.0911 -51.00024,-13.60065 -51.36313,-13.5959 -0.26941,0 -2.94104,4.30184 -4.11316,6.61779 -1.92169,3.79677 -3.01373,7.49781 -3.34675,11.34232 -0.0654,0.75619 -0.29943,2.13026 -0.51983,3.05353 -0.86111,3.60686 -1.02175,5.11617 -1.01942,9.57778 0.003,4.73813 0.26393,6.75881 1.373,10.61114 2.38009,8.26736 8.36277,17.50085 14.85586,22.92832 7.36527,6.15648 16.83154,9.39608 29.99695,10.26584 4.09718,0.27063 3.16715,0.72386 8.28147,-4.03584 z"
             style="fill:#f8f8f8;fill-opacity:1" />
        </g>
      </g>
      <g
         transform="translate(-605.51932,186.39349)"
         id="g4076">
        <g
           id="g4038"
           transform="translate(-926.66758,684.38448)">
          <path
             id="rect6809-2"
             d="m 1650.4994,-310.41615 c -54.4767,0 -98.3125,43.83583 -98.3125,98.3125 l 0,275.343747 c 0,54.476673 43.8358,98.343753 98.3125,98.343753 l 2.9375,0 c -53.3225,0 -96.25,-42.9275 -96.25,-96.250003 l 0,-269.499997 c 0,-53.3225 42.9275,-96.25 96.25,-96.25 l 269.5001,0 c 53.3225,0 96.25,42.9275 96.25,96.25 l 0,269.499997 c 0,53.322503 -42.9275,96.250003 -96.25,96.250003 l 2.9062,0 c 54.4767,0 98.3438,-43.86708 98.3438,-98.343753 l 0,-275.343747 c 0,-54.47667 -43.8671,-98.3125 -98.3438,-98.3125 l -275.3438,0 z"
             style="opacity:0.5;color:#000000;fill:url(#linearGradient3738);fill-opacity:1;fill-rule:nonzero;stroke:none;stroke-width:1.5;marker:none;visibility:visible;display:inline;overflow:visible;enable-background:accumulate"
             inkscape:connector-curvature="0" />
          <path
             inkscape:connector-curvature="0"
             style="opacity:0.2;color:#000000;fill:url(#linearGradient3740);fill-opacity:1;fill-rule:nonzero;stroke:none;stroke-width:1.5;marker:none;visibility:visible;display:inline;overflow:visible;enable-background:accumulate"
             d="m 1650.4994,161.58385 c -54.4767,0 -98.3125,-43.83583 -98.3125,-98.312503 l 0,-275.343747 c 0,-54.47667 43.8358,-98.34375 98.3125,-98.34375 l 2.9375,0 c -53.3225,0 -96.25,42.9275 -96.25,96.25 l 0,269.499997 c 0,53.322503 42.9275,96.250003 96.25,96.250003 l 269.5001,0 c 53.3225,0 96.25,-42.9275 96.25,-96.250003 l 0,-269.499997 c 0,-53.3225 -42.9275,-96.25 -96.25,-96.25 l 2.9062,0 c 54.4767,0 98.3438,43.86708 98.3438,98.34375 l 0,275.343747 c 0,54.476673 -43.8671,98.312503 -98.3438,98.312503 l -275.3438,0 z"
             id="path3981" />
        </g>
      </g>
    </g>
  </g>
</svg>
