<?xml version="1.0" encoding="UTF-8" standalone="no"?>
<!-- Created with Inkscape (http://www.inkscape.org/) -->

<svg
   xmlns:dc="http://purl.org/dc/elements/1.1/"
   xmlns:cc="http://creativecommons.org/ns#"
   xmlns:rdf="http://www.w3.org/1999/02/22-rdf-syntax-ns#"
   xmlns:svg="http://www.w3.org/2000/svg"
   xmlns="http://www.w3.org/2000/svg"
   xmlns:xlink="http://www.w3.org/1999/xlink"
   xmlns:sodipodi="http://sodipodi.sourceforge.net/DTD/sodipodi-0.dtd"
   xmlns:inkscape="http://www.inkscape.org/namespaces/inkscape"
   inkscape:export-ydpi="100"
   inkscape:export-xdpi="100"
   inkscape:export-filename="/home/alecive/Scrivania/firefoxTest1.png"
   sodipodi:docname="plugin-decor.svg"
   inkscape:version="0.48.3.1 r9886"
   version="1.1"
   id="svg2"
   height="512"
   width="512">
  <sodipodi:namedview
     id="base"
     pagecolor="#ffffff"
     bordercolor="#666666"
     borderopacity="1.0"
     inkscape:pageopacity="0.0"
     inkscape:pageshadow="2"
     inkscape:zoom="0.67302577"
     inkscape:cx="-386.7252"
     inkscape:cy="189.69049"
     inkscape:document-units="px"
     inkscape:current-layer="svg2"
     showgrid="false"
     inkscape:window-width="1680"
     inkscape:window-height="949"
     inkscape:window-x="0"
     inkscape:window-y="22"
     inkscape:window-maximized="1"
     inkscape:object-paths="false"
     inkscape:snap-intersection-paths="false"
     inkscape:object-nodes="true"
     inkscape:snap-smooth-nodes="true"
     inkscape:snap-nodes="true" />
  <defs
     id="defs4">
    <linearGradient
       y2="48.0854"
       x2="78.466103"
       y1="56.3008"
       x1="64.477501"
       gradientUnits="userSpaceOnUse"
       id="XMLID_74_-8-1">
      <stop
         id="stop155-3-8"
         style="stop-color:#ffffff;stop-opacity:1;"
         offset="0" />
      <stop
         id="stop157-94-6"
         style="stop-color:#e6e6e6;stop-opacity:1;"
         offset="1" />
    </linearGradient>
    <radialGradient
       gradientUnits="userSpaceOnUse"
       gradientTransform="matrix(1,0,0,1.0499906,0,-19.270593)"
       r="191.6187"
       fy="385.4841"
       fx="558.35437"
       cy="385.4841"
       cx="558.35437"
       id="radialGradient3867"
       xlink:href="#XMLID_74_-8-1"
       inkscape:collect="always" />
    <linearGradient
       y2="217.4595"
       x2="200.0508"
       y1="185.0742"
       x1="200.0508"
       gradientUnits="userSpaceOnUse"
       id="SVGID_2_">
      <stop
         id="stop13"
         style="stop-color:#61B74A"
         offset="0" />
      <stop
         id="stop15"
         style="stop-color:#449934"
         offset="1" />
    </linearGradient>
    <linearGradient
       inkscape:collect="always"
       xlink:href="#SVGID_2_"
       id="linearGradient3021"
       gradientUnits="userSpaceOnUse"
       gradientTransform="matrix(13.577628,0,0,13.577628,-2026.1619,-2566.7096)"
       x1="200.0508"
       y1="185.0742"
       x2="200.0508"
       y2="217.4595" />
    <linearGradient
       x1="19.244999"
       y1="21.030804"
       x2="19.360001"
       gradientUnits="userSpaceOnUse"
       y2="44.984001"
       id="linearGradient2460">
      <stop
         offset="0"
         style="stop-color:#ffffff;stop-opacity:1;"
         id="stop3602" />
      <stop
         offset="1"
         style="stop-color:#f0f0f0;stop-opacity:1;"
         id="stop3604" />
    </linearGradient>
    <linearGradient
       inkscape:collect="always"
       xlink:href="#linearGradient2460"
       id="linearGradient3096"
       gradientUnits="userSpaceOnUse"
       gradientTransform="matrix(11.076923,0,0,11.076923,-9.8523013,-20.578025)"
       x1="19.244999"
       y1="21.030804"
       x2="19.360001"
       y2="44.984001" />
    <linearGradient
       inkscape:collect="always"
       xlink:href="#ButtonShadow-0-1-1-5"
       id="linearGradient4114-2"
       gradientUnits="userSpaceOnUse"
       gradientTransform="matrix(1.0317796,0,0,1.0317796,-830.86406,592.67791)"
       x1="1012.5133"
       y1="484.41721"
       x2="1006.8082"
       y2="20.625916" />
    <linearGradient
       x1="45.447727"
       y1="92.539597"
       x2="45.447727"
       y2="7.0165396"
       id="ButtonShadow-0-1-1-5"
       gradientUnits="userSpaceOnUse"
       gradientTransform="matrix(1.0058652,0,0,0.994169,100,0)">
      <stop
         id="stop3750-8-9-3-6"
         style="stop-color:#000000;stop-opacity:1"
         offset="0" />
      <stop
         id="stop3752-5-6-4-2"
         style="stop-color:#000000;stop-opacity:0.58823532"
         offset="1" />
    </linearGradient>
    <linearGradient
       inkscape:collect="always"
       xlink:href="#ButtonShadow-0-1-1-5"
       id="linearGradient4112-2"
       gradientUnits="userSpaceOnUse"
       gradientTransform="matrix(1.0402541,0,0,1.0402541,-837.95116,592.51825)"
       x1="1012.5133"
       y1="484.41721"
       x2="1006.8082"
       y2="20.625916" />
    <linearGradient
       x1="45.447727"
       y1="92.539597"
       x2="45.447727"
       y2="7.0165396"
       id="linearGradient5292"
       gradientUnits="userSpaceOnUse"
       gradientTransform="matrix(1.0058652,0,0,0.994169,100,0)">
      <stop
         id="stop5294"
         style="stop-color:#000000;stop-opacity:1"
         offset="0" />
      <stop
         id="stop5296"
         style="stop-color:#000000;stop-opacity:0.58823532"
         offset="1" />
    </linearGradient>
    <linearGradient
       inkscape:collect="always"
       xlink:href="#ButtonShadow-0-1-1-5"
       id="linearGradient4110-6"
       gradientUnits="userSpaceOnUse"
       gradientTransform="matrix(1.023305,0,0,1.023305,-823.77704,592.83757)"
       x1="1012.5133"
       y1="484.41721"
       x2="1006.8082"
       y2="20.625916" />
    <linearGradient
       x1="45.447727"
       y1="92.539597"
       x2="45.447727"
       y2="7.0165396"
       id="linearGradient5299"
       gradientUnits="userSpaceOnUse"
       gradientTransform="matrix(1.0058652,0,0,0.994169,100,0)">
      <stop
         id="stop5301"
         style="stop-color:#000000;stop-opacity:1"
         offset="0" />
      <stop
         id="stop5303"
         style="stop-color:#000000;stop-opacity:0.58823532"
         offset="1" />
    </linearGradient>
    <linearGradient
       inkscape:collect="always"
       xlink:href="#ButtonShadow-0-1-1-5"
       id="linearGradient4116-6"
       gradientUnits="userSpaceOnUse"
       gradientTransform="matrix(1.0148305,0,0,1.0148305,-816.68996,592.99723)"
       x1="1012.5133"
       y1="484.41721"
       x2="1006.8082"
       y2="20.625916" />
    <linearGradient
       x1="45.447727"
       y1="92.539597"
       x2="45.447727"
       y2="7.0165396"
       id="linearGradient5306"
       gradientUnits="userSpaceOnUse"
       gradientTransform="matrix(1.0058652,0,0,0.994169,100,0)">
      <stop
         id="stop5308"
         style="stop-color:#000000;stop-opacity:1"
         offset="0" />
      <stop
         id="stop5310"
         style="stop-color:#000000;stop-opacity:0.58823532"
         offset="1" />
    </linearGradient>
    <linearGradient
       y2="20.625916"
       x2="1006.8082"
       y1="484.41721"
       x1="1012.5133"
       gradientTransform="matrix(1.0074153,0,0,1.0074153,-810.48879,593.1369)"
       gradientUnits="userSpaceOnUse"
       id="linearGradient3372"
       xlink:href="#ButtonShadow-0-1-1-5"
       inkscape:collect="always" />
    <linearGradient
       x1="45.447727"
       y1="92.539597"
       x2="45.447727"
       y2="7.0165396"
       id="linearGradient5313"
       gradientUnits="userSpaceOnUse"
       gradientTransform="matrix(1.0058652,0,0,0.994169,100,0)">
      <stop
         id="stop5315"
         style="stop-color:#000000;stop-opacity:1"
         offset="0" />
      <stop
         id="stop5317"
         style="stop-color:#000000;stop-opacity:0.58823532"
         offset="1" />
    </linearGradient>
    <linearGradient
       inkscape:collect="always"
       xlink:href="#linearGradient4487"
       id="linearGradient4082"
       gradientUnits="userSpaceOnUse"
       gradientTransform="translate(-146.22032,369.08845)"
       x1="1016.1035"
       y1="476.25983"
       x2="1011.9534"
       y2="251.66064" />
    <linearGradient
       id="linearGradient4487">
      <stop
         id="stop4489"
         style="stop-color:#000000;stop-opacity:1"
         offset="0" />
      <stop
         id="stop4491"
         style="stop-color:#000000;stop-opacity:0"
         offset="1" />
    </linearGradient>
    <linearGradient
       inkscape:collect="always"
       xlink:href="#linearGradient3737"
       id="linearGradient4084"
       gradientUnits="userSpaceOnUse"
       gradientTransform="translate(778.59979,-360.55963)"
       x1="993.43896"
       y1="51.511765"
       x2="988.78552"
       y2="363.73825" />
    <linearGradient
       id="linearGradient3737">
      <stop
         id="stop3739"
         style="stop-color:#ffffff;stop-opacity:1"
         offset="0" />
      <stop
         id="stop3741"
         style="stop-color:#ffffff;stop-opacity:0"
         offset="1" />
    </linearGradient>
    <linearGradient
       inkscape:collect="always"
       xlink:href="#linearGradient4046"
       id="linearGradient4086"
       gradientUnits="userSpaceOnUse"
       x1="1764.6487"
       y1="155.59685"
       x2="1763.6903"
       y2="-55.941216" />
    <linearGradient
       id="linearGradient4046">
      <stop
         id="stop4048"
         style="stop-color:#000000;stop-opacity:1;"
         offset="0" />
      <stop
         id="stop4050"
         style="stop-color:#ffffff;stop-opacity:0.2"
         offset="1" />
    </linearGradient>
    <linearGradient
       y2="20.625916"
       x2="1006.8082"
       y1="484.41721"
       x1="1012.5133"
       gradientTransform="matrix(1.0074153,0,0,1.0074153,-810.48879,593.1369)"
       gradientUnits="userSpaceOnUse"
       id="linearGradient5342"
       xlink:href="#ButtonShadow-0-1-1-5"
       inkscape:collect="always" />
    <linearGradient
       inkscape:collect="always"
       xlink:href="#ButtonShadow-0-1-1-5-9"
       id="linearGradient4114-2-6"
       gradientUnits="userSpaceOnUse"
       gradientTransform="matrix(1.0317796,0,0,1.0317796,-830.86406,592.67791)"
       x1="1012.5133"
       y1="484.41721"
       x2="1006.8082"
       y2="20.625916" />
    <linearGradient
       x1="45.447727"
       y1="92.539597"
       x2="45.447727"
       y2="7.0165396"
       id="ButtonShadow-0-1-1-5-9"
       gradientUnits="userSpaceOnUse"
       gradientTransform="matrix(1.0058652,0,0,0.994169,100,0)">
      <stop
         id="stop3750-8-9-3-6-4"
         style="stop-color:#000000;stop-opacity:1"
         offset="0" />
      <stop
         id="stop3752-5-6-4-2-9"
         style="stop-color:#000000;stop-opacity:0.58823532"
         offset="1" />
    </linearGradient>
    <linearGradient
       inkscape:collect="always"
       xlink:href="#ButtonShadow-0-1-1-5-9"
       id="linearGradient4112-2-6"
       gradientUnits="userSpaceOnUse"
       gradientTransform="matrix(1.0402541,0,0,1.0402541,-837.95116,592.51825)"
       x1="1012.5133"
       y1="484.41721"
       x2="1006.8082"
       y2="20.625916" />
    <linearGradient
       x1="45.447727"
       y1="92.539597"
       x2="45.447727"
       y2="7.0165396"
       id="linearGradient5292-5"
       gradientUnits="userSpaceOnUse"
       gradientTransform="matrix(1.0058652,0,0,0.994169,100,0)">
      <stop
         id="stop5294-8"
         style="stop-color:#000000;stop-opacity:1"
         offset="0" />
      <stop
         id="stop5296-4"
         style="stop-color:#000000;stop-opacity:0.58823532"
         offset="1" />
    </linearGradient>
    <linearGradient
       inkscape:collect="always"
       xlink:href="#ButtonShadow-0-1-1-5-9"
       id="linearGradient4110-6-7"
       gradientUnits="userSpaceOnUse"
       gradientTransform="matrix(1.023305,0,0,1.023305,-823.77704,592.83757)"
       x1="1012.5133"
       y1="484.41721"
       x2="1006.8082"
       y2="20.625916" />
    <linearGradient
       x1="45.447727"
       y1="92.539597"
       x2="45.447727"
       y2="7.0165396"
       id="linearGradient5299-2"
       gradientUnits="userSpaceOnUse"
       gradientTransform="matrix(1.0058652,0,0,0.994169,100,0)">
      <stop
         id="stop5301-9"
         style="stop-color:#000000;stop-opacity:1"
         offset="0" />
      <stop
         id="stop5303-1"
         style="stop-color:#000000;stop-opacity:0.58823532"
         offset="1" />
    </linearGradient>
    <linearGradient
       inkscape:collect="always"
       xlink:href="#ButtonShadow-0-1-1-5-9"
       id="linearGradient4116-6-3"
       gradientUnits="userSpaceOnUse"
       gradientTransform="matrix(1.0148305,0,0,1.0148305,-816.68996,592.99723)"
       x1="1012.5133"
       y1="484.41721"
       x2="1006.8082"
       y2="20.625916" />
    <linearGradient
       x1="45.447727"
       y1="92.539597"
       x2="45.447727"
       y2="7.0165396"
       id="linearGradient5306-9"
       gradientUnits="userSpaceOnUse"
       gradientTransform="matrix(1.0058652,0,0,0.994169,100,0)">
      <stop
         id="stop5308-0"
         style="stop-color:#000000;stop-opacity:1"
         offset="0" />
      <stop
         id="stop5310-6"
         style="stop-color:#000000;stop-opacity:0.58823532"
         offset="1" />
    </linearGradient>
    <linearGradient
       y2="20.625916"
       x2="1006.8082"
       y1="484.41721"
       x1="1012.5133"
       gradientTransform="matrix(1.0074153,0,0,1.0074153,-810.48879,593.1369)"
       gradientUnits="userSpaceOnUse"
       id="linearGradient3372-9"
       xlink:href="#ButtonShadow-0-1-1-5-9"
       inkscape:collect="always" />
    <linearGradient
       x1="45.447727"
       y1="92.539597"
       x2="45.447727"
       y2="7.0165396"
       id="linearGradient5313-8"
       gradientUnits="userSpaceOnUse"
       gradientTransform="matrix(1.0058652,0,0,0.994169,100,0)">
      <stop
         id="stop5315-8"
         style="stop-color:#000000;stop-opacity:1"
         offset="0" />
      <stop
         id="stop5317-1"
         style="stop-color:#000000;stop-opacity:0.58823532"
         offset="1" />
    </linearGradient>
    <linearGradient
       inkscape:collect="always"
       xlink:href="#linearGradient4487-8"
       id="linearGradient4082-7"
       gradientUnits="userSpaceOnUse"
       gradientTransform="translate(-146.22032,369.08845)"
       x1="1016.1035"
       y1="476.25983"
       x2="1011.9534"
       y2="251.66064" />
    <linearGradient
       id="linearGradient4487-8">
      <stop
         id="stop4489-0"
         style="stop-color:#000000;stop-opacity:1"
         offset="0" />
      <stop
         id="stop4491-4"
         style="stop-color:#000000;stop-opacity:0"
         offset="1" />
    </linearGradient>
    <linearGradient
       inkscape:collect="always"
       xlink:href="#linearGradient3737-8"
       id="linearGradient4084-7"
       gradientUnits="userSpaceOnUse"
       gradientTransform="translate(778.59979,-360.55963)"
       x1="993.43896"
       y1="51.511765"
       x2="988.78552"
       y2="363.73825" />
    <linearGradient
       id="linearGradient3737-8">
      <stop
         id="stop3739-4"
         style="stop-color:#ffffff;stop-opacity:1"
         offset="0" />
      <stop
         id="stop3741-7"
         style="stop-color:#ffffff;stop-opacity:0"
         offset="1" />
    </linearGradient>
    <linearGradient
       inkscape:collect="always"
       xlink:href="#linearGradient4046-2"
       id="linearGradient4086-1"
       gradientUnits="userSpaceOnUse"
       x1="1764.6487"
       y1="155.59685"
       x2="1763.6903"
       y2="-55.941216" />
    <linearGradient
       id="linearGradient4046-2">
      <stop
         id="stop4048-2"
         style="stop-color:#000000;stop-opacity:1;"
         offset="0" />
      <stop
         id="stop4050-7"
         style="stop-color:#ffffff;stop-opacity:0.2"
         offset="1" />
    </linearGradient>
    <linearGradient
       y2="20.625916"
       x2="1006.8082"
       y1="484.41721"
       x1="1012.5133"
       gradientTransform="matrix(1.0074153,0,0,1.0074153,-810.48879,593.1369)"
       gradientUnits="userSpaceOnUse"
       id="linearGradient5342-3"
       xlink:href="#ButtonShadow-0-1-1-5-9"
       inkscape:collect="always" />
    <linearGradient
       x1="45.447727"
       y1="92.539597"
       x2="45.447727"
       y2="7.0165396"
       id="ButtonShadow"
       gradientUnits="userSpaceOnUse"
       gradientTransform="scale(1.0058652,0.994169)">
      <stop
         id="stop3750"
         style="stop-color:#000000;stop-opacity:1"
         offset="0" />
      <stop
         id="stop3752"
         style="stop-color:#000000;stop-opacity:0.58823532"
         offset="1" />
    </linearGradient>
    <filter
       color-interpolation-filters="sRGB"
       id="filter3174">
      <feGaussianBlur
         id="feGaussianBlur3176"
         stdDeviation="1.71" />
    </filter>
    <linearGradient
       id="linearGradient3664">
      <stop
         id="stop3666"
         style="stop-color:#c8c8c8;stop-opacity:1"
         offset="0" />
      <stop
         id="stop3668"
         style="stop-color:#c8c8c8;stop-opacity:1"
         offset="0.79100895" />
      <stop
         id="stop3672"
         style="stop-color:#dadada;stop-opacity:1"
         offset="0.91459841" />
      <stop
         id="stop3670"
         style="stop-color:#f0f0f0;stop-opacity:1"
         offset="1" />
    </linearGradient>
    <linearGradient
       id="linearGradient3761">
      <stop
         id="stop3763"
         style="stop-color:#333333;stop-opacity:1"
         offset="0" />
      <stop
         id="stop3765"
         style="stop-color:#515151;stop-opacity:1"
         offset="1" />
    </linearGradient>
    <linearGradient
       id="linearGradient3678">
      <stop
         id="stop3680"
         style="stop-color:#888888;stop-opacity:1"
         offset="0" />
      <stop
         id="stop3682"
         style="stop-color:#acacac;stop-opacity:1"
         offset="1" />
    </linearGradient>
    <linearGradient
       x1="10"
       y1="13"
       x2="16"
       y2="13"
       id="linearGradient3924"
       xlink:href="#linearGradient3183-0"
       gradientUnits="userSpaceOnUse" />
    <linearGradient
       id="linearGradient3183-0">
      <stop
         id="stop3185-9"
         style="stop-color:#c80000;stop-opacity:1"
         offset="0" />
      <stop
         id="stop3187-6"
         style="stop-color:#f3604d;stop-opacity:1"
         offset="1" />
    </linearGradient>
    <linearGradient
       x1="48"
       y1="20.220806"
       x2="48"
       y2="138.66119"
       id="linearGradient3613"
       xlink:href="#linearGradient3737-4"
       gradientUnits="userSpaceOnUse" />
    <linearGradient
       id="linearGradient3737-4">
      <stop
         id="stop3739-2"
         style="stop-color:#ffffff;stop-opacity:1"
         offset="0" />
      <stop
         id="stop3741-9"
         style="stop-color:#ffffff;stop-opacity:0"
         offset="1" />
    </linearGradient>
    <clipPath
       id="clipPath3613">
      <rect
         width="84"
         height="84"
         rx="6"
         ry="6"
         x="6"
         y="6"
         id="rect3615"
         style="fill:#ffffff;fill-opacity:1;fill-rule:nonzero;stroke:none" />
    </clipPath>
    <filter
       x="-0.192"
       y="-0.192"
       width="1.3839999"
       height="1.3839999"
       color-interpolation-filters="sRGB"
       id="filter3794">
      <feGaussianBlur
         id="feGaussianBlur3796"
         stdDeviation="5.28" />
    </filter>
    <linearGradient
       y2="7.0165396"
       x2="45.447727"
       y1="92.539597"
       x1="45.447727"
       gradientTransform="scale(1.0058652,0.994169)"
       gradientUnits="userSpaceOnUse"
       id="linearGradient3167"
       xlink:href="#ButtonShadow"
       inkscape:collect="always" />
    <linearGradient
       inkscape:collect="always"
       xlink:href="#linearGradient3678"
       id="linearGradient4005"
       gradientUnits="userSpaceOnUse"
       gradientTransform="matrix(4.7343332,0,0,5.0048658,-1196.7457,9.0536694)"
       x1="48"
       y1="27"
       x2="48"
       y2="80" />
    <linearGradient
       inkscape:collect="always"
       xlink:href="#linearGradient3664"
       id="linearGradient4011"
       gradientUnits="userSpaceOnUse"
       gradientTransform="matrix(5.0048665,0,0,4.4631812,-1209.7313,66.731684)"
       x1="48"
       y1="90"
       x2="48"
       y2="5.9877172" />
    <linearGradient
       inkscape:collect="always"
       xlink:href="#linearGradient3761"
       id="linearGradient4025"
       gradientUnits="userSpaceOnUse"
       gradientTransform="matrix(-8.6428564,0,0,8.6428564,-16.936559,-29.424825)"
       x1="32"
       y1="16"
       x2="32"
       y2="6" />
    <linearGradient
       inkscape:collect="always"
       xlink:href="#linearGradient2460"
       id="linearGradient4074"
       gradientUnits="userSpaceOnUse"
       gradientTransform="matrix(12.102564,0,0,12.102564,-34.468255,-46.187105)"
       x1="19.244999"
       y1="21.030804"
       x2="19.360001"
       y2="44.984001" />
  </defs>
  <metadata
     id="metadata7">
    <rdf:RDF>
      <cc:Work
         rdf:about="">
        <dc:format>image/svg+xml</dc:format>
        <dc:type
           rdf:resource="http://purl.org/dc/dcmitype/StillImage" />
        <dc:title />
      </cc:Work>
    </rdf:RDF>
  </metadata>
  <g
     id="layer1"
     inkscape:groupmode="layer"
     inkscape:label="Livello 1"
     transform="translate(0,-540.36218)" />
  <g
     id="g2036"
     transform="matrix(1.1,0,0,0.44444,95.081063,256.39254)">
    <g
       id="g3712"
       style="opacity:0.4"
       transform="matrix(1.0526,0,0,1.2857,-1.2632,-13.429)" />
  </g>
  <g
     transform="translate(97.481063,231.28154)"
     id="g3541" />
  <g
     transform="translate(97.481063,231.28154)"
     id="g3536" />
  <g
     id="g13339">
    <g
       transform="translate(-11.985071,-592.11719)"
       id="g4103">
      <rect
         style="opacity:0.1;color:#000000;fill:url(#linearGradient4114-2-6);fill-opacity:1;fill-rule:nonzero;stroke:none;stroke-width:1.5;marker:none;visibility:visible;display:inline;overflow:visible;enable-background:accumulate"
         id="rect6187"
         width="487"
         height="487"
         x="31.985071"
         y="612.11719"
         ry="101.45834" />
      <rect
         ry="102.29167"
         y="612.11719"
         x="31.985071"
         height="491"
         width="491"
         id="rect6191"
         style="opacity:0.07999998;color:#000000;fill:url(#linearGradient4112-2-6);fill-opacity:1;fill-rule:nonzero;stroke:none;stroke-width:1.5;marker:none;visibility:visible;display:inline;overflow:visible;enable-background:accumulate" />
      <rect
         ry="100.62501"
         y="612.11719"
         x="31.985071"
         height="483"
         width="483"
         id="rect6183"
         style="opacity:0.2;color:#000000;fill:url(#linearGradient4110-6-7);fill-opacity:1;fill-rule:nonzero;stroke:none;stroke-width:1.5;marker:none;visibility:visible;display:inline;overflow:visible;enable-background:accumulate" />
      <rect
         style="opacity:0.25;color:#000000;fill:url(#linearGradient4116-6-3);fill-opacity:1;fill-rule:nonzero;stroke:none;stroke-width:1.5;marker:none;visibility:visible;display:inline;overflow:visible;enable-background:accumulate"
         id="rect6179"
         width="479"
         height="479"
         x="31.985071"
         y="612.11719"
         ry="99.791664" />
      <rect
         ry="99.0625"
         y="612.11719"
         x="31.985071"
         height="475.5"
         width="475.5"
         id="rect5574"
         style="opacity:0.25;color:#000000;fill:url(#linearGradient5342-3);fill-opacity:1;fill-rule:nonzero;stroke:none;stroke-width:1.5;marker:none;visibility:visible;display:inline;overflow:visible;enable-background:accumulate" />
    </g>
    <g
       id="g3181">
      <g
         id="g3173">
        <path
           id="rect5505"
           d="m 20,141.41435 0,252.25232 C 20,448.14333 63.856667,492 118.33333,492 l 275.33334,0 C 448.14334,492 492,448.14333 492,393.66667 l 0,-252.25232 -472,0 z"
           style="fill:url(#linearGradient4074);stroke:none"
           inkscape:connector-curvature="0" />
        <path
           id="rect3082"
           d="M 118.33333,19.999997 C 63.856667,19.999997 20,63.856664 20,118.33333 l 0,23.08102 472,0 0,-23.08102 C 492,63.856664 448.14334,19.999997 393.66667,19.999997 l -275.33334,0 z"
           style="color:#000000;fill:#444444;fill-opacity:1;fill-rule:nonzero;stroke:none;stroke-width:1.5;marker:none;visibility:visible;display:inline;overflow:visible;enable-background:accumulate"
           inkscape:connector-curvature="0" />
      </g>
      <g
         id="g3163">
        <g
           id="g3158">
          <path
             style="color:#000000;fill:#000000;fill-opacity:0.31372549;fill-rule:nonzero;stroke:none;stroke-width:1;marker:none;visibility:visible;display:inline;overflow:visible;enable-background:accumulate"
             d="m 300.25,64.96875 c -7.14531,0 -13.73984,3.811979 -17.3125,10 -3.572,6.187819 -3.57244,13.812356 0,20 0.93042,1.611044 2.04646,3.04899 3.34375,4.3125 0.0826,0.08336 0.16601,0.168199 0.25,0.25 l 41.90625,41.875 56.46875,0 L 314.6875,71.125 c -0.0831,-0.08381 -0.16538,-0.167666 -0.25,-0.25 -3.62369,-3.652277 -8.63636,-5.90625 -14.1875,-5.90625 z"
             id="path3148" />
          <path
             style="color:#000000;fill:#000000;fill-opacity:0.31372549;fill-rule:nonzero;stroke:none;stroke-width:1;marker:none;visibility:visible;display:inline;overflow:visible;enable-background:accumulate"
             d="m 360.25,64.96875 c -7.14531,0 -13.73984,3.811979 -17.3125,10 -3.572,6.187819 -3.57244,13.812356 0,20 0.93042,1.611044 2.04646,3.04899 3.34375,4.3125 0.0826,0.08336 0.16601,0.168199 0.25,0.25 l 41.90625,41.875 56.46875,0 L 374.6875,71.125 c -0.0831,-0.08381 -0.16538,-0.167666 -0.25,-0.25 -3.62369,-3.652277 -8.63636,-5.90625 -14.1875,-5.90625 z"
             id="path3146" />
          <path
             style="color:#000000;fill:#000000;fill-opacity:0.31372549;fill-rule:nonzero;stroke:none;stroke-width:1;marker:none;visibility:visible;display:inline;overflow:visible;enable-background:accumulate"
             d="m 420.25,64.96875 c -7.14531,0 -13.73984,3.811979 -17.3125,10 -3.572,6.187819 -3.57244,13.812356 0,20 0.93042,1.611044 2.04646,3.04899 3.34375,4.3125 0.0826,0.08336 0.16601,0.168199 0.25,0.25 l 41.90625,41.875 43.5625,0 L 492,128.5 434.6875,71.125 c -0.0831,-0.08381 -0.16538,-0.167666 -0.25,-0.25 -3.62369,-3.652277 -8.63636,-5.90625 -14.1875,-5.90625 z"
             id="path15221" />
        </g>
        <g
           id="g3153">
          <path
             style="color:#000000;fill:#ffffff;fill-opacity:1;fill-rule:nonzero;stroke:none;stroke-width:1;marker:none;visibility:visible;display:inline;overflow:visible;enable-background:accumulate"
             d="m 298.90262,64.71063 a 19.634596,19.994903 0 0 1 0.73615,0 19.631146,19.99139 0 0 1 0.73616,0 19.631147,19.991391 0 0 1 0,39.98278 19.644945,20.005442 0 0 1 -1.47231,-39.98278 z"
             id="path4029"
             inkscape:connector-curvature="0" />
          <path
             style="color:#000000;fill:#ffffff;fill-opacity:1;fill-rule:nonzero;stroke:none;stroke-width:1;marker:none;visibility:visible;display:inline;overflow:visible;enable-background:accumulate"
             d="m 359.4673,64.71065 a 19.812324,19.996312 0 0 1 0.74295,0 19.812325,19.996313 0 0 1 0,39.9926 19.815807,19.999828 0 1 1 -0.74295,-39.9926 z"
             id="rect3101"
             inkscape:connector-curvature="0" />
          <path
             inkscape:connector-curvature="0"
             style="color:#000000;fill:#b40000;fill-opacity:1;fill-rule:nonzero;stroke:none;stroke-width:1;marker:none;visibility:visible;display:inline;overflow:visible;enable-background:accumulate"
             id="path3889"
             d="m 419.99993,64.70717 a 20,20 0 1 0 0,40 20,20 0 0 0 0,-40 z" />
        </g>
      </g>
      <g
         id="g3177">
        <path
           id="path23556"
           d="M 255.3125 207 C 241.62428 207 240.18916 207.90811 236.78125 218.46875 C 233.67853 228.08365 231.19911 230.41139 219.28125 235.03125 C 208.45198 239.22886 205.32853 239.21968 200.03125 235.03125 C 193.6079 229.95243 185.53371 231.65347 177.59375 239.71875 C 168.64417 248.80962 168.02703 251.80046 173.0625 261.40625 C 177.57282 270.01024 177.41632 273.72392 172 285.625 C 167.8982 294.63779 165.929 296.48152 157.5625 299.21875 C 148.036 302.33549 146.3125 305.26362 146.3125 318.25 C 146.8404 322.96107 146.3524 329.13912 149.125 332.375 L 176.625 359.84375 C 178.52074 365.21003 177.63454 366.49597 174.28125 372.8125 C 168.86895 383.00755 169.16196 385.4988 178.09375 394.59375 L 275.53125 492 L 393.65625 492 C 447.15579 492 490.43419 449.70864 491.96875 396.59375 L 332.375 237 C 332.2775 236.9031 332.15877 236.81334 332.0625 236.71875 C 331.95126 236.61086 331.85967 236.51101 331.75 236.40625 C 324.18758 229.07117 320.32426 229.00901 311.0625 233.90625 C 304.16154 237.55519 301.25052 238.20374 296.25 236.5 L 269.90625 210.15625 C 267.17726 207.31694 263.15943 207 255.3125 207 z M 256.40625 280.84375 C 265.10812 280.96788 273.84602 284.3488 280.71875 291.40625 C 298.24303 309.40159 293.24032 337.94788 270.65625 348.6875 C 242.19836 362.22034 211.52207 333.85922 222.5625 304.21875 C 227.9846 289.66191 241.11333 281.35268 254.65625 280.875 C 255.23539 280.85457 255.82613 280.83547 256.40625 280.84375 z "
           style="fill:#000000;fill-opacity:0.15686275" />
        <path
           inkscape:connector-curvature="0"
           id="path3774"
           d="m 242.42128,423.95693 c -3.48238,-3.84317 -5.22757,-7.56786 -5.22757,-11.15705 0,-4.71223 -4.56799,-8.6741 -14.81043,-12.8453 -11.48987,-4.6792 -13.30119,-4.68881 -21.55734,-0.1144 -10.09565,5.59363 -12.46367,5.09238 -22.20584,-4.70031 -9.75777,-9.80836 -10.23283,-12.118 -4.65403,-22.62668 4.54409,-8.5596 4.56992,-7.83854 -0.73886,-20.62486 -4.86657,-11.72127 -6.75969,-13.56758 -16.47389,-16.06652 C 147.50888,333.44372 146,330.93719 146,317.95857 c 0,-12.98638 1.73613,-15.92106 11.26263,-19.0378 8.3665,-2.73723 10.32469,-4.58261 14.42649,-13.5954 5.41632,-11.90108 5.58064,-15.62035 1.07032,-24.22434 -5.03547,-9.60579 -4.40798,-12.60307 4.5416,-21.69394 7.93996,-8.06528 16.01188,-9.74362 22.43523,-4.6648 5.29728,4.18843 8.42396,4.18661 19.25323,-0.011 11.91786,-4.61986 14.38108,-6.95421 17.4838,-16.56911 3.40791,-10.56064 4.85574,-11.455 18.54396,-11.455 14.77069,0 15.98446,1.06921 20.53723,18.09123 0.72341,2.70472 4.36443,4.82719 18.02384,10.5067 6.59651,2.74279 9.26011,2.47777 17.17832,-1.70905 10.58487,-5.59685 14.141,-4.69923 24.19745,6.10768 6.82988,7.33957 7.45294,14.25316 1.9578,21.72429 -3.64321,4.95326 -3.42655,8.64807 1.15944,19.77296 4.85953,11.7885 6.10759,13.03406 16.03908,16.00714 11.02149,3.29937 12.35319,5.71476 11.77849,21.36359 -0.48142,13.10862 -1.95701,15.72003 -9.57459,16.94443 -10.2551,1.64836 -12.89002,3.92662 -17.58775,15.20706 -4.82778,11.59278 -4.64856,14.27919 1.58564,23.76745 4.2439,6.45905 2.35637,11.92099 -7.32857,21.20678 -8.24741,7.90749 -13.55175,8.44992 -22.54719,2.30567 -5.82789,-3.98069 -6.81773,-3.91073 -19.72076,1.39387 -11.8234,4.86075 -13.20716,6.41012 -15.7046,17.58382 -1.87854,8.40476 -4.36316,9.72637 -18.28547,9.72637 -10.70107,0 -12.04696,-0.25874 -14.30434,-2.75 z m 28.22118,-75.28203 c 22.58407,-10.73962 27.60653,-39.26272 10.08225,-57.25806 -18.04531,-18.53035 -49.01472,-11.70862 -58.14667,12.80816 -11.04043,29.64047 19.60653,57.98274 48.06442,44.4499 z"
           style="fill:#444444;fill-opacity:0.96862745" />
      </g>
    </g>
    <g
       transform="translate(-605.51932,-353.96833)"
       id="g4076">
      <g
         id="g4038"
         transform="translate(-926.66758,684.38448)">
        <path
           id="rect6809-2"
           d="m 1650.4994,-310.41615 c -54.4767,0 -98.3125,43.83583 -98.3125,98.3125 l 0,275.343747 c 0,54.476673 43.8358,98.343753 98.3125,98.343753 l 2.9375,0 c -53.3225,0 -96.25,-42.9275 -96.25,-96.250003 l 0,-269.499997 c 0,-53.3225 42.9275,-96.25 96.25,-96.25 l 269.5001,0 c 53.3225,0 96.25,42.9275 96.25,96.25 l 0,269.499997 c 0,53.322503 -42.9275,96.250003 -96.25,96.250003 l 2.9062,0 c 54.4767,0 98.3438,-43.86708 98.3438,-98.343753 l 0,-275.343747 c 0,-54.47667 -43.8671,-98.3125 -98.3438,-98.3125 l -275.3438,0 z"
           style="opacity:0.3;color:#000000;fill:url(#linearGradient4084);fill-opacity:1;fill-rule:nonzero;stroke:none;stroke-width:1.50000000000000000;marker:none;visibility:visible;display:inline;overflow:visible;enable-background:accumulate"
           inkscape:connector-curvature="0" />
        <path
           inkscape:connector-curvature="0"
           style="opacity:0.2;color:#000000;fill:url(#linearGradient4086);fill-opacity:1;fill-rule:nonzero;stroke:none;stroke-width:1.5;marker:none;visibility:visible;display:inline;overflow:visible;enable-background:accumulate"
           d="m 1650.4994,161.58385 c -54.4767,0 -98.3125,-43.83583 -98.3125,-98.312503 l 0,-275.343747 c 0,-54.47667 43.8358,-98.34375 98.3125,-98.34375 l 2.9375,0 c -53.3225,0 -96.25,42.9275 -96.25,96.25 l 0,269.499997 c 0,53.322503 42.9275,96.250003 96.25,96.250003 l 269.5001,0 c 53.3225,0 96.25,-42.9275 96.25,-96.250003 l 0,-269.499997 c 0,-53.3225 -42.9275,-96.25 -96.25,-96.25 l 2.9062,0 c 54.4767,0 98.3438,43.86708 98.3438,98.34375 l 0,275.343747 c 0,54.476673 -43.8671,98.312503 -98.3438,98.312503 l -275.3438,0 z"
           id="path3981" />
      </g>
    </g>
  </g>
  <g
     transform="matrix(5.0048665,0,0,5.0048665,729.26416,9.053651)"
     id="layer2"
     style="display:none">
    <rect
       width="86"
       height="85"
       rx="6"
       ry="6"
       x="5"
       y="7"
       id="rect3745"
       style="opacity:0.9;fill:url(#linearGradient3167);fill-opacity:1;fill-rule:nonzero;stroke:none;filter:url(#filter3174)" />
  </g>
  <g
     id="layer3"
     transform="matrix(-5.0048665,0,0,5.0048665,1209.7313,9.053651)" />
  <g
     style="font-size:8px;font-style:normal;font-variant:normal;font-weight:bold;font-stretch:normal;text-align:start;line-height:125%;writing-mode:lr-tb;text-anchor:start;fill:#000000;fill-opacity:1;stroke:none;font-family:Droid Sans;-inkscape-font-specification:Abandoned Bitplane Bold"
     id="g3715"
     transform="matrix(-3.2122842,0,0,3.2122842,1090.0829,33.373933)" />
  <g
     style="font-size:8px;font-style:normal;font-variant:normal;font-weight:bold;font-stretch:normal;text-align:start;line-height:125%;writing-mode:lr-tb;text-anchor:start;fill:#ececec;fill-opacity:1;stroke:none;font-family:Droid Sans;-inkscape-font-specification:Abandoned Bitplane Bold"
     id="text3686"
     transform="matrix(-3.2122842,0,0,3.2122842,1090.0829,30.869656)" />
  <g
     transform="matrix(5.0048665,0,0,5.0048665,729.26416,9.053651)"
     id="layer5"
     style="display:none">
    <rect
       width="66"
       height="66"
       rx="12"
       ry="12"
       x="15"
       y="15"
       clip-path="url(#clipPath3613)"
       id="rect3171"
       style="opacity:0.1;fill:url(#linearGradient3613);fill-opacity:1;fill-rule:nonzero;stroke:#ffffff;stroke-width:0.5;stroke-linecap:round;stroke-linejoin:miter;stroke-miterlimit:4;stroke-opacity:1;stroke-dasharray:none;stroke-dashoffset:0;filter:url(#filter3794)" />
  </g>
  <text
     xml:space="preserve"
     style="font-size:200px;font-style:normal;font-variant:normal;font-weight:normal;font-stretch:normal;line-height:125%;letter-spacing:0px;word-spacing:0px;fill:#000000;fill-opacity:1;stroke:none;font-family:Gentium Book Basic;-inkscape-font-specification:Gentium Book Basic"
     x="-496.38895"
     y="561.4975"
     id="text4037"
     sodipodi:linespacing="125%"><tspan
       sodipodi:role="line"
       id="tspan4039"
       x="-496.38895"
       y="561.4975" /></text>
  <path
     inkscape:connector-curvature="0"
     style="color:#000000;fill:#000000;fill-opacity:0.31372549;fill-rule:nonzero;stroke:none;stroke-width:1;marker:none;visibility:visible;display:none;overflow:visible;enable-background:accumulate"
     d="m 300.25,64.96875 c -7.14531,0 -13.73984,3.811979 -17.3125,10 -3.572,6.187819 -3.57244,13.812356 0,20 0.93042,1.611044 2.04646,3.04899 3.34375,4.3125 0.0826,0.08336 0.16601,0.168199 0.25,0.25 l 251.0625,250.8125 c 3.49073,2.78916 7.9381,4.35751 12.40625,4.375 7.25001,-0.0194 14.30437,-4.32132 17.65625,-10.75 3.35187,-6.42869 2.85356,-14.70088 -1.28125,-20.65625 -0.24864,-0.36263 -0.50925,-0.71705 -0.78125,-1.0625 L 314.6875,71.125 c -0.0831,-0.08381 -0.16538,-0.167666 -0.25,-0.25 -3.62369,-3.652277 -8.63636,-5.90625 -14.1875,-5.90625 z m 60,0 c -7.14531,0 -13.73984,3.811979 -17.3125,10 -3.572,6.187819 -3.57244,13.812356 0,20 0.93042,1.611044 2.04646,3.04899 3.34375,4.3125 0.0826,0.08336 0.16601,0.168199 0.25,0.25 l 251.0625,250.8125 c 3.49073,2.78916 7.9381,4.35751 12.40625,4.375 7.25001,-0.0194 14.30437,-4.32132 17.65625,-10.75 3.35187,-6.42869 2.85356,-14.70088 -1.28125,-20.65625 -0.24864,-0.36263 -0.50925,-0.71705 -0.78125,-1.0625 L 374.6875,71.125 c -0.0831,-0.08381 -0.16538,-0.167666 -0.25,-0.25 -3.62369,-3.652277 -8.63636,-5.90625 -14.1875,-5.90625 z m 60,0 c -7.14531,0 -13.73984,3.811979 -17.3125,10 -3.572,6.187819 -3.57244,13.812356 0,20 0.93042,1.611044 2.04646,3.04899 3.34375,4.3125 0.0826,0.08336 0.16601,0.168199 0.25,0.25 l 251.0625,250.8125 c 3.49073,2.78916 7.9381,4.35751 12.40625,4.375 7.25001,-0.0194 14.30437,-4.32132 17.65625,-10.75 3.35187,-6.42869 2.85356,-14.70088 -1.28125,-20.65625 -0.24864,-0.36263 -0.50925,-0.71705 -0.78125,-1.0625 L 434.6875,71.125 c -0.0831,-0.08381 -0.16538,-0.167666 -0.25,-0.25 -3.62369,-3.652277 -8.63636,-5.90625 -14.1875,-5.90625 z"
     id="path23392" />
  <path
     sodipodi:nodetypes="sscssssscccsccssccsssssssssccsssccccsccs"
     inkscape:connector-curvature="0"
     id="path3132"
     d="m 255.3125,207 c -13.68822,0 -15.12334,0.90811 -18.53125,11.46875 -3.10272,9.6149 -5.58214,11.94264 -17.5,16.5625 -10.82927,4.19761 -13.95272,4.18843 -19.25,0 -6.42335,-5.07882 -14.49754,-3.37778 -22.4375,4.6875 -8.94958,9.09087 -9.56672,12.08171 -4.53125,21.6875 4.51032,8.60399 4.35382,12.31767 -1.0625,24.21875 -4.1018,9.01279 -6.071,10.85652 -14.4375,13.59375 -9.5265,3.11674 -11.25,6.04487 -11.25,19.03125 0.5279,4.71107 0.0399,10.88912 2.8125,14.125 l 27.4998,27.468 c 1.89574,5.36628 1.00954,6.65222 -2.34375,12.96875 -5.4123,10.19505 -5.11929,12.6863 3.8125,21.78125 l 303.8716,303.7778 c 0.89361,0.82607 1.71879,1.5093 2.5,2.125 5.4413,4.28846 8.61909,3.6237 16.34375,-0.65625 6.40819,-3.55053 8.97406,-4.3252 15.15625,-2.3125 l 27.0893,27.0601 c 1.96656,1.87696 3.99006,2.125 13.65625,2.125 13.92231,0 16.40271,-1.34524 18.28125,-9.75 2.49744,-11.1737 3.89535,-12.70175 15.71875,-17.5625 12.90303,-5.3046 13.89086,-5.38694 19.71875,-1.40625 8.99544,6.14425 14.28384,5.59499 22.53125,-2.3125 9.68494,-9.28579 11.58765,-14.72845 7.34375,-21.1875 -6.2342,-9.48826 -6.42153,-12.18847 -1.59375,-23.78125 4.69773,-11.28044 7.33865,-13.53914 17.59375,-15.1875 7.61758,-1.2244 9.08108,-3.86013 9.5625,-16.96875 0.33544,-9.13386 0.0112,-13.7319 -2.5,-16.65625 l -28.03025,-28.061 c -1.71725,-5.771 -1.12477,-8.75268 1.5625,-12.40625 5.49514,-7.47113 4.89238,-14.37918 -1.9375,-21.71875 -0.10464,-0.11245 -0.20925,-0.20219 -0.3125,-0.3125 -0.62602,-0.66882 -1.23371,-1.31517 -1.8125,-1.90625 L 332.37485,237.0015 c -0.0975,-0.0969 -0.21623,-0.18666 -0.3125,-0.28125 -0.11124,-0.10789 -0.20283,-0.20774 -0.3125,-0.3125 -7.56242,-7.33508 -11.42574,-7.39724 -20.6875,-2.5 -6.90096,3.64894 -9.81198,4.29749 -14.8125,2.59375 L 269.9073,210.1605 C 267.17831,207.32119 263.15943,207 255.3125,207 z"
     style="fill:#000000;fill-opacity:0.31372549;display:none" />
</svg>
