<?xml version="1.0" encoding="UTF-8" standalone="no"?>
<!-- Created with Inkscape (http://www.inkscape.org/) -->

<svg
   xmlns:dc="http://purl.org/dc/elements/1.1/"
   xmlns:cc="http://creativecommons.org/ns#"
   xmlns:rdf="http://www.w3.org/1999/02/22-rdf-syntax-ns#"
   xmlns:svg="http://www.w3.org/2000/svg"
   xmlns="http://www.w3.org/2000/svg"
   xmlns:xlink="http://www.w3.org/1999/xlink"
   xmlns:sodipodi="http://sodipodi.sourceforge.net/DTD/sodipodi-0.dtd"
   xmlns:inkscape="http://www.inkscape.org/namespaces/inkscape"
   inkscape:export-ydpi="100"
   inkscape:export-xdpi="100"
   inkscape:export-filename="/home/alecive/Scrivania/firefoxTest1.png"
   sodipodi:docname="calc.svg"
   inkscape:version="0.91+devel r"
   version="1.1"
   id="svg2"
   height="512"
   width="512"
   viewBox="0 0 512 512">
  <sodipodi:namedview
     id="base"
     pagecolor="#ffffff"
     bordercolor="#666666"
     borderopacity="1.0"
     inkscape:pageopacity="0.0"
     inkscape:pageshadow="2"
     inkscape:zoom="1.2443981"
     inkscape:cx="265.49991"
     inkscape:cy="246.50021"
     inkscape:document-units="px"
     inkscape:current-layer="svg2"
     showgrid="false"
     inkscape:window-width="1855"
     inkscape:window-height="1056"
     inkscape:window-x="65"
     inkscape:window-y="24"
     inkscape:window-maximized="1"
     inkscape:object-paths="false"
     inkscape:snap-intersection-paths="true"
     inkscape:object-nodes="false"
     inkscape:snap-smooth-nodes="false"
     inkscape:snap-nodes="false" />
  <defs
     id="defs4">
    <linearGradient
       id="linearGradient18236"
       gradientUnits="userSpaceOnUse"
       x1="64.477501"
       y1="56.3008"
       x2="78.466103"
       y2="48.0854">
      <stop
         offset="0"
         style="stop-color:#ee8d02;stop-opacity:1;"
         id="stop18238" />
      <stop
         offset="1"
         style="stop-color:#f9a01f;stop-opacity:1;"
         id="stop18240" />
    </linearGradient>
    <linearGradient
       y2="48.0854"
       x2="78.466103"
       y1="56.3008"
       x1="64.477501"
       gradientUnits="userSpaceOnUse"
       id="linearGradient3853">
      <stop
         id="stop3857"
         style="stop-color:#5a5a5a;stop-opacity:1;"
         offset="0" />
      <stop
         id="stop3859"
         style="stop-color:#5f5f5f;stop-opacity:1;"
         offset="1" />
    </linearGradient>
    <linearGradient
       id="XMLID_74_-8-1"
       gradientUnits="userSpaceOnUse"
       x1="64.477501"
       y1="56.3008"
       x2="78.466103"
       y2="48.0854">
      <stop
         offset="0"
         style="stop-color:#fd8700;stop-opacity:1;"
         id="stop153-2-2" />
      <stop
         offset="0.85930002"
         style="stop-color:#ff9500;stop-opacity:1;"
         id="stop155-3-8" />
      <stop
         offset="1"
         style="stop-color:#ff9a01;stop-opacity:1;"
         id="stop157-94-6" />
    </linearGradient>
    <radialGradient
       inkscape:collect="always"
       xlink:href="#XMLID_74_-8-1"
       id="radialGradient3867"
       cx="558.35437"
       cy="385.4841"
       fx="558.35437"
       fy="385.4841"
       r="191.6187"
       gradientTransform="matrix(1,0,0,1.0499906,0,-19.270593)"
       gradientUnits="userSpaceOnUse" />
    <radialGradient
       inkscape:collect="always"
       xlink:href="#linearGradient3853"
       id="radialGradient3049"
       gradientUnits="userSpaceOnUse"
       gradientTransform="translate(0.00614929)"
       cx="255.99385"
       cy="256"
       fx="255.99385"
       fy="256"
       r="216" />
    <radialGradient
       inkscape:collect="always"
       xlink:href="#linearGradient3853"
       id="radialGradient3061"
       gradientUnits="userSpaceOnUse"
       gradientTransform="translate(0.00614929)"
       cx="255.99385"
       cy="256"
       fx="255.99385"
       fy="256"
       r="216" />
    <radialGradient
       inkscape:collect="always"
       xlink:href="#linearGradient3853"
       id="radialGradient3064"
       gradientUnits="userSpaceOnUse"
       gradientTransform="translate(0.00614929)"
       cx="255.99385"
       cy="256"
       fx="255.99385"
       fy="256"
       r="216" />
    <radialGradient
       inkscape:collect="always"
       xlink:href="#linearGradient18236"
       id="radialGradient18242"
       gradientUnits="userSpaceOnUse"
       gradientTransform="translate(0.00614929)"
       cx="255.99385"
       cy="256"
       fx="255.99385"
       fy="256"
       r="216" />
    <linearGradient
       x1="45.447727"
       y1="92.539597"
       x2="45.447727"
       y2="7.0165396"
       id="ButtonShadow-0"
       gradientUnits="userSpaceOnUse"
       gradientTransform="matrix(1.0058652,0,0,0.994169,100,0)">
      <stop
         id="stop3750-8"
         style="stop-color:#000000;stop-opacity:1"
         offset="0" />
      <stop
         id="stop3752-5"
         style="stop-color:#000000;stop-opacity:0.58823532"
         offset="1" />
    </linearGradient>
    <linearGradient
       x1="45.447727"
       y1="92.539597"
       x2="45.447727"
       y2="7.0165396"
       id="linearGradient3413"
       gradientUnits="userSpaceOnUse"
       gradientTransform="matrix(1.0058652,0,0,0.994169,100,0)">
      <stop
         id="stop3415"
         style="stop-color:#000000;stop-opacity:1"
         offset="0" />
      <stop
         id="stop3417"
         style="stop-color:#000000;stop-opacity:0.58823532"
         offset="1" />
    </linearGradient>
    <linearGradient
       x1="45.447727"
       y1="92.539597"
       x2="45.447727"
       y2="7.0165396"
       id="linearGradient3420"
       gradientUnits="userSpaceOnUse"
       gradientTransform="matrix(1.0058652,0,0,0.994169,100,0)">
      <stop
         id="stop3422"
         style="stop-color:#000000;stop-opacity:1"
         offset="0" />
      <stop
         id="stop3424"
         style="stop-color:#000000;stop-opacity:0.58823532"
         offset="1" />
    </linearGradient>
    <linearGradient
       x1="45.447727"
       y1="92.539597"
       x2="45.447727"
       y2="7.0165396"
       id="linearGradient3427"
       gradientUnits="userSpaceOnUse"
       gradientTransform="matrix(1.0058652,0,0,0.994169,100,0)">
      <stop
         id="stop3429"
         style="stop-color:#000000;stop-opacity:1"
         offset="0" />
      <stop
         id="stop3431"
         style="stop-color:#000000;stop-opacity:0.58823532"
         offset="1" />
    </linearGradient>
    <linearGradient
       y2="90.238609"
       x2="32.251034"
       y1="6.1317081"
       x1="32.251034"
       gradientTransform="matrix(5.249022,0,0,-5.1879871,490.01432,-254.02281)"
       gradientUnits="userSpaceOnUse"
       id="linearGradient5380"
       xlink:href="#ButtonShadow-0"
       inkscape:collect="always" />
    <linearGradient
       x1="45.447727"
       y1="92.539597"
       x2="45.447727"
       y2="7.0165396"
       id="linearGradient3434"
       gradientUnits="userSpaceOnUse"
       gradientTransform="matrix(1.0058652,0,0,0.994169,100,0)">
      <stop
         id="stop3436"
         style="stop-color:#000000;stop-opacity:1"
         offset="0" />
      <stop
         id="stop3438"
         style="stop-color:#000000;stop-opacity:0.58823532"
         offset="1" />
    </linearGradient>
    <linearGradient
       x1="45.447727"
       y1="92.539597"
       x2="45.447727"
       y2="7.0165396"
       id="ButtonShadow-0-1-1-5"
       gradientUnits="userSpaceOnUse"
       gradientTransform="matrix(1.0058652,0,0,0.994169,100,0)">
      <stop
         id="stop3750-8-9-3-6"
         style="stop-color:#000000;stop-opacity:1"
         offset="0" />
      <stop
         id="stop3752-5-6-4-2"
         style="stop-color:#000000;stop-opacity:0.58823532"
         offset="1" />
    </linearGradient>
    <linearGradient
       x1="45.447727"
       y1="92.539597"
       x2="45.447727"
       y2="7.0165396"
       id="linearGradient3266"
       gradientUnits="userSpaceOnUse"
       gradientTransform="matrix(1.0058652,0,0,0.994169,100,0)">
      <stop
         id="stop3268"
         style="stop-color:#000000;stop-opacity:1"
         offset="0" />
      <stop
         id="stop3270"
         style="stop-color:#000000;stop-opacity:0.58823532"
         offset="1" />
    </linearGradient>
    <linearGradient
       x1="45.447727"
       y1="92.539597"
       x2="45.447727"
       y2="7.0165396"
       id="linearGradient3273"
       gradientUnits="userSpaceOnUse"
       gradientTransform="matrix(1.0058652,0,0,0.994169,100,0)">
      <stop
         id="stop3275"
         style="stop-color:#000000;stop-opacity:1"
         offset="0" />
      <stop
         id="stop3277"
         style="stop-color:#000000;stop-opacity:0.58823532"
         offset="1" />
    </linearGradient>
    <linearGradient
       x1="45.447727"
       y1="92.539597"
       x2="45.447727"
       y2="7.0165396"
       id="linearGradient3280"
       gradientUnits="userSpaceOnUse"
       gradientTransform="matrix(1.0058652,0,0,0.994169,100,0)">
      <stop
         id="stop3282"
         style="stop-color:#000000;stop-opacity:1"
         offset="0" />
      <stop
         id="stop3284"
         style="stop-color:#000000;stop-opacity:0.58823532"
         offset="1" />
    </linearGradient>
    <linearGradient
       y2="20.625916"
       x2="1006.8082"
       y1="484.41721"
       x1="1012.5133"
       gradientTransform="matrix(1.0074153,0,0,1.0074153,-810.48879,593.1369)"
       gradientUnits="userSpaceOnUse"
       id="linearGradient5342"
       xlink:href="#ButtonShadow-0-1-1-5"
       inkscape:collect="always" />
    <linearGradient
       x1="45.447727"
       y1="92.539597"
       x2="45.447727"
       y2="7.0165396"
       id="linearGradient3287"
       gradientUnits="userSpaceOnUse"
       gradientTransform="matrix(1.0058652,0,0,0.994169,100,0)">
      <stop
         id="stop3289"
         style="stop-color:#000000;stop-opacity:1"
         offset="0" />
      <stop
         id="stop3291"
         style="stop-color:#000000;stop-opacity:0.58823532"
         offset="1" />
    </linearGradient>
    <linearGradient
       inkscape:collect="always"
       xlink:href="#ButtonShadow-0"
       id="linearGradient4020"
       gradientUnits="userSpaceOnUse"
       gradientTransform="matrix(1.1006945,0,0,1.1006945,-124.16193,546.56978)"
       x1="843.49695"
       y1="461.46341"
       x2="843.49695"
       y2="29.463417" />
    <linearGradient
       inkscape:collect="always"
       xlink:href="#ButtonShadow-0"
       id="linearGradient4022"
       gradientUnits="userSpaceOnUse"
       gradientTransform="matrix(1.1087964,0,0,1.1087964,-129.12421,546.33107)"
       x1="843.49695"
       y1="461.46341"
       x2="843.49695"
       y2="29.463417" />
    <linearGradient
       inkscape:collect="always"
       xlink:href="#ButtonShadow-0"
       id="linearGradient4024"
       gradientUnits="userSpaceOnUse"
       gradientTransform="matrix(1.1180557,0,0,1.1180557,-134.79539,546.05826)"
       x1="843.49695"
       y1="461.46341"
       x2="843.49695"
       y2="29.463417" />
    <linearGradient
       inkscape:collect="always"
       xlink:href="#ButtonShadow-0"
       id="linearGradient4026"
       gradientUnits="userSpaceOnUse"
       gradientTransform="matrix(1.1365742,0,0,1.1365742,-146.13776,545.51265)"
       x1="843.49695"
       y1="461.46341"
       x2="843.49695"
       y2="29.463417" />
    <linearGradient
       inkscape:collect="always"
       xlink:href="#ButtonShadow-0"
       id="linearGradient4028"
       gradientUnits="userSpaceOnUse"
       gradientTransform="matrix(1.1273149,0,0,1.1273149,-140.46658,545.78545)"
       x1="843.49695"
       y1="461.46341"
       x2="843.49695"
       y2="29.463417" />
    <linearGradient
       id="linearGradient4487">
      <stop
         id="stop4489"
         style="stop-color:#000000;stop-opacity:1"
         offset="0" />
      <stop
         id="stop4491"
         style="stop-color:#000000;stop-opacity:0"
         offset="1" />
    </linearGradient>
    <linearGradient
       id="linearGradient3737">
      <stop
         id="stop3739"
         style="stop-color:#ffffff;stop-opacity:1"
         offset="0" />
      <stop
         id="stop3741"
         style="stop-color:#ffffff;stop-opacity:0"
         offset="1" />
    </linearGradient>
    <linearGradient
       inkscape:collect="always"
       xlink:href="#linearGradient4046"
       id="linearGradient4086"
       gradientUnits="userSpaceOnUse"
       x1="1764.6487"
       y1="155.59685"
       x2="1763.6903"
       y2="-55.941216"
       gradientTransform="translate(707.53906,80.365959)" />
    <linearGradient
       id="linearGradient4046">
      <stop
         id="stop4048"
         style="stop-color:#000000;stop-opacity:1;"
         offset="0" />
      <stop
         id="stop4050"
         style="stop-color:#ffffff;stop-opacity:0.2"
         offset="1" />
    </linearGradient>
    <radialGradient
       inkscape:collect="always"
       xlink:href="#linearGradient3853"
       id="radialGradient4082"
       gradientUnits="userSpaceOnUse"
       gradientTransform="matrix(1.0925926,0,0,1.0925926,554.30301,402.29629)"
       cx="255.99385"
       cy="256"
       fx="255.99385"
       fy="256"
       r="216" />
    <radialGradient
       inkscape:collect="always"
       xlink:href="#linearGradient18236"
       id="radialGradient4085"
       gradientUnits="userSpaceOnUse"
       gradientTransform="matrix(1.0925926,0,0,1.0925926,554.30301,402.29629)"
       cx="255.99385"
       cy="256"
       fx="255.99385"
       fy="256"
       r="216" />
    <radialGradient
       inkscape:collect="always"
       xlink:href="#linearGradient3853"
       id="radialGradient4088"
       gradientUnits="userSpaceOnUse"
       gradientTransform="matrix(1.0925926,0,0,1.0925926,554.30301,402.29629)"
       cx="255.99385"
       cy="256"
       fx="255.99385"
       fy="256"
       r="216" />
    <radialGradient
       inkscape:collect="always"
       xlink:href="#linearGradient3853"
       id="radialGradient4099"
       gradientUnits="userSpaceOnUse"
       gradientTransform="matrix(1.0925926,0,0,1.0925926,-23.696986,-23.703704)"
       cx="255.99385"
       cy="256"
       fx="255.99385"
       fy="256"
       r="216" />
    <radialGradient
       inkscape:collect="always"
       xlink:href="#linearGradient18236"
       id="radialGradient4103"
       gradientUnits="userSpaceOnUse"
       gradientTransform="matrix(1.0925926,0,0,1.0925926,-23.696986,-23.703704)"
       cx="255.99385"
       cy="256"
       fx="255.99385"
       fy="256"
       r="216" />
    <radialGradient
       inkscape:collect="always"
       xlink:href="#linearGradient3853"
       id="radialGradient4106"
       gradientUnits="userSpaceOnUse"
       gradientTransform="matrix(1.0925926,0,0,1.0925926,-23.696986,-23.703704)"
       cx="255.99385"
       cy="256"
       fx="255.99385"
       fy="256"
       r="216" />
    <radialGradient
       inkscape:collect="always"
       xlink:href="#linearGradient3853"
       id="radialGradient4198"
       gradientUnits="userSpaceOnUse"
       gradientTransform="matrix(1.0925926,0,0,1.0925926,554.30301,402.29629)"
       cx="255.99385"
       cy="256"
       fx="255.99385"
       fy="256"
       r="216" />
    <radialGradient
       inkscape:collect="always"
       xlink:href="#linearGradient18236"
       id="radialGradient4202"
       gradientUnits="userSpaceOnUse"
       gradientTransform="matrix(1.0925926,0,0,1.0925926,554.30301,402.29629)"
       cx="255.99385"
       cy="256"
       fx="255.99385"
       fy="256"
       r="216" />
    <radialGradient
       inkscape:collect="always"
       xlink:href="#linearGradient3853"
       id="radialGradient4206"
       gradientUnits="userSpaceOnUse"
       gradientTransform="matrix(1.0925926,0,0,1.0925926,554.30301,402.29629)"
       cx="255.99385"
       cy="256"
       fx="255.99385"
       fy="256"
       r="216" />
    <radialGradient
       inkscape:collect="always"
       xlink:href="#linearGradient3853"
       id="radialGradient4210"
       gradientUnits="userSpaceOnUse"
       gradientTransform="matrix(1.0925926,0,0,1.0925926,554.30301,402.29629)"
       cx="255.99385"
       cy="256"
       fx="255.99385"
       fy="256"
       r="216" />
    <radialGradient
       inkscape:collect="always"
       xlink:href="#linearGradient18236"
       id="radialGradient4214"
       gradientUnits="userSpaceOnUse"
       gradientTransform="matrix(1.0925926,0,0,1.0925926,554.30301,402.29629)"
       cx="255.99385"
       cy="256"
       fx="255.99385"
       fy="256"
       r="216" />
    <radialGradient
       inkscape:collect="always"
       xlink:href="#linearGradient3853"
       id="radialGradient4218"
       gradientUnits="userSpaceOnUse"
       gradientTransform="matrix(1.0925926,0,0,1.0925926,554.30301,402.29629)"
       cx="255.99385"
       cy="256"
       fx="255.99385"
       fy="256"
       r="216" />
    <radialGradient
       inkscape:collect="always"
       xlink:href="#linearGradient3853"
       id="radialGradient4251"
       gradientUnits="userSpaceOnUse"
       gradientTransform="matrix(1.0925926,0,0,1.0925926,1221.8118,393.81101)"
       cx="255.99385"
       cy="256"
       fx="255.99385"
       fy="256"
       r="216" />
    <radialGradient
       inkscape:collect="always"
       xlink:href="#linearGradient18236"
       id="radialGradient4253"
       gradientUnits="userSpaceOnUse"
       gradientTransform="matrix(1.0925926,0,0,1.0925926,1221.794,388.79692)"
       cx="255.99385"
       cy="256"
       fx="255.99385"
       fy="256"
       r="216" />
    <radialGradient
       inkscape:collect="always"
       xlink:href="#linearGradient3853"
       id="radialGradient4255"
       gradientUnits="userSpaceOnUse"
       gradientTransform="matrix(1.0925926,0,0,1.0925926,1221.8118,393.81101)"
       cx="255.99385"
       cy="256"
       fx="255.99385"
       fy="256"
       r="216" />
    <radialGradient
       inkscape:collect="always"
       xlink:href="#linearGradient3853"
       id="radialGradient4257"
       gradientUnits="userSpaceOnUse"
       gradientTransform="matrix(1.0925926,0,0,1.0925926,1540.0099,20.15476)"
       cx="255.99385"
       cy="256"
       fx="255.99385"
       fy="256"
       r="216" />
    <radialGradient
       inkscape:collect="always"
       xlink:href="#linearGradient3853"
       id="radialGradient4259"
       gradientUnits="userSpaceOnUse"
       gradientTransform="matrix(1.0925926,0,0,1.0925926,554.38284,397.45381)"
       cx="255.99385"
       cy="256"
       fx="255.99385"
       fy="256"
       r="216" />
    <radialGradient
       inkscape:collect="always"
       xlink:href="#linearGradient3853"
       id="radialGradient4289"
       gradientUnits="userSpaceOnUse"
       gradientTransform="matrix(1.0925926,0,0,1.0925926,629.6058,547.93623)"
       cx="255.99385"
       cy="256"
       fx="255.99385"
       fy="256"
       r="216" />
    <radialGradient
       inkscape:collect="always"
       xlink:href="#linearGradient18236"
       id="radialGradient4291"
       gradientUnits="userSpaceOnUse"
       gradientTransform="matrix(1.0925926,0,0,1.0925926,629.6058,547.93623)"
       cx="255.99385"
       cy="256"
       fx="255.99385"
       fy="256"
       r="216" />
    <radialGradient
       inkscape:collect="always"
       xlink:href="#linearGradient3853"
       id="radialGradient4293"
       gradientUnits="userSpaceOnUse"
       gradientTransform="matrix(1.0925926,0,0,1.0925926,629.6058,547.93623)"
       cx="255.99385"
       cy="256"
       fx="255.99385"
       fy="256"
       r="216" />
    <radialGradient
       inkscape:collect="always"
       xlink:href="#linearGradient3853"
       id="radialGradient4296"
       gradientUnits="userSpaceOnUse"
       gradientTransform="matrix(1.0925926,0,0,1.0925926,629.6058,547.93623)"
       cx="255.99385"
       cy="256"
       fx="255.99385"
       fy="256"
       r="216" />
    <radialGradient
       inkscape:collect="always"
       xlink:href="#linearGradient18236"
       id="radialGradient4299"
       gradientUnits="userSpaceOnUse"
       gradientTransform="matrix(1.0925926,0,0,1.0925926,629.6058,547.93623)"
       cx="255.99385"
       cy="256"
       fx="255.99385"
       fy="256"
       r="216" />
    <radialGradient
       inkscape:collect="always"
       xlink:href="#linearGradient3853"
       id="radialGradient4302"
       gradientUnits="userSpaceOnUse"
       gradientTransform="matrix(1.0925926,0,0,1.0925926,629.6058,547.93623)"
       cx="255.99385"
       cy="256"
       fx="255.99385"
       fy="256"
       r="216" />
    <radialGradient
       inkscape:collect="always"
       xlink:href="#linearGradient3853"
       id="radialGradient4313"
       gradientUnits="userSpaceOnUse"
       gradientTransform="matrix(1.0925926,0,0,1.0925926,-23.696986,-23.703704)"
       cx="255.99385"
       cy="256"
       fx="255.99385"
       fy="256"
       r="216" />
    <radialGradient
       inkscape:collect="always"
       xlink:href="#linearGradient18236"
       id="radialGradient4317"
       gradientUnits="userSpaceOnUse"
       gradientTransform="matrix(1.0925926,0,0,1.0925926,-23.696986,-23.703704)"
       cx="255.99385"
       cy="256"
       fx="255.99385"
       fy="256"
       r="216" />
    <radialGradient
       inkscape:collect="always"
       xlink:href="#linearGradient3853"
       id="radialGradient4320"
       gradientUnits="userSpaceOnUse"
       gradientTransform="matrix(1.0925926,0,0,1.0925926,-23.696986,-23.703704)"
       cx="255.99385"
       cy="256"
       fx="255.99385"
       fy="256"
       r="216" />
    <linearGradient
       inkscape:collect="always"
       xlink:href="#linearGradient3737-1"
       id="linearGradient4084"
       gradientUnits="userSpaceOnUse"
       gradientTransform="translate(778.59979,-360.55963)"
       x1="993.43896"
       y1="51.511765"
       x2="988.78552"
       y2="363.73825" />
    <linearGradient
       id="linearGradient3737-1">
      <stop
         id="stop3739-0"
         style="stop-color:#ffffff;stop-opacity:1"
         offset="0" />
      <stop
         id="stop3741-6"
         style="stop-color:#ffffff;stop-opacity:0"
         offset="1" />
    </linearGradient>
    <linearGradient
       y2="363.73825"
       x2="988.78552"
       y1="51.511765"
       x1="993.43896"
       gradientTransform="translate(607.25473,-107.77752)"
       gradientUnits="userSpaceOnUse"
       id="linearGradient3539"
       xlink:href="#linearGradient3737-1"
       inkscape:collect="always" />
    <linearGradient
       inkscape:collect="always"
       xlink:href="#linearGradient4046"
       id="linearGradient4364"
       gradientUnits="userSpaceOnUse"
       gradientTransform="translate(707.53906,80.365959)"
       x1="1764.6487"
       y1="155.59685"
       x2="1763.6903"
       y2="-55.941216" />
    <linearGradient
       inkscape:collect="always"
       xlink:href="#linearGradient3737-1"
       id="linearGradient4366"
       gradientUnits="userSpaceOnUse"
       gradientTransform="translate(607.25473,-107.77752)"
       x1="993.43896"
       y1="51.511765"
       x2="988.78552"
       y2="363.73825" />
    <linearGradient
       inkscape:collect="always"
       xlink:href="#linearGradient3737-1"
       id="linearGradient4369"
       gradientUnits="userSpaceOnUse"
       gradientTransform="translate(-100.28435,541.49644)"
       x1="993.43896"
       y1="51.511765"
       x2="988.78552"
       y2="363.73825" />
    <radialGradient
       inkscape:collect="always"
       xlink:href="#linearGradient3853"
       id="radialGradient4380"
       gradientUnits="userSpaceOnUse"
       gradientTransform="matrix(1.0925926,0,0,1.0925926,629.6058,547.93623)"
       cx="255.99385"
       cy="256"
       fx="255.99385"
       fy="256"
       r="216" />
    <radialGradient
       inkscape:collect="always"
       xlink:href="#linearGradient3853"
       id="radialGradient4388"
       gradientUnits="userSpaceOnUse"
       gradientTransform="matrix(1.0925926,0,0,1.0925926,1227.1955,553.39866)"
       cx="255.99385"
       cy="256"
       fx="255.99385"
       fy="256"
       r="216" />
    <linearGradient
       inkscape:collect="always"
       xlink:href="#linearGradient3737-1"
       id="linearGradient4390"
       gradientUnits="userSpaceOnUse"
       gradientTransform="translate(497.30538,546.95887)"
       x1="993.43896"
       y1="51.511765"
       x2="988.78552"
       y2="363.73825" />
    <radialGradient
       inkscape:collect="always"
       xlink:href="#linearGradient3853"
       id="radialGradient4393"
       gradientUnits="userSpaceOnUse"
       gradientTransform="matrix(1.0925926,0,0,1.0925926,629.6058,547.93623)"
       cx="255.99385"
       cy="256"
       fx="255.99385"
       fy="256"
       r="216" />
    <radialGradient
       inkscape:collect="always"
       xlink:href="#linearGradient18236"
       id="radialGradient4395"
       gradientUnits="userSpaceOnUse"
       gradientTransform="matrix(1.0925926,0,0,1.0925926,629.6058,547.93623)"
       cx="255.99385"
       cy="256"
       fx="255.99385"
       fy="256"
       r="216" />
    <radialGradient
       inkscape:collect="always"
       xlink:href="#linearGradient3853"
       id="radialGradient4397"
       gradientUnits="userSpaceOnUse"
       gradientTransform="matrix(1.0925926,0,0,1.0925926,629.6058,547.93623)"
       cx="255.99385"
       cy="256"
       fx="255.99385"
       fy="256"
       r="216" />
    <radialGradient
       inkscape:collect="always"
       xlink:href="#linearGradient3853"
       id="radialGradient4399"
       gradientUnits="userSpaceOnUse"
       gradientTransform="matrix(1.0925926,0,0,1.0925926,1227.1955,553.39866)"
       cx="255.99385"
       cy="256"
       fx="255.99385"
       fy="256"
       r="216" />
    <radialGradient
       inkscape:collect="always"
       xlink:href="#linearGradient3853"
       id="radialGradient4402"
       gradientUnits="userSpaceOnUse"
       gradientTransform="matrix(1.0925926,0,0,1.0925926,1227.1955,553.39866)"
       cx="255.99385"
       cy="256"
       fx="255.99385"
       fy="256"
       r="216" />
    <radialGradient
       inkscape:collect="always"
       xlink:href="#linearGradient3853"
       id="radialGradient4405"
       gradientUnits="userSpaceOnUse"
       gradientTransform="matrix(1.0925926,0,0,1.0925926,629.6058,547.93623)"
       cx="255.99385"
       cy="256"
       fx="255.99385"
       fy="256"
       r="216" />
    <radialGradient
       inkscape:collect="always"
       xlink:href="#linearGradient18236"
       id="radialGradient4408"
       gradientUnits="userSpaceOnUse"
       gradientTransform="matrix(1.0925926,0,0,1.0925926,629.6058,547.93623)"
       cx="255.99385"
       cy="256"
       fx="255.99385"
       fy="256"
       r="216" />
    <radialGradient
       inkscape:collect="always"
       xlink:href="#linearGradient3853"
       id="radialGradient4411"
       gradientUnits="userSpaceOnUse"
       gradientTransform="matrix(1.0925926,0,0,1.0925926,629.6058,547.93623)"
       cx="255.99385"
       cy="256"
       fx="255.99385"
       fy="256"
       r="216" />
    <radialGradient
       inkscape:collect="always"
       xlink:href="#linearGradient3853"
       id="radialGradient4417"
       gradientUnits="userSpaceOnUse"
       gradientTransform="matrix(1.0925926,0,0,1.0925926,1227.1955,553.39866)"
       cx="255.99385"
       cy="256"
       fx="255.99385"
       fy="256"
       r="216" />
    <radialGradient
       inkscape:collect="always"
       xlink:href="#linearGradient3853"
       id="radialGradient4421"
       gradientUnits="userSpaceOnUse"
       gradientTransform="matrix(1.0925926,0,0,1.0925926,629.6058,547.93623)"
       cx="255.99385"
       cy="256"
       fx="255.99385"
       fy="256"
       r="216" />
    <linearGradient
       inkscape:collect="always"
       xlink:href="#linearGradient3737"
       id="linearGradient4424"
       x1="1510.1709"
       y1="598.18628"
       x2="1513.4771"
       y2="898.64496"
       gradientUnits="userSpaceOnUse"
       gradientTransform="translate(-597.59372,-5.46865)" />
    <linearGradient
       inkscape:collect="always"
       xlink:href="#linearGradient4046"
       id="linearGradient4432"
       x1="908.20435"
       y1="1061.4243"
       x2="910.42065"
       y2="834.18011"
       gradientUnits="userSpaceOnUse" />
    <linearGradient
       inkscape:collect="always"
       xlink:href="#linearGradient4046"
       id="linearGradient4438"
       gradientUnits="userSpaceOnUse"
       x1="908.20435"
       y1="1061.4243"
       x2="910.42065"
       y2="834.18011" />
    <linearGradient
       inkscape:collect="always"
       xlink:href="#linearGradient3737"
       id="linearGradient4440"
       gradientUnits="userSpaceOnUse"
       gradientTransform="translate(-597.59372,-5.46865)"
       x1="1510.1709"
       y1="598.18628"
       x2="1513.4771"
       y2="898.64496" />
  </defs>
  <metadata
     id="metadata7">
    <rdf:RDF>
      <cc:Work
         rdf:about="">
        <dc:format>image/svg+xml</dc:format>
        <dc:type
           rdf:resource="http://purl.org/dc/dcmitype/StillImage" />
        <dc:title />
      </cc:Work>
    </rdf:RDF>
  </metadata>
  <g
     transform="translate(0,-540.36218)"
     inkscape:label="Livello 1"
     inkscape:groupmode="layer"
     id="layer1" />
  <text
     xml:space="preserve"
     style="font-style:normal;font-variant:normal;font-weight:normal;font-stretch:normal;font-size:75px;line-height:125%;font-family:'Gentium Book Basic';-inkscape-font-specification:'Gentium Book Basic';letter-spacing:0px;word-spacing:0px;fill:#000000;fill-opacity:1;stroke:none"
     x="390.96176"
     y="205.03001"
     id="text3835"
     sodipodi:linespacing="125%"><tspan
       sodipodi:role="line"
       id="tspan3837" /></text>
  <g
     id="g4013"
     transform="translate(-530,-559)">
    <path
       inkscape:connector-curvature="0"
       id="path3075"
       d="M 649.0625,579 C 594.18188,579 550,623.18188 550,678.0625 l 0,122.16702 221.22952,0 0,-221.22952 -122.16702,0 z m 155.20798,0 0,475.5 122.16702,0 c 54.8806,0 99.0625,-44.1819 99.0625,-99.0625 l 0,-277.375 C 1025.5,623.18188 981.3181,579 926.4375,579 l -122.16702,0 z M 550,833.27048 550,955.4375 c 0,54.8806 44.18188,99.0625 99.0625,99.0625 l 122.16702,0 0,-221.22952 -221.22952,0 z"
       style="color:#000000;display:inline;overflow:visible;visibility:visible;opacity:0.25;fill:url(#linearGradient4020);fill-opacity:1;fill-rule:nonzero;stroke:none;stroke-width:1.5;marker:none;enable-background:accumulate" />
    <path
       style="color:#000000;display:inline;overflow:visible;visibility:visible;opacity:0.25;fill:url(#linearGradient4022);fill-opacity:1;fill-rule:nonzero;stroke:none;stroke-width:1.5;marker:none;enable-background:accumulate"
       d="M 649.79167,579 C 594.50709,579 550,623.50709 550,678.79167 l 0,123.06625 222.85792,0 0,-222.85792 -123.06625,0 z m 156.35041,0 0,479 123.06622,0 C 984.4929,1058 1029,1013.4929 1029,958.20833 l 0,-279.41666 C 1029,623.50709 984.4929,579 929.2083,579 l -123.06622,0 z M 550,835.14208 550,958.20833 C 550,1013.4929 594.50709,1058 649.79167,1058 l 123.06625,0 0,-222.85792 -222.85792,0 z"
       id="path3997"
       inkscape:connector-curvature="0" />
    <path
       inkscape:connector-curvature="0"
       id="path4001"
       d="M 650.625,579 C 594.87876,579 550,623.87876 550,679.625 l 0,124.09395 224.71895,0 0,-224.71895 -124.09395,0 z m 157.65605,0 0,483 124.09395,0 C 988.1212,1062 1033,1017.1212 1033,961.375 l 0,-281.75 C 1033,623.87876 988.1212,579 932.375,579 l -124.09395,0 z M 550,837.28105 550,961.375 C 550,1017.1212 594.87876,1062 650.625,1062 l 124.09395,0 0,-224.71895 -224.71895,0 z"
       style="color:#000000;display:inline;overflow:visible;visibility:visible;opacity:0.2;fill:url(#linearGradient4024);fill-opacity:1;fill-rule:nonzero;stroke:none;stroke-width:1.5;marker:none;enable-background:accumulate" />
    <path
       style="color:#000000;display:inline;overflow:visible;visibility:visible;opacity:0.07999998;fill:url(#linearGradient4026);fill-opacity:1;fill-rule:nonzero;stroke:none;stroke-width:1.5;marker:none;enable-background:accumulate"
       d="M 652.29167,579 C 595.62209,579 550,624.62209 550,681.29167 l 0,126.14933 228.441,0 0,-228.441 -126.14933,0 z m 160.26733,0 0,491 126.1493,0 C 995.3779,1070 1041,1024.3779 1041,967.70833 l 0,-286.41666 C 1041,624.62209 995.3779,579 938.7083,579 L 812.559,579 Z M 550,841.559 550,967.70833 C 550,1024.3779 595.62209,1070 652.29167,1070 l 126.14933,0 0,-228.441 -228.441,0 z"
       id="path4005"
       inkscape:connector-curvature="0" />
    <path
       inkscape:connector-curvature="0"
       id="path4009"
       d="M 651.45834,579 C 595.25042,579 550,624.25042 550,680.45833 l 0,125.12164 226.57997,0 0,-226.57997 -125.12163,0 z m 158.96169,0 0,487 125.12157,0 C 991.7496,1066 1037,1020.7496 1037,964.54166 l 0,-284.08333 C 1037,624.25042 991.7496,579 935.5416,579 l -125.12157,0 z M 550,839.42003 550,964.54166 C 550,1020.7496 595.25042,1066 651.45834,1066 l 125.12163,0 0,-226.57997 -226.57997,0 z"
       style="color:#000000;display:inline;overflow:visible;visibility:visible;opacity:0.1;fill:url(#linearGradient4028);fill-opacity:1;fill-rule:nonzero;stroke:none;stroke-width:1.5;marker:none;enable-background:accumulate" />
  </g>
  <g
     id="g4322">
    <path
       id="rect4121"
       d="m 20,272.38889 0,121.27778 C 20,448.14333 63.856666,492 118.33333,492 l 121.27779,0 0,-219.61111 -219.61112,0 z"
       style="color:#000000;display:inline;overflow:visible;visibility:visible;fill:url(#radialGradient4320);fill-opacity:1;fill-rule:nonzero;stroke:none;stroke-width:1.5;marker:none;enable-background:accumulate"
       inkscape:connector-curvature="0" />
    <path
       id="rect3045"
       d="m 272.38889,20 0,472 121.27778,0 C 448.14333,492 492,448.14333 492,393.66667 l 0,-275.33334 C 492,63.856666 448.14333,20 393.66667,20 l -121.27778,0 z"
       style="color:#000000;display:inline;overflow:visible;visibility:visible;fill:url(#radialGradient4317);fill-opacity:1;fill-rule:nonzero;stroke:none;stroke-width:1.5;marker:none;enable-background:accumulate"
       inkscape:connector-curvature="0" />
    <path
       id="path8107"
       d="m 129.80555,306.80555 c -2.62231,2e-4 -5.14211,0.12311 -7.54571,0.34145 -2.18528,0.2187 -4.45923,0.51916 -6.86284,0.95601 l 0,59.68287 -54.424777,0 c -0.874103,4.37049 -1.297482,9.16425 -1.297454,14.40857 -2.8e-5,5.46307 0.423351,10.37973 1.297454,14.75 l 54.424777,54.25405 0,5.08738 c 0,-9.6e-4 29.66624,29.66692 35.71412,35.71412 l 88.5,0 0,-88.84143 -95.05557,-95.05556 c -2.62232,-0.43685 -5.14212,-0.73731 -7.54571,-0.95601 -2.40381,-0.21834 -4.80067,-0.34125 -7.20429,-0.34145 z"
       style="font-size:300px;font-family:Aller;-inkscape-font-specification:Aller;fill:#000000;fill-opacity:0.31372549"
       inkscape:connector-curvature="0" />
    <path
       id="path3057"
       d="M 118.33333,20 C 63.856666,20 20,63.856666 20,118.33333 l 0,121.27779 219.61112,0 0,-219.61112 -121.27779,0 z"
       style="color:#000000;display:inline;overflow:visible;visibility:visible;fill:url(#radialGradient4313);fill-opacity:1;fill-rule:nonzero;stroke:none;stroke-width:1.5;marker:none;enable-background:accumulate"
       inkscape:connector-curvature="0" />
    <path
       id="path12183"
       d="m 312.54167,209.76967 c -0.43707,2.18535 -0.77167,4.70514 -0.99017,7.54573 -3e-5,2.62237 -3e-5,5.14216 0,7.54572 -3e-5,2.40384 -3e-5,5.01241 0,7.853 0.2185,2.62236 0.5531,4.93046 0.99017,6.897 l 32.84606,32.77777 -32.84606,0 c -0.43707,2.18528 -0.77167,4.70508 -0.99017,7.54572 -3e-5,2.62231 -3e-5,5.1421 0,7.54572 -3e-5,2.40378 -3e-5,5.01234 0,7.853 0.2185,2.6223 0.5531,4.93041 0.99017,6.897 L 468.23611,457.92478 C 483.06001,440.71685 492,418.26512 492,393.66667 l 0,-143.40278 -40.49421,-40.49422 -138.96412,0 z"
       style="font-size:300px;font-family:Aller;-inkscape-font-specification:Aller;fill:#000000;fill-opacity:0.23529412"
       inkscape:connector-curvature="0" />
    <g
       id="text3839"
       style="font-style:normal;font-variant:normal;font-weight:normal;font-stretch:normal;font-size:81.94444275px;line-height:125%;font-family:'Gentium Book Basic';-inkscape-font-specification:'Gentium Book Basic';letter-spacing:0px;word-spacing:0px;fill:#ffffff;fill-opacity:1;stroke:none">
      <path
         inkscape:connector-curvature="0"
         id="path3132"
         style="font-size:327.777771px;font-family:Aller;-inkscape-font-specification:Aller;fill:#ffffff"
         d="m 451.51945,209.78332 c 0.43687,2.18534 0.76465,4.6983 0.98334,7.53889 0.21835,2.62237 0.32761,5.13533 0.32777,7.53889 -1.6e-4,2.40384 -0.10942,5.02606 -0.32777,7.86666 -0.21869,2.62236 -0.54647,4.9168 -0.98334,6.88334 l -138.97777,0 c -0.43707,-1.96654 -0.76484,-4.26098 -0.98333,-6.88334 -3e-5,-2.8406 -3e-5,-5.46282 0,-7.86666 -3e-5,-2.40356 -3e-5,-4.91652 0,-7.53889 0.21849,-2.84059 0.54626,-5.35355 0.98333,-7.53889 l 138.97777,0 m 0,62.60555 c 0.43687,2.18529 0.76465,4.69825 0.98334,7.53889 0.21835,2.62231 0.32761,5.13527 0.32777,7.53889 -1.6e-4,2.40379 -0.10942,5.02601 -0.32777,7.86667 -0.21869,2.62229 -0.54647,4.91673 -0.98334,6.88333 l -138.97777,0 c -0.43707,-1.9666 -0.76484,-4.26104 -0.98333,-6.88333 -3e-5,-2.84066 -3e-5,-5.46288 0,-7.86667 -3e-5,-2.40362 -3e-5,-4.91658 0,-7.53889 0.21849,-2.84064 0.54626,-5.3536 0.98333,-7.53889 l 138.97777,0" />
    </g>
    <path
       id="path4019"
       d="m 87.365163,114.88484 c -0.43706,2.18529 -0.771666,4.70509 -0.990162,7.54571 -0.218519,2.62233 -0.341458,5.14212 -0.341436,7.54572 -2.2e-5,2.4038 0.122895,5.01236 0.341436,7.85302 0.218496,2.6223 0.553102,4.93041 0.990162,6.89698 l 94.884837,94.88485 57.36112,0 0,-57.36112 -67.36517,-67.36516 -84.880787,0 z"
       style="font-size:300px;font-family:Aller;-inkscape-font-specification:Aller;fill:#000000;fill-opacity:0.31372549"
       inkscape:connector-curvature="0" />
    <g
       id="text3843"
       style="font-style:normal;font-variant:normal;font-weight:normal;font-stretch:normal;font-size:81.94444275px;line-height:125%;font-family:'Gentium Book Basic';-inkscape-font-specification:'Gentium Book Basic';letter-spacing:0px;word-spacing:0px;fill:#ffffff;fill-opacity:1;stroke:none">
      <path
         inkscape:connector-curvature="0"
         id="path3126"
         style="font-size:327.777771px;font-family:Aller;-inkscape-font-specification:Aller;fill:#ffffff"
         d="m 172.25278,114.89165 c 0.43693,2.18529 0.76471,4.69825 0.98333,7.53889 0.21842,2.62232 0.32768,5.13528 0.32778,7.53889 -10e-5,2.40379 -0.10936,5.02601 -0.32778,7.86667 -0.21862,2.6223 -0.5464,4.91674 -0.98333,6.88333 l -84.894443,0 c -0.437054,-1.96659 -0.764831,-4.26103 -0.983334,-6.88333 -0.218534,-2.84066 -0.327793,-5.46288 -0.327778,-7.86667 -1.5e-5,-2.40361 0.109244,-4.91657 0.327778,-7.53889 0.218503,-2.84064 0.54628,-5.3536 0.983334,-7.53889 l 84.894443,0" />
    </g>
    <g
       id="text3847"
       style="font-style:normal;font-variant:normal;font-weight:normal;font-stretch:normal;font-size:81.94444275px;line-height:125%;font-family:'Gentium Book Basic';-inkscape-font-specification:'Gentium Book Basic';letter-spacing:0px;word-spacing:0px;fill:#ffffff;fill-opacity:1;stroke:none">
      <path
         inkscape:connector-curvature="0"
         id="path3129"
         style="font-size:327.777771px;font-family:Aller;-inkscape-font-specification:Aller;fill:#ffffff"
         d="m 115.38333,396.94446 -54.411107,0 c -0.874103,-4.37027 -1.31114,-9.28693 -1.311111,-14.75 -2.9e-5,-5.24432 0.437008,-10.05173 1.311111,-14.42222 l 54.411107,0 0,-59.65556 c 2.40362,-0.43684 4.69806,-0.76462 6.88334,-0.98333 2.40361,-0.21833 4.91657,-0.32759 7.53888,-0.32778 2.40361,1.9e-4 4.80731,0.10945 7.21112,0.32778 2.40359,0.21871 4.91655,0.54649 7.53888,0.98333 l 0,59.65556 54.08334,0 c 0.43687,2.40383 0.76464,4.80753 0.98333,7.21111 0.21835,2.40382 0.32761,4.80752 0.32778,7.21111 -1.7e-4,2.40382 -0.10943,4.91678 -0.32778,7.53889 -0.21869,2.40381 -0.54646,4.80751 -0.98333,7.21111 l -54.08334,0 0,59.32778 c -2.62233,0.43707 -5.13529,0.76485 -7.53888,0.98333 -2.40381,0.21856 -4.80751,0.32782 -7.21112,0.32778 -5.46305,4e-5 -10.27045,-0.437 -14.42222,-1.31111 l 0,-59.32778" />
    </g>
  </g>
  <g
     id="g4434"
     transform="translate(-653.31249,-571.62477)">
    <path
       id="path4283"
       d="m 771.625,591.625 c -5.81652,0 -11.52899,0.50906 -17.0625,1.46875 -0.13496,0.0234 -0.27148,0.0385 -0.40625,0.0625 -0.79854,0.14218 -1.61463,0.30753 -2.40625,0.46875 -1.60306,0.32647 -3.17684,0.69073 -4.75,1.09375 -0.96642,0.24758 -1.95173,0.5054 -2.90625,0.78125 -1.18597,0.34274 -2.36446,0.70819 -3.53125,1.09375 -0.37988,0.12553 -0.74722,0.27624 -1.125,0.40625 -1.3285,0.45718 -2.6358,0.92584 -3.9375,1.4375 -0.74477,0.29275 -1.4831,0.59602 -2.21875,0.90625 -1.45863,0.61513 -2.92246,1.25512 -4.34375,1.9375 -0.0123,0.006 -0.0189,0.0253 -0.0312,0.0312 -1.43329,0.68889 -2.82549,1.40096 -4.21875,2.15625 -0.69663,0.37764 -1.40751,0.76239 -2.09375,1.15625 -1.36012,0.78062 -2.71342,1.59466 -4.03125,2.4375 -0.012,0.008 -0.0193,0.0236 -0.0312,0.0312 -0.65234,0.41802 -1.29591,0.84833 -1.9375,1.28125 -0.012,0.008 -0.0193,0.0232 -0.0312,0.0312 -1.30712,0.88198 -2.58273,1.77646 -3.84375,2.71875 -2.52203,1.88458 -4.95581,3.88639 -7.28125,6 -1.16272,1.05681 -2.29572,2.13898 -3.40625,3.25 -1.11053,1.11102 -2.19368,2.24304 -3.25,3.40625 -0.52816,0.5816 -1.04827,1.15573 -1.5625,1.75 -0.005,0.006 0.005,0.0254 0,0.0312 -0.50882,0.58832 -1.00508,1.18078 -1.5,1.78125 -0.009,0.0113 -0.022,0.02 -0.0312,0.0312 -1.98986,2.41641 -3.8701,4.92818 -5.625,7.53125 -0.15607,0.23129 -0.3146,0.45481 -0.46875,0.6875 -0.28227,0.42645 -0.568,0.85014 -0.84375,1.28125 -0.005,0.007 0.005,0.0238 0,0.0312 -0.84553,1.32269 -1.6546,2.66599 -2.4375,4.03125 -0.007,0.0123 -0.0242,0.019 -0.0312,0.0312 -0.64558,1.12692 -1.27332,2.28285 -1.875,3.4375 -0.12503,0.23995 -0.25189,0.47763 -0.375,0.71875 -0.004,0.008 0.004,0.023 0,0.0312 -0.35653,0.69877 -0.7223,1.38534 -1.0625,2.09375 -0.004,0.008 0.004,0.0228 0,0.0312 -1.37213,2.85937 -2.62264,5.80619 -3.71875,8.8125 -0.48522,1.33081 -0.91489,2.67392 -1.34375,4.03125 -0.057,0.18033 -0.13153,0.35047 -0.1875,0.53125 -0.003,0.01 0.003,0.0217 0,0.0312 -0.23546,0.7614 -0.47008,1.5432 -0.6875,2.3125 -0.44025,1.55772 -0.85399,3.13016 -1.21875,4.71875 -0.36476,1.58859 -0.6815,3.19506 -0.96875,4.8125 -0.28725,1.61744 -0.54229,3.23075 -0.75,4.875 -0.001,0.0102 10e-4,0.021 0,0.0312 -0.10231,0.81193 -0.1987,1.61941 -0.28125,2.4375 -0.001,0.0104 10e-4,0.0209 0,0.0312 -0.0823,0.81825 -0.15646,1.64459 -0.21875,2.46875 -7.9e-4,0.0104 7.8e-4,0.0209 0,0.0312 -0.18768,2.4935 -0.28125,5.01938 -0.28125,7.5625 l 0,121.28125 5,0 0,-123.375 c 0,-53.3225 42.9275,-96.25 96.25,-96.25 l -2.9375,0 z m 272.4375,0 c 53.3225,0 96.25,42.9275 96.25,96.25 l 0,269.5 c 0,53.3225 -42.9275,96.25 -96.25,96.25 l -118.375,0 0,10 121.2813,0 c 0.8511,0 1.6853,-0.01 2.5312,-0.031 1.6814,-0.042 3.3723,-0.1252 5.0312,-0.25 1.6691,-0.1262 3.3558,-0.2923 5,-0.5 0.8222,-0.1039 1.622,-0.2199 2.4376,-0.3438 2.4466,-0.3716 4.8671,-0.8279 7.25,-1.375 3.9714,-0.9119 7.8559,-2.0633 11.625,-3.4375 3.0063,-1.0961 5.9531,-2.3466 8.8124,-3.7187 0.7169,-0.3443 1.4493,-0.7016 2.1563,-1.0626 1.4014,-0.7155 2.7951,-1.4702 4.1563,-2.25 0.012,-0.01 0.019,-0.024 0.031,-0.031 1.3653,-0.7829 2.7086,-1.592 4.0312,-2.4375 0.4417,-0.2825 0.8758,-0.5544 1.3126,-0.8437 0.2192,-0.1452 0.4382,-0.2907 0.6562,-0.4376 0.012,-0.01 0.019,-0.023 0.031,-0.031 1.3076,-0.8815 2.5823,-1.7769 3.8438,-2.7188 0.6307,-0.4709 1.2562,-0.9518 1.875,-1.4374 0.9514,-0.7466 1.89,-1.532 2.8125,-2.3126 0.8717,-0.7379 1.7486,-1.4825 2.5937,-2.25 1.1633,-1.0563 2.2953,-2.1394 3.4063,-3.25 1.661,-1.6602 3.2738,-3.3804 4.8125,-5.1562 0.01,-0.01 -0.01,-0.025 0,-0.031 2.5668,-2.9638 4.9865,-6.0837 7.1875,-9.3438 0,-0.01 0,-0.024 0,-0.031 0.2859,-0.4238 0.5643,-0.8529 0.8437,-1.2813 0.1524,-0.2338 0.3184,-0.4523 0.4688,-0.6875 0.8428,-1.3178 1.6569,-2.6711 2.4375,-4.0312 0.3894,-0.6784 0.7827,-1.374 1.1563,-2.0626 0,-0.01 0,-0.023 0,-0.031 0.1287,-0.2376 0.2481,-0.48 0.375,-0.7188 0.6133,-1.1547 1.2132,-2.3181 1.7812,-3.5 0.01,-0.012 0.025,-0.019 0.031,-0.031 0.3404,-0.7081 0.6763,-1.4075 1,-2.125 0,-0.01 0,-0.023 0,-0.031 0.655,-1.4526 1.2583,-2.9168 1.8438,-4.4063 0.5117,-1.3017 0.9803,-2.609 1.4375,-3.9375 0.065,-0.19007 0.1544,-0.3719 0.2187,-0.5625 0,-0.009 0,-0.0219 0,-0.0312 0.5109,-1.51515 0.9993,-3.04606 1.4376,-4.59375 0,-0.01 0,-0.0216 0,-0.0312 0.2175,-0.76903 0.4257,-1.53581 0.625,-2.3125 0,-0.01 0,-0.0214 0,-0.0312 0.048,-0.18751 0.1092,-0.37455 0.1562,-0.5625 0.344,-1.37873 0.6521,-2.78601 0.9375,-4.1875 0.1612,-0.79162 0.3266,-1.60771 0.4687,-2.40625 0,-0.0101 0,-0.0212 0,-0.0312 0.142,-0.79854 0.2837,-1.60104 0.4063,-2.40625 0,-0.0102 0,-0.0211 0,-0.0312 0.014,-0.0937 0.017,-0.18746 0.031,-0.28125 0.2275,-1.52963 0.437,-3.07273 0.5937,-4.625 0.1663,-1.64659 0.2903,-3.32987 0.375,-5 5e-4,-0.0104 -5e-4,-0.0209 0,-0.0312 0.042,-0.82994 0.072,-1.66462 0.094,-2.5 3e-4,-0.0103 -2e-4,-0.0209 0,-0.0312 0.021,-0.84588 0.031,-1.68005 0.031,-2.53125 l 0,-275.34375 c 0,-2.54312 -0.093,-5.069 -0.2813,-7.5625 -7e-4,-0.0104 8e-4,-0.0209 0,-0.0312 -0.062,-0.82416 -0.1363,-1.6505 -0.2187,-2.46875 -10e-4,-0.0103 10e-4,-0.0209 0,-0.0312 -0.1668,-1.64642 -0.3786,-3.28531 -0.625,-4.90625 -0.2464,-1.62101 -0.551,-3.25021 -0.875,-4.84375 0,-0.01 0,-0.0213 0,-0.0312 -0.3249,-1.59317 -0.6932,-3.18633 -1.0937,-4.75 -0.4006,-1.56375 -0.8384,-3.12399 -1.3126,-4.65625 0,-0.009 0,-0.0218 0,-0.0312 -0.2387,-0.77076 -0.4929,-1.51884 -0.75,-2.28125 -0.514,-1.52482 -1.0707,-3.04136 -1.6562,-4.53125 -0.5855,-1.48989 -1.1888,-2.95332 -1.8438,-4.40625 -0.9823,-2.1794 -2.0545,-4.31572 -3.1874,-6.40625 -0.3734,-0.68887 -0.7671,-1.38377 -1.1563,-2.0625 0,-0.008 0,-0.0235 0,-0.0312 -1.1777,-2.05132 -2.432,-4.04597 -3.75,-6 0,-0.007 0,-0.0242 0,-0.0312 -1.7594,-2.60839 -3.6609,-5.11031 -5.6563,-7.53125 0,-0.006 0.01,-0.0252 0,-0.0312 -0.4952,-0.60058 -1.022,-1.19283 -1.5312,-1.78125 -0.01,-0.006 0.01,-0.0254 0,-0.0312 -1.5434,-1.78281 -3.146,-3.48972 -4.8125,-5.15625 -1.111,-1.11102 -2.243,-2.19319 -3.4063,-3.25 -0.5874,-0.53372 -1.1808,-1.043 -1.7812,-1.5625 -0.5943,-0.51447 -1.1746,-1.03097 -1.7812,-1.53125 -1.2134,-1.00056 -2.4573,-1.96396 -3.7188,-2.90625 -3.1466,-2.35043 -6.451,-4.53422 -9.875,-6.5 -0.01,-0.005 -0.023,0.005 -0.031,0 -0.6865,-0.39386 -1.3657,-0.77861 -2.0626,-1.15625 -2.7873,-1.51057 -5.6504,-2.88407 -8.5937,-4.125 -0.7358,-0.31023 -1.4738,-0.6135 -2.2187,-0.90625 -1.4899,-0.58549 -3.0065,-1.14222 -4.5313,-1.65625 -1.5248,-0.51403 -3.0673,-0.99697 -4.625,-1.4375 -0.7789,-0.22026 -1.557,-0.42349 -2.3437,-0.625 -1.5637,-0.40052 -3.1569,-0.76882 -4.75,-1.09375 -0.01,-0.002 -0.021,0.002 -0.031,0 -0.8016,-0.16324 -1.5975,-0.32503 -2.4063,-0.46875 -5.661,-1.00604 -11.4791,-1.53125 -17.4374,-1.53125 l -2.9063,0 z m -370.75,252.40625 0,121.28125 c 0,0.8512 0.01,1.68537 0.0312,2.53125 2.6e-4,0.0103 -2.6e-4,0.0209 0,0.0312 0.0213,0.83538 0.052,1.67006 0.0937,2.5 5.2e-4,0.0104 -5.2e-4,0.0209 0,0.0312 0.16971,3.35059 0.50606,6.65442 1,9.90625 0.002,0.0101 -0.002,0.0211 0,0.0312 0.12257,0.80521 0.26442,1.60771 0.40625,2.40625 0.002,0.0101 -0.002,0.0212 0,0.0312 0.28596,1.60708 0.60624,3.20271 0.96875,4.78125 0.002,0.01 -0.002,0.0214 0,0.0312 0.36297,1.57834 0.78123,3.1397 1.21875,4.6875 0.003,0.01 -0.003,0.0216 0,0.0312 0.21765,0.76907 0.45181,1.55135 0.6875,2.3125 0.47723,1.54123 0.98157,3.05522 1.53125,4.5625 0.82452,2.2609 1.73692,4.4774 2.71875,6.6563 0.004,0.01 -0.004,0.023 0,0.031 0.32357,0.7175 0.65986,1.4169 1,2.125 0.004,0.01 -0.004,0.023 0,0.031 0.34043,0.7082 0.70574,1.4265 1.0625,2.125 1.0829,2.1203 2.23994,4.192 3.46875,6.2188 0.4096,0.6756 0.82469,1.3353 1.25,2 0.005,0.01 -0.005,0.024 0,0.031 0.84629,1.3219 1.74934,2.629 2.65625,3.9063 0.91192,1.2843 1.8413,2.544 2.8125,3.7813 0.9712,1.2372 1.97155,2.4369 3,3.625 0.005,0.01 -0.005,0.025 0,0.031 0.50927,0.588 1.03958,1.1744 1.5625,1.75 1.05632,1.1627 2.13947,2.2957 3.25,3.4062 1.11053,1.1106 2.24353,2.1937 3.40625,3.25 0.58136,0.5282 1.18722,1.0483 1.78125,1.5626 1.18805,1.0284 2.3878,2.0287 3.625,3 0.6186,0.4856 1.24449,0.9665 1.875,1.4374 1.8846,1.4076 3.82604,2.7595 5.8125,4.0313 0.67189,0.4302 1.34822,0.8359 2.03125,1.25 2.02681,1.2288 4.09845,2.3858 6.21875,3.4687 0.70677,0.361 1.40835,0.7183 2.125,1.0626 2.87449,1.3817 5.82041,2.6161 8.84375,3.7187 3.75886,1.3708 7.63315,2.5267 11.59375,3.4375 0.01,0 0.0214,0 0.0312,0 2.37263,0.5449 4.78278,1.0042 7.21875,1.375 2.45631,0.3739 4.92368,0.6537 7.4375,0.8438 0.83447,0.063 1.6597,0.1139 2.5,0.1562 0.0103,5e-4 0.0209,-5e-4 0.0312,0 0.83001,0.042 1.66455,0.073 2.5,0.094 0.85624,0.022 1.70081,0.031 2.5625,0.031 l 121.28125,0 0,-10 -118.34375,0 c -53.3225,0 -96.25,-42.9275 -96.25,-96.25 l 0,-113.34375 -5,0 z"
       style="color:#000000;display:inline;overflow:visible;visibility:visible;opacity:0.2;fill:url(#linearGradient4438);fill-opacity:1;fill-rule:nonzero;stroke:none;stroke-width:1.5;marker:none;enable-background:accumulate"
       inkscape:connector-curvature="0" />
    <path
       inkscape:connector-curvature="0"
       id="path4374"
       d="m 771.62508,591.6251 c -6.8096,0 -13.4628,0.69411 -19.875,2 -1.4039,0.28572 -2.8065,0.62427 -4.1876,0.96875 -0.9844,0.24556 -1.9652,0.47517 -2.9374,0.75 -0.7691,0.21779 -1.5514,0.45167 -2.3126,0.6875 -0.9649,0.2988 -1.9231,0.6414 -2.875,0.96875 -2.6143,0.89911 -5.1795,1.89254 -7.6874,3 -0.4553,0.20101 -0.9235,0.38608 -1.375,0.59375 -1.2181,0.56024 -2.4035,1.14209 -3.5938,1.75 -0.7068,0.36097 -1.4284,0.74757 -2.125,1.125 -1.3851,0.75134 -2.7503,1.52879 -4.0938,2.34375 -0.6756,0.4096 -1.3665,0.82469 -2.0312,1.25 -1.3219,0.84676 -2.6289,1.74884 -3.9062,2.65625 -1.2844,0.91192 -2.5441,1.8413 -3.7813,2.8125 -0.6186,0.48584 -1.2373,0.99972 -1.8437,1.5 -0.6065,0.50004 -1.2185,0.98577 -1.8126,1.5 -1.7759,1.53881 -3.4958,3.18263 -5.1562,4.84375 -0.5553,0.55527 -1.1144,1.08781 -1.6562,1.65625 -2.173,2.27961 -4.2093,4.67506 -6.1563,7.15625 -0.4856,0.6186 -0.9666,1.21324 -1.4375,1.84375 -0.005,0.007 0.005,0.0246 0,0.0312 -1.4127,1.89223 -2.7553,3.8177 -4.0312,5.8125 -0.4254,0.66471 -0.8404,1.3244 -1.25,2 -2.0535,3.38606 -3.8913,6.89082 -5.5313,10.53125 -0.3273,0.72627 -0.6587,1.45185 -0.9687,2.1875 -0.004,0.009 0.004,0.0226 0,0.0312 -0.3062,0.72688 -0.6173,1.45172 -0.9063,2.1875 -0.004,0.009 0.003,0.0223 0,0.0312 -0.2888,0.73581 -0.5723,1.47429 -0.8437,2.21875 -0.003,0.009 0.003,0.0221 0,0.0312 -0.5497,1.50761 -1.0541,3.02097 -1.5313,4.5625 -0.7158,2.31229 -1.3591,4.64836 -1.9063,7.03125 -0.3647,1.58859 -0.6815,3.19506 -0.9687,4.8125 -0.1436,0.80872 -0.2824,1.62195 -0.4063,2.4375 -0.1238,0.81546 -0.2398,1.61545 -0.3437,2.4375 -0.1054,0.83225 -0.1966,1.66127 -0.2813,2.5 -0.0835,0.82839 -0.1556,1.63428 -0.2187,2.46875 -0.1274,1.67923 -0.2072,3.36023 -0.25,5.0625 -0.0213,0.84588 -0.0313,1.68005 -0.0313,2.53125 0,0.0104 0,0.0209 0,0.0312 l 0,121.28125 5,0 0,-113.375 c 0,-53.3225 42.9275,-96.25 96.25,-96.25 l 118.3438,0 0,-10 -121.2812,0 z m 154.0624,0 0,10 118.37502,0 c 53.3225,0 96.25,42.9275 96.25,96.25 l 0,269.5 c 0,53.3225 -42.9275,96.2501 -96.25,96.2501 l 2.9063,0 c 5.1072,0 10.1067,-0.3814 15,-1.125 0.8155,-0.1239 1.6288,-0.2627 2.4375,-0.4063 1.6174,-0.2872 3.2239,-0.604 4.8125,-0.9687 1.5886,-0.3648 3.161,-0.7786 4.7187,-1.2188 0.7693,-0.2174 1.5512,-0.452 2.3126,-0.6875 0.7707,-0.2389 1.55,-0.493 2.3124,-0.75 0.7625,-0.257 1.5275,-0.5064 2.2813,-0.7814 2.2614,-0.8244 4.4769,-1.7369 6.6563,-2.7186 2.8975,-1.3054 5.7302,-2.7744 8.4687,-4.3437 0.6865,-0.3939 1.3867,-0.7777 2.0625,-1.1876 1.3443,-0.8147 2.6681,-1.6861 3.9688,-2.5624 0.6537,-0.441 1.3263,-0.8876 1.9687,-1.3438 1.2848,-0.9119 2.5436,-1.8413 3.7813,-2.8125 2.4753,-1.9424 4.8502,-4.0201 7.125,-6.1875 0.5686,-0.5421 1.1319,-1.1007 1.6874,-1.6562 1.1111,-1.1111 2.1932,-2.2431 3.25,-3.4063 1.5908,-1.7502 3.1004,-3.5436 4.5626,-5.4064 0.4807,-0.6123 0.9711,-1.2197 1.4374,-1.8436 0.01,-0.01 0,-0.025 0,-0.031 1.4135,-1.8922 2.7547,-3.8177 4.0313,-5.8125 0.4303,-0.6721 0.8358,-1.3479 1.25,-2.0312 0.4098,-0.6758 0.8249,-1.3448 1.2187,-2.0313 0.3939,-0.6862 0.7787,-1.3659 1.1563,-2.0625 0.7553,-1.3936 1.4674,-2.8164 2.1563,-4.25 0.6848,-1.4253 1.3515,-2.881 1.9687,-4.3437 0,-0.01 0,-0.022 0,-0.031 0.3065,-0.727 0.6168,-1.4517 0.9063,-2.1876 0,-0.01 0,-0.022 0,-0.031 0.2891,-0.7359 0.5718,-1.47425 0.8437,-2.21885 0,-0.01 0,-0.022 0,-0.031 0.275,-0.7538 0.5555,-1.4876 0.8125,-2.25 0.7742,-2.2962 1.4562,-4.63024 2.0625,-7 0.403,-1.57341 0.7673,-3.14673 1.0937,-4.75 0.1633,-0.80153 0.3251,-1.59763 0.4688,-2.40625 0.8623,-4.8523 1.3722,-9.83091 1.5,-14.90625 0.021,-0.84588 0.031,-1.68005 0.031,-2.53125 l 0,-0.0312 0,-275.3125 c 0,-0.0104 10e-5,-0.0209 0,-0.0312 0,-0.8512 -0.01,-1.68537 -0.031,-2.53125 -0.1278,-5.07525 -0.6377,-10.05451 -1.5,-14.90625 -0.1437,-0.80872 -0.3055,-1.60462 -0.4688,-2.40625 -0.294,-1.4438 -0.6125,-2.89287 -0.9687,-4.3125 -0.04,-0.15795 -0.085,-0.3111 -0.125,-0.46875 -0.2015,-0.78658 -0.4047,-1.56503 -0.625,-2.34375 -0.6635,-2.34607 -1.421,-4.63598 -2.25,-6.90625 -0.2717,-0.74446 -0.5548,-1.48294 -0.8437,-2.21875 0,-0.009 0,-0.0223 0,-0.0312 -0.2893,-0.73578 -0.6,-1.46062 -0.9063,-2.1875 0,-0.009 0,-0.0225 0,-0.0312 -0.093,-0.21953 -0.1871,-0.43755 -0.2813,-0.65625 -0.5366,-1.24706 -1.1013,-2.46806 -1.6874,-3.6875 -0.6889,-1.43329 -1.401,-2.85674 -2.1563,-4.25 -0.7595,-1.40146 -1.5504,-2.76605 -2.375,-4.125 -0.4098,-0.6756 -0.8245,-1.33529 -1.25,-2 -1.0964,-1.7126 -2.2398,-3.39397 -3.4375,-5.03125 -0.1975,-0.26994 -0.3936,-0.54468 -0.5938,-0.8125 -0.4711,-0.63051 -0.9516,-1.22515 -1.4374,-1.84375 -1.9525,-2.48692 -4.0081,-4.87186 -6.1876,-7.15625 -0.542,-0.56844 -1.0694,-1.10098 -1.625,-1.65625 -1.6665,-1.66653 -3.4046,-3.30034 -5.1874,-4.84375 -0.5943,-0.51423 -1.1746,-0.99996 -1.7813,-1.5 -0.6067,-0.50028 -1.2249,-1.01416 -1.8437,-1.5 -1.2377,-0.9712 -2.4965,-1.90058 -3.7813,-2.8125 -0.6494,-0.46118 -1.3077,-0.89811 -1.9687,-1.34375 -0.6538,-0.44076 -1.3039,-0.88719 -1.9688,-1.3125 -1.3375,-0.85594 -2.6815,-1.64564 -4.0625,-2.4375 -0.6865,-0.39365 -1.3657,-0.77882 -2.0625,-1.15625 -0.6968,-0.37764 -1.3868,-0.76383 -2.0938,-1.125 -1.4139,-0.72193 -2.8595,-1.40795 -4.3124,-2.0625 -2.9059,-1.3091 -5.8879,-2.47258 -8.9376,-3.5 -0.7717,-0.26017 -1.5321,-0.50853 -2.3124,-0.75 -0.7708,-0.23862 -1.5337,-0.46738 -2.3126,-0.6875 -0.7788,-0.22026 -1.557,-0.42349 -2.3437,-0.625 -1.5637,-0.40026 -3.1568,-0.76903 -4.75,-1.09375 -0.01,-0.002 -0.021,0.002 -0.031,0 -0.8016,-0.16313 -1.5975,-0.32513 -2.4062,-0.46875 -1.6274,-0.28921 -3.2517,-0.54137 -4.9062,-0.75 -0.8222,-0.10386 -1.6404,-0.19766 -2.4688,-0.28125 -0.8386,-0.0847 -1.6552,-0.15511 -2.5,-0.21875 -0.8345,-0.0631 -1.6597,-0.11395 -2.5,-0.15625 -1.6807,-0.0847 -3.3601,-0.125 -5.0625,-0.125 l -121.28132,0 z m -252.375,252.40625 0,121.25 0,0.0312 c 0,1.7024 0.0404,3.3819 0.125,5.0625 0.0424,0.84033 0.0932,1.66549 0.1563,2.5 0.0636,0.84481 0.1341,1.66142 0.2187,2.5 0.0836,0.82845 0.1774,1.64663 0.2813,2.46875 0.2085,1.65441 0.461,3.27902 0.75,4.90625 0.2872,1.61725 0.604,3.22414 0.9687,4.8125 0.5472,2.38254 1.1905,4.71941 1.9063,7.03125 0.4146,1.3391 0.8431,2.6865 1.3125,4 0.0682,0.1907 0.1494,0.3724 0.2188,0.5625 0.003,0.01 -0.003,0.022 0,0.031 0.2717,0.7446 0.5547,1.4829 0.8437,2.2188 0.004,0.01 -0.004,0.022 0,0.031 0.2892,0.7359 0.5999,1.4606 0.9063,2.1876 0.6234,1.4804 1.276,2.933 1.9687,4.375 0.3442,0.7168 0.7015,1.418 1.0625,2.125 0.7258,1.422 1.4581,2.807 2.25,4.1874 0.3936,0.6865 0.8091,1.3555 1.2188,2.0313 0.414,0.6833 0.8199,1.3591 1.25,2.0313 1.0957,1.7126 2.2404,3.3939 3.4374,5.0312 0.1925,0.2633 0.3987,0.52 0.5938,0.7812 0.005,0.01 -0.005,0.024 0,0.031 0.4661,0.624 0.957,1.2314 1.4375,1.8437 1.9469,2.4815 3.9832,4.8766 6.1563,7.1563 0.5418,0.5687 1.1009,1.1007 1.6562,1.6563 0.5553,0.5555 1.1191,1.1141 1.6875,1.6562 0.5684,0.5418 1.1374,1.0968 1.7187,1.625 0.5814,0.5284 1.156,1.048 1.75,1.5625 1.1937,1.0338 2.413,2.024 3.6563,3 1.2372,0.9712 2.4969,1.9006 3.7813,2.8125 0.6421,0.456 1.2839,0.903 1.9374,1.3438 0.6536,0.4409 1.3041,0.8869 1.9688,1.3124 1.3364,0.8557 2.6825,1.646 4.0625,2.4376 0.6862,0.3938 1.3659,0.7786 2.0625,1.1562 1.401,0.7596 2.8085,1.4951 4.25,2.1875 0.7166,0.3444 1.43,0.6725 2.1562,1 0.009,0 0.0227,0 0.0313,0 2.1788,0.9818 4.3953,1.8942 6.6563,2.7187 0.7536,0.2751 1.4877,0.5243 2.25,0.7813 0.7714,0.2602 1.5324,0.5085 2.3124,0.75 0.7707,0.2388 1.5338,0.4672 2.3126,0.6875 0.01,0 0.0216,0 0.0312,0 1.5478,0.4375 3.1092,0.8558 4.6875,1.2188 0.01,0 0.0214,0 0.0313,0 1.5883,0.3647 3.164,0.6815 4.7812,0.9687 5.6604,1.0054 11.5104,1.5313 17.4688,1.5313 l 2.9374,0 c -53.3224,0 -96.2499,-42.9276 -96.25,-96.25005 l 0,-123.34375 -5,0 z"
       style="color:#000000;display:inline;overflow:visible;visibility:visible;opacity:0.5;fill:url(#linearGradient4440);fill-opacity:1;fill-rule:nonzero;stroke:none;stroke-width:1.5;marker:none;enable-background:accumulate" />
  </g>
  <path
     sodipodi:nodetypes="ccccccccccccc"
     inkscape:connector-curvature="0"
     id="path8063"
     d="m 101.65625,126.84375 c -0.40002,2.0001 -0.70627,4.30635 -0.90625,6.90625 -0.2,2.40009 -0.31252,4.70634 -0.3125,6.90625 -2e-5,2.20009 0.11248,4.58758 0.3125,7.1875 0.19998,2.40008 0.50623,4.51258 0.90625,6.3125 l 350,349.9999 77.6875,0 c 0.3999,-1.79992 0.70615,-3.91242 0.90625,-6.3125 0.1999,-2.59992 0.3124,-4.98741 0.3125,-7.1875 -10e-5,-2.19991 -0.1126,-4.50616 -0.3125,-6.90625 -0.2001,-2.5999 -0.50635,-4.90615 -0.90625,-6.90625 l -350,-349.9999 z"
     style="font-size:300px;font-family:Aller;-inkscape-font-specification:Aller;display:none;fill:#000000;fill-opacity:0.31372549" />
  <path
     sodipodi:nodetypes="ccccccccccccccccccccccccc"
     inkscape:connector-curvature="0"
     id="path18226"
     d="m 307.75,213.6875 c -0.40003,2.00015 -0.70628,4.3064 -0.90625,6.90625 -3e-5,2.40014 -3e-5,4.70639 0,6.90625 -3e-5,2.20013 -3e-5,4.58763 0,7.1875 0.19997,2.40013 0.50622,4.51263 0.90625,6.3125 l 30.0625,30 -30.0625,0 c -0.40003,2.00009 -0.70628,4.30634 -0.90625,6.90625 -3e-5,2.40008 -3e-5,4.70633 0,6.90625 -3e-5,2.20008 -3e-5,4.58757 0,7.1875 0.19997,2.40007 0.50622,4.51257 0.90625,6.3125 l 349.99835,349.9995 127.1875,0 c 0.39984,-1.79993 0.70609,-3.91243 0.90625,-6.3125 0.19984,-2.59993 0.31234,-4.98742 0.3125,-7.1875 -1.6e-4,-2.19992 -0.11266,-4.50617 -0.3125,-6.90625 -0.20016,-2.59991 -0.50641,-4.90616 -0.90625,-6.90625 l -30.05875,-29.9994 30.0625,0 c 0.39984,-1.79988 0.70609,-3.91237 0.90625,-6.3125 0.19984,-2.59987 0.31234,-4.98737 0.3125,-7.1875 -1.6e-4,-2.19986 -0.11266,-4.50611 -0.3125,-6.90625 -0.20016,-2.59985 -0.50641,-4.9061 -0.90625,-6.90625 L 434.9375,213.6875 Z"
     style="font-size:300px;font-family:Aller;-inkscape-font-specification:Aller;display:none;fill:#000000;fill-opacity:0.31372549" />
  <path
     sodipodi:nodetypes="cccccccccccccccccccccccc"
     inkscape:connector-curvature="0"
     id="path18228"
     d="m 140.5,302.5 c -2.40009,1.7e-4 -4.70634,0.11267 -6.90625,0.3125 -2.00008,0.20017 -4.08133,0.47517 -6.28125,0.875 l 0,54.625 -49.8125,0 c -0.800026,4.00011 -1.187526,8.38761 -1.1875,13.1875 -2.6e-5,5.0001 0.387474,9.50009 1.1875,13.5 l 49.8125,49.65625 0,4.65625 c 0,-0.01 350,350 350,350 3.79992,0.80003 8.18741,1.18753 13.1875,1.1875 2.19991,3e-5 4.39366,-0.11247 6.59375,-0.3125 2.1999,-0.19997 4.50615,-0.47497 6.90625,-0.875 L 504,735 l 49.5,0 c 0.39985,-2.19991 0.7061,-4.39366 0.90625,-6.59375 0.19985,-2.3999 0.2811,-4.70615 0.28125,-6.90625 -1.5e-4,-2.1999 -0.0814,-4.39364 -0.28125,-6.59375 -0.20015,-2.19989 -0.5064,-4.39364 -0.90625,-6.59375 L 504,659 l 0,-5.3125 -350,-350 c -2.4001,-0.39983 -4.70635,-0.67483 -6.90625,-0.875 -2.20009,-0.19983 -4.39384,-0.31233 -6.59375,-0.3125 z"
     style="font-size:300px;font-family:Aller;-inkscape-font-specification:Aller;display:none;fill:#000000;fill-opacity:0.31372549" />
  <g
     id="g4076"
     transform="translate(-659.75566,137.30563)">
    <g
       transform="translate(-926.66758,684.38448)"
       id="g4038" />
  </g>
</svg>
