<?xml version="1.0" encoding="UTF-8" standalone="no"?>
<!-- Created with Inkscape (http://www.inkscape.org/) -->

<svg
   xmlns:dc="http://purl.org/dc/elements/1.1/"
   xmlns:cc="http://creativecommons.org/ns#"
   xmlns:rdf="http://www.w3.org/1999/02/22-rdf-syntax-ns#"
   xmlns:svg="http://www.w3.org/2000/svg"
   xmlns="http://www.w3.org/2000/svg"
   xmlns:xlink="http://www.w3.org/1999/xlink"
   xmlns:sodipodi="http://sodipodi.sourceforge.net/DTD/sodipodi-0.dtd"
   xmlns:inkscape="http://www.inkscape.org/namespaces/inkscape"
   width="512"
   height="512"
   id="svg2"
   version="1.1"
   inkscape:version="0.48.3.1 r9886"
   sodipodi:docname="deviantart.svg"
   inkscape:export-filename="/home/alecive/Scrivania/firefoxTest1.png"
   inkscape:export-xdpi="100"
   inkscape:export-ydpi="100">
  <sodipodi:namedview
     id="base"
     pagecolor="#ffffff"
     bordercolor="#666666"
     borderopacity="1.0"
     inkscape:pageopacity="0.0"
     inkscape:pageshadow="2"
     inkscape:zoom="29.91573"
     inkscape:cx="482.25116"
     inkscape:cy="329.29264"
     inkscape:document-units="px"
     inkscape:current-layer="svg2"
     showgrid="false"
     inkscape:window-width="1305"
     inkscape:window-height="744"
     inkscape:window-x="61"
     inkscape:window-y="24"
     inkscape:window-maximized="1"
     inkscape:object-paths="false"
     inkscape:snap-intersection-paths="false"
     inkscape:object-nodes="true"
     inkscape:snap-smooth-nodes="true"
     inkscape:snap-nodes="true" />
  <defs
     id="defs4">
    <linearGradient
       y2="48.0854"
       x2="78.466103"
       y1="56.3008"
       x1="64.477501"
       gradientUnits="userSpaceOnUse"
       id="XMLID_74_-8-1">
      <stop
         id="stop155-3-8"
         style="stop-color:#ffffff;stop-opacity:1;"
         offset="0" />
      <stop
         id="stop157-94-6"
         style="stop-color:#e6e6e6;stop-opacity:1;"
         offset="1" />
    </linearGradient>
    <radialGradient
       gradientUnits="userSpaceOnUse"
       gradientTransform="matrix(1,0,0,1.0499906,0,-19.270593)"
       r="191.6187"
       fy="385.4841"
       fx="558.35437"
       cy="385.4841"
       cx="558.35437"
       id="radialGradient3867"
       xlink:href="#XMLID_74_-8-1"
       inkscape:collect="always" />
    <linearGradient
       y2="217.4595"
       x2="200.0508"
       y1="185.0742"
       x1="200.0508"
       gradientUnits="userSpaceOnUse"
       id="SVGID_2_">
      <stop
         id="stop13"
         style="stop-color:#61B74A"
         offset="0" />
      <stop
         id="stop15"
         style="stop-color:#449934"
         offset="1" />
    </linearGradient>
    <linearGradient
       inkscape:collect="always"
       xlink:href="#SVGID_2_"
       id="linearGradient3021"
       gradientUnits="userSpaceOnUse"
       gradientTransform="matrix(13.577628,0,0,13.577628,-2026.1619,-2566.7096)"
       x1="200.0508"
       y1="185.0742"
       x2="200.0508"
       y2="217.4595" />
    <linearGradient
       y2="217.4595"
       x2="200.0508"
       y1="185.0742"
       x1="200.0508"
       gradientTransform="matrix(9.2574736,0,0,9.2574736,-1595.9285,-1607.2111)"
       gradientUnits="userSpaceOnUse"
       id="linearGradient3017"
       xlink:href="#SVGID_2_"
       inkscape:collect="always" />
    <linearGradient
       inkscape:collect="always"
       xlink:href="#SVGID_2_"
       id="linearGradient3803"
       x1="259.99384"
       y1="44"
       x2="259.99384"
       y2="464"
       gradientUnits="userSpaceOnUse" />
    <linearGradient
       y2="464"
       x2="259.99384"
       y1="44"
       x1="259.99384"
       gradientUnits="userSpaceOnUse"
       id="linearGradient3018"
       xlink:href="#SVGID_2_"
       inkscape:collect="always" />
    <linearGradient
       y2="251.66064"
       x2="1011.9534"
       y1="476.25983"
       x1="1016.1035"
       gradientTransform="translate(-146.22032,369.08845)"
       gradientUnits="userSpaceOnUse"
       id="linearGradient4082"
       xlink:href="#linearGradient4487"
       inkscape:collect="always" />
    <linearGradient
       id="linearGradient4487">
      <stop
         offset="0"
         style="stop-color:#000000;stop-opacity:1"
         id="stop4489" />
      <stop
         offset="1"
         style="stop-color:#000000;stop-opacity:0"
         id="stop4491" />
    </linearGradient>
    <linearGradient
       y2="363.73825"
       x2="988.78552"
       y1="51.511765"
       x1="993.43896"
       gradientTransform="translate(778.59979,-360.55963)"
       gradientUnits="userSpaceOnUse"
       id="linearGradient4084"
       xlink:href="#linearGradient3737"
       inkscape:collect="always" />
    <linearGradient
       id="linearGradient3737">
      <stop
         offset="0"
         style="stop-color:#ffffff;stop-opacity:1"
         id="stop3739" />
      <stop
         offset="1"
         style="stop-color:#ffffff;stop-opacity:0"
         id="stop3741" />
    </linearGradient>
    <linearGradient
       y2="-55.941216"
       x2="1763.6903"
       y1="155.59685"
       x1="1764.6487"
       gradientUnits="userSpaceOnUse"
       id="linearGradient4086"
       xlink:href="#linearGradient4046"
       inkscape:collect="always" />
    <linearGradient
       id="linearGradient4046">
      <stop
         offset="0"
         style="stop-color:#000000;stop-opacity:1;"
         id="stop4048" />
      <stop
         offset="1"
         style="stop-color:#ffffff;stop-opacity:0.2"
         id="stop4050" />
    </linearGradient>
    <linearGradient
       y2="20.625916"
       x2="1006.8082"
       y1="484.41721"
       x1="1012.5133"
       gradientTransform="matrix(1.0317796,0,0,1.0317796,-830.86406,592.67791)"
       gradientUnits="userSpaceOnUse"
       id="linearGradient4114-2"
       xlink:href="#ButtonShadow-0-1-1-5"
       inkscape:collect="always" />
    <linearGradient
       gradientTransform="matrix(1.0058652,0,0,0.994169,100,0)"
       gradientUnits="userSpaceOnUse"
       id="ButtonShadow-0-1-1-5"
       y2="7.0165396"
       x2="45.447727"
       y1="92.539597"
       x1="45.447727">
      <stop
         offset="0"
         style="stop-color:#000000;stop-opacity:1"
         id="stop3750-8-9-3-6" />
      <stop
         offset="1"
         style="stop-color:#000000;stop-opacity:0.58823532"
         id="stop3752-5-6-4-2" />
    </linearGradient>
    <linearGradient
       y2="20.625916"
       x2="1006.8082"
       y1="484.41721"
       x1="1012.5133"
       gradientTransform="matrix(1.0402541,0,0,1.0402541,-837.95116,592.51825)"
       gradientUnits="userSpaceOnUse"
       id="linearGradient4112-2"
       xlink:href="#ButtonShadow-0-1-1-5"
       inkscape:collect="always" />
    <linearGradient
       gradientTransform="matrix(1.0058652,0,0,0.994169,100,0)"
       gradientUnits="userSpaceOnUse"
       id="linearGradient3395"
       y2="7.0165396"
       x2="45.447727"
       y1="92.539597"
       x1="45.447727">
      <stop
         offset="0"
         style="stop-color:#000000;stop-opacity:1"
         id="stop3397" />
      <stop
         offset="1"
         style="stop-color:#000000;stop-opacity:0.58823532"
         id="stop3399" />
    </linearGradient>
    <linearGradient
       y2="20.625916"
       x2="1006.8082"
       y1="484.41721"
       x1="1012.5133"
       gradientTransform="matrix(1.023305,0,0,1.023305,-823.77704,592.83757)"
       gradientUnits="userSpaceOnUse"
       id="linearGradient4110-6"
       xlink:href="#ButtonShadow-0-1-1-5"
       inkscape:collect="always" />
    <linearGradient
       gradientTransform="matrix(1.0058652,0,0,0.994169,100,0)"
       gradientUnits="userSpaceOnUse"
       id="linearGradient3402"
       y2="7.0165396"
       x2="45.447727"
       y1="92.539597"
       x1="45.447727">
      <stop
         offset="0"
         style="stop-color:#000000;stop-opacity:1"
         id="stop3404" />
      <stop
         offset="1"
         style="stop-color:#000000;stop-opacity:0.58823532"
         id="stop3406" />
    </linearGradient>
    <linearGradient
       y2="20.625916"
       x2="1006.8082"
       y1="484.41721"
       x1="1012.5133"
       gradientTransform="matrix(1.0148305,0,0,1.0148305,-816.68996,592.99723)"
       gradientUnits="userSpaceOnUse"
       id="linearGradient4116-6"
       xlink:href="#ButtonShadow-0-1-1-5"
       inkscape:collect="always" />
    <linearGradient
       gradientTransform="matrix(1.0058652,0,0,0.994169,100,0)"
       gradientUnits="userSpaceOnUse"
       id="linearGradient3409"
       y2="7.0165396"
       x2="45.447727"
       y1="92.539597"
       x1="45.447727">
      <stop
         offset="0"
         style="stop-color:#000000;stop-opacity:1"
         id="stop3411" />
      <stop
         offset="1"
         style="stop-color:#000000;stop-opacity:0.58823532"
         id="stop3413" />
    </linearGradient>
    <linearGradient
       inkscape:collect="always"
       xlink:href="#ButtonShadow-0-1-1-5"
       id="linearGradient5342"
       gradientUnits="userSpaceOnUse"
       gradientTransform="matrix(1.0074153,0,0,1.0074153,-810.48879,593.1369)"
       x1="1012.5133"
       y1="484.41721"
       x2="1006.8082"
       y2="20.625916" />
    <linearGradient
       gradientTransform="matrix(1.0058652,0,0,0.994169,100,0)"
       gradientUnits="userSpaceOnUse"
       id="linearGradient3416"
       y2="7.0165396"
       x2="45.447727"
       y1="92.539597"
       x1="45.447727">
      <stop
         offset="0"
         style="stop-color:#000000;stop-opacity:1"
         id="stop3418" />
      <stop
         offset="1"
         style="stop-color:#000000;stop-opacity:0.58823532"
         id="stop3420" />
    </linearGradient>
    <linearGradient
       inkscape:collect="always"
       xlink:href="#ButtonShadow-0-1-1-5"
       id="linearGradient3433"
       gradientUnits="userSpaceOnUse"
       gradientTransform="matrix(1.0074153,0,0,1.0074153,-810.48879,593.1369)"
       x1="1012.5133"
       y1="484.41721"
       x2="1006.8082"
       y2="20.625916" />
    <linearGradient
       y2="138.66119"
       y1="20.220806"
       xlink:href="#linearGradient3737-1"
       x2="48"
       x1="48"
       id="linearGradient3613"
       gradientUnits="userSpaceOnUse" />
    <linearGradient
       id="linearGradient3737-1">
      <stop
         stop-color="#ffffff"
         offset="0"
         id="stop3739-3" />
      <stop
         stop-opacity="0"
         stop-color="#ffffff"
         offset="1"
         id="stop3741-8" />
    </linearGradient>
    <clipPath
       id="clipPath3613">
      <rect
         y="6"
         x="6"
         width="84"
         rx="6"
         id="rect3615"
         height="84"
         style="fill:#ffffff" />
    </clipPath>
    <filter
       y="-0.192"
       x="-0.192"
       width="1.3839999"
       id="filter3794"
       height="1.3839999"
       color-interpolation-filters="sRGB">
      <feGaussianBlur
         stdDeviation="5.28"
         id="feGaussianBlur3796" />
    </filter>
  </defs>
  <metadata
     id="metadata7">
    <rdf:RDF>
      <cc:Work
         rdf:about="">
        <dc:format>image/svg+xml</dc:format>
        <dc:type
           rdf:resource="http://purl.org/dc/dcmitype/StillImage" />
        <dc:title />
      </cc:Work>
    </rdf:RDF>
  </metadata>
  <g
     id="layer1"
     inkscape:groupmode="layer"
     inkscape:label="Livello 1"
     transform="translate(0,-540.36218)" />
  <g
     transform="translate(-11.985063,-592.11719)"
     id="g4103">
    <rect
       style="opacity:0.1;color:#000000;fill:url(#linearGradient4114-2);fill-opacity:1;fill-rule:nonzero;stroke:none;stroke-width:1.5;marker:none;visibility:visible;display:inline;overflow:visible;enable-background:accumulate"
       id="rect6187"
       width="487"
       height="487"
       x="31.985071"
       y="612.11719"
       ry="101.45834" />
    <rect
       ry="102.29167"
       y="612.11719"
       x="31.985071"
       height="491"
       width="491"
       id="rect6191"
       style="opacity:0.07999998;color:#000000;fill:url(#linearGradient4112-2);fill-opacity:1;fill-rule:nonzero;stroke:none;stroke-width:1.5;marker:none;visibility:visible;display:inline;overflow:visible;enable-background:accumulate" />
    <rect
       ry="100.62501"
       y="612.11719"
       x="31.985071"
       height="483"
       width="483"
       id="rect6183"
       style="opacity:0.2;color:#000000;fill:url(#linearGradient4110-6);fill-opacity:1;fill-rule:nonzero;stroke:none;stroke-width:1.5;marker:none;visibility:visible;display:inline;overflow:visible;enable-background:accumulate" />
    <rect
       style="opacity:0.25;color:#000000;fill:url(#linearGradient4116-6);fill-opacity:1;fill-rule:nonzero;stroke:none;stroke-width:1.5;marker:none;visibility:visible;display:inline;overflow:visible;enable-background:accumulate"
       id="rect6179"
       width="479"
       height="479"
       x="31.985071"
       y="612.11719"
       ry="99.791664" />
    <rect
       ry="99.0625"
       y="612.11719"
       x="31.985071"
       height="475.5"
       width="475.5"
       id="rect5574"
       style="opacity:0.25;color:#000000;fill:url(#linearGradient3433);fill-opacity:1;fill-rule:nonzero;stroke:none;stroke-width:1.5;marker:none;visibility:visible;display:inline;overflow:visible;enable-background:accumulate" />
  </g>
  <g
     id="g8120">
    <rect
       style="color:#000000;fill:#596f5e;fill-opacity:1;fill-rule:nonzero;stroke:none;stroke-width:1.5;marker:none;visibility:visible;display:inline;overflow:visible;enable-background:accumulate"
       id="rect4121"
       width="472"
       height="472"
       x="20.000008"
       y="19.999998"
       ry="98.333336" />
    <g
       id="g8114">
      <g
         id="g8110">
        <path
           id="path3997"
           d="m 84.8125,105.125 30.84375,65.40625 C 83.370583,182.56208 56.88749,197.89994 38.625,215.375 l 0,191.5 c 0.01562,0.0156 85.53125,85.1252 85.53125,85.1252 l 269.5,0 C 448.13292,492 492,448.13292 492,393.65625 L 492,191 473.375,172.25005 C 386.67022,140.60501 289.53118,135.32203 206.84375,147.6563 l -42.4687,-42.53125 z m 51.8125,109.28125 43.65625,92.34375 -83.0625,20.1875 -0.375,0 c -16.02514,1.5874 -19.16039,-1.56889 -19.8125,-20 -0.89389,-42.11847 23.30496,-72.24289 59.59375,-92.53125 z"
           style="fill:#000000;fill-opacity:0.23529412"
           inkscape:connector-curvature="0"
           sodipodi:nodetypes="cccccssccccccccccc" />
        <path
           style="fill:#c8dc25"
           d="m 84.828123,105.10938 30.843747,65.40625 c -32.285667,12.03083 -58.768757,27.36869 -77.031247,44.84375 l 0,191.53124 240.062497,-65.96875 -4,-8.25 -69.15625,-142.9375 c 23.98132,-5.04084 49.29656,-7.53028 74.3125,-7.78125 75.04787,-0.7529 146.68147,18.97862 165.93751,53.1875 1.02611,4.97797 -0.81036,6.47134 -13.375,10.46875 l -85.40626,20.78125 -33.375,-67.9375 c -10.3535,-0.44094 -20.16918,-0.51038 -29.3125,-0.375 -19.51603,0.28942 -36.71365,1.78319 -53.5625,4.25 l 61.65625,126.46875 3.5625,7.28125 177.37501,-48.71875 0,-115.09375 C 379.51042,138.01314 273.4443,134.6875 186.70312,151.10938 l -22.3125,-46 -79.562497,0 z m 51.812497,109.28125 43.65625,92.37499 -83.062497,20.1875 -0.375,0 c -16.02514,1.5874 -19.16039,-1.56889 -19.8125,-20 -0.89389,-42.11847 23.304957,-72.27414 59.593747,-92.5625 z"
           id="rect2934"
           inkscape:connector-curvature="0" />
      </g>
      <path
         id="path3908"
         d="M 118.34375 20 C 63.867082 20 20 63.867082 20 118.34375 L 20 393.65625 C 20 448.13292 63.867082 492 118.34375 492 L 393.65625 492 C 448.13292 492 492 448.13292 492 393.65625 L 492 118.34375 C 492 63.867082 448.13292 20 393.65625 20 L 118.34375 20 z M 369.4375 46.8125 C 371.41696 46.822849 373.39666 46.866442 375.375 46.9375 C 410.99539 45.988034 444.88948 69.15928 458.375 101.8125 C 467.06304 120.24124 464.15354 141.01848 464.90625 160.75 C 465.1848 232.71861 464.871 304.69059 464.875 376.65625 C 466.2477 424.03543 422.79689 467.3117 375.25 464.65625 C 295.82604 465.51131 216.39276 464.73344 136.96875 464.9375 C 93.51873 466.77943 53.083949 431.50002 47.75 388.625 C 46.302619 333.84209 47.190995 278.99582 47.0625 224.1875 C 47.420559 194.10219 46.640009 164.01496 47.15625 133.9375 C 46.646123 90.188168 83.810682 50.856988 127.0625 47.34375 C 205.85878 46.42875 284.69187 47.464901 363.5 46.84375 C 365.47926 46.826897 367.45804 46.802151 369.4375 46.8125 z "
         style="color:#000000;fill:#c8dc25;fill-opacity:1;fill-rule:nonzero;stroke:none;stroke-width:1.50000000000000000;marker:none;visibility:visible;display:inline;overflow:visible;enable-background:accumulate" />
    </g>
  </g>
  <g
     transform="translate(-605.51931,-353.96832)"
     id="g4076">
    <g
       id="g4038"
       transform="translate(-926.66758,684.38448)">
      <path
         id="rect6809-2"
         d="m 1650.4994,-310.41615 c -54.4767,0 -98.3125,43.83583 -98.3125,98.3125 l 0,275.343747 c 0,54.476673 43.8358,98.343753 98.3125,98.343753 l 2.9375,0 c -53.3225,0 -96.25,-42.9275 -96.25,-96.250003 l 0,-269.499997 c 0,-53.3225 42.9275,-96.25 96.25,-96.25 l 269.5001,0 c 53.3225,0 96.25,42.9275 96.25,96.25 l 0,269.499997 c 0,53.322503 -42.9275,96.250003 -96.25,96.250003 l 2.9062,0 c 54.4767,0 98.3438,-43.86708 98.3438,-98.343753 l 0,-275.343747 c 0,-54.47667 -43.8671,-98.3125 -98.3438,-98.3125 l -275.3438,0 z"
         style="opacity:0.3;color:#000000;fill:url(#linearGradient4084);fill-opacity:1;fill-rule:nonzero;stroke:none;stroke-width:1.50000000000000000;marker:none;visibility:visible;display:inline;overflow:visible;enable-background:accumulate"
         inkscape:connector-curvature="0" />
      <path
         inkscape:connector-curvature="0"
         style="opacity:0.2;color:#000000;fill:url(#linearGradient4086);fill-opacity:1;fill-rule:nonzero;stroke:none;stroke-width:1.5;marker:none;visibility:visible;display:inline;overflow:visible;enable-background:accumulate"
         d="m 1650.4994,161.58385 c -54.4767,0 -98.3125,-43.83583 -98.3125,-98.312503 l 0,-275.343747 c 0,-54.47667 43.8358,-98.34375 98.3125,-98.34375 l 2.9375,0 c -53.3225,0 -96.25,42.9275 -96.25,96.25 l 0,269.499997 c 0,53.322503 42.9275,96.250003 96.25,96.250003 l 269.5001,0 c 53.3225,0 96.25,-42.9275 96.25,-96.250003 l 0,-269.499997 c 0,-53.3225 -42.9275,-96.25 -96.25,-96.25 l 2.9062,0 c 54.4767,0 98.3438,43.86708 98.3438,98.34375 l 0,275.343747 c 0,54.476673 -43.8671,98.312503 -98.3438,98.312503 l -275.3438,0 z"
         id="path3981" />
    </g>
  </g>
  <path
     style="fill:#c8dc25"
     inkscape:connector-curvature="0"
     d="m 679.95342,39.449458 c -13.76253,0 -24.84211,11.07958 -24.84211,24.842107 l 0,422.315785 c 0,13.76253 11.07958,24.84211 24.84211,24.84211 l 422.31578,0 c 13.7625,0 24.8421,-11.07958 24.8421,-24.84211 l 0,-422.315785 c 0,-13.762527 -11.0796,-24.842107 -24.8421,-24.842107 l -422.31578,0 z m -7.76316,18.63158 434.73684,0 0,151.769742 c -93.849,-34.25249 -199.91343,-37.57649 -286.65461,-21.15461 l -22.31908,-45.99671 -79.57236,0 30.85855,65.40461 c -32.28567,12.03084 -58.78685,27.35717 -77.04934,44.83223 l 0,-194.855262 z M 913.43039,219.55472 c 75.04787,-0.7529 146.68141,18.96876 165.93751,53.17764 1.0261,4.97797 -0.8268,6.48285 -13.3915,10.48026 l -85.3947,20.76645 -33.38158,-67.92764 c -10.3535,-0.44094 -20.16259,-0.52354 -29.30591,-0.38816 -19.51603,0.28942 -36.71695,1.80293 -53.5658,4.26974 l 65.21053,133.7204 177.38816,-48.71382 0,167.87829 -434.73684,0 0,-48.32566 240.07566,-65.98684 -73.16776,-151.1875 c 23.98132,-5.04084 49.31629,-7.51219 74.33223,-7.76316 z m -143.23027,32.41119 43.66777,92.38158 -83.06579,20.18421 -0.38816,0 c -16.02514,1.5874 -19.14394,-1.55903 -19.79605,-19.99014 -0.89389,-42.11848 23.29344,-72.28729 59.58223,-92.57565 z"
     id="path3053" />
</svg>
