<?xml version="1.0" encoding="UTF-8" standalone="no"?>
<!-- Created with Inkscape (http://www.inkscape.org/) -->

<svg
   xmlns:dc="http://purl.org/dc/elements/1.1/"
   xmlns:cc="http://creativecommons.org/ns#"
   xmlns:rdf="http://www.w3.org/1999/02/22-rdf-syntax-ns#"
   xmlns:svg="http://www.w3.org/2000/svg"
   xmlns="http://www.w3.org/2000/svg"
   xmlns:xlink="http://www.w3.org/1999/xlink"
   xmlns:sodipodi="http://sodipodi.sourceforge.net/DTD/sodipodi-0.dtd"
   xmlns:inkscape="http://www.inkscape.org/namespaces/inkscape"
   width="512"
   height="512"
   id="svg2"
   version="1.1"
   inkscape:version="0.48.3.1 r9886"
   sodipodi:docname="deviantart.svg"
   inkscape:export-filename="/home/alecive/Scrivania/firefoxTest1.png"
   inkscape:export-xdpi="100"
   inkscape:export-ydpi="100">
  <sodipodi:namedview
     id="base"
     pagecolor="#ffffff"
     bordercolor="#666666"
     borderopacity="1.0"
     inkscape:pageopacity="0.0"
     inkscape:pageshadow="2"
     inkscape:zoom="0.71966615"
     inkscape:cx="367.77246"
     inkscape:cy="209.9092"
     inkscape:document-units="px"
     inkscape:current-layer="svg2"
     showgrid="false"
     inkscape:window-width="1301"
     inkscape:window-height="744"
     inkscape:window-x="65"
     inkscape:window-y="24"
     inkscape:window-maximized="1"
     inkscape:object-paths="false"
     inkscape:snap-intersection-paths="false"
     inkscape:object-nodes="true"
     inkscape:snap-smooth-nodes="true"
     inkscape:snap-nodes="true" />
  <defs
     id="defs4">
    <linearGradient
       y2="48.0854"
       x2="78.466103"
       y1="56.3008"
       x1="64.477501"
       gradientUnits="userSpaceOnUse"
       id="XMLID_74_-8-1">
      <stop
         id="stop155-3-8"
         style="stop-color:#ffffff;stop-opacity:1;"
         offset="0" />
      <stop
         id="stop157-94-6"
         style="stop-color:#e6e6e6;stop-opacity:1;"
         offset="1" />
    </linearGradient>
    <radialGradient
       gradientUnits="userSpaceOnUse"
       gradientTransform="matrix(1,0,0,1.0499906,0,-19.270593)"
       r="191.6187"
       fy="385.4841"
       fx="558.35437"
       cy="385.4841"
       cx="558.35437"
       id="radialGradient3867"
       xlink:href="#XMLID_74_-8-1"
       inkscape:collect="always" />
    <linearGradient
       y2="217.4595"
       x2="200.0508"
       y1="185.0742"
       x1="200.0508"
       gradientUnits="userSpaceOnUse"
       id="SVGID_2_">
      <stop
         id="stop13"
         style="stop-color:#61B74A"
         offset="0" />
      <stop
         id="stop15"
         style="stop-color:#449934"
         offset="1" />
    </linearGradient>
    <linearGradient
       inkscape:collect="always"
       xlink:href="#SVGID_2_"
       id="linearGradient3021"
       gradientUnits="userSpaceOnUse"
       gradientTransform="matrix(13.577628,0,0,13.577628,-2026.1619,-2566.7096)"
       x1="200.0508"
       y1="185.0742"
       x2="200.0508"
       y2="217.4595" />
    <linearGradient
       y2="217.4595"
       x2="200.0508"
       y1="185.0742"
       x1="200.0508"
       gradientTransform="matrix(9.2574736,0,0,9.2574736,-1595.9285,-1607.2111)"
       gradientUnits="userSpaceOnUse"
       id="linearGradient3017"
       xlink:href="#SVGID_2_"
       inkscape:collect="always" />
    <linearGradient
       inkscape:collect="always"
       xlink:href="#SVGID_2_"
       id="linearGradient3803"
       x1="259.99384"
       y1="44"
       x2="259.99384"
       y2="464"
       gradientUnits="userSpaceOnUse" />
    <linearGradient
       y2="464"
       x2="259.99384"
       y1="44"
       x1="259.99384"
       gradientUnits="userSpaceOnUse"
       id="linearGradient3018"
       xlink:href="#SVGID_2_"
       inkscape:collect="always" />
    <linearGradient
       y2="251.66064"
       x2="1011.9534"
       y1="476.25983"
       x1="1016.1035"
       gradientTransform="translate(-146.22032,369.08845)"
       gradientUnits="userSpaceOnUse"
       id="linearGradient4082"
       xlink:href="#linearGradient4487"
       inkscape:collect="always" />
    <linearGradient
       id="linearGradient4487">
      <stop
         offset="0"
         style="stop-color:#000000;stop-opacity:1"
         id="stop4489" />
      <stop
         offset="1"
         style="stop-color:#000000;stop-opacity:0"
         id="stop4491" />
    </linearGradient>
    <linearGradient
       y2="363.73825"
       x2="988.78552"
       y1="51.511765"
       x1="993.43896"
       gradientTransform="translate(778.59979,-360.55963)"
       gradientUnits="userSpaceOnUse"
       id="linearGradient4084"
       xlink:href="#linearGradient3737"
       inkscape:collect="always" />
    <linearGradient
       id="linearGradient3737">
      <stop
         offset="0"
         style="stop-color:#ffffff;stop-opacity:1"
         id="stop3739" />
      <stop
         offset="1"
         style="stop-color:#ffffff;stop-opacity:0"
         id="stop3741" />
    </linearGradient>
    <linearGradient
       y2="-55.941216"
       x2="1763.6903"
       y1="155.59685"
       x1="1764.6487"
       gradientUnits="userSpaceOnUse"
       id="linearGradient4086"
       xlink:href="#linearGradient4046"
       inkscape:collect="always" />
    <linearGradient
       id="linearGradient4046">
      <stop
         offset="0"
         style="stop-color:#000000;stop-opacity:1;"
         id="stop4048" />
      <stop
         offset="1"
         style="stop-color:#ffffff;stop-opacity:0.2"
         id="stop4050" />
    </linearGradient>
    <linearGradient
       y2="20.625916"
       x2="1006.8082"
       y1="484.41721"
       x1="1012.5133"
       gradientTransform="matrix(1.0317796,0,0,1.0317796,-830.86406,592.67791)"
       gradientUnits="userSpaceOnUse"
       id="linearGradient4114-2"
       xlink:href="#ButtonShadow-0-1-1-5"
       inkscape:collect="always" />
    <linearGradient
       gradientTransform="matrix(1.0058652,0,0,0.994169,100,0)"
       gradientUnits="userSpaceOnUse"
       id="ButtonShadow-0-1-1-5"
       y2="7.0165396"
       x2="45.447727"
       y1="92.539597"
       x1="45.447727">
      <stop
         offset="0"
         style="stop-color:#000000;stop-opacity:1"
         id="stop3750-8-9-3-6" />
      <stop
         offset="1"
         style="stop-color:#000000;stop-opacity:0.58823532"
         id="stop3752-5-6-4-2" />
    </linearGradient>
    <linearGradient
       y2="20.625916"
       x2="1006.8082"
       y1="484.41721"
       x1="1012.5133"
       gradientTransform="matrix(1.0402541,0,0,1.0402541,-837.95116,592.51825)"
       gradientUnits="userSpaceOnUse"
       id="linearGradient4112-2"
       xlink:href="#ButtonShadow-0-1-1-5"
       inkscape:collect="always" />
    <linearGradient
       gradientTransform="matrix(1.0058652,0,0,0.994169,100,0)"
       gradientUnits="userSpaceOnUse"
       id="linearGradient3395"
       y2="7.0165396"
       x2="45.447727"
       y1="92.539597"
       x1="45.447727">
      <stop
         offset="0"
         style="stop-color:#000000;stop-opacity:1"
         id="stop3397" />
      <stop
         offset="1"
         style="stop-color:#000000;stop-opacity:0.58823532"
         id="stop3399" />
    </linearGradient>
    <linearGradient
       y2="20.625916"
       x2="1006.8082"
       y1="484.41721"
       x1="1012.5133"
       gradientTransform="matrix(1.023305,0,0,1.023305,-823.77704,592.83757)"
       gradientUnits="userSpaceOnUse"
       id="linearGradient4110-6"
       xlink:href="#ButtonShadow-0-1-1-5"
       inkscape:collect="always" />
    <linearGradient
       gradientTransform="matrix(1.0058652,0,0,0.994169,100,0)"
       gradientUnits="userSpaceOnUse"
       id="linearGradient3402"
       y2="7.0165396"
       x2="45.447727"
       y1="92.539597"
       x1="45.447727">
      <stop
         offset="0"
         style="stop-color:#000000;stop-opacity:1"
         id="stop3404" />
      <stop
         offset="1"
         style="stop-color:#000000;stop-opacity:0.58823532"
         id="stop3406" />
    </linearGradient>
    <linearGradient
       y2="20.625916"
       x2="1006.8082"
       y1="484.41721"
       x1="1012.5133"
       gradientTransform="matrix(1.0148305,0,0,1.0148305,-816.68996,592.99723)"
       gradientUnits="userSpaceOnUse"
       id="linearGradient4116-6"
       xlink:href="#ButtonShadow-0-1-1-5"
       inkscape:collect="always" />
    <linearGradient
       gradientTransform="matrix(1.0058652,0,0,0.994169,100,0)"
       gradientUnits="userSpaceOnUse"
       id="linearGradient3409"
       y2="7.0165396"
       x2="45.447727"
       y1="92.539597"
       x1="45.447727">
      <stop
         offset="0"
         style="stop-color:#000000;stop-opacity:1"
         id="stop3411" />
      <stop
         offset="1"
         style="stop-color:#000000;stop-opacity:0.58823532"
         id="stop3413" />
    </linearGradient>
    <linearGradient
       inkscape:collect="always"
       xlink:href="#ButtonShadow-0-1-1-5"
       id="linearGradient5342"
       gradientUnits="userSpaceOnUse"
       gradientTransform="matrix(1.0074153,0,0,1.0074153,-810.48879,593.1369)"
       x1="1012.5133"
       y1="484.41721"
       x2="1006.8082"
       y2="20.625916" />
    <linearGradient
       gradientTransform="matrix(1.0058652,0,0,0.994169,100,0)"
       gradientUnits="userSpaceOnUse"
       id="linearGradient3416"
       y2="7.0165396"
       x2="45.447727"
       y1="92.539597"
       x1="45.447727">
      <stop
         offset="0"
         style="stop-color:#000000;stop-opacity:1"
         id="stop3418" />
      <stop
         offset="1"
         style="stop-color:#000000;stop-opacity:0.58823532"
         id="stop3420" />
    </linearGradient>
    <linearGradient
       inkscape:collect="always"
       xlink:href="#ButtonShadow-0-1-1-5"
       id="linearGradient3433"
       gradientUnits="userSpaceOnUse"
       gradientTransform="matrix(1.0074153,0,0,1.0074153,-810.48879,593.1369)"
       x1="1012.5133"
       y1="484.41721"
       x2="1006.8082"
       y2="20.625916" />
    <linearGradient
       y2="138.66119"
       y1="20.220806"
       xlink:href="#linearGradient3737-1"
       x2="48"
       x1="48"
       id="linearGradient3613"
       gradientUnits="userSpaceOnUse" />
    <linearGradient
       id="linearGradient3737-1">
      <stop
         stop-color="#ffffff"
         offset="0"
         id="stop3739-3" />
      <stop
         stop-opacity="0"
         stop-color="#ffffff"
         offset="1"
         id="stop3741-8" />
    </linearGradient>
    <clipPath
       id="clipPath3613">
      <rect
         y="6"
         x="6"
         width="84"
         rx="6"
         id="rect3615"
         height="84"
         style="fill:#ffffff" />
    </clipPath>
    <filter
       y="-0.192"
       x="-0.192"
       width="1.3839999"
       id="filter3794"
       height="1.3839999"
       color-interpolation-filters="sRGB">
      <feGaussianBlur
         stdDeviation="5.28"
         id="feGaussianBlur3796" />
    </filter>
  </defs>
  <metadata
     id="metadata7">
    <rdf:RDF>
      <cc:Work
         rdf:about="">
        <dc:format>image/svg+xml</dc:format>
        <dc:type
           rdf:resource="http://purl.org/dc/dcmitype/StillImage" />
        <dc:title></dc:title>
      </cc:Work>
    </rdf:RDF>
  </metadata>
  <g
     id="layer1"
     inkscape:groupmode="layer"
     inkscape:label="Livello 1"
     transform="translate(0,-540.36218)" />
  <g
     transform="translate(-11.985063,-592.11719)"
     id="g4103">
    <rect
       style="opacity:0.1;color:#000000;fill:url(#linearGradient4114-2);fill-opacity:1;fill-rule:nonzero;stroke:none;stroke-width:1.5;marker:none;visibility:visible;display:inline;overflow:visible;enable-background:accumulate"
       id="rect6187"
       width="487"
       height="487"
       x="31.985071"
       y="612.11719"
       ry="101.45834" />
    <rect
       ry="102.29167"
       y="612.11719"
       x="31.985071"
       height="491"
       width="491"
       id="rect6191"
       style="opacity:0.07999998;color:#000000;fill:url(#linearGradient4112-2);fill-opacity:1;fill-rule:nonzero;stroke:none;stroke-width:1.5;marker:none;visibility:visible;display:inline;overflow:visible;enable-background:accumulate" />
    <rect
       ry="100.62501"
       y="612.11719"
       x="31.985071"
       height="483"
       width="483"
       id="rect6183"
       style="opacity:0.2;color:#000000;fill:url(#linearGradient4110-6);fill-opacity:1;fill-rule:nonzero;stroke:none;stroke-width:1.5;marker:none;visibility:visible;display:inline;overflow:visible;enable-background:accumulate" />
    <rect
       style="opacity:0.25;color:#000000;fill:url(#linearGradient4116-6);fill-opacity:1;fill-rule:nonzero;stroke:none;stroke-width:1.5;marker:none;visibility:visible;display:inline;overflow:visible;enable-background:accumulate"
       id="rect6179"
       width="479"
       height="479"
       x="31.985071"
       y="612.11719"
       ry="99.791664" />
    <rect
       ry="99.0625"
       y="612.11719"
       x="31.985071"
       height="475.5"
       width="475.5"
       id="rect5574"
       style="opacity:0.25;color:#000000;fill:url(#linearGradient3433);fill-opacity:1;fill-rule:nonzero;stroke:none;stroke-width:1.5;marker:none;visibility:visible;display:inline;overflow:visible;enable-background:accumulate" />
  </g>
  <g
     id="g8120">
    <rect
       style="color:#000000;fill:#596f5e;fill-opacity:1;fill-rule:nonzero;stroke:none;stroke-width:1.5;marker:none;visibility:visible;display:inline;overflow:visible;enable-background:accumulate"
       id="rect4121"
       width="472"
       height="472"
       x="20.000008"
       y="19.999998"
       ry="98.333336" />
    <g
       id="g8114">
      <g
         id="g8110">
        <path
           id="path3997"
           d="M 84.8125 105.125 L 115.65625 170.53125 C 83.370583 182.56208 56.88749 197.89994 38.625 215.375 L 38.625 406.875 L 39.03125 406.75 L 39.03125 407.28125 L 39.4375 407.15625 L 39.4375 407.6875 L 39.84375 407.5625 L 39.84375 408.09375 L 40.25 407.96875 L 40.25 408.5 L 40.625 408.40625 L 40.625 408.875 L 41.03125 408.75 L 41.03125 409.28125 L 41.4375 409.15625 L 41.4375 409.6875 L 41.84375 409.5625 L 41.84375 410.09375 L 42.25 409.96875 L 42.25 410.5 L 42.625 410.40625 L 42.625 410.875 L 43.03125 410.75 L 43.03125 411.28125 L 43.4375 411.15625 L 43.4375 411.6875 L 43.84375 411.5625 L 43.84375 412.09375 L 44.25 411.96875 L 44.25 412.5 L 44.625 412.40625 L 44.625 412.875 L 45.03125 412.75 L 45.03125 413.28125 L 45.4375 413.15625 L 45.4375 413.6875 L 45.84375 413.5625 L 45.84375 414.09375 L 46.21875 414 L 46.21875 414.46875 L 46.625 414.34375 L 46.625 414.875 L 47.03125 414.75 L 47.03125 415.28125 L 47.4375 415.15625 L 47.4375 415.6875 L 47.84375 415.5625 L 47.84375 416.09375 L 48.21875 416 L 48.21875 416.46875 L 48.625 416.34375 L 48.625 416.875 L 49.03125 416.75 L 49.03125 417.28125 L 49.4375 417.15625 L 49.4375 417.6875 L 49.84375 417.5625 L 49.84375 418.09375 L 50.21875 418 L 50.21875 418.46875 L 50.625 418.34375 L 50.625 418.875 L 51.03125 418.75 L 51.03125 419.28125 L 51.4375 419.15625 L 51.4375 419.6875 L 51.8125 419.59375 L 51.8125 420.0625 L 52.21875 419.9375 L 52.21875 420.46875 L 52.625 420.34375 L 52.625 420.875 L 53.03125 420.75 L 53.03125 421.28125 L 53.4375 421.15625 L 53.4375 421.6875 L 53.8125 421.59375 L 53.8125 422.0625 L 54.21875 421.9375 L 54.21875 422.46875 L 54.625 422.34375 L 54.625 422.875 L 55.03125 422.75 L 55.03125 423.28125 L 55.4375 423.15625 L 55.4375 423.6875 L 55.8125 423.59375 L 55.8125 424.0625 L 56.21875 423.9375 L 56.21875 424.46875 L 56.625 424.34375 L 56.625 424.875 L 57.03125 424.75 L 57.03125 425.28125 L 57.40625 425.1875 L 57.40625 425.65625 L 57.4375 425.65625 L 57.8125 425.5625 L 57.8125 426.0625 L 58.21875 425.9375 L 58.21875 426.46875 L 58.625 426.34375 L 58.625 426.875 L 59.03125 426.75 L 59.03125 427.28125 L 59.40625 427.1875 L 59.40625 427.65625 L 59.8125 427.53125 L 59.8125 428.0625 L 60.21875 427.9375 L 60.21875 428.46875 L 60.625 428.34375 L 60.625 428.875 L 61.03125 428.75 L 61.03125 429.28125 L 61.40625 429.1875 L 61.40625 429.65625 L 61.8125 429.53125 L 61.8125 430.0625 L 62.21875 429.9375 L 62.21875 430.46875 L 62.625 430.34375 L 62.625 430.875 L 63.03125 430.75 L 63.03125 431.28125 L 63.40625 431.1875 L 63.40625 431.65625 L 63.8125 431.53125 L 63.8125 432.0625 L 64.21875 431.9375 L 64.21875 432.46875 L 64.625 432.34375 L 64.625 432.875 L 65 432.78125 L 65 433.25 L 65.40625 433.125 L 65.40625 433.65625 L 65.8125 433.53125 L 65.8125 434.0625 L 66.21875 433.9375 L 66.21875 434.46875 L 66.625 434.34375 L 66.625 434.875 L 67 434.78125 L 67 435.25 L 67.40625 435.125 L 67.40625 435.65625 L 67.8125 435.53125 L 67.8125 436.0625 L 68.21875 435.9375 L 68.21875 436.46875 L 68.625 436.34375 L 68.625 436.875 L 69 436.78125 L 69 437.25 L 69.40625 437.125 L 69.40625 437.65625 L 69.8125 437.53125 L 69.8125 438.0625 L 70.21875 437.9375 L 70.21875 438.46875 L 70.59375 438.375 L 70.59375 438.84375 L 71 438.71875 L 71 439.25 L 71.40625 439.125 L 71.40625 439.65625 L 71.8125 439.53125 L 71.8125 440.0625 L 72.21875 439.9375 L 72.21875 440.46875 L 72.59375 440.375 L 72.59375 440.84375 L 73 440.71875 L 73 441.25 L 73.40625 441.125 L 73.40625 441.65625 L 73.8125 441.53125 L 73.8125 442.0625 L 74.21875 441.9375 L 74.21875 442.46875 L 74.59375 442.375 L 74.59375 442.84375 L 75 442.71875 L 75 443.25 L 75.40625 443.125 L 75.40625 443.65625 L 75.8125 443.53125 L 75.8125 444.0625 L 76.1875 443.96875 L 76.1875 444.4375 L 76.21875 444.4375 L 76.59375 444.34375 L 76.59375 444.84375 L 77 444.71875 L 77 445.25 L 77.40625 445.125 L 77.40625 445.65625 L 77.8125 445.53125 L 77.8125 446.0625 L 78.1875 445.96875 L 78.1875 446.4375 L 78.59375 446.3125 L 78.59375 446.84375 L 79 446.71875 L 79 447.25 L 79.40625 447.125 L 79.40625 447.65625 L 79.8125 447.53125 L 79.8125 448.0625 L 80.1875 447.96875 L 80.1875 448.4375 L 80.59375 448.3125 L 80.59375 448.84375 L 81 448.71875 L 81 449.25 L 81.40625 449.125 L 81.40625 449.65625 L 81.8125 449.53125 L 81.8125 450.0625 L 82.1875 449.96875 L 82.1875 450.4375 L 82.59375 450.3125 L 82.59375 450.84375 L 83 450.71875 L 83 451.25 L 83.40625 451.125 L 83.40625 451.65625 L 83.78125 451.5625 L 83.78125 452.03125 L 84.1875 451.90625 L 84.1875 452.4375 L 84.59375 452.3125 L 84.59375 452.84375 L 85 452.71875 L 85 453.25 L 85.40625 453.125 L 85.40625 453.65625 L 85.78125 453.5625 L 85.78125 454.03125 L 86.1875 453.90625 L 86.1875 454.4375 L 86.59375 454.3125 L 86.59375 454.84375 L 87 454.71875 L 87 455.25 L 87.40625 455.125 L 87.40625 455.65625 L 87.78125 455.5625 L 87.78125 456.03125 L 88.1875 455.90625 L 88.1875 456.4375 L 88.59375 456.3125 L 88.59375 456.84375 L 89 456.71875 L 89 457.25 L 89.375 457.15625 L 89.375 457.625 L 89.78125 457.5 L 89.78125 458.03125 L 90.1875 457.90625 L 90.1875 458.4375 L 90.59375 458.3125 L 90.59375 458.84375 L 91 458.71875 L 91 459.25 L 91.375 459.15625 L 91.375 459.625 L 91.78125 459.5 L 91.78125 460.03125 L 92.1875 459.90625 L 92.1875 460.4375 L 92.59375 460.3125 L 92.59375 460.84375 L 93 460.71875 L 93 461.25 L 93.375 461.15625 L 93.375 461.625 L 93.78125 461.5 L 93.78125 462.03125 L 94.1875 461.90625 L 94.1875 462.4375 L 94.59375 462.3125 L 94.59375 462.84375 L 94.96875 462.75 L 94.96875 463.21875 L 95 463.21875 L 95.375 463.125 L 95.375 463.625 L 95.78125 463.5 L 95.78125 464.03125 L 96.1875 463.90625 L 96.1875 464.4375 L 96.59375 464.3125 L 96.59375 464.84375 L 96.96875 464.75 L 96.96875 465.21875 L 97.375 465.09375 L 97.375 465.625 L 97.78125 465.5 L 97.78125 466.03125 L 98.1875 465.90625 L 98.1875 466.4375 L 98.59375 466.3125 L 98.59375 466.84375 L 98.96875 466.75 L 98.96875 467.21875 L 99.375 467.09375 L 99.375 467.625 L 99.78125 467.5 L 99.78125 468.03125 L 100.1875 467.90625 L 100.1875 468.4375 L 100.59375 468.3125 L 100.59375 468.84375 L 100.96875 468.75 L 100.96875 469.21875 L 101.375 469.09375 L 101.375 469.625 L 101.78125 469.5 L 101.78125 470.03125 L 102.1875 469.90625 L 102.1875 470.4375 L 102.5625 470.34375 L 102.5625 470.8125 L 102.96875 470.6875 L 102.96875 471.21875 L 103.375 471.09375 L 103.375 471.625 L 103.78125 471.5 L 103.78125 472.03125 L 104.1875 471.90625 L 104.1875 472.4375 L 104.5625 472.34375 L 104.5625 472.8125 L 104.96875 472.6875 L 104.96875 473.21875 L 105.375 473.09375 L 105.375 473.625 L 105.78125 473.5 L 105.78125 474.03125 L 106.1875 473.90625 L 106.1875 474.4375 L 106.5625 474.34375 L 106.5625 474.8125 L 106.96875 474.6875 L 106.96875 475.21875 L 107.375 475.09375 L 107.375 475.625 L 107.78125 475.5 L 107.78125 476.03125 L 108.15625 475.9375 L 108.15625 476.40625 L 108.5625 476.28125 L 108.5625 476.8125 L 108.96875 476.6875 L 108.96875 477.21875 L 109.375 477.09375 L 109.375 477.625 L 109.78125 477.5 L 109.78125 478.03125 L 110.15625 477.9375 L 110.15625 478.40625 L 110.5625 478.28125 L 110.5625 478.8125 L 110.96875 478.6875 L 110.96875 479.21875 L 111.375 479.09375 L 111.375 479.625 L 111.78125 479.5 L 111.78125 480.03125 L 112.15625 479.9375 L 112.15625 480.40625 L 112.5625 480.28125 L 112.5625 480.8125 L 112.96875 480.6875 L 112.96875 481.21875 L 113.375 481.09375 L 113.375 481.625 L 113.75 481.53125 L 113.75 482 L 113.78125 482 L 114.15625 481.90625 L 114.15625 482.40625 L 114.5625 482.28125 L 114.5625 482.8125 L 114.96875 482.6875 L 114.96875 483.21875 L 115.375 483.09375 L 115.375 483.625 L 115.75 483.53125 L 115.75 484 L 116.15625 483.875 L 116.15625 484.40625 L 116.5625 484.28125 L 116.5625 484.8125 L 116.96875 484.6875 L 116.96875 485.21875 L 117.375 485.09375 L 117.375 485.625 L 117.75 485.53125 L 117.75 486 L 118.15625 485.875 L 118.15625 486.40625 L 118.5625 486.28125 L 118.5625 486.8125 L 118.96875 486.6875 L 118.96875 487.21875 L 119.375 487.09375 L 119.375 487.625 L 119.75 487.53125 L 119.75 488 L 120.15625 487.875 L 120.15625 488.40625 L 120.5625 488.28125 L 120.5625 488.8125 L 120.96875 488.6875 L 120.96875 489.21875 L 121.34375 489.125 L 121.34375 489.59375 L 121.75 489.46875 L 121.75 490 L 122.15625 489.875 L 122.15625 490.40625 L 122.5625 490.28125 L 122.5625 490.8125 L 122.96875 490.6875 L 122.96875 491.21875 L 123.34375 491.125 L 123.34375 491.59375 L 123.75 491.46875 L 123.75 492 L 124.15625 491.875 L 124.15625 492 L 393.65625 492 C 448.13292 492 492 448.13292 492 393.65625 L 492 191 C 491.91544 190.97263 491.8338 190.93675 491.75 190.90625 L 491.75 190.65625 C 491.61396 190.6066 491.47985 190.54952 491.34375 190.5 L 491.34375 190.25 C 491.20771 190.20035 491.0736 190.14327 490.9375 190.09375 L 490.9375 189.84375 C 490.80146 189.7941 490.66735 189.73702 490.53125 189.6875 L 490.53125 189.4375 C 490.40729 189.39226 490.28026 189.35764 490.15625 189.3125 L 490.15625 189.0625 C 490.02021 189.01285 489.8861 188.95577 489.75 188.90625 L 489.75 188.65625 C 489.61396 188.6066 489.47985 188.54952 489.34375 188.5 L 489.34375 188.25 C 489.20771 188.20035 489.0736 188.14327 488.9375 188.09375 L 488.9375 187.84375 C 488.80102 187.79394 488.66778 187.73718 488.53125 187.6875 L 488.53125 187.4375 C 488.40714 187.3922 488.2804 187.35769 488.15625 187.3125 L 488.15625 187.0625 C 488.02021 187.01285 487.8861 186.95577 487.75 186.90625 L 487.75 186.65625 C 487.61396 186.6066 487.47985 186.54952 487.34375 186.5 L 487.34375 186.25 C 487.20771 186.20035 487.0736 186.14327 486.9375 186.09375 L 486.9375 185.84375 C 486.80102 185.79394 486.66778 185.73718 486.53125 185.6875 L 486.53125 185.4375 C 486.40714 185.3922 486.2804 185.35769 486.15625 185.3125 L 486.15625 185.0625 C 486.02021 185.01285 485.8861 184.95577 485.75 184.90625 L 485.75 184.65625 C 485.61396 184.6066 485.47985 184.54952 485.34375 184.5 L 485.34375 184.25 C 485.20771 184.20035 485.0736 184.14327 484.9375 184.09375 L 484.9375 183.84375 C 484.81354 183.79851 484.68651 183.76389 484.5625 183.71875 L 484.5625 183.46875 C 484.42646 183.4191 484.29235 183.36202 484.15625 183.3125 L 484.15625 183.0625 C 484.02021 183.01285 483.8861 182.95577 483.75 182.90625 L 483.75 182.65625 C 483.61396 182.6066 483.47985 182.54952 483.34375 182.5 L 483.34375 182.25 C 483.20727 182.20019 483.07403 182.14343 482.9375 182.09375 L 482.9375 181.84375 C 482.81339 181.79845 482.68665 181.76394 482.5625 181.71875 L 482.5625 181.46875 C 482.42646 181.4191 482.29235 181.36202 482.15625 181.3125 L 482.15625 181.0625 C 482.02021 181.01285 481.8861 180.95577 481.75 180.90625 L 481.75 180.65625 C 481.61396 180.6066 481.47985 180.54952 481.34375 180.5 L 481.34375 180.25 C 481.20727 180.20019 481.07403 180.14343 480.9375 180.09375 L 480.9375 179.84375 C 480.81339 179.79845 480.68665 179.76394 480.5625 179.71875 L 480.5625 179.46875 C 480.42646 179.4191 480.29235 179.36202 480.15625 179.3125 L 480.15625 179.0625 C 480.02021 179.01285 479.8861 178.95577 479.75 178.90625 L 479.75 178.65625 C 479.61396 178.6066 479.47985 178.54952 479.34375 178.5 L 479.34375 178.25 C 479.21979 178.20476 479.09276 178.17014 478.96875 178.125 L 478.96875 177.875 C 478.83271 177.82535 478.6986 177.76827 478.5625 177.71875 L 478.5625 177.46875 C 478.42646 177.4191 478.29235 177.36202 478.15625 177.3125 L 478.15625 177.0625 C 478.02021 177.01285 477.8861 176.95577 477.75 176.90625 L 477.75 176.65625 C 477.61396 176.6066 477.47985 176.54952 477.34375 176.5 L 477.34375 176.25 C 477.21964 176.2047 477.0929 176.17019 476.96875 176.125 L 476.96875 175.875 C 476.83271 175.82535 476.6986 175.76827 476.5625 175.71875 L 476.5625 175.46875 C 476.42646 175.4191 476.29235 175.36202 476.15625 175.3125 L 476.15625 175.0625 C 476.02021 175.01285 475.8861 174.95577 475.75 174.90625 L 475.75 174.65625 C 475.61352 174.60644 475.48028 174.54968 475.34375 174.5 L 475.34375 174.25 C 475.21964 174.2047 475.0929 174.17019 474.96875 174.125 L 474.96875 173.875 C 474.83271 173.82535 474.6986 173.76827 474.5625 173.71875 L 474.5625 173.46875 C 474.42646 173.4191 474.29235 173.36202 474.15625 173.3125 L 474.15625 173.0625 C 474.02021 173.01285 473.8861 172.95577 473.75 172.90625 L 473.75 172.65625 C 473.62604 172.61101 473.49901 172.57639 473.375 172.53125 L 473.375 172.25 C 386.67022 140.60496 289.53118 135.32198 206.84375 147.65625 C 206.843 147.65471 206.75 147.46875 206.75 147.46875 L 206.5625 147.46875 C 206.5589 147.46134 206.34375 147.0625 206.34375 147.0625 L 206.125 147.0625 C 206.12162 147.05553 205.9375 146.65625 205.9375 146.65625 L 205.75 146.65625 C 205.74703 146.65012 205.5625 146.28125 205.5625 146.28125 L 205.34375 146.28125 C 205.34037 146.27427 205.15625 145.875 205.15625 145.875 L 204.9375 145.875 C 204.93411 145.86802 204.75 145.46875 204.75 145.46875 L 204.53125 145.46875 C 204.52786 145.46177 204.34375 145.0625 204.34375 145.0625 L 204.125 145.0625 C 204.12161 145.05552 203.9375 144.65625 203.9375 144.65625 L 203.75 144.65625 C 203.74703 144.65012 203.5625 144.28125 203.5625 144.28125 L 203.34375 144.28125 C 203.34036 144.27427 203.15625 143.875 203.15625 143.875 L 202.9375 143.875 C 202.93411 143.86802 202.75 143.46875 202.75 143.46875 L 202.53125 143.46875 C 202.52786 143.46177 202.34375 143.0625 202.34375 143.0625 L 202.125 143.0625 C 202.12161 143.05552 201.9375 142.65625 201.9375 142.65625 L 201.75 142.65625 C 201.74702 142.65012 201.5625 142.28125 201.5625 142.28125 L 201.34375 142.28125 C 201.34036 142.27427 201.15625 141.875 201.15625 141.875 L 200.9375 141.875 C 200.93411 141.86802 200.75 141.46875 200.75 141.46875 L 200.53125 141.46875 C 200.52786 141.46177 200.34375 141.0625 200.34375 141.0625 L 200.15625 141.0625 C 200.15328 141.05637 199.96875 140.6875 199.96875 140.6875 L 199.75 140.6875 C 199.74661 140.68052 199.5625 140.28125 199.5625 140.28125 L 199.34375 140.28125 C 199.34036 140.27427 199.15625 139.875 199.15625 139.875 L 198.9375 139.875 C 198.93411 139.86802 198.75 139.46875 198.75 139.46875 L 198.53125 139.46875 C 198.52786 139.46177 198.34375 139.0625 198.34375 139.0625 L 198.15625 139.0625 C 198.15327 139.05637 197.96875 138.6875 197.96875 138.6875 L 197.75 138.6875 C 197.74661 138.68052 197.5625 138.28125 197.5625 138.28125 L 197.34375 138.28125 C 197.34036 138.27427 197.15625 137.875 197.15625 137.875 L 196.9375 137.875 C 196.93411 137.86802 196.75 137.46875 196.75 137.46875 L 196.53125 137.46875 C 196.52786 137.46177 196.34375 137.0625 196.34375 137.0625 L 196.15625 137.0625 C 196.15327 137.05637 195.96875 136.6875 195.96875 136.6875 L 195.75 136.6875 C 195.74661 136.68052 195.5625 136.28125 195.5625 136.28125 L 195.34375 136.28125 C 195.34036 136.27427 195.15625 135.875 195.15625 135.875 L 194.9375 135.875 C 194.93411 135.86802 194.75 135.46875 194.75 135.46875 L 194.5625 135.46875 C 194.55952 135.46262 194.375 135.09375 194.375 135.09375 L 194.15625 135.09375 C 194.15286 135.08677 193.96875 134.6875 193.96875 134.6875 L 193.75 134.6875 C 193.74661 134.68052 193.5625 134.28125 193.5625 134.28125 L 193.34375 134.28125 C 193.34036 134.27427 193.15625 133.875 193.15625 133.875 L 192.9375 133.875 C 192.93411 133.86802 192.75 133.46875 192.75 133.46875 L 192.5625 133.46875 C 192.55952 133.46262 192.375 133.09375 192.375 133.09375 L 192.15625 133.09375 C 192.15286 133.08677 191.96875 132.6875 191.96875 132.6875 L 191.75 132.6875 C 191.74661 132.68052 191.5625 132.28125 191.5625 132.28125 L 191.34375 132.28125 C 191.34036 132.27427 191.15625 131.875 191.15625 131.875 L 190.9375 131.875 C 190.93411 131.86802 190.75 131.46875 190.75 131.46875 L 190.5625 131.46875 C 190.55952 131.46262 190.375 131.09375 190.375 131.09375 L 190.15625 131.09375 C 190.15286 131.08677 189.96875 130.6875 189.96875 130.6875 L 189.75 130.6875 C 189.74661 130.68052 189.5625 130.28125 189.5625 130.28125 L 189.34375 130.28125 C 189.34036 130.27427 189.15625 129.875 189.15625 129.875 L 188.96875 129.875 C 188.96577 129.86887 188.78125 129.5 188.78125 129.5 L 188.5625 129.5 C 188.55911 129.49302 188.375 129.09375 188.375 129.09375 L 188.15625 129.09375 C 188.15286 129.08677 187.96875 128.6875 187.96875 128.6875 L 187.75 128.6875 C 187.74661 128.68052 187.5625 128.28125 187.5625 128.28125 L 187.34375 128.28125 C 187.34036 128.27427 187.15625 127.875 187.15625 127.875 L 186.96875 127.875 C 186.96577 127.86887 186.78125 127.5 186.78125 127.5 L 186.5625 127.5 C 186.55911 127.49302 186.375 127.09375 186.375 127.09375 L 186.15625 127.09375 C 186.15286 127.08677 185.96875 126.6875 185.96875 126.6875 L 185.75 126.6875 C 185.74661 126.68052 185.5625 126.28125 185.5625 126.28125 L 185.34375 126.28125 C 185.34036 126.27427 185.15625 125.875 185.15625 125.875 L 184.96875 125.875 C 184.96577 125.86887 184.78125 125.5 184.78125 125.5 L 184.5625 125.5 C 184.55911 125.49302 184.375 125.09375 184.375 125.09375 L 184.15625 125.09375 C 184.15286 125.08677 183.96875 124.6875 183.96875 124.6875 L 183.75 124.6875 C 183.74661 124.68052 183.5625 124.28125 183.5625 124.28125 L 183.34375 124.28125 C 183.34036 124.27427 183.15625 123.875 183.15625 123.875 L 182.96875 123.875 C 182.96577 123.86887 182.78125 123.5 182.78125 123.5 L 182.5625 123.5 C 182.55911 123.49302 182.375 123.09375 182.375 123.09375 L 182.15625 123.09375 C 182.15286 123.08677 181.96875 122.6875 181.96875 122.6875 L 181.75 122.6875 C 181.74661 122.68052 181.5625 122.28125 181.5625 122.28125 L 181.375 122.28125 C 181.37202 122.27512 181.1875 121.90625 181.1875 121.90625 L 180.96875 121.90625 C 180.96536 121.89927 180.78125 121.5 180.78125 121.5 L 180.5625 121.5 C 180.55911 121.49302 180.375 121.09375 180.375 121.09375 L 180.15625 121.09375 C 180.15286 121.08677 179.96875 120.6875 179.96875 120.6875 L 179.75 120.6875 C 179.74661 120.68052 179.5625 120.28125 179.5625 120.28125 L 179.375 120.28125 C 179.37202 120.27512 179.1875 119.90625 179.1875 119.90625 L 178.96875 119.90625 C 178.96536 119.89927 178.78125 119.5 178.78125 119.5 L 178.5625 119.5 C 178.55911 119.49302 178.375 119.09375 178.375 119.09375 L 178.15625 119.09375 C 178.15286 119.08677 177.96875 118.6875 177.96875 118.6875 L 177.75 118.6875 C 177.74661 118.68052 177.5625 118.28125 177.5625 118.28125 L 177.375 118.28125 C 177.37202 118.27512 177.1875 117.90625 177.1875 117.90625 L 176.96875 117.90625 C 176.96536 117.89927 176.78125 117.5 176.78125 117.5 L 176.5625 117.5 C 176.55911 117.49302 176.375 117.09375 176.375 117.09375 L 176.15625 117.09375 C 176.15286 117.08677 175.96875 116.6875 175.96875 116.6875 L 175.78125 116.6875 C 175.77827 116.68137 175.59375 116.3125 175.59375 116.3125 L 175.375 116.3125 C 175.37161 116.30552 175.1875 115.90625 175.1875 115.90625 L 174.96875 115.90625 C 174.96536 115.89927 174.78125 115.5 174.78125 115.5 L 174.5625 115.5 C 174.55911 115.49302 174.375 115.09375 174.375 115.09375 L 174.15625 115.09375 C 174.15286 115.08677 173.96875 114.6875 173.96875 114.6875 L 173.78125 114.6875 C 173.77827 114.68137 173.59375 114.3125 173.59375 114.3125 L 173.375 114.3125 C 173.37161 114.30552 173.1875 113.90625 173.1875 113.90625 L 172.96875 113.90625 C 172.96536 113.89927 172.78125 113.5 172.78125 113.5 L 172.5625 113.5 C 172.55911 113.49302 172.375 113.09375 172.375 113.09375 L 172.15625 113.09375 C 172.15286 113.08677 171.96875 112.6875 171.96875 112.6875 L 171.78125 112.6875 C 171.77827 112.68136 171.59375 112.3125 171.59375 112.3125 L 171.375 112.3125 C 171.37161 112.30552 171.1875 111.90625 171.1875 111.90625 L 170.96875 111.90625 C 170.96536 111.89927 170.78125 111.5 170.78125 111.5 L 170.5625 111.5 C 170.55911 111.49302 170.375 111.09375 170.375 111.09375 L 170.1875 111.09375 C 170.18452 111.08761 170 110.71875 170 110.71875 L 169.78125 110.71875 C 169.77786 110.71177 169.59375 110.3125 169.59375 110.3125 L 169.375 110.3125 C 169.37161 110.30552 169.1875 109.90625 169.1875 109.90625 L 168.96875 109.90625 L 168.78125 109.5 L 168.5625 109.5 C 168.55911 109.49302 168.375 109.09375 168.375 109.09375 L 168.1875 109.09375 C 168.18452 109.08761 168 108.71875 168 108.71875 L 167.78125 108.71875 C 167.77786 108.71177 167.59375 108.3125 167.59375 108.3125 L 167.375 108.3125 C 167.37161 108.30552 167.1875 107.90625 167.1875 107.90625 L 166.96875 107.90625 C 166.96536 107.89927 166.78125 107.5 166.78125 107.5 L 166.5625 107.5 L 166.375 107.09375 L 166.1875 107.09375 L 166 106.71875 L 165.78125 106.71875 L 165.59375 106.3125 L 165.375 106.3125 L 165.1875 105.90625 L 164.96875 105.90625 L 164.78125 105.5 L 164.5625 105.5 L 164.375 105.125 L 84.8125 105.125 z M 136.625 214.40625 L 180.28125 306.75 L 97.21875 326.9375 L 96.84375 326.9375 C 80.81861 328.5249 77.68336 325.36861 77.03125 306.9375 C 76.13736 264.81903 100.33621 234.69461 136.625 214.40625 z "
           style="fill:#000000;fill-opacity:0.31372549" />
        <path
           style="fill:#c8dc25"
           d="m 84.828123,105.10938 30.843747,65.40625 c -32.285667,12.03083 -58.768757,27.36869 -77.031247,44.84375 l 0,191.53124 240.062497,-65.96875 -4,-8.25 -69.15625,-142.9375 c 23.98132,-5.04084 49.29656,-7.53028 74.3125,-7.78125 75.04787,-0.7529 146.68147,18.97862 165.93751,53.1875 1.02611,4.97797 -0.81036,6.47134 -13.375,10.46875 l -85.40626,20.78125 -33.375,-67.9375 c -10.3535,-0.44094 -20.16918,-0.51038 -29.3125,-0.375 -19.51603,0.28942 -36.71365,1.78319 -53.5625,4.25 l 61.65625,126.46875 3.5625,7.28125 177.37501,-48.71875 0,-115.09375 C 379.51042,138.01314 273.4443,134.6875 186.70312,151.10938 l -22.3125,-46 -79.562497,0 z m 51.812497,109.28125 43.65625,92.37499 -83.062497,20.1875 -0.375,0 c -16.02514,1.5874 -19.16039,-1.56889 -19.8125,-20 -0.89389,-42.11847 23.304957,-72.27414 59.593747,-92.5625 z"
           id="rect2934"
           inkscape:connector-curvature="0" />
      </g>
      <path
         id="path3908"
         d="M 118.34375 20 C 63.867082 20 20 63.867082 20 118.34375 L 20 393.65625 C 20 448.13292 63.867082 492 118.34375 492 L 393.65625 492 C 448.13292 492 492 448.13292 492 393.65625 L 492 118.34375 C 492 63.867082 448.13292 20 393.65625 20 L 118.34375 20 z M 369.4375 46.8125 C 371.41696 46.822849 373.39666 46.866442 375.375 46.9375 C 410.99539 45.988034 444.88948 69.15928 458.375 101.8125 C 467.06304 120.24124 464.15354 141.01848 464.90625 160.75 C 465.1848 232.71861 464.871 304.69059 464.875 376.65625 C 466.2477 424.03543 422.79689 467.3117 375.25 464.65625 C 295.82604 465.51131 216.39276 464.73344 136.96875 464.9375 C 93.51873 466.77943 53.083949 431.50002 47.75 388.625 C 46.302619 333.84209 47.190995 278.99582 47.0625 224.1875 C 47.420559 194.10219 46.640009 164.01496 47.15625 133.9375 C 46.646123 90.188168 83.810682 50.856988 127.0625 47.34375 C 205.85878 46.42875 284.69187 47.464901 363.5 46.84375 C 365.47926 46.826897 367.45804 46.802151 369.4375 46.8125 z "
         style="color:#000000;fill:#c8dc25;fill-opacity:1;fill-rule:nonzero;stroke:none;stroke-width:1.50000000000000000;marker:none;visibility:visible;display:inline;overflow:visible;enable-background:accumulate" />
    </g>
  </g>
  <g
     transform="translate(-605.51931,-353.96832)"
     id="g4076">
    <g
       id="g4038"
       transform="translate(-926.66758,684.38448)">
      <path
         id="rect6809-2"
         d="m 1650.4994,-310.41615 c -54.4767,0 -98.3125,43.83583 -98.3125,98.3125 l 0,275.343747 c 0,54.476673 43.8358,98.343753 98.3125,98.343753 l 2.9375,0 c -53.3225,0 -96.25,-42.9275 -96.25,-96.250003 l 0,-269.499997 c 0,-53.3225 42.9275,-96.25 96.25,-96.25 l 269.5001,0 c 53.3225,0 96.25,42.9275 96.25,96.25 l 0,269.499997 c 0,53.322503 -42.9275,96.250003 -96.25,96.250003 l 2.9062,0 c 54.4767,0 98.3438,-43.86708 98.3438,-98.343753 l 0,-275.343747 c 0,-54.47667 -43.8671,-98.3125 -98.3438,-98.3125 l -275.3438,0 z"
         style="opacity:0.3;color:#000000;fill:url(#linearGradient4084);fill-opacity:1;fill-rule:nonzero;stroke:none;stroke-width:1.50000000000000000;marker:none;visibility:visible;display:inline;overflow:visible;enable-background:accumulate"
         inkscape:connector-curvature="0" />
      <path
         inkscape:connector-curvature="0"
         style="opacity:0.2;color:#000000;fill:url(#linearGradient4086);fill-opacity:1;fill-rule:nonzero;stroke:none;stroke-width:1.5;marker:none;visibility:visible;display:inline;overflow:visible;enable-background:accumulate"
         d="m 1650.4994,161.58385 c -54.4767,0 -98.3125,-43.83583 -98.3125,-98.312503 l 0,-275.343747 c 0,-54.47667 43.8358,-98.34375 98.3125,-98.34375 l 2.9375,0 c -53.3225,0 -96.25,42.9275 -96.25,96.25 l 0,269.499997 c 0,53.322503 42.9275,96.250003 96.25,96.250003 l 269.5001,0 c 53.3225,0 96.25,-42.9275 96.25,-96.250003 l 0,-269.499997 c 0,-53.3225 -42.9275,-96.25 -96.25,-96.25 l 2.9062,0 c 54.4767,0 98.3438,43.86708 98.3438,98.34375 l 0,275.343747 c 0,54.476673 -43.8671,98.312503 -98.3438,98.312503 l -275.3438,0 z"
         id="path3981" />
    </g>
  </g>
  <path
     style="fill:#c8dc25"
     inkscape:connector-curvature="0"
     d="m 679.95342,39.449458 c -13.76253,0 -24.84211,11.07958 -24.84211,24.842107 l 0,422.315785 c 0,13.76253 11.07958,24.84211 24.84211,24.84211 l 422.31578,0 c 13.7625,0 24.8421,-11.07958 24.8421,-24.84211 l 0,-422.315785 c 0,-13.762527 -11.0796,-24.842107 -24.8421,-24.842107 l -422.31578,0 z m -7.76316,18.63158 434.73684,0 0,151.769742 c -93.849,-34.25249 -199.91343,-37.57649 -286.65461,-21.15461 l -22.31908,-45.99671 -79.57236,0 30.85855,65.40461 c -32.28567,12.03084 -58.78685,27.35717 -77.04934,44.83223 l 0,-194.855262 z M 913.43039,219.55472 c 75.04787,-0.7529 146.68141,18.96876 165.93751,53.17764 1.0261,4.97797 -0.8268,6.48285 -13.3915,10.48026 l -85.3947,20.76645 -33.38158,-67.92764 c -10.3535,-0.44094 -20.16259,-0.52354 -29.30591,-0.38816 -19.51603,0.28942 -36.71695,1.80293 -53.5658,4.26974 l 65.21053,133.7204 177.38816,-48.71382 0,167.87829 -434.73684,0 0,-48.32566 240.07566,-65.98684 -73.16776,-151.1875 c 23.98132,-5.04084 49.31629,-7.51219 74.33223,-7.76316 z m -143.23027,32.41119 43.66777,92.38158 -83.06579,20.18421 -0.38816,0 c -16.02514,1.5874 -19.14394,-1.55903 -19.79605,-19.99014 -0.89389,-42.11848 23.29344,-72.28729 59.58223,-92.57565 z"
     id="path3053" />
</svg>
