<?xml version="1.0" encoding="UTF-8" standalone="no"?>
<!-- Created with Inkscape (http://www.inkscape.org/) -->

<svg
   xmlns:dc="http://purl.org/dc/elements/1.1/"
   xmlns:cc="http://creativecommons.org/ns#"
   xmlns:rdf="http://www.w3.org/1999/02/22-rdf-syntax-ns#"
   xmlns:svg="http://www.w3.org/2000/svg"
   xmlns="http://www.w3.org/2000/svg"
   xmlns:xlink="http://www.w3.org/1999/xlink"
   xmlns:sodipodi="http://sodipodi.sourceforge.net/DTD/sodipodi-0.dtd"
   xmlns:inkscape="http://www.inkscape.org/namespaces/inkscape"
   width="512"
   height="512"
   id="svg2"
   version="1.1"
   inkscape:version="0.48.3.1 r9886"
   sodipodi:docname="deviantart_C1.svg"
   inkscape:export-filename="/home/alecive/Scrivania/firefoxTest1.png"
   inkscape:export-xdpi="100"
   inkscape:export-ydpi="100">
  <sodipodi:namedview
     id="base"
     pagecolor="#ffffff"
     bordercolor="#666666"
     borderopacity="1.0"
     inkscape:pageopacity="0.0"
     inkscape:pageshadow="2"
     inkscape:zoom="0.95859275"
     inkscape:cx="124.66053"
     inkscape:cy="183.68821"
     inkscape:document-units="px"
     inkscape:current-layer="svg2"
     showgrid="false"
     inkscape:window-width="1305"
     inkscape:window-height="744"
     inkscape:window-x="61"
     inkscape:window-y="24"
     inkscape:window-maximized="1"
     inkscape:object-paths="false"
     inkscape:snap-intersection-paths="false"
     inkscape:object-nodes="true"
     inkscape:snap-smooth-nodes="true"
     inkscape:snap-nodes="true" />
  <defs
     id="defs4">
    <linearGradient
       id="XMLID_74_-8-1"
       gradientUnits="userSpaceOnUse"
       x1="64.477501"
       y1="56.3008"
       x2="78.466103"
       y2="48.0854">
      <stop
         offset="0"
         style="stop-color:#ffffff;stop-opacity:1;"
         id="stop155-3-8" />
      <stop
         offset="1"
         style="stop-color:#e6e6e6;stop-opacity:1;"
         id="stop157-94-6" />
    </linearGradient>
    <radialGradient
       inkscape:collect="always"
       xlink:href="#XMLID_74_-8-1"
       id="radialGradient3867"
       cx="558.35437"
       cy="385.4841"
       fx="558.35437"
       fy="385.4841"
       r="191.6187"
       gradientTransform="matrix(1,0,0,1.0499906,0,-19.270593)"
       gradientUnits="userSpaceOnUse" />
    <linearGradient
       id="SVGID_2_"
       gradientUnits="userSpaceOnUse"
       x1="200.0508"
       y1="185.0742"
       x2="200.0508"
       y2="217.4595">
      <stop
         offset="0"
         style="stop-color:#61B74A"
         id="stop13" />
      <stop
         offset="1"
         style="stop-color:#449934"
         id="stop15" />
    </linearGradient>
    <linearGradient
       y2="217.4595"
       x2="200.0508"
       y1="185.0742"
       x1="200.0508"
       gradientTransform="matrix(13.577628,0,0,13.577628,-2026.1619,-2566.7096)"
       gradientUnits="userSpaceOnUse"
       id="linearGradient3021"
       xlink:href="#SVGID_2_"
       inkscape:collect="always" />
    <linearGradient
       inkscape:collect="always"
       xlink:href="#SVGID_2_"
       id="linearGradient3017"
       gradientUnits="userSpaceOnUse"
       gradientTransform="matrix(9.2574736,0,0,9.2574736,-1595.9285,-1607.2111)"
       x1="200.0508"
       y1="185.0742"
       x2="200.0508"
       y2="217.4595" />
    <linearGradient
       gradientUnits="userSpaceOnUse"
       y2="464"
       x2="259.99384"
       y1="44"
       x1="259.99384"
       id="linearGradient3803"
       xlink:href="#SVGID_2_"
       inkscape:collect="always" />
    <linearGradient
       inkscape:collect="always"
       xlink:href="#SVGID_2_"
       id="linearGradient3018"
       gradientUnits="userSpaceOnUse"
       x1="259.99384"
       y1="44"
       x2="259.99384"
       y2="464" />
    <linearGradient
       inkscape:collect="always"
       xlink:href="#linearGradient4487"
       id="linearGradient4082"
       gradientUnits="userSpaceOnUse"
       gradientTransform="translate(-146.22032,369.08845)"
       x1="1016.1035"
       y1="476.25983"
       x2="1011.9534"
       y2="251.66064" />
    <linearGradient
       id="linearGradient4487">
      <stop
         id="stop4489"
         style="stop-color:#000000;stop-opacity:1"
         offset="0" />
      <stop
         id="stop4491"
         style="stop-color:#000000;stop-opacity:0"
         offset="1" />
    </linearGradient>
    <linearGradient
       inkscape:collect="always"
       xlink:href="#linearGradient3737"
       id="linearGradient4084"
       gradientUnits="userSpaceOnUse"
       gradientTransform="translate(778.59979,-360.55963)"
       x1="993.43896"
       y1="51.511765"
       x2="988.78552"
       y2="363.73825" />
    <linearGradient
       id="linearGradient3737">
      <stop
         id="stop3739"
         style="stop-color:#ffffff;stop-opacity:1"
         offset="0" />
      <stop
         id="stop3741"
         style="stop-color:#ffffff;stop-opacity:0"
         offset="1" />
    </linearGradient>
    <linearGradient
       inkscape:collect="always"
       xlink:href="#linearGradient4046"
       id="linearGradient4086"
       gradientUnits="userSpaceOnUse"
       x1="1764.6487"
       y1="155.59685"
       x2="1763.6903"
       y2="-55.941216" />
    <linearGradient
       id="linearGradient4046">
      <stop
         id="stop4048"
         style="stop-color:#000000;stop-opacity:1;"
         offset="0" />
      <stop
         id="stop4050"
         style="stop-color:#ffffff;stop-opacity:0.2"
         offset="1" />
    </linearGradient>
    <linearGradient
       inkscape:collect="always"
       xlink:href="#ButtonShadow-0-1-1-5"
       id="linearGradient4114-2"
       gradientUnits="userSpaceOnUse"
       gradientTransform="matrix(1.0317796,0,0,1.0317796,-830.86406,592.67791)"
       x1="1012.5133"
       y1="484.41721"
       x2="1006.8082"
       y2="20.625916" />
    <linearGradient
       x1="45.447727"
       y1="92.539597"
       x2="45.447727"
       y2="7.0165396"
       id="ButtonShadow-0-1-1-5"
       gradientUnits="userSpaceOnUse"
       gradientTransform="matrix(1.0058652,0,0,0.994169,100,0)">
      <stop
         id="stop3750-8-9-3-6"
         style="stop-color:#000000;stop-opacity:1"
         offset="0" />
      <stop
         id="stop3752-5-6-4-2"
         style="stop-color:#000000;stop-opacity:0.58823532"
         offset="1" />
    </linearGradient>
    <linearGradient
       inkscape:collect="always"
       xlink:href="#ButtonShadow-0-1-1-5"
       id="linearGradient4112-2"
       gradientUnits="userSpaceOnUse"
       gradientTransform="matrix(1.0402541,0,0,1.0402541,-837.95116,592.51825)"
       x1="1012.5133"
       y1="484.41721"
       x2="1006.8082"
       y2="20.625916" />
    <linearGradient
       x1="45.447727"
       y1="92.539597"
       x2="45.447727"
       y2="7.0165396"
       id="linearGradient3395"
       gradientUnits="userSpaceOnUse"
       gradientTransform="matrix(1.0058652,0,0,0.994169,100,0)">
      <stop
         id="stop3397"
         style="stop-color:#000000;stop-opacity:1"
         offset="0" />
      <stop
         id="stop3399"
         style="stop-color:#000000;stop-opacity:0.58823532"
         offset="1" />
    </linearGradient>
    <linearGradient
       inkscape:collect="always"
       xlink:href="#ButtonShadow-0-1-1-5"
       id="linearGradient4110-6"
       gradientUnits="userSpaceOnUse"
       gradientTransform="matrix(1.023305,0,0,1.023305,-823.77704,592.83757)"
       x1="1012.5133"
       y1="484.41721"
       x2="1006.8082"
       y2="20.625916" />
    <linearGradient
       x1="45.447727"
       y1="92.539597"
       x2="45.447727"
       y2="7.0165396"
       id="linearGradient3402"
       gradientUnits="userSpaceOnUse"
       gradientTransform="matrix(1.0058652,0,0,0.994169,100,0)">
      <stop
         id="stop3404"
         style="stop-color:#000000;stop-opacity:1"
         offset="0" />
      <stop
         id="stop3406"
         style="stop-color:#000000;stop-opacity:0.58823532"
         offset="1" />
    </linearGradient>
    <linearGradient
       inkscape:collect="always"
       xlink:href="#ButtonShadow-0-1-1-5"
       id="linearGradient4116-6"
       gradientUnits="userSpaceOnUse"
       gradientTransform="matrix(1.0148305,0,0,1.0148305,-816.68996,592.99723)"
       x1="1012.5133"
       y1="484.41721"
       x2="1006.8082"
       y2="20.625916" />
    <linearGradient
       x1="45.447727"
       y1="92.539597"
       x2="45.447727"
       y2="7.0165396"
       id="linearGradient3409"
       gradientUnits="userSpaceOnUse"
       gradientTransform="matrix(1.0058652,0,0,0.994169,100,0)">
      <stop
         id="stop3411"
         style="stop-color:#000000;stop-opacity:1"
         offset="0" />
      <stop
         id="stop3413"
         style="stop-color:#000000;stop-opacity:0.58823532"
         offset="1" />
    </linearGradient>
    <linearGradient
       y2="20.625916"
       x2="1006.8082"
       y1="484.41721"
       x1="1012.5133"
       gradientTransform="matrix(1.0074153,0,0,1.0074153,-810.48879,593.1369)"
       gradientUnits="userSpaceOnUse"
       id="linearGradient5342"
       xlink:href="#ButtonShadow-0-1-1-5"
       inkscape:collect="always" />
    <linearGradient
       x1="45.447727"
       y1="92.539597"
       x2="45.447727"
       y2="7.0165396"
       id="linearGradient3416"
       gradientUnits="userSpaceOnUse"
       gradientTransform="matrix(1.0058652,0,0,0.994169,100,0)">
      <stop
         id="stop3418"
         style="stop-color:#000000;stop-opacity:1"
         offset="0" />
      <stop
         id="stop3420"
         style="stop-color:#000000;stop-opacity:0.58823532"
         offset="1" />
    </linearGradient>
    <linearGradient
       y2="20.625916"
       x2="1006.8082"
       y1="484.41721"
       x1="1012.5133"
       gradientTransform="matrix(1.0074153,0,0,1.0074153,-810.48879,593.1369)"
       gradientUnits="userSpaceOnUse"
       id="linearGradient3433"
       xlink:href="#ButtonShadow-0-1-1-5"
       inkscape:collect="always" />
    <linearGradient
       gradientUnits="userSpaceOnUse"
       id="linearGradient3613"
       x1="48"
       x2="48"
       xlink:href="#linearGradient3737-1"
       y1="20.220806"
       y2="138.66119" />
    <linearGradient
       id="linearGradient3737-1">
      <stop
         id="stop3739-3"
         offset="0"
         stop-color="#ffffff" />
      <stop
         id="stop3741-8"
         offset="1"
         stop-color="#ffffff"
         stop-opacity="0" />
    </linearGradient>
    <clipPath
       id="clipPath3613">
      <rect
         style="fill:#ffffff"
         height="84"
         id="rect3615"
         rx="6"
         width="84"
         x="6"
         y="6" />
    </clipPath>
    <filter
       color-interpolation-filters="sRGB"
       height="1.3839999"
       id="filter3794"
       width="1.3839999"
       x="-0.192"
       y="-0.192">
      <feGaussianBlur
         id="feGaussianBlur3796"
         stdDeviation="5.28" />
    </filter>
  </defs>
  <metadata
     id="metadata7">
    <rdf:RDF>
      <cc:Work
         rdf:about="">
        <dc:format>image/svg+xml</dc:format>
        <dc:type
           rdf:resource="http://purl.org/dc/dcmitype/StillImage" />
        <dc:title></dc:title>
      </cc:Work>
    </rdf:RDF>
  </metadata>
  <g
     transform="translate(0,-540.36218)"
     inkscape:label="Livello 1"
     inkscape:groupmode="layer"
     id="layer1" />
  <g
     id="g4103"
     transform="translate(-11.985063,-592.11719)">
    <rect
       ry="101.45834"
       y="612.11719"
       x="31.985071"
       height="487"
       width="487"
       id="rect6187"
       style="opacity:0.1;color:#000000;fill:url(#linearGradient4114-2);fill-opacity:1;fill-rule:nonzero;stroke:none;stroke-width:1.5;marker:none;visibility:visible;display:inline;overflow:visible;enable-background:accumulate" />
    <rect
       style="opacity:0.07999998;color:#000000;fill:url(#linearGradient4112-2);fill-opacity:1;fill-rule:nonzero;stroke:none;stroke-width:1.5;marker:none;visibility:visible;display:inline;overflow:visible;enable-background:accumulate"
       id="rect6191"
       width="491"
       height="491"
       x="31.985071"
       y="612.11719"
       ry="102.29167" />
    <rect
       style="opacity:0.2;color:#000000;fill:url(#linearGradient4110-6);fill-opacity:1;fill-rule:nonzero;stroke:none;stroke-width:1.5;marker:none;visibility:visible;display:inline;overflow:visible;enable-background:accumulate"
       id="rect6183"
       width="483"
       height="483"
       x="31.985071"
       y="612.11719"
       ry="100.62501" />
    <rect
       ry="99.791664"
       y="612.11719"
       x="31.985071"
       height="479"
       width="479"
       id="rect6179"
       style="opacity:0.25;color:#000000;fill:url(#linearGradient4116-6);fill-opacity:1;fill-rule:nonzero;stroke:none;stroke-width:1.5;marker:none;visibility:visible;display:inline;overflow:visible;enable-background:accumulate" />
    <rect
       style="opacity:0.25;color:#000000;fill:url(#linearGradient3433);fill-opacity:1;fill-rule:nonzero;stroke:none;stroke-width:1.5;marker:none;visibility:visible;display:inline;overflow:visible;enable-background:accumulate"
       id="rect5574"
       width="475.5"
       height="475.5"
       x="31.985071"
       y="612.11719"
       ry="99.0625" />
  </g>
  <g
     id="g8120">
    <g
       id="g8114">
      <g
         id="g8110" />
      <g
         id="g3370">
        <g
           id="g6310">
          <path
             id="rect4121"
             d="m 118.33334,19.999998 275.33333,0 c 54.47667,0 98.33334,43.856668 98.33334,98.333332 l 0,275.33333 C 492.00001,448.14333 448.14334,492 393.66667,492 l -275.33333,0 C 63.856675,492 20.000008,448.14333 20.000008,393.66666 l 0,-275.33333 c 0,-54.476664 43.856667,-98.333332 98.333332,-98.333332 z"
             style="color:#000000;fill:#596f5e;fill-opacity:1;fill-rule:nonzero;stroke:none;stroke-width:1.5;marker:none;visibility:visible;display:inline;overflow:visible;enable-background:accumulate" />
          <path
             style="color:#000000;fill:#c8dc25;fill-opacity:1;fill-rule:nonzero;stroke:none;stroke-width:1.50000000000000000;marker:none;visibility:visible;display:inline;overflow:visible;enable-background:accumulate"
             d="M 118.34375 20 C 63.867082 20 20 63.867082 20 118.34375 L 20 393.65625 C 20 448.13292 63.867082 492 118.34375 492 L 393.65625 492 C 448.13292 492 492 448.13292 492 393.65625 L 492 118.34375 C 492 63.867082 448.13292 20 393.65625 20 L 118.34375 20 z M 369.4375 46.8125 C 371.41696 46.822849 373.39666 46.866442 375.375 46.9375 C 410.99539 45.988034 444.88948 69.15928 458.375 101.8125 C 467.06304 120.24124 464.15354 141.01848 464.90625 160.75 C 465.1848 232.71861 464.871 304.69059 464.875 376.65625 C 466.2477 424.03543 422.79689 467.3117 375.25 464.65625 C 295.82604 465.51131 216.39276 464.73344 136.96875 464.9375 C 93.51873 466.77943 53.083949 431.50002 47.75 388.625 C 46.302619 333.84209 47.190995 278.99582 47.0625 224.1875 C 47.420559 194.10219 46.640009 164.01496 47.15625 133.9375 C 46.646123 90.188168 83.810682 50.856988 127.0625 47.34375 C 205.85878 46.42875 284.69187 47.464901 363.5 46.84375 C 365.47926 46.826897 367.45804 46.802151 369.4375 46.8125 z "
             id="path3908" />
        </g>
      </g>
    </g>
  </g>
  <g
     id="g4076"
     transform="translate(-605.51931,-353.96832)">
    <g
       transform="translate(-926.66758,684.38448)"
       id="g4038">
      <path
         inkscape:connector-curvature="0"
         style="opacity:0.3;color:#000000;fill:url(#linearGradient4084);fill-opacity:1;fill-rule:nonzero;stroke:none;stroke-width:1.50000000000000000;marker:none;visibility:visible;display:inline;overflow:visible;enable-background:accumulate"
         d="m 1650.4994,-310.41615 c -54.4767,0 -98.3125,43.83583 -98.3125,98.3125 l 0,275.343747 c 0,54.476673 43.8358,98.343753 98.3125,98.343753 l 2.9375,0 c -53.3225,0 -96.25,-42.9275 -96.25,-96.250003 l 0,-269.499997 c 0,-53.3225 42.9275,-96.25 96.25,-96.25 l 269.5001,0 c 53.3225,0 96.25,42.9275 96.25,96.25 l 0,269.499997 c 0,53.322503 -42.9275,96.250003 -96.25,96.250003 l 2.9062,0 c 54.4767,0 98.3438,-43.86708 98.3438,-98.343753 l 0,-275.343747 c 0,-54.47667 -43.8671,-98.3125 -98.3438,-98.3125 l -275.3438,0 z"
         id="rect6809-2" />
      <path
         id="path3981"
         d="m 1650.4994,161.58385 c -54.4767,0 -98.3125,-43.83583 -98.3125,-98.312503 l 0,-275.343747 c 0,-54.47667 43.8358,-98.34375 98.3125,-98.34375 l 2.9375,0 c -53.3225,0 -96.25,42.9275 -96.25,96.25 l 0,269.499997 c 0,53.322503 42.9275,96.250003 96.25,96.250003 l 269.5001,0 c 53.3225,0 96.25,-42.9275 96.25,-96.250003 l 0,-269.499997 c 0,-53.3225 -42.9275,-96.25 -96.25,-96.25 l 2.9062,0 c 54.4767,0 98.3438,43.86708 98.3438,98.34375 l 0,275.343747 c 0,54.476673 -43.8671,98.312503 -98.3438,98.312503 l -275.3438,0 z"
         style="opacity:0.2;color:#000000;fill:url(#linearGradient4086);fill-opacity:1;fill-rule:nonzero;stroke:none;stroke-width:1.5;marker:none;visibility:visible;display:inline;overflow:visible;enable-background:accumulate"
         inkscape:connector-curvature="0" />
    </g>
  </g>
  <path
     id="path3053"
     d="m 679.95342,39.449458 c -13.76253,0 -24.84211,11.07958 -24.84211,24.842107 l 0,422.315785 c 0,13.76253 11.07958,24.84211 24.84211,24.84211 l 422.31578,0 c 13.7625,0 24.8421,-11.07958 24.8421,-24.84211 l 0,-422.315785 c 0,-13.762527 -11.0796,-24.842107 -24.8421,-24.842107 l -422.31578,0 z m -7.76316,18.63158 434.73684,0 0,151.769742 c -93.849,-34.25249 -199.91343,-37.57649 -286.65461,-21.15461 l -22.31908,-45.99671 -79.57236,0 30.85855,65.40461 c -32.28567,12.03084 -58.78685,27.35717 -77.04934,44.83223 l 0,-194.855262 z M 913.43039,219.55472 c 75.04787,-0.7529 146.68141,18.96876 165.93751,53.17764 1.0261,4.97797 -0.8268,6.48285 -13.3915,10.48026 l -85.3947,20.76645 -33.38158,-67.92764 c -10.3535,-0.44094 -20.16259,-0.52354 -29.30591,-0.38816 -19.51603,0.28942 -36.71695,1.80293 -53.5658,4.26974 l 65.21053,133.7204 177.38816,-48.71382 0,167.87829 -434.73684,0 0,-48.32566 240.07566,-65.98684 -73.16776,-151.1875 c 23.98132,-5.04084 49.31629,-7.51219 74.33223,-7.76316 z m -143.23027,32.41119 43.66777,92.38158 -83.06579,20.18421 -0.38816,0 c -16.02514,1.5874 -19.14394,-1.55903 -19.79605,-19.99014 -0.89389,-42.11848 23.29344,-72.28729 59.58223,-92.57565 z"
     inkscape:connector-curvature="0"
     style="fill:#c8dc25" />
  <path
     style="fill:#000000;fill-opacity:0.23529412"
     d="M 251.0625 173.5625 C 235.87504 173.81438 221.03789 175.25198 206.75 177.75 L 206.75 208.625 C 180.99331 213.6861 157.92939 222.60152 139.3125 234.3125 C 109.45379 253.09547 91 279.05716 91 307.71875 C 91 313.50089 91.742656 319.16139 93.1875 324.6875 C 93.19772 324.68667 260.8125 492 260.8125 492 L 393.65625 492 C 448.13292 492.0001 492 448.13292 492 393.65625 L 492 351.875 L 399.125 256.03125 C 391.84035 248.06217 382.95096 240.76916 372.6875 234.3125 C 348.67567 219.20829 317.28188 208.74069 282.21875 205.21875 L 251.0625 173.5625 z M 206.75 235.1875 L 206.75 291.28125 L 151.53125 291.28125 C 155.58207 269.0661 169.39582 245.8273 206.75 235.1875 z "
     id="path4228" />
  <path
     inkscape:connector-curvature="0"
     d="m 206.74524,291.27118 v -56.07901 c -37.35418,10.6398 -51.16462,33.86386 -55.21544,56.07901 h 55.21544 l 0,0 z m 44.3279,-87.31337 c 1.63721,-0.0291 3.27719,-0.0457 4.92548,-0.0457 45.56515,0 86.81376,11.61687 116.67386,30.39983 C 402.52981,253.09494 421,279.04261 421,307.7042 c 0,5.78629 -0.75426,11.45633 -2.19772,16.98244 h -7.89266 -50.54322 -99.44231 v -10.12497 -23.29049 -51.87042 c 18.06746,0.35152 32.61969,2.64472 44.32929,6.29697 v 45.57345 h 55.21266 C 354.97868,261.17443 331.58163,229.22734 256,229.22734 c -1.66766,0 -3.31041,0.0152 -4.92686,0.0457 v 61.99679 33.41684 h -44.3279 -55.11441 -49.54124 -8.891873 c -1.444844,-5.52611 -2.197712,-11.2003 -2.197712,-16.98244 0,-28.66159 18.467425,-54.60926 48.326135,-73.39223 18.61689,-11.71098 41.66241,-20.63607 67.4191,-25.69717 v -30.86623 c 14.28789,-2.49802 29.14044,-3.92072 44.3279,-4.1726 l 0,30.38184 0,0 z"
     id="path5"
     style="fill:#ffffff" />
</svg>
