<?xml version="1.0" encoding="UTF-8" standalone="no"?>
<!-- Created with Inkscape (http://www.inkscape.org/) -->

<svg
   xmlns:dc="http://purl.org/dc/elements/1.1/"
   xmlns:cc="http://creativecommons.org/ns#"
   xmlns:rdf="http://www.w3.org/1999/02/22-rdf-syntax-ns#"
   xmlns:svg="http://www.w3.org/2000/svg"
   xmlns="http://www.w3.org/2000/svg"
   xmlns:xlink="http://www.w3.org/1999/xlink"
   xmlns:sodipodi="http://sodipodi.sourceforge.net/DTD/sodipodi-0.dtd"
   xmlns:inkscape="http://www.inkscape.org/namespaces/inkscape"
   width="512"
   height="512"
   id="svg2"
   version="1.1"
   inkscape:version="0.48.3.1 r9886"
   sodipodi:docname="folder.svg"
   inkscape:export-filename="/home/alecive/Scrivania/firefoxTest1.png"
   inkscape:export-xdpi="100"
   inkscape:export-ydpi="100">
  <sodipodi:namedview
     id="base"
     pagecolor="#ffffff"
     bordercolor="#666666"
     borderopacity="1.0"
     inkscape:pageopacity="0.0"
     inkscape:pageshadow="2"
     inkscape:zoom="0.73201048"
     inkscape:cx="225.94579"
     inkscape:cy="317.95993"
     inkscape:document-units="px"
     inkscape:current-layer="svg2"
     showgrid="false"
     inkscape:window-width="1301"
     inkscape:window-height="744"
     inkscape:window-x="65"
     inkscape:window-y="24"
     inkscape:window-maximized="1"
     inkscape:object-paths="false"
     inkscape:snap-intersection-paths="false"
     inkscape:object-nodes="true"
     inkscape:snap-smooth-nodes="true"
     inkscape:snap-nodes="true" />
  <defs
     id="defs4">
    <linearGradient
       id="linearGradient2460"
       y2="44.984001"
       gradientUnits="userSpaceOnUse"
       x2="19.360001"
       y1="21.030804"
       x1="19.244999">
      <stop
         id="stop3602"
         style="stop-color:#fafafa;stop-opacity:1;"
         offset="0" />
      <stop
         id="stop3604"
         style="stop-color:#f0f0f0;stop-opacity:1;"
         offset="1" />
    </linearGradient>
    <linearGradient
       y2="20.625916"
       x2="1006.8082"
       y1="484.41721"
       x1="1012.5133"
       gradientTransform="matrix(1.0317796,0,0,1.0317796,-830.86406,592.67791)"
       gradientUnits="userSpaceOnUse"
       id="linearGradient4114-2-6"
       xlink:href="#ButtonShadow-0-1-1-5-9"
       inkscape:collect="always" />
    <linearGradient
       gradientTransform="matrix(1.0058652,0,0,0.994169,100,0)"
       gradientUnits="userSpaceOnUse"
       id="ButtonShadow-0-1-1-5-9"
       y2="7.0165396"
       x2="45.447727"
       y1="92.539597"
       x1="45.447727">
      <stop
         offset="0"
         style="stop-color:#000000;stop-opacity:1"
         id="stop3750-8-9-3-6-4" />
      <stop
         offset="1"
         style="stop-color:#000000;stop-opacity:0.58823532"
         id="stop3752-5-6-4-2-9" />
    </linearGradient>
    <linearGradient
       y2="20.625916"
       x2="1006.8082"
       y1="484.41721"
       x1="1012.5133"
       gradientTransform="matrix(1.0402541,0,0,1.0402541,-837.95116,592.51825)"
       gradientUnits="userSpaceOnUse"
       id="linearGradient4112-2-6"
       xlink:href="#ButtonShadow-0-1-1-5-9"
       inkscape:collect="always" />
    <linearGradient
       y2="20.625916"
       x2="1006.8082"
       y1="484.41721"
       x1="1012.5133"
       gradientTransform="matrix(1.023305,0,0,1.023305,-823.77704,592.83757)"
       gradientUnits="userSpaceOnUse"
       id="linearGradient4110-6-7"
       xlink:href="#ButtonShadow-0-1-1-5-9"
       inkscape:collect="always" />
    <linearGradient
       y2="20.625916"
       x2="1006.8082"
       y1="484.41721"
       x1="1012.5133"
       gradientTransform="matrix(1.0148305,0,0,1.0148305,-816.68996,592.99723)"
       gradientUnits="userSpaceOnUse"
       id="linearGradient4116-6-3"
       xlink:href="#ButtonShadow-0-1-1-5-9"
       inkscape:collect="always" />
    <linearGradient
       inkscape:collect="always"
       xlink:href="#ButtonShadow-0-1-1-5-9"
       id="linearGradient5342-3"
       gradientUnits="userSpaceOnUse"
       gradientTransform="matrix(1.0074153,0,0,1.0074153,-810.48879,593.1369)"
       x1="1012.5133"
       y1="484.41721"
       x2="1006.8082"
       y2="20.625916" />
    <linearGradient
       y2="363.73825"
       x2="988.78552"
       y1="51.511765"
       x1="993.43896"
       gradientTransform="translate(778.59979,-360.55963)"
       gradientUnits="userSpaceOnUse"
       id="linearGradient4084-8"
       xlink:href="#linearGradient3737-9"
       inkscape:collect="always" />
    <linearGradient
       id="linearGradient3737-9">
      <stop
         offset="0"
         style="stop-color:#ffffff;stop-opacity:1"
         id="stop3739-7" />
      <stop
         offset="1"
         style="stop-color:#ffffff;stop-opacity:0"
         id="stop3741-4" />
    </linearGradient>
    <linearGradient
       y2="-55.941216"
       x2="1763.6903"
       y1="155.59685"
       x1="1764.6487"
       gradientUnits="userSpaceOnUse"
       id="linearGradient4086-12"
       xlink:href="#linearGradient4046-3"
       inkscape:collect="always" />
    <linearGradient
       id="linearGradient4046-3">
      <stop
         offset="0"
         style="stop-color:#000000;stop-opacity:1;"
         id="stop4048-7" />
      <stop
         offset="1"
         style="stop-color:#ffffff;stop-opacity:0.2"
         id="stop4050-73" />
    </linearGradient>
    <linearGradient
       inkscape:collect="always"
       xlink:href="#linearGradient3187-7"
       id="linearGradient3210"
       gradientUnits="userSpaceOnUse"
       gradientTransform="translate(0,8)"
       x1="48"
       y1="78"
       x2="48"
       y2="5.9877172" />
    <linearGradient
       id="linearGradient3187-7">
      <stop
         id="stop3189-4"
         style="stop-color:#c29656;stop-opacity:1"
         offset="0" />
      <stop
         id="stop3191-1"
         style="stop-color:#ddc08b;stop-opacity:1"
         offset="1" />
    </linearGradient>
    <linearGradient
       inkscape:collect="always"
       xlink:href="#linearGradient3874"
       id="linearGradient3212"
       gradientUnits="userSpaceOnUse"
       x1="48.021698"
       y1="22.933374"
       x2="48.021698"
       y2="81.481377" />
    <linearGradient
       id="linearGradient3874">
      <stop
         id="stop3876"
         style="stop-color:#ffffff;stop-opacity:1"
         offset="0" />
      <stop
         id="stop3878"
         style="stop-color:#ffffff;stop-opacity:0"
         offset="1" />
    </linearGradient>
    <clipPath
       id="clipPath3860">
      <rect
         width="84"
         height="72"
         rx="6"
         ry="6"
         x="6"
         y="18"
         id="rect3862"
         style="fill:#ff00ff;fill-opacity:1;fill-rule:nonzero;stroke:none" />
    </clipPath>
    <filter
       x="-0.16558799"
       y="-0.19715989"
       width="1.331176"
       height="1.3943198"
       color-interpolation-filters="sRGB"
       id="filter3870">
      <feGaussianBlur
         id="feGaussianBlur3872"
         stdDeviation="5.1703125" />
    </filter>
    <linearGradient
       inkscape:collect="always"
       xlink:href="#linearGradient3737-8"
       id="linearGradient3214"
       gradientUnits="userSpaceOnUse"
       x1="36.357143"
       y1="16"
       x2="36.357143"
       y2="73.994667" />
    <linearGradient
       id="linearGradient3737-8">
      <stop
         id="stop3739-8"
         style="stop-color:#ffffff;stop-opacity:1"
         offset="0" />
      <stop
         id="stop3741-8"
         style="stop-color:#ffffff;stop-opacity:0"
         offset="1" />
    </linearGradient>
    <linearGradient
       inkscape:collect="always"
       xlink:href="#linearGradient4008-4"
       id="linearGradient3073-8"
       gradientUnits="userSpaceOnUse"
       gradientTransform="matrix(0.7957895,0,0,0.7957895,87.069475,1.0667086)"
       x1="34.85965"
       y1="16.275133"
       x2="34.85965"
       y2="26.986736" />
    <linearGradient
       id="linearGradient4008-4">
      <stop
         id="stop4010-2"
         style="stop-color:#dab980;stop-opacity:1"
         offset="0" />
      <stop
         id="stop4012-5"
         style="stop-color:#c29856;stop-opacity:1"
         offset="0.71691591" />
      <stop
         id="stop4014-6"
         style="stop-color:#a2773a;stop-opacity:1"
         offset="1" />
    </linearGradient>
    <radialGradient
       inkscape:collect="always"
       xlink:href="#linearGradient3737-5"
       id="radialGradient3061"
       gradientUnits="userSpaceOnUse"
       gradientTransform="matrix(1.1573129,0,0,0.99590774,-7.551021,0.197132)"
       cx="48"
       cy="90.171875"
       fx="48"
       fy="90.171875"
       r="42" />
    <linearGradient
       id="linearGradient3737-5">
      <stop
         id="stop3739-0"
         style="stop-color:#ffffff;stop-opacity:1"
         offset="0" />
      <stop
         id="stop3741-4-3"
         style="stop-color:#ffffff;stop-opacity:0"
         offset="1" />
    </linearGradient>
    <radialGradient
       r="42"
       fy="90.171875"
       fx="48"
       cy="90.171875"
       cx="48"
       gradientTransform="matrix(1.1573129,0,0,0.99590774,-7.551021,0.197132)"
       gradientUnits="userSpaceOnUse"
       id="radialGradient3260"
       xlink:href="#linearGradient3737-5"
       inkscape:collect="always" />
    <radialGradient
       inkscape:collect="always"
       xlink:href="#linearGradient3737-5"
       id="radialGradient3119"
       gradientUnits="userSpaceOnUse"
       gradientTransform="matrix(6.502996,0,0,5.5960528,-658.91278,-27.932797)"
       cx="48"
       cy="90.171875"
       fx="48"
       fy="90.171875"
       r="42" />
    <linearGradient
       inkscape:collect="always"
       xlink:href="#linearGradient4008-4"
       id="linearGradient3126"
       gradientUnits="userSpaceOnUse"
       gradientTransform="matrix(0.7957895,0,0,0.7957895,87.069475,1.0667086)"
       x1="34.85965"
       y1="16.275133"
       x2="34.85965"
       y2="26.986736" />
    <linearGradient
       inkscape:collect="always"
       xlink:href="#linearGradient4008-4"
       id="linearGradient3130"
       gradientUnits="userSpaceOnUse"
       gradientTransform="matrix(4.4715789,0,0,4.4715789,-127.23573,-23.046605)"
       x1="34.85965"
       y1="16.275133"
       x2="34.85965"
       y2="26.986736" />
    <linearGradient
       inkscape:collect="always"
       xlink:href="#linearGradient3737-8"
       id="linearGradient3133"
       gradientUnits="userSpaceOnUse"
       x1="36.357143"
       y1="16"
       x2="36.357143"
       y2="73.994667"
       gradientTransform="matrix(5.6190474,0,0,4.9043651,-110.76903,27.465268)" />
    <linearGradient
       inkscape:collect="always"
       xlink:href="#linearGradient3187-7"
       id="linearGradient3137"
       gradientUnits="userSpaceOnUse"
       gradientTransform="matrix(5.6190474,0,0,4.9043651,491.99998,40.207937)"
       x1="48"
       y1="78"
       x2="48"
       y2="5.9877172" />
    <linearGradient
       inkscape:collect="always"
       xlink:href="#linearGradient4008-4"
       id="linearGradient3141"
       gradientUnits="userSpaceOnUse"
       gradientTransform="matrix(4.4715789,0,0,4.4715789,46.550519,-81.595434)"
       x1="34.85965"
       y1="16.275133"
       x2="34.85965"
       y2="26.986736" />
    <linearGradient
       inkscape:collect="always"
       xlink:href="#linearGradient4008-4-7"
       id="linearGradient3141-5"
       gradientUnits="userSpaceOnUse"
       gradientTransform="matrix(4.4715789,0,0,4.4715789,475.53325,-30.196581)"
       x1="34.85965"
       y1="16.275133"
       x2="34.85965"
       y2="32.73402" />
    <linearGradient
       id="linearGradient4008-4-7">
      <stop
         id="stop4010-2-0"
         style="stop-color:#dab980;stop-opacity:1"
         offset="0" />
      <stop
         id="stop4012-5-1"
         style="stop-color:#c29856;stop-opacity:1"
         offset="0.71691591" />
      <stop
         id="stop4014-6-6"
         style="stop-color:#a2773a;stop-opacity:1"
         offset="1" />
    </linearGradient>
    <linearGradient
       y2="26.986736"
       x2="34.85965"
       y1="16.275133"
       x1="34.85965"
       gradientTransform="matrix(4.4715789,0,0,4.4715789,455.53323,-72.672777)"
       gradientUnits="userSpaceOnUse"
       id="linearGradient3159"
       xlink:href="#linearGradient4008-4-7"
       inkscape:collect="always" />
    <linearGradient
       inkscape:collect="always"
       xlink:href="#linearGradient3874"
       id="linearGradient3179"
       gradientUnits="userSpaceOnUse"
       x1="48.021698"
       y1="22.933374"
       x2="48.021698"
       y2="81.481377" />
    <linearGradient
       inkscape:collect="always"
       xlink:href="#linearGradient4008-4-7"
       id="linearGradient3185"
       gradientUnits="userSpaceOnUse"
       gradientTransform="matrix(4.4715789,0,0,4.4715789,475.53325,-30.196581)"
       x1="34.85965"
       y1="16.275133"
       x2="35.30175"
       y2="28.313034" />
    <linearGradient
       inkscape:collect="always"
       xlink:href="#linearGradient3187-7"
       id="linearGradient3194"
       gradientUnits="userSpaceOnUse"
       gradientTransform="matrix(5.6190474,0,0,4.9043651,491.99998,40.207937)"
       x1="48"
       y1="78"
       x2="48"
       y2="5.9877172" />
    <linearGradient
       inkscape:collect="always"
       xlink:href="#linearGradient3187-7-5"
       id="linearGradient3194-0"
       gradientUnits="userSpaceOnUse"
       gradientTransform="matrix(5.6190474,0,0,4.9043651,491.99998,40.207937)"
       x1="48"
       y1="78"
       x2="48"
       y2="5.9877172" />
    <linearGradient
       id="linearGradient3187-7-5">
      <stop
         id="stop3189-4-5"
         style="stop-color:#c29656;stop-opacity:1"
         offset="0" />
      <stop
         id="stop3191-1-8"
         style="stop-color:#ddc08b;stop-opacity:1"
         offset="1" />
    </linearGradient>
    <linearGradient
       y2="5.9877172"
       x2="48"
       y1="78"
       x1="48"
       gradientTransform="matrix(5.6190474,0,0,4.9043651,471.99998,-28.448313)"
       gradientUnits="userSpaceOnUse"
       id="linearGradient3212-5"
       xlink:href="#linearGradient3187-7-5"
       inkscape:collect="always" />
    <linearGradient
       inkscape:collect="always"
       xlink:href="#linearGradient4008-4-7"
       id="linearGradient3231"
       gradientUnits="userSpaceOnUse"
       gradientTransform="matrix(4.4715789,0,0,4.4715789,475.53325,-30.196581)"
       x1="34.85965"
       y1="16.275133"
       x2="34.585358"
       y2="30.813984" />
    <linearGradient
       inkscape:collect="always"
       xlink:href="#linearGradient3737-9"
       id="linearGradient3236"
       gradientUnits="userSpaceOnUse"
       gradientTransform="translate(778.59979,-360.55963)"
       x1="993.43896"
       y1="51.511765"
       x2="988.78552"
       y2="363.73825" />
    <linearGradient
       inkscape:collect="always"
       xlink:href="#linearGradient4046-3"
       id="linearGradient3238"
       gradientUnits="userSpaceOnUse"
       x1="1764.6487"
       y1="155.59685"
       x2="1763.6903"
       y2="-55.941216" />
    <linearGradient
       inkscape:collect="always"
       xlink:href="#linearGradient4046-3"
       id="linearGradient3241"
       gradientUnits="userSpaceOnUse"
       x1="1764.6487"
       y1="155.59685"
       x2="1763.6903"
       y2="-55.941216"
       gradientTransform="translate(-1532.187,330.41615)" />
    <linearGradient
       inkscape:collect="always"
       xlink:href="#linearGradient3737-9"
       id="linearGradient3244"
       gradientUnits="userSpaceOnUse"
       gradientTransform="translate(-753.58721,-30.14348)"
       x1="993.43896"
       y1="51.511765"
       x2="988.78552"
       y2="363.73825" />
    <linearGradient
       inkscape:collect="always"
       xlink:href="#linearGradient3187-7-5"
       id="linearGradient3297"
       gradientUnits="userSpaceOnUse"
       gradientTransform="matrix(5.6190474,0,0,4.9043651,491.99998,46.207937)"
       x1="48"
       y1="78"
       x2="48"
       y2="5.9877172" />
    <linearGradient
       inkscape:collect="always"
       xlink:href="#linearGradient4008-4-7"
       id="linearGradient3306"
       gradientUnits="userSpaceOnUse"
       gradientTransform="matrix(4.4715789,0,0,4.4715789,475.53325,-30.196581)"
       x1="34.85965"
       y1="16.275133"
       x2="34.585358"
       y2="30.813984" />
    <linearGradient
       inkscape:collect="always"
       xlink:href="#linearGradient3187-7-5-7"
       id="linearGradient3297-2"
       gradientUnits="userSpaceOnUse"
       gradientTransform="matrix(5.6190474,0,0,4.9043651,491.99998,46.207937)"
       x1="48"
       y1="78"
       x2="48"
       y2="5.9877172" />
    <linearGradient
       id="linearGradient3187-7-5-7">
      <stop
         id="stop3189-4-5-5"
         style="stop-color:#c29656;stop-opacity:1"
         offset="0" />
      <stop
         id="stop3191-1-8-2"
         style="stop-color:#ddc08b;stop-opacity:1"
         offset="1" />
    </linearGradient>
    <linearGradient
       y2="5.9877172"
       x2="48"
       y1="78"
       x1="48"
       gradientTransform="matrix(5.6190474,0,0,4.9043651,471.99998,-28.448313)"
       gradientUnits="userSpaceOnUse"
       id="linearGradient3325"
       xlink:href="#linearGradient3187-7-5-7"
       inkscape:collect="always" />
    <linearGradient
       inkscape:collect="always"
       xlink:href="#linearGradient3187-7-5"
       id="linearGradient3343"
       gradientUnits="userSpaceOnUse"
       gradientTransform="matrix(5.6190474,0,0,4.9043651,491.99998,46.207937)"
       x1="48"
       y1="78"
       x2="48"
       y2="5.9877172" />
    <linearGradient
       inkscape:collect="always"
       xlink:href="#linearGradient3187-7-5"
       id="linearGradient3352"
       gradientUnits="userSpaceOnUse"
       gradientTransform="matrix(5.6190474,0,0,4.9043651,491.99998,46.207937)"
       x1="48"
       y1="78"
       x2="48"
       y2="5.9877172" />
    <linearGradient
       inkscape:collect="always"
       xlink:href="#linearGradient3737-8-0"
       id="linearGradient3133-9"
       gradientUnits="userSpaceOnUse"
       x1="36.357143"
       y1="16"
       x2="36.357143"
       y2="73.994667"
       gradientTransform="matrix(5.6190474,0,0,4.9043651,-110.76903,27.465268)" />
    <linearGradient
       id="linearGradient3737-8-0">
      <stop
         id="stop3739-8-3"
         style="stop-color:#ffffff;stop-opacity:1"
         offset="0" />
      <stop
         id="stop3741-8-0"
         style="stop-color:#ffffff;stop-opacity:0"
         offset="1" />
    </linearGradient>
    <linearGradient
       y2="73.994667"
       x2="36.357143"
       y1="16"
       x1="36.357143"
       gradientTransform="matrix(5.6190474,0,0,4.9043651,471.99997,-67.677006)"
       gradientUnits="userSpaceOnUse"
       id="linearGradient3370"
       xlink:href="#linearGradient3737-8-0"
       inkscape:collect="always" />
  </defs>
  <metadata
     id="metadata7">
    <rdf:RDF>
      <cc:Work
         rdf:about="">
        <dc:format>image/svg+xml</dc:format>
        <dc:type
           rdf:resource="http://purl.org/dc/dcmitype/StillImage" />
        <dc:title></dc:title>
      </cc:Work>
    </rdf:RDF>
  </metadata>
  <g
     transform="translate(0,-540.36218)"
     inkscape:label="Livello 1"
     inkscape:groupmode="layer"
     id="layer1" />
  <g
     transform="matrix(1.1,0,0,0.44444,95.081063,256.39254)"
     id="g2036">
    <g
       transform="matrix(1.0526,0,0,1.2857,-1.2632,-13.429)"
       style="opacity:0.4"
       id="g3712" />
  </g>
  <g
     id="g3541"
     transform="translate(97.481063,231.28154)" />
  <g
     id="g3536"
     transform="translate(97.481063,231.28154)" />
  <g
     transform="translate(-11.985071,-592.11719)"
     id="g4103">
    <rect
       style="opacity:0.1;color:#000000;fill:url(#linearGradient4114-2-6);fill-opacity:1;fill-rule:nonzero;stroke:none;stroke-width:1.5;marker:none;visibility:visible;display:inline;overflow:visible;enable-background:accumulate"
       id="rect6187"
       width="487"
       height="487"
       x="31.985071"
       y="612.11719"
       ry="101.45834" />
    <rect
       ry="102.29167"
       y="612.11719"
       x="31.985071"
       height="491"
       width="491"
       id="rect6191"
       style="opacity:0.07999998;color:#000000;fill:url(#linearGradient4112-2-6);fill-opacity:1;fill-rule:nonzero;stroke:none;stroke-width:1.5;marker:none;visibility:visible;display:inline;overflow:visible;enable-background:accumulate" />
    <rect
       ry="100.62501"
       y="612.11719"
       x="31.985071"
       height="483"
       width="483"
       id="rect6183"
       style="opacity:0.2;color:#000000;fill:url(#linearGradient4110-6-7);fill-opacity:1;fill-rule:nonzero;stroke:none;stroke-width:1.5;marker:none;visibility:visible;display:inline;overflow:visible;enable-background:accumulate" />
    <rect
       style="opacity:0.25;color:#000000;fill:url(#linearGradient4116-6-3);fill-opacity:1;fill-rule:nonzero;stroke:none;stroke-width:1.5;marker:none;visibility:visible;display:inline;overflow:visible;enable-background:accumulate"
       id="rect6179"
       width="479"
       height="479"
       x="31.985071"
       y="612.11719"
       ry="99.791664" />
    <rect
       ry="99.0625"
       y="612.11719"
       x="31.985071"
       height="475.5"
       width="475.5"
       id="rect5574"
       style="opacity:0.25;color:#000000;fill:url(#linearGradient5342-3);fill-opacity:1;fill-rule:nonzero;stroke:none;stroke-width:1.5;marker:none;visibility:visible;display:inline;overflow:visible;enable-background:accumulate" />
  </g>
  <path
     inkscape:connector-curvature="0"
     id="rect5505"
     d="M 118.34375,20 C 63.867087,20 20,63.867084 20,118.34375 l 0,23.0625 0,252.25 C 20,448.13291 63.867087,492 118.34375,492 l 275.3125,0 C 448.13292,492 492,448.13291 492,393.65625 l 0,-252.25 0,-23.0625 C 492,63.867084 448.13292,20 393.65625,20 l -275.3125,0 z"
     style="fill:url(#linearGradient3231);stroke:none;color:#000000;fill-opacity:1;fill-rule:nonzero;stroke-width:1;marker:none;visibility:visible;display:inline;overflow:visible;enable-background:accumulate" />
  <g
     transform="translate(-605.51932,-353.96833)"
     id="g4076">
    <g
       id="g4038"
       transform="translate(-926.66758,684.38448)" />
  </g>
  <path
     id="rect6809-2-3"
     d="M 118.3124,20 C 63.8357,20 19.9999,63.83583 19.9999,118.3125 l 0,275.34375 C 19.9999,448.13292 63.8357,492 118.3124,492 l 2.9375,0 c -53.3225,0 -96.25,-42.9275 -96.25,-96.25 l 0,-269.5 C 24.9999,72.9275 67.9274,30 121.2499,30 L 390.75,30 C 444.0725,30 487,72.9275 487,126.25 l 0,269.5 C 487,449.0725 444.0725,492 390.75,492 l 2.9062,0 C 448.1329,492 492,448.13292 492,393.65625 L 492,118.3125 C 492,63.83583 448.1329,20 393.6562,20 l -275.3438,0 z"
     style="opacity:0.3;color:#000000;fill:url(#linearGradient3244);fill-opacity:1;fill-rule:nonzero;stroke:none;stroke-width:1.5;marker:none;visibility:visible;display:inline;overflow:visible;enable-background:accumulate"
     inkscape:connector-curvature="0" />
  <path
     style="color:#000000;fill:url(#linearGradient3343);fill-opacity:1;fill-rule:nonzero;stroke:none;stroke-width:1;marker:none;visibility:visible;display:inline;overflow:visible;enable-background:accumulate"
     d="M 67.0625 74.65625 C 42.85934 74.65625 20 93.7349 20 117.75 L 20 223.625 L 20 244.5625 L 20 393.65625 C 20 448.13291 63.867087 492 118.34375 492 L 393.65625 492 C 448.13292 492 492 448.13291 492 393.65625 L 492 244.5625 L 492 223.625 L 492 139.4375 C 492 115.42239 472.1407 96.34375 444.9375 96.34375 L 209.21875 96.34375 C 183.67914 74.052501 182.11707 75.019002 170.03125 74.65625 L 67.0625 74.65625 z "
     id="path3181" />
  <path
     inkscape:connector-curvature="0"
     style="opacity:0.2;color:#000000;fill:url(#linearGradient3241);fill-opacity:1;fill-rule:nonzero;stroke:none;stroke-width:1.5;marker:none;visibility:visible;display:inline;overflow:visible;enable-background:accumulate"
     d="M 118.3124,492 C 63.8357,492 19.9999,448.16417 19.9999,393.6875 l 0,-275.34375 C 19.9999,63.86708 63.8357,20 118.3124,20 l 2.9375,0 c -53.3225,0 -96.25,42.9275 -96.25,96.25 l 0,269.5 c 0,53.3225 42.9275,96.25 96.25,96.25 L 390.75,482 C 444.0725,482 487,439.0725 487,385.75 l 0,-269.5 C 487,62.9275 444.0725,20 390.75,20 l 2.9062,0 C 448.1329,20 492,63.86708 492,118.34375 l 0,275.34375 C 492,448.16417 448.1329,492 393.6562,492 l -275.3438,0 z"
     id="path3981-7" />
  <rect
     style="color:#000000;fill:url(#linearGradient3130);fill-opacity:1;fill-rule:nonzero;stroke:none;marker:none;visibility:visible;display:inline;overflow:visible;enable-background:accumulate"
     id="rect2419"
     y="49.626171"
     x="-582.76898"
     ry="33.714283"
     rx="33.714283"
     height="427.04761"
     width="471.99997" />
  <path
     style="opacity:0.2;color:#000000;fill:#ffffff;fill-opacity:1;fill-rule:nonzero;stroke:none;marker:none;visibility:visible;display:inline;overflow:visible;enable-background:accumulate"
     id="rect3728"
     inkscape:connector-curvature="0"
     d="m -549.05467,49.626173 c -18.67771,0 -33.71429,15.03657 -33.71429,33.714284 l 0,11.238095 0,337.142848 0,11.23809 c 0,1.88082 0.23235,3.65632 0.52679,5.44346 0.27365,1.66096 0.54527,3.35409 1.05357,4.91666 0.0555,0.17071 0.11739,0.35737 0.1756,0.52679 0.55552,1.617 1.3198,3.07616 2.10714,4.56547 0.81247,1.53685 1.77346,3.00965 2.80952,4.38988 1.03607,1.38024 2.10027,2.66047 3.33631,3.8631 2.47209,2.40527 5.29826,4.57686 8.42857,6.14583 1.56516,0.78449 3.22238,1.38761 4.91667,1.93155 -1.43961,-0.56315 -2.73485,-1.32762 -4.03869,-2.10714 -0.0416,-0.0247 -0.1341,0.0253 -0.1756,0 -0.17943,-0.10845 -0.35002,-0.23887 -0.52678,-0.35119 -0.67651,-0.43098 -1.29813,-0.91879 -1.93155,-1.40476 -0.59659,-0.45402 -1.19843,-0.9053 -1.75595,-1.40477 -0.9998,-0.9071 -1.95239,-1.94075 -2.80952,-2.98512 -0.6045,-0.7319 -1.22717,-1.49064 -1.75596,-2.28273 -0.14097,-0.21566 -0.21603,-0.48251 -0.35119,-0.70238 -0.3639,-0.57895 -0.73175,-1.1492 -1.05357,-1.75596 -0.56757,-1.09406 -1.1557,-2.33584 -1.58036,-3.5119 -0.0447,-0.12255 -0.13254,-0.22785 -0.17559,-0.35119 -0.17883,-0.51667 -0.20119,-1.04981 -0.35119,-1.58036 -0.17044,-0.59909 -0.39552,-1.14084 -0.52679,-1.75595 -0.40951,-1.91897 -0.70238,-3.92325 -0.70238,-5.97024 l 0,-11.23809 0,-337.14285 0,-11.238096 c 0,-15.631335 12.4639,-28.095237 28.09524,-28.095237 l 11.23809,0 382.09523,0 11.23809,0 c 15.63133,0 28.09523,12.463902 28.09523,28.095237 l 0,11.238096 0,337.14285 0,11.23809 c 0,2.04699 -0.2929,4.05127 -0.7024,5.97024 -0.2481,1.16254 -0.4966,2.23446 -0.8779,3.33631 -0.043,0.12334 -0.131,0.22864 -0.1756,0.35119 -0.3526,0.97625 -0.7776,2.06471 -1.2292,2.98512 -0.2337,0.46525 -0.4441,0.95498 -0.7024,1.40476 -0.3068,0.54623 -0.7123,1.05835 -1.0536,1.58036 -0.5288,0.79209 -1.1514,1.55083 -1.7559,2.28273 -0.8045,0.98025 -1.7034,1.9498 -2.6339,2.80953 -0.063,0.0573 -0.1123,0.11884 -0.1756,0.17559 -0.7776,0.70551 -1.602,1.31731 -2.4584,1.93155 -0.5763,0.41103 -1.148,0.86176 -1.7559,1.22917 -0.042,0.0253 -0.134,-0.0247 -0.1756,0 -1.3039,0.77952 -2.5991,1.54399 -4.0387,2.10714 1.6943,-0.54392 3.3515,-1.14706 4.9167,-1.93155 3.1303,-1.56897 5.9564,-3.74056 8.4285,-6.14583 1.2361,-1.20263 2.3003,-2.48286 3.3363,-3.8631 1.0361,-1.38023 1.9971,-2.85303 2.8096,-4.38988 0.7873,-1.48931 1.5516,-2.94847 2.1071,-4.56547 0.058,-0.17296 0.1199,-0.35254 0.1756,-0.52679 0.5083,-1.56257 0.7799,-3.2557 1.0536,-4.91666 0.2944,-1.78714 0.5268,-3.56264 0.5268,-5.44346 l 0,-11.23809 0,-337.142848 0,-11.238095 c 0,-18.677714 -15.0366,-33.714284 -33.71433,-33.714284 z" />
  <path
     style="opacity:0.2;fill:url(#radialGradient3119);fill-opacity:1;fill-rule:nonzero;stroke:none"
     id="path3615"
     inkscape:connector-curvature="0"
     d="m -549.05467,476.67378 c -18.67771,0 -33.71429,-15.03657 -33.71429,-33.71429 l 0,-11.23809 0,-314.66666 0,-11.23809 c 0,-1.88082 0.23235,-3.65632 0.52679,-5.44346 0.27365,-1.660964 0.54527,-3.354089 1.05357,-4.916662 0.0555,-0.170707 0.11739,-0.357371 0.1756,-0.526786 0.55552,-1.616999 1.3198,-3.076158 2.10714,-4.565476 0.81247,-1.536849 1.77346,-3.009646 2.80952,-4.389881 1.03607,-1.380234 2.10027,-2.660461 3.33631,-3.863095 2.47209,-2.405267 5.29826,-4.57686 8.42857,-6.145833 1.56516,-0.784486 3.22238,-1.387607 4.91667,-1.931547 -1.43961,0.563152 -2.73485,1.327623 -4.03869,2.107143 -0.0416,0.02472 -0.1341,-0.02529 -0.1756,0 -0.17943,0.108447 -0.35002,0.238865 -0.52678,0.35119 -0.67651,0.430981 -1.29813,0.918787 -1.93155,1.404762 -0.59659,0.454019 -1.19843,0.905296 -1.75595,1.404762 -0.9998,0.907099 -1.95239,1.940751 -2.80952,2.985119 -0.6045,0.731909 -1.22717,1.490649 -1.75596,2.282738 -0.14097,0.215659 -0.21603,0.482507 -0.35119,0.702381 -0.3639,0.578941 -0.73175,1.14919 -1.05357,1.755952 -0.56757,1.094062 -1.1557,2.335843 -1.58036,3.511904 -0.0447,0.122552 -0.13254,0.227853 -0.17559,0.351191 -0.17883,0.516671 -0.20119,1.049812 -0.35119,1.580357 -0.17044,0.599092 -0.39552,1.140841 -0.52679,1.755952 -0.40951,1.918972 -0.70238,3.923247 -0.70238,5.970239 l 0,11.23809 0,314.66666 0,11.2381 c 0,15.63133 12.4639,28.09523 28.09524,28.09523 l 11.23809,0 382.09523,0 11.23809,0 c 15.63133,0 28.09523,-12.4639 28.09523,-28.09523 l 0,-11.2381 0,-314.66666 0,-11.23809 c 0,-2.046992 -0.2929,-4.051267 -0.7024,-5.970239 -0.2481,-1.162541 -0.4966,-2.234459 -0.8779,-3.336309 -0.043,-0.123338 -0.131,-0.228639 -0.1756,-0.351191 -0.3526,-0.976247 -0.7776,-2.064713 -1.2292,-2.985118 -0.2337,-0.465258 -0.4441,-0.95498 -0.7024,-1.404762 -0.3068,-0.546228 -0.7123,-1.058348 -1.0536,-1.580357 -0.5288,-0.792089 -1.1514,-1.550829 -1.7559,-2.282738 -0.8045,-0.980243 -1.7034,-1.949799 -2.6339,-2.809524 -0.063,-0.05731 -0.1123,-0.118843 -0.1756,-0.175595 -0.7776,-0.705505 -1.602,-1.317307 -2.4584,-1.931548 -0.5763,-0.411033 -1.148,-0.861759 -1.7559,-1.229166 -0.042,-0.02529 -0.134,0.02472 -0.1756,0 -1.3039,-0.77952 -2.5991,-1.543991 -4.0387,-2.107143 1.6943,0.543924 3.3515,1.147061 4.9167,1.931547 3.1303,1.568973 5.9564,3.740566 8.4285,6.145833 1.2361,1.202634 2.3003,2.482861 3.3363,3.863095 1.0361,1.380235 1.9971,2.853032 2.8096,4.389881 0.7873,1.489318 1.5516,2.948477 2.1071,4.565476 0.058,0.172955 0.1199,0.352539 0.1756,0.526786 0.5083,1.562573 0.7799,3.255698 1.0536,4.916662 0.2944,1.78714 0.5268,3.56264 0.5268,5.44346 l 0,11.23809 0,314.66666 0,11.23809 c 0,18.67772 -15.0366,33.71429 -33.71433,33.71429 l -404.57141,0 z" />
  <path
     d="m 15.96875,22.53125 c -2.845903,0.0043 -5.433244,2.591597 -5.4375,5.4375 l 0,48.0625 c 0.0043,2.845903 2.591597,5.433244 5.4375,5.4375 l 64.0625,0 c 2.845903,-0.0043 5.433244,-2.591597 5.4375,-5.4375 l 0,-48.0625 c -0.0043,-2.845903 -2.591597,-5.433244 -5.4375,-5.4375 z"
     inkscape:connector-curvature="0"
     clip-path="url(#clipPath3860)"
     id="path3850"
     style="opacity:0.15;fill:url(#linearGradient3179);fill-opacity:1;fill-rule:nonzero;stroke:none;display:inline;filter:url(#filter3870)"
     transform="matrix(5.6190474,0,0,4.9043651,553.82906,157.78795)" />
  <path
     style="opacity:0.35;color:#000000;fill:url(#linearGradient3133);fill-opacity:1;fill-rule:nonzero;stroke:none;marker:none;visibility:visible;display:inline;overflow:visible;enable-background:accumulate"
     id="path3108"
     inkscape:connector-curvature="0"
     d="m -551.71637,95.142274 c -17.20316,0 -31.05263,12.087976 -31.05263,27.103076 l 0,324.22049 c 0,12.97304 11.91936,23.37639 26.7829,23.37639 l 418.43417,0 c 14.8636,0 26.7829,-10.40335 26.7829,-23.37639 l 0,-302.53803 c 0,-15.01511 -13.8494,-27.10308 -31.0526,-27.10308 l -251.7204,0 c -25.53961,-22.291249 -27.11813,-21.319704 -39.20395,-21.682456 l -118.97039,0 z m 0,5.590006 118.77632,0 0.19408,0 c 5.99301,0.16891 7.40627,-0.092 11.25658,1.86334 3.91443,1.9879 10.60018,7.21922 23.28948,18.29457 a 6.4823983,5.6579071 0 0 0 4.65789,1.52455 l 251.72039,0 c 13.7244,0 24.648,9.53427 24.648,21.51307 l 0,302.53803 c 0,9.94855 -8.98,17.78639 -20.3783,17.78639 l -418.43417,0 c -11.3983,0 -20.37829,-7.83784 -20.37829,-17.78639 l 0,-324.22049 c 0,-11.9788 10.92364,-21.51307 24.64803,-21.51307 z" />
  <path
     style="color:#000000;fill:url(#linearGradient3133-9);fill-opacity:1;fill-rule:nonzero;stroke:none;stroke-width:1;marker:none;visibility:visible;display:inline;overflow:visible;enable-background:accumulate;opacity:0.34999999999999998"
     d="M 67.0625 74.65625 C 42.85934 74.65625 20 93.7349 20 117.75 L 20 127.75 C 20 103.7349 42.85934 84.65625 67.0625 84.65625 L 170.03125 84.65625 C 182.11707 85.019002 183.67914 84.052501 209.21875 106.34375 L 444.9375 106.34375 C 472.1407 106.34375 492 125.42239 492 149.4375 L 492 139.4375 C 492 115.42239 472.1407 96.34375 444.9375 96.34375 L 209.21875 96.34375 C 183.67914 74.052501 182.11707 75.019002 170.03125 74.65625 L 67.0625 74.65625 z "
     id="path3346" />
</svg>
