<?xml version="1.0" encoding="UTF-8" standalone="no"?>
<!-- Created with Inkscape (http://www.inkscape.org/) -->

<svg
   xmlns:dc="http://purl.org/dc/elements/1.1/"
   xmlns:cc="http://creativecommons.org/ns#"
   xmlns:rdf="http://www.w3.org/1999/02/22-rdf-syntax-ns#"
   xmlns:svg="http://www.w3.org/2000/svg"
   xmlns="http://www.w3.org/2000/svg"
   xmlns:xlink="http://www.w3.org/1999/xlink"
   xmlns:sodipodi="http://sodipodi.sourceforge.net/DTD/sodipodi-0.dtd"
   xmlns:inkscape="http://www.inkscape.org/namespaces/inkscape"
   inkscape:export-ydpi="100"
   inkscape:export-xdpi="100"
   inkscape:export-filename="/home/alecive/Scrivania/firefoxTest1.png"
   sodipodi:docname="gmail_B.svg"
   inkscape:version="0.48.3.1 r9886"
   version="1.1"
   id="svg2"
   height="512"
   width="512">
  <sodipodi:namedview
     id="base"
     pagecolor="#ffffff"
     bordercolor="#666666"
     borderopacity="1.0"
     inkscape:pageopacity="0.0"
     inkscape:pageshadow="2"
     inkscape:zoom="0.28375539"
     inkscape:cx="-291.0632"
     inkscape:cy="335.28965"
     inkscape:document-units="px"
     inkscape:current-layer="svg2"
     showgrid="false"
     inkscape:window-width="1305"
     inkscape:window-height="719"
     inkscape:window-x="61"
     inkscape:window-y="24"
     inkscape:window-maximized="1"
     inkscape:object-paths="false"
     inkscape:snap-intersection-paths="false"
     inkscape:object-nodes="true"
     inkscape:snap-smooth-nodes="true"
     inkscape:snap-nodes="true" />
  <defs
     id="defs4">
    <linearGradient
       id="circle53_2_"
       gradientUnits="userSpaceOnUse"
       x1="-175.6665"
       y1="582.19751"
       x2="-175.6665"
       y2="581.43579"
       gradientTransform="matrix(82,0,0,-82,14489.971,47794.699)">
      <stop
         offset="0"
         style="stop-color:#004f82;stop-opacity:1;"
         id="stop23" />
      <stop
         offset="1"
         style="stop-color:#0079c8;stop-opacity:1;"
         id="stop25" />
    </linearGradient>
    <radialGradient
       inkscape:collect="always"
       xlink:href="#circle53_2_"
       id="radialGradient3015"
       gradientUnits="userSpaceOnUse"
       gradientTransform="matrix(1.0006762,0.01270787,-0.0126993,0.99999998,3.0840664,-3.2531365)"
       cx="255.99385"
       cy="256"
       fx="255.99385"
       fy="256"
       r="216" />
    <radialGradient
       inkscape:collect="always"
       xlink:href="#linearGradient3853"
       id="radialGradient21898"
       cx="255.99385"
       cy="256"
       fx="255.99385"
       fy="256"
       r="216"
       gradientUnits="userSpaceOnUse" />
    <linearGradient
       id="linearGradient3853"
       gradientUnits="userSpaceOnUse"
       x1="64.477501"
       y1="56.3008"
       x2="78.466103"
       y2="48.0854">
      <stop
         offset="0"
         style="stop-color:#dcdcdc;stop-opacity:1;"
         id="stop3857" />
      <stop
         offset="1"
         style="stop-color:#dcdcdc;stop-opacity:1;"
         id="stop3859" />
    </linearGradient>
    <radialGradient
       inkscape:collect="always"
       xlink:href="#linearGradient3853"
       id="radialGradient3015-3"
       gradientUnits="userSpaceOnUse"
       cx="255.99385"
       cy="256"
       fx="255.99385"
       fy="256"
       r="216"
       gradientTransform="translate(0.00614237,-5.600586e-6)" />
    <linearGradient
       y2="20.625916"
       x2="1006.8082"
       y1="484.41721"
       x1="1012.5133"
       gradientTransform="matrix(1.0317796,0,0,1.0317796,-830.86406,592.67791)"
       gradientUnits="userSpaceOnUse"
       id="linearGradient4114-2"
       xlink:href="#ButtonShadow-0-1-1-5"
       inkscape:collect="always" />
    <linearGradient
       gradientTransform="matrix(1.0058652,0,0,0.994169,100,0)"
       gradientUnits="userSpaceOnUse"
       id="ButtonShadow-0-1-1-5"
       y2="7.0165396"
       x2="45.447727"
       y1="92.539597"
       x1="45.447727">
      <stop
         offset="0"
         style="stop-color:#000000;stop-opacity:1"
         id="stop3750-8-9-3-6" />
      <stop
         offset="1"
         style="stop-color:#000000;stop-opacity:0.58823532"
         id="stop3752-5-6-4-2" />
    </linearGradient>
    <linearGradient
       y2="20.625916"
       x2="1006.8082"
       y1="484.41721"
       x1="1012.5133"
       gradientTransform="matrix(1.0402541,0,0,1.0402541,-837.95116,592.51825)"
       gradientUnits="userSpaceOnUse"
       id="linearGradient4112-2"
       xlink:href="#ButtonShadow-0-1-1-5"
       inkscape:collect="always" />
    <linearGradient
       gradientTransform="matrix(1.0058652,0,0,0.994169,100,0)"
       gradientUnits="userSpaceOnUse"
       id="linearGradient5292"
       y2="7.0165396"
       x2="45.447727"
       y1="92.539597"
       x1="45.447727">
      <stop
         offset="0"
         style="stop-color:#000000;stop-opacity:1"
         id="stop5294" />
      <stop
         offset="1"
         style="stop-color:#000000;stop-opacity:0.58823532"
         id="stop5296" />
    </linearGradient>
    <linearGradient
       y2="20.625916"
       x2="1006.8082"
       y1="484.41721"
       x1="1012.5133"
       gradientTransform="matrix(1.023305,0,0,1.023305,-823.77704,592.83757)"
       gradientUnits="userSpaceOnUse"
       id="linearGradient4110-6"
       xlink:href="#ButtonShadow-0-1-1-5"
       inkscape:collect="always" />
    <linearGradient
       gradientTransform="matrix(1.0058652,0,0,0.994169,100,0)"
       gradientUnits="userSpaceOnUse"
       id="linearGradient5299"
       y2="7.0165396"
       x2="45.447727"
       y1="92.539597"
       x1="45.447727">
      <stop
         offset="0"
         style="stop-color:#000000;stop-opacity:1"
         id="stop5301" />
      <stop
         offset="1"
         style="stop-color:#000000;stop-opacity:0.58823532"
         id="stop5303" />
    </linearGradient>
    <linearGradient
       y2="20.625916"
       x2="1006.8082"
       y1="484.41721"
       x1="1012.5133"
       gradientTransform="matrix(1.0148305,0,0,1.0148305,-816.68996,592.99723)"
       gradientUnits="userSpaceOnUse"
       id="linearGradient4116-6"
       xlink:href="#ButtonShadow-0-1-1-5"
       inkscape:collect="always" />
    <linearGradient
       gradientTransform="matrix(1.0058652,0,0,0.994169,100,0)"
       gradientUnits="userSpaceOnUse"
       id="linearGradient5306"
       y2="7.0165396"
       x2="45.447727"
       y1="92.539597"
       x1="45.447727">
      <stop
         offset="0"
         style="stop-color:#000000;stop-opacity:1"
         id="stop5308" />
      <stop
         offset="1"
         style="stop-color:#000000;stop-opacity:0.58823532"
         id="stop5310" />
    </linearGradient>
    <linearGradient
       inkscape:collect="always"
       xlink:href="#ButtonShadow-0-1-1-5"
       id="linearGradient3372"
       gradientUnits="userSpaceOnUse"
       gradientTransform="matrix(1.0074153,0,0,1.0074153,-810.48879,593.1369)"
       x1="1012.5133"
       y1="484.41721"
       x2="1006.8082"
       y2="20.625916" />
    <linearGradient
       gradientTransform="matrix(1.0058652,0,0,0.994169,100,0)"
       gradientUnits="userSpaceOnUse"
       id="linearGradient5313"
       y2="7.0165396"
       x2="45.447727"
       y1="92.539597"
       x1="45.447727">
      <stop
         offset="0"
         style="stop-color:#000000;stop-opacity:1"
         id="stop5315" />
      <stop
         offset="1"
         style="stop-color:#000000;stop-opacity:0.58823532"
         id="stop5317" />
    </linearGradient>
    <linearGradient
       y2="251.66064"
       x2="1011.9534"
       y1="476.25983"
       x1="1016.1035"
       gradientTransform="translate(-146.22032,369.08845)"
       gradientUnits="userSpaceOnUse"
       id="linearGradient4082"
       xlink:href="#linearGradient4487"
       inkscape:collect="always" />
    <linearGradient
       id="linearGradient4487">
      <stop
         offset="0"
         style="stop-color:#000000;stop-opacity:1"
         id="stop4489" />
      <stop
         offset="1"
         style="stop-color:#000000;stop-opacity:0"
         id="stop4491" />
    </linearGradient>
    <linearGradient
       y2="363.73825"
       x2="988.78552"
       y1="51.511765"
       x1="993.43896"
       gradientTransform="translate(778.59979,-360.55963)"
       gradientUnits="userSpaceOnUse"
       id="linearGradient4084"
       xlink:href="#linearGradient3737"
       inkscape:collect="always" />
    <linearGradient
       id="linearGradient3737">
      <stop
         offset="0"
         style="stop-color:#ffffff;stop-opacity:1"
         id="stop3739" />
      <stop
         offset="1"
         style="stop-color:#ffffff;stop-opacity:0"
         id="stop3741" />
    </linearGradient>
    <linearGradient
       y2="-55.941216"
       x2="1763.6903"
       y1="155.59685"
       x1="1764.6487"
       gradientUnits="userSpaceOnUse"
       id="linearGradient4086"
       xlink:href="#linearGradient4046"
       inkscape:collect="always" />
    <linearGradient
       id="linearGradient4046">
      <stop
         offset="0"
         style="stop-color:#000000;stop-opacity:1;"
         id="stop4048" />
      <stop
         offset="1"
         style="stop-color:#ffffff;stop-opacity:0.2"
         id="stop4050" />
    </linearGradient>
    <linearGradient
       inkscape:collect="always"
       xlink:href="#ButtonShadow-0-1-1-5"
       id="linearGradient5342"
       gradientUnits="userSpaceOnUse"
       gradientTransform="matrix(1.0074153,0,0,1.0074153,-810.48879,593.1369)"
       x1="1012.5133"
       y1="484.41721"
       x2="1006.8082"
       y2="20.625916" />
  </defs>
  <metadata
     id="metadata7">
    <rdf:RDF>
      <cc:Work
         rdf:about="">
        <dc:format>image/svg+xml</dc:format>
        <dc:type
           rdf:resource="http://purl.org/dc/dcmitype/StillImage" />
        <dc:title />
      </cc:Work>
    </rdf:RDF>
  </metadata>
  <g
     id="layer1"
     inkscape:groupmode="layer"
     inkscape:label="Livello 1"
     transform="translate(0,-540.36218)" />
  <g
     id="g27124" />
  <g
     id="g11362">
    <g
       id="g4103"
       transform="translate(-11.985071,-592.11718)">
      <rect
         ry="101.45834"
         y="612.11719"
         x="31.985071"
         height="487"
         width="487"
         id="rect6187"
         style="opacity:0.1;color:#000000;fill:url(#linearGradient4114-2);fill-opacity:1;fill-rule:nonzero;stroke:none;stroke-width:1.5;marker:none;visibility:visible;display:inline;overflow:visible;enable-background:accumulate" />
      <rect
         style="opacity:0.07999998;color:#000000;fill:url(#linearGradient4112-2);fill-opacity:1;fill-rule:nonzero;stroke:none;stroke-width:1.5;marker:none;visibility:visible;display:inline;overflow:visible;enable-background:accumulate"
         id="rect6191"
         width="491"
         height="491"
         x="31.985071"
         y="612.11719"
         ry="102.29167" />
      <rect
         style="opacity:0.2;color:#000000;fill:url(#linearGradient4110-6);fill-opacity:1;fill-rule:nonzero;stroke:none;stroke-width:1.5;marker:none;visibility:visible;display:inline;overflow:visible;enable-background:accumulate"
         id="rect6183"
         width="483"
         height="483"
         x="31.985071"
         y="612.11719"
         ry="100.62501" />
      <rect
         ry="99.791664"
         y="612.11719"
         x="31.985071"
         height="479"
         width="479"
         id="rect6179"
         style="opacity:0.25;color:#000000;fill:url(#linearGradient4116-6);fill-opacity:1;fill-rule:nonzero;stroke:none;stroke-width:1.5;marker:none;visibility:visible;display:inline;overflow:visible;enable-background:accumulate" />
      <rect
         style="opacity:0.25;color:#000000;fill:url(#linearGradient5342);fill-opacity:1;fill-rule:nonzero;stroke:none;stroke-width:1.5;marker:none;visibility:visible;display:inline;overflow:visible;enable-background:accumulate"
         id="rect5574"
         width="475.5"
         height="475.5"
         x="31.985071"
         y="612.11719"
         ry="99.0625" />
    </g>
    <g
       id="g3822">
      <rect
         ry="98.333336"
         y="20"
         x="20"
         height="472"
         width="472"
         id="rect4121"
         style="color:#000000;fill:#e3e2d9;fill-opacity:1;fill-rule:nonzero;stroke:none;stroke-width:1.50000000000000000;marker:none;visibility:visible;display:inline;overflow:visible;enable-background:accumulate" />
      <g
         id="g3818">
        <path
           inkscape:connector-curvature="0"
           id="path15276"
           d="m 74.09375,30.4375 c -0.981911,0.493274 -1.943665,1.006433 -2.90625,1.53125 -0.962585,0.524817 -1.932414,1.06931 -2.875,1.625 -1.710683,1.008512 -3.389562,2.049154 -5.03125,3.15625 -0.149047,0.100528 -0.289041,0.211176 -0.4375,0.3125 -0.06215,0.04241 -0.125455,0.08246 -0.1875,0.125 -0.856551,0.587349 -1.694679,1.198995 -2.53125,1.8125 -0.22783,0.167131 -0.461181,0.330954 -0.6875,0.5 -1.517603,1.133325 -2.989807,2.313942 -4.4375,3.53125 -0.736329,0.61915 -1.469947,1.234811 -2.1875,1.875 -0.197907,0.176569 -0.397294,0.353103 -0.59375,0.53125 -0.603896,0.547657 -1.191259,1.093859 -1.78125,1.65625 -0.101076,0.09629 -0.211836,0.184528 -0.3125,0.28125 -0.465686,0.447697 -0.918238,0.918238 -1.375,1.375 -0.431959,0.43172 -0.857387,0.872804 -1.28125,1.3125 -0.12224,0.126868 -0.25344,0.247474 -0.375,0.375 -0.510371,0.535192 -1.001743,1.078356 -1.5,1.625 -0.559009,0.613628 -1.112786,1.215976 -1.65625,1.84375 -0.169775,0.195977 -0.33176,0.396413 -0.5,0.59375 -0.343004,0.402553 -0.694688,0.810596 -1.03125,1.21875 -0.355871,0.431312 -0.713914,0.875021 -1.0625,1.3125 -0.565387,0.709567 -1.110343,1.399522 -1.65625,2.125 -0.06814,0.09057 -0.119667,0.190434 -0.1875,0.28125 -0.329138,0.440579 -0.64689,0.897466 -0.96875,1.34375 -0.169033,0.234424 -0.364243,0.45152 -0.53125,0.6875 -0.42498,0.600494 -0.838283,1.202075 -1.25,1.8125 -0.378763,0.561299 -0.757623,1.117969 -1.125,1.6875 -0.488781,0.758038 -0.969213,1.540214 -1.4375,2.3125 -0.09863,0.162597 -0.183537,0.336781 -0.28125,0.5 -0.436677,0.729834 -0.863132,1.445436 -1.28125,2.1875 -0.199175,0.353089 -0.398833,0.706692 -0.59375,1.0625 -0.443245,0.810166 -0.891602,1.644792 -1.3125,2.46875 -0.0042,0.0082 0.0042,0.02302 0,0.03125 -0.499562,0.978044 -0.97006,1.940641 -1.4375,2.9375 -0.351579,0.749775 -0.698176,1.521162 -1.03125,2.28125 -0.180396,0.411924 -0.35635,0.835115 -0.53125,1.25 -0.310173,0.735772 -0.613561,1.473863 -0.90625,2.21875 -0.199115,0.506743 -0.402826,1.020387 -0.59375,1.53125 -0.164272,0.439548 -0.341846,0.869957 -0.5,1.3125 -0.143773,0.40224 -0.267575,0.814073 -0.40625,1.21875 -0.05081,0.148368 -0.106132,0.288808 -0.15625,0.4375 -0.240367,0.712424 -0.463071,1.436512 -0.6875,2.15625 -0.279063,0.895558 -0.558454,1.780991 -0.8125,2.6875 -0.154608,0.550938 -0.292259,1.101378 -0.4375,1.65625 -0.04105,0.157023 -0.08471,0.311417 -0.125,0.46875 -0.142056,0.553968 -0.273607,1.098491 -0.40625,1.65625 -0.162271,0.682346 -0.320715,1.374626 -0.46875,2.0625 -0.196438,0.913247 -0.39147,1.827357 -0.5625,2.75 -0.04449,0.23999 -0.08225,0.47814 -0.125,0.71875 -0.06679,0.37572 -0.124962,0.74779 -0.1875,1.125 -0.186225,1.12327 -0.351957,2.27019 -0.5,3.40625 -0.123619,0.94863 -0.247185,1.88663 -0.34375,2.84375 -0.0052,0.0514 0.0051,0.10484 0,0.15625 -0.04236,0.42659 -0.08807,0.85304 -0.125,1.28125 -0.03054,0.3536 -0.06693,0.70781 -0.09375,1.0625 -0.03845,0.50932 -0.06302,1.01974 -0.09375,1.53125 -0.06966,1.15962 -0.126796,2.3296 -0.15625,3.5 -1.38e-4,0.0849 1.37e-4,0.22741 0,0.3125 C 20.004096,133.01017 20,152.09123 20,178.21875 c 0,70.4321 0.04683,158.48134 0.46875,225.1875 3.365176,34.52907 24.453143,63.71765 54.09375,78.40625 l 0,-376.90625 L 256.03125,222.6875 437.5,104.90625 l 0,376.875 c 29.76724,-14.77795 50.87364,-44.18915 54.0625,-78.9375 0.40141,-66.64161 0.4375,-154.39442 0.4375,-224.625 0,-26.12752 -0.007,-45.20858 -0.0312,-62.125 -0.002,-0.10322 0.003,-0.20936 0,-0.3125 -0.0294,-1.17009 -0.0866,-2.34066 -0.15625,-3.5 -0.0307,-0.51138 -0.0553,-1.02205 -0.0937,-1.53125 -0.0489,-0.64635 -0.095,-1.29477 -0.15625,-1.9375 -0.018,-0.18938 -0.0434,-0.37344 -0.0625,-0.5625 -0.0965,-0.95691 -0.22022,-1.89531 -0.34375,-2.84375 -0.14794,-1.13583 -0.31391,-2.28318 -0.5,-3.40625 -0.0625,-0.37715 -0.12075,-0.74934 -0.1875,-1.125 -0.0428,-0.24061 -0.0805,-0.47876 -0.125,-0.71875 -0.17103,-0.922643 -0.36606,-1.836753 -0.5625,-2.75 -0.14793,-0.687772 -0.30659,-1.380246 -0.46875,-2.0625 -0.13255,-0.557684 -0.26429,-1.102352 -0.40625,-1.65625 -0.1366,-0.533365 -0.26102,-1.063974 -0.40625,-1.59375 -0.0689,-0.251182 -0.14791,-0.499638 -0.21875,-0.75 -0.23543,-0.832607 -0.49344,-1.645413 -0.75,-2.46875 -0.22427,-0.719669 -0.4473,-1.443885 -0.6875,-2.15625 -0.11727,-0.347911 -0.22272,-0.685118 -0.34375,-1.03125 -0.14253,-0.407723 -0.28979,-0.813531 -0.4375,-1.21875 -0.0879,-0.240978 -0.19152,-0.478669 -0.28125,-0.71875 -0.19092,-0.510863 -0.39464,-1.024507 -0.59375,-1.53125 -0.29269,-0.744887 -0.59608,-1.482978 -0.90625,-2.21875 -0.20027,-0.475075 -0.38627,-0.966313 -0.59375,-1.4375 -0.11544,-0.262089 -0.2261,-0.52038 -0.34375,-0.78125 -0.19452,-0.431572 -0.39322,-0.853057 -0.59375,-1.28125 -0.46712,-0.996838 -0.96952,-1.99071 -1.46875,-2.96875 -0.004,-0.0082 0.004,-0.02302 0,-0.03125 -0.49135,-0.961881 -1.00949,-1.93196 -1.53125,-2.875 -0.24375,-0.440303 -0.49972,-0.876408 -0.75,-1.3125 -0.29779,-0.519059 -0.59931,-1.018257 -0.90625,-1.53125 C 477.53233,66.842819 476.9665,65.91762 476.375,65 c -0.37185,-0.576859 -0.74148,-1.150331 -1.125,-1.71875 -0.22692,-0.336446 -0.45653,-0.666557 -0.6875,-1 -0.21732,-0.31364 -0.43539,-0.626547 -0.65625,-0.9375 -0.4092,-0.576252 -0.82875,-1.151866 -1.25,-1.71875 -0.0484,-0.06508 -0.10772,-0.122543 -0.15625,-0.1875 -0.13944,-0.186677 -0.26552,-0.376858 -0.40625,-0.5625 -0.46951,-0.61923 -0.95374,-1.236197 -1.4375,-1.84375 -0.35051,-0.4402 -0.70462,-0.87854 -1.0625,-1.3125 -0.0607,-0.07366 -0.12655,-0.145276 -0.1875,-0.21875 -0.44099,-0.531634 -0.89182,-1.071709 -1.34375,-1.59375 -0.5388,-0.622388 -1.07092,-1.235266 -1.625,-1.84375 -0.49948,-0.548377 -1.01958,-1.088142 -1.53125,-1.625 -0.2381,-0.249788 -0.47804,-0.502741 -0.71875,-0.75 -0.30726,-0.315676 -0.62603,-0.625983 -0.9375,-0.9375 -0.45676,-0.456762 -0.90931,-0.927303 -1.375,-1.375 -0.10131,-0.09741 -0.21078,-0.184274 -0.3125,-0.28125 -0.5686,-0.542003 -1.13723,-1.065427 -1.71875,-1.59375 -0.49918,-0.453518 -0.99147,-0.900487 -1.5,-1.34375 -0.0836,-0.07286 -0.16619,-0.146169 -0.25,-0.21875 -0.34971,-0.302744 -0.70847,-0.608402 -1.0625,-0.90625 -0.24877,-0.209329 -0.49912,-0.41811 -0.75,-0.625 -0.58416,-0.481698 -1.18581,-0.96919 -1.78125,-1.4375 -0.023,-0.01809 -0.0395,-0.04443 -0.0625,-0.0625 -0.83424,-0.654922 -1.67545,-1.278119 -2.53125,-1.90625 -0.41466,-0.304316 -0.83039,-0.608331 -1.25,-0.90625 -0.47003,-0.333776 -0.9301,-0.674347 -1.40625,-1 -0.18104,-0.123808 -0.38059,-0.221126 -0.5625,-0.34375 -1.30535,-0.879901 -2.61952,-1.7447 -3.96875,-2.5625 -0.334,-0.202527 -0.66338,-0.395107 -1,-0.59375 C 443.37928,33.393475 443.0296,33.196294 442.6875,33 c -0.61325,-0.35183 -1.2222,-0.692353 -1.84375,-1.03125 -0.0738,-0.04024 -0.14488,-0.08495 -0.21875,-0.125 -0.88121,-0.477518 -1.79014,-0.955128 -2.6875,-1.40625 L 256.03125,152.625 74.09375,30.4375 z"
           style="fill:#dc4437;fill-opacity:1" />
        <path
           sodipodi:nodetypes="cccc"
           inkscape:connector-curvature="0"
           id="path3043"
           d="M 437.5,104.90625 256.03125,222.6875 437.5,340.46875 z"
           style="fill:#000000;fill-opacity:0.15686275" />
      </g>
    </g>
    <g
       id="g4076"
       transform="translate(-605.51932,-353.96832)">
      <g
         transform="translate(-926.66758,684.38448)"
         id="g4038">
        <path
           inkscape:connector-curvature="0"
           style="opacity:0.5;color:#000000;fill:url(#linearGradient4084);fill-opacity:1;fill-rule:nonzero;stroke:none;stroke-width:1.5;marker:none;visibility:visible;display:inline;overflow:visible;enable-background:accumulate"
           d="m 1650.4994,-310.41615 c -54.4767,0 -98.3125,43.83583 -98.3125,98.3125 l 0,275.343747 c 0,54.476673 43.8358,98.343753 98.3125,98.343753 l 2.9375,0 c -53.3225,0 -96.25,-42.9275 -96.25,-96.250003 l 0,-269.499997 c 0,-53.3225 42.9275,-96.25 96.25,-96.25 l 269.5001,0 c 53.3225,0 96.25,42.9275 96.25,96.25 l 0,269.499997 c 0,53.322503 -42.9275,96.250003 -96.25,96.250003 l 2.9062,0 c 54.4767,0 98.3438,-43.86708 98.3438,-98.343753 l 0,-275.343747 c 0,-54.47667 -43.8671,-98.3125 -98.3438,-98.3125 l -275.3438,0 z"
           id="rect6809-2" />
        <path
           id="path3981"
           d="m 1650.4994,161.58385 c -54.4767,0 -98.3125,-43.83583 -98.3125,-98.312503 l 0,-275.343747 c 0,-54.47667 43.8358,-98.34375 98.3125,-98.34375 l 2.9375,0 c -53.3225,0 -96.25,42.9275 -96.25,96.25 l 0,269.499997 c 0,53.322503 42.9275,96.250003 96.25,96.250003 l 269.5001,0 c 53.3225,0 96.25,-42.9275 96.25,-96.250003 l 0,-269.499997 c 0,-53.3225 -42.9275,-96.25 -96.25,-96.25 l 2.9062,0 c 54.4767,0 98.3438,43.86708 98.3438,98.34375 l 0,275.343747 c 0,54.476673 -43.8671,98.312503 -98.3438,98.312503 l -275.3438,0 z"
           style="opacity:0.2;color:#000000;fill:url(#linearGradient4086);fill-opacity:1;fill-rule:nonzero;stroke:none;stroke-width:1.5;marker:none;visibility:visible;display:inline;overflow:visible;enable-background:accumulate"
           inkscape:connector-curvature="0" />
      </g>
    </g>
  </g>
  <g
     id="g15255" />
  <g
     transform="matrix(1.475,0,0,2.0457492,788.07103,-716.42099)"
     id="g15259">
    <path
       style="fill:#e3e2d9;fill-opacity:1"
       d="M 97.40342,156.17396 C 96.06022,159.88363 96,168.57789 96,255.71105 c 0,93.09782 0.0582,95.56036 1.66327,99.84895 7.46684,16.89301 22.43324,15.43483 35.31877,15.80116 l 246.06189,0 c 12.88552,-0.36655 27.85192,1.09185 35.31876,-15.80116 1.60567,-4.28859 1.63731,-6.75113 1.63731,-99.84895 0,-87.13316 -0.0364,-95.82742 -1.37738,-99.53709 -3.76975,-10.41113 -11.38255,-16.3832 -24.87127,-15.43731 l -267.47666,0 c -11.97542,-0.41454 -21.58378,6.81753 -24.87127,15.43731 z"
       id="path2984"
       inkscape:connector-curvature="0"
       sodipodi:nodetypes="csccccssccc" />
    <path
       style="fill:#dc4437;fill-opacity:1"
       d="M 97.40342,156.17396 C 96.06022,159.88363 96,168.57789 96,255.71105 c 0,93.09782 0.0582,95.56036 1.66327,99.84895 7.46684,16.89301 22.43324,15.43483 35.31877,15.80116 l 0,-168.97913 123.03098,85.65906 123.03091,-85.65906 0,168.97913 c 12.88552,-0.36655 27.85192,1.09185 35.31876,-15.80116 1.60567,-4.28859 1.63731,-6.75113 1.63731,-99.84895 0,-87.13316 -0.0364,-95.82742 -1.37738,-99.53709 -3.76975,-10.41113 -11.38255,-16.3832 -24.87127,-15.43731 l -133.73833,96.3664 -133.73833,-96.3664 c -11.97542,-0.41454 -21.58378,6.81753 -24.87127,15.43731 z"
       id="path2989"
       inkscape:connector-curvature="0"
       sodipodi:nodetypes="cscccccccsscccc" />
  </g>
  <g
     transform="matrix(1.0727273,0,0,1,-84.096652,-516.51595)"
     id="g3754">
    <path
       style="fill:#dc4437;fill-opacity:1"
       d="m 111.9922,178.6801 c -1.8469,5.1008 -1.9297,17.0554 -1.9297,136.8635 0,128.0095 0.08,131.3955 2.287,137.2923 10.2669,23.2279 30.8457,21.2229 48.5633,21.7266 l 0,-232.3463 169.1676,117.7812 169.1675,-117.7812 0,232.3463 c 17.7176,-0.504 38.2964,1.5013 48.5633,-21.7266 2.2078,-5.8968 2.2513,-9.2828 2.2513,-137.2923 0,-119.8081 -0.05,-131.7627 -1.8939,-136.8635 -5.1834,-14.3153 -15.651,-22.5269 -34.198,-21.2263 L 330.0804,289.9576 146.1902,157.4538 c -16.4662,-0.57 -29.6777,9.3741 -34.198,21.2263 z"
       id="path2989-3"
       inkscape:connector-curvature="0"
       sodipodi:nodetypes="cscccccccsscccc" />
  </g>
</svg>
