<?xml version="1.0" encoding="UTF-8" standalone="no"?>
<!-- Created with Inkscape (http://www.inkscape.org/) -->

<svg
   xmlns:dc="http://purl.org/dc/elements/1.1/"
   xmlns:cc="http://creativecommons.org/ns#"
   xmlns:rdf="http://www.w3.org/1999/02/22-rdf-syntax-ns#"
   xmlns:svg="http://www.w3.org/2000/svg"
   xmlns="http://www.w3.org/2000/svg"
   xmlns:xlink="http://www.w3.org/1999/xlink"
   xmlns:sodipodi="http://sodipodi.sourceforge.net/DTD/sodipodi-0.dtd"
   xmlns:inkscape="http://www.inkscape.org/namespaces/inkscape"
   inkscape:export-ydpi="100"
   inkscape:export-xdpi="100"
   inkscape:export-filename="/home/alecive/Scrivania/firefoxTest1.png"
   sodipodi:docname="gmail.svg"
   inkscape:version="0.48.4 r9939"
   version="1.1"
   id="svg2"
   height="512"
   width="512">
  <sodipodi:namedview
     id="base"
     pagecolor="#ffffff"
     bordercolor="#666666"
     borderopacity="1.0"
     inkscape:pageopacity="0.0"
     inkscape:pageshadow="2"
     inkscape:zoom="0.80064655"
     inkscape:cx="216.305"
     inkscape:cy="253.14423"
     inkscape:document-units="px"
     inkscape:current-layer="svg2"
     showgrid="false"
     inkscape:window-width="1309"
     inkscape:window-height="744"
     inkscape:window-x="57"
     inkscape:window-y="24"
     inkscape:window-maximized="1"
     inkscape:object-paths="false"
     inkscape:snap-intersection-paths="false"
     inkscape:object-nodes="true"
     inkscape:snap-smooth-nodes="true"
     inkscape:snap-nodes="true" />
  <defs
     id="defs4">
    <linearGradient
       gradientTransform="matrix(82,0,0,-82,14489.971,47794.699)"
       y2="581.43579"
       x2="-175.6665"
       y1="582.19751"
       x1="-175.6665"
       gradientUnits="userSpaceOnUse"
       id="circle53_2_">
      <stop
         id="stop23"
         style="stop-color:#004f82;stop-opacity:1;"
         offset="0" />
      <stop
         id="stop25"
         style="stop-color:#0079c8;stop-opacity:1;"
         offset="1" />
    </linearGradient>
    <radialGradient
       r="216"
       fy="256"
       fx="255.99385"
       cy="256"
       cx="255.99385"
       gradientTransform="matrix(1.0006762,0.01270787,-0.0126993,0.99999998,3.0840664,-3.2531365)"
       gradientUnits="userSpaceOnUse"
       id="radialGradient3015"
       xlink:href="#circle53_2_"
       inkscape:collect="always" />
    <radialGradient
       gradientUnits="userSpaceOnUse"
       r="216"
       fy="256"
       fx="255.99385"
       cy="256"
       cx="255.99385"
       id="radialGradient21898"
       xlink:href="#linearGradient3853"
       inkscape:collect="always" />
    <linearGradient
       y2="48.0854"
       x2="78.466103"
       y1="56.3008"
       x1="64.477501"
       gradientUnits="userSpaceOnUse"
       id="linearGradient3853">
      <stop
         id="stop3857"
         style="stop-color:#dcdcdc;stop-opacity:1;"
         offset="0" />
      <stop
         id="stop3859"
         style="stop-color:#dcdcdc;stop-opacity:1;"
         offset="1" />
    </linearGradient>
    <radialGradient
       gradientTransform="translate(0.00614237,-5.600586e-6)"
       r="216"
       fy="256"
       fx="255.99385"
       cy="256"
       cx="255.99385"
       gradientUnits="userSpaceOnUse"
       id="radialGradient3015-3"
       xlink:href="#linearGradient3853"
       inkscape:collect="always" />
    <linearGradient
       inkscape:collect="always"
       xlink:href="#ButtonShadow-0-1-1-5"
       id="linearGradient4114-2"
       gradientUnits="userSpaceOnUse"
       gradientTransform="matrix(1.0317796,0,0,1.0317796,-830.86406,592.67791)"
       x1="1012.5133"
       y1="484.41721"
       x2="1006.8082"
       y2="20.625916" />
    <linearGradient
       x1="45.447727"
       y1="92.539597"
       x2="45.447727"
       y2="7.0165396"
       id="ButtonShadow-0-1-1-5"
       gradientUnits="userSpaceOnUse"
       gradientTransform="matrix(1.0058652,0,0,0.994169,100,0)">
      <stop
         id="stop3750-8-9-3-6"
         style="stop-color:#000000;stop-opacity:1"
         offset="0" />
      <stop
         id="stop3752-5-6-4-2"
         style="stop-color:#000000;stop-opacity:0.58823532"
         offset="1" />
    </linearGradient>
    <linearGradient
       inkscape:collect="always"
       xlink:href="#ButtonShadow-0-1-1-5"
       id="linearGradient4112-2"
       gradientUnits="userSpaceOnUse"
       gradientTransform="matrix(1.0402541,0,0,1.0402541,-837.95116,592.51825)"
       x1="1012.5133"
       y1="484.41721"
       x2="1006.8082"
       y2="20.625916" />
    <linearGradient
       x1="45.447727"
       y1="92.539597"
       x2="45.447727"
       y2="7.0165396"
       id="linearGradient5292"
       gradientUnits="userSpaceOnUse"
       gradientTransform="matrix(1.0058652,0,0,0.994169,100,0)">
      <stop
         id="stop5294"
         style="stop-color:#000000;stop-opacity:1"
         offset="0" />
      <stop
         id="stop5296"
         style="stop-color:#000000;stop-opacity:0.58823532"
         offset="1" />
    </linearGradient>
    <linearGradient
       inkscape:collect="always"
       xlink:href="#ButtonShadow-0-1-1-5"
       id="linearGradient4110-6"
       gradientUnits="userSpaceOnUse"
       gradientTransform="matrix(1.023305,0,0,1.023305,-823.77704,592.83757)"
       x1="1012.5133"
       y1="484.41721"
       x2="1006.8082"
       y2="20.625916" />
    <linearGradient
       x1="45.447727"
       y1="92.539597"
       x2="45.447727"
       y2="7.0165396"
       id="linearGradient5299"
       gradientUnits="userSpaceOnUse"
       gradientTransform="matrix(1.0058652,0,0,0.994169,100,0)">
      <stop
         id="stop5301"
         style="stop-color:#000000;stop-opacity:1"
         offset="0" />
      <stop
         id="stop5303"
         style="stop-color:#000000;stop-opacity:0.58823532"
         offset="1" />
    </linearGradient>
    <linearGradient
       inkscape:collect="always"
       xlink:href="#ButtonShadow-0-1-1-5"
       id="linearGradient4116-6"
       gradientUnits="userSpaceOnUse"
       gradientTransform="matrix(1.0148305,0,0,1.0148305,-816.68996,592.99723)"
       x1="1012.5133"
       y1="484.41721"
       x2="1006.8082"
       y2="20.625916" />
    <linearGradient
       x1="45.447727"
       y1="92.539597"
       x2="45.447727"
       y2="7.0165396"
       id="linearGradient5306"
       gradientUnits="userSpaceOnUse"
       gradientTransform="matrix(1.0058652,0,0,0.994169,100,0)">
      <stop
         id="stop5308"
         style="stop-color:#000000;stop-opacity:1"
         offset="0" />
      <stop
         id="stop5310"
         style="stop-color:#000000;stop-opacity:0.58823532"
         offset="1" />
    </linearGradient>
    <linearGradient
       y2="20.625916"
       x2="1006.8082"
       y1="484.41721"
       x1="1012.5133"
       gradientTransform="matrix(1.0074153,0,0,1.0074153,-810.48879,593.1369)"
       gradientUnits="userSpaceOnUse"
       id="linearGradient3372"
       xlink:href="#ButtonShadow-0-1-1-5"
       inkscape:collect="always" />
    <linearGradient
       x1="45.447727"
       y1="92.539597"
       x2="45.447727"
       y2="7.0165396"
       id="linearGradient5313"
       gradientUnits="userSpaceOnUse"
       gradientTransform="matrix(1.0058652,0,0,0.994169,100,0)">
      <stop
         id="stop5315"
         style="stop-color:#000000;stop-opacity:1"
         offset="0" />
      <stop
         id="stop5317"
         style="stop-color:#000000;stop-opacity:0.58823532"
         offset="1" />
    </linearGradient>
    <linearGradient
       inkscape:collect="always"
       xlink:href="#linearGradient4487"
       id="linearGradient4082"
       gradientUnits="userSpaceOnUse"
       gradientTransform="translate(-146.22032,369.08845)"
       x1="1016.1035"
       y1="476.25983"
       x2="1011.9534"
       y2="251.66064" />
    <linearGradient
       id="linearGradient4487">
      <stop
         id="stop4489"
         style="stop-color:#000000;stop-opacity:1"
         offset="0" />
      <stop
         id="stop4491"
         style="stop-color:#000000;stop-opacity:0"
         offset="1" />
    </linearGradient>
    <linearGradient
       inkscape:collect="always"
       xlink:href="#linearGradient3737"
       id="linearGradient4084"
       gradientUnits="userSpaceOnUse"
       gradientTransform="translate(778.59979,-360.55963)"
       x1="993.43896"
       y1="51.511765"
       x2="988.78552"
       y2="363.73825" />
    <linearGradient
       id="linearGradient3737">
      <stop
         id="stop3739"
         style="stop-color:#ffffff;stop-opacity:1"
         offset="0" />
      <stop
         id="stop3741"
         style="stop-color:#ffffff;stop-opacity:0"
         offset="1" />
    </linearGradient>
    <linearGradient
       inkscape:collect="always"
       xlink:href="#linearGradient4046"
       id="linearGradient4086"
       gradientUnits="userSpaceOnUse"
       x1="1764.6487"
       y1="155.59685"
       x2="1763.6903"
       y2="-55.941216" />
    <linearGradient
       id="linearGradient4046">
      <stop
         id="stop4048"
         style="stop-color:#000000;stop-opacity:1;"
         offset="0" />
      <stop
         id="stop4050"
         style="stop-color:#ffffff;stop-opacity:0.2"
         offset="1" />
    </linearGradient>
    <linearGradient
       y2="20.625916"
       x2="1006.8082"
       y1="484.41721"
       x1="1012.5133"
       gradientTransform="matrix(1.0074153,0,0,1.0074153,-810.48879,593.1369)"
       gradientUnits="userSpaceOnUse"
       id="linearGradient5342"
       xlink:href="#ButtonShadow-0-1-1-5"
       inkscape:collect="always" />
    <linearGradient
       inkscape:collect="always"
       xlink:href="#ButtonShadow-0-1-1-5"
       id="linearGradient11655"
       gradientUnits="userSpaceOnUse"
       gradientTransform="matrix(1.0317796,0,0,1.0317796,-830.86406,592.67791)"
       x1="1012.5133"
       y1="484.41721"
       x2="1006.8082"
       y2="20.625916" />
    <linearGradient
       inkscape:collect="always"
       xlink:href="#ButtonShadow-0-1-1-5"
       id="linearGradient11657"
       gradientUnits="userSpaceOnUse"
       gradientTransform="matrix(1.0402541,0,0,1.0402541,-837.95116,592.51825)"
       x1="1012.5133"
       y1="484.41721"
       x2="1006.8082"
       y2="20.625916" />
    <linearGradient
       inkscape:collect="always"
       xlink:href="#ButtonShadow-0-1-1-5"
       id="linearGradient11659"
       gradientUnits="userSpaceOnUse"
       gradientTransform="matrix(1.023305,0,0,1.023305,-823.77704,592.83757)"
       x1="1012.5133"
       y1="484.41721"
       x2="1006.8082"
       y2="20.625916" />
    <linearGradient
       inkscape:collect="always"
       xlink:href="#ButtonShadow-0-1-1-5"
       id="linearGradient11661"
       gradientUnits="userSpaceOnUse"
       gradientTransform="matrix(1.0148305,0,0,1.0148305,-816.68996,592.99723)"
       x1="1012.5133"
       y1="484.41721"
       x2="1006.8082"
       y2="20.625916" />
    <linearGradient
       inkscape:collect="always"
       xlink:href="#ButtonShadow-0-1-1-5"
       id="linearGradient11663"
       gradientUnits="userSpaceOnUse"
       gradientTransform="matrix(1.0074153,0,0,1.0074153,-810.48879,593.1369)"
       x1="1012.5133"
       y1="484.41721"
       x2="1006.8082"
       y2="20.625916" />
    <linearGradient
       inkscape:collect="always"
       xlink:href="#linearGradient3737"
       id="linearGradient11665"
       gradientUnits="userSpaceOnUse"
       gradientTransform="translate(778.59979,-360.55963)"
       x1="993.43896"
       y1="51.511765"
       x2="988.78552"
       y2="363.73825" />
    <linearGradient
       inkscape:collect="always"
       xlink:href="#linearGradient4046"
       id="linearGradient11667"
       gradientUnits="userSpaceOnUse"
       x1="1764.6487"
       y1="155.59685"
       x2="1763.6903"
       y2="-55.941216" />
  </defs>
  <metadata
     id="metadata7">
    <rdf:RDF>
      <cc:Work
         rdf:about="">
        <dc:format>image/svg+xml</dc:format>
        <dc:type
           rdf:resource="http://purl.org/dc/dcmitype/StillImage" />
        <dc:title />
      </cc:Work>
    </rdf:RDF>
  </metadata>
  <g
     transform="translate(0,-540.36218)"
     inkscape:label="Livello 1"
     inkscape:groupmode="layer"
     id="layer1" />
  <g
     id="g27124" />
  <g
     id="g11688">
    <g
       transform="translate(-11.985071,-592.11718)"
       id="g4103">
      <rect
         style="opacity:0.1;color:#000000;fill:url(#linearGradient11655);fill-opacity:1;fill-rule:nonzero;stroke:none;stroke-width:1.5;marker:none;visibility:visible;display:inline;overflow:visible;enable-background:accumulate"
         id="rect6187"
         width="487"
         height="487"
         x="31.985071"
         y="612.11719"
         ry="101.45834" />
      <rect
         ry="102.29167"
         y="612.11719"
         x="31.985071"
         height="491"
         width="491"
         id="rect6191"
         style="opacity:0.07999998;color:#000000;fill:url(#linearGradient11657);fill-opacity:1;fill-rule:nonzero;stroke:none;stroke-width:1.5;marker:none;visibility:visible;display:inline;overflow:visible;enable-background:accumulate" />
      <rect
         ry="100.62501"
         y="612.11719"
         x="31.985071"
         height="483"
         width="483"
         id="rect6183"
         style="opacity:0.2;color:#000000;fill:url(#linearGradient11659);fill-opacity:1;fill-rule:nonzero;stroke:none;stroke-width:1.5;marker:none;visibility:visible;display:inline;overflow:visible;enable-background:accumulate" />
      <rect
         style="opacity:0.25;color:#000000;fill:url(#linearGradient11661);fill-opacity:1;fill-rule:nonzero;stroke:none;stroke-width:1.5;marker:none;visibility:visible;display:inline;overflow:visible;enable-background:accumulate"
         id="rect6179"
         width="479"
         height="479"
         x="31.985071"
         y="612.11719"
         ry="99.791664" />
      <rect
         ry="99.0625"
         y="612.11719"
         x="31.985071"
         height="475.5"
         width="475.5"
         id="rect5574"
         style="opacity:0.25;color:#000000;fill:url(#linearGradient11663);fill-opacity:1;fill-rule:nonzero;stroke:none;stroke-width:1.5;marker:none;visibility:visible;display:inline;overflow:visible;enable-background:accumulate" />
    </g>
    <g
       id="g11604">
      <g
         id="g11626">
        <rect
           style="color:#000000;fill:#dfddd3;fill-opacity:1;fill-rule:nonzero;stroke:none;stroke-width:1.50000000000000000;marker:none;visibility:visible;display:inline;overflow:visible;enable-background:accumulate"
           id="rect4121"
           width="472"
           height="472"
           x="20"
           y="20"
           ry="98.333336" />
        <g
           id="g11619">
          <path
             style="fill:#000000;fill-opacity:0.31372549"
             d="m 392.21875,140.625 c -0.79764,0.006 -1.62571,0.0659 -2.46875,0.125 0.84304,-0.0591 1.67111,-0.11932 2.46875,-0.125 z m 8.53125,1.1875 c 0.55223,0.17291 1.07305,0.3839 1.59375,0.59375 -0.5183,-0.21126 -1.04406,-0.41928 -1.59375,-0.59375 z M 409.15625,147 c 2.34657,2.44953 4.14993,5.54523 5.46875,9.1875 1.34098,3.70967 1.375,12.39809 1.375,99.53125 0,93.09782 -0.0193,95.55516 -1.625,99.84375 -7.46684,16.89301 -22.45823,15.44595 -35.34375,15.8125 l -246.0625,0 c -9.87261,-0.28067 -20.96205,0.49424 -28.96875,-6.71875 0.0317,0.0298 0.062,0.0642 0.0937,0.0937 0.0568,0.0555 0.0991,0.1329 0.15625,0.1875 0.0257,0.0268 0.068,0.0359 0.0937,0.0625 0.0379,0.0358 0.0557,0.0896 0.0937,0.125 0.0514,0.0501 0.10457,0.10688 0.15625,0.15625 0.0257,0.0268 0.068,0.0359 0.0937,0.0625 0.0713,0.0769 0.14688,0.14338 0.21875,0.21875 0.0159,0.0152 0.0153,0.0473 0.0312,0.0625 0.0156,0.0156 0.0469,0.0157 0.0625,0.0312 0.0109,0.0103 0.0203,0.0209 0.0312,0.0312 0.006,0.007 -0.006,0.0247 0,0.0312 0.0836,0.0824 0.16568,0.16945 0.25,0.25 0.0103,0.0107 0.021,0.0205 0.0312,0.0312 0.0196,0.0213 0.0429,0.0414 0.0625,0.0625 0.006,0.005 0.0255,-0.005 0.0312,0 0.009,0.01 0.022,0.0214 0.0312,0.0312 0.0322,0.0302 0.0615,0.0638 0.0937,0.0937 0.0201,0.0213 0.0424,0.0414 0.0625,0.0625 0.0159,0.0152 0.0153,0.0473 0.0312,0.0625 0.0353,0.0369 0.0895,0.0572 0.125,0.0937 0.0429,0.0403 0.082,0.0851 0.125,0.125 0.042,0.0407 0.0828,0.0847 0.125,0.125 0.0308,0.0322 0.0628,0.0618 0.0937,0.0937 0.0874,0.0863 0.16183,0.19703 0.25,0.28125 0.0566,0.059 0.13058,0.0982 0.1875,0.15625 0.0109,0.0102 0.0203,0.0211 0.0312,0.0312 0.0475,0.0462 0.0773,0.11068 0.125,0.15625 0.0293,0.032 0.0643,0.062 0.0937,0.0937 0.0836,0.0824 0.16568,0.16945 0.25,0.25 0.0103,0.0107 0.021,0.0205 0.0312,0.0312 0.0196,0.0213 0.0429,0.0414 0.0625,0.0625 0.006,0.005 0.0255,-0.005 0.0312,0 0.009,0.01 0.022,0.0214 0.0312,0.0312 0.0322,0.0302 0.0615,0.0638 0.0937,0.0937 0.0201,0.0213 0.0424,0.0414 0.0625,0.0625 0.0159,0.0152 0.0153,0.0473 0.0312,0.0625 0.0353,0.0369 0.0895,0.0572 0.125,0.0937 0.0429,0.0403 0.082,0.0851 0.125,0.125 0.042,0.0407 0.0828,0.0847 0.125,0.125 0.0308,0.0322 0.0628,0.0618 0.0937,0.0937 0.0874,0.0863 0.16183,0.19703 0.25,0.28125 0.0566,0.059 0.13058,0.0982 0.1875,0.15625 0.0109,0.0102 0.0203,0.0211 0.0312,0.0312 0.0475,0.0462 0.0773,0.11068 0.125,0.15625 0.0293,0.032 0.0643,0.062 0.0937,0.0937 0.0836,0.0824 0.16568,0.16945 0.25,0.25 0.0314,0.0328 0.0623,0.0613 0.0937,0.0937 0.02,0.0216 0.0425,0.041 0.0625,0.0625 0.0628,0.0615 0.12426,0.12709 0.1875,0.1875 0.0356,0.0372 0.0893,0.0569 0.125,0.0937 0.0214,0.0202 0.041,0.0424 0.0625,0.0625 0.0587,0.0573 0.0972,0.1311 0.15625,0.1875 0.036,0.0376 0.0889,0.0565 0.125,0.0937 0.0317,0.0298 0.062,0.0642 0.0937,0.0937 0.0568,0.0555 0.0991,0.1329 0.15625,0.1875 0.0257,0.0268 0.068,0.0359 0.0937,0.0625 0.0379,0.0358 0.0557,0.0896 0.0937,0.125 0.0523,0.051 0.10368,0.10603 0.15625,0.15625 0.0566,0.059 0.13058,0.0982 0.1875,0.15625 0.0109,0.0102 0.0203,0.0211 0.0312,0.0312 0.0475,0.0462 0.0773,0.11068 0.125,0.15625 0.0752,0.082 0.17419,0.13846 0.25,0.21875 0.011,0.0102 0.0203,0.0211 0.0312,0.0312 0.0266,0.0256 0.0359,0.0683 0.0625,0.0937 0.0154,0.0161 0.0471,0.0152 0.0625,0.0312 0.0104,0.0104 0.0208,0.0209 0.0312,0.0312 0.005,0.005 -0.005,0.0265 0,0.0312 0.0153,0.0165 0.0471,0.0148 0.0625,0.0312 0.0322,0.0302 0.0615,0.0638 0.0937,0.0937 0.0201,0.0213 0.0424,0.0414 0.0625,0.0625 0.0159,0.0152 0.0153,0.0473 0.0312,0.0625 0.0353,0.0369 0.0895,0.0572 0.125,0.0937 0.0429,0.0403 0.082,0.0851 0.125,0.125 0.042,0.0407 0.0828,0.0847 0.125,0.125 0.0308,0.0322 0.0628,0.0618 0.0937,0.0937 0.0874,0.0863 0.16183,0.19703 0.25,0.28125 0.0566,0.059 0.13058,0.0982 0.1875,0.15625 0.0109,0.0102 0.0203,0.0211 0.0312,0.0312 0.0475,0.0462 0.0773,0.11068 0.125,0.15625 0.0293,0.032 0.0643,0.062 0.0937,0.0937 0.0836,0.0824 0.16568,0.16945 0.25,0.25 0.0103,0.0107 0.021,0.0205 0.0312,0.0312 0.0349,0.0379 0.09,0.0562 0.125,0.0937 0.0322,0.0302 0.0615,0.0638 0.0937,0.0937 0.0201,0.0213 0.0424,0.0414 0.0625,0.0625 0.0159,0.0152 0.0153,0.0473 0.0312,0.0625 0.0353,0.0369 0.0895,0.0572 0.125,0.0937 0.0429,0.0403 0.082,0.0851 0.125,0.125 0.042,0.0407 0.0828,0.0847 0.125,0.125 0.0308,0.0322 0.0628,0.0618 0.0937,0.0937 0.0874,0.0863 0.16183,0.19703 0.25,0.28125 0.0566,0.059 0.13058,0.0982 0.1875,0.15625 0.0109,0.0102 0.0203,0.0211 0.0312,0.0312 0.0475,0.0462 0.0773,0.11068 0.125,0.15625 0.0293,0.032 0.0643,0.062 0.0937,0.0937 0.0836,0.0824 0.16568,0.16945 0.25,0.25 0.0103,0.0107 0.021,0.0205 0.0312,0.0312 0.0349,0.0379 0.09,0.0562 0.125,0.0937 0.0322,0.0302 0.0615,0.0638 0.0937,0.0937 0.0201,0.0213 0.0424,0.0414 0.0625,0.0625 0.0159,0.0152 0.0153,0.0473 0.0312,0.0625 0.0353,0.0369 0.0895,0.0572 0.125,0.0937 0.0429,0.0403 0.082,0.0851 0.125,0.125 0.042,0.0407 0.0828,0.0847 0.125,0.125 0.0308,0.0322 0.0628,0.0618 0.0937,0.0937 0.0874,0.0863 0.16183,0.19703 0.25,0.28125 0.0566,0.059 0.13058,0.0982 0.1875,0.15625 0.0109,0.0102 0.0203,0.0211 0.0312,0.0312 0.0475,0.0462 0.0773,0.11068 0.125,0.15625 0.0293,0.032 0.0643,0.062 0.0937,0.0937 0.0836,0.0824 0.16568,0.16945 0.25,0.25 0.0314,0.0328 0.0623,0.0613 0.0937,0.0937 0.0836,0.0824 0.16568,0.16945 0.25,0.25 0.0303,0.0317 0.0633,0.0623 0.0937,0.0937 0.085,0.0839 0.16425,0.16809 0.25,0.25 0.0356,0.0372 0.0893,0.0569 0.125,0.0937 0.0317,0.0298 0.062,0.0642 0.0937,0.0937 0.0568,0.0555 0.0991,0.1329 0.15625,0.1875 0.0257,0.0268 0.068,0.0359 0.0937,0.0625 0.0379,0.0358 0.0557,0.0896 0.0937,0.125 0.0514,0.0501 0.10457,0.10688 0.15625,0.15625 0.0566,0.059 0.13058,0.0982 0.1875,0.15625 0.0109,0.0102 0.0203,0.0211 0.0312,0.0312 0.0475,0.0462 0.0773,0.11068 0.125,0.15625 0.0293,0.032 0.0643,0.062 0.0937,0.0937 0.0836,0.0824 0.16568,0.16945 0.25,0.25 0.0103,0.0107 0.021,0.0205 0.0312,0.0312 0.0196,0.0213 0.0429,0.0414 0.0625,0.0625 0.006,0.005 0.0255,-0.005 0.0312,0 0.009,0.01 0.022,0.0214 0.0312,0.0312 0.0322,0.0302 0.0615,0.0638 0.0937,0.0937 0.0201,0.0213 0.0424,0.0414 0.0625,0.0625 0.0159,0.0152 0.0153,0.0473 0.0312,0.0625 0.0353,0.0369 0.0895,0.0572 0.125,0.0937 0.0429,0.0403 0.082,0.0851 0.125,0.125 0.042,0.0407 0.0828,0.0847 0.125,0.125 0.0308,0.0322 0.0628,0.0618 0.0937,0.0937 0.0874,0.0863 0.16183,0.19703 0.25,0.28125 0.0566,0.059 0.13058,0.0982 0.1875,0.15625 0.0109,0.0102 0.0203,0.0211 0.0312,0.0312 0.0475,0.0462 0.0773,0.11068 0.125,0.15625 0.0293,0.032 0.0643,0.062 0.0937,0.0937 0.0836,0.0824 0.16568,0.16945 0.25,0.25 0.0103,0.0107 0.021,0.0205 0.0312,0.0312 0.0196,0.0213 0.0429,0.0414 0.0625,0.0625 0.006,0.005 0.0255,-0.005 0.0312,0 0.009,0.01 0.022,0.0214 0.0312,0.0312 0.0322,0.0302 0.0615,0.0638 0.0937,0.0937 0.0201,0.0213 0.0424,0.0414 0.0625,0.0625 0.0159,0.0152 0.0153,0.0473 0.0312,0.0625 0.0353,0.0369 0.0895,0.0572 0.125,0.0937 0.0429,0.0403 0.082,0.0851 0.125,0.125 0.042,0.0407 0.0828,0.0847 0.125,0.125 0.0308,0.0322 0.0628,0.0618 0.0937,0.0937 0.0874,0.0863 0.16183,0.19703 0.25,0.28125 0.0566,0.059 0.13058,0.0982 0.1875,0.15625 0.0109,0.0102 0.0203,0.0211 0.0312,0.0312 0.0475,0.0462 0.0773,0.11068 0.125,0.15625 0.0293,0.032 0.0643,0.062 0.0937,0.0937 0.0836,0.0824 0.16568,0.16945 0.25,0.25 0.0314,0.0328 0.0623,0.0613 0.0937,0.0937 0.02,0.0216 0.0425,0.041 0.0625,0.0625 0.0628,0.0615 0.12426,0.12709 0.1875,0.1875 0.0356,0.0372 0.0893,0.0569 0.125,0.0937 0.0214,0.0202 0.041,0.0424 0.0625,0.0625 0.0587,0.0573 0.0972,0.1311 0.15625,0.1875 0.036,0.0376 0.0889,0.0565 0.125,0.0937 0.0317,0.0298 0.062,0.0642 0.0937,0.0937 0.0568,0.0555 0.0991,0.1329 0.15625,0.1875 0.0257,0.0268 0.068,0.0359 0.0937,0.0625 0.0379,0.0358 0.0557,0.0896 0.0937,0.125 0.0523,0.051 0.10368,0.10603 0.15625,0.15625 0.0566,0.059 0.13058,0.0982 0.1875,0.15625 0.0109,0.0102 0.0203,0.0211 0.0312,0.0312 0.0475,0.0462 0.0773,0.11068 0.125,0.15625 0.0293,0.032 0.0643,0.062 0.0937,0.0937 0.0836,0.0824 0.16568,0.16945 0.25,0.25 0.0103,0.0107 0.021,0.0205 0.0312,0.0312 0.0349,0.0379 0.09,0.0562 0.125,0.0937 0.0322,0.0302 0.0615,0.0638 0.0937,0.0937 0.0201,0.0213 0.0424,0.0414 0.0625,0.0625 0.0159,0.0152 0.0153,0.0473 0.0312,0.0625 0.0353,0.0369 0.0895,0.0572 0.125,0.0937 0.0429,0.0403 0.082,0.0851 0.125,0.125 0.042,0.0407 0.0828,0.0847 0.125,0.125 0.0308,0.0322 0.0628,0.0618 0.0937,0.0937 0.0874,0.0863 0.16183,0.19703 0.25,0.28125 0.0566,0.059 0.13058,0.0982 0.1875,0.15625 0.0109,0.0102 0.0203,0.0211 0.0312,0.0312 0.0475,0.0462 0.0773,0.11068 0.125,0.15625 0.0293,0.032 0.0643,0.062 0.0937,0.0937 0.0836,0.0824 0.16568,0.16945 0.25,0.25 0.0103,0.0107 0.021,0.0205 0.0312,0.0312 0.0349,0.0379 0.09,0.0562 0.125,0.0937 0.0322,0.0302 0.0615,0.0638 0.0937,0.0937 0.0201,0.0213 0.0424,0.0414 0.0625,0.0625 0.0159,0.0152 0.0153,0.0473 0.0312,0.0625 0.0353,0.0369 0.0895,0.0572 0.125,0.0937 0.0429,0.0403 0.082,0.0851 0.125,0.125 0.042,0.0407 0.0828,0.0847 0.125,0.125 0.0308,0.0322 0.0628,0.0618 0.0937,0.0937 0.0874,0.0863 0.16183,0.19703 0.25,0.28125 0.0566,0.059 0.13058,0.0982 0.1875,0.15625 0.0109,0.0102 0.0203,0.0211 0.0312,0.0312 0.0475,0.0462 0.0773,0.11068 0.125,0.15625 0.0293,0.032 0.0643,0.062 0.0937,0.0937 0.0836,0.0824 0.16568,0.16945 0.25,0.25 0.0314,0.0328 0.0623,0.0613 0.0937,0.0937 0.02,0.0216 0.0425,0.041 0.0625,0.0625 0.0628,0.0615 0.12426,0.12709 0.1875,0.1875 0.0356,0.0372 0.0893,0.0569 0.125,0.0937 0.0214,0.0202 0.041,0.0424 0.0625,0.0625 0.0587,0.0573 0.0972,0.1311 0.15625,0.1875 0.036,0.0376 0.0889,0.0565 0.125,0.0937 0.0317,0.0298 0.062,0.0642 0.0937,0.0937 0.0568,0.0555 0.0991,0.1329 0.15625,0.1875 0.0257,0.0268 0.068,0.0359 0.0937,0.0625 0.0379,0.0358 0.0557,0.0896 0.0937,0.125 0.0523,0.051 0.10368,0.10603 0.15625,0.15625 0.0566,0.059 0.13058,0.0982 0.1875,0.15625 0.0109,0.0102 0.0203,0.0211 0.0312,0.0312 0.0475,0.0462 0.0773,0.11068 0.125,0.15625 0.0752,0.082 0.17419,0.13846 0.25,0.21875 0.011,0.0102 0.0203,0.0211 0.0312,0.0312 0.0265,0.0256 0.0359,0.0683 0.0625,0.0937 0.0154,0.0161 0.0471,0.0152 0.0625,0.0312 0.0104,0.0104 0.0208,0.0209 0.0312,0.0312 0.005,0.005 -0.005,0.0265 0,0.0312 0.006,0.005 0.0255,-0.005 0.0312,0 0.009,0.01 0.022,0.0214 0.0312,0.0312 0.0322,0.0302 0.0615,0.0638 0.0937,0.0937 0.0201,0.0213 0.0424,0.0414 0.0625,0.0625 0.0159,0.0152 0.0154,0.0473 0.0312,0.0625 0.0353,0.0369 0.0895,0.0572 0.125,0.0937 0.0739,0.0696 0.14431,0.15055 0.21875,0.21875 0.0105,0.0101 0.0207,0.0212 0.0312,0.0312 0.0308,0.0322 0.0628,0.0618 0.0937,0.0937 0.0874,0.0863 0.16183,0.19703 0.25,0.28125 0.0566,0.059 0.13058,0.0982 0.1875,0.15625 0.0109,0.0102 0.0203,0.0211 0.0312,0.0312 0.0475,0.0462 0.0773,0.11068 0.125,0.15625 0.0293,0.032 0.0643,0.062 0.0937,0.0937 0.0836,0.0824 0.16568,0.16945 0.25,0.25 0.0103,0.0107 0.021,0.0205 0.0312,0.0312 0.0196,0.0213 0.0429,0.0414 0.0625,0.0625 0.006,0.005 0.0255,-0.005 0.0312,0 0.009,0.01 0.022,0.0214 0.0312,0.0312 0.0322,0.0302 0.0615,0.0638 0.0937,0.0937 0.0201,0.0213 0.0424,0.0414 0.0625,0.0625 0.0159,0.0152 0.0154,0.0473 0.0312,0.0625 0.0353,0.0369 0.0895,0.0572 0.125,0.0937 0.0428,0.0403 0.082,0.0851 0.125,0.125 0.042,0.0407 0.0828,0.0847 0.125,0.125 0.0308,0.0322 0.0628,0.0618 0.0937,0.0937 0.0874,0.0863 0.16183,0.19703 0.25,0.28125 0.0566,0.059 0.13058,0.0982 0.1875,0.15625 0.0109,0.0102 0.0203,0.0211 0.0312,0.0312 0.0475,0.0462 0.0773,0.11068 0.125,0.15625 0.0293,0.032 0.0643,0.062 0.0937,0.0937 0.0836,0.0824 0.16568,0.16945 0.25,0.25 0.0103,0.0107 0.021,0.0205 0.0312,0.0312 0.0196,0.0213 0.0429,0.0414 0.0625,0.0625 0.006,0.005 0.0255,-0.005 0.0312,0 0.009,0.01 0.022,0.0214 0.0312,0.0312 0.0322,0.0302 0.0615,0.0638 0.0937,0.0937 0.0201,0.0213 0.0424,0.0414 0.0625,0.0625 0.0159,0.0152 0.0154,0.0473 0.0312,0.0625 0.0353,0.0369 0.0895,0.0572 0.125,0.0937 0.0428,0.0403 0.082,0.0851 0.125,0.125 0.042,0.0407 0.0828,0.0847 0.125,0.125 0.0308,0.0322 0.0628,0.0618 0.0937,0.0937 0.0874,0.0863 0.16183,0.19703 0.25,0.28125 0.0566,0.059 0.13058,0.0982 0.1875,0.15625 0.0109,0.0102 0.0203,0.0211 0.0312,0.0312 0.0475,0.0462 0.0773,0.11068 0.125,0.15625 0.0293,0.032 0.0643,0.062 0.0937,0.0937 0.0836,0.0824 0.16568,0.16945 0.25,0.25 0.0314,0.0328 0.0623,0.0613 0.0937,0.0937 0.0836,0.0824 0.16568,0.16945 0.25,0.25 0.0303,0.0317 0.0633,0.0623 0.0937,0.0937 0.085,0.0839 0.16425,0.16809 0.25,0.25 0.0356,0.0372 0.0893,0.0569 0.125,0.0937 0.0317,0.0298 0.062,0.0642 0.0937,0.0937 0.0568,0.0555 0.0991,0.1329 0.15625,0.1875 0.0257,0.0268 0.068,0.0359 0.0937,0.0625 0.0379,0.0358 0.0557,0.0896 0.0937,0.125 0.0514,0.0501 0.10457,0.10688 0.15625,0.15625 0.0566,0.059 0.13058,0.0982 0.1875,0.15625 0.0109,0.0102 0.0203,0.0211 0.0312,0.0312 0.0475,0.0462 0.0773,0.11068 0.125,0.15625 0.0293,0.032 0.0643,0.062 0.0937,0.0937 0.0836,0.0824 0.16568,0.16945 0.25,0.25 0.0103,0.0107 0.021,0.0205 0.0312,0.0312 0.0349,0.0379 0.09,0.0562 0.125,0.0937 0.0322,0.0302 0.0615,0.0638 0.0937,0.0937 0.0201,0.0213 0.0424,0.0414 0.0625,0.0625 0.0159,0.0152 0.0154,0.0473 0.0312,0.0625 0.0353,0.0369 0.0895,0.0572 0.125,0.0937 0.0428,0.0403 0.082,0.0851 0.125,0.125 0.042,0.0407 0.0828,0.0847 0.125,0.125 0.0308,0.0322 0.0628,0.0618 0.0937,0.0937 0.0874,0.0863 0.16183,0.19703 0.25,0.28125 0.0566,0.059 0.13058,0.0982 0.1875,0.15625 0.0109,0.0102 0.0203,0.0211 0.0312,0.0312 0.0475,0.0462 0.0773,0.11068 0.125,0.15625 0.0293,0.032 0.0643,0.062 0.0937,0.0937 0.0836,0.0824 0.16568,0.16945 0.25,0.25 0.0103,0.0107 0.021,0.0205 0.0312,0.0312 0.0349,0.0379 0.09,0.0562 0.125,0.0937 0.0322,0.0302 0.0615,0.0638 0.0937,0.0937 0.0201,0.0213 0.0424,0.0414 0.0625,0.0625 0.0159,0.0152 0.0154,0.0473 0.0312,0.0625 0.0353,0.0369 0.0895,0.0572 0.125,0.0937 0.0428,0.0403 0.082,0.0851 0.125,0.125 0.042,0.0407 0.0828,0.0847 0.125,0.125 0.0308,0.0322 0.0628,0.0618 0.0937,0.0937 0.0874,0.0863 0.16183,0.19703 0.25,0.28125 0.0566,0.059 0.13058,0.0982 0.1875,0.15625 0.0109,0.0102 0.0203,0.0211 0.0312,0.0312 0.0475,0.0462 0.0773,0.11068 0.125,0.15625 0.0293,0.032 0.0643,0.062 0.0937,0.0937 0.0836,0.0824 0.16568,0.16945 0.25,0.25 0.0314,0.0328 0.0623,0.0613 0.0937,0.0937 0.02,0.0216 0.0425,0.041 0.0625,0.0625 0.0628,0.0615 0.12426,0.12709 0.1875,0.1875 0.0356,0.0372 0.0893,0.0569 0.125,0.0937 0.0214,0.0202 0.041,0.0424 0.0625,0.0625 0.0587,0.0573 0.0972,0.1311 0.15625,0.1875 0.036,0.0376 0.0889,0.0565 0.125,0.0937 0.0317,0.0298 0.062,0.0642 0.0937,0.0937 0.0568,0.0555 0.0991,0.1329 0.15625,0.1875 0.0257,0.0268 0.068,0.0359 0.0937,0.0625 0.0379,0.0358 0.0557,0.0896 0.0937,0.125 0.0523,0.051 0.10368,0.10603 0.15625,0.15625 0.0566,0.059 0.13058,0.0982 0.1875,0.15625 0.0109,0.0102 0.0203,0.0211 0.0312,0.0312 0.0475,0.0462 0.0773,0.11068 0.125,0.15625 0.0293,0.032 0.0643,0.062 0.0937,0.0937 0.0836,0.0824 0.16568,0.16945 0.25,0.25 0.0103,0.0107 0.021,0.0205 0.0312,0.0312 0.0196,0.0213 0.0429,0.0414 0.0625,0.0625 0.006,0.005 0.0255,-0.005 0.0312,0 0.009,0.01 0.022,0.0214 0.0312,0.0312 0.0322,0.0302 0.0615,0.0638 0.0937,0.0937 0.0201,0.0213 0.0424,0.0414 0.0625,0.0625 0.0159,0.0152 0.0154,0.0473 0.0312,0.0625 0.0353,0.0369 0.0895,0.0572 0.125,0.0937 0.0428,0.0403 0.082,0.0851 0.125,0.125 0.042,0.0407 0.0828,0.0847 0.125,0.125 0.0308,0.0322 0.0628,0.0618 0.0937,0.0937 0.0874,0.0863 0.16183,0.19703 0.25,0.28125 0.0566,0.059 0.13058,0.0982 0.1875,0.15625 0.0109,0.0102 0.0203,0.0211 0.0312,0.0312 0.0475,0.0462 0.0773,0.11068 0.125,0.15625 0.0293,0.032 0.0643,0.062 0.0937,0.0937 0.0836,0.0824 0.16568,0.16945 0.25,0.25 0.0103,0.0107 0.021,0.0205 0.0312,0.0312 0.0196,0.0213 0.0429,0.0414 0.0625,0.0625 0.006,0.005 0.0255,-0.005 0.0312,0 0.009,0.01 0.022,0.0214 0.0312,0.0312 0.0322,0.0302 0.0615,0.0638 0.0937,0.0937 0.0201,0.0213 0.0424,0.0414 0.0625,0.0625 0.0159,0.0152 0.0154,0.0473 0.0312,0.0625 0.0353,0.0369 0.0895,0.0572 0.125,0.0937 0.0428,0.0403 0.082,0.0851 0.125,0.125 0.042,0.0407 0.0828,0.0847 0.125,0.125 0.0308,0.0322 0.0628,0.0618 0.0937,0.0937 0.0874,0.0863 0.16183,0.19703 0.25,0.28125 0.0566,0.059 0.13058,0.0982 0.1875,0.15625 0.0109,0.0102 0.0203,0.0211 0.0312,0.0312 0.0475,0.0462 0.0773,0.11068 0.125,0.15625 0.0293,0.032 0.0643,0.062 0.0937,0.0937 0.0836,0.0824 0.16568,0.16945 0.25,0.25 0.0103,0.0107 0.021,0.0205 0.0312,0.0312 0.0196,0.0213 0.0429,0.0414 0.0625,0.0625 0.006,0.005 0.0255,-0.005 0.0312,0 0.0591,0.0636 0.12796,0.12491 0.1875,0.1875 0.0159,0.0152 0.0154,0.0473 0.0312,0.0625 0.0353,0.0369 0.0895,0.0572 0.125,0.0937 0.0428,0.0403 0.082,0.0851 0.125,0.125 0.042,0.0407 0.0828,0.0847 0.125,0.125 0.0308,0.0322 0.0628,0.0618 0.0937,0.0937 0.0874,0.0863 0.16183,0.19703 0.25,0.28125 0.0257,0.0268 0.068,0.0359 0.0937,0.0625 0.0379,0.0358 0.0557,0.0896 0.0937,0.125 0.0523,0.051 0.10368,0.10603 0.15625,0.15625 0.0566,0.059 0.13058,0.0982 0.1875,0.15625 0.0109,0.0102 0.0203,0.0211 0.0312,0.0312 0.0475,0.0462 0.0773,0.11068 0.125,0.15625 0.0752,0.082 0.17419,0.13846 0.25,0.21875 0.011,0.0102 0.0203,0.0211 0.0312,0.0312 0.0265,0.0256 0.0359,0.0683 0.0625,0.0937 0.0154,0.0161 0.0471,0.0152 0.0625,0.0312 0.0104,0.0104 0.0208,0.0209 0.0312,0.0312 0.005,0.005 -0.005,0.0265 0,0.0312 0.0154,0.0165 0.0471,0.0148 0.0625,0.0312 0.0322,0.0302 0.0615,0.0638 0.0937,0.0937 0.0201,0.0213 0.0424,0.0414 0.0625,0.0625 0.0159,0.0152 0.0154,0.0473 0.0312,0.0625 0.0353,0.0369 0.0895,0.0572 0.125,0.0937 0.0739,0.0696 0.14431,0.15055 0.21875,0.21875 0.0105,0.0101 0.0207,0.0212 0.0312,0.0312 0.0308,0.0322 0.0628,0.0618 0.0937,0.0937 0.0874,0.0863 0.16183,0.19703 0.25,0.28125 0.0566,0.059 0.13058,0.0982 0.1875,0.15625 0.0109,0.0102 0.0203,0.0211 0.0312,0.0312 0.0475,0.0462 0.0773,0.11068 0.125,0.15625 0.0293,0.032 0.0643,0.062 0.0937,0.0937 0.0836,0.0824 0.16568,0.16945 0.25,0.25 0.0103,0.0107 0.021,0.0205 0.0312,0.0312 0.0349,0.0379 0.09,0.0562 0.125,0.0937 0.0322,0.0302 0.0615,0.0638 0.0937,0.0937 0.0201,0.0213 0.0424,0.0414 0.0625,0.0625 0.0159,0.0152 0.0154,0.0473 0.0312,0.0625 0.0353,0.0369 0.0895,0.0572 0.125,0.0937 0.0428,0.0403 0.082,0.0851 0.125,0.125 0.042,0.0407 0.0828,0.0847 0.125,0.125 0.0308,0.0322 0.0628,0.0618 0.0937,0.0937 0.0874,0.0863 0.16183,0.19703 0.25,0.28125 0.0566,0.059 0.13058,0.0982 0.1875,0.15625 0.0109,0.0102 0.0203,0.0211 0.0312,0.0312 0.0475,0.0462 0.0773,0.11068 0.125,0.15625 0.0293,0.032 0.0643,0.062 0.0937,0.0937 0.0836,0.0824 0.16568,0.16945 0.25,0.25 0.0103,0.0107 0.021,0.0205 0.0312,0.0312 0.0349,0.0379 0.09,0.0562 0.125,0.0937 0.0322,0.0302 0.0615,0.0638 0.0937,0.0937 0.0201,0.0213 0.0424,0.0414 0.0625,0.0625 0.0159,0.0152 0.0154,0.0473 0.0312,0.0625 0.0353,0.0369 0.0895,0.0572 0.125,0.0937 0.0428,0.0403 0.082,0.0851 0.125,0.125 0.042,0.0407 0.0828,0.0847 0.125,0.125 0.0308,0.0322 0.0628,0.0618 0.0937,0.0937 0.0874,0.0863 0.16183,0.19703 0.25,0.28125 0.0566,0.059 0.13058,0.0982 0.1875,0.15625 0.0109,0.0102 0.0203,0.0211 0.0312,0.0312 0.0475,0.0462 0.0773,0.11068 0.125,0.15625 0.0293,0.032 0.0643,0.062 0.0937,0.0937 0.0836,0.0824 0.16568,0.16945 0.25,0.25 0.0314,0.0328 0.0623,0.0613 0.0937,0.0937 0.0836,0.0824 0.16568,0.16945 0.25,0.25 0.0303,0.0317 0.0633,0.0623 0.0937,0.0937 0.085,0.0839 0.16425,0.16809 0.25,0.25 0.0356,0.0372 0.0893,0.0569 0.125,0.0937 0.0317,0.0298 0.062,0.0642 0.0937,0.0937 0.0568,0.0555 0.0991,0.1329 0.15625,0.1875 0.0257,0.0268 0.068,0.0359 0.0937,0.0625 0.0379,0.0358 0.0557,0.0896 0.0937,0.125 0.0514,0.0501 0.10457,0.10688 0.15625,0.15625 0.0566,0.059 0.13058,0.0982 0.1875,0.15625 0.0109,0.0102 0.0203,0.0211 0.0312,0.0312 0.0475,0.0462 0.0773,0.11068 0.125,0.15625 0.0293,0.032 0.0643,0.062 0.0937,0.0937 0.0836,0.0824 0.16568,0.16945 0.25,0.25 0.0103,0.0107 0.021,0.0205 0.0312,0.0312 0.0196,0.0213 0.0429,0.0414 0.0625,0.0625 0.006,0.005 0.0255,-0.005 0.0312,0 0.009,0.01 0.022,0.0214 0.0312,0.0312 0.0322,0.0302 0.0615,0.0638 0.0937,0.0937 0.0201,0.0213 0.0424,0.0414 0.0625,0.0625 0.0159,0.0152 0.0154,0.0473 0.0312,0.0625 0.0353,0.0369 0.0895,0.0572 0.125,0.0937 0.0428,0.0403 0.082,0.0851 0.125,0.125 0.042,0.0407 0.0828,0.0847 0.125,0.125 0.0308,0.0322 0.0628,0.0618 0.0937,0.0937 0.0874,0.0863 0.16183,0.19703 0.25,0.28125 0.0566,0.059 0.13058,0.0982 0.1875,0.15625 0.0109,0.0102 0.0203,0.0211 0.0312,0.0312 0.0475,0.0462 0.0773,0.11068 0.125,0.15625 0.0293,0.032 0.0643,0.062 0.0937,0.0937 0.0836,0.0824 0.16568,0.16945 0.25,0.25 0.0103,0.0107 0.021,0.0205 0.0312,0.0312 0.0196,0.0213 0.0429,0.0414 0.0625,0.0625 0.006,0.005 0.0255,-0.005 0.0312,0 0.009,0.01 0.022,0.0214 0.0312,0.0312 0.0322,0.0302 0.0615,0.0638 0.0937,0.0937 0.0201,0.0213 0.0424,0.0414 0.0625,0.0625 0.0159,0.0152 0.0154,0.0473 0.0312,0.0625 0.0353,0.0369 0.0895,0.0572 0.125,0.0937 0.0428,0.0403 0.082,0.0851 0.125,0.125 0.042,0.0407 0.0828,0.0847 0.125,0.125 0.0308,0.0322 0.0628,0.0618 0.0937,0.0937 0.0874,0.0863 0.16183,0.19703 0.25,0.28125 0.0566,0.059 0.13058,0.0982 0.1875,0.15625 0.0109,0.0102 0.0203,0.0211 0.0312,0.0312 0.0475,0.0462 0.0773,0.11068 0.125,0.15625 0.0293,0.032 0.0643,0.062 0.0937,0.0937 0.0836,0.0824 0.16568,0.16945 0.25,0.25 0.0314,0.0328 0.0623,0.0613 0.0937,0.0937 0.02,0.0216 0.0425,0.041 0.0625,0.0625 0.0628,0.0615 0.12426,0.12709 0.1875,0.1875 0.0356,0.0372 0.0893,0.0569 0.125,0.0937 0.0214,0.0202 0.041,0.0424 0.0625,0.0625 0.0587,0.0573 0.0972,0.1311 0.15625,0.1875 0.036,0.0376 0.0889,0.0565 0.125,0.0937 0.0317,0.0298 0.062,0.0642 0.0937,0.0937 0.0568,0.0555 0.0991,0.1329 0.15625,0.1875 0.0257,0.0268 0.068,0.0359 0.0937,0.0625 0.0379,0.0358 0.0557,0.0896 0.0937,0.125 0.0523,0.051 0.10368,0.10603 0.15625,0.15625 0.0566,0.059 0.13058,0.0982 0.1875,0.15625 0.0109,0.0102 0.0203,0.0211 0.0312,0.0312 0.0475,0.0462 0.0773,0.11068 0.125,0.15625 0.0293,0.032 0.0643,0.062 0.0937,0.0937 0.0836,0.0824 0.16568,0.16945 0.25,0.25 0.0103,0.0107 0.021,0.0205 0.0312,0.0312 0.0349,0.0379 0.09,0.0562 0.125,0.0937 0.0322,0.0302 0.0615,0.0638 0.0937,0.0937 0.0201,0.0213 0.0424,0.0414 0.0625,0.0625 0.0159,0.0152 0.0154,0.0473 0.0312,0.0625 0.0353,0.0369 0.0895,0.0572 0.125,0.0937 0.0428,0.0403 0.082,0.0851 0.125,0.125 0.042,0.0407 0.0828,0.0847 0.125,0.125 0.0308,0.0322 0.0628,0.0618 0.0937,0.0937 0.0874,0.0863 0.16183,0.19703 0.25,0.28125 0.0566,0.059 0.13058,0.0982 0.1875,0.15625 0.0109,0.0102 0.0203,0.0211 0.0312,0.0312 0.0475,0.0462 0.0773,0.11068 0.125,0.15625 0.0293,0.032 0.0643,0.062 0.0937,0.0937 0.0836,0.0824 0.16568,0.16945 0.25,0.25 0.0103,0.0107 0.021,0.0205 0.0312,0.0312 0.0349,0.0379 0.09,0.0562 0.125,0.0937 0.0322,0.0302 0.0615,0.0638 0.0937,0.0937 0.0201,0.0213 0.0424,0.0414 0.0625,0.0625 0.0159,0.0152 0.0154,0.0473 0.0312,0.0625 0.0353,0.0369 0.0895,0.0572 0.125,0.0937 0.0428,0.0403 0.082,0.0851 0.125,0.125 0.042,0.0407 0.0828,0.0847 0.125,0.125 0.0308,0.0322 0.0628,0.0618 0.0937,0.0937 0.0874,0.0863 0.16183,0.19703 0.25,0.28125 0.0566,0.059 0.13058,0.0982 0.1875,0.15625 0.0109,0.0102 0.0203,0.0211 0.0312,0.0312 0.0475,0.0462 0.0773,0.11068 0.125,0.15625 0.0293,0.032 0.0643,0.062 0.0937,0.0937 0.0836,0.0824 0.16568,0.16945 0.25,0.25 0.0103,0.0107 0.021,0.0205 0.0312,0.0312 0.0196,0.0213 0.0429,0.0414 0.0625,0.0625 0.006,0.005 0.0255,-0.005 0.0312,0 0.0591,0.0636 0.12796,0.12491 0.1875,0.1875 0.0159,0.0152 0.0154,0.0473 0.0312,0.0625 0.0353,0.0369 0.0895,0.0572 0.125,0.0937 0.0428,0.0403 0.082,0.0851 0.125,0.125 0.042,0.0407 0.0828,0.0847 0.125,0.125 0.0308,0.0322 0.0628,0.0618 0.0937,0.0937 0.0874,0.0863 0.16183,0.19703 0.25,0.28125 0.0257,0.0268 0.068,0.0359 0.0937,0.0625 0.0379,0.0358 0.0557,0.0896 0.0937,0.125 0.0523,0.051 0.10368,0.10603 0.15625,0.15625 0.0566,0.059 0.13058,0.0982 0.1875,0.15625 0.0109,0.0102 0.0203,0.0211 0.0312,0.0312 0.0475,0.0462 0.0773,0.11068 0.125,0.15625 0.0293,0.032 0.0643,0.062 0.0937,0.0937 0.0836,0.0824 0.16568,0.16945 0.25,0.25 0.0303,0.0317 0.0633,0.0623 0.0937,0.0937 0.02,0.0216 0.0425,0.041 0.0625,0.0625 0.0628,0.0615 0.12426,0.12709 0.1875,0.1875 0.0356,0.0372 0.0893,0.0569 0.125,0.0937 0.0317,0.0298 0.062,0.0642 0.0937,0.0937 0.0568,0.0555 0.0991,0.1329 0.15625,0.1875 0.0257,0.0268 0.068,0.0359 0.0937,0.0625 0.0379,0.0358 0.0557,0.0896 0.0937,0.125 0.0514,0.0501 0.10457,0.10688 0.15625,0.15625 0.0566,0.059 0.13058,0.0982 0.1875,0.15625 0.0109,0.0102 0.0203,0.0211 0.0312,0.0312 0.0475,0.0462 0.0773,0.11068 0.125,0.15625 0.0293,0.032 0.0643,0.062 0.0937,0.0937 0.0836,0.0824 0.16568,0.16945 0.25,0.25 0.0103,0.0107 0.021,0.0205 0.0312,0.0312 0.0196,0.0213 0.0429,0.0414 0.0625,0.0625 0.006,0.005 0.0255,-0.005 0.0312,0 0.009,0.01 0.022,0.0214 0.0312,0.0312 0.0322,0.0302 0.0615,0.0638 0.0937,0.0937 0.0201,0.0213 0.0424,0.0414 0.0625,0.0625 0.0159,0.0152 0.0154,0.0473 0.0312,0.0625 0.0353,0.0369 0.0895,0.0572 0.125,0.0937 0.0428,0.0403 0.082,0.0851 0.125,0.125 0.042,0.0407 0.0828,0.0847 0.125,0.125 0.0308,0.0322 0.0628,0.0618 0.0937,0.0937 0.0874,0.0863 0.16183,0.19703 0.25,0.28125 0.0566,0.059 0.13058,0.0982 0.1875,0.15625 0.0109,0.0102 0.0203,0.0211 0.0312,0.0312 0.0475,0.0462 0.0773,0.11068 0.125,0.15625 0.0293,0.032 0.0643,0.062 0.0937,0.0937 0.0836,0.0824 0.16568,0.16945 0.25,0.25 0.0103,0.0107 0.021,0.0205 0.0312,0.0312 0.0196,0.0213 0.0429,0.0414 0.0625,0.0625 0.006,0.005 0.0255,-0.005 0.0312,0 0.009,0.01 0.022,0.0214 0.0312,0.0312 0.0322,0.0302 0.0615,0.0638 0.0937,0.0937 0.0201,0.0213 0.0424,0.0414 0.0625,0.0625 0.0159,0.0152 0.0154,0.0473 0.0312,0.0625 0.0353,0.0369 0.0895,0.0572 0.125,0.0937 0.0428,0.0403 0.082,0.0851 0.125,0.125 0.042,0.0407 0.0828,0.0847 0.125,0.125 0.0308,0.0322 0.0628,0.0618 0.0937,0.0937 0.0874,0.0863 0.16183,0.19703 0.25,0.28125 0.0566,0.059 0.13058,0.0982 0.1875,0.15625 0.0109,0.0102 0.0203,0.0211 0.0312,0.0312 0.0475,0.0462 0.0773,0.11068 0.125,0.15625 0.0293,0.032 0.0643,0.062 0.0937,0.0937 0.0836,0.0824 0.16568,0.16945 0.25,0.25 0.0314,0.0328 0.0623,0.0613 0.0937,0.0937 0.02,0.0216 0.0425,0.041 0.0625,0.0625 0.0628,0.0615 0.12426,0.12709 0.1875,0.1875 0.0356,0.0372 0.0893,0.0569 0.125,0.0937 0.0214,0.0202 0.041,0.0424 0.0625,0.0625 0.0587,0.0573 0.0972,0.1311 0.15625,0.1875 0.036,0.0376 0.0889,0.0565 0.125,0.0937 0.0317,0.0298 0.062,0.0642 0.0937,0.0937 0.0568,0.0555 0.0991,0.1329 0.15625,0.1875 0.0257,0.0268 0.068,0.0359 0.0937,0.0625 0.0379,0.0358 0.0557,0.0896 0.0937,0.125 0.0523,0.051 0.10368,0.10603 0.15625,0.15625 0.0566,0.059 0.13058,0.0982 0.1875,0.15625 0.0109,0.0102 0.0203,0.0211 0.0312,0.0312 0.0475,0.0462 0.0773,0.11068 0.125,0.15625 0.0293,0.032 0.0643,0.062 0.0937,0.0937 0.0836,0.0824 0.16568,0.16945 0.25,0.25 0.0103,0.0107 0.021,0.0205 0.0312,0.0312 0.0349,0.0379 0.09,0.0562 0.125,0.0937 0.0322,0.0302 0.0615,0.0638 0.0937,0.0937 0.0201,0.0213 0.0424,0.0414 0.0625,0.0625 0.0159,0.0152 0.0154,0.0473 0.0312,0.0625 0.0353,0.0369 0.0895,0.0572 0.125,0.0937 0.0428,0.0403 0.082,0.0851 0.125,0.125 0.042,0.0407 0.0828,0.0847 0.125,0.125 0.0308,0.0322 0.0628,0.0618 0.0937,0.0937 0.0874,0.0863 0.16183,0.19703 0.25,0.28125 0.0566,0.059 0.13058,0.0982 0.1875,0.15625 0.0109,0.0102 0.0203,0.0211 0.0312,0.0312 0.0475,0.0462 0.0773,0.11068 0.125,0.15625 0.0293,0.032 0.0643,0.062 0.0937,0.0937 0.0836,0.0824 0.16568,0.16945 0.25,0.25 0.0103,0.0107 0.021,0.0205 0.0312,0.0312 0.0349,0.0379 0.09,0.0562 0.125,0.0937 0.0322,0.0302 0.0615,0.0638 0.0937,0.0937 0.0201,0.0213 0.0424,0.0414 0.0625,0.0625 0.0159,0.0152 0.0154,0.0473 0.0312,0.0625 0.0353,0.0369 0.0895,0.0572 0.125,0.0937 0.0428,0.0403 0.082,0.0851 0.125,0.125 0.042,0.0407 0.0828,0.0847 0.125,0.125 0.0308,0.0322 0.0628,0.0618 0.0937,0.0937 0.0874,0.0863 0.16183,0.19703 0.25,0.28125 0.0566,0.059 0.13058,0.0982 0.1875,0.15625 0.0109,0.0102 0.0203,0.0211 0.0312,0.0312 0.0475,0.0462 0.0773,0.11068 0.125,0.15625 0.0293,0.032 0.0643,0.062 0.0937,0.0937 0.0836,0.0824 0.16568,0.16945 0.25,0.25 0.0314,0.0328 0.0623,0.0613 0.0937,0.0937 0.02,0.0216 0.0425,0.041 0.0625,0.0625 0.0628,0.0615 0.12426,0.12709 0.1875,0.1875 0.0356,0.0372 0.0893,0.0569 0.125,0.0937 0.0214,0.0202 0.041,0.0424 0.0625,0.0625 0.0587,0.0573 0.0972,0.13109 0.15625,0.1875 0.036,0.0376 0.0889,0.0565 0.125,0.0937 0.0317,0.0298 0.062,0.0642 0.0937,0.0937 0.0568,0.0555 0.0991,0.1329 0.15625,0.1875 0.0257,0.0268 0.068,0.0359 0.0937,0.0625 0.0379,0.0358 0.0557,0.0896 0.0937,0.125 0.0523,0.051 0.10368,0.10603 0.15625,0.15625 0.0566,0.059 0.13058,0.0982 0.1875,0.15625 0.0109,0.0102 0.0203,0.0211 0.0312,0.0312 0.0475,0.0462 0.0773,0.11068 0.125,0.15625 0.0752,0.082 0.17419,0.13846 0.25,0.21875 0.011,0.0102 0.0203,0.0211 0.0312,0.0312 0.0265,0.0256 0.0359,0.0683 0.0625,0.0937 0.0154,0.0161 0.0471,0.0152 0.0625,0.0312 0.0104,0.0104 0.0208,0.0209 0.0312,0.0312 0.005,0.005 -0.005,0.0265 0,0.0312 0.006,0.005 0.0255,-0.005 0.0312,0 0.009,0.01 0.022,0.0214 0.0312,0.0312 0.0322,0.0302 0.0615,0.0638 0.0937,0.0937 0.0201,0.0213 0.0424,0.0414 0.0625,0.0625 0.0159,0.0152 0.0154,0.0473 0.0312,0.0625 0.0353,0.0369 0.0895,0.0572 0.125,0.0937 0.0739,0.0696 0.14431,0.15055 0.21875,0.21875 0.0105,0.0101 0.0207,0.0212 0.0312,0.0312 0.0308,0.0322 0.0628,0.0618 0.0937,0.0937 0.0874,0.0863 0.16183,0.19703 0.25,0.28125 0.0566,0.059 0.13058,0.0982 0.1875,0.15625 0.0109,0.0102 0.0203,0.0211 0.0312,0.0312 0.0475,0.0462 0.0773,0.11068 0.125,0.15625 0.0293,0.032 0.0643,0.062 0.0937,0.0937 0.0836,0.0824 0.16568,0.16945 0.25,0.25 0.0103,0.0107 0.021,0.0205 0.0312,0.0312 0.0196,0.0213 0.0429,0.0414 0.0625,0.0625 0.006,0.005 0.0255,-0.005 0.0312,0 0.009,0.01 0.022,0.0214 0.0312,0.0312 0.0322,0.0302 0.0615,0.0638 0.0937,0.0937 0.0201,0.0213 0.0424,0.0414 0.0625,0.0625 0.0159,0.0152 0.0154,0.0473 0.0312,0.0625 0.0353,0.0369 0.0895,0.0572 0.125,0.0937 0.0428,0.0403 0.082,0.0851 0.125,0.125 0.042,0.0407 0.0828,0.0847 0.125,0.125 0.0308,0.0322 0.0628,0.0618 0.0937,0.0937 0.0874,0.0863 0.16183,0.19703 0.25,0.28125 0.0566,0.059 0.13058,0.0982 0.1875,0.15625 0.0109,0.0102 0.0203,0.0211 0.0312,0.0312 0.0475,0.0462 0.0773,0.11068 0.125,0.15625 0.0293,0.032 0.0643,0.062 0.0937,0.0937 0.0836,0.0824 0.16568,0.16945 0.25,0.25 0.0103,0.0107 0.021,0.0205 0.0312,0.0312 0.0196,0.0213 0.0429,0.0414 0.0625,0.0625 0.006,0.005 0.0255,-0.005 0.0312,0 0.009,0.01 0.022,0.0214 0.0312,0.0312 0.0322,0.0302 0.0615,0.0638 0.0937,0.0937 0.0201,0.0213 0.0424,0.0414 0.0625,0.0625 0.0159,0.0152 0.0154,0.0473 0.0312,0.0625 0.0353,0.0369 0.0895,0.0572 0.125,0.0937 0.0428,0.0403 0.082,0.0851 0.125,0.125 0.042,0.0407 0.0828,0.0847 0.125,0.125 0.0308,0.0322 0.0628,0.0618 0.0937,0.0937 0.0874,0.0863 0.16183,0.19703 0.25,0.28125 0.0566,0.059 0.13058,0.0982 0.1875,0.15625 0.0109,0.0102 0.0203,0.0211 0.0312,0.0312 0.0475,0.0462 0.0773,0.11068 0.125,0.15625 0.0293,0.032 0.0643,0.062 0.0937,0.0937 0.0836,0.0824 0.16568,0.16945 0.25,0.25 0.0314,0.0328 0.0623,0.0613 0.0937,0.0937 0.0836,0.0824 0.16568,0.16945 0.25,0.25 0.0303,0.0317 0.0633,0.0623 0.0937,0.0937 0.085,0.0839 0.16425,0.16809 0.25,0.25 0.0356,0.0372 0.0893,0.0569 0.125,0.0937 0.0317,0.0298 0.062,0.0642 0.0937,0.0937 0.0568,0.0555 0.0991,0.1329 0.15625,0.1875 0.0257,0.0268 0.068,0.0359 0.0937,0.0625 0.0379,0.0358 0.0557,0.0896 0.0937,0.125 0.0514,0.0501 0.10457,0.10688 0.15625,0.15625 0.0566,0.059 0.13058,0.0982 0.1875,0.15625 0.0109,0.0102 0.0203,0.0211 0.0312,0.0312 0.0475,0.0462 0.0773,0.11068 0.125,0.15625 0.0293,0.032 0.0643,0.062 0.0937,0.0937 0.0836,0.0824 0.16568,0.16945 0.25,0.25 0.0103,0.0107 0.021,0.0205 0.0312,0.0312 0.0349,0.0379 0.09,0.0562 0.125,0.0937 0.0322,0.0302 0.0615,0.0638 0.0937,0.0937 0.0201,0.0213 0.0424,0.0414 0.0625,0.0625 0.0159,0.0152 0.0154,0.0473 0.0312,0.0625 0.0353,0.0369 0.0895,0.0572 0.125,0.0937 0.0428,0.0403 0.082,0.0851 0.125,0.125 0.042,0.0407 0.0828,0.0847 0.125,0.125 0.0308,0.0322 0.0628,0.0618 0.0937,0.0937 0.0874,0.0863 0.16183,0.19703 0.25,0.28125 0.0566,0.059 0.13058,0.0982 0.1875,0.15625 0.0109,0.0102 0.0203,0.0211 0.0312,0.0312 0.0475,0.0462 0.0773,0.11068 0.125,0.15625 0.0293,0.032 0.0643,0.062 0.0937,0.0937 0.0836,0.0824 0.16568,0.16945 0.25,0.25 0.0103,0.0107 0.021,0.0205 0.0312,0.0312 0.0349,0.0379 0.09,0.0562 0.125,0.0937 0.0322,0.0302 0.0615,0.0638 0.0937,0.0937 0.0201,0.0213 0.0424,0.0414 0.0625,0.0625 0.0159,0.0152 0.0154,0.0473 0.0312,0.0625 0.0353,0.0369 0.0895,0.0572 0.125,0.0937 0.0428,0.0403 0.082,0.0851 0.125,0.125 0.042,0.0407 0.0828,0.0847 0.125,0.125 0.0308,0.0322 0.0628,0.0618 0.0937,0.0937 0.0874,0.0863 0.16183,0.19703 0.25,0.28125 0.0566,0.059 0.13058,0.0982 0.1875,0.15625 0.0109,0.0102 0.0203,0.0211 0.0312,0.0312 0.0475,0.0462 0.0773,0.11068 0.125,0.15625 0.0293,0.032 0.0643,0.062 0.0937,0.0937 0.0836,0.0824 0.16568,0.16945 0.25,0.25 0.0314,0.0328 0.0623,0.0613 0.0937,0.0937 0.02,0.0216 0.0425,0.041 0.0625,0.0625 0.0628,0.0615 0.12426,0.12709 0.1875,0.1875 0.0356,0.0372 0.0893,0.0569 0.125,0.0937 0.0214,0.0202 0.041,0.0424 0.0625,0.0625 0.0587,0.0573 0.0972,0.13109 0.15625,0.1875 0.036,0.0376 0.0889,0.0565 0.125,0.0937 0.0317,0.0298 0.062,0.0642 0.0937,0.0937 0.0568,0.0555 0.0991,0.1329 0.15625,0.1875 0.0257,0.0268 0.068,0.0359 0.0937,0.0625 0.0379,0.0358 0.0557,0.0896 0.0937,0.125 0.0523,0.051 0.10368,0.10603 0.15625,0.15625 0.0566,0.059 0.13058,0.0982 0.1875,0.15625 0.0109,0.0102 0.0203,0.0211 0.0312,0.0312 0.0475,0.0462 0.0773,0.11068 0.125,0.15625 0.0293,0.032 0.0643,0.062 0.0937,0.0937 0.0836,0.0824 0.16568,0.16945 0.25,0.25 0.0103,0.0107 0.021,0.0205 0.0312,0.0312 0.0196,0.0213 0.0429,0.0414 0.0625,0.0625 0.006,0.005 0.0255,-0.005 0.0312,0 0.009,0.01 0.022,0.0214 0.0312,0.0312 0.0322,0.0302 0.0615,0.0638 0.0937,0.0937 0.0201,0.0213 0.0424,0.0414 0.0625,0.0625 0.0159,0.0152 0.0154,0.0473 0.0312,0.0625 0.0353,0.0369 0.0895,0.0572 0.125,0.0937 0.0428,0.0403 0.082,0.0851 0.125,0.125 0.042,0.0407 0.0828,0.0847 0.125,0.125 0.0308,0.0322 0.0628,0.0618 0.0937,0.0937 0.0874,0.0863 0.16183,0.19703 0.25,0.28125 0.0566,0.059 0.13058,0.0982 0.1875,0.15625 0.0109,0.0102 0.0203,0.0211 0.0312,0.0312 0.0475,0.0462 0.0773,0.11068 0.125,0.15625 0.0293,0.032 0.0643,0.062 0.0937,0.0937 0.0836,0.0824 0.16568,0.16945 0.25,0.25 0.0103,0.0107 0.021,0.0205 0.0312,0.0312 0.0196,0.0213 0.0429,0.0414 0.0625,0.0625 0.006,0.005 0.0255,-0.005 0.0312,0 0.009,0.01 0.022,0.0214 0.0312,0.0312 0.0322,0.0302 0.0615,0.0638 0.0937,0.0937 0.0201,0.0213 0.0424,0.0414 0.0625,0.0625 0.0159,0.0152 0.0154,0.0473 0.0312,0.0625 0.0353,0.0369 0.0895,0.0572 0.125,0.0937 0.0428,0.0403 0.082,0.0851 0.125,0.125 0.042,0.0407 0.0828,0.0847 0.125,0.125 0.0308,0.0322 0.0628,0.0618 0.0937,0.0937 0.0874,0.0863 0.16183,0.19703 0.25,0.28125 0.0566,0.059 0.13058,0.0982 0.1875,0.15625 0.0109,0.0102 0.0203,0.0211 0.0312,0.0312 0.0475,0.0462 0.0773,0.11068 0.125,0.15625 0.0293,0.032 0.0643,0.062 0.0937,0.0937 0.0836,0.0824 0.16568,0.16945 0.25,0.25 0.0103,0.0107 0.021,0.0205 0.0312,0.0312 0.0196,0.0213 0.0429,0.0414 0.0625,0.0625 0.006,0.005 0.0255,-0.005 0.0312,0 0.0591,0.0636 0.12796,0.12491 0.1875,0.1875 0.0159,0.0152 0.0154,0.0473 0.0312,0.0625 0.0353,0.0369 0.0895,0.0572 0.125,0.0937 0.0428,0.0403 0.082,0.0851 0.125,0.125 0.042,0.0407 0.0828,0.0847 0.125,0.125 0.0308,0.0322 0.0628,0.0618 0.0937,0.0937 0.0874,0.0863 0.16183,0.19703 0.25,0.28125 0.0257,0.0268 0.068,0.0359 0.0937,0.0625 0.0379,0.0358 0.0557,0.0896 0.0937,0.125 0.0523,0.051 0.10368,0.10603 0.15625,0.15625 0.0566,0.059 0.13058,0.0982 0.1875,0.15625 0.0109,0.0102 0.0203,0.0211 0.0312,0.0312 0.0475,0.0462 0.0773,0.11068 0.125,0.15625 0.0752,0.082 0.17419,0.13846 0.25,0.21875 0.011,0.0102 0.0203,0.0211 0.0312,0.0312 0.0265,0.0256 0.0359,0.0683 0.0625,0.0937 0.0154,0.0161 0.0471,0.0152 0.0625,0.0312 0.0104,0.0104 0.0208,0.0209 0.0312,0.0312 0.005,0.005 -0.005,0.0265 0,0.0312 0.0154,0.0165 0.0471,0.0148 0.0625,0.0312 0.0322,0.0302 0.0615,0.0638 0.0937,0.0937 0.0201,0.0213 0.0424,0.0414 0.0625,0.0625 0.0159,0.0152 0.0154,0.0473 0.0312,0.0625 0.0353,0.0369 0.0895,0.0572 0.125,0.0937 0.0739,0.0696 0.14431,0.15055 0.21875,0.21875 0.0105,0.0101 0.0207,0.0212 0.0312,0.0312 0.0308,0.0322 0.0628,0.0618 0.0937,0.0937 0.0874,0.0863 0.16183,0.19703 0.25,0.28125 0.0566,0.059 0.13058,0.0982 0.1875,0.15625 0.0109,0.0102 0.0203,0.0211 0.0312,0.0312 0.0475,0.0462 0.0773,0.11068 0.125,0.15625 0.0293,0.032 0.0643,0.062 0.0937,0.0937 0.0836,0.0824 0.16568,0.16945 0.25,0.25 0.0103,0.0107 0.021,0.0205 0.0312,0.0312 0.0349,0.0379 0.09,0.0562 0.125,0.0937 0.0322,0.0302 0.0615,0.0638 0.0937,0.0937 0.0201,0.0213 0.0424,0.0414 0.0625,0.0625 0.0159,0.0152 0.0154,0.0473 0.0312,0.0625 0.0353,0.0369 0.0895,0.0572 0.125,0.0937 0.0428,0.0403 0.082,0.0851 0.125,0.125 0.042,0.0407 0.0828,0.0847 0.125,0.125 0.0308,0.0322 0.0628,0.0618 0.0937,0.0937 0.0874,0.0863 0.16183,0.19703 0.25,0.28125 0.0566,0.059 0.13058,0.0982 0.1875,0.15625 0.0109,0.0102 0.0203,0.0211 0.0312,0.0312 0.0475,0.0462 0.0773,0.11068 0.125,0.15625 0.0293,0.032 0.0643,0.062 0.0937,0.0937 0.0836,0.0824 0.16568,0.16945 0.25,0.25 0.0103,0.0107 0.021,0.0205 0.0312,0.0312 0.0349,0.0379 0.09,0.0562 0.125,0.0937 0.0322,0.0302 0.0615,0.0638 0.0937,0.0937 0.0201,0.0213 0.0424,0.0414 0.0625,0.0625 0.0159,0.0152 0.0154,0.0473 0.0312,0.0625 0.0353,0.0369 0.0895,0.0572 0.125,0.0937 0.0428,0.0403 0.082,0.0851 0.125,0.125 0.042,0.0407 0.0828,0.0847 0.125,0.125 0.0308,0.0322 0.0628,0.0618 0.0937,0.0937 0.0874,0.0863 0.16183,0.19703 0.25,0.28125 0.0566,0.059 0.13058,0.0982 0.1875,0.15625 0.0109,0.0102 0.0203,0.0211 0.0312,0.0312 0.0475,0.0462 0.0773,0.11068 0.125,0.15625 0.0293,0.032 0.0643,0.062 0.0937,0.0937 0.0836,0.0824 0.16568,0.16945 0.25,0.25 0.0314,0.0328 0.0623,0.0613 0.0937,0.0937 0.0836,0.0824 0.16568,0.16945 0.25,0.25 0.0303,0.0317 0.0633,0.0623 0.0937,0.0937 0.085,0.0839 0.16425,0.16809 0.25,0.25 0.0356,0.0372 0.0893,0.0569 0.125,0.0937 0.0317,0.0298 0.062,0.0642 0.0937,0.0937 0.0568,0.0555 0.0991,0.1329 0.15625,0.1875 0.0257,0.0268 0.068,0.0359 0.0937,0.0625 0.0379,0.0358 0.0557,0.0896 0.0937,0.125 0.0514,0.0501 0.10457,0.10688 0.15625,0.15625 0.0566,0.059 0.13058,0.0982 0.1875,0.15625 0.0109,0.0102 0.0203,0.0211 0.0312,0.0312 0.0475,0.0462 0.0773,0.11068 0.125,0.15625 0.0293,0.032 0.0643,0.062 0.0937,0.0937 0.0836,0.0824 0.16568,0.16945 0.25,0.25 0.0103,0.0107 0.021,0.0205 0.0312,0.0312 0.0196,0.0213 0.0429,0.0414 0.0625,0.0625 0.006,0.005 0.0255,-0.005 0.0312,0 0.009,0.01 0.022,0.0214 0.0312,0.0312 0.0322,0.0302 0.0615,0.0638 0.0937,0.0937 0.0201,0.0213 0.0424,0.0414 0.0625,0.0625 0.0159,0.0152 0.0154,0.0473 0.0312,0.0625 0.0353,0.0369 0.0895,0.0572 0.125,0.0937 0.0428,0.0403 0.082,0.0851 0.125,0.125 0.042,0.0407 0.0828,0.0847 0.125,0.125 0.0308,0.0322 0.0628,0.0618 0.0937,0.0937 0.0874,0.0863 0.16183,0.19703 0.25,0.28125 0.0566,0.059 0.13058,0.0982 0.1875,0.15625 0.0109,0.0102 0.0203,0.0211 0.0312,0.0312 0.0475,0.0462 0.0773,0.11068 0.125,0.15625 0.0293,0.032 0.0643,0.062 0.0937,0.0937 0.0836,0.0824 0.16568,0.16945 0.25,0.25 0.0103,0.0107 0.021,0.0205 0.0312,0.0312 0.0196,0.0213 0.0429,0.0414 0.0625,0.0625 0.006,0.005 0.0255,-0.005 0.0312,0 0.009,0.01 0.022,0.0214 0.0312,0.0312 0.0322,0.0302 0.0615,0.0638 0.0937,0.0937 0.0201,0.0213 0.0424,0.0414 0.0625,0.0625 0.0159,0.0152 0.0154,0.0473 0.0312,0.0625 0.0353,0.0369 0.0895,0.0572 0.125,0.0937 0.0428,0.0403 0.082,0.0851 0.125,0.125 0.042,0.0407 0.0828,0.0847 0.125,0.125 0.0308,0.0322 0.0628,0.0618 0.0937,0.0937 0.0874,0.0863 0.16183,0.19703 0.25,0.28125 0.0566,0.059 0.13058,0.0982 0.1875,0.15625 0.0109,0.0102 0.0203,0.0211 0.0312,0.0312 0.0475,0.0462 0.0773,0.11068 0.125,0.15625 0.0293,0.032 0.0643,0.062 0.0937,0.0937 0.0836,0.0824 0.16568,0.16945 0.25,0.25 0.0314,0.0328 0.0623,0.0613 0.0937,0.0937 0.02,0.0216 0.0425,0.041 0.0625,0.0625 0.0628,0.0615 0.12426,0.12709 0.1875,0.1875 0.0356,0.0372 0.0893,0.0569 0.125,0.0937 0.0214,0.0202 0.041,0.0424 0.0625,0.0625 0.0587,0.0573 0.0972,0.13109 0.15625,0.1875 0.036,0.0376 0.0889,0.0565 0.125,0.0937 0.0317,0.0298 0.062,0.0642 0.0937,0.0937 0.0568,0.0555 0.0991,0.1329 0.15625,0.1875 0.0257,0.0268 0.068,0.0359 0.0937,0.0625 0.0379,0.0358 0.0557,0.0896 0.0937,0.125 0.0523,0.051 0.10368,0.10603 0.15625,0.15625 0.0566,0.059 0.13058,0.0982 0.1875,0.15625 0.0109,0.0102 0.0203,0.0211 0.0312,0.0312 0.0475,0.0462 0.0773,0.11068 0.125,0.15625 0.0293,0.032 0.0643,0.062 0.0937,0.0937 0.0836,0.0824 0.16568,0.16945 0.25,0.25 0.0103,0.0107 0.021,0.0205 0.0312,0.0312 0.0349,0.0379 0.09,0.0562 0.125,0.0937 0.0322,0.0302 0.0615,0.0638 0.0937,0.0937 0.0201,0.0213 0.0424,0.0414 0.0625,0.0625 0.0159,0.0152 0.0154,0.0473 0.0312,0.0625 0.0353,0.0369 0.0895,0.0572 0.125,0.0937 0.0428,0.0403 0.082,0.0851 0.125,0.125 0.042,0.0407 0.0828,0.0847 0.125,0.125 0.0308,0.0322 0.0628,0.0618 0.0937,0.0937 0.0874,0.0863 0.16183,0.19703 0.25,0.28125 0.0566,0.059 0.13058,0.0982 0.1875,0.15625 0.0109,0.0102 0.0203,0.0211 0.0312,0.0312 0.0475,0.0462 0.0773,0.11068 0.125,0.15625 0.0293,0.032 0.0643,0.062 0.0937,0.0937 0.0836,0.0824 0.16568,0.16945 0.25,0.25 0.0103,0.0107 0.021,0.0205 0.0312,0.0312 0.0349,0.0379 0.09,0.0562 0.125,0.0937 0.0322,0.0302 0.0615,0.0638 0.0937,0.0937 0.0201,0.0213 0.0424,0.0414 0.0625,0.0625 0.0159,0.0152 0.0154,0.0473 0.0312,0.0625 0.0353,0.0369 0.0895,0.0572 0.125,0.0937 0.0428,0.0403 0.082,0.0851 0.125,0.125 0.042,0.0407 0.0828,0.0847 0.125,0.125 0.0308,0.0322 0.0628,0.0618 0.0937,0.0937 0.0874,0.0863 0.16183,0.19703 0.25,0.28125 0.0566,0.059 0.13058,0.0982 0.1875,0.15625 0.0109,0.0102 0.0203,0.0211 0.0312,0.0312 0.0475,0.0462 0.0773,0.11068 0.125,0.15625 0.0293,0.032 0.0643,0.062 0.0937,0.0937 0.0836,0.0824 0.16568,0.16945 0.25,0.25 0.0103,0.0107 0.021,0.0205 0.0312,0.0312 0.0196,0.0213 0.0429,0.0414 0.0625,0.0625 0.006,0.005 0.0255,-0.005 0.0312,0 0.0591,0.0636 0.12796,0.12491 0.1875,0.1875 0.0159,0.0152 0.0154,0.0473 0.0312,0.0625 0.0353,0.0369 0.0895,0.0572 0.125,0.0937 0.0428,0.0403 0.082,0.0851 0.125,0.125 0.042,0.0407 0.0828,0.0847 0.125,0.125 0.0308,0.0322 0.0628,0.0618 0.0937,0.0937 0.0874,0.0863 0.16183,0.19703 0.25,0.28125 0.0257,0.0268 0.068,0.0359 0.0937,0.0625 0.0379,0.0358 0.0557,0.0896 0.0937,0.125 0.0523,0.051 0.10368,0.10603 0.15625,0.15625 0.0566,0.059 0.13058,0.0982 0.1875,0.15625 0.0109,0.0102 0.0203,0.0211 0.0312,0.0312 0.0475,0.0462 0.0773,0.11068 0.125,0.15625 0.0293,0.032 0.0643,0.062 0.0937,0.0937 0.0836,0.0824 0.16568,0.16945 0.25,0.25 0.0303,0.0317 0.0633,0.0623 0.0937,0.0937 0.02,0.0216 0.0425,0.041 0.0625,0.0625 0.0628,0.0615 0.12426,0.12709 0.1875,0.1875 0.0356,0.0372 0.0893,0.0569 0.125,0.0937 0.0317,0.0298 0.062,0.0642 0.0937,0.0937 0.0568,0.0555 0.0991,0.1329 0.15625,0.1875 0.0257,0.0268 0.068,0.0359 0.0937,0.0625 0.0379,0.0358 0.0557,0.0896 0.0937,0.125 0.0514,0.0501 0.10457,0.10688 0.15625,0.15625 0.0566,0.059 0.13058,0.0982 0.1875,0.15625 0.0109,0.0102 0.0203,0.0211 0.0312,0.0312 0.0475,0.0462 0.0773,0.11068 0.125,0.15625 0.0293,0.032 0.0643,0.062 0.0937,0.0937 0.0836,0.0824 0.16568,0.16945 0.25,0.25 0.0103,0.0107 0.021,0.0205 0.0312,0.0312 0.0196,0.0213 0.0429,0.0414 0.0625,0.0625 0.006,0.005 0.0255,-0.005 0.0312,0 0.009,0.01 0.022,0.0214 0.0312,0.0312 0.0322,0.0302 0.0615,0.0638 0.0937,0.0937 0.0201,0.0213 0.0424,0.0414 0.0625,0.0625 0.0159,0.0152 0.0154,0.0473 0.0312,0.0625 0.0353,0.0369 0.0895,0.0572 0.125,0.0937 0.0428,0.0403 0.082,0.0851 0.125,0.125 0.042,0.0407 0.0828,0.0847 0.125,0.125 0.0308,0.0322 0.0628,0.0618 0.0937,0.0937 0.0874,0.0863 0.16183,0.19703 0.25,0.28125 0.0566,0.059 0.13058,0.0982 0.1875,0.15625 0.0109,0.0102 0.0203,0.0211 0.0312,0.0312 0.0475,0.0462 0.0773,0.11068 0.125,0.15625 0.0293,0.032 0.0643,0.062 0.0937,0.0937 0.0836,0.0824 0.16568,0.16945 0.25,0.25 0.0103,0.0107 0.021,0.0205 0.0312,0.0312 0.0196,0.0213 0.0429,0.0414 0.0625,0.0625 0.006,0.005 0.0255,-0.005 0.0312,0 0.009,0.01 0.022,0.0214 0.0312,0.0312 0.0322,0.0302 0.0615,0.0638 0.0937,0.0937 0.0201,0.0213 0.0424,0.0414 0.0625,0.0625 0.0159,0.0152 0.0154,0.0473 0.0312,0.0625 0.0353,0.0369 0.0895,0.0572 0.125,0.0937 0.0428,0.0403 0.082,0.0851 0.125,0.125 0.042,0.0407 0.0828,0.0847 0.125,0.125 0.0308,0.0322 0.0628,0.0618 0.0937,0.0937 0.0874,0.0863 0.16183,0.19703 0.25,0.28125 0.0566,0.059 0.13058,0.0982 0.1875,0.15625 0.0109,0.0102 0.0203,0.0211 0.0312,0.0312 0.0475,0.0462 0.0773,0.11068 0.125,0.15625 0.0293,0.032 0.0643,0.062 0.0937,0.0937 0.0836,0.0824 0.16568,0.16945 0.25,0.25 0.0314,0.0328 0.0623,0.0613 0.0937,0.0937 0.0836,0.0824 0.16568,0.16945 0.25,0.25 0.0303,0.0317 0.0633,0.0623 0.0937,0.0937 0.085,0.0839 0.16425,0.16809 0.25,0.25 0.0356,0.0372 0.0893,0.0569 0.125,0.0937 0.0317,0.0298 0.062,0.0642 0.0937,0.0937 0.0568,0.0555 0.0991,0.1329 0.15625,0.1875 0.0257,0.0268 0.068,0.0359 0.0937,0.0625 0.0379,0.0358 0.0557,0.0896 0.0937,0.125 0.0514,0.0501 0.10457,0.10688 0.15625,0.15625 0.0566,0.059 0.13058,0.0982 0.1875,0.15625 0.0109,0.0102 0.0203,0.0211 0.0312,0.0312 0.0475,0.0462 0.0773,0.11068 0.125,0.15625 0.0293,0.032 0.0643,0.062 0.0937,0.0937 0.0836,0.0824 0.16568,0.16945 0.25,0.25 0.0103,0.0107 0.021,0.0205 0.0312,0.0312 0.0349,0.0379 0.09,0.0562 0.125,0.0937 0.0322,0.0302 0.0615,0.0638 0.0937,0.0937 0.0201,0.0213 0.0424,0.0414 0.0625,0.0625 0.0159,0.0152 0.0154,0.0473 0.0312,0.0625 0.0353,0.0369 0.0895,0.0572 0.125,0.0937 0.0428,0.0403 0.082,0.0851 0.125,0.125 0.042,0.0407 0.0828,0.0847 0.125,0.125 0.0308,0.0322 0.0628,0.0618 0.0937,0.0937 0.0874,0.0863 0.16183,0.19703 0.25,0.28125 0.0566,0.059 0.13058,0.0982 0.1875,0.15625 0.0109,0.0102 0.0203,0.0211 0.0312,0.0312 0.0475,0.0462 0.0773,0.11068 0.125,0.15625 0.0293,0.032 0.0643,0.062 0.0937,0.0937 0.0836,0.0824 0.16568,0.16945 0.25,0.25 0.0103,0.0107 0.021,0.0205 0.0312,0.0312 0.0349,0.0379 0.09,0.0562 0.125,0.0937 0.0322,0.0302 0.0615,0.0638 0.0937,0.0937 0.0201,0.0213 0.0424,0.0414 0.0625,0.0625 0.0159,0.0152 0.0154,0.0473 0.0312,0.0625 0.0353,0.0369 0.0895,0.0572 0.125,0.0937 0.0428,0.0403 0.082,0.0851 0.125,0.125 0.042,0.0407 0.0828,0.0847 0.125,0.125 0.0308,0.0322 0.0628,0.0618 0.0937,0.0937 0.0874,0.0863 0.16183,0.19703 0.25,0.28125 0.0566,0.059 0.13058,0.0982 0.1875,0.15625 0.0109,0.0102 0.0203,0.0211 0.0312,0.0312 0.0475,0.0462 0.0773,0.11068 0.125,0.15625 0.0293,0.032 0.0643,0.062 0.0937,0.0937 0.0836,0.0824 0.16568,0.16945 0.25,0.25 0.0314,0.0328 0.0623,0.0613 0.0937,0.0937 0.02,0.0216 0.0425,0.041 0.0625,0.0625 0.0628,0.0615 0.12426,0.12709 0.1875,0.1875 0.0356,0.0372 0.0893,0.0569 0.125,0.0937 0.0214,0.0202 0.041,0.0424 0.0625,0.0625 0.0587,0.0573 0.0972,0.13109 0.15625,0.1875 0.036,0.0376 0.0889,0.0565 0.125,0.0937 0.0317,0.0298 0.062,0.0642 0.0937,0.0937 0.0568,0.0555 0.0991,0.1329 0.15625,0.1875 0.0257,0.0268 0.068,0.0359 0.0937,0.0625 0.0379,0.0358 0.0557,0.0896 0.0937,0.125 0.0523,0.051 0.10368,0.10603 0.15625,0.15625 0.0566,0.059 0.13058,0.0982 0.1875,0.15625 0.0109,0.0102 0.0203,0.0211 0.0312,0.0312 0.0475,0.0462 0.0773,0.11068 0.125,0.15625 0.0752,0.082 0.17419,0.13845 0.25,0.21875 0.011,0.0102 0.0203,0.0211 0.0312,0.0312 0.0265,0.0256 0.0359,0.0683 0.0625,0.0937 0.0154,0.0161 0.0471,0.0152 0.0625,0.0312 0.0104,0.0104 0.0208,0.0209 0.0312,0.0312 0.005,0.005 -0.005,0.0265 0,0.0312 0.006,0.005 0.0255,-0.005 0.0312,0 0.009,0.01 0.022,0.0214 0.0312,0.0312 0.0322,0.0302 0.0615,0.0638 0.0937,0.0937 0.0201,0.0213 0.0424,0.0414 0.0625,0.0625 0.0159,0.0152 0.0154,0.0473 0.0312,0.0625 0.0353,0.0369 0.0895,0.0572 0.125,0.0937 0.0428,0.0403 0.082,0.0851 0.125,0.125 0.042,0.0407 0.0828,0.0847 0.125,0.125 0.0308,0.0322 0.0628,0.0618 0.0937,0.0937 0.0874,0.0863 0.16183,0.19703 0.25,0.28125 0.0566,0.059 0.13058,0.0982 0.1875,0.15625 0.0109,0.0102 0.0203,0.0211 0.0312,0.0312 0.0475,0.0462 0.0773,0.11068 0.125,0.15625 0.0293,0.032 0.0643,0.062 0.0937,0.0937 0.0836,0.0824 0.16568,0.16945 0.25,0.25 0.0103,0.0107 0.021,0.0205 0.0312,0.0312 0.0196,0.0213 0.0429,0.0414 0.0625,0.0625 0.006,0.005 0.0255,-0.005 0.0312,0 0.009,0.01 0.022,0.0214 0.0312,0.0312 0.0107,0.0101 0.0209,0.0207 0.0312,0.0312 l 162.3125,0 C 448.13292,492 492,448.13292 492,393.65625 l 0,-163.84375 c -0.0725,-0.0736 -0.14463,-0.14775 -0.21875,-0.21875 -0.1296,-0.13031 -0.27334,-0.24855 -0.40625,-0.375 -0.1193,-0.11966 -0.22164,-0.25861 -0.34375,-0.375 -0.10358,-0.10365 -0.20681,-0.21131 -0.3125,-0.3125 -0.11468,-0.11531 -0.22648,-0.23146 -0.34375,-0.34375 -0.11468,-0.11531 -0.22648,-0.23146 -0.34375,-0.34375 -0.0934,-0.094 -0.18609,-0.1893 -0.28125,-0.28125 -0.22748,-0.23128 -0.44968,-0.46827 -0.6875,-0.6875 -0.0427,-0.0414 -0.082,-0.084 -0.125,-0.125 -0.10358,-0.10365 -0.20681,-0.21131 -0.3125,-0.3125 -0.11468,-0.11531 -0.22648,-0.23146 -0.34375,-0.34375 -0.12417,-0.12485 -0.24779,-0.2537 -0.375,-0.375 -0.12026,-0.12044 -0.25189,-0.22663 -0.375,-0.34375 -0.1193,-0.11966 -0.22164,-0.25861 -0.34375,-0.375 -0.10358,-0.10365 -0.20681,-0.21131 -0.3125,-0.3125 -0.11468,-0.11531 -0.22648,-0.23146 -0.34375,-0.34375 -0.11392,-0.11455 -0.22727,-0.23218 -0.34375,-0.34375 -0.1296,-0.13031 -0.27334,-0.24855 -0.40625,-0.375 -0.1193,-0.11966 -0.22164,-0.25861 -0.34375,-0.375 -0.10358,-0.10365 -0.20681,-0.21131 -0.3125,-0.3125 -0.11468,-0.11531 -0.22648,-0.23146 -0.34375,-0.34375 -0.11978,-0.12044 -0.25239,-0.22661 -0.375,-0.34375 -0.11919,-0.1196 -0.22176,-0.25867 -0.34375,-0.375 -0.12413,-0.12477 -0.24782,-0.25378 -0.375,-0.375 -0.10358,-0.10365 -0.20681,-0.21131 -0.3125,-0.3125 -0.11468,-0.11531 -0.22648,-0.23146 -0.34375,-0.34375 -0.11468,-0.11531 -0.22648,-0.23146 -0.34375,-0.34375 -0.12417,-0.12485 -0.24779,-0.2537 -0.375,-0.375 -0.12026,-0.12044 -0.25189,-0.22663 -0.375,-0.34375 -0.1193,-0.11966 -0.22164,-0.25861 -0.34375,-0.375 -0.10358,-0.10365 -0.20681,-0.21131 -0.3125,-0.3125 -0.11468,-0.11531 -0.22648,-0.23146 -0.34375,-0.34375 -0.11392,-0.11455 -0.22727,-0.23218 -0.34375,-0.34375 -0.1296,-0.13031 -0.27334,-0.24855 -0.40625,-0.375 -0.1193,-0.11966 -0.22164,-0.25861 -0.34375,-0.375 -0.10358,-0.10365 -0.20681,-0.21131 -0.3125,-0.3125 -0.11468,-0.11531 -0.22648,-0.23146 -0.34375,-0.34375 -0.11392,-0.11455 -0.22727,-0.23218 -0.34375,-0.34375 -0.1296,-0.13031 -0.27334,-0.24855 -0.40625,-0.375 -0.1193,-0.11966 -0.22164,-0.25861 -0.34375,-0.375 -0.10358,-0.10365 -0.20681,-0.21131 -0.3125,-0.3125 -0.11468,-0.11531 -0.22648,-0.23146 -0.34375,-0.34375 -0.11468,-0.11531 -0.22648,-0.23146 -0.34375,-0.34375 -0.12417,-0.12485 -0.24779,-0.2537 -0.375,-0.375 -0.12026,-0.12044 -0.25189,-0.22663 -0.375,-0.34375 -0.1193,-0.11966 -0.22164,-0.25861 -0.34375,-0.375 -0.10358,-0.10365 -0.20681,-0.21131 -0.3125,-0.3125 -0.11468,-0.11531 -0.22648,-0.23146 -0.34375,-0.34375 -0.11392,-0.11455 -0.22727,-0.23218 -0.34375,-0.34375 -0.1296,-0.13031 -0.27334,-0.24855 -0.40625,-0.375 -0.1193,-0.11966 -0.22164,-0.25861 -0.34375,-0.375 -0.10358,-0.10365 -0.20681,-0.21131 -0.3125,-0.3125 -0.11468,-0.11531 -0.22648,-0.23146 -0.34375,-0.34375 -0.11392,-0.11455 -0.22727,-0.23218 -0.34375,-0.34375 -0.1296,-0.13031 -0.27334,-0.24855 -0.40625,-0.375 -0.1193,-0.11966 -0.22164,-0.25861 -0.34375,-0.375 -0.10358,-0.10365 -0.20681,-0.21131 -0.3125,-0.3125 -0.11468,-0.11531 -0.22648,-0.23146 -0.34375,-0.34375 -0.11978,-0.12044 -0.25239,-0.22661 -0.375,-0.34375 -0.005,-0.005 -0.026,0.005 -0.0312,0 -0.0341,-0.0396 -0.0594,-0.0857 -0.0937,-0.125 -0.0361,-0.0374 -0.0574,-0.0879 -0.0937,-0.125 -0.006,-0.005 -0.0257,0.005 -0.0312,0 -0.23265,-0.23708 -0.44402,-0.4943 -0.6875,-0.71875 -0.032,-0.031 -0.0616,-0.0629 -0.0937,-0.0937 -0.11468,-0.11531 -0.22648,-0.23146 -0.34375,-0.34375 -0.11468,-0.11531 -0.22648,-0.23146 -0.34375,-0.34375 -0.12417,-0.12485 -0.24779,-0.2537 -0.375,-0.375 -0.12026,-0.12044 -0.25189,-0.22663 -0.375,-0.34375 -0.1193,-0.11966 -0.22164,-0.25861 -0.34375,-0.375 -0.10358,-0.10365 -0.20681,-0.21131 -0.3125,-0.3125 -0.11468,-0.11531 -0.22648,-0.23146 -0.34375,-0.34375 -0.11392,-0.11455 -0.22727,-0.23218 -0.34375,-0.34375 -0.1296,-0.13031 -0.27334,-0.24855 -0.40625,-0.375 -0.1193,-0.11966 -0.22164,-0.25861 -0.34375,-0.375 -0.10358,-0.10365 -0.20681,-0.21131 -0.3125,-0.3125 -0.11468,-0.11531 -0.22648,-0.23146 -0.34375,-0.34375 -0.11392,-0.11455 -0.22727,-0.23218 -0.34375,-0.34375 -0.1296,-0.13031 -0.27334,-0.24855 -0.40625,-0.375 -0.1193,-0.11966 -0.22164,-0.25861 -0.34375,-0.375 -0.10358,-0.10365 -0.20681,-0.21131 -0.3125,-0.3125 -0.11468,-0.11531 -0.22648,-0.23146 -0.34375,-0.34375 -0.11468,-0.11531 -0.22648,-0.23146 -0.34375,-0.34375 -0.12417,-0.12485 -0.24779,-0.2537 -0.375,-0.375 -0.12026,-0.12044 -0.25189,-0.22663 -0.375,-0.34375 -0.1193,-0.11966 -0.22164,-0.25861 -0.34375,-0.375 -0.10358,-0.10365 -0.20681,-0.21131 -0.3125,-0.3125 -0.11468,-0.11531 -0.22648,-0.23146 -0.34375,-0.34375 -0.11392,-0.11455 -0.22727,-0.23218 -0.34375,-0.34375 -0.1296,-0.13031 -0.27334,-0.24855 -0.40625,-0.375 -0.1193,-0.11966 -0.22164,-0.25861 -0.34375,-0.375 -0.10358,-0.10365 -0.20681,-0.21131 -0.3125,-0.3125 -0.11468,-0.11531 -0.22648,-0.23146 -0.34375,-0.34375 -0.11392,-0.11455 -0.22727,-0.23218 -0.34375,-0.34375 -0.1296,-0.13031 -0.27334,-0.24855 -0.40625,-0.375 -0.1193,-0.11966 -0.22164,-0.25861 -0.34375,-0.375 -0.10358,-0.10365 -0.20681,-0.21131 -0.3125,-0.3125 -0.11468,-0.11531 -0.22648,-0.23146 -0.34375,-0.34375 -0.11468,-0.11531 -0.22648,-0.23146 -0.34375,-0.34375 -0.0934,-0.094 -0.18609,-0.1893 -0.28125,-0.28125 -0.22748,-0.23128 -0.44968,-0.46827 -0.6875,-0.6875 -0.0427,-0.0414 -0.082,-0.084 -0.125,-0.125 -0.10358,-0.10365 -0.20681,-0.21131 -0.3125,-0.3125 -0.11468,-0.11531 -0.22648,-0.23146 -0.34375,-0.34375 -0.12417,-0.12485 -0.24779,-0.2537 -0.375,-0.375 -0.12026,-0.12044 -0.25189,-0.22663 -0.375,-0.34375 -0.1193,-0.11966 -0.22164,-0.25861 -0.34375,-0.375 -0.10358,-0.10365 -0.20681,-0.21131 -0.3125,-0.3125 -0.11468,-0.11531 -0.22648,-0.23146 -0.34375,-0.34375 -0.11392,-0.11455 -0.22727,-0.23218 -0.34375,-0.34375 -0.1296,-0.13031 -0.27334,-0.24855 -0.40625,-0.375 -0.1193,-0.11966 -0.22164,-0.25861 -0.34375,-0.375 -0.10358,-0.10365 -0.20681,-0.21131 -0.3125,-0.3125 -0.11468,-0.11531 -0.22648,-0.23146 -0.34375,-0.34375 -0.11978,-0.12044 -0.25239,-0.22661 -0.375,-0.34375 -0.005,-0.005 -0.026,0.005 -0.0312,0 -0.0341,-0.0396 -0.0594,-0.0857 -0.0937,-0.125 -0.0361,-0.0374 -0.0574,-0.0879 -0.0937,-0.125 -0.006,-0.005 -0.0257,0.005 -0.0312,0 -0.23265,-0.23708 -0.44402,-0.4943 -0.6875,-0.71875 -0.032,-0.031 -0.0616,-0.0629 -0.0937,-0.0937 -0.11468,-0.11531 -0.22648,-0.23146 -0.34375,-0.34375 -0.11468,-0.11531 -0.22648,-0.23146 -0.34375,-0.34375 -0.12417,-0.12485 -0.24779,-0.2537 -0.375,-0.375 -0.12026,-0.12044 -0.25189,-0.22663 -0.375,-0.34375 -0.1193,-0.11966 -0.22164,-0.25861 -0.34375,-0.375 -0.10358,-0.10365 -0.20681,-0.21131 -0.3125,-0.3125 -0.11468,-0.11531 -0.22648,-0.23146 -0.34375,-0.34375 -0.11392,-0.11455 -0.22727,-0.23218 -0.34375,-0.34375 -0.1296,-0.13031 -0.27334,-0.24855 -0.40625,-0.375 -0.1193,-0.11966 -0.22164,-0.25861 -0.34375,-0.375 -0.10358,-0.10365 -0.20681,-0.21131 -0.3125,-0.3125 -0.11468,-0.11531 -0.22648,-0.23146 -0.34375,-0.34375 -0.11392,-0.11455 -0.22727,-0.23218 -0.34375,-0.34375 -0.1296,-0.13031 -0.27334,-0.24855 -0.40625,-0.375 -0.1193,-0.11966 -0.22164,-0.25861 -0.34375,-0.375 -0.10358,-0.10365 -0.20681,-0.21131 -0.3125,-0.3125 -0.11468,-0.11531 -0.22648,-0.23146 -0.34375,-0.34375 -0.11468,-0.11531 -0.22648,-0.23146 -0.34375,-0.34375 -0.12417,-0.12485 -0.24779,-0.2537 -0.375,-0.375 -0.12026,-0.12044 -0.25189,-0.22663 -0.375,-0.34375 -0.1193,-0.11966 -0.22164,-0.25861 -0.34375,-0.375 -0.10358,-0.10365 -0.20681,-0.21131 -0.3125,-0.3125 -0.11468,-0.11531 -0.22648,-0.23146 -0.34375,-0.34375 -0.11392,-0.11455 -0.22727,-0.23218 -0.34375,-0.34375 -0.1296,-0.13031 -0.27334,-0.24855 -0.40625,-0.375 -0.1193,-0.11966 -0.22164,-0.25861 -0.34375,-0.375 -0.10358,-0.10365 -0.20681,-0.21131 -0.3125,-0.3125 -0.11468,-0.11531 -0.22648,-0.23146 -0.34375,-0.34375 -0.11392,-0.11455 -0.22727,-0.23218 -0.34375,-0.34375 -0.1296,-0.13031 -0.27334,-0.24855 -0.40625,-0.375 -0.1193,-0.11966 -0.22164,-0.25861 -0.34375,-0.375 -0.10358,-0.10365 -0.20681,-0.21131 -0.3125,-0.3125 -0.11468,-0.11531 -0.22648,-0.23146 -0.34375,-0.34375 -0.11468,-0.11531 -0.22648,-0.23146 -0.34375,-0.34375 -0.0934,-0.094 -0.18609,-0.1893 -0.28125,-0.28125 -0.22748,-0.23128 -0.44968,-0.46827 -0.6875,-0.6875 -0.0427,-0.0414 -0.082,-0.084 -0.125,-0.125 -0.10358,-0.10365 -0.20681,-0.21131 -0.3125,-0.3125 -0.11468,-0.11531 -0.22648,-0.23146 -0.34375,-0.34375 -0.12417,-0.12485 -0.24779,-0.2537 -0.375,-0.375 -0.12026,-0.12044 -0.25189,-0.22663 -0.375,-0.34375 -0.1193,-0.11966 -0.22164,-0.25861 -0.34375,-0.375 -0.10358,-0.10365 -0.20681,-0.21131 -0.3125,-0.3125 -0.11468,-0.11531 -0.22648,-0.23146 -0.34375,-0.34375 -0.11392,-0.11455 -0.22727,-0.23218 -0.34375,-0.34375 -0.1296,-0.13031 -0.27334,-0.24855 -0.40625,-0.375 -0.1193,-0.11966 -0.22164,-0.25861 -0.34375,-0.375 -0.10358,-0.10365 -0.20681,-0.21131 -0.3125,-0.3125 -0.11468,-0.11531 -0.22648,-0.23146 -0.34375,-0.34375 -0.11978,-0.12044 -0.25239,-0.22661 -0.375,-0.34375 -0.11919,-0.1196 -0.22176,-0.25867 -0.34375,-0.375 -0.12413,-0.12477 -0.24782,-0.25378 -0.375,-0.375 -0.10358,-0.10365 -0.20681,-0.21131 -0.3125,-0.3125 -0.11468,-0.11531 -0.22648,-0.23146 -0.34375,-0.34375 -0.11468,-0.11531 -0.22648,-0.23146 -0.34375,-0.34375 -0.12417,-0.12485 -0.24779,-0.2537 -0.375,-0.375 -0.12026,-0.12044 -0.25189,-0.22663 -0.375,-0.34375 -0.1193,-0.11966 -0.22164,-0.25861 -0.34375,-0.375 -0.10358,-0.10365 -0.20681,-0.21131 -0.3125,-0.3125 -0.11468,-0.11531 -0.22648,-0.23146 -0.34375,-0.34375 -0.11392,-0.11455 -0.22727,-0.23218 -0.34375,-0.34375 -0.1296,-0.13031 -0.27334,-0.24855 -0.40625,-0.375 -0.1193,-0.11966 -0.22164,-0.25861 -0.34375,-0.375 -0.10358,-0.10365 -0.20681,-0.21131 -0.3125,-0.3125 -0.11468,-0.11531 -0.22648,-0.23146 -0.34375,-0.34375 -0.11392,-0.11455 -0.22727,-0.23218 -0.34375,-0.34375 -0.1296,-0.13031 -0.27334,-0.24855 -0.40625,-0.375 -0.1193,-0.11966 -0.22164,-0.25861 -0.34375,-0.375 -0.10358,-0.10365 -0.20681,-0.21131 -0.3125,-0.3125 -0.11468,-0.11531 -0.22648,-0.23146 -0.34375,-0.34375 -0.11468,-0.11531 -0.22648,-0.23146 -0.34375,-0.34375 -0.12417,-0.12485 -0.24779,-0.2537 -0.375,-0.375 -0.12026,-0.12044 -0.25189,-0.22663 -0.375,-0.34375 -0.1193,-0.11966 -0.22164,-0.25861 -0.34375,-0.375 -0.10358,-0.10365 -0.20681,-0.21131 -0.3125,-0.3125 -0.11468,-0.11531 -0.22648,-0.23146 -0.34375,-0.34375 -0.11392,-0.11455 -0.22727,-0.23218 -0.34375,-0.34375 -0.1296,-0.13031 -0.27334,-0.24855 -0.40625,-0.375 -0.1193,-0.11966 -0.22164,-0.25861 -0.34375,-0.375 -0.10358,-0.10365 -0.20681,-0.21131 -0.3125,-0.3125 -0.11468,-0.11531 -0.22648,-0.23146 -0.34375,-0.34375 -0.11392,-0.11455 -0.22727,-0.23218 -0.34375,-0.34375 -0.1296,-0.13031 -0.27334,-0.24855 -0.40625,-0.375 -0.1193,-0.11966 -0.22164,-0.25861 -0.34375,-0.375 -0.10358,-0.10365 -0.20681,-0.21131 -0.3125,-0.3125 -0.11468,-0.11531 -0.22648,-0.23146 -0.34375,-0.34375 -0.11978,-0.12044 -0.25239,-0.22661 -0.375,-0.34375 -0.0415,-0.0417 -0.0831,-0.0837 -0.125,-0.125 -0.0361,-0.0374 -0.0574,-0.0879 -0.0937,-0.125 -0.006,-0.005 -0.0257,0.005 -0.0312,0 -0.23265,-0.23708 -0.44402,-0.4943 -0.6875,-0.71875 -0.0427,-0.0414 -0.082,-0.084 -0.125,-0.125 -0.10358,-0.10365 -0.20681,-0.21131 -0.3125,-0.3125 -0.11468,-0.11531 -0.22648,-0.23146 -0.34375,-0.34375 -0.12417,-0.12485 -0.24779,-0.2537 -0.375,-0.375 -0.12026,-0.12044 -0.25189,-0.22663 -0.375,-0.34375 -0.1193,-0.11966 -0.22164,-0.25861 -0.34375,-0.375 -0.10358,-0.10365 -0.20681,-0.21131 -0.3125,-0.3125 -0.11468,-0.11531 -0.22648,-0.23146 -0.34375,-0.34375 -0.11392,-0.11455 -0.22727,-0.23218 -0.34375,-0.34375 -0.1296,-0.13031 -0.27334,-0.24855 -0.40625,-0.375 -0.1193,-0.11966 -0.22164,-0.25861 -0.34375,-0.375 -0.10358,-0.10365 -0.20681,-0.21131 -0.3125,-0.3125 -0.11468,-0.11531 -0.22648,-0.23146 -0.34375,-0.34375 -0.11392,-0.11455 -0.22727,-0.23218 -0.34375,-0.34375 -0.1296,-0.13031 -0.27334,-0.24855 -0.40625,-0.375 -0.1193,-0.11966 -0.22164,-0.25861 -0.34375,-0.375 -0.10358,-0.10365 -0.20681,-0.21131 -0.3125,-0.3125 -0.11468,-0.11531 -0.22648,-0.23146 -0.34375,-0.34375 -0.11468,-0.11531 -0.22648,-0.23146 -0.34375,-0.34375 -0.12417,-0.12485 -0.24779,-0.2537 -0.375,-0.375 -0.12026,-0.12044 -0.25189,-0.22663 -0.375,-0.34375 -0.1193,-0.11966 -0.22164,-0.25861 -0.34375,-0.375 -0.10358,-0.10365 -0.20681,-0.21131 -0.3125,-0.3125 -0.11468,-0.11531 -0.22648,-0.23146 -0.34375,-0.34375 -0.11392,-0.11455 -0.22727,-0.23218 -0.34375,-0.34375 -0.1296,-0.13031 -0.27334,-0.24855 -0.40625,-0.375 -0.11929,-0.11964 -0.22166,-0.25862 -0.34375,-0.375 -0.10357,-0.10365 -0.20682,-0.21131 -0.3125,-0.3125 -0.11467,-0.11531 -0.22648,-0.23147 -0.34375,-0.34375 -0.11391,-0.11454 -0.22728,-0.23219 -0.34375,-0.34375 -0.12411,-0.1248 -0.24785,-0.25374 -0.375,-0.375 -0.11356,-0.11413 -0.22765,-0.23258 -0.34375,-0.34375 -0.14058,-0.14129 -0.29136,-0.27131 -0.4375,-0.40625 z M 104,364.65625 c -0.12499,-0.1126 -0.25153,-0.22721 -0.375,-0.34375 0.085,0.0839 0.16425,0.16809 0.25,0.25 0.0356,0.0372 0.0893,0.0569 0.125,0.0937 z m -4.59375,-5.71875 c 0.352033,0.58982 0.71923,1.15374 1.09375,1.6875 -0.37787,-0.54165 -0.738919,-1.08842 -1.09375,-1.6875 z"
             id="path3888"
             inkscape:connector-curvature="0" />
          <g
             id="g11615">
            <path
               sodipodi:nodetypes="csccccssccc"
               inkscape:connector-curvature="0"
               id="path2984"
               d="M 97.40342,156.17396 C 96.06022,159.88363 96,168.57789 96,255.71105 c 0,93.09782 0.0582,95.56036 1.66327,99.84895 7.46684,16.89301 22.43324,15.43483 35.31877,15.80116 l 246.06189,0 c 12.88552,-0.36655 27.85192,1.09185 35.31876,-15.80116 1.60567,-4.28859 1.63731,-6.75113 1.63731,-99.84895 0,-87.13316 -0.0364,-95.82742 -1.37738,-99.53709 -3.76975,-10.41113 -11.38255,-16.3832 -24.87127,-15.43731 l -267.47666,0 c -11.97542,-0.41454 -21.58378,6.81753 -24.87127,15.43731 z"
               style="fill:#e7e6df;fill-opacity:1" />
            <path
               style="fill:#dc4437;fill-opacity:1"
               d="M 97.40342,156.17396 C 96.06022,159.88363 96,168.57789 96,255.71105 c 0,93.09782 0.0582,95.56036 1.66327,99.84895 7.46684,16.89301 22.43324,15.43483 35.31877,15.80116 l 0,-168.97913 123.03098,85.65906 123.03091,-85.65906 0,168.97913 c 12.88552,-0.36655 27.85192,1.09185 35.31876,-15.80116 1.60567,-4.28859 1.63731,-6.75113 1.63731,-99.84895 0,-87.13316 -0.0364,-95.82742 -1.37738,-99.53709 -3.76975,-10.41113 -11.38255,-16.3832 -24.87127,-15.43731 l -133.73833,96.3664 -133.73833,-96.3664 c -11.97542,-0.41454 -21.58378,6.81753 -24.87127,15.43731 z"
               id="path15234"
               inkscape:connector-curvature="0"
               sodipodi:nodetypes="cscccccccsscccc" />
          </g>
        </g>
      </g>
    </g>
    <g
       transform="translate(-605.51932,-353.96832)"
       id="g4076">
      <g
         id="g4038"
         transform="translate(-926.66758,684.38448)">
        <path
           id="rect6809-2"
           d="m 1650.4994,-310.41615 c -54.4767,0 -98.3125,43.83583 -98.3125,98.3125 l 0,275.343747 c 0,54.476673 43.8358,98.343753 98.3125,98.343753 l 2.9375,0 c -53.3225,0 -96.25,-42.9275 -96.25,-96.250003 l 0,-269.499997 c 0,-53.3225 42.9275,-96.25 96.25,-96.25 l 269.5001,0 c 53.3225,0 96.25,42.9275 96.25,96.25 l 0,269.499997 c 0,53.322503 -42.9275,96.250003 -96.25,96.250003 l 2.9062,0 c 54.4767,0 98.3438,-43.86708 98.3438,-98.343753 l 0,-275.343747 c 0,-54.47667 -43.8671,-98.3125 -98.3438,-98.3125 l -275.3438,0 z"
           style="opacity:0.5;color:#000000;fill:url(#linearGradient11665);fill-opacity:1;fill-rule:nonzero;stroke:none;stroke-width:1.5;marker:none;visibility:visible;display:inline;overflow:visible;enable-background:accumulate"
           inkscape:connector-curvature="0" />
        <path
           inkscape:connector-curvature="0"
           style="opacity:0.2;color:#000000;fill:url(#linearGradient11667);fill-opacity:1;fill-rule:nonzero;stroke:none;stroke-width:1.5;marker:none;visibility:visible;display:inline;overflow:visible;enable-background:accumulate"
           d="m 1650.4994,161.58385 c -54.4767,0 -98.3125,-43.83583 -98.3125,-98.312503 l 0,-275.343747 c 0,-54.47667 43.8358,-98.34375 98.3125,-98.34375 l 2.9375,0 c -53.3225,0 -96.25,42.9275 -96.25,96.25 l 0,269.499997 c 0,53.322503 42.9275,96.250003 96.25,96.250003 l 269.5001,0 c 53.3225,0 96.25,-42.9275 96.25,-96.250003 l 0,-269.499997 c 0,-53.3225 -42.9275,-96.25 -96.25,-96.25 l 2.9062,0 c 54.4767,0 98.3438,43.86708 98.3438,98.34375 l 0,275.343747 c 0,54.476673 -43.8671,98.312503 -98.3438,98.312503 l -275.3438,0 z"
           id="path3981" />
      </g>
    </g>
  </g>
</svg>
