<?xml version="1.0" encoding="UTF-8" standalone="no"?>
<!-- Created with Inkscape (http://www.inkscape.org/) -->

<svg
   xmlns:dc="http://purl.org/dc/elements/1.1/"
   xmlns:cc="http://creativecommons.org/ns#"
   xmlns:rdf="http://www.w3.org/1999/02/22-rdf-syntax-ns#"
   xmlns:svg="http://www.w3.org/2000/svg"
   xmlns="http://www.w3.org/2000/svg"
   xmlns:xlink="http://www.w3.org/1999/xlink"
   xmlns:sodipodi="http://sodipodi.sourceforge.net/DTD/sodipodi-0.dtd"
   xmlns:inkscape="http://www.inkscape.org/namespaces/inkscape"
   width="512"
   height="512"
   id="svg2"
   version="1.1"
   inkscape:version="0.48.3.1 r9886"
   sodipodi:docname="google-calendar_B.svg"
   inkscape:export-filename="/home/alecive/Scrivania/firefoxTest1.png"
   inkscape:export-xdpi="100"
   inkscape:export-ydpi="100">
  <sodipodi:namedview
     id="base"
     pagecolor="#ffffff"
     bordercolor="#666666"
     borderopacity="1.0"
     inkscape:pageopacity="0.0"
     inkscape:pageshadow="2"
     inkscape:zoom="0.86789773"
     inkscape:cx="105.96143"
     inkscape:cy="263.21338"
     inkscape:document-units="px"
     inkscape:current-layer="svg2"
     showgrid="false"
     inkscape:window-width="1305"
     inkscape:window-height="744"
     inkscape:window-x="61"
     inkscape:window-y="24"
     inkscape:window-maximized="1"
     inkscape:object-paths="false"
     inkscape:snap-intersection-paths="false"
     inkscape:object-nodes="true"
     inkscape:snap-smooth-nodes="true"
     inkscape:snap-nodes="true" />
  <defs
     id="defs4">
    <linearGradient
       id="XMLID_74_-8-1"
       gradientUnits="userSpaceOnUse"
       x1="64.477501"
       y1="56.3008"
       x2="78.466103"
       y2="48.0854">
      <stop
         offset="0"
         style="stop-color:#ffffff;stop-opacity:1;"
         id="stop155-3-8" />
      <stop
         offset="1"
         style="stop-color:#e6e6e6;stop-opacity:1;"
         id="stop157-94-6" />
    </linearGradient>
    <radialGradient
       inkscape:collect="always"
       xlink:href="#XMLID_74_-8-1"
       id="radialGradient3867"
       cx="558.35437"
       cy="385.4841"
       fx="558.35437"
       fy="385.4841"
       r="191.6187"
       gradientTransform="matrix(1,0,0,1.0499906,0,-19.270593)"
       gradientUnits="userSpaceOnUse" />
    <linearGradient
       id="SVGID_2_"
       gradientUnits="userSpaceOnUse"
       x1="200.0508"
       y1="185.0742"
       x2="200.0508"
       y2="217.4595">
      <stop
         offset="0"
         style="stop-color:#61B74A"
         id="stop13" />
      <stop
         offset="1"
         style="stop-color:#449934"
         id="stop15" />
    </linearGradient>
    <linearGradient
       y2="217.4595"
       x2="200.0508"
       y1="185.0742"
       x1="200.0508"
       gradientTransform="matrix(13.577628,0,0,13.577628,-2026.1619,-2566.7096)"
       gradientUnits="userSpaceOnUse"
       id="linearGradient3021"
       xlink:href="#SVGID_2_"
       inkscape:collect="always" />
    <linearGradient
       id="linearGradient2460"
       y2="44.984001"
       gradientUnits="userSpaceOnUse"
       x2="19.360001"
       y1="21.030804"
       x1="19.244999">
      <stop
         id="stop3602"
         style="stop-color:#ffffff;stop-opacity:1;"
         offset="0" />
      <stop
         id="stop3604"
         style="stop-color:#f0f0f0;stop-opacity:1;"
         offset="1" />
    </linearGradient>
    <linearGradient
       y2="44.984001"
       x2="19.360001"
       y1="21.030804"
       x1="19.244999"
       gradientTransform="matrix(11.076923,0,0,11.076923,-9.8523013,-20.578025)"
       gradientUnits="userSpaceOnUse"
       id="linearGradient3096"
       xlink:href="#linearGradient2460"
       inkscape:collect="always" />
    <linearGradient
       y2="44.984001"
       x2="19.360001"
       y1="21.030804"
       x1="19.244999"
       gradientTransform="matrix(11.076923,0,0,11.076923,-9.8523013,-20.578025)"
       gradientUnits="userSpaceOnUse"
       id="linearGradient4253"
       xlink:href="#linearGradient2460"
       inkscape:collect="always" />
    <linearGradient
       y2="20.625916"
       x2="1006.8082"
       y1="484.41721"
       x1="1012.5133"
       gradientTransform="matrix(1.0317796,0,0,1.0317796,-830.86406,592.67791)"
       gradientUnits="userSpaceOnUse"
       id="linearGradient4114-2"
       xlink:href="#ButtonShadow-0-1-1-5"
       inkscape:collect="always" />
    <linearGradient
       gradientTransform="matrix(1.0058652,0,0,0.994169,100,0)"
       gradientUnits="userSpaceOnUse"
       id="ButtonShadow-0-1-1-5"
       y2="7.0165396"
       x2="45.447727"
       y1="92.539597"
       x1="45.447727">
      <stop
         offset="0"
         style="stop-color:#000000;stop-opacity:1"
         id="stop3750-8-9-3-6" />
      <stop
         offset="1"
         style="stop-color:#000000;stop-opacity:0.58823532"
         id="stop3752-5-6-4-2" />
    </linearGradient>
    <linearGradient
       y2="20.625916"
       x2="1006.8082"
       y1="484.41721"
       x1="1012.5133"
       gradientTransform="matrix(1.0402541,0,0,1.0402541,-837.95116,592.51825)"
       gradientUnits="userSpaceOnUse"
       id="linearGradient4112-2"
       xlink:href="#ButtonShadow-0-1-1-5"
       inkscape:collect="always" />
    <linearGradient
       gradientTransform="matrix(1.0058652,0,0,0.994169,100,0)"
       gradientUnits="userSpaceOnUse"
       id="linearGradient5292"
       y2="7.0165396"
       x2="45.447727"
       y1="92.539597"
       x1="45.447727">
      <stop
         offset="0"
         style="stop-color:#000000;stop-opacity:1"
         id="stop5294" />
      <stop
         offset="1"
         style="stop-color:#000000;stop-opacity:0.58823532"
         id="stop5296" />
    </linearGradient>
    <linearGradient
       y2="20.625916"
       x2="1006.8082"
       y1="484.41721"
       x1="1012.5133"
       gradientTransform="matrix(1.023305,0,0,1.023305,-823.77704,592.83757)"
       gradientUnits="userSpaceOnUse"
       id="linearGradient4110-6"
       xlink:href="#ButtonShadow-0-1-1-5"
       inkscape:collect="always" />
    <linearGradient
       gradientTransform="matrix(1.0058652,0,0,0.994169,100,0)"
       gradientUnits="userSpaceOnUse"
       id="linearGradient5299"
       y2="7.0165396"
       x2="45.447727"
       y1="92.539597"
       x1="45.447727">
      <stop
         offset="0"
         style="stop-color:#000000;stop-opacity:1"
         id="stop5301" />
      <stop
         offset="1"
         style="stop-color:#000000;stop-opacity:0.58823532"
         id="stop5303" />
    </linearGradient>
    <linearGradient
       y2="20.625916"
       x2="1006.8082"
       y1="484.41721"
       x1="1012.5133"
       gradientTransform="matrix(1.0148305,0,0,1.0148305,-816.68996,592.99723)"
       gradientUnits="userSpaceOnUse"
       id="linearGradient4116-6"
       xlink:href="#ButtonShadow-0-1-1-5"
       inkscape:collect="always" />
    <linearGradient
       gradientTransform="matrix(1.0058652,0,0,0.994169,100,0)"
       gradientUnits="userSpaceOnUse"
       id="linearGradient5306"
       y2="7.0165396"
       x2="45.447727"
       y1="92.539597"
       x1="45.447727">
      <stop
         offset="0"
         style="stop-color:#000000;stop-opacity:1"
         id="stop5308" />
      <stop
         offset="1"
         style="stop-color:#000000;stop-opacity:0.58823532"
         id="stop5310" />
    </linearGradient>
    <linearGradient
       inkscape:collect="always"
       xlink:href="#ButtonShadow-0-1-1-5"
       id="linearGradient3372"
       gradientUnits="userSpaceOnUse"
       gradientTransform="matrix(1.0074153,0,0,1.0074153,-810.48879,593.1369)"
       x1="1012.5133"
       y1="484.41721"
       x2="1006.8082"
       y2="20.625916" />
    <linearGradient
       gradientTransform="matrix(1.0058652,0,0,0.994169,100,0)"
       gradientUnits="userSpaceOnUse"
       id="linearGradient5313"
       y2="7.0165396"
       x2="45.447727"
       y1="92.539597"
       x1="45.447727">
      <stop
         offset="0"
         style="stop-color:#000000;stop-opacity:1"
         id="stop5315" />
      <stop
         offset="1"
         style="stop-color:#000000;stop-opacity:0.58823532"
         id="stop5317" />
    </linearGradient>
    <linearGradient
       y2="251.66064"
       x2="1011.9534"
       y1="476.25983"
       x1="1016.1035"
       gradientTransform="translate(-146.22032,369.08845)"
       gradientUnits="userSpaceOnUse"
       id="linearGradient4082"
       xlink:href="#linearGradient4487"
       inkscape:collect="always" />
    <linearGradient
       id="linearGradient4487">
      <stop
         offset="0"
         style="stop-color:#000000;stop-opacity:1"
         id="stop4489" />
      <stop
         offset="1"
         style="stop-color:#000000;stop-opacity:0"
         id="stop4491" />
    </linearGradient>
    <linearGradient
       y2="363.73825"
       x2="988.78552"
       y1="51.511765"
       x1="993.43896"
       gradientTransform="translate(778.59979,-360.55963)"
       gradientUnits="userSpaceOnUse"
       id="linearGradient4084"
       xlink:href="#linearGradient3737"
       inkscape:collect="always" />
    <linearGradient
       id="linearGradient3737">
      <stop
         offset="0"
         style="stop-color:#ffffff;stop-opacity:1"
         id="stop3739" />
      <stop
         offset="1"
         style="stop-color:#ffffff;stop-opacity:0"
         id="stop3741" />
    </linearGradient>
    <linearGradient
       y2="-55.941216"
       x2="1763.6903"
       y1="155.59685"
       x1="1764.6487"
       gradientUnits="userSpaceOnUse"
       id="linearGradient4086"
       xlink:href="#linearGradient4046"
       inkscape:collect="always" />
    <linearGradient
       id="linearGradient4046">
      <stop
         offset="0"
         style="stop-color:#000000;stop-opacity:1;"
         id="stop4048" />
      <stop
         offset="1"
         style="stop-color:#ffffff;stop-opacity:0.2"
         id="stop4050" />
    </linearGradient>
    <linearGradient
       inkscape:collect="always"
       xlink:href="#ButtonShadow-0-1-1-5"
       id="linearGradient5342"
       gradientUnits="userSpaceOnUse"
       gradientTransform="matrix(1.0074153,0,0,1.0074153,-810.48879,593.1369)"
       x1="1012.5133"
       y1="484.41721"
       x2="1006.8082"
       y2="20.625916" />
    <linearGradient
       y2="20.625916"
       x2="1006.8082"
       y1="484.41721"
       x1="1012.5133"
       gradientTransform="matrix(1.0317796,0,0,1.0317796,-830.86406,592.67791)"
       gradientUnits="userSpaceOnUse"
       id="linearGradient4114-2-6"
       xlink:href="#ButtonShadow-0-1-1-5-9"
       inkscape:collect="always" />
    <linearGradient
       gradientTransform="matrix(1.0058652,0,0,0.994169,100,0)"
       gradientUnits="userSpaceOnUse"
       id="ButtonShadow-0-1-1-5-9"
       y2="7.0165396"
       x2="45.447727"
       y1="92.539597"
       x1="45.447727">
      <stop
         offset="0"
         style="stop-color:#000000;stop-opacity:1"
         id="stop3750-8-9-3-6-4" />
      <stop
         offset="1"
         style="stop-color:#000000;stop-opacity:0.58823532"
         id="stop3752-5-6-4-2-9" />
    </linearGradient>
    <linearGradient
       y2="20.625916"
       x2="1006.8082"
       y1="484.41721"
       x1="1012.5133"
       gradientTransform="matrix(1.0402541,0,0,1.0402541,-837.95116,592.51825)"
       gradientUnits="userSpaceOnUse"
       id="linearGradient4112-2-6"
       xlink:href="#ButtonShadow-0-1-1-5-9"
       inkscape:collect="always" />
    <linearGradient
       gradientTransform="matrix(1.0058652,0,0,0.994169,100,0)"
       gradientUnits="userSpaceOnUse"
       id="linearGradient5292-5"
       y2="7.0165396"
       x2="45.447727"
       y1="92.539597"
       x1="45.447727">
      <stop
         offset="0"
         style="stop-color:#000000;stop-opacity:1"
         id="stop5294-8" />
      <stop
         offset="1"
         style="stop-color:#000000;stop-opacity:0.58823532"
         id="stop5296-4" />
    </linearGradient>
    <linearGradient
       y2="20.625916"
       x2="1006.8082"
       y1="484.41721"
       x1="1012.5133"
       gradientTransform="matrix(1.023305,0,0,1.023305,-823.77704,592.83757)"
       gradientUnits="userSpaceOnUse"
       id="linearGradient4110-6-7"
       xlink:href="#ButtonShadow-0-1-1-5-9"
       inkscape:collect="always" />
    <linearGradient
       gradientTransform="matrix(1.0058652,0,0,0.994169,100,0)"
       gradientUnits="userSpaceOnUse"
       id="linearGradient5299-2"
       y2="7.0165396"
       x2="45.447727"
       y1="92.539597"
       x1="45.447727">
      <stop
         offset="0"
         style="stop-color:#000000;stop-opacity:1"
         id="stop5301-9" />
      <stop
         offset="1"
         style="stop-color:#000000;stop-opacity:0.58823532"
         id="stop5303-1" />
    </linearGradient>
    <linearGradient
       y2="20.625916"
       x2="1006.8082"
       y1="484.41721"
       x1="1012.5133"
       gradientTransform="matrix(1.0148305,0,0,1.0148305,-816.68996,592.99723)"
       gradientUnits="userSpaceOnUse"
       id="linearGradient4116-6-3"
       xlink:href="#ButtonShadow-0-1-1-5-9"
       inkscape:collect="always" />
    <linearGradient
       gradientTransform="matrix(1.0058652,0,0,0.994169,100,0)"
       gradientUnits="userSpaceOnUse"
       id="linearGradient5306-9"
       y2="7.0165396"
       x2="45.447727"
       y1="92.539597"
       x1="45.447727">
      <stop
         offset="0"
         style="stop-color:#000000;stop-opacity:1"
         id="stop5308-0" />
      <stop
         offset="1"
         style="stop-color:#000000;stop-opacity:0.58823532"
         id="stop5310-6" />
    </linearGradient>
    <linearGradient
       inkscape:collect="always"
       xlink:href="#ButtonShadow-0-1-1-5-9"
       id="linearGradient3372-9"
       gradientUnits="userSpaceOnUse"
       gradientTransform="matrix(1.0074153,0,0,1.0074153,-810.48879,593.1369)"
       x1="1012.5133"
       y1="484.41721"
       x2="1006.8082"
       y2="20.625916" />
    <linearGradient
       gradientTransform="matrix(1.0058652,0,0,0.994169,100,0)"
       gradientUnits="userSpaceOnUse"
       id="linearGradient5313-8"
       y2="7.0165396"
       x2="45.447727"
       y1="92.539597"
       x1="45.447727">
      <stop
         offset="0"
         style="stop-color:#000000;stop-opacity:1"
         id="stop5315-8" />
      <stop
         offset="1"
         style="stop-color:#000000;stop-opacity:0.58823532"
         id="stop5317-1" />
    </linearGradient>
    <linearGradient
       y2="251.66064"
       x2="1011.9534"
       y1="476.25983"
       x1="1016.1035"
       gradientTransform="translate(-146.22032,369.08845)"
       gradientUnits="userSpaceOnUse"
       id="linearGradient4082-7"
       xlink:href="#linearGradient4487-8"
       inkscape:collect="always" />
    <linearGradient
       id="linearGradient4487-8">
      <stop
         offset="0"
         style="stop-color:#000000;stop-opacity:1"
         id="stop4489-0" />
      <stop
         offset="1"
         style="stop-color:#000000;stop-opacity:0"
         id="stop4491-4" />
    </linearGradient>
    <linearGradient
       y2="363.73825"
       x2="988.78552"
       y1="51.511765"
       x1="993.43896"
       gradientTransform="translate(778.59979,-360.55963)"
       gradientUnits="userSpaceOnUse"
       id="linearGradient4084-7"
       xlink:href="#linearGradient3737-8"
       inkscape:collect="always" />
    <linearGradient
       id="linearGradient3737-8">
      <stop
         offset="0"
         style="stop-color:#ffffff;stop-opacity:1"
         id="stop3739-4" />
      <stop
         offset="1"
         style="stop-color:#ffffff;stop-opacity:0"
         id="stop3741-7" />
    </linearGradient>
    <linearGradient
       y2="-55.941216"
       x2="1763.6903"
       y1="155.59685"
       x1="1764.6487"
       gradientUnits="userSpaceOnUse"
       id="linearGradient4086-1"
       xlink:href="#linearGradient4046-2"
       inkscape:collect="always" />
    <linearGradient
       id="linearGradient4046-2">
      <stop
         offset="0"
         style="stop-color:#000000;stop-opacity:1;"
         id="stop4048-2" />
      <stop
         offset="1"
         style="stop-color:#ffffff;stop-opacity:0.2"
         id="stop4050-7" />
    </linearGradient>
    <linearGradient
       inkscape:collect="always"
       xlink:href="#ButtonShadow-0-1-1-5-9"
       id="linearGradient5342-3"
       gradientUnits="userSpaceOnUse"
       gradientTransform="matrix(1.0074153,0,0,1.0074153,-810.48879,593.1369)"
       x1="1012.5133"
       y1="484.41721"
       x2="1006.8082"
       y2="20.625916" />
    <linearGradient
       y2="44.984001"
       x2="19.360001"
       y1="21.030804"
       x1="19.244999"
       gradientTransform="matrix(12.102564,0,0,12.102564,-34.468255,-46.187105)"
       gradientUnits="userSpaceOnUse"
       id="linearGradient3130"
       xlink:href="#linearGradient2460"
       inkscape:collect="always" />
    <linearGradient
       gradientUnits="userSpaceOnUse"
       xlink:href="#linearGradient3757"
       id="linearGradient3763"
       y2="6.0722966"
       x2="49.057751"
       y1="36.02602"
       x1="49.057751" />
    <linearGradient
       id="linearGradient3757">
      <stop
         offset="0"
         style="stop-color:#c53636;stop-opacity:1"
         id="stop3759" />
      <stop
         offset="1"
         style="stop-color:#d42b2b;stop-opacity:1"
         id="stop3761" />
    </linearGradient>
    <linearGradient
       inkscape:collect="always"
       xlink:href="#linearGradient3757"
       id="linearGradient3105"
       gradientUnits="userSpaceOnUse"
       x1="49.057751"
       y1="36.02602"
       x2="49.057751"
       y2="6.0722966"
       gradientTransform="matrix(5.6190476,0,0,5.6190476,691.44593,-152.87268)" />
    <linearGradient
       y2="20.625916"
       x2="1006.8082"
       y1="484.41721"
       x1="1012.5133"
       gradientTransform="matrix(1.0317796,0,0,1.0317796,-830.86406,592.67791)"
       gradientUnits="userSpaceOnUse"
       id="linearGradient3157"
       xlink:href="#ButtonShadow-0-1-1-5-9"
       inkscape:collect="always" />
    <linearGradient
       y2="20.625916"
       x2="1006.8082"
       y1="484.41721"
       x1="1012.5133"
       gradientTransform="matrix(1.0402541,0,0,1.0402541,-837.95116,592.51825)"
       gradientUnits="userSpaceOnUse"
       id="linearGradient3159"
       xlink:href="#ButtonShadow-0-1-1-5-9"
       inkscape:collect="always" />
    <linearGradient
       y2="20.625916"
       x2="1006.8082"
       y1="484.41721"
       x1="1012.5133"
       gradientTransform="matrix(1.023305,0,0,1.023305,-823.77704,592.83757)"
       gradientUnits="userSpaceOnUse"
       id="linearGradient3161"
       xlink:href="#ButtonShadow-0-1-1-5-9"
       inkscape:collect="always" />
    <linearGradient
       y2="20.625916"
       x2="1006.8082"
       y1="484.41721"
       x1="1012.5133"
       gradientTransform="matrix(1.0148305,0,0,1.0148305,-816.68996,592.99723)"
       gradientUnits="userSpaceOnUse"
       id="linearGradient3163"
       xlink:href="#ButtonShadow-0-1-1-5-9"
       inkscape:collect="always" />
    <linearGradient
       y2="20.625916"
       x2="1006.8082"
       y1="484.41721"
       x1="1012.5133"
       gradientTransform="matrix(1.0074153,0,0,1.0074153,-810.48879,593.1369)"
       gradientUnits="userSpaceOnUse"
       id="linearGradient3165"
       xlink:href="#ButtonShadow-0-1-1-5-9"
       inkscape:collect="always" />
    <linearGradient
       y2="363.73825"
       x2="988.78552"
       y1="51.511765"
       x1="993.43896"
       gradientTransform="translate(778.59979,-360.55963)"
       gradientUnits="userSpaceOnUse"
       id="linearGradient3179"
       xlink:href="#linearGradient3737"
       inkscape:collect="always" />
    <linearGradient
       y2="363.73825"
       x2="988.78552"
       y1="51.511765"
       x1="993.43896"
       gradientTransform="translate(778.59979,-360.55963)"
       gradientUnits="userSpaceOnUse"
       id="linearGradient3188"
       xlink:href="#linearGradient3737"
       inkscape:collect="always" />
    <linearGradient
       y2="-55.941216"
       x2="1763.6903"
       y1="155.59685"
       x1="1764.6487"
       gradientUnits="userSpaceOnUse"
       id="linearGradient3190"
       xlink:href="#linearGradient4046"
       inkscape:collect="always" />
    <linearGradient
       gradientTransform="translate(-1532.187,330.41615)"
       y2="-55.941216"
       x2="1763.6903"
       y1="155.59685"
       x1="1764.6487"
       gradientUnits="userSpaceOnUse"
       id="linearGradient3193"
       xlink:href="#linearGradient4046"
       inkscape:collect="always" />
    <linearGradient
       y2="363.73825"
       x2="988.78552"
       y1="51.511765"
       x1="993.43896"
       gradientTransform="translate(-753.58721,-30.14348)"
       gradientUnits="userSpaceOnUse"
       id="linearGradient3196"
       xlink:href="#linearGradient3737"
       inkscape:collect="always" />
    <linearGradient
       y2="363.73825"
       x2="988.78552"
       y1="51.511765"
       x1="993.43896"
       gradientTransform="translate(-219.69931,282.96371)"
       gradientUnits="userSpaceOnUse"
       id="linearGradient3207"
       xlink:href="#linearGradient3737"
       inkscape:collect="always" />
    <linearGradient
       gradientUnits="userSpaceOnUse"
       y2="310.86066"
       x2="251.14832"
       y1="30"
       x1="259.51361"
       id="linearGradient3990"
       xlink:href="#linearGradient3737"
       inkscape:collect="always" />
    <linearGradient
       inkscape:collect="always"
       xlink:href="#linearGradient2460"
       id="linearGradient21855"
       gradientUnits="userSpaceOnUse"
       gradientTransform="matrix(12.102564,0,0,12.102564,-34.468255,-46.187105)"
       x1="19.244999"
       y1="21.030804"
       x2="19.360001"
       y2="44.984001" />
    <linearGradient
       inkscape:collect="always"
       xlink:href="#linearGradient2460"
       id="linearGradient21858"
       gradientUnits="userSpaceOnUse"
       gradientTransform="matrix(12.102564,0,0,12.102564,-34.468255,-46.187105)"
       x1="19.244999"
       y1="21.030804"
       x2="19.360001"
       y2="44.984001" />
    <linearGradient
       inkscape:collect="always"
       xlink:href="#ButtonShadow-0-1-1-5-9-9"
       id="linearGradient18868"
       gradientUnits="userSpaceOnUse"
       gradientTransform="matrix(1.0148855,0,0,1.0148855,785.85657,468.17935)"
       x1="1012.5133"
       y1="484.41721"
       x2="1006.8082"
       y2="20.625916" />
    <linearGradient
       gradientTransform="matrix(1.0058652,0,0,0.994169,100,0)"
       gradientUnits="userSpaceOnUse"
       id="ButtonShadow-0-1-1-5-9-9"
       y2="7.0165396"
       x2="45.447727"
       y1="92.539597"
       x1="45.447727">
      <stop
         offset="0"
         style="stop-color:#000000;stop-opacity:1"
         id="stop3750-8-9-3-6-4-0" />
      <stop
         offset="1"
         style="stop-color:#000000;stop-opacity:0.58823532"
         id="stop3752-5-6-4-2-9-7" />
    </linearGradient>
    <linearGradient
       inkscape:collect="always"
       xlink:href="#ButtonShadow-0-1-1-5-9-9"
       id="linearGradient18870"
       gradientUnits="userSpaceOnUse"
       gradientTransform="matrix(1.0223557,0,0,1.0223557,784.555,468.39437)"
       x1="1012.5133"
       y1="484.41721"
       x2="1006.8082"
       y2="20.625916" />
    <linearGradient
       gradientTransform="matrix(1.0058652,0,0,0.994169,100,0)"
       gradientUnits="userSpaceOnUse"
       id="linearGradient3256"
       y2="7.0165396"
       x2="45.447727"
       y1="92.539597"
       x1="45.447727">
      <stop
         offset="0"
         style="stop-color:#000000;stop-opacity:1"
         id="stop3258" />
      <stop
         offset="1"
         style="stop-color:#000000;stop-opacity:0.58823532"
         id="stop3260" />
    </linearGradient>
    <linearGradient
       inkscape:collect="always"
       xlink:href="#ButtonShadow-0-1-1-5-9-9"
       id="linearGradient18872"
       gradientUnits="userSpaceOnUse"
       gradientTransform="matrix(1.0308931,0,0,1.0308931,783.06749,468.64011)"
       x1="1012.5133"
       y1="484.41721"
       x2="1006.8082"
       y2="20.625916" />
    <linearGradient
       gradientTransform="matrix(1.0058652,0,0,0.994169,100,0)"
       gradientUnits="userSpaceOnUse"
       id="linearGradient3263"
       y2="7.0165396"
       x2="45.447727"
       y1="92.539597"
       x1="45.447727">
      <stop
         offset="0"
         style="stop-color:#000000;stop-opacity:1"
         id="stop3265" />
      <stop
         offset="1"
         style="stop-color:#000000;stop-opacity:0.58823532"
         id="stop3267" />
    </linearGradient>
    <linearGradient
       inkscape:collect="always"
       xlink:href="#ButtonShadow-0-1-1-5-9-9"
       id="linearGradient18874"
       gradientUnits="userSpaceOnUse"
       gradientTransform="matrix(1.0479679,0,0,1.0479679,780.09248,469.13158)"
       x1="1012.5133"
       y1="484.41721"
       x2="1006.8082"
       y2="20.625916" />
    <linearGradient
       gradientTransform="matrix(1.0058652,0,0,0.994169,100,0)"
       gradientUnits="userSpaceOnUse"
       id="linearGradient3270"
       y2="7.0165396"
       x2="45.447727"
       y1="92.539597"
       x1="45.447727">
      <stop
         offset="0"
         style="stop-color:#000000;stop-opacity:1"
         id="stop3272" />
      <stop
         offset="1"
         style="stop-color:#000000;stop-opacity:0.58823532"
         id="stop3274" />
    </linearGradient>
    <linearGradient
       inkscape:collect="always"
       xlink:href="#ButtonShadow-0-1-1-5-9-9"
       id="linearGradient18876"
       gradientUnits="userSpaceOnUse"
       gradientTransform="matrix(1.0394305,0,0,1.0394305,781.57999,468.88584)"
       x1="1012.5133"
       y1="484.41721"
       x2="1006.8082"
       y2="20.625916" />
    <linearGradient
       gradientTransform="matrix(1.0058652,0,0,0.994169,100,0)"
       gradientUnits="userSpaceOnUse"
       id="linearGradient3277"
       y2="7.0165396"
       x2="45.447727"
       y1="92.539597"
       x1="45.447727">
      <stop
         offset="0"
         style="stop-color:#000000;stop-opacity:1"
         id="stop3279" />
      <stop
         offset="1"
         style="stop-color:#000000;stop-opacity:0.58823532"
         id="stop3281" />
    </linearGradient>
    <linearGradient
       y2="20.625916"
       x2="1006.8082"
       y1="484.41721"
       x1="1012.5133"
       gradientTransform="matrix(1.0394305,0,0,1.0394305,781.57999,468.88584)"
       gradientUnits="userSpaceOnUse"
       id="linearGradient3289"
       xlink:href="#ButtonShadow-0-1-1-5-9-9"
       inkscape:collect="always" />
  </defs>
  <metadata
     id="metadata7">
    <rdf:RDF>
      <cc:Work
         rdf:about="">
        <dc:format>image/svg+xml</dc:format>
        <dc:type
           rdf:resource="http://purl.org/dc/dcmitype/StillImage" />
        <dc:title />
      </cc:Work>
    </rdf:RDF>
  </metadata>
  <g
     transform="translate(0,-540.36218)"
     inkscape:label="Livello 1"
     inkscape:groupmode="layer"
     id="layer1" />
  <g
     transform="matrix(1.1,0,0,0.44444,95.081063,256.39254)"
     id="g2036">
    <g
       transform="matrix(1.0526,0,0,1.2857,-1.2632,-13.429)"
       style="opacity:0.4"
       id="g3712" />
  </g>
  <g
     id="g3541"
     transform="translate(97.481063,231.28154)" />
  <g
     id="g3536"
     transform="translate(97.481063,231.28154)" />
  <g
     transform="translate(917.97005,-353.94163)"
     id="g4103">
    <rect
       style="opacity:0.1;color:#000000;fill:url(#linearGradient3157);fill-opacity:1;fill-rule:nonzero;stroke:none;stroke-width:1.5;marker:none;visibility:visible;display:inline;overflow:visible;enable-background:accumulate"
       id="rect6187"
       width="487"
       height="487"
       x="31.985071"
       y="612.11719"
       ry="101.45834" />
    <rect
       ry="102.29167"
       y="612.11719"
       x="31.985071"
       height="491"
       width="491"
       id="rect6191"
       style="opacity:0.07999998;color:#000000;fill:url(#linearGradient3159);fill-opacity:1;fill-rule:nonzero;stroke:none;stroke-width:1.5;marker:none;visibility:visible;display:inline;overflow:visible;enable-background:accumulate" />
    <rect
       ry="100.62501"
       y="612.11719"
       x="31.985071"
       height="483"
       width="483"
       id="rect6183"
       style="opacity:0.2;color:#000000;fill:url(#linearGradient3161);fill-opacity:1;fill-rule:nonzero;stroke:none;stroke-width:1.5;marker:none;visibility:visible;display:inline;overflow:visible;enable-background:accumulate" />
    <rect
       style="opacity:0.25;color:#000000;fill:url(#linearGradient3163);fill-opacity:1;fill-rule:nonzero;stroke:none;stroke-width:1.5;marker:none;visibility:visible;display:inline;overflow:visible;enable-background:accumulate"
       id="rect6179"
       width="479"
       height="479"
       x="31.985071"
       y="612.11719"
       ry="99.791664" />
    <rect
       ry="99.0625"
       y="612.11719"
       x="31.985071"
       height="475.5"
       width="475.5"
       id="rect5574"
       style="opacity:0.25;color:#000000;fill:url(#linearGradient3165);fill-opacity:1;fill-rule:nonzero;stroke:none;stroke-width:1.5;marker:none;visibility:visible;display:inline;overflow:visible;enable-background:accumulate" />
  </g>
  <g
     id="g18853"
     transform="translate(-942.68378,-418.9673)">
    <path
       inkscape:connector-curvature="0"
       id="path17715"
       d="m 1061.7568,438.9673 c -54.8805,0 -99.07302,44.19253 -99.07302,99.07299 l 0,23.23352 0,254.1205 c 0,54.88061 44.19242,99.07304 99.07302,99.07304 l 277.354,0 c 54.8806,0 99.073,-44.19243 99.073,-99.07304 l 0,-254.1205 0,-23.23352 c 0,-54.88046 -44.1925,-99.07299 -99.073,-99.07299 l -5.6982,0 0,15.48901 c 7.2159,4.1833 12.089,11.83688 12.089,20.77794 0,13.35313 -10.8248,24.17796 -24.178,24.17796 -13.3531,0 -24.178,-10.82483 -24.178,-24.17796 0,-8.94106 4.8732,-16.59464 12.089,-20.77794 l 0,-15.48901 -217.6017,0 0,15.48901 c 7.2159,4.1833 12.089,11.83688 12.089,20.77794 0,13.35313 -10.8248,24.17796 -24.1779,24.17796 -13.3532,0 -24.178,-10.82483 -24.178,-24.17796 0,-8.94106 4.8731,-16.59464 12.089,-20.77794 l 0,-15.48901 -5.6982,0 z"
       style="opacity:0.25;color:#000000;fill:url(#linearGradient18868);fill-opacity:1;fill-rule:nonzero;stroke:none;stroke-width:1.5;marker:none;visibility:visible;display:inline;overflow:visible;enable-background:accumulate" />
    <path
       style="opacity:0.25;color:#000000;fill:url(#linearGradient18870);fill-opacity:1;fill-rule:nonzero;stroke:none;stroke-width:1.5;marker:none;visibility:visible;display:inline;overflow:visible;enable-background:accumulate"
       d="m 1062.486,438.9673 c -55.2844,0 -99.80222,44.51782 -99.80222,99.80223 l 0,23.40454 0,255.991 c 0,55.28456 44.51762,99.80229 99.80222,99.80229 l 279.3956,0 c 55.2845,0 99.8022,-44.51773 99.8022,-99.80229 l 0,-255.991 0,-23.40454 c 0,-55.28441 -44.5178,-99.80223 -99.8022,-99.80223 l -5.7402,0 0,15.60302 c 7.2691,4.21409 12.178,11.92401 12.178,20.93088 0,13.45142 -10.9045,24.35592 -24.356,24.35592 -13.4514,0 -24.3559,-10.9045 -24.3559,-24.35592 0,-9.00687 4.909,-16.71679 12.178,-20.93088 l 0,-15.60302 -219.2034,0 0,15.60302 c 7.269,4.21409 12.178,11.92401 12.178,20.93088 0,13.45142 -10.9046,24.35592 -24.356,24.35592 -13.4514,0 -24.3559,-10.9045 -24.3559,-24.35592 0,-9.00687 4.909,-16.71679 12.178,-20.93088 l 0,-15.60302 -5.7402,0 z"
       id="path17723"
       inkscape:connector-curvature="0" />
    <path
       inkscape:connector-curvature="0"
       id="path17727"
       d="m 1063.3194,438.9673 c -55.746,0 -100.63562,44.88958 -100.63562,100.63565 l 0,23.59999 0,258.12871 c 0,55.74622 44.88942,100.63571 100.63562,100.63571 l 281.7287,0 c 55.7463,0 100.6357,-44.88949 100.6357,-100.63571 l 0,-258.12871 0,-23.59999 c 0,-55.74607 -44.8896,-100.63565 -100.6357,-100.63565 l -5.7881,0 0,15.73332 c 7.3298,4.24928 12.2797,12.02358 12.2797,21.10566 0,13.56375 -10.9955,24.55931 -24.5593,24.55931 -13.5638,0 -24.5593,-10.99556 -24.5593,-24.55931 0,-9.08208 4.95,-16.85638 12.2796,-21.10566 l 0,-15.73332 -221.0339,0 0,15.73332 c 7.3297,4.24928 12.2797,12.02358 12.2797,21.10566 0,13.56375 -10.9956,24.55931 -24.5593,24.55931 -13.5638,0 -24.5594,-10.99556 -24.5594,-24.55931 0,-9.08208 4.95,-16.85638 12.2797,-21.10566 l 0,-15.73332 -5.7881,0 z"
       style="opacity:0.2;color:#000000;fill:url(#linearGradient18872);fill-opacity:1;fill-rule:nonzero;stroke:none;stroke-width:1.5;marker:none;visibility:visible;display:inline;overflow:visible;enable-background:accumulate" />
    <path
       style="opacity:0.07999998;color:#000000;fill:url(#linearGradient18874);fill-opacity:1;fill-rule:nonzero;stroke:none;stroke-width:1.5;marker:none;visibility:visible;display:inline;overflow:visible;enable-background:accumulate"
       d="m 1064.9863,438.9673 c -56.6694,0 -102.30252,45.63309 -102.30252,102.30249 l 0,23.99088 0,262.40414 c 0,56.66955 45.63292,102.30255 102.30252,102.30255 l 286.395,0 c 56.6696,0 102.3025,-45.633 102.3025,-102.30255 l 0,-262.40414 0,-23.99088 c 0,-56.6694 -45.6331,-102.30249 -102.3025,-102.30249 l -5.884,0 0,15.99391 c 7.4512,4.31966 12.4831,12.22273 12.4831,21.45524 0,13.78841 -11.1776,24.96609 -24.9661,24.96609 -13.7884,0 -24.9661,-11.17768 -24.9661,-24.96609 0,-9.23251 5.032,-17.13558 12.483,-21.45524 l 0,-15.99391 -224.6949,0 0,15.99391 c 7.4511,4.31966 12.4831,12.22273 12.4831,21.45524 0,13.78841 -11.1777,24.96609 -24.9661,24.96609 -13.7884,0 -24.9661,-11.17768 -24.9661,-24.96609 0,-9.23251 5.0319,-17.13558 12.483,-21.45524 l 0,-15.99391 -5.8839,0 z"
       id="path17731"
       inkscape:connector-curvature="0" />
    <path
       inkscape:connector-curvature="0"
       id="path17735"
       d="m 1064.1529,438.9673 c -56.2078,0 -101.46912,45.26133 -101.46912,101.46907 l 0,23.79543 0,260.26643 c 0,56.20789 45.26122,101.46913 101.46912,101.46913 l 284.0618,0 c 56.2079,0 101.4691,-45.26124 101.4691,-101.46913 l 0,-260.26643 0,-23.79543 c 0,-56.20774 -45.2613,-101.46907 -101.4691,-101.46907 l -5.836,0 0,15.86361 c 7.3904,4.28447 12.3814,12.12316 12.3814,21.28046 0,13.67608 -11.0866,24.7627 -24.7628,24.7627 -13.676,0 -24.7627,-11.08662 -24.7627,-24.7627 0,-9.1573 4.991,-16.99599 12.3814,-21.28046 l 0,-15.86361 -222.8644,0 0,15.86361 c 7.3904,4.28447 12.3813,12.12316 12.3813,21.28046 0,13.67608 -11.0866,24.7627 -24.7627,24.7627 -13.676,0 -24.7627,-11.08662 -24.7627,-24.7627 0,-9.1573 4.991,-16.99599 12.3814,-21.28046 l 0,-15.86361 -5.836,0 z"
       style="opacity:0.1;color:#000000;fill:url(#linearGradient3289);fill-opacity:1;fill-rule:nonzero;stroke:none;stroke-width:1.5;marker:none;visibility:visible;display:inline;overflow:visible;enable-background:accumulate" />
  </g>
  <g
     id="g3350">
    <path
       style="color:#000000;fill:#3872bb;fill-opacity:1;fill-rule:nonzero;stroke:none;stroke-width:1.5;marker:none;visibility:visible;display:inline;overflow:visible;enable-background:accumulate"
       d="M 118.34375,20 C 63.867249,20 20,63.867239 20,118.34375 l 0,23.0625 472,0 0,-23.0625 C 492,63.867239 448.13277,20 393.65625,20 L 388,20 l 0,15.375 c 7.16281,4.15251 12,11.749746 12,20.625 0,13.254833 -10.74509,24 -24,24 -13.25485,0 -24,-10.745167 -24,-24 0,-8.875254 4.83726,-16.47249 12,-20.625 L 364,20 l -216,0 0,15.375 c 7.16275,4.15251 12,11.749746 12,20.625 0,13.254833 -10.74516,24 -24,24 -13.25483,0 -24,-10.745167 -24,-24 0,-8.875254 4.83725,-16.47249 12,-20.625 L 124,20 l -5.65625,0 z"
       id="rect3082"
       inkscape:connector-curvature="0" />
    <path
       inkscape:connector-curvature="0"
       style="fill:url(#linearGradient21858);stroke:none"
       d="m 20,141.41435 0,252.25232 C 20,448.14333 63.856667,492 118.33333,492 l 275.33334,0 C 448.14334,492 492,448.14333 492,393.66667 l 0,-252.25232 -472,0 z"
       id="rect5505" />
  </g>
  <path
     style="font-size:323.79446411000003536px;font-style:normal;font-variant:normal;font-weight:normal;font-stretch:normal;line-height:125%;letter-spacing:0px;word-spacing:0px;fill:#000000;fill-opacity:0.15686275;stroke:none;font-family:Gentium Book Basic;-inkscape-font-specification:Gentium Book Basic"
     d="m 259,216.71875 c -8.22142,1.9e-4 -15.92649,1.2518 -23.09375,3.78125 -7.16738,2.52983 -13.3862,6.06165 -18.65625,10.59375 -5.27013,4.42705 -9.41213,9.75021 -12.46875,15.96875 -3.05668,6.21886 -4.59377,12.97742 -4.59375,20.25 -2e-5,6.00804 0.89564,11.28035 2.6875,15.8125 1.8972,4.427 4.43167,8.31476 7.59375,11.6875 l 18.8732,18.9348 c -4.35997,2.66198 -8.44076,5.51515 -12.25,8.5625 -5.16473,4.11076 -9.59221,8.53825 -13.28125,13.28125 -3.68908,4.74316 -6.57948,9.76122 -8.6875,15.03125 -2.00265,5.16474 -3.00001,10.5896 -3,16.28125 -1e-5,6.53496 1.25159,12.80463 3.78125,18.8125 2.0287,4.54436 4.81555,8.70539 8.28125,12.5 l 93.6875,93.78125 95.78125,0 c 45.81847,0 84.13738,-31.00815 95.15625,-73.28125 L 301.56095,231.46625 c -0.98813,-1.01452 -2.05446,-1.98394 -3.1875,-2.90625 -4.427,-3.68887 -9.95355,-6.57927 -16.59375,-8.6875 -6.53501,-2.10784 -14.13839,-3.15606 -22.78125,-3.15625 z m -7.28125,15.96875 c 4.5322,1.8e-4 8.70545,0.55951 12.5,1.71875 3.89978,1.1596 7.2282,3.00178 9.96875,5.53125 2.84575,2.52982 5.04387,5.75655 6.625,9.65625 1.58092,3.90003 2.3749,8.58175 2.375,14.0625 -10e-5,5.37563 -1.40426,10.80049 -4.25,16.28125 -2.84595,5.37562 -7.60978,10.74963 -14.25,16.125 -5.05937,-2.21332 -9.94449,-4.41144 -14.6875,-6.625 -4.63775,-2.21332 -8.76015,-4.59523 -12.34375,-7.125 -3.58372,-2.63491 -6.42327,-5.57616 -8.53125,-8.84375 -2.10809,-3.37272 -3.1563,-7.26047 -3.15625,-11.6875 -5e-5,-3.58351 0.50843,-7.11533 1.5625,-10.59375 1.05397,-3.4781 2.64191,-6.60313 4.75,-9.34375 2.21338,-2.74027 4.90039,-4.9384 8.0625,-6.625 3.26739,-1.68625 7.05346,-2.53107 11.375,-2.53125 z m -3.46875,84.25 c 5.27002,2.31893 10.38978,4.80254 15.34375,7.4375 4.9538,2.52973 9.33044,5.52182 13.125,9 3.89977,3.47833 6.99356,7.65159 9.3125,12.5 2.31873,4.74315 3.49989,10.50433 3.5,17.25 -1.1e-4,4.63772 -0.64154,9.16692 -1.90625,13.59375 -1.15953,4.32151 -3.00171,8.15841 -5.53125,11.53125 -2.52974,3.37288 -5.75648,6.11073 -9.65625,8.21875 -9.14397,4.26235 -19.55471,3.92141 -28.28125,0.46875 -4.42694,-1.89722 -8.24425,-4.48252 -11.40625,-7.75 -3.16211,-3.37283 -5.64572,-7.31145 -7.4375,-11.84375 -1.79188,-4.63765 -2.68754,-9.70656 -2.6875,-15.1875 -4e-5,-4.63763 0.48884,-8.91258 1.4375,-12.8125 1.05397,-4.00521 2.64192,-7.79127 4.75,-11.375 2.10799,-3.68899 4.74414,-7.22081 7.90625,-10.59375 3.26739,-3.47817 7.10431,-6.95915 11.53125,-10.4375 z"
     id="path17721"
     inkscape:connector-curvature="0"
     sodipodi:nodetypes="ccccsccccscscccsccccccccccccccccscccccccccccccccccccc" />
  <g
     id="g3171">
    <path
       id="path3173"
       d="M 118.3125 20 C 106.39572 20 94.988442 22.089744 84.4375 25.9375 C 82.185495 26.759848 79.983131 27.677799 77.8125 28.65625 C 71.992717 31.27673 66.457464 34.440606 61.3125 38.09375 C 59.392502 39.457972 57.532354 40.910715 55.71875 42.40625 C 55.712564 42.411348 55.693685 42.40115 55.6875 42.40625 C 53.873929 43.902494 52.137833 45.472949 50.4375 47.09375 C 50.432042 47.098951 50.411707 47.088548 50.40625 47.09375 C 49.279852 48.167947 48.167947 49.279852 47.09375 50.40625 C 47.088636 50.411613 47.098863 50.432136 47.09375 50.4375 C 45.472949 52.137833 43.902494 53.873929 42.40625 55.6875 C 42.401215 55.693602 42.411283 55.712646 42.40625 55.71875 C 40.910715 57.532354 39.457972 59.392502 38.09375 61.3125 C 38.088905 61.319318 38.098593 61.33693 38.09375 61.34375 C 36.731289 63.263655 35.411877 65.230505 34.1875 67.25 C 34.182925 67.25754 34.192073 67.273709 34.1875 67.28125 C 33.782772 67.949229 33.389132 68.602874 33 69.28125 C 32.995482 69.289119 33.004516 69.304629 33 69.3125 C 32.611039 69.991015 32.216866 70.686336 31.84375 71.375 C 31.839429 71.382969 31.848069 71.39828 31.84375 71.40625 C 31.470876 72.094931 31.075536 72.770169 30.71875 73.46875 C 30.714565 73.476937 30.722933 73.491812 30.71875 73.5 C 30.00141 74.905523 29.306985 76.337169 28.65625 77.78125 C 28.652378 77.789833 28.660119 77.803916 28.65625 77.8125 C 27.677799 79.983131 26.759848 82.185495 25.9375 84.4375 C 25.93418 84.446593 25.940818 84.459656 25.9375 84.46875 C 25.666246 85.213254 25.409955 85.965842 25.15625 86.71875 C 25.153096 86.728096 25.159401 86.740652 25.15625 86.75 C 24.902792 87.502934 24.641916 88.238912 24.40625 89 C 24.403295 89.009527 24.409202 89.021722 24.40625 89.03125 C 24.170786 89.792504 23.936172 90.574587 23.71875 91.34375 C 23.716043 91.353311 23.721454 91.365438 23.71875 91.375 C 23.501595 92.144127 23.292622 92.910714 23.09375 93.6875 C 23.091239 93.697292 23.096258 93.708957 23.09375 93.71875 C 22.895096 94.495681 22.680122 95.278156 22.5 96.0625 C 22.497737 96.072335 22.50226 96.083914 22.5 96.09375 C 22.320155 96.878016 22.161074 97.646071 22 98.4375 C 21.99794 98.447599 22.002057 98.45865 22 98.46875 C 21.839124 99.260457 21.673099 100.07637 21.53125 100.875 C 21.52947 100.885 21.533027 100.89625 21.53125 100.90625 C 21.389659 101.70487 21.247321 102.50721 21.125 103.3125 C 21.123451 103.32267 21.126546 103.33358 21.125 103.34375 C 21.002937 104.14905 20.8838 104.93828 20.78125 105.75 C 20.77994 105.76033 20.782556 105.77092 20.78125 105.78125 C 20.678941 106.59311 20.582546 107.40071 20.5 108.21875 C 20.498952 108.2291 20.501045 108.23965 20.5 108.25 C 20.417696 109.06819 20.343541 109.89463 20.28125 110.71875 C 20.280464 110.7291 20.282033 110.73965 20.28125 110.75 C 20.219204 111.57428 20.166782 112.42003 20.125 113.25 C 20.124476 113.26033 20.125521 113.27091 20.125 113.28125 C 20.083474 114.11126 20.052265 114.9458 20.03125 115.78125 C 20.030984 115.79168 20.031513 115.80207 20.03125 115.8125 C 20.010493 116.648 20 117.47181 20 118.3125 C 19.999997 118.32301 20 118.33324 20 118.34375 L 20 141.40625 L 20 393.65625 C 20 405.57302 22.089746 416.97797 25.9375 427.53125 C 26.76252 429.79267 27.673851 432.0081 28.65625 434.1875 C 31.274456 439.99922 34.446053 445.5171 38.09375 450.65625 C 39.462334 452.58343 40.905406 454.46121 42.40625 456.28125 C 43.907094 458.10129 45.467497 459.85645 47.09375 461.5625 C 47.635834 462.13118 48.194489 462.69449 48.75 463.25 C 49.300154 463.80015 49.843172 464.36928 50.40625 464.90625 C 50.411613 464.91136 50.432136 464.90114 50.4375 464.90625 C 51.000509 465.4429 51.549323 465.97676 52.125 466.5 C 52.130685 466.50517 52.150564 466.49483 52.15625 466.5 C 53.313459 467.5513 54.480631 468.59815 55.6875 469.59375 C 55.693602 469.59878 55.712646 469.58872 55.71875 469.59375 C 56.319028 470.0887 56.919063 470.5817 57.53125 471.0625 C 57.537665 471.06754 57.556083 471.05746 57.5625 471.0625 C 58.174733 471.54309 58.78236 472.0338 59.40625 472.5 C 59.41287 472.50495 59.430879 472.49505 59.4375 472.5 C 60.061438 472.96599 60.677155 473.4549 61.3125 473.90625 C 61.319318 473.91109 61.33693 473.90141 61.34375 473.90625 C 63.263655 475.26941 65.230505 476.58746 67.25 477.8125 C 67.25754 477.81708 67.273709 477.80793 67.28125 477.8125 C 67.949229 478.21745 68.602874 478.61066 69.28125 479 C 69.289119 479.00452 69.304629 478.99548 69.3125 479 C 69.991015 479.38917 70.686336 479.78293 71.375 480.15625 C 71.382969 480.16057 71.39828 480.15193 71.40625 480.15625 C 72.094931 480.52933 72.770169 480.92426 73.46875 481.28125 C 73.476937 481.28544 73.491812 481.27707 73.5 481.28125 C 74.905523 481.999 76.337169 482.69264 77.78125 483.34375 C 77.789833 483.34762 77.803916 483.33988 77.8125 483.34375 C 78.530123 483.66706 79.241979 483.97476 79.96875 484.28125 C 79.977629 484.285 79.991119 484.27751 80 484.28125 C 80.72688 484.58753 81.451719 484.89829 82.1875 485.1875 C 82.196491 485.19104 82.209758 485.18397 82.21875 485.1875 C 82.954643 485.47651 83.692953 485.79081 84.4375 486.0625 C 84.446593 486.06582 84.459656 486.05918 84.46875 486.0625 C 85.213254 486.33392 85.965842 486.58989 86.71875 486.84375 C 86.728096 486.8469 86.740652 486.8406 86.75 486.84375 C 87.502934 487.09736 88.238912 487.35794 89 487.59375 C 89.009527 487.5967 89.021722 487.5908 89.03125 487.59375 C 89.792504 487.82936 90.574587 488.06369 91.34375 488.28125 C 91.353311 488.28396 91.365438 488.27855 91.375 488.28125 C 92.144128 488.49854 92.910713 488.70725 93.6875 488.90625 C 93.697292 488.90876 93.708957 488.90374 93.71875 488.90625 C 94.495682 489.10503 95.278155 489.31976 96.0625 489.5 C 96.072335 489.50226 96.083913 489.49774 96.09375 489.5 C 96.878016 489.67996 97.646071 489.83882 98.4375 490 C 98.447599 490.00206 98.45865 489.99794 98.46875 490 C 99.260457 490.16098 100.07637 490.32681 100.875 490.46875 C 100.885 490.47053 100.89625 490.46697 100.90625 490.46875 C 101.70487 490.61044 102.50721 490.7526 103.3125 490.875 C 103.32267 490.87655 103.33358 490.87345 103.34375 490.875 C 104.14905 490.99714 104.93828 491.11613 105.75 491.21875 C 105.76033 491.22006 105.77092 491.21744 105.78125 491.21875 C 106.59311 491.32113 107.40071 491.4174 108.21875 491.5 C 108.2291 491.50105 108.23965 491.49895 108.25 491.5 C 109.06819 491.58236 109.89463 491.65642 110.71875 491.71875 C 110.7291 491.71954 110.73965 491.71797 110.75 491.71875 C 111.57428 491.78084 112.42003 491.83319 113.25 491.875 C 113.26033 491.87552 113.27091 491.87448 113.28125 491.875 C 114.11126 491.91655 114.9458 491.94772 115.78125 491.96875 C 115.79168 491.96902 115.80207 491.96849 115.8125 491.96875 C 116.648 491.98952 117.47181 492 118.3125 492 C 118.32301 492 118.33324 492 118.34375 492 L 121.25 492 C 67.9275 492 25 449.0725 25 395.75 L 25 126.25 C 25 72.9275 67.9275 30 121.25 30 L 124 30 L 124 20 L 118.3125 20 z M 148 20 L 148 30 L 364 30 L 364 20 L 148 20 z M 388 20 L 388 30 L 390.75 30 C 444.0725 30 487 72.9275 487 126.25 L 487 395.75 C 487 449.0725 444.0725 492 390.75 492 L 393.65625 492 C 398.76344 492 403.76296 491.6187 408.65625 490.875 C 455.95806 483.68592 492 443.02573 492 393.65625 L 492 141.40625 L 492 118.34375 C 492 118.33324 492 118.32301 492 118.3125 C 492 117.47181 491.98952 116.648 491.96875 115.8125 C 491.96849 115.80207 491.96902 115.79168 491.96875 115.78125 C 491.94772 114.9458 491.91655 114.11126 491.875 113.28125 C 491.87448 113.27091 491.87552 113.26033 491.875 113.25 C 491.83319 112.42003 491.78084 111.57428 491.71875 110.75 C 491.71797 110.73965 491.71954 110.7291 491.71875 110.71875 C 491.65642 109.89463 491.58236 109.06819 491.5 108.25 C 491.49895 108.23965 491.50105 108.2291 491.5 108.21875 C 491.4174 107.40071 491.32113 106.59311 491.21875 105.78125 C 491.21744 105.77092 491.22006 105.76033 491.21875 105.75 C 491.11613 104.93828 490.99714 104.14905 490.875 103.34375 C 490.87345 103.33358 490.87655 103.32267 490.875 103.3125 C 490.7526 102.50721 490.61044 101.70487 490.46875 100.90625 C 490.46697 100.89625 490.47053 100.885 490.46875 100.875 C 490.32681 100.07637 490.16098 99.260457 490 98.46875 C 489.99794 98.45865 490.00206 98.447599 490 98.4375 C 489.83882 97.646071 489.67996 96.878016 489.5 96.09375 C 489.49774 96.083914 489.50226 96.072335 489.5 96.0625 C 489.31976 95.278156 489.10503 94.495681 488.90625 93.71875 C 488.90374 93.708957 488.90876 93.697292 488.90625 93.6875 C 488.70725 92.910714 488.49854 92.144127 488.28125 91.375 C 488.27855 91.365438 488.28396 91.353311 488.28125 91.34375 C 488.06369 90.574587 487.82936 89.792504 487.59375 89.03125 C 487.5908 89.021722 487.5967 89.009527 487.59375 89 C 487.35794 88.238912 487.09736 87.502934 486.84375 86.75 C 486.8406 86.740652 486.8469 86.728096 486.84375 86.71875 C 486.58989 85.965842 486.33392 85.213254 486.0625 84.46875 C 485.78417 83.705846 485.484 82.941328 485.1875 82.1875 C 484.89829 81.451719 484.58753 80.72688 484.28125 80 C 484.27751 79.991119 484.285 79.977629 484.28125 79.96875 C 483.97476 79.241979 483.66706 78.530123 483.34375 77.8125 C 483.33988 77.803916 483.34762 77.789833 483.34375 77.78125 C 482.69264 76.337169 481.999 74.905523 481.28125 73.5 C 481.27707 73.491812 481.28544 73.476937 481.28125 73.46875 C 480.92426 72.770169 480.52933 72.094931 480.15625 71.40625 C 480.15193 71.39828 480.16057 71.382969 480.15625 71.375 C 479.78293 70.686336 479.38917 69.991015 479 69.3125 C 478.99548 69.304629 479.00452 69.289119 479 69.28125 C 478.61066 68.602874 478.21745 67.949229 477.8125 67.28125 C 477.80793 67.273709 477.81708 67.25754 477.8125 67.25 C 476.58746 65.230505 475.26941 63.263655 473.90625 61.34375 C 473.90141 61.33693 473.91109 61.319318 473.90625 61.3125 C 473.4549 60.677155 472.96599 60.061438 472.5 59.4375 C 472.49505 59.430879 472.50495 59.41287 472.5 59.40625 C 472.0338 58.78236 471.54309 58.174733 471.0625 57.5625 C 471.05746 57.556083 471.06754 57.537665 471.0625 57.53125 C 470.5817 56.919063 470.0887 56.319029 469.59375 55.71875 C 469.58872 55.712646 469.59878 55.693602 469.59375 55.6875 C 468.59815 54.480631 467.5513 53.313459 466.5 52.15625 C 466.49483 52.150564 466.50517 52.130685 466.5 52.125 C 465.97676 51.549323 465.4429 51.000509 464.90625 50.4375 C 464.90114 50.432136 464.91136 50.411613 464.90625 50.40625 C 464.36928 49.843171 463.80015 49.300154 463.25 48.75 C 462.69449 48.194488 462.13118 47.635835 461.5625 47.09375 C 459.85645 45.467495 458.10129 43.907096 456.28125 42.40625 C 454.46121 40.905404 452.58343 39.462337 450.65625 38.09375 C 445.51709 34.446051 439.99923 31.274457 434.1875 28.65625 C 432.0081 27.673848 429.79266 26.762522 427.53125 25.9375 C 416.97797 22.089744 405.57303 20 393.65625 20 L 388 20 z "
       style="color:#000000;fill:url(#linearGradient3990);fill-opacity:1;fill-rule:nonzero;stroke:none;stroke-width:1.50000000000000000;marker:none;visibility:visible;display:inline;overflow:visible;enable-background:accumulate;opacity:0.5" />
  </g>
  <path
     inkscape:connector-curvature="0"
     style="opacity:0.2;color:#000000;fill:url(#linearGradient3193);fill-opacity:1;fill-rule:nonzero;stroke:none;stroke-width:1.5;marker:none;visibility:visible;display:inline;overflow:visible;enable-background:accumulate"
     d="M 118.3124,492 C 63.8357,492 19.9999,448.16417 19.9999,393.6875 l 0,-275.34375 C 19.9999,63.86708 63.8357,20 118.3124,20 l 2.9375,0 c -53.3225,0 -96.25,42.9275 -96.25,96.25 l 0,269.5 c 0,53.3225 42.9275,96.25 96.25,96.25 L 390.75,482 C 444.0725,482 487,439.0725 487,385.75 l 0,-269.5 C 487,62.9275 444.0725,20 390.75,20 l 2.9062,0 C 448.1329,20 492,63.86708 492,118.34375 l 0,275.34375 C 492,448.16417 448.1329,492 393.6562,492 l -275.3438,0 z"
     id="path3981" />
  <path
     style="fill:url(#linearGradient3105);fill-opacity:1;fill-rule:nonzero;stroke:none"
     id="rect3839"
     inkscape:connector-curvature="0"
     d="m 758.87451,-119.1584 c -18.67772,0 -33.71429,15.03657 -33.71429,33.714288 l 0,134.857141 471.99998,0 0,-134.857141 c 0,-18.677718 -15.0366,-33.714288 -33.7143,-33.714288 l -78.6666,0 0,14.39881 c 6.708,3.88883 11.2381,11.003728 11.2381,19.315478 0,12.41326 -10.063,22.47619 -22.4762,22.47619 -12.4132,0 -22.4762,-10.06293 -22.4762,-22.47619 0,-8.31175 4.5301,-15.426648 11.2381,-19.315478 l 0,-14.39881 -202.28574,0 0,14.39881 c 6.70802,3.88883 11.2381,11.003728 11.2381,19.315478 0,12.41326 -10.06293,22.47619 -22.47619,22.47619 -12.41321,0 -22.47619,-10.06293 -22.47619,-22.47619 0,-8.31175 4.53013,-15.426648 11.23809,-19.315478 l 0,-14.39881 -78.66666,0 z" />
  <text
     sodipodi:linespacing="125%"
     id="text3992"
     y="-95.481476"
     x="131.13036"
     style="font-size:300px;font-style:normal;font-variant:normal;font-weight:normal;font-stretch:normal;line-height:125%;letter-spacing:0px;word-spacing:0px;fill:#000000;fill-opacity:1;stroke:none;font-family:Gentium Book Basic;-inkscape-font-specification:Gentium Book Basic"
     xml:space="preserve"><tspan
       y="-95.481476"
       x="131.13036"
       id="tspan3994"
       sodipodi:role="line" /></text>
  <g
     id="text3996"
     style="font-size:323.79446410999997852px;font-style:normal;font-variant:normal;font-weight:normal;font-stretch:normal;line-height:125%;letter-spacing:0px;word-spacing:0px;fill:#ffff00;fill-opacity:1;stroke:none;font-family:Gentium Book Basic;-inkscape-font-specification:Gentium Book Basic">
    <path
       style="fill:#4b4b4b;fill-opacity:1"
       d="m 225.96048,261.76645 c -5e-5,4.42703 1.05397,8.32689 3.16206,11.69961 2.10798,3.26759 4.95383,6.21884 8.53755,8.85375 3.5836,2.52977 7.69426,4.90131 12.33201,7.11463 4.74301,2.21356 9.64419,4.42699 14.70356,6.64031 6.64022,-5.37537 11.3833,-10.75086 14.22925,-16.12648 2.84574,-5.48076 4.26867,-10.90895 4.26877,-16.28458 -10e-5,-5.48075 -0.79062,-10.17112 -2.37154,-14.07115 -1.58113,-3.8997 -3.79456,-7.11445 -6.64031,-9.64427 -2.74055,-2.52947 -6.0607,-4.374 -9.96048,-5.5336 -3.79455,-1.15924 -7.95792,-1.73895 -12.49012,-1.73913 -4.32154,1.8e-4 -8.11601,0.8434 -11.3834,2.52965 -3.16211,1.6866 -5.84986,3.90004 -8.06324,6.64031 -2.10809,2.74062 -3.68911,5.84997 -4.74308,9.32807 -1.05407,3.47842 -1.58108,7.00937 -1.58103,10.59288 m 63.55731,101.34388 c -1.1e-4,-6.74567 -1.15953,-12.49006 -3.47826,-17.23321 -2.31894,-4.84841 -5.42829,-9.01178 -9.32806,-12.49011 -3.79456,-3.47818 -8.16873,-6.48213 -13.12253,-9.01186 -4.95397,-2.63496 -10.06595,-5.1119 -15.33597,-7.43083 -4.42694,3.47835 -8.27411,6.95661 -11.5415,10.43478 -3.16211,3.37294 -5.79715,6.9039 -7.90514,10.59289 -2.10808,3.58373 -3.68911,7.37819 -4.74308,11.3834 -0.94866,3.89992 -1.42297,8.16869 -1.42293,12.80632 -4e-5,5.48094 0.89587,10.54022 2.68775,15.17787 1.79178,4.5323 4.26872,8.48487 7.43083,11.8577 3.162,3.26748 6.95646,5.84982 11.3834,7.74704 4.42681,1.79184 9.27529,2.68776 14.54545,2.68775 5.37541,10e-6 9.96039,-1.05401 13.75494,-3.16206 3.89977,-2.10802 7.11453,-4.84846 9.64427,-8.22134 2.52954,-3.37284 4.37407,-7.22 5.5336,-11.54151 1.26471,-4.42683 1.89712,-8.95911 1.89723,-13.59683 m 30.35573,-6.79842 c -1.4e-4,8.22139 -1.79197,15.96842 -5.37549,23.2411 -3.5838,7.27276 -8.48498,13.70226 -14.70356,19.28854 -6.11342,5.4809 -13.33344,9.85508 -21.66008,13.12253 -8.22143,3.16205 -17.02248,4.74308 -26.40316,4.74308 -9.59163,0 -18.12917,-1.37022 -25.61265,-4.11067 -7.37817,-2.74044 -13.59687,-6.4295 -18.65612,-11.06719 -5.05931,-4.63767 -8.90648,-9.90775 -11.5415,-15.81028 -2.52966,-6.00787 -3.79448,-12.27927 -3.79447,-18.81423 -1e-5,-5.69165 1.0013,-11.11984 3.00395,-16.28458 2.10802,-5.27003 5.00657,-10.27661 8.69565,-15.01977 3.68904,-4.743 8.11591,-9.16987 13.28064,-13.28063 5.27004,-4.21598 11.06714,-8.06314 17.3913,-11.5415 -4.63773,-2.21333 -9.0119,-4.58487 -13.12253,-7.11462 -4.11071,-2.52954 -7.74707,-5.48079 -10.90909,-8.85376 -3.16208,-3.37274 -5.69173,-7.2726 -7.58893,-11.6996 -1.79186,-4.53215 -2.68777,-9.80224 -2.68775,-15.81028 -2e-5,-7.27258 1.5283,-14.01829 4.58498,-20.23715 3.05662,-6.21854 7.21999,-11.54133 12.49012,-15.96838 5.27005,-4.5321 11.48875,-8.06306 18.65613,-10.59289 7.16726,-2.52945 14.86158,-3.79427 23.083,-3.79446 8.64286,1.9e-4 16.23179,1.05421 22.7668,3.16205 6.6402,2.10823 12.17379,5.00678 16.60079,8.69565 4.53215,3.68925 7.90501,8.11612 10.11858,13.28063 2.3187,5.16486 3.47812,10.80385 3.47826,16.917 -1.4e-4,4.32163 -0.84335,8.43229 -2.52965,12.33202 -1.68656,3.9 -4.0054,7.64176 -6.95652,11.22529 -2.84597,3.47839 -6.27153,6.90395 -10.27668,10.27668 -4.00538,3.37298 -8.37955,6.64043 -13.12253,9.80237 5.26999,2.52976 10.32927,5.3756 15.17787,8.53755 4.95376,3.16216 9.32793,6.90392 13.12253,11.2253 3.79433,4.21616 6.79828,9.11734 9.01185,14.70356 2.3187,5.58636 3.47812,12.06857 3.47826,19.44664"
       id="path10773" />
  </g>
  <path
     id="path14320"
     d="m 713.53757,925.2628 c -1.4e-4,8.22139 -1.79197,15.96842 -5.37549,23.2411 -3.5838,7.27276 -8.48498,13.70226 -14.70356,19.28854 -6.11342,5.4809 -13.33344,9.85508 -21.66008,13.12253 -8.22143,3.16205 -17.02248,4.74308 -26.40316,4.74308 -9.59163,0 -18.12917,-1.37022 -25.61265,-4.11067 -7.37817,-2.74044 -13.59687,-6.4295 -18.65612,-11.06719 -5.05931,-4.63767 -8.90648,-9.90775 -11.5415,-15.81028 -2.52966,-6.00787 -3.79448,-12.27927 -3.79447,-18.81423 -10e-6,-5.69165 1.0013,-11.11984 3.00395,-16.28458 2.10802,-5.27003 5.00657,-10.27661 8.69565,-15.01977 3.68904,-4.743 8.11591,-9.16987 13.28064,-13.28063 5.27004,-4.21598 11.06714,-8.06314 17.3913,-11.5415 -4.63773,-2.21333 -9.0119,-4.58487 -13.12253,-7.11462 -4.11071,-2.52954 -7.74707,-5.48079 -10.90909,-8.85376 -3.16208,-3.37274 -5.69173,-7.2726 -7.58893,-11.6996 -1.79186,-4.53215 -2.68777,-9.80224 -2.68775,-15.81028 -2e-5,-7.27258 1.5283,-14.01829 4.58498,-20.23715 3.05662,-6.21854 7.21999,-11.54133 12.49012,-15.96838 5.27005,-4.5321 11.48875,-8.06306 18.65613,-10.59289 7.16726,-2.52945 14.86158,-3.79427 23.083,-3.79446 8.64286,1.9e-4 16.23179,1.05421 22.7668,3.16205 6.6402,2.10823 12.17379,5.00678 16.60079,8.69565 4.53215,3.68925 7.90501,8.11612 10.11858,13.28063 2.3187,5.16486 3.47812,10.80385 3.47826,16.917 -1.4e-4,4.32163 -0.84335,8.43229 -2.52965,12.33202 -1.68656,3.9 -4.0054,7.64176 -6.95652,11.22529 -2.84597,3.47839 -6.27153,6.90395 -10.27668,10.27668 -4.00538,3.37298 -8.37955,6.64043 -13.12253,9.80237 5.26999,2.52976 10.32927,5.3756 15.17787,8.53755 4.95376,3.16216 9.32793,6.90392 13.12253,11.2253 3.79433,4.21616 6.79828,9.11734 9.01185,14.70356 2.3187,5.58636 3.47812,12.06857 3.47826,19.44664"
     style="font-size:323.79446411px;font-style:normal;font-variant:normal;font-weight:normal;font-stretch:normal;line-height:125%;letter-spacing:0px;word-spacing:0px;fill:#000000;fill-opacity:0.31372549;stroke:none;font-family:Gentium Book Basic;-inkscape-font-specification:Gentium Book Basic"
     inkscape:connector-curvature="0" />
</svg>
