<?xml version="1.0" encoding="UTF-8" standalone="no"?>
<!-- Created with Inkscape (http://www.inkscape.org/) -->

<svg
   xmlns:dc="http://purl.org/dc/elements/1.1/"
   xmlns:cc="http://creativecommons.org/ns#"
   xmlns:rdf="http://www.w3.org/1999/02/22-rdf-syntax-ns#"
   xmlns:svg="http://www.w3.org/2000/svg"
   xmlns="http://www.w3.org/2000/svg"
   xmlns:xlink="http://www.w3.org/1999/xlink"
   xmlns:sodipodi="http://sodipodi.sourceforge.net/DTD/sodipodi-0.dtd"
   xmlns:inkscape="http://www.inkscape.org/namespaces/inkscape"
   width="512"
   height="512"
   id="svg2"
   version="1.1"
   inkscape:version="0.48.3.1 r9886"
   sodipodi:docname="google-hangouts_B.svg"
   inkscape:export-filename="/home/alecive/Scrivania/firefoxTest1.png"
   inkscape:export-xdpi="100"
   inkscape:export-ydpi="100">
  <sodipodi:namedview
     id="base"
     pagecolor="#ffffff"
     bordercolor="#666666"
     borderopacity="1.0"
     inkscape:pageopacity="0.0"
     inkscape:pageshadow="2"
     inkscape:zoom="0.70266339"
     inkscape:cx="256.66809"
     inkscape:cy="143.70462"
     inkscape:document-units="px"
     inkscape:current-layer="svg2"
     showgrid="false"
     inkscape:window-width="1305"
     inkscape:window-height="744"
     inkscape:window-x="61"
     inkscape:window-y="24"
     inkscape:window-maximized="1"
     inkscape:object-paths="true"
     inkscape:snap-intersection-paths="true"
     inkscape:object-nodes="true"
     inkscape:snap-smooth-nodes="true"
     inkscape:snap-nodes="true" />
  <defs
     id="defs4">
    <linearGradient
       y2="48.0854"
       x2="78.466103"
       y1="56.3008"
       x1="64.477501"
       gradientUnits="userSpaceOnUse"
       id="XMLID_74_-8-1">
      <stop
         id="stop155-3-8"
         style="stop-color:#b4b4b4;stop-opacity:1;"
         offset="0" />
      <stop
         id="stop157-94-6"
         style="stop-color:#dcdcdc;stop-opacity:1;"
         offset="1" />
    </linearGradient>
    <radialGradient
       gradientUnits="userSpaceOnUse"
       gradientTransform="matrix(1,0,0,1.0499906,0,-19.270593)"
       r="191.6187"
       fy="385.4841"
       fx="558.35437"
       cy="385.4841"
       cx="558.35437"
       id="radialGradient3867"
       xlink:href="#XMLID_74_-8-1"
       inkscape:collect="always" />
    <linearGradient
       y2="217.4595"
       x2="200.0508"
       y1="185.0742"
       x1="200.0508"
       gradientUnits="userSpaceOnUse"
       id="SVGID_2_">
      <stop
         id="stop13"
         style="stop-color:#61B74A"
         offset="0" />
      <stop
         id="stop15"
         style="stop-color:#449934"
         offset="1" />
    </linearGradient>
    <linearGradient
       inkscape:collect="always"
       xlink:href="#SVGID_2_"
       id="linearGradient3021"
       gradientUnits="userSpaceOnUse"
       gradientTransform="matrix(13.577628,0,0,13.577628,-2026.1619,-2566.7096)"
       x1="200.0508"
       y1="185.0742"
       x2="200.0508"
       y2="217.4595" />
    <linearGradient
       y2="217.4595"
       x2="200.0508"
       y1="185.0742"
       x1="200.0508"
       gradientTransform="matrix(9.2574736,0,0,9.2574736,-1595.9285,-1607.2111)"
       gradientUnits="userSpaceOnUse"
       id="linearGradient3017"
       xlink:href="#SVGID_2_"
       inkscape:collect="always" />
    <radialGradient
       gradientUnits="userSpaceOnUse"
       r="216"
       fy="256"
       fx="255.99385"
       cy="256"
       cx="255.99385"
       id="radialGradient3801"
       xlink:href="#XMLID_74_-8-1"
       inkscape:collect="always" />
    <linearGradient
       inkscape:collect="always"
       xlink:href="#ButtonShadow-0-1-1"
       id="linearGradient4110"
       gradientUnits="userSpaceOnUse"
       gradientTransform="matrix(1.023305,0,0,1.023305,-823.77704,592.83757)"
       x1="1012.5133"
       y1="484.41721"
       x2="1006.8082"
       y2="20.625916" />
    <linearGradient
       x1="45.447727"
       y1="92.539597"
       x2="45.447727"
       y2="7.0165396"
       id="ButtonShadow-0-1-1"
       gradientUnits="userSpaceOnUse"
       gradientTransform="matrix(1.0058652,0,0,0.994169,100,0)">
      <stop
         id="stop3750-8-9-3"
         style="stop-color:#000000;stop-opacity:1"
         offset="0" />
      <stop
         id="stop3752-5-6-4"
         style="stop-color:#000000;stop-opacity:0.58823532"
         offset="1" />
    </linearGradient>
    <linearGradient
       inkscape:collect="always"
       xlink:href="#ButtonShadow-0-1-1"
       id="linearGradient4112"
       gradientUnits="userSpaceOnUse"
       gradientTransform="matrix(1.0402541,0,0,1.0402541,-837.95116,592.51825)"
       x1="1012.5133"
       y1="484.41721"
       x2="1006.8082"
       y2="20.625916" />
    <linearGradient
       x1="45.447727"
       y1="92.539597"
       x2="45.447727"
       y2="7.0165396"
       id="linearGradient3413"
       gradientUnits="userSpaceOnUse"
       gradientTransform="matrix(1.0058652,0,0,0.994169,100,0)">
      <stop
         id="stop3415"
         style="stop-color:#000000;stop-opacity:1"
         offset="0" />
      <stop
         id="stop3417"
         style="stop-color:#000000;stop-opacity:0.58823532"
         offset="1" />
    </linearGradient>
    <linearGradient
       inkscape:collect="always"
       xlink:href="#ButtonShadow-0-1-1"
       id="linearGradient4114"
       gradientUnits="userSpaceOnUse"
       gradientTransform="matrix(1.0317796,0,0,1.0317796,-830.86406,592.67791)"
       x1="1012.5133"
       y1="484.41721"
       x2="1006.8082"
       y2="20.625916" />
    <linearGradient
       x1="45.447727"
       y1="92.539597"
       x2="45.447727"
       y2="7.0165396"
       id="linearGradient3420"
       gradientUnits="userSpaceOnUse"
       gradientTransform="matrix(1.0058652,0,0,0.994169,100,0)">
      <stop
         id="stop3422"
         style="stop-color:#000000;stop-opacity:1"
         offset="0" />
      <stop
         id="stop3424"
         style="stop-color:#000000;stop-opacity:0.58823532"
         offset="1" />
    </linearGradient>
    <linearGradient
       inkscape:collect="always"
       xlink:href="#ButtonShadow-0-1-1"
       id="linearGradient4116"
       gradientUnits="userSpaceOnUse"
       gradientTransform="matrix(1.0148305,0,0,1.0148305,-816.68996,592.99723)"
       x1="1012.5133"
       y1="484.41721"
       x2="1006.8082"
       y2="20.625916" />
    <linearGradient
       x1="45.447727"
       y1="92.539597"
       x2="45.447727"
       y2="7.0165396"
       id="linearGradient3427"
       gradientUnits="userSpaceOnUse"
       gradientTransform="matrix(1.0058652,0,0,0.994169,100,0)">
      <stop
         id="stop3429"
         style="stop-color:#000000;stop-opacity:1"
         offset="0" />
      <stop
         id="stop3431"
         style="stop-color:#000000;stop-opacity:0.58823532"
         offset="1" />
    </linearGradient>
    <linearGradient
       y2="20.625916"
       x2="1006.8082"
       y1="484.41721"
       x1="1012.5133"
       gradientTransform="matrix(1.0074153,0,0,1.0074153,-810.48879,593.1369)"
       gradientUnits="userSpaceOnUse"
       id="linearGradient3475"
       xlink:href="#ButtonShadow-0-1-1"
       inkscape:collect="always" />
    <linearGradient
       x1="45.447727"
       y1="92.539597"
       x2="45.447727"
       y2="7.0165396"
       id="linearGradient3434"
       gradientUnits="userSpaceOnUse"
       gradientTransform="matrix(1.0058652,0,0,0.994169,100,0)">
      <stop
         id="stop3436"
         style="stop-color:#000000;stop-opacity:1"
         offset="0" />
      <stop
         id="stop3438"
         style="stop-color:#000000;stop-opacity:0.58823532"
         offset="1" />
    </linearGradient>
    <linearGradient
       inkscape:collect="always"
       xlink:href="#linearGradient4487"
       id="linearGradient4082"
       gradientUnits="userSpaceOnUse"
       gradientTransform="translate(-146.22032,369.08845)"
       x1="1016.1035"
       y1="476.25983"
       x2="1011.9534"
       y2="251.66064" />
    <linearGradient
       id="linearGradient4487">
      <stop
         id="stop4489"
         style="stop-color:#000000;stop-opacity:1"
         offset="0" />
      <stop
         id="stop4491"
         style="stop-color:#000000;stop-opacity:0"
         offset="1" />
    </linearGradient>
    <linearGradient
       inkscape:collect="always"
       xlink:href="#linearGradient3737"
       id="linearGradient4084"
       gradientUnits="userSpaceOnUse"
       gradientTransform="translate(778.59979,-360.55963)"
       x1="993.43896"
       y1="51.511765"
       x2="988.78552"
       y2="363.73825" />
    <linearGradient
       id="linearGradient3737">
      <stop
         id="stop3739"
         style="stop-color:#ffffff;stop-opacity:1"
         offset="0" />
      <stop
         id="stop3741"
         style="stop-color:#ffffff;stop-opacity:0"
         offset="1" />
    </linearGradient>
    <linearGradient
       inkscape:collect="always"
       xlink:href="#linearGradient4046"
       id="linearGradient4086"
       gradientUnits="userSpaceOnUse"
       x1="1764.6487"
       y1="155.59685"
       x2="1763.6903"
       y2="-55.941216" />
    <linearGradient
       id="linearGradient4046">
      <stop
         id="stop4048"
         style="stop-color:#000000;stop-opacity:1;"
         offset="0" />
      <stop
         id="stop4050"
         style="stop-color:#ffffff;stop-opacity:0.2"
         offset="1" />
    </linearGradient>
    <linearGradient
       y2="20.625916"
       x2="1006.8082"
       y1="484.41721"
       x1="1012.5133"
       gradientTransform="matrix(1.0074153,0,0,1.0074153,-810.48879,593.1369)"
       gradientUnits="userSpaceOnUse"
       id="linearGradient3463"
       xlink:href="#ButtonShadow-0-1-1"
       inkscape:collect="always" />
    <linearGradient
       inkscape:collect="always"
       xlink:href="#SVGID_2_"
       id="linearGradient3172"
       gradientUnits="userSpaceOnUse"
       gradientTransform="matrix(9.2574736,0,0,9.2574736,-1595.9285,-1607.2111)"
       x1="200.0508"
       y1="185.0742"
       x2="200.0508"
       y2="217.4595" />
    <linearGradient
       inkscape:collect="always"
       xlink:href="#linearGradient2460"
       id="linearGradient3185"
       gradientUnits="userSpaceOnUse"
       gradientTransform="matrix(12.102564,0,0,12.102564,-34.468255,-46.187105)"
       x1="18.930269"
       y1="6.2951212"
       x2="19.360001"
       y2="36.643665" />
    <linearGradient
       x1="19.244999"
       y1="21.030804"
       x2="19.360001"
       gradientUnits="userSpaceOnUse"
       y2="44.984001"
       id="linearGradient2460">
      <stop
         offset="0"
         style="stop-color:#fafafa;stop-opacity:1;"
         id="stop3602" />
      <stop
         offset="1"
         style="stop-color:#f0f0f0;stop-opacity:1;"
         id="stop3604" />
    </linearGradient>
    <linearGradient
       y2="36.643665"
       x2="19.360001"
       y1="6.2951212"
       x1="18.930269"
       gradientTransform="matrix(12.102564,0,0,12.102564,-34.47161,-46.1871)"
       gradientUnits="userSpaceOnUse"
       id="linearGradient5210"
       xlink:href="#linearGradient2460"
       inkscape:collect="always" />
    <linearGradient
       inkscape:collect="always"
       xlink:href="#SVGID_2_"
       id="linearGradient5739"
       gradientUnits="userSpaceOnUse"
       gradientTransform="matrix(10.114503,0,0,10.114647,-1767.3711,-1779.7307)"
       x1="200.0508"
       y1="185.0742"
       x2="200.0508"
       y2="217.4595" />
  </defs>
  <metadata
     id="metadata7">
    <rdf:RDF>
      <cc:Work
         rdf:about="">
        <dc:format>image/svg+xml</dc:format>
        <dc:type
           rdf:resource="http://purl.org/dc/dcmitype/StillImage" />
        <dc:title />
      </cc:Work>
    </rdf:RDF>
  </metadata>
  <g
     id="layer1"
     inkscape:groupmode="layer"
     inkscape:label="Livello 1"
     transform="translate(0,-540.36218)" />
  <g
     id="g4103"
     transform="translate(-11.985063,-592.11719)">
    <rect
       ry="101.45834"
       y="612.11719"
       x="31.985071"
       height="487"
       width="487"
       id="rect6187"
       style="opacity:0.1;color:#000000;fill:url(#linearGradient4114);fill-opacity:1;fill-rule:nonzero;stroke:none;stroke-width:1.5;marker:none;visibility:visible;display:inline;overflow:visible;enable-background:accumulate" />
    <rect
       style="opacity:0.07999998;color:#000000;fill:url(#linearGradient4112);fill-opacity:1;fill-rule:nonzero;stroke:none;stroke-width:1.5;marker:none;visibility:visible;display:inline;overflow:visible;enable-background:accumulate"
       id="rect6191"
       width="491"
       height="491"
       x="31.985071"
       y="612.11719"
       ry="102.29167" />
    <rect
       style="opacity:0.2;color:#000000;fill:url(#linearGradient4110);fill-opacity:1;fill-rule:nonzero;stroke:none;stroke-width:1.5;marker:none;visibility:visible;display:inline;overflow:visible;enable-background:accumulate"
       id="rect6183"
       width="483"
       height="483"
       x="31.985071"
       y="612.11719"
       ry="100.62501" />
    <rect
       ry="99.791664"
       y="612.11719"
       x="31.985071"
       height="479"
       width="479"
       id="rect6179"
       style="opacity:0.25;color:#000000;fill:url(#linearGradient4116);fill-opacity:1;fill-rule:nonzero;stroke:none;stroke-width:1.50000000000000000;marker:none;visibility:visible;display:inline;overflow:visible;enable-background:accumulate" />
    <rect
       style="opacity:0.25;color:#000000;fill:url(#linearGradient3463);fill-opacity:1;fill-rule:nonzero;stroke:none;stroke-width:1.50000000000000000;marker:none;visibility:visible;display:inline;overflow:visible;enable-background:accumulate"
       id="rect5574"
       width="475.5"
       height="475.5"
       x="31.985071"
       y="612.11719"
       ry="99.0625" />
  </g>
  <path
     style="fill:url(#linearGradient5210);stroke:none"
     d="M 118.34039,20 C 63.86373,20 19.99664,63.86709 19.99664,118.34375 l 0,23.0625 0,252.25 C 19.99664,448.13291 63.86373,492 118.34039,492 l 275.3125,0 c 54.47667,0 98.34375,-43.86709 98.34375,-98.34375 l 0,-252.25 0,-23.0625 C 491.99664,63.86709 448.12956,20 393.65289,20 l -275.3125,0 z"
     id="rect5505"
     inkscape:connector-curvature="0" />
  <path
     inkscape:connector-curvature="0"
     style="opacity:0.85;fill:#000000;fill-opacity:0.15686275"
     d="m 256.17407,92.111106 c -78.35705,0 -141.93258,63.576434 -141.93258,141.934604 0,37.95964 14.91252,72.4205 39.1962,97.88947 0.11058,0.11677 0.23046,0.22504 0.34143,0.34144 0.21032,0.21911 0.43701,0.43096 0.64872,0.64872 0.0225,0.0233 0.0458,0.045 0.0683,0.0683 0.017,0.0178 0.017,0.0505 0.0341,0.0683 1.29162,1.27868 2.51787,2.54345 3.61916,3.65335 L 313.53437,492 l 80.13369,0 c 54.47589,0 98.33193,-43.85667 98.33193,-98.33334 l 0,-124.31655 -135.54783,-135.54977 c -0.39914,-0.40334 -0.85747,-0.83895 -1.22915,-1.19502 -0.33274,-0.32653 -0.65422,-0.66691 -0.99015,-0.99016 -0.10598,-0.10129 -0.20105,-0.20631 -0.30729,-0.30729 -25.3935,-24.28605 -59.7924,-39.201659 -97.7515,-39.196764 z"
     id="path3828" />
  <path
     inkscape:connector-curvature="0"
     id="path17"
     d="m 256.16139,92.111106 c -78.35706,0 -141.91911,63.562974 -141.91911,141.921144 0,78.36828 63.56207,141.92114 141.91911,141.92114 l 0,43.9355 C 359.64288,368.90095 397.76443,307.8894 397.76443,234.03225 c 0,-78.35817 -63.23587,-141.931251 -141.60304,-141.921144 z m -71.11759,97.037414 50.25644,0 c 3.975,0 7.2698,3.30495 7.2698,7.26989 l 0,50.25715 c 0,3.98518 -0.15173,48.99282 -44.25094,48.99282 l 0,-21.17754 c 20.69427,0 23.0737,-20.54539 23.0737,-20.54539 l -36.349,0 c -3.975,0 -7.26981,-3.28471 -7.26981,-7.26989 l 0,-50.25715 c 0,-3.96494 3.29481,-7.26989 7.26981,-7.26989 z m 88.50189,0 50.57252,0 c 3.97501,0 6.95372,3.30495 6.95372,7.26989 l 0,50.25715 c 0,3.98518 0.14464,48.99282 -43.93486,48.99282 l 0,-21.17754 c 20.69427,0 22.75762,-20.54539 22.75762,-20.54539 l -36.349,0 c -3.97499,0 -7.26979,-3.28471 -7.26979,-7.26989 l 0,-50.25715 c 0,-3.96494 3.2948,-7.26989 7.26979,-7.26989 z"
     style="fill:url(#linearGradient5739)" />
  <path
     inkscape:connector-curvature="0"
     style="fill:#ffffff;fill-opacity:1"
     d="m 185.05414,189.14699 c -3.975,0 -7.27247,3.30762 -7.27247,7.27257 l 0,50.25925 c 0,3.98518 3.29747,7.27257 7.27247,7.27257 l 36.32819,0 c 0,0 -2.35228,20.5544 -23.04655,20.5544 l 0,21.16898 c 44.09921,0 44.24937,-45.01077 44.24937,-48.99595 l 0,-50.25925 c 0,-3.96495 -3.29747,-7.27257 -7.27247,-7.27257 l -50.25854,0 z m 88.49874,0 c -3.97499,0 -7.27247,3.30762 -7.27247,7.27257 l 0,50.25925 c 0,3.98518 3.29748,7.27257 7.27247,7.27257 l 36.32818,0 c 0,0 -2.04498,20.5544 -22.73926,20.5544 l 0,21.16898 c 44.0795,0 43.94208,-45.01077 43.94208,-48.99595 l 0,-50.25925 c 0,-3.96495 -2.99017,-7.27257 -6.96517,-7.27257 l -50.56583,0 z"
     id="path11853" />
  <path
     sodipodi:nodetypes="csccccccccscccsccccccccc"
     inkscape:connector-curvature="0"
     id="path2996"
     d="M 256.15625,106 C 184.4386,106 126.25,164.1886 126.25,235.90625 c 0,34.74272 13.64894,66.28317 35.875,89.59375 0.10121,0.10687 0.21093,0.20597 0.3125,0.3125 0.1925,0.20054 0.39998,0.39444 0.59375,0.59375 0.0206,0.0213 0.0419,0.0412 0.0625,0.0625 0.0156,0.0163 0.0156,0.0462 0.0312,0.0625 1.18218,1.17032 2.30393,2.32721 3.3119,3.34305 L 468.5241,631.7426 c 0.76135,0.69621 1.53468,1.38435 2.3125,2.0625 0.10549,0.092 0.20671,0.18961 0.3125,0.28125 10.26231,8.8895 21.92902,16.2143 34.625,21.5625 0.10325,0.0435 0.20912,0.0818 0.3125,0.125 l 50.0625,50.21875 C 650.86963,659.333 685.75,603.50443 685.75,535.90625 c 0,-31.52818 -11.21339,-60.43435 -29.84375,-82.9375 -1.27701,-1.55267 -2.59104,-3.07159 -3.9375,-4.5625 -0.045,-0.0495 -0.0799,-0.10682 -0.125,-0.15625 -0.8844,-0.97627 -1.80539,-1.9262 -2.71875,-2.875 L 347.93865,144.15695 c -0.36532,-0.36916 -0.78471,-0.76775 -1.1249,-1.09365 -0.30454,-0.29886 -0.59878,-0.61039 -0.90625,-0.90625 -0.097,-0.0927 -0.18401,-0.18882 -0.28125,-0.28125 -23.24184,-22.22791 -54.72728,-35.88028 -89.47,-35.8758 z"
     style="fill:#000000;fill-opacity:0.39215686;display:none" />
  <g
     id="g4076"
     transform="translate(-605.51931,-353.96832)">
    <g
       transform="translate(-926.66758,684.38448)"
       id="g4038">
      <path
         inkscape:connector-curvature="0"
         style="opacity:0.5;color:#000000;fill:url(#linearGradient4084);fill-opacity:1;fill-rule:nonzero;stroke:none;stroke-width:1.5;marker:none;visibility:visible;display:inline;overflow:visible;enable-background:accumulate"
         d="m 1650.4994,-310.41615 c -54.4767,0 -98.3125,43.83583 -98.3125,98.3125 l 0,275.343747 c 0,54.476673 43.8358,98.343753 98.3125,98.343753 l 2.9375,0 c -53.3225,0 -96.25,-42.9275 -96.25,-96.250003 l 0,-269.499997 c 0,-53.3225 42.9275,-96.25 96.25,-96.25 l 269.5001,0 c 53.3225,0 96.25,42.9275 96.25,96.25 l 0,269.499997 c 0,53.322503 -42.9275,96.250003 -96.25,96.250003 l 2.9062,0 c 54.4767,0 98.3438,-43.86708 98.3438,-98.343753 l 0,-275.343747 c 0,-54.47667 -43.8671,-98.3125 -98.3438,-98.3125 l -275.3438,0 z"
         id="rect6809-2" />
      <path
         id="path3981"
         d="m 1650.4994,161.58385 c -54.4767,0 -98.3125,-43.83583 -98.3125,-98.312503 l 0,-275.343747 c 0,-54.47667 43.8358,-98.34375 98.3125,-98.34375 l 2.9375,0 c -53.3225,0 -96.25,42.9275 -96.25,96.25 l 0,269.499997 c 0,53.322503 42.9275,96.250003 96.25,96.250003 l 269.5001,0 c 53.3225,0 96.25,-42.9275 96.25,-96.250003 l 0,-269.499997 c 0,-53.3225 -42.9275,-96.25 -96.25,-96.25 l 2.9062,0 c 54.4767,0 98.3438,43.86708 98.3438,98.34375 l 0,275.343747 c 0,54.476673 -43.8671,98.312503 -98.3438,98.312503 l -275.3438,0 z"
         style="opacity:0.2;color:#000000;fill:url(#linearGradient4086);fill-opacity:1;fill-rule:nonzero;stroke:none;stroke-width:1.5;marker:none;visibility:visible;display:inline;overflow:visible;enable-background:accumulate"
         inkscape:connector-curvature="0" />
    </g>
  </g>
</svg>
