<?xml version="1.0" encoding="UTF-8" standalone="no"?>
<!-- Created with Inkscape (http://www.inkscape.org/) -->

<svg
   xmlns:dc="http://purl.org/dc/elements/1.1/"
   xmlns:cc="http://creativecommons.org/ns#"
   xmlns:rdf="http://www.w3.org/1999/02/22-rdf-syntax-ns#"
   xmlns:svg="http://www.w3.org/2000/svg"
   xmlns="http://www.w3.org/2000/svg"
   xmlns:xlink="http://www.w3.org/1999/xlink"
   xmlns:sodipodi="http://sodipodi.sourceforge.net/DTD/sodipodi-0.dtd"
   xmlns:inkscape="http://www.inkscape.org/namespaces/inkscape"
   width="512"
   height="512"
   id="svg2"
   version="1.1"
   inkscape:version="0.48.3.1 r9886"
   sodipodi:docname="google-music.svg"
   inkscape:export-filename="/home/alecive/Scrivania/firefoxTest1.png"
   inkscape:export-xdpi="100"
   inkscape:export-ydpi="100">
  <sodipodi:namedview
     id="base"
     pagecolor="#ffffff"
     bordercolor="#666666"
     borderopacity="1.0"
     inkscape:pageopacity="0.0"
     inkscape:pageshadow="2"
     inkscape:zoom="0.5"
     inkscape:cx="-558.91332"
     inkscape:cy="168.18849"
     inkscape:document-units="px"
     inkscape:current-layer="svg2"
     showgrid="false"
     inkscape:window-width="1305"
     inkscape:window-height="744"
     inkscape:window-x="61"
     inkscape:window-y="24"
     inkscape:window-maximized="1"
     inkscape:object-paths="true"
     inkscape:snap-intersection-paths="true"
     inkscape:object-nodes="true"
     inkscape:snap-smooth-nodes="true"
     inkscape:snap-nodes="false" />
  <defs
     id="defs4">
    <linearGradient
       y2="48.0854"
       x2="78.466103"
       y1="56.3008"
       x1="64.477501"
       gradientUnits="userSpaceOnUse"
       id="linearGradient3853">
      <stop
         id="stop3857"
         style="stop-color:#b4b4b4;stop-opacity:1;"
         offset="0" />
      <stop
         id="stop3859"
         style="stop-color:#dcdcdc;stop-opacity:1;"
         offset="1" />
    </linearGradient>
    <linearGradient
       id="XMLID_74_-8-1"
       gradientUnits="userSpaceOnUse"
       x1="64.477501"
       y1="56.3008"
       x2="78.466103"
       y2="48.0854">
      <stop
         offset="0"
         style="stop-color:#fd8700;stop-opacity:1;"
         id="stop153-2-2" />
      <stop
         offset="0.85930002"
         style="stop-color:#ff9500;stop-opacity:1;"
         id="stop155-3-8" />
      <stop
         offset="1"
         style="stop-color:#ff9a01;stop-opacity:1;"
         id="stop157-94-6" />
    </linearGradient>
    <radialGradient
       gradientUnits="userSpaceOnUse"
       r="216"
       fy="256"
       fx="255.99385"
       cy="256"
       cx="255.99385"
       id="radialGradient21898"
       xlink:href="#linearGradient3853"
       inkscape:collect="always" />
    <radialGradient
       inkscape:collect="always"
       xlink:href="#XMLID_74_-8-1"
       id="radialGradient3867"
       cx="558.35437"
       cy="385.4841"
       fx="558.35437"
       fy="385.4841"
       r="191.6187"
       gradientTransform="matrix(1,0,0,1.0499906,0,-19.270593)"
       gradientUnits="userSpaceOnUse" />
    <linearGradient
       inkscape:collect="always"
       xlink:href="#ButtonShadow-0-1-1"
       id="linearGradient4110"
       gradientUnits="userSpaceOnUse"
       gradientTransform="matrix(1.023305,0,0,1.023305,-823.77704,592.83757)"
       x1="1012.5133"
       y1="484.41721"
       x2="1006.8082"
       y2="20.625916" />
    <linearGradient
       x1="45.447727"
       y1="92.539597"
       x2="45.447727"
       y2="7.0165396"
       id="ButtonShadow-0-1-1"
       gradientUnits="userSpaceOnUse"
       gradientTransform="matrix(1.0058652,0,0,0.994169,100,0)">
      <stop
         id="stop3750-8-9-3"
         style="stop-color:#000000;stop-opacity:1"
         offset="0" />
      <stop
         id="stop3752-5-6-4"
         style="stop-color:#000000;stop-opacity:0.58823532"
         offset="1" />
    </linearGradient>
    <linearGradient
       inkscape:collect="always"
       xlink:href="#ButtonShadow-0-1-1"
       id="linearGradient4112"
       gradientUnits="userSpaceOnUse"
       gradientTransform="matrix(1.0402541,0,0,1.0402541,-837.95116,592.51825)"
       x1="1012.5133"
       y1="484.41721"
       x2="1006.8082"
       y2="20.625916" />
    <linearGradient
       x1="45.447727"
       y1="92.539597"
       x2="45.447727"
       y2="7.0165396"
       id="linearGradient3145"
       gradientUnits="userSpaceOnUse"
       gradientTransform="matrix(1.0058652,0,0,0.994169,100,0)">
      <stop
         id="stop3147"
         style="stop-color:#000000;stop-opacity:1"
         offset="0" />
      <stop
         id="stop3149"
         style="stop-color:#000000;stop-opacity:0.58823532"
         offset="1" />
    </linearGradient>
    <linearGradient
       inkscape:collect="always"
       xlink:href="#ButtonShadow-0-1-1"
       id="linearGradient4114"
       gradientUnits="userSpaceOnUse"
       gradientTransform="matrix(1.0317796,0,0,1.0317796,-830.86406,592.67791)"
       x1="1012.5133"
       y1="484.41721"
       x2="1006.8082"
       y2="20.625916" />
    <linearGradient
       x1="45.447727"
       y1="92.539597"
       x2="45.447727"
       y2="7.0165396"
       id="linearGradient3152"
       gradientUnits="userSpaceOnUse"
       gradientTransform="matrix(1.0058652,0,0,0.994169,100,0)">
      <stop
         id="stop3154"
         style="stop-color:#000000;stop-opacity:1"
         offset="0" />
      <stop
         id="stop3156"
         style="stop-color:#000000;stop-opacity:0.58823532"
         offset="1" />
    </linearGradient>
    <linearGradient
       inkscape:collect="always"
       xlink:href="#ButtonShadow-0-1-1"
       id="linearGradient4116"
       gradientUnits="userSpaceOnUse"
       gradientTransform="matrix(1.0148305,0,0,1.0148305,-816.68996,592.99723)"
       x1="1012.5133"
       y1="484.41721"
       x2="1006.8082"
       y2="20.625916" />
    <linearGradient
       x1="45.447727"
       y1="92.539597"
       x2="45.447727"
       y2="7.0165396"
       id="linearGradient3159"
       gradientUnits="userSpaceOnUse"
       gradientTransform="matrix(1.0058652,0,0,0.994169,100,0)">
      <stop
         id="stop3161"
         style="stop-color:#000000;stop-opacity:1"
         offset="0" />
      <stop
         id="stop3163"
         style="stop-color:#000000;stop-opacity:0.58823532"
         offset="1" />
    </linearGradient>
    <linearGradient
       y2="20.625916"
       x2="1006.8082"
       y1="484.41721"
       x1="1012.5133"
       gradientTransform="matrix(1.0074153,0,0,1.0074153,-810.48879,593.1369)"
       gradientUnits="userSpaceOnUse"
       id="linearGradient3475"
       xlink:href="#ButtonShadow-0-1-1"
       inkscape:collect="always" />
    <linearGradient
       x1="45.447727"
       y1="92.539597"
       x2="45.447727"
       y2="7.0165396"
       id="linearGradient3166"
       gradientUnits="userSpaceOnUse"
       gradientTransform="matrix(1.0058652,0,0,0.994169,100,0)">
      <stop
         id="stop3168"
         style="stop-color:#000000;stop-opacity:1"
         offset="0" />
      <stop
         id="stop3170"
         style="stop-color:#000000;stop-opacity:0.58823532"
         offset="1" />
    </linearGradient>
    <linearGradient
       inkscape:collect="always"
       xlink:href="#linearGradient4487"
       id="linearGradient4082"
       gradientUnits="userSpaceOnUse"
       gradientTransform="translate(-146.22032,369.08845)"
       x1="1016.1035"
       y1="476.25983"
       x2="1011.9534"
       y2="251.66064" />
    <linearGradient
       id="linearGradient4487">
      <stop
         id="stop4489"
         style="stop-color:#000000;stop-opacity:1"
         offset="0" />
      <stop
         id="stop4491"
         style="stop-color:#000000;stop-opacity:0"
         offset="1" />
    </linearGradient>
    <linearGradient
       inkscape:collect="always"
       xlink:href="#linearGradient3737"
       id="linearGradient4084"
       gradientUnits="userSpaceOnUse"
       gradientTransform="translate(778.59979,-360.55963)"
       x1="993.43896"
       y1="51.511765"
       x2="988.78552"
       y2="363.73825" />
    <linearGradient
       id="linearGradient3737">
      <stop
         id="stop3739"
         style="stop-color:#ffffff;stop-opacity:1"
         offset="0" />
      <stop
         id="stop3741"
         style="stop-color:#ffffff;stop-opacity:0"
         offset="1" />
    </linearGradient>
    <linearGradient
       inkscape:collect="always"
       xlink:href="#linearGradient4046"
       id="linearGradient4086"
       gradientUnits="userSpaceOnUse"
       x1="1764.6487"
       y1="155.59685"
       x2="1763.6903"
       y2="-55.941216" />
    <linearGradient
       id="linearGradient4046">
      <stop
         id="stop4048"
         style="stop-color:#000000;stop-opacity:1;"
         offset="0" />
      <stop
         id="stop4050"
         style="stop-color:#ffffff;stop-opacity:0.2"
         offset="1" />
    </linearGradient>
    <linearGradient
       y2="20.625916"
       x2="1006.8082"
       y1="484.41721"
       x1="1012.5133"
       gradientTransform="matrix(1.0074153,0,0,1.0074153,-810.48879,593.1369)"
       gradientUnits="userSpaceOnUse"
       id="linearGradient3195"
       xlink:href="#ButtonShadow-0-1-1"
       inkscape:collect="always" />
    <radialGradient
       inkscape:collect="always"
       xlink:href="#XMLID_74_-8-1"
       id="radialGradient3105"
       gradientUnits="userSpaceOnUse"
       gradientTransform="matrix(1,0,0,1.0499906,0,-19.270593)"
       cx="558.35437"
       cy="385.4841"
       fx="558.35437"
       fy="385.4841"
       r="191.6187" />
    <linearGradient
       inkscape:collect="always"
       xlink:href="#ButtonShadow-0-1-1-5"
       id="linearGradient4114-2"
       gradientUnits="userSpaceOnUse"
       gradientTransform="matrix(1.0317796,0,0,1.0317796,-830.86406,592.67791)"
       x1="1012.5133"
       y1="484.41721"
       x2="1006.8082"
       y2="20.625916" />
    <linearGradient
       x1="45.447727"
       y1="92.539597"
       x2="45.447727"
       y2="7.0165396"
       id="ButtonShadow-0-1-1-5"
       gradientUnits="userSpaceOnUse"
       gradientTransform="matrix(1.0058652,0,0,0.994169,100,0)">
      <stop
         id="stop3750-8-9-3-6"
         style="stop-color:#000000;stop-opacity:1"
         offset="0" />
      <stop
         id="stop3752-5-6-4-2"
         style="stop-color:#000000;stop-opacity:0.58823532"
         offset="1" />
    </linearGradient>
    <linearGradient
       inkscape:collect="always"
       xlink:href="#ButtonShadow-0-1-1-5"
       id="linearGradient4112-2"
       gradientUnits="userSpaceOnUse"
       gradientTransform="matrix(1.0402541,0,0,1.0402541,-837.95116,592.51825)"
       x1="1012.5133"
       y1="484.41721"
       x2="1006.8082"
       y2="20.625916" />
    <linearGradient
       x1="45.447727"
       y1="92.539597"
       x2="45.447727"
       y2="7.0165396"
       id="linearGradient5292"
       gradientUnits="userSpaceOnUse"
       gradientTransform="matrix(1.0058652,0,0,0.994169,100,0)">
      <stop
         id="stop5294"
         style="stop-color:#000000;stop-opacity:1"
         offset="0" />
      <stop
         id="stop5296"
         style="stop-color:#000000;stop-opacity:0.58823532"
         offset="1" />
    </linearGradient>
    <linearGradient
       inkscape:collect="always"
       xlink:href="#ButtonShadow-0-1-1-5"
       id="linearGradient4110-6"
       gradientUnits="userSpaceOnUse"
       gradientTransform="matrix(1.023305,0,0,1.023305,-823.77704,592.83757)"
       x1="1012.5133"
       y1="484.41721"
       x2="1006.8082"
       y2="20.625916" />
    <linearGradient
       x1="45.447727"
       y1="92.539597"
       x2="45.447727"
       y2="7.0165396"
       id="linearGradient5299"
       gradientUnits="userSpaceOnUse"
       gradientTransform="matrix(1.0058652,0,0,0.994169,100,0)">
      <stop
         id="stop5301"
         style="stop-color:#000000;stop-opacity:1"
         offset="0" />
      <stop
         id="stop5303"
         style="stop-color:#000000;stop-opacity:0.58823532"
         offset="1" />
    </linearGradient>
    <linearGradient
       inkscape:collect="always"
       xlink:href="#ButtonShadow-0-1-1-5"
       id="linearGradient4116-6"
       gradientUnits="userSpaceOnUse"
       gradientTransform="matrix(1.0148305,0,0,1.0148305,-816.68996,592.99723)"
       x1="1012.5133"
       y1="484.41721"
       x2="1006.8082"
       y2="20.625916" />
    <linearGradient
       x1="45.447727"
       y1="92.539597"
       x2="45.447727"
       y2="7.0165396"
       id="linearGradient5306"
       gradientUnits="userSpaceOnUse"
       gradientTransform="matrix(1.0058652,0,0,0.994169,100,0)">
      <stop
         id="stop5308"
         style="stop-color:#000000;stop-opacity:1"
         offset="0" />
      <stop
         id="stop5310"
         style="stop-color:#000000;stop-opacity:0.58823532"
         offset="1" />
    </linearGradient>
    <linearGradient
       y2="20.625916"
       x2="1006.8082"
       y1="484.41721"
       x1="1012.5133"
       gradientTransform="matrix(1.0074153,0,0,1.0074153,-810.48879,593.1369)"
       gradientUnits="userSpaceOnUse"
       id="linearGradient3372"
       xlink:href="#ButtonShadow-0-1-1-5"
       inkscape:collect="always" />
    <linearGradient
       x1="45.447727"
       y1="92.539597"
       x2="45.447727"
       y2="7.0165396"
       id="linearGradient5313"
       gradientUnits="userSpaceOnUse"
       gradientTransform="matrix(1.0058652,0,0,0.994169,100,0)">
      <stop
         id="stop5315"
         style="stop-color:#000000;stop-opacity:1"
         offset="0" />
      <stop
         id="stop5317"
         style="stop-color:#000000;stop-opacity:0.58823532"
         offset="1" />
    </linearGradient>
    <linearGradient
       inkscape:collect="always"
       xlink:href="#linearGradient4487-7"
       id="linearGradient4082-0"
       gradientUnits="userSpaceOnUse"
       gradientTransform="translate(-146.22032,369.08845)"
       x1="1016.1035"
       y1="476.25983"
       x2="1011.9534"
       y2="251.66064" />
    <linearGradient
       id="linearGradient4487-7">
      <stop
         id="stop4489-9"
         style="stop-color:#000000;stop-opacity:1"
         offset="0" />
      <stop
         id="stop4491-6"
         style="stop-color:#000000;stop-opacity:0"
         offset="1" />
    </linearGradient>
    <linearGradient
       inkscape:collect="always"
       xlink:href="#linearGradient3737-6"
       id="linearGradient4084-0"
       gradientUnits="userSpaceOnUse"
       gradientTransform="translate(778.59979,-360.55963)"
       x1="993.43896"
       y1="51.511765"
       x2="988.78552"
       y2="363.73825" />
    <linearGradient
       id="linearGradient3737-6">
      <stop
         id="stop3739-5"
         style="stop-color:#ffffff;stop-opacity:1"
         offset="0" />
      <stop
         id="stop3741-3"
         style="stop-color:#ffffff;stop-opacity:0"
         offset="1" />
    </linearGradient>
    <linearGradient
       inkscape:collect="always"
       xlink:href="#linearGradient4046-3"
       id="linearGradient4086-2"
       gradientUnits="userSpaceOnUse"
       x1="1764.6487"
       y1="155.59685"
       x2="1763.6903"
       y2="-55.941216" />
    <linearGradient
       id="linearGradient4046-3">
      <stop
         id="stop4048-8"
         style="stop-color:#000000;stop-opacity:1;"
         offset="0" />
      <stop
         id="stop4050-6"
         style="stop-color:#ffffff;stop-opacity:0.2"
         offset="1" />
    </linearGradient>
    <linearGradient
       y2="20.625916"
       x2="1006.8082"
       y1="484.41721"
       x1="1012.5133"
       gradientTransform="matrix(1.0074153,0,0,1.0074153,-810.48879,593.1369)"
       gradientUnits="userSpaceOnUse"
       id="linearGradient5342"
       xlink:href="#ButtonShadow-0-1-1-5"
       inkscape:collect="always" />
    <linearGradient
       y2="36.643665"
       x2="19.360001"
       y1="6.2951212"
       x1="18.930269"
       gradientTransform="matrix(12.102564,0,0,12.102564,-34.468255,-46.187105)"
       gradientUnits="userSpaceOnUse"
       id="linearGradient3157"
       xlink:href="#linearGradient2460"
       inkscape:collect="always" />
    <linearGradient
       x1="19.244999"
       y1="21.030804"
       x2="19.360001"
       gradientUnits="userSpaceOnUse"
       y2="44.984001"
       id="linearGradient2460">
      <stop
         offset="0"
         style="stop-color:#fafafa;stop-opacity:1;"
         id="stop3602" />
      <stop
         offset="1"
         style="stop-color:#f0f0f0;stop-opacity:1;"
         id="stop3604" />
    </linearGradient>
    <linearGradient
       y2="36.643665"
       x2="19.360001"
       y1="6.2951212"
       x1="18.930269"
       gradientTransform="matrix(12.102564,0,0,12.102564,-34.47161,-46.187105)"
       gradientUnits="userSpaceOnUse"
       id="linearGradient3327"
       xlink:href="#linearGradient2460"
       inkscape:collect="always" />
    <radialGradient
       inkscape:collect="always"
       xlink:href="#XMLID_74_-8-1"
       id="radialGradient3396"
       gradientUnits="userSpaceOnUse"
       gradientTransform="matrix(1,0,0,1.0499906,0,-19.270593)"
       cx="558.35437"
       cy="385.4841"
       fx="558.35437"
       fy="385.4841"
       r="191.6187" />
  </defs>
  <metadata
     id="metadata7">
    <rdf:RDF>
      <cc:Work
         rdf:about="">
        <dc:format>image/svg+xml</dc:format>
        <dc:type
           rdf:resource="http://purl.org/dc/dcmitype/StillImage" />
        <dc:title />
      </cc:Work>
    </rdf:RDF>
  </metadata>
  <g
     transform="translate(0,-540.36218)"
     inkscape:label="Livello 1"
     inkscape:groupmode="layer"
     id="layer1" />
  <g
     id="g4103"
     transform="translate(-11.985061,-592.11718)">
    <rect
       ry="101.45834"
       y="612.11719"
       x="31.985071"
       height="487"
       width="487"
       id="rect6187"
       style="opacity:0.1;color:#000000;fill:url(#linearGradient4114-2);fill-opacity:1;fill-rule:nonzero;stroke:none;stroke-width:1.5;marker:none;visibility:visible;display:inline;overflow:visible;enable-background:accumulate" />
    <rect
       style="opacity:0.07999998;color:#000000;fill:url(#linearGradient4112-2);fill-opacity:1;fill-rule:nonzero;stroke:none;stroke-width:1.5;marker:none;visibility:visible;display:inline;overflow:visible;enable-background:accumulate"
       id="rect6191"
       width="491"
       height="491"
       x="31.985071"
       y="612.11719"
       ry="102.29167" />
    <rect
       style="opacity:0.2;color:#000000;fill:url(#linearGradient4110-6);fill-opacity:1;fill-rule:nonzero;stroke:none;stroke-width:1.5;marker:none;visibility:visible;display:inline;overflow:visible;enable-background:accumulate"
       id="rect6183"
       width="483"
       height="483"
       x="31.985071"
       y="612.11719"
       ry="100.62501" />
    <rect
       ry="99.791664"
       y="612.11719"
       x="31.985071"
       height="479"
       width="479"
       id="rect6179"
       style="opacity:0.25;color:#000000;fill:url(#linearGradient4116-6);fill-opacity:1;fill-rule:nonzero;stroke:none;stroke-width:1.5;marker:none;visibility:visible;display:inline;overflow:visible;enable-background:accumulate" />
    <rect
       style="opacity:0.25;color:#000000;fill:url(#linearGradient5342);fill-opacity:1;fill-rule:nonzero;stroke:none;stroke-width:1.5;marker:none;visibility:visible;display:inline;overflow:visible;enable-background:accumulate"
       id="rect5574"
       width="475.5"
       height="475.5"
       x="31.985071"
       y="612.11719"
       ry="99.0625" />
  </g>
  <path
     sodipodi:nodetypes="ccsscccsccscccssccccsscsssscccccccsc"
     inkscape:connector-curvature="0"
     id="path3828"
     d="m 255.99735,106.0037 c -21.74549,-0.1696 -43.39723,5.5074 -60.25,13.5625 -32.54815,15.93017 -56.00839,42.89721 -66.1875,76.09375 -6.1522,20.06379 -5.87765,29.25163 2.9375,100.0625 6.57344,52.80354 8.25134,66.69046 13.46875,71.53125 0.0632,0.0841 0.11976,0.13977 0.1874,0.2187 5.05821,5.05648 15.21745,15.21695 15.21745,15.21695 0.43384,3.08226 1.07244,4.97321 1.9375,6.8125 1.35663,2.88446 3.22394,5.56673 5.5,7.90625 0.19354,0.20475 0.39398,0.39428 0.59375,0.59375 0.55828,0.60086 1.06705,1.08785 1.59355,1.59355 0.54178,0.52037 197.92683,203.99239 298.30695,298.27605 0.10676,0.0988 0.20415,0.21516 0.3125,0.3125 0.0984,0.0909 0.1815,0.19164 0.28125,0.28125 4.91459,4.55203 11.50377,7.53125 19.0625,7.53125 11.82818,0 21.28378,-7.26972 25.625,-16.5 2.70905,-5.75997 2.9995,-11.16224 3.03125,-55.0625 -0.007,-9.0915 -0.0458,-16.20722 -0.0937,-22.34375 0,0 57.54197,57.29349 86.1484,86.08635 0.0984,0.0909 0.1815,0.19164 0.28125,0.28125 4.91459,4.55203 11.50377,7.53125 19.0625,7.53125 11.82819,0 21.28377,-7.26972 25.625,-16.5 1.4372,-3.05576 2.19813,-6.18422 2.59375,-14.84375 0.83523,-2.62451 2.38765,-3.06199 7.09375,-4.21875 12.36151,-3.03847 12.14518,-2.33403 21.15625,-74.71875 8.81515,-70.81087 9.0897,-79.99871 2.9375,-100.0625 -5.1292,-16.72754 -13.66289,-31.86349 -25,-44.8125 -0.71234,-0.81362 -1.42165,-1.61013 -2.15625,-2.40625 C 547.28064,359.7495 353.86785,146.8829 353.86785,146.8829 c -0.0102,-0.0107 -0.0211,-0.0206 -0.0312,-0.0312 -0.94393,-0.93818 -1.90947,-1.91309 -2.7186,-2.7185 -1.43,-1.4085 -2.90339,-2.77949 -4.40625,-4.125 -0.10406,-0.0925 -0.2081,-0.18901 -0.3125,-0.28125 -8.87037,-7.88905 -18.96782,-14.68025 -30.15625,-20.15625 -20.76993,-8.34824 -41.51606,-13.4164 -60.25,-13.5625 z"
     style="fill:#000000;fill-opacity:0.39215686;display:none" />
  <path
     style="fill:url(#linearGradient3327);stroke:none"
     d="M 118.34039,20 C 63.86373,20 19.99664,63.867084 19.99664,118.34375 l 0,23.0625 0,252.25 C 19.99664,448.13291 63.86373,492 118.34039,492 l 275.3125,0 c 54.47667,0 98.34375,-43.86709 98.34375,-98.34375 l 0,-252.25 0,-23.0625 C 491.99664,63.867084 448.12956,20 393.65289,20 l -275.3125,0 z"
     id="rect5505"
     inkscape:connector-curvature="0" />
  <path
     inkscape:connector-curvature="0"
     style="opacity:0.84999999999999998;fill:#000000;fill-opacity:0.15686275"
     d="m 256.00336,92.111106 c -23.75862,-0.185304 -47.41482,6.017344 -65.82777,14.818284 -35.56136,17.40519 -61.19347,46.86918 -72.31494,83.13947 -6.72175,21.92155 -6.42178,31.96012 3.20945,109.32755 7.18199,57.69275 9.01522,72.8655 14.71565,78.15451 0.0691,0.0919 0.13095,0.15277 0.20485,0.23901 5.52649,5.52467 16.62766,16.62789 16.62766,16.62789 0.474,3.36766 1.17172,5.43369 2.11687,7.44329 1.48222,3.15154 3.5224,6.08217 6.00917,8.63831 0.21146,0.22371 0.43046,0.43079 0.64872,0.64872 0.60996,0.6565 1.16605,1.1888 1.74129,1.74132 0.22659,0.21765 32.08641,33.0364 77.33397,79.11054 l 153.19978,0 c 54.47589,0 98.33193,-43.85667 98.33193,-98.33334 l 0,-119.50231 C 420.34091,199.96102 362.93933,136.77083 362.93933,136.77083 c -0.0111,-0.0117 -0.0231,-0.0225 -0.0341,-0.0341 -1.03131,-1.02505 -2.0864,-2.0905 -2.97044,-2.97049 -1.56238,-1.53891 -3.17218,-3.03685 -4.81417,-4.50694 -0.11369,-0.10107 -0.22736,-0.20651 -0.34143,-0.30729 -9.69161,-8.61958 -20.72386,-16.03959 -32.94808,-22.02263 -22.69274,-9.121223 -45.35949,-14.658657 -65.82776,-14.818284 z"
     id="path10304" />
  <g
     id="g3801"
     transform="matrix(0.74493887,0,0,0.74494951,-159.93653,-45.172857)">
    <path
       style="fill:url(#radialGradient3396);fill-opacity:1"
       d="m 469.97225,204.17169 c -47.73728,23.36425 -82.13531,62.92713 -97.06467,111.61539 -9.02322,29.42689 -8.61757,42.90871 4.31132,146.76465 13.21624,106.16425 12.88737,105.12306 31.01758,109.57949 10.25402,2.52042 10.38081,2.65641 11.85614,14.55072 16.86619,-99.48026 21.00972,-99.59046 6.94602,-155.26755 -6.94268,8.4227 -7.24724,8.56126 -7.30529,2.99398 -0.0334,-3.20243 -1.10497,-16.41662 -2.39518,-29.34096 -1.2902,-12.92433 -2.36491,-31.93545 -2.39518,-42.27492 -0.10244,-35.04448 14.95941,-68.02034 42.99348,-94.01082 28.00988,-25.96808 64.04173,-39.09334 100.41792,-38.98155 36.37619,-0.11179 72.40803,13.01347 100.41792,38.98155 28.03407,25.99048 43.09592,58.96634 42.99348,94.01082 -0.0303,10.33947 -1.10498,29.35059 -2.39518,42.27492 -1.29022,12.92434 -2.36182,26.13853 -2.39518,29.34096 -0.0581,5.56728 -0.36261,5.42872 -7.3053,-2.99398 -14.06369,55.67709 -9.92016,55.78729 6.94602,155.26755 1.47534,-11.89431 1.60213,-12.0303 11.85614,-14.55072 18.13021,-4.45643 17.80135,-3.41524 31.01759,-109.57949 12.92889,-103.85594 13.33454,-117.33776 4.31132,-146.76465 -14.92937,-48.68826 -49.32739,-88.25114 -97.06467,-111.61539 -30.46257,-12.24408 -60.90569,-19.66571 -88.38214,-19.87999 -31.89339,-0.24874 -63.66474,8.06585 -88.38214,19.87999 z"
       id="path3050"
       inkscape:connector-curvature="0"
       sodipodi:nodetypes="cssscccssscssscccssscsc" />
    <g
       id="g3784"
       transform="matrix(1.916144,0,0,1.916144,-161.35771,-640.86368)"
       style="fill:#1a1a1a">
      <path
         inkscape:connector-curvature="0"
         id="path3763"
         transform="translate(302.35439,550.50828)"
         d="m 21.9375,0.1875 c -9.05361,0 -16.30211,5.5599 -19.625,12.625 C 0.23892,17.22133 0.0243,21.36635 0,54.96875 0.0243,88.57115 0.23892,92.71617 2.3125,97.125 c 3.32289,7.0651 10.571392,12.625 19.625,12.625 9.053608,0 16.30212,-5.5599 19.625,-12.625 2.07358,-4.40883 2.2882,-8.55385 2.3125,-42.15625 C 43.8507,21.36635 43.63608,17.22133 41.5625,12.8125 38.23962,5.7474 30.99111,0.1875 21.9375,0.1875 z"
         style="fill:#4d4d4d;fill-opacity:1" />
      <g
         transform="matrix(-1,0,0,1,751.2011,0)"
         id="g3779"
         style="fill:#1a1a1a">
        <path
           inkscape:connector-curvature="0"
           id="path3777"
           transform="translate(302.35439,550.50828)"
           d="m 21.9375,0.1875 c -9.05361,0 -16.30211,5.5599 -19.625,12.625 C 0.23892,17.22133 0.0243,21.36635 0,54.96875 0.0243,88.57115 0.23892,92.71617 2.3125,97.125 c 3.32289,7.0651 10.571392,12.625 19.625,12.625 9.053608,0 16.30212,-5.5599 19.625,-12.625 2.07358,-4.40883 2.2882,-8.55385 2.3125,-42.15625 C 43.8507,21.36635 43.63608,17.22133 41.5625,12.8125 38.23962,5.7474 30.99111,0.1875 21.9375,0.1875 z"
           style="fill:#4d4d4d;fill-opacity:1" />
      </g>
    </g>
  </g>
  <g
     id="g4076"
     transform="translate(-605.51931,-353.96832)">
    <g
       transform="translate(-926.66758,684.38448)"
       id="g4038">
      <path
         inkscape:connector-curvature="0"
         style="opacity:0.5;color:#000000;fill:url(#linearGradient4084);fill-opacity:1;fill-rule:nonzero;stroke:none;stroke-width:1.5;marker:none;visibility:visible;display:inline;overflow:visible;enable-background:accumulate"
         d="m 1650.4994,-310.41615 c -54.4767,0 -98.3125,43.83583 -98.3125,98.3125 l 0,275.343747 c 0,54.476673 43.8358,98.343753 98.3125,98.343753 l 2.9375,0 c -53.3225,0 -96.25,-42.9275 -96.25,-96.250003 l 0,-269.499997 c 0,-53.3225 42.9275,-96.25 96.25,-96.25 l 269.5001,0 c 53.3225,0 96.25,42.9275 96.25,96.25 l 0,269.499997 c 0,53.322503 -42.9275,96.250003 -96.25,96.250003 l 2.9062,0 c 54.4767,0 98.3438,-43.86708 98.3438,-98.343753 l 0,-275.343747 c 0,-54.47667 -43.8671,-98.3125 -98.3438,-98.3125 l -275.3438,0 z"
         id="rect6809-2" />
      <path
         id="path3981"
         d="m 1650.4994,161.58385 c -54.4767,0 -98.3125,-43.83583 -98.3125,-98.312503 l 0,-275.343747 c 0,-54.47667 43.8358,-98.34375 98.3125,-98.34375 l 2.9375,0 c -53.3225,0 -96.25,42.9275 -96.25,96.25 l 0,269.499997 c 0,53.322503 42.9275,96.250003 96.25,96.250003 l 269.5001,0 c 53.3225,0 96.25,-42.9275 96.25,-96.250003 l 0,-269.499997 c 0,-53.3225 -42.9275,-96.25 -96.25,-96.25 l 2.9062,0 c 54.4767,0 98.3438,43.86708 98.3438,98.34375 l 0,275.343747 c 0,54.476673 -43.8671,98.312503 -98.3438,98.312503 l -275.3438,0 z"
         style="opacity:0.2;color:#000000;fill:url(#linearGradient4086);fill-opacity:1;fill-rule:nonzero;stroke:none;stroke-width:1.5;marker:none;visibility:visible;display:inline;overflow:visible;enable-background:accumulate"
         inkscape:connector-curvature="0" />
    </g>
  </g>
</svg>
