<?xml version="1.0" encoding="UTF-8" standalone="no"?>
<!-- Created with Inkscape (http://www.inkscape.org/) -->

<svg
   xmlns:dc="http://purl.org/dc/elements/1.1/"
   xmlns:cc="http://creativecommons.org/ns#"
   xmlns:rdf="http://www.w3.org/1999/02/22-rdf-syntax-ns#"
   xmlns:svg="http://www.w3.org/2000/svg"
   xmlns="http://www.w3.org/2000/svg"
   xmlns:xlink="http://www.w3.org/1999/xlink"
   xmlns:sodipodi="http://sodipodi.sourceforge.net/DTD/sodipodi-0.dtd"
   xmlns:inkscape="http://www.inkscape.org/namespaces/inkscape"
   inkscape:export-ydpi="100"
   inkscape:export-xdpi="100"
   inkscape:export-filename="/home/alecive/Scrivania/firefoxTest1.png"
   sodipodi:docname="google-drive-drawings.svg"
   inkscape:version="0.48.3.1 r9886"
   version="1.1"
   id="svg2"
   height="512"
   width="512">
  <sodipodi:namedview
     id="base"
     pagecolor="#ffffff"
     bordercolor="#666666"
     borderopacity="1.0"
     inkscape:pageopacity="0.0"
     inkscape:pageshadow="2"
     inkscape:zoom="1.0715947"
     inkscape:cx="231.54618"
     inkscape:cy="246.86052"
     inkscape:document-units="px"
     inkscape:current-layer="svg2"
     showgrid="false"
     inkscape:window-width="1375"
     inkscape:window-height="876"
     inkscape:window-x="1431"
     inkscape:window-y="24"
     inkscape:window-maximized="1"
     inkscape:object-paths="false"
     inkscape:snap-intersection-paths="false"
     inkscape:object-nodes="true"
     inkscape:snap-smooth-nodes="true"
     inkscape:snap-nodes="true" />
  <defs
     id="defs4">
    <linearGradient
       id="linearGradient2460"
       y2="44.984001"
       gradientUnits="userSpaceOnUse"
       x2="19.360001"
       y1="21.030804"
       x1="19.244999">
      <stop
         id="stop3602"
         style="stop-color:#fafafa;stop-opacity:1;"
         offset="0" />
      <stop
         id="stop3604"
         style="stop-color:#f0f0f0;stop-opacity:1;"
         offset="1" />
    </linearGradient>
    <linearGradient
       gradientTransform="matrix(1.0058652,0,0,0.994169,100,0)"
       gradientUnits="userSpaceOnUse"
       id="ButtonShadow-0-1-1-5-9"
       y2="7.0165396"
       x2="45.447727"
       y1="92.539597"
       x1="45.447727">
      <stop
         offset="0"
         style="stop-color:#000000;stop-opacity:1"
         id="stop3750-8-9-3-6-4" />
      <stop
         offset="1"
         style="stop-color:#000000;stop-opacity:0.58823532"
         id="stop3752-5-6-4-2-9" />
    </linearGradient>
    <linearGradient
       id="linearGradient3737-9">
      <stop
         offset="0"
         style="stop-color:#ffffff;stop-opacity:1"
         id="stop3739-7" />
      <stop
         offset="1"
         style="stop-color:#ffffff;stop-opacity:0"
         id="stop3741-4" />
    </linearGradient>
    <linearGradient
       id="linearGradient4046-3">
      <stop
         offset="0"
         style="stop-color:#000000;stop-opacity:1;"
         id="stop4048-7" />
      <stop
         offset="1"
         style="stop-color:#ffffff;stop-opacity:0.2"
         id="stop4050-73" />
    </linearGradient>
    <linearGradient
       inkscape:collect="always"
       xlink:href="#outerBackgroundGradient"
       id="linearGradient3876"
       gradientUnits="userSpaceOnUse"
       gradientTransform="translate(0,-4)"
       x1="272"
       y1="288"
       x2="272"
       y2="32" />
    <linearGradient
       id="outerBackgroundGradient">
      <stop
         style="stop-color:#f4b400;stop-opacity:1;"
         offset="0"
         id="stop3864-8-6" />
      <stop
         style="stop-color:#ffc523;stop-opacity:1;"
         offset="1"
         id="stop3866-9-1" />
    </linearGradient>
    <linearGradient
       inkscape:collect="always"
       xlink:href="#outerBackgroundGradient-3"
       id="linearGradient3876-4"
       gradientUnits="userSpaceOnUse"
       gradientTransform="translate(0,-4)"
       x1="272"
       y1="288"
       x2="272"
       y2="32" />
    <linearGradient
       id="outerBackgroundGradient-3">
      <stop
         style="stop-color:#50a8e3;stop-opacity:1;"
         offset="0"
         id="stop3864-8-6-2" />
      <stop
         style="stop-color:#82c3ef;stop-opacity:1;"
         offset="1"
         id="stop3866-9-1-7" />
    </linearGradient>
    <clipPath
       clipPathUnits="userSpaceOnUse"
       id="clipPath3970">
      <rect
         ry="50"
         y="46"
         x="34"
         height="220"
         width="220"
         id="rect3972"
         style="color:#bebebe;fill:url(#linearGradient3974);fill-opacity:1;fill-rule:nonzero;stroke:none;stroke-width:0;marker:none;visibility:visible;display:inline;overflow:visible;enable-background:accumulate" />
    </clipPath>
    <linearGradient
       inkscape:collect="always"
       xlink:href="#outerBackgroundGradient-2"
       id="linearGradient3876-7"
       gradientUnits="userSpaceOnUse"
       gradientTransform="translate(0,-4)"
       x1="272"
       y1="288"
       x2="272"
       y2="32" />
    <linearGradient
       id="outerBackgroundGradient-2">
      <stop
         style="stop-color:#1eb36a;stop-opacity:1;"
         offset="0"
         id="stop3864-8-6-1" />
      <stop
         style="stop-color:#19cc75;stop-opacity:1;"
         offset="1"
         id="stop3866-9-1-5" />
    </linearGradient>
    <linearGradient
       inkscape:collect="always"
       xlink:href="#outerBackgroundGradient-1"
       id="linearGradient3876-1"
       gradientUnits="userSpaceOnUse"
       gradientTransform="translate(0,-4)"
       x1="272"
       y1="288"
       x2="272"
       y2="32" />
    <linearGradient
       id="outerBackgroundGradient-1">
      <stop
         style="stop-color:#1eb36a;stop-opacity:1;"
         offset="0"
         id="stop3864-8-6-5" />
      <stop
         style="stop-color:#19cc75;stop-opacity:1;"
         offset="1"
         id="stop3866-9-1-75" />
    </linearGradient>
    <linearGradient
       inkscape:collect="always"
       xlink:href="#outerBackgroundGradient-7"
       id="linearGradient3876-15"
       gradientUnits="userSpaceOnUse"
       gradientTransform="translate(0,-4)"
       x1="272"
       y1="288"
       x2="272"
       y2="32" />
    <linearGradient
       id="outerBackgroundGradient-7">
      <stop
         style="stop-color:#d03a30;stop-opacity:1;"
         offset="0"
         id="stop3864-8-6-8" />
      <stop
         style="stop-color:#dc4c42;stop-opacity:1;"
         offset="1"
         id="stop3866-9-1-8" />
    </linearGradient>
    <linearGradient
       y2="32"
       x2="272"
       y1="288"
       x1="272"
       gradientTransform="translate(111.99998,96.000002)"
       gradientUnits="userSpaceOnUse"
       id="linearGradient3893"
       xlink:href="#outerBackgroundGradient-7"
       inkscape:collect="always" />
    <linearGradient
       inkscape:collect="always"
       xlink:href="#outerBackgroundGradient-5"
       id="linearGradient3876-3"
       gradientUnits="userSpaceOnUse"
       gradientTransform="translate(0,-4)"
       x1="272"
       y1="288"
       x2="272"
       y2="32" />
    <linearGradient
       id="outerBackgroundGradient-5">
      <stop
         style="stop-color:#2b72ea;stop-opacity:1;"
         offset="0"
         id="stop3864-8-6-80" />
      <stop
         style="stop-color:#508aec;stop-opacity:1;"
         offset="1"
         id="stop3866-9-1-74" />
    </linearGradient>
    <linearGradient
       id="outerBackgroundGradient-55">
      <stop
         style="stop-color:#f4b400;stop-opacity:1;"
         offset="0"
         id="stop3864-8-6-3" />
      <stop
         style="stop-color:#ffc523;stop-opacity:1;"
         offset="1"
         id="stop3866-9-1-740" />
    </linearGradient>
    <linearGradient
       id="outerBackgroundGradient-5-3">
      <stop
         style="stop-color:#2b72ea;stop-opacity:1;"
         offset="0"
         id="stop3864-8-6-80-2" />
      <stop
         style="stop-color:#508aec;stop-opacity:1;"
         offset="1"
         id="stop3866-9-1-74-1" />
    </linearGradient>
    <linearGradient
       y2="32"
       x2="272"
       y1="288"
       x1="272"
       gradientTransform="translate(-34,-50.000012)"
       gradientUnits="userSpaceOnUse"
       id="linearGradient7158"
       xlink:href="#outerBackgroundGradient-5-3"
       inkscape:collect="always" />
    <linearGradient
       id="outerBackgroundGradient-1-0">
      <stop
         style="stop-color:#1eb36a;stop-opacity:1;"
         offset="0"
         id="stop3864-8-6-5-1" />
      <stop
         style="stop-color:#19cc75;stop-opacity:1;"
         offset="1"
         id="stop3866-9-1-75-9" />
    </linearGradient>
    <linearGradient
       inkscape:collect="always"
       xlink:href="#outerBackgroundGradient-1-0"
       id="linearGradient10344"
       gradientUnits="userSpaceOnUse"
       gradientTransform="translate(-33.99996,-49.999998)"
       x1="272"
       y1="288"
       x2="272"
       y2="32" />
    <linearGradient
       id="outerBackgroundGradient-2-5">
      <stop
         style="stop-color:#1eb36a;stop-opacity:1;"
         offset="0"
         id="stop3864-8-6-1-9" />
      <stop
         style="stop-color:#19cc75;stop-opacity:1;"
         offset="1"
         id="stop3866-9-1-5-1" />
    </linearGradient>
    <linearGradient
       y2="32"
       x2="272"
       y1="288"
       x1="272"
       gradientTransform="matrix(2.1453581,0,0,2.1453581,-72.94218,-107.26792)"
       gradientUnits="userSpaceOnUse"
       id="linearGradient11597"
       xlink:href="#outerBackgroundGradient-2-5"
       inkscape:collect="always" />
    <linearGradient
       id="outerBackgroundGradient-7-2">
      <stop
         style="stop-color:#d03a30;stop-opacity:1;"
         offset="0"
         id="stop3864-8-6-8-6" />
      <stop
         style="stop-color:#dc4c42;stop-opacity:1;"
         offset="1"
         id="stop3866-9-1-8-4" />
    </linearGradient>
    <linearGradient
       inkscape:collect="always"
       xlink:href="#outerBackgroundGradient-7-2"
       id="linearGradient14113"
       gradientUnits="userSpaceOnUse"
       gradientTransform="translate(-34.00002,-49.999998)"
       x1="272"
       y1="288"
       x2="272"
       y2="32" />
    <linearGradient
       inkscape:collect="always"
       xlink:href="#ButtonShadow-0-1-1-5-9-8"
       id="linearGradient4329"
       gradientUnits="userSpaceOnUse"
       gradientTransform="matrix(1.0074417,0,0,1.0074152,261.62679,527.41078)"
       x1="-112.34483"
       y1="572.44672"
       x2="-109.97469"
       y2="107.89955" />
    <linearGradient
       gradientTransform="matrix(1.0058652,0,0,0.994169,100,0)"
       gradientUnits="userSpaceOnUse"
       id="ButtonShadow-0-1-1-5-9-8"
       y2="7.0165396"
       x2="45.447727"
       y1="92.539597"
       x1="45.447727">
      <stop
         offset="0"
         style="stop-color:#000000;stop-opacity:1"
         id="stop3750-8-9-3-6-4-7" />
      <stop
         offset="1"
         style="stop-color:#000000;stop-opacity:0.58823532"
         id="stop3752-5-6-4-2-9-5" />
    </linearGradient>
    <linearGradient
       inkscape:collect="always"
       xlink:href="#ButtonShadow-0-1-1-5-9-8"
       id="linearGradient4331"
       gradientUnits="userSpaceOnUse"
       gradientTransform="matrix(1.0318068,0,0,1.0317796,268.77841,524.78354)"
       x1="-112.34483"
       y1="572.44672"
       x2="-109.97469"
       y2="107.89955" />
    <linearGradient
       gradientTransform="matrix(1.0058652,0,0,0.994169,100,0)"
       gradientUnits="userSpaceOnUse"
       id="linearGradient13539"
       y2="7.0165396"
       x2="45.447727"
       y1="92.539597"
       x1="45.447727">
      <stop
         offset="0"
         style="stop-color:#000000;stop-opacity:1"
         id="stop13541" />
      <stop
         offset="1"
         style="stop-color:#000000;stop-opacity:0.58823532"
         id="stop13543" />
    </linearGradient>
    <linearGradient
       inkscape:collect="always"
       xlink:href="#ButtonShadow-0-1-1-5-9-8"
       id="linearGradient4333"
       gradientUnits="userSpaceOnUse"
       gradientTransform="matrix(1.0148572,0,0,1.0148305,263.80369,526.61118)"
       x1="-112.34483"
       y1="572.44672"
       x2="-109.97469"
       y2="107.89955" />
    <linearGradient
       gradientTransform="matrix(1.0058652,0,0,0.994169,100,0)"
       gradientUnits="userSpaceOnUse"
       id="linearGradient13546"
       y2="7.0165396"
       x2="45.447727"
       y1="92.539597"
       x1="45.447727">
      <stop
         offset="0"
         style="stop-color:#000000;stop-opacity:1"
         id="stop13548" />
      <stop
         offset="1"
         style="stop-color:#000000;stop-opacity:0.58823532"
         id="stop13550" />
    </linearGradient>
    <linearGradient
       inkscape:collect="always"
       xlink:href="#ButtonShadow-0-1-1-5-9-8"
       id="linearGradient4335"
       gradientUnits="userSpaceOnUse"
       gradientTransform="matrix(1.023332,0,0,1.023305,266.29153,525.69736)"
       x1="-112.34483"
       y1="572.44672"
       x2="-109.97469"
       y2="107.89955" />
    <linearGradient
       gradientTransform="matrix(1.0058652,0,0,0.994169,100,0)"
       gradientUnits="userSpaceOnUse"
       id="linearGradient13553"
       y2="7.0165396"
       x2="45.447727"
       y1="92.539597"
       x1="45.447727">
      <stop
         offset="0"
         style="stop-color:#000000;stop-opacity:1"
         id="stop13555" />
      <stop
         offset="1"
         style="stop-color:#000000;stop-opacity:0.58823532"
         id="stop13557" />
    </linearGradient>
    <linearGradient
       y2="107.89955"
       x2="-109.97469"
       y1="572.44672"
       x1="-112.34483"
       gradientTransform="matrix(1.0402816,0,0,1.0402542,271.26626,523.86971)"
       gradientUnits="userSpaceOnUse"
       id="linearGradient13404"
       xlink:href="#ButtonShadow-0-1-1-5-9-8"
       inkscape:collect="always" />
    <linearGradient
       gradientTransform="matrix(1.0058652,0,0,0.994169,100,0)"
       gradientUnits="userSpaceOnUse"
       id="linearGradient13560"
       y2="7.0165396"
       x2="45.447727"
       y1="92.539597"
       x1="45.447727">
      <stop
         offset="0"
         style="stop-color:#000000;stop-opacity:1"
         id="stop13562" />
      <stop
         offset="1"
         style="stop-color:#000000;stop-opacity:0.58823532"
         id="stop13564" />
    </linearGradient>
    <linearGradient
       id="outerBackgroundGradient-55-5">
      <stop
         style="stop-color:#f4b400;stop-opacity:1;"
         offset="0"
         id="stop3864-8-6-3-6" />
      <stop
         style="stop-color:#ffc523;stop-opacity:1;"
         offset="1"
         id="stop3866-9-1-740-0" />
    </linearGradient>
    <linearGradient
       inkscape:collect="always"
       xlink:href="#linearGradient3737-9-9"
       id="linearGradient4341"
       gradientUnits="userSpaceOnUse"
       gradientTransform="translate(-753.58716,-30.14348)"
       x1="993.43896"
       y1="51.511765"
       x2="988.78552"
       y2="363.73825" />
    <linearGradient
       id="linearGradient3737-9-9">
      <stop
         offset="0"
         style="stop-color:#ffffff;stop-opacity:1"
         id="stop3739-7-9" />
      <stop
         offset="1"
         style="stop-color:#ffffff;stop-opacity:0"
         id="stop3741-4-9" />
    </linearGradient>
    <linearGradient
       inkscape:collect="always"
       xlink:href="#linearGradient4046-3-9"
       id="linearGradient4343"
       gradientUnits="userSpaceOnUse"
       gradientTransform="translate(-1532.187,330.41615)"
       x1="1764.6487"
       y1="155.59685"
       x2="1763.6903"
       y2="-55.941216" />
    <linearGradient
       id="linearGradient4046-3-9">
      <stop
         offset="0"
         style="stop-color:#000000;stop-opacity:1;"
         id="stop4048-7-6" />
      <stop
         offset="1"
         style="stop-color:#ffffff;stop-opacity:0.2"
         id="stop4050-73-50" />
    </linearGradient>
    <linearGradient
       id="outerBackgroundGradient-7-2-2">
      <stop
         style="stop-color:#d03a30;stop-opacity:1;"
         offset="0"
         id="stop3864-8-6-8-6-7" />
      <stop
         style="stop-color:#dc4c42;stop-opacity:1;"
         offset="1"
         id="stop3866-9-1-8-4-6" />
    </linearGradient>
    <linearGradient
       y2="32"
       x2="272"
       y1="288"
       x1="272"
       gradientTransform="translate(91.99998,76.000002)"
       gradientUnits="userSpaceOnUse"
       id="linearGradient17551"
       xlink:href="#outerBackgroundGradient-7-2-2"
       inkscape:collect="always" />
    <linearGradient
       inkscape:collect="always"
       xlink:href="#outerBackgroundGradient-7-2-2"
       id="linearGradient17576"
       gradientUnits="userSpaceOnUse"
       gradientTransform="translate(760.23986,-4.219778)"
       x1="272"
       y1="288"
       x2="272"
       y2="32" />
    <linearGradient
       id="outerBackgroundGradient-7-2-2-8">
      <stop
         style="stop-color:#d03a30;stop-opacity:1;"
         offset="0"
         id="stop3864-8-6-8-6-7-4" />
      <stop
         style="stop-color:#dc4c42;stop-opacity:1;"
         offset="1"
         id="stop3866-9-1-8-4-6-3" />
    </linearGradient>
    <linearGradient
       y2="32"
       x2="272"
       y1="288"
       x1="272"
       gradientTransform="translate(740.23688,-24.219788)"
       gradientUnits="userSpaceOnUse"
       id="linearGradient17599"
       xlink:href="#outerBackgroundGradient-7-2-2-8"
       inkscape:collect="always" />
  </defs>
  <metadata
     id="metadata7">
    <rdf:RDF>
      <cc:Work
         rdf:about="">
        <dc:format>image/svg+xml</dc:format>
        <dc:type
           rdf:resource="http://purl.org/dc/dcmitype/StillImage" />
        <dc:title />
      </cc:Work>
    </rdf:RDF>
  </metadata>
  <g
     transform="translate(0,-540.36218)"
     inkscape:label="Livello 1"
     inkscape:groupmode="layer"
     id="layer1" />
  <g
     transform="matrix(1.1,0,0,0.44444,95.081063,256.39254)"
     id="g2036">
    <g
       transform="matrix(1.0526,0,0,1.2857,-1.2632,-13.429)"
       style="opacity:0.4"
       id="g3712" />
  </g>
  <g
     id="g3541"
     transform="translate(97.481063,231.28154)" />
  <g
     id="g3536"
     transform="translate(97.481063,231.28154)" />
  <g
     transform="translate(-605.51932,-353.96833)"
     id="g4076">
    <g
       id="g4038"
       transform="translate(-926.66758,684.38448)" />
  </g>
  <g
     transform="matrix(0.99853151,0,0,0.99853151,54.03607,-615.10759)"
     id="g5918">
    <path
       inkscape:connector-curvature="0"
       style="opacity:0.25;color:#000000;fill:url(#linearGradient4329);fill-opacity:1;fill-rule:nonzero;stroke:none;stroke-width:1.5;marker:none;visibility:visible;display:inline;overflow:visible;enable-background:accumulate"
       d="m 60.989673,1111.5416 144.328367,-0.2064 147.52725,-0.2409 c 49.0412,-5.1221 87.2248,-45.726 88.537,-95.8499 9e-4,-0.035 -9e-4,-0.069 0,-0.1032 9e-4,-0.414 -8e-4,-0.6473 0,-1.0665 0.042,-21.50295 0.034,-49.94202 0.034,-87.7651 l 0,-152.51368 -68.8621,-68.87715 -68.8965,-68.87715 -152.82436,0.0688 c -40.25265,0.0173 -69.340747,0.0413 -91.323117,0.10316 -50.88989,2.75481 -91.3364,43.54773 -93.49012,94.61146 -0.0987,30.63047 -0.10318,74.7573 -0.10318,143.01819 0,68.26875 0.005,112.38763 0.10312,143.01817 2.17453,51.5569 43.38652,92.644 94.96919,94.6802 z"
       id="path5873" />
    <path
       id="path5902"
       d="m 63.288833,1123.0416 147.818967,-0.2114 151.09521,-0.2467 c 50.2273,-5.246 89.3343,-46.8319 90.6783,-98.1681 9e-4,-0.035 -9e-4,-0.07 0,-0.1056 9e-4,-0.424 -8e-4,-0.663 0,-1.0924 0.043,-22.0229 0.035,-51.14981 0.035,-89.88764 l 0,-156.20224 -70.5276,-70.54295 -70.5627,-70.54295 -156.52046,0.0705 c -41.22616,0.0177 -71.017757,0.0423 -93.531777,0.10565 -52.12067,2.82144 -93.54538,44.60094 -95.75119,96.89965 -0.10109,31.37127 -0.10567,76.56531 -0.10567,146.47709 0,69.91984 0.005,115.10574 0.10561,146.47699 2.22712,52.804 44.43583,94.8848 97.26603,96.9702 z"
       style="opacity:0.1;color:#000000;fill:url(#linearGradient4331);fill-opacity:1;fill-rule:nonzero;stroke:none;stroke-width:1.5;marker:none;visibility:visible;display:inline;overflow:visible;enable-background:accumulate"
       inkscape:connector-curvature="0" />
    <path
       inkscape:connector-curvature="0"
       style="opacity:0.25;color:#000000;fill:url(#linearGradient4333);fill-opacity:1;fill-rule:nonzero;stroke:none;stroke-width:1.5;marker:none;visibility:visible;display:inline;overflow:visible;enable-background:accumulate"
       d="m 61.689723,1115.0417 145.390727,-0.2079 148.61314,-0.2427 c 49.4022,-5.1598 87.8668,-46.0626 89.1887,-96.5555 9e-4,-0.035 -9e-4,-0.069 0,-0.1039 9e-4,-0.4171 -8e-4,-0.6521 0,-1.0744 0.042,-21.66124 0.034,-50.30964 0.034,-88.41113 l 0,-153.63628 -69.369,-69.38413 -69.4036,-69.38414 -153.94925,0.0693 c -40.54894,0.0174 -69.851137,0.0416 -91.995317,0.10392 -51.26448,2.77509 -92.0087,43.86827 -94.17827,95.30786 -0.0994,30.85594 -0.10394,75.30757 -0.10394,144.07091 0,68.77125 0.005,113.21488 0.10387,144.07079 2.19054,51.9366 43.70588,93.3261 95.66824,95.3773 z"
       id="path5906" />
    <path
       inkscape:connector-curvature="0"
       style="opacity:0.2;color:#000000;fill:url(#linearGradient4335);fill-opacity:1;fill-rule:nonzero;stroke:none;stroke-width:1.5;marker:none;visibility:visible;display:inline;overflow:visible;enable-background:accumulate"
       d="m 62.489783,1119.0417 146.604847,-0.2097 149.8542,-0.2447 c 49.8147,-5.2028 88.6006,-46.4472 89.9335,-97.3618 9e-4,-0.035 -9e-4,-0.07 0,-0.1048 9e-4,-0.4205 -8e-4,-0.6575 0,-1.0833 0.043,-21.84214 0.034,-50.72977 0.034,-89.14943 l 0,-154.91926 -69.9483,-69.96355 -69.9832,-69.96354 -155.23483,0.0699 c -40.88755,0.0176 -70.434457,0.0419 -92.763547,0.10478 -51.69258,2.79827 -92.77705,44.23461 -94.96474,96.10376 -0.10025,31.1136 -0.1048,75.93644 -0.1048,145.274 0,69.34555 0.005,114.16031 0.10474,145.27394 2.20883,52.3702 44.07085,94.1054 96.46713,96.1737 z"
       id="path5910" />
    <path
       inkscape:connector-curvature="0"
       style="opacity:0.07999998;color:#000000;fill:url(#linearGradient13404);fill-opacity:1;fill-rule:nonzero;stroke:none;stroke-width:1.5;marker:none;visibility:visible;display:inline;overflow:visible;enable-background:accumulate"
       d="m 64.088893,1127.0416 149.033087,-0.2131 152.33628,-0.2488 c 50.6398,-5.289 90.068,-47.2165 91.423,-98.9744 10e-4,-0.036 -9e-4,-0.071 0,-0.1065 10e-4,-0.4274 -8e-4,-0.6684 0,-1.1013 0.043,-22.2038 0.035,-51.56994 0.035,-90.62595 l 0,-157.48521 -71.1068,-71.12236 -71.1423,-71.12236 -157.80606,0.071 c -41.56477,0.0179 -71.601067,0.0427 -94.299997,0.10653 -52.54877,2.84461 -94.31372,44.96726 -96.53765,97.69553 -0.10192,31.62894 -0.10654,77.19419 -0.10654,147.6802 0,70.49412 0.005,116.05116 0.10648,147.68012 2.24541,53.2376 44.8008,95.664 98.06493,97.7666 z"
       id="path5914" />
  </g>
  <path
     inkscape:connector-curvature="0"
     style="color:#bebebe;fill:url(#linearGradient17576);fill-opacity:1;fill-rule:nonzero;stroke:none;stroke-width:0;marker:none;visibility:visible;display:inline;overflow:visible;enable-background:accumulate"
     d="m 114.23457,491.3069 143.05189,-0.20461 146.2225,-0.2387 c 48.60741,-5.07699 86.45325,-45.32274 87.75394,-95.00478 9e-4,-0.0342 -9e-4,-0.0681 0,-0.10224 8e-4,-0.41033 -8e-4,-0.64159 0,-1.05712 0.0419,-21.31332 0.034,-49.5016 0.034,-86.99115 l 0,-151.16877 -68.25312,-68.26976 -68.28713,-68.26976 -151.4727,0.0682 c -39.89664,0.0172 -68.72748,0.0409 -90.51545,0.10225 -50.43979,2.73052 -90.52858,43.16371 -92.66325,93.77714 -0.0979,30.36036 -0.10227,74.09806 -0.10227,141.75701 0,67.66672 0.005,111.39655 0.10221,141.75694 2.15529,51.1023 43.00279,91.82709 94.12924,93.84535 z"
     id="rect4121" />
  <g
     transform="matrix(0.99853151,0,0,0.99853151,-604.60082,-353.41916)"
     id="g4076-9-0">
    <g
       id="g4038-9-1"
       transform="translate(-926.66758,684.38448)">
      <path
         inkscape:connector-curvature="0"
         style="opacity:0.5;color:#000000;fill:url(#linearGradient4341);fill-opacity:1;fill-rule:nonzero;stroke:none;stroke-width:1.5;marker:none;visibility:visible;display:inline;overflow:visible;enable-background:accumulate"
         d="m 355.25,20 -151.6875,0.0625 c -39.95531,0.0172 -68.83626,0.03235 -90.65625,0.09375 -0.78928,0.04273 -1.59089,0.09519 -2.375,0.15625 -3.92057,0.305292 -7.75568,0.845943 -11.53125,1.59375 -1.51023,0.299123 -3.015922,0.633019 -4.5,1 -2.226117,0.550471 -4.431221,1.176579 -6.59375,1.875 -20.904452,6.751404 -38.687843,20.284416 -50.8125,38.03125 -0.108334,0.158619 -0.236324,0.30946 -0.34375,0.46875 -0.306456,0.454303 -0.607242,0.915291 -0.90625,1.375 -1.617953,2.487519 -3.108135,5.049674 -4.5,7.6875 -2.416204,4.579126 -4.508261,9.398403 -6.1875,14.375 -0.01359,0.04029 -0.01771,0.08469 -0.03125,0.125 -0.481865,1.434239 -0.926843,2.880345 -1.34375,4.34375 -0.208453,0.731702 -0.401853,1.448822 -0.59375,2.1875 -0.02741,0.105607 -0.06668,0.206753 -0.09375,0.3125 -0.162917,0.635705 -0.318229,1.296808 -0.46875,1.9375 -0.175131,0.745444 -0.341847,1.466751 -0.5,2.21875 -0.04199,0.199929 -0.08422,0.393368 -0.125,0.59375 -0.113545,0.556834 -0.208352,1.127218 -0.3125,1.6875 -0.140964,0.75834 -0.282685,1.51677 -0.40625,2.28125 -0.123565,0.76448 -0.237796,1.5421 -0.34375,2.3125 -0.211908,1.54081 -0.391049,3.09301 -0.53125,4.65625 -0.06917,0.77127 -0.13609,1.53608 -0.1875,2.3125 -0.0027,0.0414 0.0027,0.0836 0,0.125 -0.03075,0.47545 -0.06972,0.96019 -0.09375,1.4375 -0.01419,0.28051 -0.01939,0.56261 -0.03125,0.84375 C 19.99575,144.49876 20,188.30405 20,256.0625 c 0,67.67336 -0.0032,111.41246 0.09375,141.8125 1.33e-4,0.0417 -1.33e-4,0.11458 0,0.15625 0.0027,0.0629 -0.0028,0.12467 0,0.1875 0.0075,0.16637 0.02289,0.33385 0.03125,0.5 0.06034,1.22897 0.145352,2.43985 0.25,3.65625 0.02597,0.30189 0.06508,0.60517 0.09375,0.90625 0.04518,0.46981 0.07329,0.93843 0.125,1.40625 0.02399,0.21918 0.06833,0.43751 0.09375,0.65625 0.08359,0.71923 0.182346,1.4107 0.28125,2.125 0.09803,0.70307 0.199799,1.39561 0.3125,2.09375 0.0432,0.26966 0.07962,0.54359 0.125,0.8125 0.06179,0.36349 0.121762,0.73165 0.1875,1.09375 0.03935,0.21824 0.08422,0.43852 0.125,0.65625 0.08776,0.46552 0.187003,0.94311 0.28125,1.40625 0.135112,0.66395 0.257917,1.30981 0.40625,1.96875 0.03076,0.13664 0.06243,0.26983 0.09375,0.40625 0.05764,0.25224 0.127935,0.49851 0.1875,0.75 0.128911,0.54185 0.268464,1.08673 0.40625,1.625 0.05292,0.20754 0.102023,0.418 0.15625,0.625 0.151575,0.57628 0.307082,1.14672 0.46875,1.71875 0.220124,0.77886 0.448884,1.57299 0.6875,2.34375 0.715848,2.31229 1.497285,4.57766 2.375,6.8125 0.280689,0.71657 0.57813,1.4481 0.875,2.15625 0.009,0.0214 0.02224,0.0411 0.03125,0.0625 0.57509,1.36484 1.17852,2.73026 1.8125,4.0625 0.04962,0.10427 0.106275,0.20843 0.15625,0.3125 0.27599,0.5757 0.556957,1.1494 0.84375,1.71875 0.06944,0.13761 0.14868,0.26901 0.21875,0.40625 1.443868,2.82788 3.01751,5.59026 4.71875,8.25 2.551861,3.98961 5.383387,7.77813 8.46875,11.34375 C 61.815337,478.79047 88.261556,491.87122 117.875,492 l 2.625,0 C 67.525103,491.60021 25,448.82259 25,395.75 l 0,-269.5 C 25,72.9275 67.9275,30 121.25,30 l 244,0 -10,-10 z M 487,151.75 l 0,244 c 0,50.25665 -38.12758,91.26134 -87.15625,95.8125 l 3.1875,0 c 30.1265,-2.82213 56.21626,-19.11931 72.21875,-42.84375 0.44099,-0.65379 0.88696,-1.30382 1.3125,-1.96875 0.42554,-0.66493 0.84018,-1.35543 1.25,-2.03125 1.22947,-2.02747 2.38524,-4.09784 3.46875,-6.21875 0.36117,-0.70697 0.71805,-1.40816 1.0625,-2.125 0.34445,-0.71684 0.67253,-1.46103 1,-2.1875 1.60228,-3.55458 3.00961,-7.20174 4.1875,-10.96875 0.0255,-0.0819 0.0372,-0.16801 0.0625,-0.25 0.41115,-1.32725 0.80023,-2.68026 1.15625,-4.03125 0.0573,-0.21835 0.10044,-0.4373 0.15625,-0.65625 0.20151,-0.78671 0.41125,-1.5807 0.59375,-2.375 0.1825,-0.7943 0.33676,-1.57337 0.5,-2.375 0.16324,-0.80163 0.32503,-1.62878 0.46875,-2.4375 0.14372,-0.80872 0.2823,-1.62195 0.40625,-2.4375 0.0398,-0.26208 0.0872,-0.51848 0.125,-0.78125 0.079,-0.55396 0.14894,-1.09929 0.21875,-1.65625 0.025,-0.19753 0.0387,-0.39585 0.0625,-0.59375 0.0742,-0.62299 0.15612,-1.24841 0.21875,-1.875 0.0136,-0.1345 0.0182,-0.27159 0.0312,-0.40625 0.0671,-0.70043 0.13504,-1.38901 0.1875,-2.09375 0.005,-0.0616 -0.005,-0.12589 0,-0.1875 0.0474,-0.65349 0.0903,-1.31169 0.125,-1.96875 0.006,-0.11421 0.0255,-0.22944 0.0312,-0.34375 5.1e-4,-0.0103 -5e-4,-0.021 0,-0.0312 0.0387,-0.76781 0.0726,-1.54004 0.0937,-2.3125 9e-4,-0.0342 -9e-4,-0.0596 0,-0.0937 9e-5,-0.0483 -4e-5,-0.081 0,-0.125 0.008,-0.31325 -0.005,-0.62352 0,-0.9375 0.021,-10.67233 0.028,-23.05015 0.0312,-37.46875 0.003,-14.4186 0,-30.88391 0,-49.65625 l 0,-151.375 -5,-5 z"
         transform="translate(1532.187,-330.41615)"
         id="rect6809-2-3-9" />
      <path
         inkscape:connector-curvature="0"
         style="opacity:0.2;color:#000000;fill:url(#linearGradient4343);fill-opacity:1;fill-rule:nonzero;stroke:none;stroke-width:1.5;marker:none;visibility:visible;display:inline;overflow:visible;enable-background:accumulate"
         d="m 112.90625,20.15625 c -0.78928,0.04273 -1.59089,0.09519 -2.375,0.15625 -3.92057,0.305292 -7.75568,0.845943 -11.53125,1.59375 -1.51023,0.299123 -3.015922,0.633019 -4.5,1 -2.226117,0.550471 -4.431221,1.176579 -6.59375,1.875 -2.162529,0.698421 -4.281752,1.471807 -6.375,2.3125 -0.697749,0.280231 -1.40412,0.579382 -2.09375,0.875 -7.585925,3.251802 -14.674682,7.413991 -21.125,12.375 -1.172785,0.902002 -2.307739,1.828213 -3.4375,2.78125 -5.083924,4.288666 -9.725026,9.084055 -13.84375,14.3125 -1.372908,1.742815 -2.683225,3.539121 -3.9375,5.375 -0.109552,0.160436 -0.235127,0.307628 -0.34375,0.46875 -0.306456,0.454303 -0.607242,0.915291 -0.90625,1.375 -0.808977,1.243759 -1.590452,2.530323 -2.34375,3.8125 -0.166868,0.284301 -0.335918,0.557614 -0.5,0.84375 -0.207159,0.360853 -0.391059,0.730006 -0.59375,1.09375 -0.184795,0.331891 -0.381451,0.665735 -0.5625,1 -0.170654,0.314981 -0.332698,0.620433 -0.5,0.9375 -0.347966,0.659456 -0.697942,1.331675 -1.03125,2 -0.666617,1.33665 -1.29953,2.691638 -1.90625,4.0625 -0.879859,1.988008 -1.719204,4.006876 -2.46875,6.0625 -0.02575,0.07061 -0.03691,0.148066 -0.0625,0.21875 -0.255282,0.70525 -0.51044,1.412248 -0.75,2.125 -0.0063,0.0187 0.0063,0.04379 0,0.0625 -0.478277,1.425001 -0.929585,2.858721 -1.34375,4.3125 -0.01792,0.06293 -0.0447,0.124518 -0.0625,0.1875 -0.188998,0.668565 -0.356058,1.325628 -0.53125,2 -0.02999,0.115391 -0.06417,0.228192 -0.09375,0.34375 -0.160255,0.626112 -0.320519,1.275303 -0.46875,1.90625 -0.14068,0.598804 -0.276512,1.178203 -0.40625,1.78125 -0.05606,0.260594 -0.102244,0.519878 -0.15625,0.78125 -0.01964,0.09505 -0.04314,0.186096 -0.0625,0.28125 -0.11135,0.546937 -0.210215,1.105987 -0.3125,1.65625 -0.04812,0.25885 -0.110151,0.52168 -0.15625,0.78125 -0.0886,0.49905 -0.168912,0.99832 -0.25,1.5 -0.05057,0.31267 -0.108609,0.62383 -0.15625,0.9375 -0.06911,0.45519 -0.124613,0.91774 -0.1875,1.375 -0.105954,0.7704 -0.193117,1.53638 -0.28125,2.3125 -0.08813,0.77612 -0.179899,1.56213 -0.25,2.34375 -0.06483,0.72436 -0.138327,1.45861 -0.1875,2.1875 -0.0098,0.14554 -0.02206,0.29179 -0.03125,0.4375 -0.04238,0.67171 -0.0648,1.35586 -0.09375,2.03125 -8.89e-4,0.0208 8.77e-4,0.0417 0,0.0625 -2.7e-5,0.008 2.7e-5,0.0229 0,0.0312 C 19.995828,144.52902 20,188.32263 20,256.0625 c 0,67.69194 -0.0033,111.44271 0.09375,141.84375 1.07e-4,0.0334 -1.07e-4,0.0917 0,0.125 0.0022,0.0524 -0.0023,0.10389 0,0.15625 0.0084,0.18714 0.02184,0.37564 0.03125,0.5625 0.06227,1.26024 0.141148,2.503 0.25,3.75 0.01815,0.20793 0.04307,0.41745 0.0625,0.625 0.06314,0.66992 0.142352,1.33415 0.21875,2 0.0023,0.0206 -0.0024,0.0419 0,0.0625 0.08856,0.77298 0.206258,1.51395 0.3125,2.28125 0.107671,0.77762 0.218135,1.57218 0.34375,2.34375 0.110714,0.67613 0.219415,1.35992 0.34375,2.03125 0.01731,0.0939 0.04493,0.18743 0.0625,0.28125 0.08949,0.47548 0.184986,0.96451 0.28125,1.4375 0.115748,0.56872 0.218291,1.12246 0.34375,1.6875 0.05136,0.2313 0.103277,0.45683 0.15625,0.6875 0.05544,0.24229 0.130278,0.47716 0.1875,0.71875 0.168714,0.71001 0.347315,1.42115 0.53125,2.125 0.01079,0.0414 0.02041,0.0836 0.03125,0.125 0.153969,0.58602 0.304342,1.16838 0.46875,1.75 0.04405,0.15622 0.08021,0.31285 0.125,0.46875 0.179375,0.62283 0.371264,1.2574 0.5625,1.875 0.03482,0.11268 0.05854,0.23125 0.09375,0.34375 0.205574,0.65538 0.437456,1.2882 0.65625,1.9375 0.256854,0.76225 0.50641,1.52761 0.78125,2.28125 0.01464,0.0402 0.01656,0.0848 0.03125,0.125 0.261099,0.71305 0.535514,1.41991 0.8125,2.125 0.277337,0.70739 0.58189,1.42582 0.875,2.125 0.07796,0.1855 0.139688,0.37759 0.21875,0.5625 0.247548,0.57897 0.522992,1.14564 0.78125,1.71875 0.27616,0.61378 0.555456,1.23682 0.84375,1.84375 0.05022,0.10551 0.105669,0.2072 0.15625,0.3125 0.296257,0.61798 0.597551,1.2331 0.90625,1.84375 0.104796,0.20699 0.206286,0.41886 0.3125,0.625 0.310007,0.60166 0.646774,1.18698 0.96875,1.78125 0.377433,0.69663 0.762605,1.40751 1.15625,2.09375 0.251968,0.43977 0.491461,0.87707 0.75,1.3125 0.144428,0.24294 0.291042,0.47718 0.4375,0.71875 0.409604,0.6756 0.82469,1.33529 1.25,2 0.85062,1.32942 1.744326,2.65318 2.65625,3.9375 0.199452,0.28119 0.39142,0.56478 0.59375,0.84375 0.259527,0.35745 0.517035,0.70874 0.78125,1.0625 0.470908,0.63051 0.951899,1.2564 1.4375,1.875 0.971202,1.2372 1.971546,2.43695 3,3.625 0.514227,0.59403 1.03434,1.19989 1.5625,1.78125 1.056321,1.16272 2.139466,2.29572 3.25,3.40625 1.105203,1.1052 2.218105,2.19849 3.375,3.25 0.0056,0.005 0.02567,-0.005 0.03125,0 1.744081,1.58448 3.550447,3.1057 5.40625,4.5625 16.595324,13.02732 37.53268,20.80712 60.34375,20.90625 0.14694,6.4e-4 0.2904,0 0.4375,0 l 139.3125,-0.21875 145.40625,-0.21875 c 30.1265,-2.8202 56.21626,-19.12761 72.21875,-42.84375 0.44099,-0.65356 0.88696,-1.30404 1.3125,-1.96875 0.29883,-0.46679 0.5839,-0.93407 0.875,-1.40625 0.12249,-0.19908 0.25389,-0.39372 0.375,-0.59375 0.0486,-0.0801 0.0766,-0.16976 0.125,-0.25 0.35959,-0.59664 0.71533,-1.17635 1.0625,-1.78125 0.78772,-1.37249 1.55891,-2.77397 2.28125,-4.1875 0.36117,-0.70677 0.71805,-1.4396 1.0625,-2.15625 0.34445,-0.71665 0.67253,-1.42998 1,-2.15625 0.9824,-2.17882 1.89373,-4.39533 2.71875,-6.65625 0.0158,-0.0433 0.0468,-0.0817 0.0625,-0.125 0.25824,-0.71082 0.4765,-1.43778 0.71875,-2.15625 0.23268,-0.69009 0.46976,-1.36554 0.6875,-2.0625 0.0226,-0.0724 0.0401,-0.14628 0.0625,-0.21875 0.41412,-1.33658 0.79806,-2.7018 1.15625,-4.0625 0.0547,-0.20856 0.10288,-0.41589 0.15625,-0.625 0.20151,-0.78658 0.41125,-1.58082 0.59375,-2.375 0.1825,-0.79418 0.33676,-1.57347 0.5,-2.375 0.16324,-0.80153 0.32503,-1.62888 0.46875,-2.4375 0.14372,-0.80862 0.2823,-1.62203 0.40625,-2.4375 0.0414,-0.2723 0.0858,-0.53945 0.125,-0.8125 0.0775,-0.54368 0.15007,-1.07843 0.21875,-1.625 0.0263,-0.20779 0.0375,-0.4168 0.0625,-0.625 0.073,-0.61274 0.15696,-1.22753 0.21875,-1.84375 0.0146,-0.14477 0.0173,-0.29255 0.0312,-0.4375 0.0731,-0.7627 0.1318,-1.51345 0.1875,-2.28125 0.0557,-0.7678 0.11812,-1.53979 0.15625,-2.3125 0.0392,-0.77814 0.0726,-1.56082 0.0937,-2.34375 9e-4,-0.0342 -9e-4,-0.0596 0,-0.0937 7e-5,-0.0363 -4e-5,-0.06 0,-0.0937 0.008,-0.32368 -0.005,-0.64428 0,-0.96875 0.021,-10.67233 0.028,-23.05015 0.0312,-37.46875 0.003,-14.4186 0,-30.88391 0,-49.65625 l 0,-151.375 -5,-5 0,234 C 487,439.0725 444.0725,482 390.75,482 l -269.5,0 C 67.9275,482 25,439.0725 25,385.75 l 0,-269.5 c 0,-51.518951 40.071412,-93.32402 90.875,-96.09375 -0.86176,0.0023 -2.12816,-0.0024 -2.96875,0 z"
         transform="translate(1532.187,-330.41615)"
         id="path3981-7-4" />
    </g>
  </g>
  <path
     style="fill:#000000;fill-opacity:0.23529412;fill-rule:nonzero;stroke:none"
     d="m 354.75455,20.00002 0,102.41188 c 0,9.76473 4.10043,18.55464 10.6718,24.77607 l 125.87739,125.90858 0,-116.54735 -68.27459,-68.27459 z"
     id="path6657"
     inkscape:connector-curvature="0"
     sodipodi:nodetypes="csccccc" />
  <path
     id="path24"
     style="color:#000000;fill:#ff9191;fill-opacity:1;fill-rule:nonzero;stroke:none;marker:none;visibility:visible;display:inline;overflow:visible;enable-background:new;stroke-width:6;opacity:1"
     d="m 354.75777,20.00001 0,102.4044 c 0,18.85378 15.28102,34.1348 34.13478,34.1348 l 102.4044,0 -136.53918,-136.5392"
     inkscape:connector-curvature="0" />
  <path
     style="color:#000000;fill:#000000;fill-opacity:0.23529412;fill-rule:nonzero;stroke:none;stroke-width:6;marker:none;visibility:visible;display:inline;overflow:visible;enable-background:new"
     d="M 214.46875 134 C 154.56524 134 106 182.56524 106 242.46875 C 106 272.09529 117.90152 298.92359 137.15625 318.5 L 214.46875 395.875 L 214.46875 434 L 272.5 492 L 393.65625 492 C 448.13292 492 492 448.13291 492 393.65625 L 492 328.53125 L 406 242.46875 L 367.875 242.46875 L 290.5 165.15625 C 270.92249 145.90042 244.09529 134 214.46875 134 z "
     id="path14260" />
  <g
     id="g17509"
     transform="translate(7.2888183e-5,28)">
    <rect
       style="color:#000000;fill:#b4100b;fill-opacity:1;fill-rule:nonzero;stroke:none;stroke-width:6;marker:none;visibility:visible;display:inline;overflow:visible;enable-background:new"
       id="rect3875"
       width="191.53516"
       height="191.53516"
       x="214.4648"
       y="214.4648"
       ry="0" />
    <path
       sodipodi:type="arc"
       style="color:#000000;fill:#ffffff;fill-opacity:1;fill-rule:nonzero;stroke:none;stroke-width:6;marker:none;visibility:visible;display:inline;overflow:visible;enable-background:new"
       id="path3877"
       sodipodi:cx="308"
       sodipodi:cy="240"
       sodipodi:rx="8"
       sodipodi:ry="8"
       d="m 316,240 c 0,4.41828 -3.58172,8 -8,8 -4.41828,0 -8,-3.58172 -8,-8 0,-4.41828 3.58172,-8 8,-8 4.41828,0 8,3.58172 8,8 z"
       transform="matrix(13.558106,0,0,13.558106,-3961.4319,-3039.4807)" />
    <rect
       ry="0"
       y="214.4648"
       x="214.4648"
       height="180.77475"
       width="180.77475"
       id="rect3879"
       style="opacity:0.4;color:#000000;fill:#b4100b;fill-opacity:1;fill-rule:nonzero;stroke:none;stroke-width:6;marker:none;visibility:visible;display:inline;overflow:visible;enable-background:new" />
  </g>
</svg>
