<?xml version="1.0" encoding="UTF-8" standalone="no"?>
<!-- Created with Inkscape (http://www.inkscape.org/) -->

<svg
   xmlns:dc="http://purl.org/dc/elements/1.1/"
   xmlns:cc="http://creativecommons.org/ns#"
   xmlns:rdf="http://www.w3.org/1999/02/22-rdf-syntax-ns#"
   xmlns:svg="http://www.w3.org/2000/svg"
   xmlns="http://www.w3.org/2000/svg"
   xmlns:xlink="http://www.w3.org/1999/xlink"
   xmlns:sodipodi="http://sodipodi.sourceforge.net/DTD/sodipodi-0.dtd"
   xmlns:inkscape="http://www.inkscape.org/namespaces/inkscape"
   width="512"
   height="512"
   id="svg2"
   version="1.1"
   inkscape:version="0.48.3.1 r9886"
   sodipodi:docname="omg-ubuntu.svg"
   inkscape:export-filename="/home/alecive/Scrivania/launcher_bfb.png"
   inkscape:export-xdpi="8.8000002"
   inkscape:export-ydpi="8.8000002">
  <sodipodi:namedview
     id="base"
     pagecolor="#ffffff"
     bordercolor="#666666"
     borderopacity="1.0"
     inkscape:pageopacity="0.0"
     inkscape:pageshadow="2"
     inkscape:zoom="0.92945441"
     inkscape:cx="288.75013"
     inkscape:cy="184.34377"
     inkscape:document-units="px"
     inkscape:current-layer="svg2"
     showgrid="false"
     inkscape:window-width="1301"
     inkscape:window-height="744"
     inkscape:window-x="65"
     inkscape:window-y="24"
     inkscape:window-maximized="1"
     inkscape:object-paths="false"
     inkscape:snap-intersection-paths="false"
     inkscape:object-nodes="true"
     inkscape:snap-smooth-nodes="true"
     inkscape:snap-nodes="true" />
  <defs
     id="defs4">
    <linearGradient
       id="XMLID_74_-8-1"
       gradientUnits="userSpaceOnUse"
       x1="64.477501"
       y1="56.3008"
       x2="78.466103"
       y2="48.0854">
      <stop
         offset="0"
         style="stop-color:#ffffff;stop-opacity:1;"
         id="stop155-3-8" />
      <stop
         offset="1"
         style="stop-color:#e6e6e6;stop-opacity:1;"
         id="stop157-94-6" />
    </linearGradient>
    <radialGradient
       inkscape:collect="always"
       xlink:href="#XMLID_74_-8-1"
       id="radialGradient3867"
       cx="558.35437"
       cy="385.4841"
       fx="558.35437"
       fy="385.4841"
       r="191.6187"
       gradientTransform="matrix(1,0,0,1.0499906,0,-19.270593)"
       gradientUnits="userSpaceOnUse" />
    <linearGradient
       id="SVGID_2_"
       gradientUnits="userSpaceOnUse"
       x1="200.0508"
       y1="185.0742"
       x2="200.0508"
       y2="217.4595">
      <stop
         offset="0"
         style="stop-color:#61B74A"
         id="stop13" />
      <stop
         offset="1"
         style="stop-color:#449934"
         id="stop15" />
    </linearGradient>
    <linearGradient
       y2="217.4595"
       x2="200.0508"
       y1="185.0742"
       x1="200.0508"
       gradientTransform="matrix(13.577628,0,0,13.577628,-2026.1619,-2566.7096)"
       gradientUnits="userSpaceOnUse"
       id="linearGradient3021"
       xlink:href="#SVGID_2_"
       inkscape:collect="always" />
    <linearGradient
       inkscape:collect="always"
       xlink:href="#SVGID_2_"
       id="linearGradient3017"
       gradientUnits="userSpaceOnUse"
       gradientTransform="matrix(9.2574736,0,0,9.2574736,-1595.9285,-1607.2111)"
       x1="200.0508"
       y1="185.0742"
       x2="200.0508"
       y2="217.4595" />
    <linearGradient
       gradientUnits="userSpaceOnUse"
       y2="464"
       x2="259.99384"
       y1="44"
       x1="259.99384"
       id="linearGradient3803"
       xlink:href="#SVGID_2_"
       inkscape:collect="always" />
    <linearGradient
       inkscape:collect="always"
       xlink:href="#linearGradient4487"
       id="linearGradient4082"
       gradientUnits="userSpaceOnUse"
       gradientTransform="translate(-146.22032,369.08845)"
       x1="1016.1035"
       y1="476.25983"
       x2="1011.9534"
       y2="251.66064" />
    <linearGradient
       id="linearGradient4487">
      <stop
         id="stop4489"
         style="stop-color:#000000;stop-opacity:1"
         offset="0" />
      <stop
         id="stop4491"
         style="stop-color:#000000;stop-opacity:0"
         offset="1" />
    </linearGradient>
    <linearGradient
       id="linearGradient3737">
      <stop
         id="stop3739"
         style="stop-color:#ffffff;stop-opacity:1"
         offset="0" />
      <stop
         id="stop3741"
         style="stop-color:#ffffff;stop-opacity:0"
         offset="1" />
    </linearGradient>
    <linearGradient
       id="linearGradient4046">
      <stop
         id="stop4048"
         style="stop-color:#000000;stop-opacity:1;"
         offset="0" />
      <stop
         id="stop4050"
         style="stop-color:#ffffff;stop-opacity:0.2"
         offset="1" />
    </linearGradient>
    <linearGradient
       x1="45.447727"
       y1="92.539597"
       x2="45.447727"
       y2="7.0165396"
       id="ButtonShadow-0-1-1-5"
       gradientUnits="userSpaceOnUse"
       gradientTransform="matrix(1.0058652,0,0,0.994169,100,0)">
      <stop
         id="stop3750-8-9-3-6"
         style="stop-color:#000000;stop-opacity:1"
         offset="0" />
      <stop
         id="stop3752-5-6-4-2"
         style="stop-color:#000000;stop-opacity:0.58823532"
         offset="1" />
    </linearGradient>
    <linearGradient
       x1="45.447727"
       y1="92.539597"
       x2="45.447727"
       y2="7.0165396"
       id="linearGradient3395"
       gradientUnits="userSpaceOnUse"
       gradientTransform="matrix(1.0058652,0,0,0.994169,100,0)">
      <stop
         id="stop3397"
         style="stop-color:#000000;stop-opacity:1"
         offset="0" />
      <stop
         id="stop3399"
         style="stop-color:#000000;stop-opacity:0.58823532"
         offset="1" />
    </linearGradient>
    <linearGradient
       x1="45.447727"
       y1="92.539597"
       x2="45.447727"
       y2="7.0165396"
       id="linearGradient3402"
       gradientUnits="userSpaceOnUse"
       gradientTransform="matrix(1.0058652,0,0,0.994169,100,0)">
      <stop
         id="stop3404"
         style="stop-color:#000000;stop-opacity:1"
         offset="0" />
      <stop
         id="stop3406"
         style="stop-color:#000000;stop-opacity:0.58823532"
         offset="1" />
    </linearGradient>
    <linearGradient
       x1="45.447727"
       y1="92.539597"
       x2="45.447727"
       y2="7.0165396"
       id="linearGradient3409"
       gradientUnits="userSpaceOnUse"
       gradientTransform="matrix(1.0058652,0,0,0.994169,100,0)">
      <stop
         id="stop3411"
         style="stop-color:#000000;stop-opacity:1"
         offset="0" />
      <stop
         id="stop3413"
         style="stop-color:#000000;stop-opacity:0.58823532"
         offset="1" />
    </linearGradient>
    <linearGradient
       y2="20.625916"
       x2="1006.8082"
       y1="484.41721"
       x1="1012.5133"
       gradientTransform="matrix(1.0074153,0,0,1.0074153,-810.48879,593.1369)"
       gradientUnits="userSpaceOnUse"
       id="linearGradient5342"
       xlink:href="#ButtonShadow-0-1-1-5"
       inkscape:collect="always" />
    <linearGradient
       x1="45.447727"
       y1="92.539597"
       x2="45.447727"
       y2="7.0165396"
       id="linearGradient3416"
       gradientUnits="userSpaceOnUse"
       gradientTransform="matrix(1.0058652,0,0,0.994169,100,0)">
      <stop
         id="stop3418"
         style="stop-color:#000000;stop-opacity:1"
         offset="0" />
      <stop
         id="stop3420"
         style="stop-color:#000000;stop-opacity:0.58823532"
         offset="1" />
    </linearGradient>
    <linearGradient
       inkscape:collect="always"
       xlink:href="#ButtonShadow-0-1-1-5"
       id="linearGradient15523"
       gradientUnits="userSpaceOnUse"
       gradientTransform="matrix(1.0317796,0,0,1.0317796,-830.86406,592.67791)"
       x1="1012.5133"
       y1="484.41721"
       x2="1006.8082"
       y2="20.625916" />
    <linearGradient
       inkscape:collect="always"
       xlink:href="#ButtonShadow-0-1-1-5"
       id="linearGradient15525"
       gradientUnits="userSpaceOnUse"
       gradientTransform="matrix(1.0402541,0,0,1.0402541,-837.95116,592.51825)"
       x1="1012.5133"
       y1="484.41721"
       x2="1006.8082"
       y2="20.625916" />
    <linearGradient
       inkscape:collect="always"
       xlink:href="#ButtonShadow-0-1-1-5"
       id="linearGradient15527"
       gradientUnits="userSpaceOnUse"
       gradientTransform="matrix(1.023305,0,0,1.023305,-823.77704,592.83757)"
       x1="1012.5133"
       y1="484.41721"
       x2="1006.8082"
       y2="20.625916" />
    <linearGradient
       inkscape:collect="always"
       xlink:href="#ButtonShadow-0-1-1-5"
       id="linearGradient15529"
       gradientUnits="userSpaceOnUse"
       gradientTransform="matrix(1.0148305,0,0,1.0148305,-816.68996,592.99723)"
       x1="1012.5133"
       y1="484.41721"
       x2="1006.8082"
       y2="20.625916" />
    <linearGradient
       inkscape:collect="always"
       xlink:href="#ButtonShadow-0-1-1-5"
       id="linearGradient15531"
       gradientUnits="userSpaceOnUse"
       gradientTransform="matrix(1.0074153,0,0,1.0074153,-810.48879,593.1369)"
       x1="1012.5133"
       y1="484.41721"
       x2="1006.8082"
       y2="20.625916" />
    <linearGradient
       inkscape:collect="always"
       xlink:href="#linearGradient3737"
       id="linearGradient15533"
       gradientUnits="userSpaceOnUse"
       gradientTransform="translate(778.59979,-360.55963)"
       x1="993.43896"
       y1="51.511765"
       x2="988.78552"
       y2="363.73825" />
    <linearGradient
       inkscape:collect="always"
       xlink:href="#linearGradient4046"
       id="linearGradient15535"
       gradientUnits="userSpaceOnUse"
       x1="1764.6487"
       y1="155.59685"
       x2="1763.6903"
       y2="-55.941216" />
  </defs>
  <metadata
     id="metadata7">
    <rdf:RDF>
      <cc:Work
         rdf:about="">
        <dc:format>image/svg+xml</dc:format>
        <dc:type
           rdf:resource="http://purl.org/dc/dcmitype/StillImage" />
        <dc:title></dc:title>
      </cc:Work>
    </rdf:RDF>
  </metadata>
  <g
     transform="translate(0,-540.36218)"
     inkscape:label="Livello 1"
     inkscape:groupmode="layer"
     id="layer1" />
  <g
     id="g4103"
     transform="translate(-11.985063,-592.11719)">
    <rect
       ry="101.45834"
       y="612.11719"
       x="31.985071"
       height="487"
       width="487"
       id="rect6187"
       style="opacity:0.1;color:#000000;fill:url(#linearGradient15523);fill-opacity:1;fill-rule:nonzero;stroke:none;stroke-width:1.5;marker:none;visibility:visible;display:inline;overflow:visible;enable-background:accumulate" />
    <rect
       style="opacity:0.07999998;color:#000000;fill:url(#linearGradient15525);fill-opacity:1;fill-rule:nonzero;stroke:none;stroke-width:1.5;marker:none;visibility:visible;display:inline;overflow:visible;enable-background:accumulate"
       id="rect6191"
       width="491"
       height="491"
       x="31.985071"
       y="612.11719"
       ry="102.29167" />
    <rect
       style="opacity:0.2;color:#000000;fill:url(#linearGradient15527);fill-opacity:1;fill-rule:nonzero;stroke:none;stroke-width:1.5;marker:none;visibility:visible;display:inline;overflow:visible;enable-background:accumulate"
       id="rect6183"
       width="483"
       height="483"
       x="31.985071"
       y="612.11719"
       ry="100.62501" />
    <rect
       ry="99.791664"
       y="612.11719"
       x="31.985071"
       height="479"
       width="479"
       id="rect6179"
       style="opacity:0.25;color:#000000;fill:url(#linearGradient15529);fill-opacity:1;fill-rule:nonzero;stroke:none;stroke-width:1.5;marker:none;visibility:visible;display:inline;overflow:visible;enable-background:accumulate" />
    <rect
       style="opacity:0.25;color:#000000;fill:url(#linearGradient15531);fill-opacity:1;fill-rule:nonzero;stroke:none;stroke-width:1.5;marker:none;visibility:visible;display:inline;overflow:visible;enable-background:accumulate"
       id="rect5574"
       width="475.5"
       height="475.5"
       x="31.985071"
       y="612.11719"
       ry="99.0625" />
  </g>
  <g
     id="g8029">
    <g
       transform="matrix(1.092577,0,0,1.0925926,-23.696353,-23.70371)"
       id="g3013">
      <rect
         style="color:#000000;fill:#f15a24;fill-opacity:1;fill-rule:nonzero;stroke:none;stroke-width:1.5;marker:none;visibility:visible;display:inline;overflow:visible;enable-background:accumulate"
         id="rect4121"
         width="432"
         height="432"
         x="39.996925"
         y="40.000004"
         ry="90" />
      <rect
         ry="90"
         y="40.000004"
         x="39.996925"
         height="432"
         width="432"
         id="rect8012"
         style="color:#000000;fill:#f15a24;fill-opacity:1;fill-rule:nonzero;stroke:none;stroke-width:1.5;marker:none;visibility:visible;display:inline;overflow:visible;enable-background:accumulate" />
    </g>
    <g
       id="g8025" />
  </g>
  <path
     style="color:#000000;fill:#f15a24;fill-opacity:1;fill-rule:nonzero;stroke:none;stroke-width:1.5;marker:none;visibility:visible;display:inline;overflow:visible;enable-background:accumulate"
     d="m 118.3353,19.999998 275.32941,0 c 54.47589,0 98.33193,43.856667 98.33193,98.333332 l 0,275.33333 C 491.99664,448.14333 448.1406,492 393.66471,492 L 118.3353,492 C 63.859408,492 20.003367,448.14333 20.003367,393.66666 l 0,-275.33333 c 0,-54.476665 43.856041,-98.333332 98.331933,-98.333332 z"
     id="rect15556"
     inkscape:connector-curvature="0" />
  <path
     style="font-size:74.80619812px;font-variant:normal;font-weight:900;font-stretch:normal;writing-mode:lr-tb;fill:#000000;fill-opacity:0.23529412;fill-rule:nonzero;stroke:none;display:inline;enable-background:new;font-family:Arial Black;-inkscape-font-specification:Arial-Black"
     d="m 418.5625,163.3125 -26.875,1.25 1.03125,21.65625 0.0937,0.5625 L 380.9062,174.875 c -3.38703,-3.6925 -7.51418,-6.38301 -12.4375,-8 -3.77078,-1.24997 -8.99574,-1.92304 -15.5625,-1.96875 -2.1889,-0.0164 -4.53172,0.0687 -7.03125,0.1875 -10.36882,0.49202 -18.51485,2.42311 -24.5,5.78125 -5.34215,3.02802 -9.68425,6.93603 -13.09375,11.6875 l -12.84375,-13.4692 -36.65625,1.75 -4.90625,25.25 -23.40625,-23.90685 -36.8125,1.8125 1.28125,26.84375 c -0.0323,-0.0307 -0.0613,-0.0631 -0.0937,-0.0937 -0.0102,-0.01 -0.0208,-0.0218 -0.0312,-0.0312 0.1249,0.1249 -14.9118,-14.91991 -14.90625,-14.90625 -8.01634,-7.61661 -18.91953,-11.37054 -32.65625,-11.21875 -0.91584,0.0108 -1.80876,0.049 -2.75,0.0937 -14.68908,0.69697 -25.93086,5.53152 -33.75,14.5625 -7.81926,9.03109 -11.423344,21.33392 -10.6875,36.84375 0.52693,11.10327 3.08754,20.21569 7.59375,27.40625 2.1123,3.37058 4.49551,6.28472 7.125,8.75 l 46.37495,45.90625 -16.125,0.75 0.4375,8.8125 -6.06235,-8.5615 -17.3439,0.84375 1.25,26.625 -20.4685,-25.68755 -17.34375,0.78125 1.5625,33.5625 c 0.131136,2.76196 0.818541,5.87688 2.0625,9.40625 0.770548,2.19343 2.14161,4.33161 4.03125,6.34375 l 133.21875,130.96875 167.28125,0 C 448.13214,492 492,448.13292 492,393.65625 L 492,238 z m -272.03125,33.53125 c 5.38485,-0.008 9.80127,1.88872 13.1875,5.625 3.65086,3.94042 5.70066,10.3383 6.125,19.28125 0.504,10.62801 -0.80938,18.11456 -3.90625,22.375 -3.09703,4.26049 -7.64898,6.52756 -13.65625,6.8125 -5.84274,0.2771 -10.60481,-1.59627 -14.21875,-5.625 -3.57274,-4.03058 -5.51376,-10.84639 -5.96875,-20.4375 -0.45925,-9.67744 0.87741,-16.67846 4.09375,-21.03125 3.21619,-4.35267 7.64423,-6.70125 13.28125,-6.96875 0.36774,-0.0174 0.70351,-0.0307 1.0625,-0.0312 z m 24.28125,122.25 c 2.63407,-0.12492 4.50146,0.25422 5.59375,1.125 1.11775,0.86978 1.70358,2.11326 1.78125,3.75 0.0839,1.7646 -0.40815,3.15905 -1.4375,4.15625 -1.00486,0.97042 -2.85165,1.52763 -5.5625,1.65625 l -7.5625,0.375 -0.5,-10.6875 z M 173,340.4375 c 3.0433,-0.14456 5.18697,0.22168 6.4375,1.1875 1.27481,0.93917 1.92111,2.30647 2,3.96875 0.0848,1.79018 -0.44848,3.21145 -1.625,4.34375 -1.17788,1.10678 -3.3204,1.73302 -6.3125,1.875 l -8.8125,0.4375 -0.53125,-11.40625 z"
     id="path14651"
     inkscape:connector-curvature="0"
     sodipodi:nodetypes="cccccccccccccccccccccscscccccccccccccssccccsccsscccccccccccccccccccc" />
  <path
     style="color:#000000;fill:#ffffff;fill-opacity:1;fill-rule:nonzero;stroke:none;stroke-width:1.5;marker:none;visibility:visible;display:none;overflow:visible;enable-background:accumulate"
     d="m 256.15625,176.03125 c -12.05193,0 -23.46935,2.69365 -33.71875,7.46875 -6.92877,8.55962 -4.91827,15.41064 -12.96875,7.59375 -20.14449,14.51982 -33.28125,38.1785 -33.28125,64.90625 0,26.77286 13.20443,50.45457 33.40625,64.96875 9.94644,1.00524 9.43775,-0.9962 12.96875,7.59375 10.21932,4.7422 21.58599,7.40625 33.59375,7.40625 41.78515,0 76.08405,-32.04775 79.65625,-72.90625 0,0 -1.4661,-1.49607 -0.094,-15.03125 -4.0093,-40.41116 -38.097,-72 -79.56255,-72 z"
     id="rect4121-6"
     inkscape:connector-curvature="0"
     sodipodi:nodetypes="sccsccsccs" />
  <g
     transform="matrix(1.092577,0,0,1.0925926,-23.696353,-23.70371)"
     id="g8016" />
  <path
     inkscape:connector-curvature="0"
     id="path13791"
     d="m 418.56618,163.29797 -26.86765,1.25735 1.02574,21.67279 7.18015,43.21324 16.5772,-0.82721 3.1103,-43.70956 -1.02574,-21.60661 z m -65.64706,1.62132 c -2.1889,-0.0164 -4.54826,0.0466 -7.04779,0.16544 -10.36882,0.49202 -18.50014,2.4323 -24.48529,5.79044 -7.67031,4.34766 -13.33187,10.48062 -17.04044,18.36397 -3.71063,7.84025 -5.38897,16.92909 -4.89706,27.2978 0.46749,9.85031 2.78543,18.48003 6.84926,25.90808 4.10504,7.42609 9.58072,12.88687 16.51103,16.41177 6.97156,3.52297 15.86383,5.04254 26.60294,4.53309 8.72285,-0.414 16.19774,-1.78459 22.43382,-4.20221 6.275,-2.46266 13.38547,-6.85788 21.375,-13.16912 l -1.88603,-40.53308 -43.21323,2.08455 0.89338,19.75368 18.76103,-0.92647 0.36397,8.93382 c -3.5534,2.46355 -6.66933,4.30821 -9.46323,5.39339 -2.79407,1.08518 -5.77367,1.67149 -8.90074,1.81985 -6.58337,0.31253 -11.83777,-1.65867 -15.75,-5.88971 -3.87103,-4.23294 -6.06367,-11.48969 -6.55147,-21.77206 -0.45925,-9.6774 1.02406,-16.85252 4.43382,-21.47426 3.4488,-4.6668 8.22951,-7.12082 14.3603,-7.41176 4.11454,-0.19528 7.56683,0.60641 10.29044,2.38235 2.76455,1.77414 4.774,4.44119 6.05515,7.97426 l 26.7022,-6.35294 c -1.93695,-6.05667 -4.6265,-11.00491 -8.10662,-14.82353 -3.44124,-3.86361 -7.67017,-6.64037 -12.73897,-8.30514 -3.77078,-1.24997 -8.98471,-1.9065 -15.55147,-1.95221 z m -57.47426,4.16912 -36.66176,1.75367 -11.38236,58.5 -16.94117,-57.14338 -36.79412,1.78677 4.56618,94.93014 22.86397,-1.05882 -3.44118,-72.43015 21.07721,71.60294 20.71323,-0.95956 14.22794,-73.29044 3.47427,72.39706 22.79779,-1.05882 -4.5,-95.02941 z m -148.2022,5.49264 c -0.91584,0.0108 -1.80508,0.0545 -2.74632,0.0992 -14.68908,0.69697 -25.93086,5.52784 -33.75,14.55882 -7.81926,9.03109 -11.423344,21.35046 -10.6875,36.86029 0.52693,11.10327 3.10408,20.2065 7.61029,27.39706 4.50623,7.19056 10.17979,12.3223 17.00735,15.41912 6.86864,3.09485 15.33992,4.38856 25.54412,3.90441 10.03953,-0.47617 18.36203,-2.83119 24.88235,-7.08088 6.55925,-4.2948 11.42255,-10.01883 14.625,-17.27206 3.24135,-7.29835 4.59653,-16.52546 4.06985,-27.62868 -0.72565,-15.29383 -5.34849,-26.95909 -13.89705,-35.04044 -8.01634,-7.61661 -18.92137,-11.3687 -32.65809,-11.21691 z m -1.78677,22.30147 c 5.88379,-0.27925 10.64905,1.60655 14.26103,5.59192 3.65086,3.94042 5.69699,10.34749 6.12133,19.29044 0.504,10.62801 -0.80755,18.1072 -3.90442,22.36764 -3.09703,4.26049 -7.65817,6.53124 -13.66544,6.81618 -5.84274,0.2771 -10.58091,-1.59627 -14.19485,-5.625 -3.57274,-4.03058 -5.53398,-10.85742 -5.98897,-20.44853 -0.45925,-9.67744 0.8866,-16.69133 4.10294,-21.04412 3.21619,-4.35267 7.63136,-6.68103 13.26838,-6.94853 z m 275.65808,38.18383 -25.08088,1.19117 1.15809,23.26103 25.01471,-1.19117 -1.09192,-23.26103 z"
     style="font-size:74.80619812px;font-variant:normal;font-weight:900;font-stretch:normal;writing-mode:lr-tb;fill:#ffffff;fill-opacity:1;fill-rule:nonzero;stroke:none;display:inline;enable-background:new;font-family:Arial Black;-inkscape-font-specification:Arial-Black" />
  <path
     inkscape:connector-curvature="0"
     id="path13779"
     d="m 443.38236,294.7759 -16.67647,0.76103 0.59558,12.83824 4.40074,25.5772 10.29044,-0.49632 1.98529,-25.90809 -0.59558,-12.77206 z m -21.34191,0.95956 -17.33824,0.89339 1.62132,34.27941 c 0.1476,3.12005 -0.58476,5.61706 -2.21691,7.41176 -1.6078,1.76804 -3.89024,2.67052 -6.88235,2.8125 -3.01779,0.14344 -5.3854,-0.58474 -7.18015,-2.21691 -1.77037,-1.65889 -2.73303,-4.01199 -2.87867,-7.08088 l -1.62133,-34.34559 -17.40441,0.86029 1.62132,33.51839 c 0.13114,2.76201 0.8406,5.90073 2.08456,9.43014 0.77046,2.19339 2.114,4.27464 4.00368,6.28677 1.91525,2.01091 3.92601,3.55149 6.15441,4.59926 2.22717,1.02207 4.9984,1.6884 8.23897,1.91912 3.26607,0.22964 6.26355,0.22907 9,0.0992 4.73117,-0.22474 8.76084,-1.03525 12.07721,-2.44853 2.38711,-1.01034 4.62191,-2.65955 6.71691,-4.96323 2.11936,-2.33051 3.61645,-4.98469 4.5,-7.97427 0.90765,-3.01631 1.28273,-6.20475 1.125,-9.52941 l -1.62132,-33.55142 z m -55.85294,2.68015 -52.84191,2.54779 0.69485,13.86397 17.7022,-0.86029 2.01839,42.35294 17.37132,-0.8272 -1.9853,-42.35294 17.70221,-0.82721 -0.66176,-13.89706 z m -54.52941,2.58088 -16.37868,0.76103 1.48897,31.13603 -22.66544,-30.11029 -16.24632,0.76103 2.64705,56.21691 16.37868,-0.72794 -1.45588,-30.90441 22.53309,29.91176 16.34558,-0.79412 -2.64705,-56.25 z m -59.52574,2.8125 -17.33823,0.82721 1.62132,34.34559 c 0.1476,3.12004 -0.58477,5.55088 -2.21691,7.34558 -1.60786,1.76799 -3.89025,2.73676 -6.88235,2.87868 -3.01779,0.14343 -5.41849,-0.58476 -7.21324,-2.21691 -1.77048,-1.65896 -2.76623,-4.012 -2.91176,-7.08088 l -1.62133,-34.34559 -17.33823,0.79412 1.62132,33.55147 c 0.13115,2.76201 0.80747,5.93387 2.05147,9.46323 0.77045,2.19344 2.0809,4.27459 3.97059,6.28677 1.91525,2.01087 3.99214,3.55155 6.22059,4.59926 2.22716,1.02211 4.99845,1.62223 8.23897,1.85294 3.26601,0.22937 6.23051,0.29504 8.96691,0.16544 4.73117,-0.22422 8.79392,-1.03524 12.11029,-2.44853 2.38702,-1.01034 4.58873,-2.69265 6.68383,-4.99632 2.11932,-2.33051 3.6165,-4.95165 4.5,-7.94118 0.90771,-3.01631 1.31582,-6.20475 1.15809,-9.52941 l -1.62133,-33.55147 z m -72.59558,3.54044 c -0.64008,-0.0108 -1.27449,1.6e-4 -1.95221,0.033 l -32.55882,1.52206 2.71323,56.25 29.94485,-1.4228 c 1.27862,-0.0607 3.92026,-0.42768 7.80883,-1.125 2.92278,-0.52308 5.06756,-1.27076 6.48529,-2.18382 2.28842,-1.46705 4.08213,-3.3989 5.32721,-5.79044 1.24493,-2.39155 1.75961,-5.05887 1.62132,-7.97427 -0.16972,-3.58037 -1.27924,-6.44036 -3.30882,-8.7022 -2.0054,-2.28862 -5.01255,-3.81916 -9.09927,-4.59927 2.61596,-1.04683 4.55081,-2.41871 5.85662,-4.06985 1.95861,-2.47664 2.87102,-5.41064 2.71324,-8.73529 -0.18823,-3.96398 -1.78812,-7.18094 -4.83089,-9.72794 -2.64019,-2.22966 -6.23961,-3.39245 -10.72058,-3.47427 z m -40.13603,1.81986 -17.33824,0.8272 1.62133,34.34559 c 0.1476,3.12006 -0.58482,5.58392 -2.21692,7.37868 -1.60785,1.76798 -3.95636,2.70361 -6.94853,2.84558 -3.01777,0.14292 -5.38544,-0.58475 -7.18014,-2.21691 -1.77043,-1.65895 -2.73309,-4.01199 -2.87868,-7.08088 l -1.62132,-34.34559 -17.338237,0.79412 1.555147,33.55147 c 0.131136,2.76196 0.8406,5.90078 2.084559,9.43015 0.770548,2.19343 2.114036,4.30771 4.003676,6.31985 1.915253,2.01095 3.992189,3.55156 6.220588,4.59926 2.227107,1.02215 4.932237,1.62224 8.172797,1.85295 3.26608,0.22988 6.26353,0.29504 9,0.16544 4.73117,-0.22423 8.76094,-1.03523 12.0772,-2.44853 2.38706,-1.01037 4.62182,-2.65949 6.71691,-4.96324 2.11932,-2.33051 3.68274,-4.98473 4.56618,-7.97426 0.90776,-3.0163 1.2165,-6.20476 1.05882,-9.52941 l -1.55514,-33.55147 z m 31.40073,9.92647 c 2.63407,-0.12492 4.49962,0.25422 5.59191,1.125 1.11775,0.86978 1.7091,2.10223 1.78677,3.73897 0.0839,1.7646 -0.39345,3.17192 -1.4228,4.16912 -1.00486,0.97042 -2.84797,1.52579 -5.55882,1.65441 l -7.57721,0.36397 -0.49632,-10.6875 7.67647,-0.36397 z m 274.03676,18.13235 -15.58456,0.76103 0.69485,13.7647 15.55147,-0.76102 -0.66176,-13.76471 z m -271.85294,3.20956 c 3.0433,-0.14456 5.20168,0.22535 6.45221,1.19117 1.27481,0.93917 1.9064,2.30831 1.98529,3.97059 0.0848,1.79018 -0.4448,3.20226 -1.62132,4.33456 -1.17788,1.10678 -3.29466,1.74405 -6.28676,1.88603 l -8.83456,0.43015 -0.52941,-11.41544 8.83455,-0.39706 z"
     style="font-size:74.80619812px;font-variant:normal;font-weight:900;font-stretch:normal;writing-mode:lr-tb;fill:#ffffff;fill-opacity:1;fill-rule:nonzero;stroke:none;display:inline;enable-background:new;font-family:Arial Black;-inkscape-font-specification:Arial-Black" />
  <g
     id="g15560" />
  <g
     id="g4076"
     transform="translate(-605.51931,-353.96832)">
    <g
       transform="translate(-926.66758,684.38448)"
       id="g4038">
      <path
         inkscape:connector-curvature="0"
         style="opacity:0.5;color:#000000;fill:url(#linearGradient15533);fill-opacity:1;fill-rule:nonzero;stroke:none;stroke-width:1.5;marker:none;visibility:visible;display:inline;overflow:visible;enable-background:accumulate"
         d="m 1650.4994,-310.41615 c -54.4767,0 -98.3125,43.83583 -98.3125,98.3125 l 0,275.343747 c 0,54.476673 43.8358,98.343753 98.3125,98.343753 l 2.9375,0 c -53.3225,0 -96.25,-42.9275 -96.25,-96.250003 l 0,-269.499997 c 0,-53.3225 42.9275,-96.25 96.25,-96.25 l 269.5001,0 c 53.3225,0 96.25,42.9275 96.25,96.25 l 0,269.499997 c 0,53.322503 -42.9275,96.250003 -96.25,96.250003 l 2.9062,0 c 54.4767,0 98.3438,-43.86708 98.3438,-98.343753 l 0,-275.343747 c 0,-54.47667 -43.8671,-98.3125 -98.3438,-98.3125 l -275.3438,0 z"
         id="rect6809-2" />
      <path
         id="path3981"
         d="m 1650.4994,161.58385 c -54.4767,0 -98.3125,-43.83583 -98.3125,-98.312503 l 0,-275.343747 c 0,-54.47667 43.8358,-98.34375 98.3125,-98.34375 l 2.9375,0 c -53.3225,0 -96.25,42.9275 -96.25,96.25 l 0,269.499997 c 0,53.322503 42.9275,96.250003 96.25,96.250003 l 269.5001,0 c 53.3225,0 96.25,-42.9275 96.25,-96.250003 l 0,-269.499997 c 0,-53.3225 -42.9275,-96.25 -96.25,-96.25 l 2.9062,0 c 54.4767,0 98.3438,43.86708 98.3438,98.34375 l 0,275.343747 c 0,54.476673 -43.8671,98.312503 -98.3438,98.312503 l -275.3438,0 z"
         style="opacity:0.2;color:#000000;fill:url(#linearGradient15535);fill-opacity:1;fill-rule:nonzero;stroke:none;stroke-width:1.5;marker:none;visibility:visible;display:inline;overflow:visible;enable-background:accumulate"
         inkscape:connector-curvature="0" />
    </g>
  </g>
</svg>
