<?xml version="1.0" encoding="UTF-8" standalone="no"?>
<!-- Created with Inkscape (http://www.inkscape.org/) -->

<svg
   xmlns:dc="http://purl.org/dc/elements/1.1/"
   xmlns:cc="http://creativecommons.org/ns#"
   xmlns:rdf="http://www.w3.org/1999/02/22-rdf-syntax-ns#"
   xmlns:svg="http://www.w3.org/2000/svg"
   xmlns="http://www.w3.org/2000/svg"
   xmlns:xlink="http://www.w3.org/1999/xlink"
   xmlns:sodipodi="http://sodipodi.sourceforge.net/DTD/sodipodi-0.dtd"
   xmlns:inkscape="http://www.inkscape.org/namespaces/inkscape"
   inkscape:export-ydpi="100"
   inkscape:export-xdpi="100"
   inkscape:export-filename="/home/alecive/Scrivania/firefoxTest1.png"
   sodipodi:docname="printer.svg"
   inkscape:version="0.48.3.1 r9886"
   version="1.1"
   id="svg2"
   height="512"
   width="512">
  <sodipodi:namedview
     id="base"
     pagecolor="#ffffff"
     bordercolor="#666666"
     borderopacity="1.0"
     inkscape:pageopacity="0.0"
     inkscape:pageshadow="2"
     inkscape:zoom="7.9063679"
     inkscape:cx="104.67635"
     inkscape:cy="61.540508"
     inkscape:document-units="px"
     inkscape:current-layer="svg2"
     showgrid="false"
     inkscape:window-width="1301"
     inkscape:window-height="744"
     inkscape:window-x="65"
     inkscape:window-y="24"
     inkscape:window-maximized="1"
     inkscape:object-paths="false"
     inkscape:snap-intersection-paths="false"
     inkscape:object-nodes="true"
     inkscape:snap-smooth-nodes="true"
     inkscape:snap-nodes="true"
     inkscape:snap-global="true" />
  <defs
     id="defs4">
    <linearGradient
       inkscape:collect="always"
       xlink:href="#ButtonShadow-0-1-1-5-9"
       id="linearGradient4114-2-6"
       gradientUnits="userSpaceOnUse"
       gradientTransform="matrix(1.0317796,0,0,1.0317796,-830.86406,592.67791)"
       x1="1012.5133"
       y1="484.41721"
       x2="1006.8082"
       y2="20.625916" />
    <linearGradient
       x1="45.447727"
       y1="92.539597"
       x2="45.447727"
       y2="7.0165396"
       id="ButtonShadow-0-1-1-5-9"
       gradientUnits="userSpaceOnUse"
       gradientTransform="matrix(1.0058652,0,0,0.994169,100,0)">
      <stop
         id="stop3750-8-9-3-6-4"
         style="stop-color:#000000;stop-opacity:1"
         offset="0" />
      <stop
         id="stop3752-5-6-4-2-9"
         style="stop-color:#000000;stop-opacity:0.58823532"
         offset="1" />
    </linearGradient>
    <linearGradient
       inkscape:collect="always"
       xlink:href="#ButtonShadow-0-1-1-5-9"
       id="linearGradient4112-2-6"
       gradientUnits="userSpaceOnUse"
       gradientTransform="matrix(1.0402541,0,0,1.0402541,-837.95116,592.51825)"
       x1="1012.5133"
       y1="484.41721"
       x2="1006.8082"
       y2="20.625916" />
    <linearGradient
       inkscape:collect="always"
       xlink:href="#ButtonShadow-0-1-1-5-9"
       id="linearGradient4110-6-7"
       gradientUnits="userSpaceOnUse"
       gradientTransform="matrix(1.023305,0,0,1.023305,-823.77704,592.83757)"
       x1="1012.5133"
       y1="484.41721"
       x2="1006.8082"
       y2="20.625916" />
    <linearGradient
       inkscape:collect="always"
       xlink:href="#ButtonShadow-0-1-1-5-9"
       id="linearGradient4116-6-3"
       gradientUnits="userSpaceOnUse"
       gradientTransform="matrix(1.0148305,0,0,1.0148305,-816.68996,592.99723)"
       x1="1012.5133"
       y1="484.41721"
       x2="1006.8082"
       y2="20.625916" />
    <linearGradient
       y2="20.625916"
       x2="1006.8082"
       y1="484.41721"
       x1="1012.5133"
       gradientTransform="matrix(1.0074153,0,0,1.0074153,-810.48879,593.1369)"
       gradientUnits="userSpaceOnUse"
       id="linearGradient5342-3"
       xlink:href="#ButtonShadow-0-1-1-5-9"
       inkscape:collect="always" />
    <linearGradient
       inkscape:collect="always"
       xlink:href="#linearGradient3737-9"
       id="linearGradient4084-8"
       gradientUnits="userSpaceOnUse"
       gradientTransform="translate(778.59979,-360.55963)"
       x1="993.43896"
       y1="51.511765"
       x2="988.78552"
       y2="363.73825" />
    <linearGradient
       id="linearGradient3737-9">
      <stop
         id="stop3739-7"
         style="stop-color:#ffffff;stop-opacity:1"
         offset="0" />
      <stop
         id="stop3741-4"
         style="stop-color:#ffffff;stop-opacity:0"
         offset="1" />
    </linearGradient>
    <linearGradient
       id="linearGradient4129-1">
      <stop
         style="stop-color:#000000;stop-opacity:0.68627453;"
         offset="0"
         id="stop4131-8" />
      <stop
         style="stop-color:#000000;stop-opacity:0.49019608;"
         offset="1"
         id="stop4133-5" />
    </linearGradient>
    <linearGradient
       id="linearGradient4046-3-3">
      <stop
         id="stop4048-7-4"
         style="stop-color:#000000;stop-opacity:1;"
         offset="0" />
      <stop
         id="stop4050-73-1"
         style="stop-color:#ffffff;stop-opacity:0.2"
         offset="1" />
    </linearGradient>
    <linearGradient
       y2="88.500046"
       x2="49.914211"
       y1="78.138298"
       x1="49.737278"
       gradientTransform="matrix(5.6190476,0,0,5.6190463,-13.714263,-5.285652)"
       gradientUnits="userSpaceOnUse"
       id="linearGradient4044"
       xlink:href="#linearGradient4129-1"
       inkscape:collect="always" />
    <linearGradient
       id="linearGradient4046-3-3-0">
      <stop
         id="stop4048-7-4-2"
         style="stop-color:#000000;stop-opacity:1;"
         offset="0" />
      <stop
         id="stop4050-73-1-4"
         style="stop-color:#ffffff;stop-opacity:0.2"
         offset="1" />
    </linearGradient>
    <linearGradient
       y2="242.28572"
       x2="247.57143"
       y1="392.69867"
       x1="249.50134"
       gradientUnits="userSpaceOnUse"
       id="linearGradient4086"
       xlink:href="#linearGradient4046-3-3-0"
       inkscape:collect="always" />
    <linearGradient
       inkscape:collect="always"
       xlink:href="#linearGradient4046-3-3-0"
       id="linearGradient5075"
       gradientUnits="userSpaceOnUse"
       x1="249.50134"
       y1="392.69867"
       x2="247.57143"
       y2="242.28572" />
    <linearGradient
       inkscape:collect="always"
       xlink:href="#linearGradient3737-9"
       id="linearGradient5077"
       gradientUnits="userSpaceOnUse"
       gradientTransform="translate(778.59979,-360.55963)"
       x1="993.43896"
       y1="51.511765"
       x2="988.78552"
       y2="363.73825" />
    <linearGradient
       inkscape:collect="always"
       xlink:href="#linearGradient4046-3-3-0"
       id="linearGradient5083"
       gradientUnits="userSpaceOnUse"
       x1="249.50134"
       y1="392.69867"
       x2="247.57143"
       y2="242.28572" />
    <linearGradient
       inkscape:collect="always"
       xlink:href="#linearGradient3737-9"
       id="linearGradient5085"
       gradientUnits="userSpaceOnUse"
       gradientTransform="translate(778.59979,-360.55963)"
       x1="993.43896"
       y1="51.511765"
       x2="988.78552"
       y2="363.73825" />
    <linearGradient
       inkscape:collect="always"
       xlink:href="#linearGradient4046-3-3-0"
       id="linearGradient5090"
       gradientUnits="userSpaceOnUse"
       x1="249.50134"
       y1="392.69867"
       x2="247.57143"
       y2="242.28572" />
    <linearGradient
       inkscape:collect="always"
       xlink:href="#linearGradient3737-9"
       id="linearGradient5092"
       gradientUnits="userSpaceOnUse"
       gradientTransform="translate(778.59979,-360.55963)"
       x1="993.43896"
       y1="51.511765"
       x2="988.78552"
       y2="363.73825" />
    <linearGradient
       inkscape:collect="always"
       xlink:href="#linearGradient3737-9"
       id="linearGradient5095"
       gradientUnits="userSpaceOnUse"
       gradientTransform="translate(-753.58721,-30.14348)"
       x1="993.43896"
       y1="51.511765"
       x2="988.78552"
       y2="363.73825" />
    <linearGradient
       inkscape:collect="always"
       xlink:href="#linearGradient4046-3-3-0"
       id="linearGradient5098"
       gradientUnits="userSpaceOnUse"
       x1="249.50134"
       y1="392.69867"
       x2="247.57143"
       y2="242.28572" />
  </defs>
  <metadata
     id="metadata7">
    <rdf:RDF>
      <cc:Work
         rdf:about="">
        <dc:format>image/svg+xml</dc:format>
        <dc:type
           rdf:resource="http://purl.org/dc/dcmitype/StillImage" />
        <dc:title />
      </cc:Work>
    </rdf:RDF>
  </metadata>
  <g
     id="layer1"
     inkscape:groupmode="layer"
     inkscape:label="Livello 1"
     transform="translate(0,-540.36218)" />
  <g
     id="g2036"
     transform="matrix(1.1,0,0,0.44444,95.081063,256.39254)">
    <g
       id="g3712"
       style="opacity:0.4"
       transform="matrix(1.0526,0,0,1.2857,-1.2632,-13.429)" />
  </g>
  <g
     transform="translate(97.481063,231.28154)"
     id="g3541" />
  <g
     transform="translate(97.481063,231.28154)"
     id="g3536" />
  <g
     id="g4103"
     transform="translate(-11.985071,-592.11719)">
    <rect
       ry="101.45834"
       y="612.11719"
       x="31.985071"
       height="487"
       width="487"
       id="rect6187"
       style="opacity:0.1;color:#000000;fill:url(#linearGradient4114-2-6);fill-opacity:1;fill-rule:nonzero;stroke:none;stroke-width:1.5;marker:none;visibility:visible;display:inline;overflow:visible;enable-background:accumulate" />
    <rect
       style="opacity:0.07999998;color:#000000;fill:url(#linearGradient4112-2-6);fill-opacity:1;fill-rule:nonzero;stroke:none;stroke-width:1.5;marker:none;visibility:visible;display:inline;overflow:visible;enable-background:accumulate"
       id="rect6191"
       width="491"
       height="491"
       x="31.985071"
       y="612.11719"
       ry="102.29167" />
    <rect
       style="opacity:0.2;color:#000000;fill:url(#linearGradient4110-6-7);fill-opacity:1;fill-rule:nonzero;stroke:none;stroke-width:1.5;marker:none;visibility:visible;display:inline;overflow:visible;enable-background:accumulate"
       id="rect6183"
       width="483"
       height="483"
       x="31.985071"
       y="612.11719"
       ry="100.62501" />
    <rect
       ry="99.791664"
       y="612.11719"
       x="31.985071"
       height="479"
       width="479"
       id="rect6179"
       style="opacity:0.25;color:#000000;fill:url(#linearGradient4116-6-3);fill-opacity:1;fill-rule:nonzero;stroke:none;stroke-width:1.5;marker:none;visibility:visible;display:inline;overflow:visible;enable-background:accumulate" />
    <rect
       style="opacity:0.25;color:#000000;fill:url(#linearGradient5342-3);fill-opacity:1;fill-rule:nonzero;stroke:none;stroke-width:1.5;marker:none;visibility:visible;display:inline;overflow:visible;enable-background:accumulate"
       id="rect5574"
       width="475.5"
       height="475.5"
       x="31.985071"
       y="612.11719"
       ry="99.0625" />
  </g>
  <path
     style="fill:#6d7983;stroke:none;color:#000000;fill-opacity:1;fill-rule:nonzero;marker:none;visibility:visible;display:inline;overflow:visible;enable-background:accumulate"
     d="M 118.34375,20 C 63.867087,20 20,63.867084 20,118.34375 l 0,23.0625 0,252.25 C 20,448.13291 63.867087,492 118.34375,492 l 275.3125,0 C 448.13292,492 492,448.13291 492,393.65625 l 0,-252.25 0,-23.0625 C 492,63.867084 448.13292,20 393.65625,20 l -275.3125,0 z"
     id="rect5505"
     inkscape:connector-curvature="0" />
  <path
     style="color:#000000;fill:#000000;fill-opacity:0.23529412;fill-rule:nonzero;stroke:none;stroke-width:2;marker:none;visibility:visible;display:inline;overflow:visible;enable-background:accumulate"
     d="m 98.65625,62.46875 c -18.67771,0 -33.71875,15.04104 -33.71875,33.71875 l 0,207.90625 c 0,9.79293 4.156556,18.57021 10.78125,24.71875 L 238.90625,492 l 154.75,0 C 448.13292,492 492,448.13291 492,393.65625 l 0,-252.25 0,-14.21875 -54.46875,-54.46875 c -6.11953,-6.307139 -14.66463,-10.25 -24.1875,-10.25 l -1.0625,0 -312.5625,0 z"
     id="path4182"
     inkscape:connector-curvature="0"
     sodipodi:nodetypes="sssccsscccsccs" />
  <path
     sodipodi:nodetypes="cccccccccccccccccccccccccccccccccccccccccccccccccccccccccccc"
     style="opacity:0.3;color:#000000;fill:#000000;fill-opacity:1;fill-rule:nonzero;stroke:none;stroke-width:2;marker:none;visibility:visible;display:inline;overflow:visible;enable-background:accumulate"
     d="m 121.14286,402.0952 0,78.66665 5.61905,0 0,-78.66665 z m 22.47619,0 0,73.04761 5.61905,0 0,-73.04761 z m 22.47619,0 0,73.04761 5.61905,0 0,-73.04761 z m 22.47619,0 0,73.04761 5.61905,0 0,-73.04761 z m 22.47619,0 0,73.04761 5.61905,0 0,-73.04761 z m 22.47619,0 0,73.04761 5.61905,0 0,-73.04761 z m 39.33334,0 0,73.04761 5.61905,0 0,-73.04761 z m 22.47619,0 0,73.04761 5.61905,0 0,-73.04761 z m 22.47619,0 0,73.04761 5.61905,0 0,-73.04761 z m 22.47619,0 0,73.04761 5.61905,0 0,-73.04761 z m 22.47619,0 0,73.04761 5.61905,0 0,-73.04761 z m 22.47619,0 0,78.66665 5.61905,0 0,-78.66665 z"
     id="path7750"
     inkscape:connector-curvature="0" />
  <path
     sodipodi:nodetypes="cccccccccccccccccccccccccccccccccccccccccccccccccccccccccccc"
     inkscape:connector-curvature="0"
     style="opacity:0.1;color:#000000;fill:#ffffff;fill-opacity:1;fill-rule:nonzero;stroke:none;stroke-width:2;marker:none;visibility:visible;display:inline;overflow:visible;enable-background:accumulate"
     d="m 126.76191,402.0952 0,78.66665 5.61905,0 0,-78.66665 z m 22.47619,0 0,73.04761 5.61905,0 0,-73.04761 z m 22.47619,0 0,73.04761 5.61905,0 0,-73.04761 z m 22.47619,0 0,73.04761 5.61905,0 0,-73.04761 z m 22.47619,0 0,73.04761 5.61905,0 0,-73.04761 z m 22.47619,0 0,73.04761 5.61905,0 0,-73.04761 z m 28.09524,0 0,73.04761 5.61905,0 0,-73.04761 z m 22.47619,0 0,73.04761 5.61905,0 0,-73.04761 z m 22.47619,0 0,73.04761 5.61905,0 0,-73.04761 z m 22.47619,0 0,73.04761 5.61905,0 0,-73.04761 z m 22.47619,0 0,73.04761 5.61905,0 0,-73.04761 z m 22.47619,0 0,78.66665 5.61905,0 0,-78.66665 z"
     id="path7760" />
  <path
     style="opacity:1;color:#000000;fill:url(#linearGradient4044);fill-opacity:1;fill-rule:nonzero;stroke:none;stroke-width:2;marker:none;visibility:visible;display:inline;overflow:visible;enable-background:accumulate"
     d="m 98.656267,402.09375 0,87.9375 C 105.01234,491.31288 111.59935,492 118.34377,492 l 275.3125,0 c 6.74442,0 13.33143,-0.68712 19.6875,-1.96875 l 0,-87.9375 -314.687503,0 z"
     id="path7762"
     inkscape:connector-curvature="0" />
  <path
     style="opacity:0.4;color:#000000;fill:#000000;fill-opacity:1;fill-rule:nonzero;stroke:none;marker:none;visibility:visible;display:inline;overflow:visible;enable-background:accumulate"
     d="m 20,353.65625 0,40 c 0,47.73224 33.672423,87.30455 78.65625,96.375 l 0,-40 C 53.672423,440.9608 20,401.38849 20,353.65625 z m 472,0 c 0,47.73224 -33.67242,87.30455 -78.65625,96.375 l 0,40 C 458.32758,480.9608 492,441.38849 492,393.65625 z"
     id="path3142"
     inkscape:connector-curvature="0"
     sodipodi:nodetypes="csccccccsc" />
  <g
     id="g4076"
     transform="translate(-605.51932,-353.96833)">
    <g
       transform="translate(-926.66758,684.38448)"
       id="g4038" />
  </g>
  <g
     transform="matrix(5.6190476,0,0,5.6190463,-3.71428,-25.285652)"
     id="g48550">
    <path
       inkscape:connector-curvature="0"
       id="path47841"
       d="m 12.7,67.75 c 0.708928,0 1.2,0.484047 1.2,1 0,0.515955 -0.491072,1 -1.2,1 -0.708928,0 -1.2,-0.484045 -1.2,-1 0,-0.515953 0.491072,-1 1.2,-1 z"
       style="font-size:medium;font-style:normal;font-variant:normal;font-weight:normal;font-stretch:normal;text-indent:0;text-align:start;text-decoration:none;line-height:normal;letter-spacing:normal;word-spacing:normal;text-transform:none;direction:ltr;block-progression:tb;writing-mode:lr-tb;text-anchor:start;baseline-shift:baseline;color:#000000;fill:#00ffff;fill-opacity:1;fill-rule:nonzero;stroke:none;stroke-width:1;marker:none;visibility:visible;display:inline;overflow:visible;enable-background:accumulate;font-family:Sans;-inkscape-font-specification:Sans" />
    <path
       style="font-size:medium;font-style:normal;font-variant:normal;font-weight:normal;font-stretch:normal;text-indent:0;text-align:start;text-decoration:none;line-height:normal;letter-spacing:normal;word-spacing:normal;text-transform:none;direction:ltr;block-progression:tb;writing-mode:lr-tb;text-anchor:start;baseline-shift:baseline;opacity:0.7;color:#000000;fill:#ffffff;fill-opacity:1;fill-rule:nonzero;stroke:none;stroke-width:1;marker:none;visibility:visible;display:inline;overflow:visible;enable-background:accumulate;font-family:Sans;-inkscape-font-specification:Sans"
       d="m 12.6875,67.75 c -0.708928,0 -1.1875,0.484047 -1.1875,1 0,0.179326 0.08033,0.347366 0.1875,0.5 0.20118,-0.286523 0.537468,-0.5 1,-0.5 0.462532,0 0.83007,0.213477 1.03125,0.5 0.107171,-0.152634 0.1875,-0.320674 0.1875,-0.5 0,-0.515953 -0.509822,-1 -1.21875,-1 z"
       id="path47843"
       inkscape:connector-curvature="0" />
    <path
       style="font-size:medium;font-style:normal;font-variant:normal;font-weight:normal;font-stretch:normal;text-indent:0;text-align:start;text-decoration:none;line-height:normal;letter-spacing:normal;word-spacing:normal;text-transform:none;direction:ltr;block-progression:tb;writing-mode:lr-tb;text-anchor:start;baseline-shift:baseline;opacity:0.3;color:#000000;fill:#000000;fill-opacity:1;fill-rule:nonzero;stroke:none;stroke-width:1;marker:none;visibility:visible;display:inline;overflow:visible;enable-background:accumulate;font-family:Sans;-inkscape-font-specification:Sans"
       d="M 12.6875,67.25 C 11.750976,67.25 11,67.916788 11,68.75 c 0,0.833213 0.750977,1.5 1.6875,1.5 0.936523,0 1.71875,-0.666787 1.71875,-1.5 0,-0.833212 -0.782226,-1.5 -1.71875,-1.5 z m 0,0.5 c 0.708928,0 1.21875,0.484047 1.21875,1 0,0.515955 -0.509822,1 -1.21875,1 -0.708928,0 -1.1875,-0.484045 -1.1875,-1 0,-0.515953 0.478572,-1 1.1875,-1 z"
       id="path47848"
       inkscape:connector-curvature="0" />
    <path
       style="font-size:medium;font-style:normal;font-variant:normal;font-weight:normal;font-stretch:normal;text-indent:0;text-align:start;text-decoration:none;line-height:normal;letter-spacing:normal;word-spacing:normal;text-transform:none;direction:ltr;block-progression:tb;writing-mode:lr-tb;text-anchor:start;baseline-shift:baseline;opacity:0.2;color:#000000;fill:#00ffff;fill-opacity:1;fill-rule:nonzero;stroke:none;stroke-width:1;marker:none;visibility:visible;display:inline;overflow:visible;enable-background:accumulate;font-family:Sans;-inkscape-font-specification:Sans"
       d="M 12.6875,67.25 C 11.750976,67.25 11,67.916788 11,68.75 c 0,0.833213 0.750977,1.5 1.6875,1.5 0.936523,0 1.71875,-0.666787 1.71875,-1.5 0,-0.833212 -0.782226,-1.5 -1.71875,-1.5 z"
       id="path47863"
       inkscape:connector-curvature="0" />
    <path
       style="font-size:medium;font-style:normal;font-variant:normal;font-weight:normal;font-stretch:normal;text-indent:0;text-align:start;text-decoration:none;line-height:normal;letter-spacing:normal;word-spacing:normal;text-transform:none;direction:ltr;block-progression:tb;writing-mode:lr-tb;text-anchor:start;baseline-shift:baseline;opacity:0.1;color:#000000;fill:#00ffff;fill-opacity:1;fill-rule:nonzero;stroke:none;stroke-width:1;marker:none;visibility:visible;display:inline;overflow:visible;enable-background:accumulate;font-family:Sans;-inkscape-font-specification:Sans"
       d="m 12.6875,66.75 c -1.173851,0 -2.1875,0.866354 -2.1875,2 0,1.133647 1.01365,2 2.1875,2 1.17385,0 2.21875,-0.853851 2.21875,-2 0,-1.146148 -1.044899,-2 -2.21875,-2 z"
       id="path47873"
       inkscape:connector-curvature="0" />
    <path
       style="font-size:medium;font-style:normal;font-variant:normal;font-weight:normal;font-stretch:normal;text-indent:0;text-align:start;text-decoration:none;line-height:normal;letter-spacing:normal;word-spacing:normal;text-transform:none;direction:ltr;block-progression:tb;writing-mode:lr-tb;text-anchor:start;baseline-shift:baseline;color:#000000;fill:#00ffff;fill-opacity:1;fill-rule:nonzero;stroke:none;stroke-width:1;marker:none;visibility:visible;display:inline;overflow:visible;enable-background:accumulate;font-family:Sans;-inkscape-font-specification:Sans"
       d="m 12.7,72.75 c 0.708928,0 1.2,0.484047 1.2,1 0,0.515955 -0.491072,1 -1.2,1 -0.708928,0 -1.2,-0.484045 -1.2,-1 0,-0.515953 0.491072,-1 1.2,-1 z"
       id="path47875"
       inkscape:connector-curvature="0" />
    <path
       inkscape:connector-curvature="0"
       id="path47877"
       d="m 12.6875,72.75 c -0.708928,0 -1.1875,0.484047 -1.1875,1 0,0.179326 0.08033,0.347366 0.1875,0.5 0.20118,-0.286523 0.537468,-0.5 1,-0.5 0.462532,0 0.83007,0.213477 1.03125,0.5 0.107171,-0.152634 0.1875,-0.320674 0.1875,-0.5 0,-0.515953 -0.509822,-1 -1.21875,-1 z"
       style="font-size:medium;font-style:normal;font-variant:normal;font-weight:normal;font-stretch:normal;text-indent:0;text-align:start;text-decoration:none;line-height:normal;letter-spacing:normal;word-spacing:normal;text-transform:none;direction:ltr;block-progression:tb;writing-mode:lr-tb;text-anchor:start;baseline-shift:baseline;opacity:0.7;color:#000000;fill:#ffffff;fill-opacity:1;fill-rule:nonzero;stroke:none;stroke-width:1;marker:none;visibility:visible;display:inline;overflow:visible;enable-background:accumulate;font-family:Sans;-inkscape-font-specification:Sans" />
    <path
       inkscape:connector-curvature="0"
       id="path47879"
       d="M 12.6875,72.25 C 11.750976,72.25 11,72.916788 11,73.75 c 0,0.833213 0.750977,1.5 1.6875,1.5 0.936523,0 1.71875,-0.666787 1.71875,-1.5 0,-0.833212 -0.782226,-1.5 -1.71875,-1.5 z m 0,0.5 c 0.708928,0 1.21875,0.484047 1.21875,1 0,0.515955 -0.509822,1 -1.21875,1 -0.708928,0 -1.1875,-0.484045 -1.1875,-1 0,-0.515953 0.478572,-1 1.1875,-1 z"
       style="font-size:medium;font-style:normal;font-variant:normal;font-weight:normal;font-stretch:normal;text-indent:0;text-align:start;text-decoration:none;line-height:normal;letter-spacing:normal;word-spacing:normal;text-transform:none;direction:ltr;block-progression:tb;writing-mode:lr-tb;text-anchor:start;baseline-shift:baseline;opacity:0.3;color:#000000;fill:#000000;fill-opacity:1;fill-rule:nonzero;stroke:none;stroke-width:1;marker:none;visibility:visible;display:inline;overflow:visible;enable-background:accumulate;font-family:Sans;-inkscape-font-specification:Sans" />
    <path
       inkscape:connector-curvature="0"
       id="path47881"
       d="M 12.6875,72.25 C 11.750976,72.25 11,72.916788 11,73.75 c 0,0.833213 0.750977,1.5 1.6875,1.5 0.936523,0 1.71875,-0.666787 1.71875,-1.5 0,-0.833212 -0.782226,-1.5 -1.71875,-1.5 z"
       style="font-size:medium;font-style:normal;font-variant:normal;font-weight:normal;font-stretch:normal;text-indent:0;text-align:start;text-decoration:none;line-height:normal;letter-spacing:normal;word-spacing:normal;text-transform:none;direction:ltr;block-progression:tb;writing-mode:lr-tb;text-anchor:start;baseline-shift:baseline;opacity:0.2;color:#000000;fill:#00ffff;fill-opacity:1;fill-rule:nonzero;stroke:none;stroke-width:1;marker:none;visibility:visible;display:inline;overflow:visible;enable-background:accumulate;font-family:Sans;-inkscape-font-specification:Sans" />
    <path
       inkscape:connector-curvature="0"
       id="path47883"
       d="m 12.6875,71.75 c -1.173851,0 -2.1875,0.866354 -2.1875,2 0,1.133647 1.01365,2 2.1875,2 1.17385,0 2.21875,-0.853851 2.21875,-2 0,-1.146148 -1.044899,-2 -2.21875,-2 z"
       style="font-size:medium;font-style:normal;font-variant:normal;font-weight:normal;font-stretch:normal;text-indent:0;text-align:start;text-decoration:none;line-height:normal;letter-spacing:normal;word-spacing:normal;text-transform:none;direction:ltr;block-progression:tb;writing-mode:lr-tb;text-anchor:start;baseline-shift:baseline;opacity:0.1;color:#000000;fill:#00ffff;fill-opacity:1;fill-rule:nonzero;stroke:none;stroke-width:1;marker:none;visibility:visible;display:inline;overflow:visible;enable-background:accumulate;font-family:Sans;-inkscape-font-specification:Sans" />
  </g>
  <g
     transform="matrix(5.6190476,0,0,5.6190463,-1025.1429,-5.285652)"
     id="g3441" />
  <path
     inkscape:connector-curvature="0"
     id="rect4017"
     d="m 115.52381,51.238149 c -9.33885,0 -16.85714,7.518284 -16.85714,16.857139 l 0,73.047602 0,95.52379 0,16.85714 16.85714,0 280.95238,0 16.8571,0 0,-16.85714 0,-95.52379 0,-73.047602 c 0,-9.338855 -7.5182,-16.857139 -16.8571,-16.857139 l -67.4286,0 c -9.3388,0 -16.8571,7.518284 -16.8571,16.857139 l 0,4.214285 c 0,9.338855 -7.5183,16.857138 -16.85715,16.857138 l -78.66667,0 c -9.33886,0 -16.85714,-7.518283 -16.85714,-16.857138 l 0,-4.214285 c 0,-9.338855 -7.51829,-16.857139 -16.85714,-16.857139 l -67.42858,0 z"
     style="color:#000000;fill:#373737;fill-opacity:1;fill-rule:nonzero;stroke:none;stroke-width:1;marker:none;visibility:visible;display:inline;overflow:visible;enable-background:accumulate" />
  <path
     inkscape:connector-curvature="0"
     id="rect7754"
     d="m 98.66667,62.476242 c -18.67771,0 -33.71428,15.036567 -33.71428,33.714277 l 0,207.904711 c 0,18.67771 15.03657,33.71428 33.71428,33.71428 l 314.66662,0 c 18.6778,0 33.7143,-15.03657 33.7143,-33.71428 l 0,-207.904711 c 0,-18.67771 -15.0365,-33.714277 -33.7143,-33.714277 l -1.0535,0 c 0.6361,1.780007 1.0535,3.615086 1.0535,5.619046 l 0,56.190462 0,129.23807 -297.80948,0 -16.85714,0 0,-16.85714 0,-95.52379 0,-16.85714 0,-56.190462 c 0,-2.00396 0.4175,-3.839039 1.05357,-5.619046 l -1.05357,0 z m 100.08929,0 c 0.63607,1.780007 1.05357,3.615086 1.05357,5.619046 l 0,4.214285 c 0,9.338855 7.51828,16.857138 16.85714,16.857138 l 78.66667,0 c 9.33885,0 16.85715,-7.518283 16.85715,-16.857138 l 0,-4.214285 c 0,-2.00396 0.4175,-3.839039 1.0536,-5.619046 l -114.48813,0 z"
     style="opacity:0.6;color:#000000;fill:#ffffff;fill-opacity:1;fill-rule:nonzero;stroke:none;stroke-width:2;marker:none;visibility:visible;display:inline;overflow:visible;enable-background:accumulate" />
  <path
     sodipodi:nodetypes="cccccccccc"
     inkscape:connector-curvature="0"
     id="path7784"
     d="m 93.04762,118.6667 0,140.47616 5.61905,-5.61904 0,-129.23807 z m 320.28567,5.61905 0,129.23807 5.6191,5.61904 0,-140.47615 z"
     style="opacity:0.4;color:#000000;fill:#000000;fill-opacity:1;fill-rule:nonzero;stroke:none;stroke-width:2;marker:none;visibility:visible;display:inline;overflow:visible;enable-background:accumulate" />
  <path
     sodipodi:nodetypes="ccccc"
     style="opacity:0.12999998;color:#000000;fill:#ffffff;fill-opacity:1;fill-rule:nonzero;stroke:none;stroke-width:2;marker:none;visibility:visible;display:inline;overflow:visible;enable-background:accumulate"
     d="m 98.66667,253.52382 314.66662,0 5.6191,5.61904 -325.90477,0 z"
     id="path7786"
     inkscape:connector-curvature="0" />
  <path
     inkscape:connector-curvature="0"
     id="path3189"
     d="m 93.04762,118.6667 5.61905,5.61905 0,-5.61905 -5.61905,0 z m 320.28567,0 0,5.61905 5.6191,-5.61905 -5.6191,0 z"
     style="opacity:0.6;color:#000000;fill:#000000;fill-opacity:1;fill-rule:nonzero;stroke:none;stroke-width:2;marker:none;visibility:visible;display:inline;overflow:visible;enable-background:accumulate" />
  <path
     inkscape:connector-curvature="0"
     id="rect47885"
     d="m 140.80953,62.476242 0,179.809478 5.61905,0 0,-179.809478 -5.61905,0 z m 28.09524,0 0,179.809478 5.61904,0 0,-179.809478 -5.61904,0 z m 168.57142,0 0,179.809478 5.6191,0 0,-179.809478 -5.6191,0 z m 28.0952,0 0,179.809478 5.6191,0 0,-179.809478 -5.6191,0 z m -168.57138,29.851183 0,149.958295 5.61904,0 0,-145.919605 c -2.0095,-1.184979 -3.96261,-2.410633 -5.61904,-4.03869 z m 117.99998,0 c -1.6564,1.628057 -3.6095,2.853711 -5.619,4.03869 l 0,145.919605 5.619,0 0,-149.958295 z m -89.90475,8.077375 0,141.88092 5.61905,0 0,-141.88092 -5.61905,0 z m 28.09524,0 0,141.88092 5.61905,0 0,-141.88092 -5.61905,0 z m 28.09524,0 0,141.88092 5.61905,0 0,-141.88092 -5.61905,0 z"
     style="opacity:0.3;color:#000000;fill:#000000;fill-opacity:1;fill-rule:nonzero;stroke:none;stroke-width:2;marker:none;visibility:visible;display:inline;overflow:visible;enable-background:accumulate" />
  <path
     inkscape:connector-curvature="0"
     id="rect47905"
     d="m 135.19048,62.476242 0,179.809478 5.61905,0 0,-179.809478 -5.61905,0 z m 11.2381,0 0,179.809478 5.61904,0 0,-179.809478 -5.61904,0 z m 16.85714,0 0,179.809478 5.61905,0 0,-179.809478 -5.61905,0 z m 11.23809,0 0,179.809478 5.61905,0 0,-179.809478 -5.61905,0 z m 157.33338,0 0,179.809478 5.619,0 0,-179.809478 -5.619,0 z m 11.2381,0 0,179.809478 5.619,0 0,-179.809478 -5.619,0 z m 16.8571,0 0,179.809478 5.619,0 0,-179.809478 -5.619,0 z m 11.2381,0 0,179.809478 5.619,0 0,-179.809478 -5.619,0 z m -179.80953,21.598209 0,158.211269 5.61905,0 0,-149.958295 c -2.3895,-2.348565 -4.17781,-5.19591 -5.61905,-8.252974 z m 129.23813,0 c -1.4413,3.057064 -3.2296,5.904409 -5.6191,8.252974 l 0,149.958295 5.6191,0 0,-158.211269 z m -118.00004,12.291664 0,145.919605 5.61905,0 0,-143.285677 c -1.98772,-0.639173 -3.84488,-1.587724 -5.61905,-2.633928 z m 106.76194,0 c -1.7742,1.046204 -3.6314,1.994755 -5.61908,2.633928 l 0,143.285677 5.61908,0 0,-145.919605 z m -89.90479,4.038685 0,141.88092 5.61904,0 0,-141.88092 -5.61904,0 z m 11.23809,0 0,141.88092 5.61905,0 0,-141.88092 -5.61905,0 z m 16.85714,0 0,141.88092 5.61905,0 0,-141.88092 -5.61905,0 z m 11.2381,0 0,141.88092 5.61905,0 0,-141.88092 -5.61905,0 z m 16.85714,0 0,141.88092 5.61905,0 0,-141.88092 -5.61905,0 z m 11.2381,0 0,141.88092 5.61904,0 0,-141.88092 -5.61904,0 z"
     style="opacity:0.1;color:#000000;fill:#000000;fill-opacity:1;fill-rule:nonzero;stroke:none;stroke-width:2;marker:none;visibility:visible;display:inline;overflow:visible;enable-background:accumulate" />
  <path
     sodipodi:nodetypes="ccccc"
     style="color:#000000;fill:#ffffff;fill-opacity:1;fill-rule:nonzero;stroke:none;stroke-width:2;marker:none;visibility:visible;display:inline;overflow:visible;enable-background:accumulate"
     d="m 132.38096,127.23812 247.23813,0 0,126.2857 -247.23813,0 z"
     id="path7782"
     inkscape:connector-curvature="0" />
  <g
     id="g5100">
    <path
       style="opacity:0.2;color:#000000;fill:url(#linearGradient5098);fill-opacity:1;fill-rule:nonzero;stroke:none;stroke-width:1.5;marker:none;visibility:visible;display:inline;overflow:visible;enable-background:accumulate"
       d="M 118.34375,20 C 63.867087,20 20,63.867084 20,118.34375 l 0,23.0625 0,212.25 c 0,47.73224 33.672423,87.30455 78.65625,96.375 l 0,-6 0,-4.65625 0,-37.28125 314.6875,0 0,37.28125 0,4.65625 0,6 C 458.32758,440.9608 492,401.38849 492,353.65625 l 0,-212.25 0,-23.0625 C 492,63.867084 448.13292,20 393.65625,20 L 390.75,20 C 444.07256,20 487,62.846874 487,116.0625 l 0,22.53125 0,207.34375 c 0,41.78222 -26.47624,77.15691 -63.65625,90.4375 l 0,-44.28125 -334.6875,0 0,44.28125 C 51.476254,423.09441 25,387.71972 25,345.9375 L 25,138.59375 25,116.0625 C 25,62.846874 67.9275,20 121.25,20 l -2.90625,0 z"
       id="path4029"
       inkscape:connector-curvature="0" />
    <path
       id="rect6809-2-3"
       d="M 118.3124,20 C 63.8357,20 19.9999,63.83583 19.9999,118.3125 l 0,275.34375 C 19.9999,448.13292 63.8357,492 118.3124,492 l 2.9375,0 c -53.3225,0 -96.25,-42.9275 -96.25,-96.25 l 0,-269.5 C 24.9999,72.9275 67.9274,30 121.2499,30 L 390.75,30 C 444.0725,30 487,72.9275 487,126.25 l 0,269.5 C 487,449.0725 444.0725,492 390.75,492 l 2.9062,0 C 448.1329,492 492,448.13292 492,393.65625 L 492,118.3125 C 492,63.83583 448.1329,20 393.6562,20 l -275.3438,0 z"
       style="opacity:0.4;color:#000000;fill:url(#linearGradient5095);fill-opacity:1;fill-rule:nonzero;stroke:none;stroke-width:1.50000000000000000;marker:none;visibility:visible;display:inline;overflow:visible;enable-background:accumulate"
       inkscape:connector-curvature="0" />
  </g>
</svg>
