<?xml version="1.0" encoding="UTF-8" standalone="no"?>
<!-- Created with Inkscape (http://www.inkscape.org/) -->

<svg
   xmlns:dc="http://purl.org/dc/elements/1.1/"
   xmlns:cc="http://creativecommons.org/ns#"
   xmlns:rdf="http://www.w3.org/1999/02/22-rdf-syntax-ns#"
   xmlns:svg="http://www.w3.org/2000/svg"
   xmlns="http://www.w3.org/2000/svg"
   xmlns:xlink="http://www.w3.org/1999/xlink"
   xmlns:sodipodi="http://sodipodi.sourceforge.net/DTD/sodipodi-0.dtd"
   xmlns:inkscape="http://www.inkscape.org/namespaces/inkscape"
   width="512"
   height="512"
   id="svg2"
   version="1.1"
   inkscape:version="0.48.3.1 r9886"
   sodipodi:docname="start-here-ubuntu.svg"
   inkscape:export-filename="/home/alecive/Scrivania/launcher_bfb.png"
   inkscape:export-xdpi="8.8000002"
   inkscape:export-ydpi="8.8000002">
  <sodipodi:namedview
     id="base"
     pagecolor="#ffffff"
     bordercolor="#666666"
     borderopacity="1.0"
     inkscape:pageopacity="0.0"
     inkscape:pageshadow="2"
     inkscape:zoom="0.86100189"
     inkscape:cx="226.4202"
     inkscape:cy="314.02028"
     inkscape:document-units="px"
     inkscape:current-layer="svg2"
     showgrid="false"
     inkscape:window-width="1305"
     inkscape:window-height="744"
     inkscape:window-x="61"
     inkscape:window-y="24"
     inkscape:window-maximized="1"
     inkscape:object-paths="false"
     inkscape:snap-intersection-paths="false"
     inkscape:object-nodes="true"
     inkscape:snap-smooth-nodes="true"
     inkscape:snap-nodes="true" />
  <defs
     id="defs4">
    <linearGradient
       y2="48.0854"
       x2="78.466103"
       y1="56.3008"
       x1="64.477501"
       gradientUnits="userSpaceOnUse"
       id="XMLID_74_-8-1">
      <stop
         id="stop155-3-8"
         style="stop-color:#ffffff;stop-opacity:1;"
         offset="0" />
      <stop
         id="stop157-94-6"
         style="stop-color:#e6e6e6;stop-opacity:1;"
         offset="1" />
    </linearGradient>
    <radialGradient
       gradientUnits="userSpaceOnUse"
       gradientTransform="matrix(1,0,0,1.0499906,0,-19.270593)"
       r="191.6187"
       fy="385.4841"
       fx="558.35437"
       cy="385.4841"
       cx="558.35437"
       id="radialGradient3867"
       xlink:href="#XMLID_74_-8-1"
       inkscape:collect="always" />
    <linearGradient
       y2="217.4595"
       x2="200.0508"
       y1="185.0742"
       x1="200.0508"
       gradientUnits="userSpaceOnUse"
       id="SVGID_2_">
      <stop
         id="stop13"
         style="stop-color:#61B74A"
         offset="0" />
      <stop
         id="stop15"
         style="stop-color:#449934"
         offset="1" />
    </linearGradient>
    <linearGradient
       inkscape:collect="always"
       xlink:href="#SVGID_2_"
       id="linearGradient3021"
       gradientUnits="userSpaceOnUse"
       gradientTransform="matrix(13.577628,0,0,13.577628,-2026.1619,-2566.7096)"
       x1="200.0508"
       y1="185.0742"
       x2="200.0508"
       y2="217.4595" />
    <linearGradient
       y2="217.4595"
       x2="200.0508"
       y1="185.0742"
       x1="200.0508"
       gradientTransform="matrix(9.2574736,0,0,9.2574736,-1595.9285,-1607.2111)"
       gradientUnits="userSpaceOnUse"
       id="linearGradient3017"
       xlink:href="#SVGID_2_"
       inkscape:collect="always" />
    <linearGradient
       inkscape:collect="always"
       xlink:href="#SVGID_2_"
       id="linearGradient3803"
       x1="259.99384"
       y1="44"
       x2="259.99384"
       y2="464"
       gradientUnits="userSpaceOnUse" />
    <linearGradient
       y2="251.66064"
       x2="1011.9534"
       y1="476.25983"
       x1="1016.1035"
       gradientTransform="translate(-146.22032,369.08845)"
       gradientUnits="userSpaceOnUse"
       id="linearGradient4082"
       xlink:href="#linearGradient4487"
       inkscape:collect="always" />
    <linearGradient
       id="linearGradient4487">
      <stop
         offset="0"
         style="stop-color:#000000;stop-opacity:1"
         id="stop4489" />
      <stop
         offset="1"
         style="stop-color:#000000;stop-opacity:0"
         id="stop4491" />
    </linearGradient>
    <linearGradient
       y2="363.73825"
       x2="988.78552"
       y1="51.511765"
       x1="993.43896"
       gradientTransform="translate(778.59979,-360.55963)"
       gradientUnits="userSpaceOnUse"
       id="linearGradient4084"
       xlink:href="#linearGradient3737"
       inkscape:collect="always" />
    <linearGradient
       id="linearGradient3737">
      <stop
         offset="0"
         style="stop-color:#ffffff;stop-opacity:1"
         id="stop3739" />
      <stop
         offset="1"
         style="stop-color:#ffffff;stop-opacity:0"
         id="stop3741" />
    </linearGradient>
    <linearGradient
       y2="-55.941216"
       x2="1763.6903"
       y1="155.59685"
       x1="1764.6487"
       gradientUnits="userSpaceOnUse"
       id="linearGradient4086"
       xlink:href="#linearGradient4046"
       inkscape:collect="always" />
    <linearGradient
       id="linearGradient4046">
      <stop
         offset="0"
         style="stop-color:#000000;stop-opacity:1;"
         id="stop4048" />
      <stop
         offset="1"
         style="stop-color:#ffffff;stop-opacity:0.2"
         id="stop4050" />
    </linearGradient>
    <linearGradient
       y2="20.625916"
       x2="1006.8082"
       y1="484.41721"
       x1="1012.5133"
       gradientTransform="matrix(1.0317796,0,0,1.0317796,-830.86406,592.67791)"
       gradientUnits="userSpaceOnUse"
       id="linearGradient4114-2"
       xlink:href="#ButtonShadow-0-1-1-5"
       inkscape:collect="always" />
    <linearGradient
       gradientTransform="matrix(1.0058652,0,0,0.994169,100,0)"
       gradientUnits="userSpaceOnUse"
       id="ButtonShadow-0-1-1-5"
       y2="7.0165396"
       x2="45.447727"
       y1="92.539597"
       x1="45.447727">
      <stop
         offset="0"
         style="stop-color:#000000;stop-opacity:1"
         id="stop3750-8-9-3-6" />
      <stop
         offset="1"
         style="stop-color:#000000;stop-opacity:0.58823532"
         id="stop3752-5-6-4-2" />
    </linearGradient>
    <linearGradient
       y2="20.625916"
       x2="1006.8082"
       y1="484.41721"
       x1="1012.5133"
       gradientTransform="matrix(1.0402541,0,0,1.0402541,-837.95116,592.51825)"
       gradientUnits="userSpaceOnUse"
       id="linearGradient4112-2"
       xlink:href="#ButtonShadow-0-1-1-5"
       inkscape:collect="always" />
    <linearGradient
       gradientTransform="matrix(1.0058652,0,0,0.994169,100,0)"
       gradientUnits="userSpaceOnUse"
       id="linearGradient3395"
       y2="7.0165396"
       x2="45.447727"
       y1="92.539597"
       x1="45.447727">
      <stop
         offset="0"
         style="stop-color:#000000;stop-opacity:1"
         id="stop3397" />
      <stop
         offset="1"
         style="stop-color:#000000;stop-opacity:0.58823532"
         id="stop3399" />
    </linearGradient>
    <linearGradient
       y2="20.625916"
       x2="1006.8082"
       y1="484.41721"
       x1="1012.5133"
       gradientTransform="matrix(1.023305,0,0,1.023305,-823.77704,592.83757)"
       gradientUnits="userSpaceOnUse"
       id="linearGradient4110-6"
       xlink:href="#ButtonShadow-0-1-1-5"
       inkscape:collect="always" />
    <linearGradient
       gradientTransform="matrix(1.0058652,0,0,0.994169,100,0)"
       gradientUnits="userSpaceOnUse"
       id="linearGradient3402"
       y2="7.0165396"
       x2="45.447727"
       y1="92.539597"
       x1="45.447727">
      <stop
         offset="0"
         style="stop-color:#000000;stop-opacity:1"
         id="stop3404" />
      <stop
         offset="1"
         style="stop-color:#000000;stop-opacity:0.58823532"
         id="stop3406" />
    </linearGradient>
    <linearGradient
       y2="20.625916"
       x2="1006.8082"
       y1="484.41721"
       x1="1012.5133"
       gradientTransform="matrix(1.0148305,0,0,1.0148305,-816.68996,592.99723)"
       gradientUnits="userSpaceOnUse"
       id="linearGradient4116-6"
       xlink:href="#ButtonShadow-0-1-1-5"
       inkscape:collect="always" />
    <linearGradient
       gradientTransform="matrix(1.0058652,0,0,0.994169,100,0)"
       gradientUnits="userSpaceOnUse"
       id="linearGradient3409"
       y2="7.0165396"
       x2="45.447727"
       y1="92.539597"
       x1="45.447727">
      <stop
         offset="0"
         style="stop-color:#000000;stop-opacity:1"
         id="stop3411" />
      <stop
         offset="1"
         style="stop-color:#000000;stop-opacity:0.58823532"
         id="stop3413" />
    </linearGradient>
    <linearGradient
       inkscape:collect="always"
       xlink:href="#ButtonShadow-0-1-1-5"
       id="linearGradient5342"
       gradientUnits="userSpaceOnUse"
       gradientTransform="matrix(1.0074153,0,0,1.0074153,-810.48879,593.1369)"
       x1="1012.5133"
       y1="484.41721"
       x2="1006.8082"
       y2="20.625916" />
    <linearGradient
       gradientTransform="matrix(1.0058652,0,0,0.994169,100,0)"
       gradientUnits="userSpaceOnUse"
       id="linearGradient3416"
       y2="7.0165396"
       x2="45.447727"
       y1="92.539597"
       x1="45.447727">
      <stop
         offset="0"
         style="stop-color:#000000;stop-opacity:1"
         id="stop3418" />
      <stop
         offset="1"
         style="stop-color:#000000;stop-opacity:0.58823532"
         id="stop3420" />
    </linearGradient>
    <linearGradient
       inkscape:collect="always"
       xlink:href="#ButtonShadow-0-1-1-5"
       id="linearGradient3433"
       gradientUnits="userSpaceOnUse"
       gradientTransform="matrix(1.0074153,0,0,1.0074153,-810.48879,593.1369)"
       x1="1012.5133"
       y1="484.41721"
       x2="1006.8082"
       y2="20.625916" />
  </defs>
  <metadata
     id="metadata7">
    <rdf:RDF>
      <cc:Work
         rdf:about="">
        <dc:format>image/svg+xml</dc:format>
        <dc:type
           rdf:resource="http://purl.org/dc/dcmitype/StillImage" />
        <dc:title />
      </cc:Work>
    </rdf:RDF>
  </metadata>
  <g
     id="layer1"
     inkscape:groupmode="layer"
     inkscape:label="Livello 1"
     transform="translate(0,-540.36218)" />
  <g
     id="g10268">
    <g
       id="g4103"
       transform="translate(-11.985063,-592.11719)">
      <rect
         ry="101.45834"
         y="612.11719"
         x="31.985071"
         height="487"
         width="487"
         id="rect6187"
         style="opacity:0.1;color:#000000;fill:url(#linearGradient4114-2);fill-opacity:1;fill-rule:nonzero;stroke:none;stroke-width:1.5;marker:none;visibility:visible;display:inline;overflow:visible;enable-background:accumulate" />
      <rect
         style="opacity:0.07999998;color:#000000;fill:url(#linearGradient4112-2);fill-opacity:1;fill-rule:nonzero;stroke:none;stroke-width:1.5;marker:none;visibility:visible;display:inline;overflow:visible;enable-background:accumulate"
         id="rect6191"
         width="491"
         height="491"
         x="31.985071"
         y="612.11719"
         ry="102.29167" />
      <rect
         style="opacity:0.2;color:#000000;fill:url(#linearGradient4110-6);fill-opacity:1;fill-rule:nonzero;stroke:none;stroke-width:1.5;marker:none;visibility:visible;display:inline;overflow:visible;enable-background:accumulate"
         id="rect6183"
         width="483"
         height="483"
         x="31.985071"
         y="612.11719"
         ry="100.62501" />
      <rect
         ry="99.791664"
         y="612.11719"
         x="31.985071"
         height="479"
         width="479"
         id="rect6179"
         style="opacity:0.25;color:#000000;fill:url(#linearGradient4116-6);fill-opacity:1;fill-rule:nonzero;stroke:none;stroke-width:1.5;marker:none;visibility:visible;display:inline;overflow:visible;enable-background:accumulate" />
      <rect
         style="opacity:0.25;color:#000000;fill:url(#linearGradient3433);fill-opacity:1;fill-rule:nonzero;stroke:none;stroke-width:1.5;marker:none;visibility:visible;display:inline;overflow:visible;enable-background:accumulate"
         id="rect5574"
         width="475.5"
         height="475.5"
         x="31.985071"
         y="612.11719"
         ry="99.0625" />
    </g>
    <g
       id="g8029">
      <g
         transform="matrix(1.092577,0,0,1.0925926,-23.696353,-23.70371)"
         id="g3013">
        <rect
           style="color:#000000;fill:#f15a24;fill-opacity:1;fill-rule:nonzero;stroke:none;stroke-width:1.5;marker:none;visibility:visible;display:inline;overflow:visible;enable-background:accumulate"
           id="rect4121"
           width="432"
           height="432"
           x="39.996925"
           y="40.000004"
           ry="90" />
        <rect
           ry="90"
           y="40.000004"
           x="39.996925"
           height="432"
           width="432"
           id="rect8012"
           style="color:#000000;fill:#f15a24;fill-opacity:1;fill-rule:nonzero;stroke:none;stroke-width:1.5;marker:none;visibility:visible;display:inline;overflow:visible;enable-background:accumulate" />
      </g>
      <g
         id="g8025">
        <path
           sodipodi:nodetypes="cscccccccscccccccccccssscccsscccsc"
           inkscape:connector-curvature="0"
           id="path3947"
           d="m 330.59375,96.25 c -17.5776,0 -31.84375,14.23488 -31.84375,31.8125 0,8.41706 3.28735,16.05635 8.625,21.75 0.44274,0.47682 0.84184,0.87171 1.25,1.28125 l 16.5929,16.59365 c 0.006,0.005 0.0256,-0.005 0.0312,0 0.005,0.005 -0.005,0.0262 0,0.0312 -0.65822,-0.0881 -1.31267,-0.25326 -1.96875,-0.375 L 291.1556,134.3473 c -11.1169,-3.12011 -22.87196,-4.8125 -35,-4.8125 -20.55801,0 -39.97798,4.78856 -57.1875,13.3125 L 222.4375,183.5 c 0.0123,0.003 106.24985,106.1877 106.24985,106.1877 -0.36273,0.77997 -0.7381,1.54642 -1.125,2.3125 L 185.90625,150.31245 c -25.98907,16.92851 -45.36584,42.9682 -53.46875,73.53125 -0.002,0.0117 7.2192,7.18725 7.2192,7.18725 4.24341,5.43943 7.19409,11.98823 8.15625,19.15625 l -16.4982,-16.4669 c -0.17197,-0.18251 -0.35506,-0.35284 -0.53125,-0.53125 -0.0479,-0.047 -0.0768,-0.10952 -0.125,-0.15625 -5.76168,-5.76168 -13.71119,-9.3125 -22.5,-9.3125 -17.57762,0 -31.84375,14.23489 -31.84375,31.8125 0,7.87293 2.887264,15.06682 7.625,20.625 0.282898,0.33189 0.547674,0.68008 0.84375,1 0.408968,0.41031 0.824594,0.85755 1.21875,1.24995 l 213.59335,213.59185 94.0625,0 C 448.13214,492 492,448.13292 492,393.65625 l 0,-149.1875 -138.81005,-138.8103 c -0.27712,-0.28145 -0.59227,-0.57317 -0.8437,-0.81245 -5.69312,-5.327846 -13.3354,-8.59375 -21.75,-8.59375 z"
           style="fill:#000000;fill-opacity:0.23529412" />
        <path
           inkscape:connector-curvature="0"
           id="path3869"
           d="m 330.5849,96.24899 c -17.5776,0 -31.8356,14.22855 -31.8356,31.80617 0,17.5776 14.258,31.83553 31.8356,31.83553 17.5776,0 31.8355,-14.25793 31.8355,-31.83553 0,-17.57762 -14.2579,-31.80617 -31.8355,-31.80617 z m -74.42,33.2746 c -20.55801,0 -39.9711,4.80939 -57.18062,13.33333 l 23.46549,40.64611 c 10.2494,-4.7751 21.6632,-7.45962 33.71513,-7.45962 41.4656,0 75.5503,31.57122 79.5595,71.98238 l 48.0763,0 c -2.0431,-32.43043 -16.4649,-61.53375 -38.6196,-82.79002 -10.9261,4.28735 -23.6136,3.73945 -34.5669,-2.58443 -10.848,-6.26373 -17.6406,-16.83642 -19.4713,-28.31131 -11.1169,-3.12011 -22.84996,-4.81644 -34.978,-4.81644 z m -70.24964,20.79295 c -25.98907,16.92851 -45.37726,42.97586 -53.48017,73.53891 9.50602,7.30126 15.65345,18.77592 15.65345,31.68869 0,13.00394 -6.20805,24.54274 -15.82966,31.83554 7.98825,30.94179 27.51036,57.31924 53.77386,74.3906 l 23.5536,-40.79295 c -20.20182,-14.51418 -33.39207,-38.19043 -33.39207,-64.96329 0,-26.72775 13.1301,-50.38473 33.27459,-64.90455 l -23.5536,-40.79295 z m -77.76798,73.39207 c -17.57762,0 -31.83554,14.25792 -31.83554,31.83553 0,17.57762 14.25792,31.83554 31.83554,31.83554 17.57761,0 31.83553,-14.25792 31.83553,-31.83554 0,-17.57761 -14.25792,-31.83553 -31.83553,-31.83553 z M 335.8125,263.0625 c -3.5722,40.8585 -37.8625,72.92217 -79.6476,72.92217 -12.00776,0 -23.37833,-2.65868 -33.59765,-7.40088 l -23.4655,40.64611 c 17.18227,8.48916 36.54931,13.2746 57.06315,13.2746 11.84517,0 23.3003,-1.60141 34.185,-4.5815 1.8881,-11.37997 8.6729,-21.85962 19.442,-28.07636 11.0313,-6.36899 23.824,-6.85298 34.8018,-2.46696 22.7035,-21.50813 37.4275,-51.22232 39.2658,-84.31718 l -48.047,0 z m -6.0499,89.54479 c -17.5777,0 -31.8356,14.25792 -31.8356,31.83553 0,17.57761 14.2579,31.80617 31.8356,31.80617 17.5776,0 31.8355,-14.22856 31.8355,-31.80617 0,-17.57761 -14.2579,-31.83553 -31.8355,-31.83553 z"
           style="fill:#ffffff" />
      </g>
    </g>
    <g
       id="g4076"
       transform="translate(-605.51931,-353.96832)">
      <g
         transform="translate(-926.66758,684.38448)"
         id="g4038">
        <path
           inkscape:connector-curvature="0"
           style="opacity:0.5;color:#000000;fill:url(#linearGradient4084);fill-opacity:1;fill-rule:nonzero;stroke:none;stroke-width:1.5;marker:none;visibility:visible;display:inline;overflow:visible;enable-background:accumulate"
           d="m 1650.4994,-310.41615 c -54.4767,0 -98.3125,43.83583 -98.3125,98.3125 l 0,275.343747 c 0,54.476673 43.8358,98.343753 98.3125,98.343753 l 2.9375,0 c -53.3225,0 -96.25,-42.9275 -96.25,-96.250003 l 0,-269.499997 c 0,-53.3225 42.9275,-96.25 96.25,-96.25 l 269.5001,0 c 53.3225,0 96.25,42.9275 96.25,96.25 l 0,269.499997 c 0,53.322503 -42.9275,96.250003 -96.25,96.250003 l 2.9062,0 c 54.4767,0 98.3438,-43.86708 98.3438,-98.343753 l 0,-275.343747 c 0,-54.47667 -43.8671,-98.3125 -98.3438,-98.3125 l -275.3438,0 z"
           id="rect6809-2" />
        <path
           id="path3981"
           d="m 1650.4994,161.58385 c -54.4767,0 -98.3125,-43.83583 -98.3125,-98.312503 l 0,-275.343747 c 0,-54.47667 43.8358,-98.34375 98.3125,-98.34375 l 2.9375,0 c -53.3225,0 -96.25,42.9275 -96.25,96.25 l 0,269.499997 c 0,53.322503 42.9275,96.250003 96.25,96.250003 l 269.5001,0 c 53.3225,0 96.25,-42.9275 96.25,-96.250003 l 0,-269.499997 c 0,-53.3225 -42.9275,-96.25 -96.25,-96.25 l 2.9062,0 c 54.4767,0 98.3438,43.86708 98.3438,98.34375 l 0,275.343747 c 0,54.476673 -43.8671,98.312503 -98.3438,98.312503 l -275.3438,0 z"
           style="opacity:0.2;color:#000000;fill:url(#linearGradient4086);fill-opacity:1;fill-rule:nonzero;stroke:none;stroke-width:1.5;marker:none;visibility:visible;display:inline;overflow:visible;enable-background:accumulate"
           inkscape:connector-curvature="0" />
      </g>
    </g>
  </g>
  <path
     sodipodi:nodetypes="sccsccsccs"
     inkscape:connector-curvature="0"
     id="rect4121-6"
     d="m 256.15625,176.03125 c -12.05193,0 -23.46935,2.69365 -33.71875,7.46875 -6.92877,8.55962 -4.91827,15.41064 -12.96875,7.59375 -20.14449,14.51982 -33.28125,38.1785 -33.28125,64.90625 0,26.77286 13.20443,50.45457 33.40625,64.96875 9.94644,1.00524 9.43775,-0.9962 12.96875,7.59375 10.21932,4.7422 21.58599,7.40625 33.59375,7.40625 41.78515,0 76.08405,-32.04775 79.65625,-72.90625 0,0 -1.4661,-1.49607 -0.094,-15.03125 -4.0093,-40.41116 -38.097,-72 -79.56255,-72 z"
     style="color:#000000;fill:#ffffff;fill-opacity:1;fill-rule:nonzero;stroke:none;stroke-width:1.5;marker:none;visibility:visible;display:none;overflow:visible;enable-background:accumulate" />
  <g
     id="g8016"
     transform="matrix(1.092577,0,0,1.0925926,-23.696353,-23.70371)" />
</svg>
