<?xml version="1.0" encoding="UTF-8" standalone="no"?>
<!-- Created with Inkscape (http://www.inkscape.org/) -->

<svg
   xmlns:dc="http://purl.org/dc/elements/1.1/"
   xmlns:cc="http://creativecommons.org/ns#"
   xmlns:rdf="http://www.w3.org/1999/02/22-rdf-syntax-ns#"
   xmlns:svg="http://www.w3.org/2000/svg"
   xmlns="http://www.w3.org/2000/svg"
   xmlns:xlink="http://www.w3.org/1999/xlink"
   xmlns:sodipodi="http://sodipodi.sourceforge.net/DTD/sodipodi-0.dtd"
   xmlns:inkscape="http://www.inkscape.org/namespaces/inkscape"
   width="512"
   height="512"
   id="svg2"
   version="1.1"
   inkscape:version="0.48.3.1 r9886"
   sodipodi:docname="vlc.svg"
   inkscape:export-filename="/home/alecive/Scrivania/launcher_bfb.png"
   inkscape:export-xdpi="8.8000002"
   inkscape:export-ydpi="8.8000002">
  <sodipodi:namedview
     id="base"
     pagecolor="#ffffff"
     bordercolor="#666666"
     borderopacity="1.0"
     inkscape:pageopacity="0.0"
     inkscape:pageshadow="2"
     inkscape:zoom="0.60882028"
     inkscape:cx="-232.87819"
     inkscape:cy="275.53362"
     inkscape:document-units="px"
     inkscape:current-layer="svg2"
     showgrid="false"
     inkscape:window-width="1305"
     inkscape:window-height="744"
     inkscape:window-x="61"
     inkscape:window-y="24"
     inkscape:window-maximized="1"
     inkscape:object-paths="false"
     inkscape:snap-intersection-paths="false"
     inkscape:object-nodes="true"
     inkscape:snap-smooth-nodes="true"
     inkscape:snap-nodes="true" />
  <defs
     id="defs4">
    <linearGradient
       id="XMLID_74_-8-1"
       gradientUnits="userSpaceOnUse"
       x1="64.477501"
       y1="56.3008"
       x2="78.466103"
       y2="48.0854">
      <stop
         offset="0"
         style="stop-color:#ffffff;stop-opacity:1;"
         id="stop155-3-8" />
      <stop
         offset="1"
         style="stop-color:#e6e6e6;stop-opacity:1;"
         id="stop157-94-6" />
    </linearGradient>
    <radialGradient
       inkscape:collect="always"
       xlink:href="#XMLID_74_-8-1"
       id="radialGradient3867"
       cx="558.35437"
       cy="385.4841"
       fx="558.35437"
       fy="385.4841"
       r="191.6187"
       gradientTransform="matrix(1,0,0,1.0499906,0,-19.270593)"
       gradientUnits="userSpaceOnUse" />
    <linearGradient
       id="SVGID_2_"
       gradientUnits="userSpaceOnUse"
       x1="200.0508"
       y1="185.0742"
       x2="200.0508"
       y2="217.4595">
      <stop
         offset="0"
         style="stop-color:#61B74A"
         id="stop13" />
      <stop
         offset="1"
         style="stop-color:#449934"
         id="stop15" />
    </linearGradient>
    <linearGradient
       y2="217.4595"
       x2="200.0508"
       y1="185.0742"
       x1="200.0508"
       gradientTransform="matrix(13.577628,0,0,13.577628,-2026.1619,-2566.7096)"
       gradientUnits="userSpaceOnUse"
       id="linearGradient3021"
       xlink:href="#SVGID_2_"
       inkscape:collect="always" />
    <linearGradient
       inkscape:collect="always"
       xlink:href="#SVGID_2_"
       id="linearGradient3017"
       gradientUnits="userSpaceOnUse"
       gradientTransform="matrix(9.2574736,0,0,9.2574736,-1595.9285,-1607.2111)"
       x1="200.0508"
       y1="185.0742"
       x2="200.0508"
       y2="217.4595" />
    <linearGradient
       gradientUnits="userSpaceOnUse"
       y2="464"
       x2="259.99384"
       y1="44"
       x1="259.99384"
       id="linearGradient3803"
       xlink:href="#SVGID_2_"
       inkscape:collect="always" />
    <linearGradient
       inkscape:collect="always"
       xlink:href="#linearGradient4487"
       id="linearGradient4082"
       gradientUnits="userSpaceOnUse"
       gradientTransform="translate(-146.22032,369.08845)"
       x1="1016.1035"
       y1="476.25983"
       x2="1011.9534"
       y2="251.66064" />
    <linearGradient
       id="linearGradient4487">
      <stop
         id="stop4489"
         style="stop-color:#000000;stop-opacity:1"
         offset="0" />
      <stop
         id="stop4491"
         style="stop-color:#000000;stop-opacity:0"
         offset="1" />
    </linearGradient>
    <linearGradient
       id="linearGradient3737">
      <stop
         id="stop3739"
         style="stop-color:#ffffff;stop-opacity:1"
         offset="0" />
      <stop
         id="stop3741"
         style="stop-color:#ffffff;stop-opacity:0"
         offset="1" />
    </linearGradient>
    <linearGradient
       id="linearGradient4046">
      <stop
         id="stop4048"
         style="stop-color:#000000;stop-opacity:1;"
         offset="0" />
      <stop
         id="stop4050"
         style="stop-color:#ffffff;stop-opacity:0.2"
         offset="1" />
    </linearGradient>
    <linearGradient
       x1="45.447727"
       y1="92.539597"
       x2="45.447727"
       y2="7.0165396"
       id="ButtonShadow-0-1-1-5"
       gradientUnits="userSpaceOnUse"
       gradientTransform="matrix(1.0058652,0,0,0.994169,100,0)">
      <stop
         id="stop3750-8-9-3-6"
         style="stop-color:#000000;stop-opacity:1"
         offset="0" />
      <stop
         id="stop3752-5-6-4-2"
         style="stop-color:#000000;stop-opacity:0.58823532"
         offset="1" />
    </linearGradient>
    <linearGradient
       x1="45.447727"
       y1="92.539597"
       x2="45.447727"
       y2="7.0165396"
       id="linearGradient3395"
       gradientUnits="userSpaceOnUse"
       gradientTransform="matrix(1.0058652,0,0,0.994169,100,0)">
      <stop
         id="stop3397"
         style="stop-color:#000000;stop-opacity:1"
         offset="0" />
      <stop
         id="stop3399"
         style="stop-color:#000000;stop-opacity:0.58823532"
         offset="1" />
    </linearGradient>
    <linearGradient
       x1="45.447727"
       y1="92.539597"
       x2="45.447727"
       y2="7.0165396"
       id="linearGradient3402"
       gradientUnits="userSpaceOnUse"
       gradientTransform="matrix(1.0058652,0,0,0.994169,100,0)">
      <stop
         id="stop3404"
         style="stop-color:#000000;stop-opacity:1"
         offset="0" />
      <stop
         id="stop3406"
         style="stop-color:#000000;stop-opacity:0.58823532"
         offset="1" />
    </linearGradient>
    <linearGradient
       x1="45.447727"
       y1="92.539597"
       x2="45.447727"
       y2="7.0165396"
       id="linearGradient3409"
       gradientUnits="userSpaceOnUse"
       gradientTransform="matrix(1.0058652,0,0,0.994169,100,0)">
      <stop
         id="stop3411"
         style="stop-color:#000000;stop-opacity:1"
         offset="0" />
      <stop
         id="stop3413"
         style="stop-color:#000000;stop-opacity:0.58823532"
         offset="1" />
    </linearGradient>
    <linearGradient
       y2="20.625916"
       x2="1006.8082"
       y1="484.41721"
       x1="1012.5133"
       gradientTransform="matrix(1.0074153,0,0,1.0074153,-810.48879,593.1369)"
       gradientUnits="userSpaceOnUse"
       id="linearGradient5342"
       xlink:href="#ButtonShadow-0-1-1-5"
       inkscape:collect="always" />
    <linearGradient
       x1="45.447727"
       y1="92.539597"
       x2="45.447727"
       y2="7.0165396"
       id="linearGradient3416"
       gradientUnits="userSpaceOnUse"
       gradientTransform="matrix(1.0058652,0,0,0.994169,100,0)">
      <stop
         id="stop3418"
         style="stop-color:#000000;stop-opacity:1"
         offset="0" />
      <stop
         id="stop3420"
         style="stop-color:#000000;stop-opacity:0.58823532"
         offset="1" />
    </linearGradient>
    <linearGradient
       y2="134.64415"
       x2="128.50706"
       y1="101.1183"
       x1="4.1104655"
       gradientTransform="matrix(1.2351592,0,0,1.2351592,262.25708,326.9873)"
       gradientUnits="userSpaceOnUse"
       id="linearGradient5467"
       xlink:href="#linearGradient5479"
       inkscape:collect="always" />
    <linearGradient
       id="linearGradient5479">
      <stop
         id="stop5481"
         offset="0"
         style="stop-color:#be5300;stop-opacity:1;" />
      <stop
         style="stop-color:#f07300;stop-opacity:1"
         offset="0.76255572"
         id="stop5483" />
      <stop
         id="stop5485"
         offset="1"
         style="stop-color:#e67700;stop-opacity:1;" />
    </linearGradient>
    <linearGradient
       id="linearGradient5447">
      <stop
         style="stop-color:#e66e00;stop-opacity:1;"
         offset="0"
         id="stop5451" />
      <stop
         id="stop5453"
         offset="1"
         style="stop-color:#e67700;stop-opacity:1;" />
    </linearGradient>
    <linearGradient
       y2="20.625916"
       x2="1006.8082"
       y1="484.41721"
       x1="1012.5133"
       gradientTransform="matrix(1.0317796,0,0,1.0317796,-830.86406,592.67791)"
       gradientUnits="userSpaceOnUse"
       id="linearGradient3910"
       xlink:href="#ButtonShadow-0-1-1-5"
       inkscape:collect="always" />
    <linearGradient
       y2="20.625916"
       x2="1006.8082"
       y1="484.41721"
       x1="1012.5133"
       gradientTransform="matrix(1.0402541,0,0,1.0402541,-837.95116,592.51825)"
       gradientUnits="userSpaceOnUse"
       id="linearGradient3912"
       xlink:href="#ButtonShadow-0-1-1-5"
       inkscape:collect="always" />
    <linearGradient
       y2="20.625916"
       x2="1006.8082"
       y1="484.41721"
       x1="1012.5133"
       gradientTransform="matrix(1.023305,0,0,1.023305,-823.77704,592.83757)"
       gradientUnits="userSpaceOnUse"
       id="linearGradient3914"
       xlink:href="#ButtonShadow-0-1-1-5"
       inkscape:collect="always" />
    <linearGradient
       y2="20.625916"
       x2="1006.8082"
       y1="484.41721"
       x1="1012.5133"
       gradientTransform="matrix(1.0148305,0,0,1.0148305,-816.68996,592.99723)"
       gradientUnits="userSpaceOnUse"
       id="linearGradient3916"
       xlink:href="#ButtonShadow-0-1-1-5"
       inkscape:collect="always" />
    <linearGradient
       y2="20.625916"
       x2="1006.8082"
       y1="484.41721"
       x1="1012.5133"
       gradientTransform="matrix(1.0074153,0,0,1.0074153,-810.48879,593.1369)"
       gradientUnits="userSpaceOnUse"
       id="linearGradient3918"
       xlink:href="#ButtonShadow-0-1-1-5"
       inkscape:collect="always" />
    <linearGradient
       y2="363.73825"
       x2="988.78552"
       y1="51.511765"
       x1="993.43896"
       gradientTransform="translate(778.59979,-360.55963)"
       gradientUnits="userSpaceOnUse"
       id="linearGradient3920"
       xlink:href="#linearGradient3737"
       inkscape:collect="always" />
    <linearGradient
       y2="-55.941216"
       x2="1763.6903"
       y1="155.59685"
       x1="1764.6487"
       gradientUnits="userSpaceOnUse"
       id="linearGradient3922"
       xlink:href="#linearGradient4046"
       inkscape:collect="always" />
    <linearGradient
       y2="134.64415"
       x2="128.50706"
       y1="101.1183"
       x1="4.1104655"
       gradientTransform="matrix(1.2351592,0,0,1.2351592,262.25708,326.9873)"
       gradientUnits="userSpaceOnUse"
       id="linearGradient5467-1"
       xlink:href="#linearGradient5479-6"
       inkscape:collect="always" />
    <linearGradient
       id="linearGradient5479-6">
      <stop
         id="stop5481-6"
         offset="0"
         style="stop-color:#be5300;stop-opacity:1;" />
      <stop
         style="stop-color:#f07300;stop-opacity:1"
         offset="0.76255572"
         id="stop5483-0" />
      <stop
         id="stop5485-5"
         offset="1"
         style="stop-color:#e67700;stop-opacity:1;" />
    </linearGradient>
    <linearGradient
       inkscape:collect="always"
       xlink:href="#linearGradient5479-2"
       id="linearGradient3900"
       gradientUnits="userSpaceOnUse"
       gradientTransform="matrix(1.2351592,0,0,1.2351592,262.25708,326.9873)"
       x1="4.1104655"
       y1="101.1183"
       x2="128.50706"
       y2="134.64415" />
    <linearGradient
       id="linearGradient5479-2">
      <stop
         style="stop-color:#be5300;stop-opacity:1;"
         offset="0"
         id="stop5481-7" />
      <stop
         id="stop5483-4"
         offset="0.76255572"
         style="stop-color:#f07300;stop-opacity:1" />
      <stop
         style="stop-color:#e67700;stop-opacity:1;"
         offset="1"
         id="stop5485-2" />
    </linearGradient>
    <linearGradient
       y2="36.643665"
       x2="19.360001"
       y1="6.2951212"
       x1="18.930269"
       gradientTransform="matrix(12.102564,0,0,12.102564,-34.468255,-46.187105)"
       gradientUnits="userSpaceOnUse"
       id="linearGradient3157"
       xlink:href="#linearGradient2460"
       inkscape:collect="always" />
    <linearGradient
       x1="19.244999"
       y1="21.030804"
       x2="19.360001"
       gradientUnits="userSpaceOnUse"
       y2="44.984001"
       id="linearGradient2460">
      <stop
         offset="0"
         style="stop-color:#fafafa;stop-opacity:1;"
         id="stop3602" />
      <stop
         offset="1"
         style="stop-color:#f0f0f0;stop-opacity:1;"
         id="stop3604" />
    </linearGradient>
    <linearGradient
       y2="36.643665"
       x2="19.360001"
       y1="6.2951212"
       x1="18.930269"
       gradientTransform="matrix(12.102564,0,0,12.102564,-34.46825,-46.187087)"
       gradientUnits="userSpaceOnUse"
       id="linearGradient3924"
       xlink:href="#linearGradient2460"
       inkscape:collect="always" />
  </defs>
  <metadata
     id="metadata7">
    <rdf:RDF>
      <cc:Work
         rdf:about="">
        <dc:format>image/svg+xml</dc:format>
        <dc:type
           rdf:resource="http://purl.org/dc/dcmitype/StillImage" />
        <dc:title />
      </cc:Work>
    </rdf:RDF>
  </metadata>
  <g
     transform="translate(0,-540.36218)"
     inkscape:label="Livello 1"
     inkscape:groupmode="layer"
     id="layer1" />
  <g
     id="g4103"
     transform="matrix(1.0020367,0,0,1.0020367,-12.050206,-594.36389)">
    <rect
       ry="101.45834"
       y="612.11719"
       x="31.985071"
       height="487"
       width="487"
       id="rect6187"
       style="opacity:0.1;color:#000000;fill:url(#linearGradient3910);fill-opacity:1;fill-rule:nonzero;stroke:none;stroke-width:1.5;marker:none;visibility:visible;display:inline;overflow:visible;enable-background:accumulate" />
    <rect
       style="opacity:0.07999998;color:#000000;fill:url(#linearGradient3912);fill-opacity:1;fill-rule:nonzero;stroke:none;stroke-width:1.5;marker:none;visibility:visible;display:inline;overflow:visible;enable-background:accumulate"
       id="rect6191"
       width="491"
       height="491"
       x="31.985071"
       y="612.11719"
       ry="102.29167" />
    <rect
       style="opacity:0.2;color:#000000;fill:url(#linearGradient3914);fill-opacity:1;fill-rule:nonzero;stroke:none;stroke-width:1.5;marker:none;visibility:visible;display:inline;overflow:visible;enable-background:accumulate"
       id="rect6183"
       width="483"
       height="483"
       x="31.985071"
       y="612.11719"
       ry="100.62501" />
    <rect
       ry="99.791664"
       y="612.11719"
       x="31.985071"
       height="479"
       width="479"
       id="rect6179"
       style="opacity:0.25;color:#000000;fill:url(#linearGradient3916);fill-opacity:1;fill-rule:nonzero;stroke:none;stroke-width:1.5;marker:none;visibility:visible;display:inline;overflow:visible;enable-background:accumulate" />
    <rect
       style="opacity:0.25;color:#000000;fill:url(#linearGradient3918);fill-opacity:1;fill-rule:nonzero;stroke:none;stroke-width:1.5;marker:none;visibility:visible;display:inline;overflow:visible;enable-background:accumulate"
       id="rect5574"
       width="475.5"
       height="475.5"
       x="31.985071"
       y="612.11719"
       ry="99.0625" />
  </g>
  <path
     style="fill:url(#linearGradient3924);stroke:none"
     d="M 118.34375,20.000013 C 63.86709,20.000013 20,63.867093 20,118.34376 l 0,23.0625 0,252.25 c 0,54.47666 43.86709,98.34375 98.34375,98.34375 l 275.3125,0 C 448.13292,492.00001 492,448.13292 492,393.65626 l 0,-252.25 0,-23.0625 C 492,63.867093 448.13292,20.000013 393.65625,20.000013 l -275.3125,0 z"
     id="rect5505"
     inkscape:connector-curvature="0" />
  <path
     style="fill:#000000;fill-opacity:0.15686275;fill-rule:evenodd;stroke:none;display:inline"
     d="m 256.96875,115.40239 c -5.3803,0.0929 -8.8939,0.79748 -12.40625,3.4375 -1.83218,1.37713 -3.25943,4.64479 -4.125,7 l -68.90625,227.46876 -55.09375,0 c -5.50853,0 -9.96875,4.49709 -9.96875,10.09375 l 0,22.0625 c 0.32322,2.94176 1.49895,5.7776 3.28125,7.5 l 99.0272,99.0268 184.875,0 C 448.13291,491.9957 492,448.12906 492,393.6524 l 0,-57.59375 c 0,0 -215.10231,-214.48949 -216.68695,-216.68691 -4.26743,-4.04486 -10.71784,-3.91658 -15.90625,-3.96875 -0.85067,-0.009 -1.66889,-0.0133 -2.4375,0 z"
     id="path4079-8"
     inkscape:connector-curvature="0"
     sodipodi:nodetypes="csccsscccssccssc" />
  <g
     id="g8245">
    <g
       id="g8238">
      <g
         id="g8222"
         transform="translate(1016.4294,-163.46645)">
        <g
           id="g3877"
           style="display:inline"
           transform="matrix(0.40681414,0,0,0.40681414,-916.71753,244.94866)">
          <path
             id="path3656-2"
             transform="translate(-86.8926,-71.576787)"
             d="m 473.4375,154.9375 c -13.22545,0.22828 -21.83494,2.01052 -30.46875,8.5 -4.50371,3.38515 -8.05982,11.42935 -10.1875,17.21875 l -169.375,559.09375 -135.4375,0 c -13.54066,0 -24.4375,11.08646 -24.4375,24.84375 l 0,54.21875 c 0,13.75729 10.89684,24.84375 24.4375,24.84375 l 688.5625,0 c 13.54066,0 24.4375,-11.08646 24.4375,-24.84375 l 0,-54.21875 c 0,-13.75729 -10.89684,-24.84375 -24.4375,-24.84375 l -119.125,0 L 522.4375,170.125 c -0.72722,-2.36762 -2.47286,-4.10848 -3.875,-5.4375 -10.48989,-9.94276 -26.40249,-9.62175 -39.15625,-9.75 -2.09106,-0.021 -4.0794,-0.0326 -5.96875,0 z"
             style="fill:#e66e00;fill-opacity:1;fill-rule:evenodd;stroke:none"
             inkscape:connector-curvature="0" />
          <path
             style="fill:#f5f5f5;fill-opacity:1;fill-rule:evenodd;stroke:none"
             d="M 550.71875,262.1875 C 408.01088,262.80972 550.72419,262.35018 408,262.5 l -41.40625,136.75 c 226.69664,1.56085 2.52353,0.58596 226.5,0.875 z M 323.78125,540.5 l -39.25,129.59375 c 392.7203,-0.68223 1.69816,-0.15016 391.3125,-0.53125 l -39.53125,-128.75 c -312.55115,-0.88461 1.59113,-2.35228 -312.53125,-0.3125 z"
             transform="translate(-86.8926,-71.576787)"
             id="path2843-0"
             inkscape:connector-curvature="0"
             sodipodi:nodetypes="cccccccccc" />
        </g>
      </g>
    </g>
  </g>
  <g
     id="g4076"
     transform="matrix(1.0020367,0,0,1.0020367,-606.7933,-355.72998)">
    <g
       transform="translate(-926.66758,684.38448)"
       id="g4038">
      <path
         inkscape:connector-curvature="0"
         style="opacity:0.5;color:#000000;fill:url(#linearGradient3920);fill-opacity:1;fill-rule:nonzero;stroke:none;stroke-width:1.5;marker:none;visibility:visible;display:inline;overflow:visible;enable-background:accumulate"
         d="m 1650.4994,-310.41615 c -54.4767,0 -98.3125,43.83583 -98.3125,98.3125 l 0,275.343747 c 0,54.476673 43.8358,98.343753 98.3125,98.343753 l 2.9375,0 c -53.3225,0 -96.25,-42.9275 -96.25,-96.250003 l 0,-269.499997 c 0,-53.3225 42.9275,-96.25 96.25,-96.25 l 269.5001,0 c 53.3225,0 96.25,42.9275 96.25,96.25 l 0,269.499997 c 0,53.322503 -42.9275,96.250003 -96.25,96.250003 l 2.9062,0 c 54.4767,0 98.3438,-43.86708 98.3438,-98.343753 l 0,-275.343747 c 0,-54.47667 -43.8671,-98.3125 -98.3438,-98.3125 l -275.3438,0 z"
         id="rect6809-2" />
      <path
         id="path3981"
         d="m 1650.4994,161.58385 c -54.4767,0 -98.3125,-43.83583 -98.3125,-98.312503 l 0,-275.343747 c 0,-54.47667 43.8358,-98.34375 98.3125,-98.34375 l 2.9375,0 c -53.3225,0 -96.25,42.9275 -96.25,96.25 l 0,269.499997 c 0,53.322503 42.9275,96.250003 96.25,96.250003 l 269.5001,0 c 53.3225,0 96.25,-42.9275 96.25,-96.250003 l 0,-269.499997 c 0,-53.3225 -42.9275,-96.25 -96.25,-96.25 l 2.9062,0 c 54.4767,0 98.3438,43.86708 98.3438,98.34375 l 0,275.343747 c 0,54.476673 -43.8671,98.312503 -98.3438,98.312503 l -275.3438,0 z"
         style="opacity:0.2;color:#000000;fill:url(#linearGradient3922);fill-opacity:1;fill-rule:nonzero;stroke:none;stroke-width:1.5;marker:none;visibility:visible;display:inline;overflow:visible;enable-background:accumulate"
         inkscape:connector-curvature="0" />
    </g>
  </g>
  <g
     id="g3950"
     transform="matrix(1.0020367,0,0,1.0020367,-0.0407333,-1.0407352)" />
  <g
     transform="matrix(0.71435537,0,0,0.71435537,-375.48826,176.56699)"
     id="g3097">
    <path
       id="path2843"
       transform="matrix(1.3998635,0,0,1.3998635,525.63231,-247.16968)"
       d="M 490.5625 95.75 C 368.84313 95.935045 148.22288 95.840577 22.40625 95.84375 C 20.851483 102.81766 20 110.07544 20 117.53125 L 20 193.875 C 159.06454 194.36854 351.3198 194.1304 492.96875 194.125 L 492.96875 117.53125 C 492.96875 110.04375 492.13015 102.75112 490.5625 95.75 z M 183.375 293.6875 C 130.87965 293.68452 76.991657 293.80732 20 294.0625 L 20 386.90625 C 211.76187 386.64294 302.43305 386.81362 492.96875 386.6875 L 492.96875 294.4375 C 383.67462 294.08252 284.54313 293.69324 183.375 293.6875 z "
       style="fill:#ffffff;fill-opacity:1;fill-rule:evenodd;stroke:none;display:inline;opacity:0" />
  </g>
  <g
     transform="matrix(1.092577,0,0,1.0925926,-23.696353,-23.70371)"
     id="g8016" />
</svg>
