<?xml version="1.0" encoding="UTF-8" standalone="no"?>
<!-- Created with Inkscape (http://www.inkscape.org/) -->

<svg
   xmlns:dc="http://purl.org/dc/elements/1.1/"
   xmlns:cc="http://creativecommons.org/ns#"
   xmlns:rdf="http://www.w3.org/1999/02/22-rdf-syntax-ns#"
   xmlns:svg="http://www.w3.org/2000/svg"
   xmlns="http://www.w3.org/2000/svg"
   xmlns:xlink="http://www.w3.org/1999/xlink"
   xmlns:sodipodi="http://sodipodi.sourceforge.net/DTD/sodipodi-0.dtd"
   xmlns:inkscape="http://www.inkscape.org/namespaces/inkscape"
   width="512"
   height="512"
   id="svg2"
   version="1.1"
   inkscape:version="0.48.3.1 r9886"
   sodipodi:docname="vlc_B.svg"
   inkscape:export-filename="/home/alecive/Scrivania/launcher_bfb.png"
   inkscape:export-xdpi="8.8000002"
   inkscape:export-ydpi="8.8000002">
  <sodipodi:namedview
     id="base"
     pagecolor="#ffffff"
     bordercolor="#666666"
     borderopacity="1.0"
     inkscape:pageopacity="0.0"
     inkscape:pageshadow="2"
     inkscape:zoom="0.60882028"
     inkscape:cx="339.54033"
     inkscape:cy="275.53362"
     inkscape:document-units="px"
     inkscape:current-layer="svg2"
     showgrid="false"
     inkscape:window-width="1305"
     inkscape:window-height="744"
     inkscape:window-x="61"
     inkscape:window-y="23"
     inkscape:window-maximized="1"
     inkscape:object-paths="false"
     inkscape:snap-intersection-paths="false"
     inkscape:object-nodes="true"
     inkscape:snap-smooth-nodes="true"
     inkscape:snap-nodes="true" />
  <defs
     id="defs4">
    <linearGradient
       id="XMLID_74_-8-1"
       gradientUnits="userSpaceOnUse"
       x1="64.477501"
       y1="56.3008"
       x2="78.466103"
       y2="48.0854">
      <stop
         offset="0"
         style="stop-color:#ffffff;stop-opacity:1;"
         id="stop155-3-8" />
      <stop
         offset="1"
         style="stop-color:#e6e6e6;stop-opacity:1;"
         id="stop157-94-6" />
    </linearGradient>
    <radialGradient
       inkscape:collect="always"
       xlink:href="#XMLID_74_-8-1"
       id="radialGradient3867"
       cx="558.35437"
       cy="385.4841"
       fx="558.35437"
       fy="385.4841"
       r="191.6187"
       gradientTransform="matrix(1,0,0,1.0499906,0,-19.270593)"
       gradientUnits="userSpaceOnUse" />
    <linearGradient
       id="SVGID_2_"
       gradientUnits="userSpaceOnUse"
       x1="200.0508"
       y1="185.0742"
       x2="200.0508"
       y2="217.4595">
      <stop
         offset="0"
         style="stop-color:#61B74A"
         id="stop13" />
      <stop
         offset="1"
         style="stop-color:#449934"
         id="stop15" />
    </linearGradient>
    <linearGradient
       y2="217.4595"
       x2="200.0508"
       y1="185.0742"
       x1="200.0508"
       gradientTransform="matrix(13.577628,0,0,13.577628,-2026.1619,-2566.7096)"
       gradientUnits="userSpaceOnUse"
       id="linearGradient3021"
       xlink:href="#SVGID_2_"
       inkscape:collect="always" />
    <linearGradient
       inkscape:collect="always"
       xlink:href="#SVGID_2_"
       id="linearGradient3017"
       gradientUnits="userSpaceOnUse"
       gradientTransform="matrix(9.2574736,0,0,9.2574736,-1595.9285,-1607.2111)"
       x1="200.0508"
       y1="185.0742"
       x2="200.0508"
       y2="217.4595" />
    <linearGradient
       gradientUnits="userSpaceOnUse"
       y2="464"
       x2="259.99384"
       y1="44"
       x1="259.99384"
       id="linearGradient3803"
       xlink:href="#SVGID_2_"
       inkscape:collect="always" />
    <linearGradient
       inkscape:collect="always"
       xlink:href="#linearGradient4487"
       id="linearGradient4082"
       gradientUnits="userSpaceOnUse"
       gradientTransform="translate(-146.22032,369.08845)"
       x1="1016.1035"
       y1="476.25983"
       x2="1011.9534"
       y2="251.66064" />
    <linearGradient
       id="linearGradient4487">
      <stop
         id="stop4489"
         style="stop-color:#000000;stop-opacity:1"
         offset="0" />
      <stop
         id="stop4491"
         style="stop-color:#000000;stop-opacity:0"
         offset="1" />
    </linearGradient>
    <linearGradient
       id="linearGradient3737">
      <stop
         id="stop3739"
         style="stop-color:#ffffff;stop-opacity:1"
         offset="0" />
      <stop
         id="stop3741"
         style="stop-color:#ffffff;stop-opacity:0"
         offset="1" />
    </linearGradient>
    <linearGradient
       id="linearGradient4046">
      <stop
         id="stop4048"
         style="stop-color:#000000;stop-opacity:1;"
         offset="0" />
      <stop
         id="stop4050"
         style="stop-color:#ffffff;stop-opacity:0.2"
         offset="1" />
    </linearGradient>
    <linearGradient
       x1="45.447727"
       y1="92.539597"
       x2="45.447727"
       y2="7.0165396"
       id="ButtonShadow-0-1-1-5"
       gradientUnits="userSpaceOnUse"
       gradientTransform="matrix(1.0058652,0,0,0.994169,100,0)">
      <stop
         id="stop3750-8-9-3-6"
         style="stop-color:#000000;stop-opacity:1"
         offset="0" />
      <stop
         id="stop3752-5-6-4-2"
         style="stop-color:#000000;stop-opacity:0.58823532"
         offset="1" />
    </linearGradient>
    <linearGradient
       x1="45.447727"
       y1="92.539597"
       x2="45.447727"
       y2="7.0165396"
       id="linearGradient3395"
       gradientUnits="userSpaceOnUse"
       gradientTransform="matrix(1.0058652,0,0,0.994169,100,0)">
      <stop
         id="stop3397"
         style="stop-color:#000000;stop-opacity:1"
         offset="0" />
      <stop
         id="stop3399"
         style="stop-color:#000000;stop-opacity:0.58823532"
         offset="1" />
    </linearGradient>
    <linearGradient
       x1="45.447727"
       y1="92.539597"
       x2="45.447727"
       y2="7.0165396"
       id="linearGradient3402"
       gradientUnits="userSpaceOnUse"
       gradientTransform="matrix(1.0058652,0,0,0.994169,100,0)">
      <stop
         id="stop3404"
         style="stop-color:#000000;stop-opacity:1"
         offset="0" />
      <stop
         id="stop3406"
         style="stop-color:#000000;stop-opacity:0.58823532"
         offset="1" />
    </linearGradient>
    <linearGradient
       x1="45.447727"
       y1="92.539597"
       x2="45.447727"
       y2="7.0165396"
       id="linearGradient3409"
       gradientUnits="userSpaceOnUse"
       gradientTransform="matrix(1.0058652,0,0,0.994169,100,0)">
      <stop
         id="stop3411"
         style="stop-color:#000000;stop-opacity:1"
         offset="0" />
      <stop
         id="stop3413"
         style="stop-color:#000000;stop-opacity:0.58823532"
         offset="1" />
    </linearGradient>
    <linearGradient
       y2="20.625916"
       x2="1006.8082"
       y1="484.41721"
       x1="1012.5133"
       gradientTransform="matrix(1.0074153,0,0,1.0074153,-810.48879,593.1369)"
       gradientUnits="userSpaceOnUse"
       id="linearGradient5342"
       xlink:href="#ButtonShadow-0-1-1-5"
       inkscape:collect="always" />
    <linearGradient
       x1="45.447727"
       y1="92.539597"
       x2="45.447727"
       y2="7.0165396"
       id="linearGradient3416"
       gradientUnits="userSpaceOnUse"
       gradientTransform="matrix(1.0058652,0,0,0.994169,100,0)">
      <stop
         id="stop3418"
         style="stop-color:#000000;stop-opacity:1"
         offset="0" />
      <stop
         id="stop3420"
         style="stop-color:#000000;stop-opacity:0.58823532"
         offset="1" />
    </linearGradient>
    <linearGradient
       y2="134.64415"
       x2="128.50706"
       y1="101.1183"
       x1="4.1104655"
       gradientTransform="matrix(1.2351592,0,0,1.2351592,262.25708,326.9873)"
       gradientUnits="userSpaceOnUse"
       id="linearGradient5467"
       xlink:href="#linearGradient5479"
       inkscape:collect="always" />
    <linearGradient
       id="linearGradient5479">
      <stop
         id="stop5481"
         offset="0"
         style="stop-color:#be5300;stop-opacity:1;" />
      <stop
         style="stop-color:#f07300;stop-opacity:1"
         offset="0.76255572"
         id="stop5483" />
      <stop
         id="stop5485"
         offset="1"
         style="stop-color:#e67700;stop-opacity:1;" />
    </linearGradient>
    <linearGradient
       id="linearGradient5447">
      <stop
         style="stop-color:#e66e00;stop-opacity:1;"
         offset="0"
         id="stop5451" />
      <stop
         id="stop5453"
         offset="1"
         style="stop-color:#e67700;stop-opacity:1;" />
    </linearGradient>
    <linearGradient
       y2="20.625916"
       x2="1006.8082"
       y1="484.41721"
       x1="1012.5133"
       gradientTransform="matrix(1.0317796,0,0,1.0317796,-830.86406,592.67791)"
       gradientUnits="userSpaceOnUse"
       id="linearGradient3910"
       xlink:href="#ButtonShadow-0-1-1-5"
       inkscape:collect="always" />
    <linearGradient
       y2="20.625916"
       x2="1006.8082"
       y1="484.41721"
       x1="1012.5133"
       gradientTransform="matrix(1.0402541,0,0,1.0402541,-837.95116,592.51825)"
       gradientUnits="userSpaceOnUse"
       id="linearGradient3912"
       xlink:href="#ButtonShadow-0-1-1-5"
       inkscape:collect="always" />
    <linearGradient
       y2="20.625916"
       x2="1006.8082"
       y1="484.41721"
       x1="1012.5133"
       gradientTransform="matrix(1.023305,0,0,1.023305,-823.77704,592.83757)"
       gradientUnits="userSpaceOnUse"
       id="linearGradient3914"
       xlink:href="#ButtonShadow-0-1-1-5"
       inkscape:collect="always" />
    <linearGradient
       y2="20.625916"
       x2="1006.8082"
       y1="484.41721"
       x1="1012.5133"
       gradientTransform="matrix(1.0148305,0,0,1.0148305,-816.68996,592.99723)"
       gradientUnits="userSpaceOnUse"
       id="linearGradient3916"
       xlink:href="#ButtonShadow-0-1-1-5"
       inkscape:collect="always" />
    <linearGradient
       y2="20.625916"
       x2="1006.8082"
       y1="484.41721"
       x1="1012.5133"
       gradientTransform="matrix(1.0074153,0,0,1.0074153,-810.48879,593.1369)"
       gradientUnits="userSpaceOnUse"
       id="linearGradient3918"
       xlink:href="#ButtonShadow-0-1-1-5"
       inkscape:collect="always" />
    <linearGradient
       y2="363.73825"
       x2="988.78552"
       y1="51.511765"
       x1="993.43896"
       gradientTransform="translate(778.59979,-360.55963)"
       gradientUnits="userSpaceOnUse"
       id="linearGradient3920"
       xlink:href="#linearGradient3737"
       inkscape:collect="always" />
    <linearGradient
       y2="-55.941216"
       x2="1763.6903"
       y1="155.59685"
       x1="1764.6487"
       gradientUnits="userSpaceOnUse"
       id="linearGradient3922"
       xlink:href="#linearGradient4046"
       inkscape:collect="always" />
    <linearGradient
       y2="134.64415"
       x2="128.50706"
       y1="101.1183"
       x1="4.1104655"
       gradientTransform="matrix(1.2351592,0,0,1.2351592,262.25708,326.9873)"
       gradientUnits="userSpaceOnUse"
       id="linearGradient5467-1"
       xlink:href="#linearGradient5479-6"
       inkscape:collect="always" />
    <linearGradient
       id="linearGradient5479-6">
      <stop
         id="stop5481-6"
         offset="0"
         style="stop-color:#be5300;stop-opacity:1;" />
      <stop
         style="stop-color:#f07300;stop-opacity:1"
         offset="0.76255572"
         id="stop5483-0" />
      <stop
         id="stop5485-5"
         offset="1"
         style="stop-color:#e67700;stop-opacity:1;" />
    </linearGradient>
    <linearGradient
       id="linearGradient5479-2">
      <stop
         style="stop-color:#be5300;stop-opacity:1;"
         offset="0"
         id="stop5481-7" />
      <stop
         id="stop5483-4"
         offset="0.76255572"
         style="stop-color:#f07300;stop-opacity:1" />
      <stop
         style="stop-color:#e67700;stop-opacity:1;"
         offset="1"
         id="stop5485-2" />
    </linearGradient>
  </defs>
  <metadata
     id="metadata7">
    <rdf:RDF>
      <cc:Work
         rdf:about="">
        <dc:format>image/svg+xml</dc:format>
        <dc:type
           rdf:resource="http://purl.org/dc/dcmitype/StillImage" />
        <dc:title></dc:title>
      </cc:Work>
    </rdf:RDF>
  </metadata>
  <g
     transform="translate(0,-540.36218)"
     inkscape:label="Livello 1"
     inkscape:groupmode="layer"
     id="layer1" />
  <g
     id="g4103"
     transform="matrix(1.0020367,0,0,1.0020367,-12.050206,-594.36389)">
    <rect
       ry="101.45834"
       y="612.11719"
       x="31.985071"
       height="487"
       width="487"
       id="rect6187"
       style="opacity:0.1;color:#000000;fill:url(#linearGradient3910);fill-opacity:1;fill-rule:nonzero;stroke:none;stroke-width:1.5;marker:none;visibility:visible;display:inline;overflow:visible;enable-background:accumulate" />
    <rect
       style="opacity:0.07999998;color:#000000;fill:url(#linearGradient3912);fill-opacity:1;fill-rule:nonzero;stroke:none;stroke-width:1.5;marker:none;visibility:visible;display:inline;overflow:visible;enable-background:accumulate"
       id="rect6191"
       width="491"
       height="491"
       x="31.985071"
       y="612.11719"
       ry="102.29167" />
    <rect
       style="opacity:0.2;color:#000000;fill:url(#linearGradient3914);fill-opacity:1;fill-rule:nonzero;stroke:none;stroke-width:1.5;marker:none;visibility:visible;display:inline;overflow:visible;enable-background:accumulate"
       id="rect6183"
       width="483"
       height="483"
       x="31.985071"
       y="612.11719"
       ry="100.62501" />
    <rect
       ry="99.791664"
       y="612.11719"
       x="31.985071"
       height="479"
       width="479"
       id="rect6179"
       style="opacity:0.25;color:#000000;fill:url(#linearGradient3916);fill-opacity:1;fill-rule:nonzero;stroke:none;stroke-width:1.5;marker:none;visibility:visible;display:inline;overflow:visible;enable-background:accumulate" />
    <rect
       style="opacity:0.25;color:#000000;fill:url(#linearGradient3918);fill-opacity:1;fill-rule:nonzero;stroke:none;stroke-width:1.5;marker:none;visibility:visible;display:inline;overflow:visible;enable-background:accumulate"
       id="rect5574"
       width="475.5"
       height="475.5"
       x="31.985071"
       y="612.11719"
       ry="99.0625" />
  </g>
  <g
     id="g8245">
    <rect
       ry="98.333328"
       y="20.000013"
       x="20"
       height="472"
       width="472"
       id="rect3946"
       style="color:#000000;fill:#e66e00;fill-opacity:1;fill-rule:nonzero;stroke:none;stroke-width:1.50000000000000000;marker:none;visibility:visible;display:inline;overflow:visible;enable-background:accumulate" />
    <g
       id="g8238">
      <path
         style="fill:#000000;fill-opacity:0.31372549;fill-rule:evenodd;stroke:none;display:inline"
         d="M 256.96875 115.40625 C 251.58845 115.49913 248.07485 116.20373 244.5625 118.84375 C 242.73032 120.22088 241.30307 123.48854 240.4375 125.84375 L 171.53125 353.3125 L 116.4375 353.3125 C 110.92897 353.3125 106.46875 357.80959 106.46875 363.40625 L 106.46875 385.46875 C 106.46875 388.41816 107.7166 391.06142 109.6875 392.90625 C 109.7077 392.92715 109.72962 392.94803 109.75 392.96875 C 109.86249 393.07223 109.97664 393.18305 110.09375 393.28125 C 110.09908 393.28619 110.08841 393.30757 110.09375 393.3125 C 110.11798 393.33961 110.16299 393.34816 110.1875 393.375 C 110.20395 393.38983 110.2022 393.42278 110.21875 393.4375 C 110.26082 393.47877 110.30096 393.52199 110.34375 393.5625 C 110.37212 393.58683 110.40886 393.60099 110.4375 393.625 C 110.453 393.64083 110.45315 393.67178 110.46875 393.6875 C 110.62787 393.86516 110.79762 394.02183 110.96875 394.1875 C 111.08967 394.31664 111.21628 394.44003 111.34375 394.5625 C 111.50495 394.73314 111.67114 394.90373 111.84375 395.0625 C 111.91684 395.13682 111.98716 395.20928 112.0625 395.28125 C 112.10119 395.31471 112.1483 395.34213 112.1875 395.375 C 112.22384 395.41211 112.24435 395.46347 112.28125 395.5 C 112.4219 395.65427 112.56893 395.79246 112.71875 395.9375 C 112.83967 396.06664 112.96628 396.19003 113.09375 396.3125 C 113.25495 396.48314 113.42114 396.65373 113.59375 396.8125 C 113.6003 396.81797 113.61843 396.80704 113.625 396.8125 C 113.69825 396.88665 113.76825 396.95945 113.84375 397.03125 C 113.87676 397.05967 113.90412 397.09701 113.9375 397.125 C 114.00063 397.18951 114.06017 397.24974 114.125 397.3125 C 114.18093 397.36157 114.22424 397.42094 114.28125 397.46875 C 114.31739 397.50567 114.33831 397.5574 114.375 397.59375 C 114.51565 397.74802 114.66268 397.88621 114.8125 398.03125 C 114.9831 398.21345 115.16023 398.3937 115.34375 398.5625 C 115.43772 398.65805 115.52733 398.75209 115.625 398.84375 C 115.64185 398.85807 115.67056 398.86079 115.6875 398.875 C 115.76549 398.95465 115.82568 399.04803 115.90625 399.125 C 115.94576 399.1592 115.99121 399.18517 116.03125 399.21875 C 116.06683 399.25509 116.08888 399.30797 116.125 399.34375 C 116.26565 399.49802 116.41268 399.63621 116.5625 399.78125 C 116.7331 399.96345 116.91023 400.1437 117.09375 400.3125 C 117.18772 400.40805 117.27733 400.50209 117.375 400.59375 C 117.39185 400.60807 117.42056 400.61079 117.4375 400.625 C 117.51549 400.70465 117.57568 400.79803 117.65625 400.875 C 117.69576 400.9092 117.74121 400.93517 117.78125 400.96875 C 117.81759 401.00586 117.8381 401.05722 117.875 401.09375 C 118.01565 401.24802 118.16268 401.38621 118.3125 401.53125 C 118.43342 401.66039 118.56003 401.78378 118.6875 401.90625 C 118.8487 402.07689 119.01489 402.24748 119.1875 402.40625 C 119.26059 402.48057 119.33091 402.55303 119.40625 402.625 C 119.44494 402.65846 119.49205 402.68588 119.53125 402.71875 C 119.61459 402.80386 119.69497 402.8867 119.78125 402.96875 C 119.81507 402.99789 119.84079 403.03382 119.875 403.0625 C 119.91149 403.09979 119.9317 403.15079 119.96875 403.1875 C 120.11797 403.35117 120.27797 403.50298 120.4375 403.65625 C 120.5987 403.82689 120.76489 403.99748 120.9375 404.15625 C 121.03147 404.2518 121.12108 404.34584 121.21875 404.4375 C 121.2356 404.45182 121.26431 404.45454 121.28125 404.46875 C 121.35924 404.5484 121.41943 404.64178 121.5 404.71875 C 121.53951 404.75295 121.58496 404.77892 121.625 404.8125 C 121.66058 404.84884 121.68263 404.90172 121.71875 404.9375 C 121.8594 405.09177 122.00643 405.22995 122.15625 405.375 C 122.32685 405.5572 122.50398 405.73745 122.6875 405.90625 C 122.78147 406.0018 122.87108 406.09584 122.96875 406.1875 C 122.9856 406.20182 123.01431 406.20454 123.03125 406.21875 C 123.10924 406.2984 123.16943 406.39178 123.25 406.46875 C 123.28951 406.50295 123.33496 406.52892 123.375 406.5625 C 123.41134 406.59961 123.43185 406.65097 123.46875 406.6875 C 123.6094 406.84177 123.75643 406.97995 123.90625 407.125 C 124.02717 407.25414 124.15378 407.37753 124.28125 407.5 C 124.44245 407.67064 124.60864 407.84123 124.78125 408 C 124.85434 408.07432 124.92466 408.14678 125 408.21875 C 125.03869 408.25221 125.0858 408.27963 125.125 408.3125 C 125.16134 408.34961 125.18185 408.40097 125.21875 408.4375 C 125.3594 408.59177 125.50643 408.72995 125.65625 408.875 C 125.77717 409.00414 125.90378 409.12753 126.03125 409.25 C 126.19245 409.42064 126.35864 409.59123 126.53125 409.75 C 126.5378 409.75547 126.55593 409.74454 126.5625 409.75 C 126.63575 409.82415 126.70575 409.89695 126.78125 409.96875 C 126.81426 409.99717 126.84162 410.03451 126.875 410.0625 C 126.93813 410.12701 126.99767 410.18724 127.0625 410.25 C 127.11843 410.29907 127.16174 410.35844 127.21875 410.40625 C 127.25489 410.44317 127.27581 410.4949 127.3125 410.53125 C 127.45315 410.68552 127.60018 410.8237 127.75 410.96875 C 127.9206 411.15095 128.09773 411.3312 128.28125 411.5 C 128.37522 411.59555 128.46483 411.68959 128.5625 411.78125 C 128.57935 411.79557 128.60806 411.79829 128.625 411.8125 C 128.70299 411.89215 128.76318 411.98553 128.84375 412.0625 C 128.88326 412.0967 128.92871 412.12267 128.96875 412.15625 C 129.00509 412.19336 129.0256 412.24472 129.0625 412.28125 C 129.20315 412.43552 129.35018 412.5737 129.5 412.71875 C 129.62092 412.84789 129.74753 412.97128 129.875 413.09375 C 130.0362 413.26439 130.20239 413.43498 130.375 413.59375 C 130.44809 413.66807 130.51841 413.74053 130.59375 413.8125 C 130.63244 413.84596 130.67955 413.87338 130.71875 413.90625 C 130.75509 413.94336 130.7756 413.99472 130.8125 414.03125 C 130.95315 414.18552 131.10018 414.3237 131.25 414.46875 C 131.37092 414.59789 131.49753 414.72128 131.625 414.84375 C 131.7862 415.01439 131.95239 415.18498 132.125 415.34375 C 132.13155 415.34922 132.14968 415.33829 132.15625 415.34375 C 132.2295 415.4179 132.2995 415.4907 132.375 415.5625 C 132.40801 415.59092 132.43537 415.62826 132.46875 415.65625 C 132.53188 415.72076 132.59142 415.78099 132.65625 415.84375 C 132.71218 415.89282 132.75549 415.95219 132.8125 416 C 132.84864 416.03692 132.86956 416.08865 132.90625 416.125 C 133.05547 416.28867 133.21547 416.44048 133.375 416.59375 C 133.5362 416.76439 133.70239 416.93498 133.875 417.09375 C 133.96897 417.1893 134.05858 417.28334 134.15625 417.375 C 134.1731 417.38932 134.20181 417.39204 134.21875 417.40625 C 134.29674 417.4859 134.35693 417.57928 134.4375 417.65625 C 134.47701 417.69045 134.52246 417.71642 134.5625 417.75 C 134.59808 417.78634 134.62013 417.83922 134.65625 417.875 C 134.7969 418.02927 134.94393 418.16745 135.09375 418.3125 C 135.26435 418.4947 135.44148 418.67495 135.625 418.84375 C 135.71897 418.9393 135.80858 419.03334 135.90625 419.125 C 135.9231 419.13932 135.95181 419.14204 135.96875 419.15625 C 136.04674 419.2359 136.10693 419.32928 136.1875 419.40625 C 136.22701 419.44045 136.27246 419.46642 136.3125 419.5 C 136.34884 419.53711 136.36935 419.58847 136.40625 419.625 C 136.5469 419.77927 136.69393 419.91745 136.84375 420.0625 C 136.96467 420.19164 137.09128 420.31503 137.21875 420.4375 C 137.37995 420.60814 137.54614 420.77873 137.71875 420.9375 C 137.79184 421.01182 137.86216 421.08428 137.9375 421.15625 C 137.97619 421.18971 138.0233 421.21713 138.0625 421.25 C 138.14584 421.33511 138.22622 421.41795 138.3125 421.5 C 138.34632 421.52914 138.37204 421.56507 138.40625 421.59375 C 138.44274 421.63104 138.46295 421.68204 138.5 421.71875 C 138.64922 421.88242 138.80922 422.03423 138.96875 422.1875 C 139.12995 422.35814 139.29614 422.52873 139.46875 422.6875 C 139.56272 422.78305 139.65233 422.87709 139.75 422.96875 C 139.76685 422.98307 139.79556 422.98579 139.8125 423 C 139.89049 423.07965 139.95068 423.17303 140.03125 423.25 C 140.07076 423.2842 140.11621 423.31017 140.15625 423.34375 C 140.19183 423.38009 140.21388 423.43297 140.25 423.46875 C 140.39065 423.62302 140.53768 423.7612 140.6875 423.90625 C 140.8581 424.08845 141.03523 424.2687 141.21875 424.4375 C 141.31272 424.53305 141.40233 424.62709 141.5 424.71875 C 141.51685 424.73307 141.54556 424.73579 141.5625 424.75 C 141.64049 424.82965 141.70068 424.92303 141.78125 425 C 141.82076 425.0342 141.86621 425.06017 141.90625 425.09375 C 141.94259 425.13086 141.9631 425.18222 142 425.21875 C 142.14065 425.37302 142.28768 425.5112 142.4375 425.65625 C 142.55842 425.78539 142.68503 425.90878 142.8125 426.03125 C 142.9737 426.20189 143.13989 426.37248 143.3125 426.53125 C 143.38559 426.60557 143.45591 426.67803 143.53125 426.75 C 143.56994 426.78346 143.61705 426.81088 143.65625 426.84375 C 143.69259 426.88086 143.7131 426.93222 143.75 426.96875 C 143.89065 427.12302 144.03768 427.2612 144.1875 427.40625 C 144.30842 427.53539 144.43503 427.65878 144.5625 427.78125 C 144.7237 427.95189 144.88989 428.12248 145.0625 428.28125 C 145.06905 428.28672 145.08718 428.27579 145.09375 428.28125 C 145.167 428.3554 145.237 428.4282 145.3125 428.5 C 145.34551 428.52842 145.37287 428.56576 145.40625 428.59375 C 145.46938 428.65826 145.52892 428.71849 145.59375 428.78125 C 145.64968 428.83032 145.69299 428.88969 145.75 428.9375 C 145.78614 428.97442 145.80706 429.02615 145.84375 429.0625 C 145.9844 429.21677 146.13143 429.35495 146.28125 429.5 C 146.45185 429.6822 146.62898 429.86245 146.8125 430.03125 C 146.90647 430.1268 146.99608 430.22084 147.09375 430.3125 C 147.1106 430.32682 147.13931 430.32954 147.15625 430.34375 C 147.23424 430.4234 147.29443 430.51678 147.375 430.59375 C 147.41451 430.62795 147.45996 430.65392 147.5 430.6875 C 147.53634 430.72461 147.55685 430.77597 147.59375 430.8125 C 147.7344 430.96677 147.88143 431.10495 148.03125 431.25 C 148.15217 431.37914 148.27878 431.50253 148.40625 431.625 C 148.56745 431.79564 148.73364 431.96623 148.90625 432.125 C 148.97934 432.19932 149.04966 432.27178 149.125 432.34375 C 149.16369 432.37721 149.2108 432.40463 149.25 432.4375 C 149.28634 432.47461 149.30685 432.52597 149.34375 432.5625 C 149.4844 432.71677 149.63143 432.85495 149.78125 433 C 149.90217 433.12914 150.02878 433.25253 150.15625 433.375 C 150.31745 433.54564 150.48364 433.71623 150.65625 433.875 C 150.72934 433.94932 150.79966 434.02178 150.875 434.09375 C 150.91369 434.12721 150.9608 434.15463 151 434.1875 C 151.08334 434.27261 151.16372 434.35545 151.25 434.4375 C 151.28382 434.46664 151.30954 434.50257 151.34375 434.53125 C 151.38024 434.56854 151.40044 434.61954 151.4375 434.65625 C 151.58672 434.81992 151.74672 434.97173 151.90625 435.125 C 152.06745 435.29564 152.23364 435.46623 152.40625 435.625 C 152.50022 435.72055 152.58983 435.81459 152.6875 435.90625 C 152.70435 435.92057 152.73306 435.92329 152.75 435.9375 C 152.82799 436.01715 152.88818 436.11053 152.96875 436.1875 C 153.00826 436.2217 153.05371 436.24767 153.09375 436.28125 C 153.12933 436.31759 153.15138 436.37047 153.1875 436.40625 C 153.32815 436.56052 153.47518 436.6987 153.625 436.84375 C 153.7956 437.02595 153.97273 437.2062 154.15625 437.375 C 154.25022 437.47055 154.33983 437.56459 154.4375 437.65625 C 154.45435 437.67057 154.48306 437.67329 154.5 437.6875 C 154.57799 437.76715 154.63818 437.86053 154.71875 437.9375 C 154.75826 437.9717 154.80371 437.99767 154.84375 438.03125 C 154.88009 438.06836 154.9006 438.11972 154.9375 438.15625 C 155.07815 438.31052 155.22518 438.4487 155.375 438.59375 C 155.49592 438.72289 155.62253 438.84628 155.75 438.96875 C 155.9112 439.13939 156.07739 439.30998 156.25 439.46875 C 156.32309 439.54307 156.39341 439.61553 156.46875 439.6875 C 156.50744 439.72096 156.55455 439.74838 156.59375 439.78125 C 156.67709 439.86636 156.75747 439.9492 156.84375 440.03125 C 156.87757 440.06039 156.90329 440.09632 156.9375 440.125 C 156.97399 440.16229 156.99419 440.21329 157.03125 440.25 C 157.18047 440.41367 157.34047 440.56548 157.5 440.71875 C 157.6612 440.88939 157.82739 441.05998 158 441.21875 C 158.09397 441.3143 158.18358 441.40834 158.28125 441.5 C 158.2981 441.51432 158.32681 441.51704 158.34375 441.53125 C 158.42174 441.6109 158.48193 441.70428 158.5625 441.78125 C 158.60201 441.81545 158.64746 441.84142 158.6875 441.875 C 158.72308 441.91134 158.74513 441.96422 158.78125 442 C 158.9219 442.15427 159.06893 442.29245 159.21875 442.4375 C 159.38935 442.6197 159.56648 442.79995 159.75 442.96875 C 159.84397 443.0643 159.93358 443.15834 160.03125 443.25 C 160.0481 443.26432 160.07681 443.26704 160.09375 443.28125 C 160.17174 443.3609 160.23193 443.45428 160.3125 443.53125 C 160.35201 443.56545 160.39746 443.59142 160.4375 443.625 C 160.47384 443.66211 160.49435 443.71347 160.53125 443.75 C 160.6719 443.90427 160.81893 444.04245 160.96875 444.1875 C 161.08967 444.31664 161.21628 444.44003 161.34375 444.5625 C 161.50495 444.73314 161.67114 444.90373 161.84375 445.0625 C 161.91684 445.13682 161.98716 445.20928 162.0625 445.28125 C 162.10119 445.31471 162.1483 445.34213 162.1875 445.375 C 162.22384 445.41211 162.24435 445.46347 162.28125 445.5 C 162.4219 445.65427 162.56893 445.79245 162.71875 445.9375 C 162.83967 446.06664 162.96628 446.19003 163.09375 446.3125 C 163.25495 446.48314 163.42114 446.65373 163.59375 446.8125 C 163.6003 446.81797 163.61843 446.80704 163.625 446.8125 C 163.69825 446.88665 163.76825 446.95945 163.84375 447.03125 C 163.87676 447.05967 163.90412 447.09701 163.9375 447.125 C 164.00063 447.18951 164.06017 447.24974 164.125 447.3125 C 164.18093 447.36157 164.22424 447.42094 164.28125 447.46875 C 164.31739 447.50567 164.33831 447.5574 164.375 447.59375 C 164.51565 447.74802 164.66268 447.8862 164.8125 448.03125 C 164.9831 448.21345 165.16023 448.3937 165.34375 448.5625 C 165.43772 448.65805 165.52733 448.75209 165.625 448.84375 C 165.64185 448.85807 165.67056 448.86079 165.6875 448.875 C 165.76549 448.95465 165.82568 449.04803 165.90625 449.125 C 165.94576 449.1592 165.99121 449.18517 166.03125 449.21875 C 166.06683 449.25509 166.08888 449.30797 166.125 449.34375 C 166.26565 449.49802 166.41268 449.6362 166.5625 449.78125 C 166.7331 449.96345 166.91023 450.1437 167.09375 450.3125 C 167.18772 450.40805 167.27733 450.50209 167.375 450.59375 C 167.39185 450.60807 167.42056 450.61079 167.4375 450.625 C 167.51549 450.70465 167.57568 450.79803 167.65625 450.875 C 167.69576 450.9092 167.74121 450.93517 167.78125 450.96875 C 167.81759 451.00586 167.8381 451.05722 167.875 451.09375 C 168.01565 451.24802 168.16268 451.3862 168.3125 451.53125 C 168.43342 451.66039 168.56003 451.78378 168.6875 451.90625 C 168.8487 452.07689 169.01489 452.24748 169.1875 452.40625 C 169.26059 452.48057 169.33091 452.55303 169.40625 452.625 C 169.44494 452.65846 169.49205 452.68588 169.53125 452.71875 C 169.61459 452.80386 169.69497 452.8867 169.78125 452.96875 C 169.81507 452.99789 169.84079 453.03382 169.875 453.0625 C 169.91149 453.09979 169.93169 453.15079 169.96875 453.1875 C 170.11797 453.35117 170.27797 453.50298 170.4375 453.65625 C 170.5987 453.82689 170.76489 453.99748 170.9375 454.15625 C 171.03147 454.2518 171.12108 454.34584 171.21875 454.4375 C 171.2356 454.45182 171.26431 454.45454 171.28125 454.46875 C 171.35924 454.5484 171.41943 454.64178 171.5 454.71875 C 171.53951 454.75295 171.58496 454.77892 171.625 454.8125 C 171.66058 454.84884 171.68263 454.90172 171.71875 454.9375 C 171.8594 455.09177 172.00643 455.22995 172.15625 455.375 C 172.32685 455.5572 172.50398 455.73745 172.6875 455.90625 C 172.78147 456.0018 172.87108 456.09584 172.96875 456.1875 C 172.9856 456.20182 173.01431 456.20454 173.03125 456.21875 C 173.10924 456.2984 173.16943 456.39178 173.25 456.46875 C 173.28951 456.50295 173.33496 456.52892 173.375 456.5625 C 173.41134 456.59961 173.43185 456.65097 173.46875 456.6875 C 173.6094 456.84177 173.75643 456.97995 173.90625 457.125 C 174.02717 457.25414 174.15378 457.37753 174.28125 457.5 C 174.44245 457.67064 174.60864 457.84123 174.78125 458 C 174.85434 458.07432 174.92466 458.14678 175 458.21875 C 175.03869 458.25221 175.0858 458.27963 175.125 458.3125 C 175.16134 458.34961 175.18185 458.40097 175.21875 458.4375 C 175.3594 458.59177 175.50643 458.72995 175.65625 458.875 C 175.77717 459.00414 175.90378 459.12753 176.03125 459.25 C 176.19245 459.42064 176.35864 459.59123 176.53125 459.75 C 176.5378 459.75547 176.55593 459.74454 176.5625 459.75 C 176.63575 459.82415 176.70575 459.89695 176.78125 459.96875 C 176.81426 459.99717 176.84162 460.03451 176.875 460.0625 C 176.93813 460.12701 176.99767 460.18724 177.0625 460.25 C 177.11843 460.29907 177.16173 460.35844 177.21875 460.40625 C 177.25489 460.44317 177.27581 460.4949 177.3125 460.53125 C 177.45315 460.68552 177.60018 460.8237 177.75 460.96875 C 177.9206 461.15095 178.09773 461.3312 178.28125 461.5 C 178.37522 461.59555 178.46483 461.68959 178.5625 461.78125 C 178.57935 461.79557 178.60806 461.79829 178.625 461.8125 C 178.70299 461.89215 178.76318 461.98553 178.84375 462.0625 C 178.88326 462.0967 178.92871 462.12267 178.96875 462.15625 C 179.00509 462.19336 179.0256 462.24472 179.0625 462.28125 C 179.20315 462.43552 179.35018 462.5737 179.5 462.71875 C 179.62092 462.84789 179.74753 462.97128 179.875 463.09375 C 180.0362 463.26439 180.20239 463.43498 180.375 463.59375 C 180.44809 463.66807 180.51841 463.74053 180.59375 463.8125 C 180.63244 463.84596 180.67955 463.87338 180.71875 463.90625 C 180.75509 463.94336 180.7756 463.99472 180.8125 464.03125 C 180.95315 464.18552 181.10018 464.3237 181.25 464.46875 C 181.37092 464.59789 181.49753 464.72128 181.625 464.84375 C 181.7862 465.01439 181.95239 465.18498 182.125 465.34375 C 182.13155 465.34922 182.14968 465.33829 182.15625 465.34375 C 182.2295 465.4179 182.2995 465.4907 182.375 465.5625 C 182.40801 465.59092 182.43537 465.62826 182.46875 465.65625 C 182.53188 465.72076 182.59142 465.78099 182.65625 465.84375 C 182.71218 465.89282 182.75548 465.95219 182.8125 466 C 182.84864 466.03692 182.86956 466.08865 182.90625 466.125 C 183.05547 466.28867 183.21547 466.44048 183.375 466.59375 C 183.5362 466.76439 183.70239 466.93498 183.875 467.09375 C 183.96897 467.1893 184.05858 467.28334 184.15625 467.375 C 184.1731 467.38932 184.20181 467.39204 184.21875 467.40625 C 184.29674 467.4859 184.35693 467.57928 184.4375 467.65625 C 184.47701 467.69045 184.52246 467.71642 184.5625 467.75 C 184.59808 467.78634 184.62013 467.83922 184.65625 467.875 C 184.7969 468.02927 184.94393 468.16745 185.09375 468.3125 C 185.26435 468.4947 185.44148 468.67495 185.625 468.84375 C 185.71897 468.9393 185.80858 469.03334 185.90625 469.125 C 185.9231 469.13932 185.95181 469.14204 185.96875 469.15625 C 186.04674 469.2359 186.10693 469.32928 186.1875 469.40625 C 186.22701 469.44045 186.27246 469.46642 186.3125 469.5 C 186.34884 469.53711 186.36935 469.58847 186.40625 469.625 C 186.5469 469.77927 186.69393 469.91745 186.84375 470.0625 C 186.96467 470.19164 187.09128 470.31503 187.21875 470.4375 C 187.37995 470.60814 187.54614 470.77873 187.71875 470.9375 C 187.79184 471.01182 187.86216 471.08428 187.9375 471.15625 C 187.97619 471.18971 188.0233 471.21713 188.0625 471.25 C 188.14584 471.33511 188.22622 471.41795 188.3125 471.5 C 188.34632 471.52914 188.37204 471.56507 188.40625 471.59375 C 188.44274 471.63104 188.46294 471.68204 188.5 471.71875 C 188.64922 471.88242 188.80922 472.03423 188.96875 472.1875 C 189.12995 472.35814 189.29614 472.52873 189.46875 472.6875 C 189.56272 472.78305 189.65233 472.87709 189.75 472.96875 C 189.76685 472.98307 189.79556 472.98579 189.8125 473 C 189.89049 473.07965 189.95068 473.17303 190.03125 473.25 C 190.07076 473.2842 190.11621 473.31017 190.15625 473.34375 C 190.19183 473.38009 190.21388 473.43297 190.25 473.46875 C 190.39065 473.62302 190.53768 473.7612 190.6875 473.90625 C 190.8581 474.08845 191.03523 474.2687 191.21875 474.4375 C 191.31272 474.53305 191.40233 474.62709 191.5 474.71875 C 191.51685 474.73307 191.54556 474.73579 191.5625 474.75 C 191.64049 474.82965 191.70068 474.92303 191.78125 475 C 191.82076 475.0342 191.86621 475.06017 191.90625 475.09375 C 191.94259 475.13086 191.9631 475.18222 192 475.21875 C 192.14065 475.37302 192.28768 475.5112 192.4375 475.65625 C 192.55842 475.78539 192.68503 475.90878 192.8125 476.03125 C 192.9737 476.20189 193.13989 476.37248 193.3125 476.53125 C 193.38559 476.60557 193.45591 476.67803 193.53125 476.75 C 193.56994 476.78346 193.61705 476.81088 193.65625 476.84375 C 193.69259 476.88086 193.7131 476.93222 193.75 476.96875 C 193.89065 477.12302 194.03768 477.2612 194.1875 477.40625 C 194.30842 477.53539 194.43503 477.65878 194.5625 477.78125 C 194.7237 477.95189 194.88989 478.12248 195.0625 478.28125 C 195.06905 478.28672 195.08718 478.27579 195.09375 478.28125 C 195.167 478.3554 195.237 478.4282 195.3125 478.5 C 195.34551 478.52842 195.37287 478.56576 195.40625 478.59375 C 195.46938 478.65826 195.52892 478.71849 195.59375 478.78125 C 195.64968 478.83032 195.69298 478.88969 195.75 478.9375 C 195.78614 478.97442 195.80706 479.02615 195.84375 479.0625 C 195.9844 479.21677 196.13143 479.35495 196.28125 479.5 C 196.45185 479.6822 196.62898 479.86245 196.8125 480.03125 C 196.90647 480.1268 196.99608 480.22084 197.09375 480.3125 C 197.1106 480.32682 197.13931 480.32954 197.15625 480.34375 C 197.23424 480.4234 197.29443 480.51678 197.375 480.59375 C 197.41451 480.62795 197.45996 480.65392 197.5 480.6875 C 197.53634 480.72461 197.55685 480.77597 197.59375 480.8125 C 197.7344 480.96677 197.88143 481.10495 198.03125 481.25 C 198.15217 481.37914 198.27878 481.50253 198.40625 481.625 C 198.56745 481.79564 198.73364 481.96623 198.90625 482.125 C 198.97934 482.19932 199.04966 482.27178 199.125 482.34375 C 199.16369 482.37721 199.2108 482.40463 199.25 482.4375 C 199.28634 482.47461 199.30685 482.52597 199.34375 482.5625 C 199.4844 482.71677 199.63143 482.85495 199.78125 483 C 199.90217 483.12914 200.02878 483.25253 200.15625 483.375 C 200.31745 483.54564 200.48364 483.71623 200.65625 483.875 C 200.72934 483.94932 200.79966 484.02178 200.875 484.09375 C 200.91369 484.12721 200.9608 484.15463 201 484.1875 C 201.08334 484.27261 201.16372 484.35545 201.25 484.4375 C 201.28382 484.46664 201.30954 484.50257 201.34375 484.53125 C 201.38024 484.56854 201.40044 484.61954 201.4375 484.65625 C 201.58672 484.81992 201.74672 484.97173 201.90625 485.125 C 202.06745 485.29564 202.23364 485.46623 202.40625 485.625 C 202.50022 485.72055 202.58983 485.81459 202.6875 485.90625 C 202.70435 485.92057 202.73306 485.92329 202.75 485.9375 C 202.82799 486.01715 202.88818 486.11053 202.96875 486.1875 C 203.00826 486.2217 203.05371 486.24767 203.09375 486.28125 C 203.12933 486.31759 203.15138 486.37047 203.1875 486.40625 C 203.32815 486.56052 203.47518 486.6987 203.625 486.84375 C 203.7956 487.02595 203.97273 487.2062 204.15625 487.375 C 204.25022 487.47055 204.33983 487.56459 204.4375 487.65625 C 204.45435 487.67057 204.48306 487.67329 204.5 487.6875 C 204.57799 487.76715 204.63818 487.86053 204.71875 487.9375 C 204.75826 487.9717 204.80371 487.99767 204.84375 488.03125 C 204.88009 488.06836 204.9006 488.11972 204.9375 488.15625 C 205.07815 488.31052 205.22518 488.4487 205.375 488.59375 C 205.49592 488.72289 205.62253 488.84628 205.75 488.96875 C 205.9112 489.13939 206.07739 489.30998 206.25 489.46875 C 206.32309 489.54307 206.39341 489.61553 206.46875 489.6875 C 206.50744 489.72096 206.55455 489.74838 206.59375 489.78125 C 206.67709 489.86636 206.75747 489.9492 206.84375 490.03125 C 206.87757 490.06039 206.90329 490.09632 206.9375 490.125 C 206.97399 490.16229 206.99419 490.21329 207.03125 490.25 C 207.18047 490.41367 207.34047 490.56548 207.5 490.71875 C 207.6612 490.88939 207.82739 491.05998 208 491.21875 C 208.09397 491.3143 208.18358 491.40834 208.28125 491.5 C 208.2981 491.51432 208.32681 491.51704 208.34375 491.53125 C 208.42174 491.6109 208.48193 491.70428 208.5625 491.78125 C 208.60201 491.81545 208.64746 491.84142 208.6875 491.875 C 208.72308 491.91134 208.74513 491.96422 208.78125 492 L 393.65625 492 C 448.13291 492 492 448.13291 492 393.65625 L 492 336.0625 C 491.98168 336.04919 491.95389 336.04729 491.9375 336.03125 C 491.92296 336.01268 491.92096 335.98705 491.90625 335.96875 C 491.84794 335.91222 491.80613 335.83445 491.75 335.78125 C 491.63139 335.66148 491.51828 335.54369 491.40625 335.4375 C 491.28764 335.31773 491.17453 335.19994 491.0625 335.09375 C 490.97624 335.00664 490.89589 334.92358 490.8125 334.84375 C 490.78121 334.81121 490.74995 334.78154 490.71875 334.75 C 490.62324 334.65947 490.53518 334.55514 490.4375 334.46875 C 490.28611 334.3113 490.14258 334.16639 490 334.03125 C 489.88139 333.91148 489.76828 333.79369 489.65625 333.6875 C 489.53764 333.56773 489.42453 333.44994 489.3125 333.34375 C 489.22624 333.25664 489.14589 333.17358 489.0625 333.09375 C 489.03121 333.06121 488.99995 333.03154 488.96875 333 C 488.84642 332.88405 488.71963 332.76544 488.59375 332.65625 C 488.47945 332.54123 488.35804 332.4149 488.25 332.3125 L 488.25 332.28125 C 488.13139 332.16148 488.01828 332.04369 487.90625 331.9375 C 487.78764 331.81773 487.67453 331.69994 487.5625 331.59375 C 487.44389 331.47398 487.33078 331.35619 487.21875 331.25 C 487.13249 331.16289 487.05214 331.07983 486.96875 331 C 486.93747 330.96746 486.9062 330.93779 486.875 330.90625 C 486.75267 330.7903 486.62588 330.67169 486.5 330.5625 C 486.37589 330.4366 486.27337 330.29851 486.15625 330.1875 C 486.03764 330.06773 485.92453 329.94994 485.8125 329.84375 C 485.69389 329.72398 485.58078 329.60619 485.46875 329.5 C 485.38249 329.41289 485.30214 329.32983 485.21875 329.25 C 485.18746 329.21746 485.1562 329.18779 485.125 329.15625 C 485.02949 329.06572 484.94143 328.96139 484.84375 328.875 C 484.69236 328.71755 484.54883 328.57265 484.40625 328.4375 C 484.28764 328.31773 484.17453 328.19994 484.0625 328.09375 C 483.94389 327.97398 483.83078 327.85619 483.71875 327.75 C 483.63249 327.66289 483.55214 327.57983 483.46875 327.5 C 483.43746 327.46746 483.4062 327.43779 483.375 327.40625 C 483.25267 327.2903 483.12588 327.17169 483 327.0625 C 482.88432 326.94597 482.76556 326.79111 482.65625 326.6875 C 482.53764 326.56773 482.42453 326.44994 482.3125 326.34375 C 482.19389 326.22398 482.08078 326.10619 481.96875 326 C 481.88249 325.91289 481.80214 325.82983 481.71875 325.75 C 481.68747 325.71746 481.6562 325.68779 481.625 325.65625 C 481.50267 325.5403 481.37588 325.42169 481.25 325.3125 C 481.1357 325.19748 481.01429 325.07115 480.90625 324.96875 C 480.78214 324.84285 480.67962 324.70476 480.5625 324.59375 C 480.44389 324.47398 480.33078 324.35619 480.21875 324.25 C 480.10014 324.13023 479.98703 324.01244 479.875 323.90625 C 479.78874 323.81914 479.70839 323.73608 479.625 323.65625 C 479.59371 323.62371 479.56245 323.59404 479.53125 323.5625 C 479.43574 323.47197 479.34768 323.36764 479.25 323.28125 C 479.1744 323.20262 479.07449 323.16665 479 323.09375 C 478.98546 323.07518 478.98346 323.04955 478.96875 323.03125 C 478.91044 322.97472 478.86863 322.89695 478.8125 322.84375 C 478.69389 322.72398 478.58078 322.60619 478.46875 322.5 C 478.35014 322.38023 478.23703 322.26244 478.125 322.15625 C 478.03874 322.06914 477.95839 321.98608 477.875 321.90625 C 477.84371 321.87371 477.81245 321.84404 477.78125 321.8125 C 477.68574 321.72197 477.59768 321.61764 477.5 321.53125 C 477.34861 321.3738 477.20508 321.22889 477.0625 321.09375 C 476.94389 320.97398 476.83078 320.85619 476.71875 320.75 C 476.60014 320.63023 476.48703 320.51244 476.375 320.40625 C 476.28874 320.31914 476.20839 320.23608 476.125 320.15625 C 476.09371 320.12371 476.06245 320.09404 476.03125 320.0625 C 475.90892 319.94655 475.78213 319.82794 475.65625 319.71875 C 475.54195 319.60373 475.42054 319.4774 475.3125 319.375 C 475.18839 319.2491 475.08587 319.11101 474.96875 319 C 474.85014 318.88022 474.73703 318.76244 474.625 318.65625 C 474.50639 318.53647 474.39328 318.41869 474.28125 318.3125 C 474.19499 318.22539 474.11464 318.14233 474.03125 318.0625 C 473.99996 318.02996 473.9687 318.00029 473.9375 317.96875 C 473.81517 317.8528 473.68838 317.73419 473.5625 317.625 C 473.51403 317.57583 473.4541 317.54683 473.40625 317.5 C 473.39171 317.48143 473.38971 317.4558 473.375 317.4375 C 473.31669 317.38097 473.27488 317.3032 473.21875 317.25 C 473.10014 317.13022 472.98703 317.01244 472.875 316.90625 C 472.75639 316.78647 472.64328 316.66869 472.53125 316.5625 C 472.44499 316.47539 472.36464 316.39233 472.28125 316.3125 C 472.24996 316.27996 472.2187 316.25029 472.1875 316.21875 C 472.09199 316.12822 472.00393 316.02389 471.90625 315.9375 C 471.75486 315.78005 471.61133 315.63515 471.46875 315.5 C 471.35014 315.38022 471.23703 315.26244 471.125 315.15625 C 471.00639 315.03648 470.89328 314.91869 470.78125 314.8125 C 470.69499 314.72539 470.61464 314.64233 470.53125 314.5625 C 470.49996 314.52996 470.4687 314.50029 470.4375 314.46875 C 470.31517 314.3528 470.18838 314.23419 470.0625 314.125 C 469.94682 314.00847 469.82807 313.85361 469.71875 313.75 C 469.60014 313.63023 469.48703 313.51244 469.375 313.40625 C 469.25639 313.28648 469.14328 313.16869 469.03125 313.0625 C 468.91264 312.94272 468.79953 312.82494 468.6875 312.71875 C 468.60124 312.63164 468.52089 312.54858 468.4375 312.46875 C 468.40621 312.43621 468.37495 312.40654 468.34375 312.375 C 468.22142 312.25905 468.09463 312.14044 467.96875 312.03125 C 467.84464 311.90535 467.74212 311.76726 467.625 311.65625 C 467.50639 311.53647 467.39328 311.41869 467.28125 311.3125 C 467.16264 311.19272 467.04953 311.07494 466.9375 310.96875 C 466.85124 310.88164 466.77089 310.79858 466.6875 310.71875 C 466.65621 310.68621 466.62495 310.65654 466.59375 310.625 C 466.49824 310.53447 466.41018 310.43014 466.3125 310.34375 C 466.16111 310.1863 466.01758 310.0414 465.875 309.90625 C 465.75639 309.78647 465.64328 309.66869 465.53125 309.5625 C 465.41264 309.44272 465.29953 309.32494 465.1875 309.21875 C 465.10124 309.13164 465.02089 309.04858 464.9375 308.96875 C 464.90621 308.93621 464.87495 308.90654 464.84375 308.875 C 464.74824 308.78447 464.66018 308.68014 464.5625 308.59375 C 464.41111 308.4363 464.26758 308.2914 464.125 308.15625 C 464.00639 308.03647 463.89328 307.91869 463.78125 307.8125 C 463.66264 307.69272 463.54953 307.57494 463.4375 307.46875 C 463.35124 307.38164 463.27089 307.29858 463.1875 307.21875 C 463.15621 307.18621 463.12495 307.15654 463.09375 307.125 C 462.97142 307.00905 462.84463 306.89044 462.71875 306.78125 C 462.60445 306.66623 462.48304 306.5399 462.375 306.4375 C 462.25089 306.3116 462.14837 306.17351 462.03125 306.0625 C 461.91264 305.94272 461.79953 305.82494 461.6875 305.71875 C 461.56889 305.59897 461.45578 305.48119 461.34375 305.375 C 461.25749 305.28789 461.17714 305.20483 461.09375 305.125 C 461.06246 305.09246 461.0312 305.06279 461 305.03125 C 460.90449 304.94072 460.81643 304.83639 460.71875 304.75 C 460.64314 304.67137 460.54324 304.6354 460.46875 304.5625 C 460.45421 304.54393 460.45221 304.5183 460.4375 304.5 C 460.37919 304.44347 460.33738 304.3657 460.28125 304.3125 C 460.16264 304.19272 460.04953 304.07494 459.9375 303.96875 C 459.81889 303.84897 459.70578 303.73119 459.59375 303.625 C 459.50749 303.53789 459.42714 303.45483 459.34375 303.375 C 459.31246 303.34246 459.2812 303.31279 459.25 303.28125 C 459.15449 303.19072 459.06643 303.08639 458.96875 303 C 458.81736 302.84255 458.67383 302.69765 458.53125 302.5625 C 458.41264 302.44272 458.29953 302.32494 458.1875 302.21875 C 458.06889 302.09897 457.95578 301.98119 457.84375 301.875 C 457.75749 301.78789 457.67714 301.70483 457.59375 301.625 C 457.56246 301.59246 457.5312 301.56279 457.5 301.53125 C 457.37767 301.4153 457.25088 301.29669 457.125 301.1875 C 457.0107 301.07248 456.88929 300.94615 456.78125 300.84375 C 456.65714 300.71785 456.55462 300.57977 456.4375 300.46875 C 456.31889 300.34897 456.20578 300.23119 456.09375 300.125 C 455.97514 300.00522 455.86203 299.88744 455.75 299.78125 C 455.66373 299.69414 455.58339 299.61108 455.5 299.53125 C 455.46871 299.49871 455.43745 299.46904 455.40625 299.4375 C 455.28392 299.32155 455.15713 299.20294 455.03125 299.09375 C 454.98278 299.04458 454.92285 299.01558 454.875 298.96875 C 454.86046 298.95018 454.85846 298.92455 454.84375 298.90625 C 454.78544 298.84972 454.74363 298.77195 454.6875 298.71875 C 454.56889 298.59897 454.45578 298.48119 454.34375 298.375 C 454.22514 298.25522 454.11203 298.13744 454 298.03125 C 453.91374 297.94414 453.83339 297.86108 453.75 297.78125 C 453.71871 297.74871 453.68745 297.71904 453.65625 297.6875 C 453.56074 297.59697 453.47268 297.49264 453.375 297.40625 C 453.22361 297.2488 453.08008 297.1039 452.9375 296.96875 C 452.81889 296.84897 452.70578 296.73119 452.59375 296.625 C 452.47514 296.50522 452.36203 296.38744 452.25 296.28125 C 452.16374 296.19414 452.08339 296.11108 452 296.03125 C 451.96871 295.99871 451.93745 295.96904 451.90625 295.9375 C 451.78392 295.82155 451.65713 295.70294 451.53125 295.59375 C 451.41557 295.47721 451.29682 295.32236 451.1875 295.21875 C 451.06889 295.09897 450.95578 294.98119 450.84375 294.875 C 450.72514 294.75522 450.61203 294.63744 450.5 294.53125 C 450.38138 294.41147 450.26828 294.29369 450.15625 294.1875 C 450.06998 294.10039 449.98964 294.01733 449.90625 293.9375 C 449.75486 293.78005 449.58008 293.63515 449.4375 293.5 C 449.31339 293.3741 449.21087 293.23602 449.09375 293.125 C 448.97514 293.00522 448.86203 292.88744 448.75 292.78125 C 448.63139 292.66147 448.51828 292.54369 448.40625 292.4375 C 448.31998 292.35039 448.23964 292.26733 448.15625 292.1875 C 448.12496 292.15496 448.0937 292.12529 448.0625 292.09375 C 447.96699 292.00322 447.87893 291.89889 447.78125 291.8125 C 447.62986 291.65505 447.48633 291.51015 447.34375 291.375 C 447.22514 291.25522 447.11203 291.13744 447 291.03125 C 446.88139 290.91147 446.76828 290.79369 446.65625 290.6875 C 446.56998 290.60039 446.48964 290.51733 446.40625 290.4375 C 446.37496 290.40496 446.3437 290.37529 446.3125 290.34375 C 446.21699 290.25322 446.12893 290.14889 446.03125 290.0625 C 445.87986 289.90505 445.73633 289.76015 445.59375 289.625 C 445.47514 289.50522 445.36203 289.38744 445.25 289.28125 C 445.13138 289.16147 445.01828 289.04369 444.90625 288.9375 C 444.81998 288.85039 444.73964 288.76733 444.65625 288.6875 C 444.62496 288.65496 444.5937 288.62529 444.5625 288.59375 C 444.44017 288.4778 444.31338 288.35919 444.1875 288.25 C 444.0732 288.13498 443.95179 288.00866 443.84375 287.90625 C 443.71964 287.78035 443.61712 287.64227 443.5 287.53125 C 443.38139 287.41147 443.26828 287.29369 443.15625 287.1875 C 443.03764 287.06772 442.92453 286.94994 442.8125 286.84375 C 442.72623 286.75664 442.64589 286.67358 442.5625 286.59375 C 442.53121 286.56121 442.49995 286.53154 442.46875 286.5 C 442.37324 286.40947 442.28518 286.30514 442.1875 286.21875 C 442.11189 286.14012 442.01199 286.10415 441.9375 286.03125 C 441.92296 286.01268 441.92096 285.98705 441.90625 285.96875 C 441.84794 285.91222 441.80613 285.83445 441.75 285.78125 C 441.63139 285.66147 441.51828 285.54369 441.40625 285.4375 C 441.28764 285.31772 441.17453 285.19994 441.0625 285.09375 C 440.97623 285.00664 440.89589 284.92358 440.8125 284.84375 C 440.78121 284.81121 440.74995 284.78154 440.71875 284.75 C 440.62324 284.65947 440.53518 284.55514 440.4375 284.46875 C 440.2861 284.3113 440.14259 284.1664 440 284.03125 C 439.88138 283.91147 439.76828 283.79369 439.65625 283.6875 C 439.53763 283.56772 439.42453 283.44994 439.3125 283.34375 C 439.22623 283.25664 439.14589 283.17358 439.0625 283.09375 C 439.03121 283.06121 438.99995 283.03154 438.96875 283 C 438.84642 282.88405 438.71963 282.76544 438.59375 282.65625 C 438.47807 282.53971 438.35932 282.38486 438.25 282.28125 C 438.13138 282.16147 438.01828 282.04369 437.90625 281.9375 C 437.78763 281.81772 437.67453 281.69994 437.5625 281.59375 C 437.44388 281.47397 437.33078 281.35619 437.21875 281.25 C 437.13248 281.16289 437.05214 281.07983 436.96875 281 C 436.93746 280.96746 436.9062 280.93779 436.875 280.90625 C 436.75267 280.7903 436.62588 280.67169 436.5 280.5625 C 436.37589 280.4366 436.27337 280.29852 436.15625 280.1875 C 436.03763 280.06772 435.92453 279.94994 435.8125 279.84375 C 435.69388 279.72397 435.58078 279.60619 435.46875 279.5 C 435.38248 279.41289 435.30214 279.32983 435.21875 279.25 C 435.18746 279.21746 435.1562 279.18779 435.125 279.15625 C 435.02949 279.06572 434.94143 278.96139 434.84375 278.875 C 434.69235 278.71755 434.54884 278.57265 434.40625 278.4375 C 434.28763 278.31772 434.17453 278.19994 434.0625 278.09375 C 433.94388 277.97397 433.83078 277.85619 433.71875 277.75 C 433.63248 277.66289 433.55214 277.57983 433.46875 277.5 C 433.43746 277.46746 433.4062 277.43779 433.375 277.40625 C 433.28452 277.32049 433.18619 277.2383 433.09375 277.15625 C 433.07289 277.13456 433.05208 277.115 433.03125 277.09375 C 433.02035 277.08422 433.01092 277.07198 433 277.0625 C 432.88021 276.94142 432.76937 276.79472 432.65625 276.6875 C 432.53763 276.56772 432.42453 276.44994 432.3125 276.34375 C 432.19388 276.22397 432.08078 276.10619 431.96875 276 C 431.88248 275.91289 431.80214 275.82983 431.71875 275.75 C 431.68746 275.71746 431.6562 275.68779 431.625 275.65625 C 431.50267 275.5403 431.37588 275.42169 431.25 275.3125 C 431.1357 275.19748 431.01429 275.07116 430.90625 274.96875 C 430.78214 274.84285 430.67962 274.70477 430.5625 274.59375 C 430.44388 274.47397 430.33078 274.35619 430.21875 274.25 C 430.10013 274.13022 429.98703 274.01244 429.875 273.90625 C 429.78873 273.81914 429.70839 273.73608 429.625 273.65625 C 429.59371 273.62371 429.56245 273.59404 429.53125 273.5625 C 429.43574 273.47197 429.34768 273.36764 429.25 273.28125 C 429.17439 273.20262 429.07449 273.16665 429 273.09375 C 428.98546 273.07518 428.98346 273.04955 428.96875 273.03125 C 428.91044 272.97472 428.86863 272.89695 428.8125 272.84375 C 428.69388 272.72397 428.58078 272.60619 428.46875 272.5 C 428.35013 272.38022 428.23703 272.26244 428.125 272.15625 C 428.03873 272.06914 427.95839 271.98608 427.875 271.90625 C 427.84371 271.87371 427.81245 271.84404 427.78125 271.8125 C 427.68574 271.72197 427.59768 271.61764 427.5 271.53125 C 427.3486 271.37379 427.20509 271.2289 427.0625 271.09375 C 426.94388 270.97397 426.83078 270.85619 426.71875 270.75 C 426.60013 270.63022 426.48703 270.51244 426.375 270.40625 C 426.28873 270.31914 426.20839 270.23608 426.125 270.15625 C 426.09371 270.12371 426.06245 270.09404 426.03125 270.0625 C 425.90892 269.94655 425.78213 269.82794 425.65625 269.71875 C 425.54195 269.60373 425.42054 269.47741 425.3125 269.375 C 425.18839 269.2491 425.08588 269.11102 424.96875 269 C 424.85013 268.88022 424.73703 268.76244 424.625 268.65625 C 424.50638 268.53647 424.39328 268.41869 424.28125 268.3125 C 424.19498 268.22539 424.11464 268.14233 424.03125 268.0625 C 423.99996 268.02996 423.9687 268.00029 423.9375 267.96875 C 423.84199 267.87822 423.75393 267.77389 423.65625 267.6875 C 423.58064 267.60887 423.48074 267.5729 423.40625 267.5 C 423.39171 267.48143 423.38971 267.4558 423.375 267.4375 C 423.31669 267.38097 423.27488 267.3032 423.21875 267.25 C 423.10013 267.13022 422.98703 267.01244 422.875 266.90625 C 422.75638 266.78647 422.64328 266.66869 422.53125 266.5625 C 422.44498 266.47539 422.36464 266.39233 422.28125 266.3125 C 422.24996 266.27996 422.2187 266.25029 422.1875 266.21875 C 422.09199 266.12822 422.00393 266.02389 421.90625 265.9375 C 421.75485 265.78004 421.61134 265.63515 421.46875 265.5 C 421.35013 265.38022 421.23703 265.26244 421.125 265.15625 C 421.00638 265.03647 420.89328 264.91869 420.78125 264.8125 C 420.69498 264.72539 420.61464 264.64233 420.53125 264.5625 C 420.49996 264.52996 420.4687 264.50029 420.4375 264.46875 C 420.31517 264.3528 420.18838 264.23419 420.0625 264.125 C 419.94682 264.00846 419.82807 263.85362 419.71875 263.75 C 419.60013 263.63022 419.48703 263.51244 419.375 263.40625 C 419.25638 263.28647 419.14328 263.16869 419.03125 263.0625 C 418.91263 262.94272 418.79953 262.82494 418.6875 262.71875 C 418.60123 262.63164 418.52089 262.54858 418.4375 262.46875 C 418.40621 262.43621 418.37495 262.40654 418.34375 262.375 C 418.22142 262.25905 418.09463 262.14044 417.96875 262.03125 C 417.84464 261.90535 417.74213 261.76727 417.625 261.65625 C 417.50638 261.53647 417.39328 261.41869 417.28125 261.3125 C 417.16263 261.19272 417.04953 261.07494 416.9375 260.96875 C 416.85123 260.88164 416.77089 260.79858 416.6875 260.71875 C 416.65621 260.68621 416.62495 260.65654 416.59375 260.625 C 416.49824 260.53447 416.41018 260.43014 416.3125 260.34375 C 416.1611 260.18629 416.01759 260.0414 415.875 259.90625 C 415.75638 259.78647 415.64328 259.66869 415.53125 259.5625 C 415.41263 259.44272 415.29953 259.32494 415.1875 259.21875 C 415.10123 259.13164 415.02089 259.04858 414.9375 258.96875 C 414.90621 258.93621 414.87495 258.90654 414.84375 258.875 C 414.74824 258.78447 414.66018 258.68014 414.5625 258.59375 C 414.4111 258.43629 414.26759 258.2914 414.125 258.15625 C 414.00638 258.03647 413.89328 257.91869 413.78125 257.8125 C 413.66263 257.69272 413.54953 257.57494 413.4375 257.46875 C 413.35123 257.38164 413.27089 257.29858 413.1875 257.21875 C 413.15621 257.18621 413.12495 257.15654 413.09375 257.125 C 412.97142 257.00905 412.84463 256.89044 412.71875 256.78125 C 412.60445 256.66623 412.48304 256.53991 412.375 256.4375 C 412.25089 256.3116 412.14838 256.17352 412.03125 256.0625 C 411.91263 255.94272 411.79953 255.82494 411.6875 255.71875 C 411.56888 255.59897 411.45578 255.48119 411.34375 255.375 C 411.25748 255.28789 411.17714 255.20483 411.09375 255.125 C 411.06246 255.09246 411.0312 255.06279 411 255.03125 C 410.90449 254.94072 410.81643 254.83639 410.71875 254.75 C 410.64314 254.67137 410.54324 254.6354 410.46875 254.5625 C 410.45421 254.54393 410.45221 254.5183 410.4375 254.5 C 410.37919 254.44347 410.33738 254.3657 410.28125 254.3125 C 410.16263 254.19272 410.04953 254.07494 409.9375 253.96875 C 409.81888 253.84897 409.70578 253.73119 409.59375 253.625 C 409.50748 253.53789 409.42714 253.45483 409.34375 253.375 C 409.31246 253.34246 409.2812 253.31279 409.25 253.28125 C 409.15449 253.19072 409.06643 253.08639 408.96875 253 C 408.81735 252.84254 408.67384 252.69765 408.53125 252.5625 C 408.41263 252.44272 408.29953 252.32494 408.1875 252.21875 C 408.06888 252.09897 407.95578 251.98119 407.84375 251.875 C 407.75748 251.78789 407.67714 251.70483 407.59375 251.625 C 407.56246 251.59246 407.5312 251.56279 407.5 251.53125 C 407.37767 251.4153 407.25088 251.29669 407.125 251.1875 C 407.0107 251.07248 406.88929 250.94616 406.78125 250.84375 C 406.65714 250.71785 406.55463 250.57977 406.4375 250.46875 C 406.31888 250.34897 406.20579 250.23119 406.09375 250.125 C 405.97513 250.00522 405.86204 249.88744 405.75 249.78125 C 405.66373 249.69414 405.58339 249.61108 405.5 249.53125 C 405.46871 249.49871 405.43745 249.46904 405.40625 249.4375 C 405.28392 249.32155 405.15713 249.20294 405.03125 249.09375 C 404.98278 249.04458 404.92285 249.01558 404.875 248.96875 C 404.86046 248.95018 404.85846 248.92455 404.84375 248.90625 C 404.78544 248.84972 404.74363 248.77195 404.6875 248.71875 C 404.56888 248.59897 404.45578 248.48119 404.34375 248.375 C 404.22513 248.25522 404.11203 248.13744 404 248.03125 C 403.91373 247.94414 403.83339 247.86108 403.75 247.78125 C 403.71871 247.74871 403.68745 247.71904 403.65625 247.6875 C 403.56074 247.59697 403.47268 247.49264 403.375 247.40625 C 403.2236 247.24879 403.08009 247.1039 402.9375 246.96875 C 402.81888 246.84897 402.70578 246.73119 402.59375 246.625 C 402.47513 246.50522 402.36203 246.38744 402.25 246.28125 C 402.16373 246.19414 402.08339 246.11108 402 246.03125 C 401.96871 245.99871 401.93745 245.96904 401.90625 245.9375 C 401.78392 245.82155 401.65713 245.70294 401.53125 245.59375 C 401.41557 245.47721 401.29682 245.32237 401.1875 245.21875 C 401.06888 245.09897 400.95578 244.98119 400.84375 244.875 C 400.72513 244.75522 400.61203 244.63744 400.5 244.53125 C 400.38138 244.41147 400.26828 244.29369 400.15625 244.1875 C 400.06998 244.10039 399.98964 244.01733 399.90625 243.9375 C 399.75485 243.78004 399.58009 243.63515 399.4375 243.5 C 399.31338 243.3741 399.21088 243.23602 399.09375 243.125 C 398.97513 243.00522 398.86203 242.88744 398.75 242.78125 C 398.63138 242.66147 398.51828 242.54369 398.40625 242.4375 C 398.31998 242.35039 398.23964 242.26733 398.15625 242.1875 C 398.12496 242.15496 398.0937 242.12529 398.0625 242.09375 C 397.96699 242.00322 397.87893 241.89889 397.78125 241.8125 C 397.62985 241.65504 397.48634 241.51015 397.34375 241.375 C 397.22513 241.25522 397.11203 241.13744 397 241.03125 C 396.88138 240.91147 396.76828 240.79369 396.65625 240.6875 C 396.56998 240.60039 396.48964 240.51733 396.40625 240.4375 C 396.37496 240.40496 396.3437 240.37529 396.3125 240.34375 C 396.21699 240.25322 396.12893 240.14889 396.03125 240.0625 C 395.87985 239.90504 395.73634 239.76015 395.59375 239.625 C 395.47513 239.50522 395.36203 239.38744 395.25 239.28125 C 395.13138 239.16147 395.01828 239.04369 394.90625 238.9375 C 394.81998 238.85039 394.73964 238.76733 394.65625 238.6875 C 394.62496 238.65496 394.5937 238.62529 394.5625 238.59375 C 394.44017 238.4778 394.31338 238.35919 394.1875 238.25 C 394.07319 238.13497 393.9518 238.00866 393.84375 237.90625 C 393.71963 237.78034 393.61713 237.64227 393.5 237.53125 C 393.38138 237.41147 393.26829 237.29369 393.15625 237.1875 C 393.03763 237.06772 392.92454 236.94994 392.8125 236.84375 C 392.72623 236.75664 392.64589 236.67358 392.5625 236.59375 C 392.53121 236.56121 392.49995 236.53154 392.46875 236.5 C 392.37324 236.40947 392.28518 236.30514 392.1875 236.21875 C 392.11189 236.14012 392.01199 236.10415 391.9375 236.03125 C 391.92296 236.01268 391.92096 235.98705 391.90625 235.96875 C 391.84794 235.91222 391.80613 235.83446 391.75 235.78125 C 391.63138 235.66147 391.51829 235.54369 391.40625 235.4375 C 391.28763 235.31772 391.17453 235.19994 391.0625 235.09375 C 390.97623 235.00664 390.89589 234.92358 390.8125 234.84375 C 390.78121 234.81121 390.74995 234.78154 390.71875 234.75 C 390.62324 234.65947 390.53518 234.55514 390.4375 234.46875 C 390.2861 234.31129 390.14259 234.1664 390 234.03125 C 389.88138 233.91147 389.76828 233.79369 389.65625 233.6875 C 389.53763 233.56772 389.42454 233.44994 389.3125 233.34375 C 389.22623 233.25664 389.14589 233.17358 389.0625 233.09375 C 389.03121 233.06121 388.99995 233.03154 388.96875 233 C 388.84642 232.88405 388.71963 232.76544 388.59375 232.65625 C 388.47806 232.53971 388.35932 232.38487 388.25 232.28125 C 388.13138 232.16147 388.01829 232.04369 387.90625 231.9375 C 387.78763 231.81772 387.67454 231.69994 387.5625 231.59375 C 387.44388 231.47397 387.33079 231.35619 387.21875 231.25 C 387.13248 231.16289 387.05214 231.07983 386.96875 231 C 386.93746 230.96746 386.9062 230.93779 386.875 230.90625 C 386.75267 230.7903 386.62588 230.67169 386.5 230.5625 C 386.37588 230.43659 386.27338 230.29852 386.15625 230.1875 C 386.03763 230.06772 385.92453 229.94994 385.8125 229.84375 C 385.69388 229.72397 385.58078 229.60619 385.46875 229.5 C 385.38248 229.41289 385.30214 229.32983 385.21875 229.25 C 385.18746 229.21746 385.1562 229.18779 385.125 229.15625 C 385.02949 229.06572 384.94143 228.96139 384.84375 228.875 C 384.69235 228.71754 384.54884 228.57265 384.40625 228.4375 C 384.28763 228.31772 384.17454 228.19994 384.0625 228.09375 C 383.94388 227.97397 383.83079 227.85619 383.71875 227.75 C 383.63248 227.66289 383.55214 227.57983 383.46875 227.5 C 383.43746 227.46746 383.4062 227.43779 383.375 227.40625 C 383.28452 227.32049 383.18618 227.2383 383.09375 227.15625 C 383.07289 227.13456 383.05208 227.115 383.03125 227.09375 C 383.02035 227.08422 383.01092 227.07198 383 227.0625 C 382.8802 226.94141 382.76938 226.79473 382.65625 226.6875 C 382.53763 226.56772 382.42454 226.44994 382.3125 226.34375 C 382.19388 226.22397 382.08079 226.10619 381.96875 226 C 381.88248 225.91288 381.80214 225.82983 381.71875 225.75 C 381.68746 225.71746 381.6562 225.68779 381.625 225.65625 C 381.50267 225.5403 381.37588 225.42169 381.25 225.3125 C 381.13569 225.19747 381.0143 225.07116 380.90625 224.96875 C 380.78213 224.84284 380.67963 224.70477 380.5625 224.59375 C 380.44388 224.47397 380.33079 224.35619 380.21875 224.25 C 380.10013 224.13022 379.98703 224.01244 379.875 223.90625 C 379.78873 223.81913 379.70839 223.73608 379.625 223.65625 C 379.59371 223.62371 379.56245 223.59404 379.53125 223.5625 C 379.43574 223.47197 379.34768 223.36764 379.25 223.28125 C 379.17439 223.20261 379.07449 223.16665 379 223.09375 C 378.98546 223.07518 378.98346 223.04955 378.96875 223.03125 C 378.91044 222.97472 378.86863 222.89696 378.8125 222.84375 C 378.69388 222.72397 378.58079 222.60619 378.46875 222.5 C 378.35013 222.38022 378.23704 222.26244 378.125 222.15625 C 378.03873 222.06913 377.95839 221.98608 377.875 221.90625 C 377.84371 221.87371 377.81245 221.84404 377.78125 221.8125 C 377.68574 221.72197 377.59768 221.61764 377.5 221.53125 C 377.3486 221.37379 377.20509 221.2289 377.0625 221.09375 C 376.94388 220.97397 376.83079 220.85619 376.71875 220.75 C 376.60013 220.63022 376.48704 220.51245 376.375 220.40625 C 376.28873 220.31913 376.20839 220.23608 376.125 220.15625 C 376.09371 220.12371 376.06245 220.09404 376.03125 220.0625 C 375.90892 219.94655 375.78213 219.82794 375.65625 219.71875 C 375.54194 219.60372 375.42055 219.47741 375.3125 219.375 C 375.18838 219.24909 375.08588 219.11102 374.96875 219 C 374.85013 218.88022 374.73704 218.76244 374.625 218.65625 C 374.50638 218.53647 374.39329 218.41869 374.28125 218.3125 C 374.19498 218.22538 374.11464 218.14233 374.03125 218.0625 C 373.99996 218.02996 373.9687 218.00029 373.9375 217.96875 C 373.84199 217.87822 373.75393 217.77389 373.65625 217.6875 C 373.58064 217.60886 373.48074 217.5729 373.40625 217.5 C 373.39171 217.48143 373.38971 217.4558 373.375 217.4375 C 373.31669 217.38097 373.27488 217.30321 373.21875 217.25 C 373.10013 217.13022 372.98704 217.01244 372.875 216.90625 C 372.75638 216.78647 372.64329 216.66869 372.53125 216.5625 C 372.44498 216.47538 372.36464 216.39233 372.28125 216.3125 C 372.24996 216.27996 372.2187 216.25029 372.1875 216.21875 C 372.09199 216.12822 372.00393 216.02389 371.90625 215.9375 C 371.75485 215.78004 371.61134 215.63515 371.46875 215.5 C 371.35013 215.38022 371.23704 215.26244 371.125 215.15625 C 371.00638 215.03647 370.89329 214.91869 370.78125 214.8125 C 370.69498 214.72538 370.61464 214.64233 370.53125 214.5625 C 370.49996 214.52996 370.4687 214.50029 370.4375 214.46875 C 370.31517 214.3528 370.18838 214.23419 370.0625 214.125 C 369.94681 214.00846 369.82807 213.85362 369.71875 213.75 C 369.60013 213.63022 369.48704 213.51245 369.375 213.40625 C 369.25638 213.28647 369.14329 213.1687 369.03125 213.0625 C 368.91263 212.94272 368.79954 212.82495 368.6875 212.71875 C 368.60123 212.63163 368.52089 212.54858 368.4375 212.46875 C 368.40621 212.43621 368.37495 212.40654 368.34375 212.375 C 368.22142 212.25905 368.09463 212.14044 367.96875 212.03125 C 367.84463 211.90534 367.74213 211.76727 367.625 211.65625 C 367.50638 211.53647 367.39329 211.4187 367.28125 211.3125 C 367.16263 211.19272 367.04954 211.07494 366.9375 210.96875 C 366.85123 210.88163 366.77089 210.79858 366.6875 210.71875 C 366.65621 210.68621 366.62495 210.65654 366.59375 210.625 C 366.49824 210.53447 366.41018 210.43014 366.3125 210.34375 C 366.1611 210.18629 366.01759 210.0414 365.875 209.90625 C 365.75638 209.78647 365.64329 209.66869 365.53125 209.5625 C 365.41263 209.44272 365.29954 209.32494 365.1875 209.21875 C 365.10123 209.13163 365.02089 209.04858 364.9375 208.96875 C 364.90621 208.93621 364.87495 208.90654 364.84375 208.875 C 364.74824 208.78447 364.66018 208.68014 364.5625 208.59375 C 364.4111 208.43629 364.26759 208.29141 364.125 208.15625 C 364.00638 208.03646 363.89329 207.9187 363.78125 207.8125 C 363.66263 207.69271 363.54954 207.57495 363.4375 207.46875 C 363.35123 207.38163 363.27089 207.29858 363.1875 207.21875 C 363.15621 207.18621 363.12495 207.15654 363.09375 207.125 C 362.97142 207.00905 362.84463 206.89044 362.71875 206.78125 C 362.60444 206.66622 362.48305 206.53991 362.375 206.4375 C 362.25088 206.31159 362.14838 206.17352 362.03125 206.0625 C 361.91263 205.94271 361.79954 205.82495 361.6875 205.71875 C 361.56888 205.59896 361.45579 205.4812 361.34375 205.375 C 361.25748 205.28788 361.17714 205.20483 361.09375 205.125 C 361.06246 205.09246 361.0312 205.06279 361 205.03125 C 360.90449 204.94072 360.81643 204.8364 360.71875 204.75 C 360.64314 204.67136 360.54324 204.6354 360.46875 204.5625 C 360.45421 204.54393 360.45221 204.5183 360.4375 204.5 C 360.37919 204.44346 360.33738 204.36571 360.28125 204.3125 C 360.16263 204.19271 360.04954 204.07495 359.9375 203.96875 C 359.81888 203.84896 359.70579 203.7312 359.59375 203.625 C 359.50748 203.53788 359.42714 203.45483 359.34375 203.375 C 359.31246 203.34246 359.2812 203.31279 359.25 203.28125 C 359.15449 203.19072 359.06643 203.0864 358.96875 203 C 358.81735 202.84254 358.67385 202.69765 358.53125 202.5625 C 358.41263 202.44271 358.29954 202.32495 358.1875 202.21875 C 358.06888 202.09896 357.95579 201.9812 357.84375 201.875 C 357.75748 201.78788 357.67714 201.70483 357.59375 201.625 C 357.56246 201.59246 357.5312 201.56279 357.5 201.53125 C 357.37767 201.4153 357.25088 201.29669 357.125 201.1875 C 357.01069 201.07247 356.8893 200.94616 356.78125 200.84375 C 356.65713 200.71784 356.55463 200.57977 356.4375 200.46875 C 356.31888 200.34896 356.20579 200.2312 356.09375 200.125 C 355.97513 200.00521 355.86204 199.88745 355.75 199.78125 C 355.66373 199.69413 355.58339 199.61108 355.5 199.53125 C 355.46871 199.49871 355.43745 199.46904 355.40625 199.4375 C 355.28392 199.32155 355.15713 199.20294 355.03125 199.09375 C 354.98277 199.04457 354.92286 199.01558 354.875 198.96875 C 354.86046 198.95018 354.85846 198.92455 354.84375 198.90625 C 354.78544 198.84971 354.74363 198.77196 354.6875 198.71875 C 354.56888 198.59896 354.45579 198.4812 354.34375 198.375 C 354.22513 198.25521 354.11204 198.13745 354 198.03125 C 353.91373 197.94413 353.83339 197.86108 353.75 197.78125 C 353.71871 197.74871 353.68746 197.71904 353.65625 197.6875 C 353.56074 197.59697 353.47268 197.49265 353.375 197.40625 C 353.22359 197.24879 353.0801 197.10391 352.9375 196.96875 C 352.81888 196.84896 352.70579 196.7312 352.59375 196.625 C 352.47513 196.50521 352.36204 196.38745 352.25 196.28125 C 352.16373 196.19413 352.08339 196.11108 352 196.03125 C 351.96871 195.99871 351.93745 195.96904 351.90625 195.9375 C 351.78392 195.82155 351.65713 195.70294 351.53125 195.59375 C 351.41556 195.4772 351.29682 195.32237 351.1875 195.21875 C 351.06888 195.09896 350.95579 194.9812 350.84375 194.875 C 350.72513 194.75521 350.61204 194.63745 350.5 194.53125 C 350.41373 194.44413 350.33339 194.36108 350.25 194.28125 C 350.21871 194.24871 350.18745 194.21904 350.15625 194.1875 C 350.03392 194.07155 349.90713 193.95294 349.78125 193.84375 C 349.66694 193.72872 349.54555 193.60241 349.4375 193.5 C 349.31338 193.37409 349.21088 193.23602 349.09375 193.125 C 348.97513 193.00521 348.86204 192.88745 348.75 192.78125 C 348.63138 192.66146 348.51829 192.5437 348.40625 192.4375 C 348.31998 192.35038 348.23964 192.26733 348.15625 192.1875 C 348.12496 192.15496 348.09371 192.12529 348.0625 192.09375 C 347.96699 192.00322 347.87893 191.8989 347.78125 191.8125 C 347.62984 191.65503 347.48635 191.51016 347.34375 191.375 C 347.22513 191.25521 347.11204 191.13745 347 191.03125 C 346.88138 190.91146 346.76829 190.7937 346.65625 190.6875 C 346.56998 190.60038 346.48964 190.51733 346.40625 190.4375 C 346.37496 190.40496 346.34371 190.37529 346.3125 190.34375 C 346.21699 190.25322 346.12893 190.1489 346.03125 190.0625 C 345.87984 189.90503 345.73634 189.76016 345.59375 189.625 C 345.47513 189.50521 345.36204 189.38745 345.25 189.28125 C 345.13138 189.16146 345.01829 189.0437 344.90625 188.9375 C 344.81998 188.85038 344.73964 188.76733 344.65625 188.6875 C 344.62496 188.65496 344.59371 188.62529 344.5625 188.59375 C 344.44017 188.4778 344.31338 188.35919 344.1875 188.25 C 344.07319 188.13497 343.9518 188.00866 343.84375 187.90625 C 343.71963 187.78034 343.61713 187.64227 343.5 187.53125 C 343.38138 187.41146 343.26829 187.2937 343.15625 187.1875 C 343.03763 187.06771 342.92454 186.94995 342.8125 186.84375 C 342.72623 186.75663 342.6459 186.67358 342.5625 186.59375 C 342.53121 186.56121 342.49996 186.53154 342.46875 186.5 C 342.37324 186.40947 342.28518 186.30515 342.1875 186.21875 C 342.11189 186.14011 342.01199 186.10415 341.9375 186.03125 C 341.92296 186.01268 341.92096 185.98705 341.90625 185.96875 C 341.84794 185.91221 341.80613 185.83446 341.75 185.78125 C 341.63138 185.66146 341.51829 185.5437 341.40625 185.4375 C 341.28763 185.31771 341.17454 185.19995 341.0625 185.09375 C 340.97623 185.00663 340.89589 184.92358 340.8125 184.84375 C 340.78121 184.81121 340.74996 184.78154 340.71875 184.75 C 340.62324 184.65947 340.53518 184.55515 340.4375 184.46875 C 340.28609 184.31128 340.1426 184.16641 340 184.03125 C 339.88138 183.91146 339.76829 183.7937 339.65625 183.6875 C 339.53763 183.56771 339.42454 183.44995 339.3125 183.34375 C 339.22623 183.25663 339.14589 183.17358 339.0625 183.09375 C 339.03121 183.06121 338.99996 183.03154 338.96875 183 C 338.84642 182.88405 338.71963 182.76544 338.59375 182.65625 C 338.47806 182.5397 338.35932 182.38487 338.25 182.28125 C 338.13138 182.16146 338.01829 182.0437 337.90625 181.9375 C 337.78763 181.81771 337.67454 181.69995 337.5625 181.59375 C 337.44388 181.47396 337.33079 181.3562 337.21875 181.25 C 337.13248 181.16288 337.05215 181.07983 336.96875 181 C 336.93746 180.96746 336.90621 180.93779 336.875 180.90625 C 336.75267 180.7903 336.62588 180.67169 336.5 180.5625 C 336.37588 180.43659 336.27338 180.29852 336.15625 180.1875 C 336.03763 180.06771 335.92454 179.94995 335.8125 179.84375 C 335.69388 179.72396 335.58079 179.6062 335.46875 179.5 C 335.38248 179.41288 335.30214 179.32983 335.21875 179.25 C 335.18746 179.21746 335.15621 179.18779 335.125 179.15625 C 335.02949 179.06572 334.94143 178.9614 334.84375 178.875 C 334.69234 178.71753 334.54885 178.57266 334.40625 178.4375 C 334.28763 178.31771 334.17454 178.19995 334.0625 178.09375 C 333.94388 177.97396 333.83079 177.8562 333.71875 177.75 C 333.63248 177.66288 333.55215 177.57983 333.46875 177.5 C 333.43746 177.46746 333.40621 177.43779 333.375 177.40625 C 333.28452 177.32049 333.18618 177.2383 333.09375 177.15625 C 333.07289 177.13456 333.05208 177.115 333.03125 177.09375 C 333.02035 177.08422 333.01092 177.07198 333 177.0625 C 332.8802 176.94141 332.76938 176.79473 332.65625 176.6875 C 332.53763 176.56771 332.42454 176.44995 332.3125 176.34375 C 332.19388 176.22396 332.08079 176.1062 331.96875 176 C 331.88248 175.91288 331.80215 175.82983 331.71875 175.75 C 331.68746 175.71746 331.65621 175.68779 331.625 175.65625 C 331.50267 175.5403 331.37588 175.42169 331.25 175.3125 C 331.13569 175.19747 331.0143 175.07116 330.90625 174.96875 C 330.78213 174.84284 330.67963 174.70477 330.5625 174.59375 C 330.44388 174.47396 330.33079 174.3562 330.21875 174.25 C 330.10013 174.13021 329.98704 174.01245 329.875 173.90625 C 329.78873 173.81913 329.7084 173.73608 329.625 173.65625 C 329.59371 173.62371 329.56246 173.59404 329.53125 173.5625 C 329.43574 173.47197 329.34768 173.36765 329.25 173.28125 C 329.17439 173.20261 329.07449 173.16665 329 173.09375 C 328.98546 173.07518 328.98346 173.04955 328.96875 173.03125 C 328.91044 172.97471 328.86863 172.89696 328.8125 172.84375 C 328.69388 172.72396 328.58079 172.6062 328.46875 172.5 C 328.35013 172.38021 328.23704 172.26245 328.125 172.15625 C 328.03873 172.06913 327.9584 171.98608 327.875 171.90625 C 327.84371 171.87371 327.81246 171.84404 327.78125 171.8125 C 327.68574 171.72197 327.59768 171.61765 327.5 171.53125 C 327.34859 171.37378 327.2051 171.22891 327.0625 171.09375 C 326.94388 170.97396 326.83079 170.8562 326.71875 170.75 C 326.60013 170.63021 326.48704 170.51245 326.375 170.40625 C 326.28873 170.31913 326.2084 170.23608 326.125 170.15625 C 326.09371 170.12371 326.06246 170.09404 326.03125 170.0625 C 325.90892 169.94655 325.78213 169.82794 325.65625 169.71875 C 325.54194 169.60372 325.42055 169.47741 325.3125 169.375 C 325.18838 169.24909 325.08588 169.11102 324.96875 169 C 324.85013 168.88021 324.73704 168.76245 324.625 168.65625 C 324.50638 168.53646 324.39329 168.4187 324.28125 168.3125 C 324.19498 168.22538 324.11465 168.14233 324.03125 168.0625 C 323.99996 168.02996 323.96871 168.00029 323.9375 167.96875 C 323.84199 167.87822 323.75393 167.7739 323.65625 167.6875 C 323.58064 167.60886 323.48075 167.5729 323.40625 167.5 C 323.39171 167.48143 323.38971 167.4558 323.375 167.4375 C 323.31668 167.38096 323.27489 167.30321 323.21875 167.25 C 323.10012 167.13021 322.98704 167.01245 322.875 166.90625 C 322.75637 166.78646 322.64329 166.6687 322.53125 166.5625 C 322.44498 166.47538 322.36465 166.39233 322.28125 166.3125 C 322.24996 166.27996 322.21871 166.25029 322.1875 166.21875 C 322.09199 166.12822 322.00393 166.0239 321.90625 165.9375 C 321.78722 165.81371 321.67722 165.70357 321.5625 165.59375 C 321.44354 165.47002 321.33342 165.35977 321.21875 165.25 C 321.09979 165.12627 320.98967 165.01602 320.875 164.90625 C 320.75604 164.78252 320.64592 164.67227 320.53125 164.5625 C 320.49996 164.52996 320.46871 164.50029 320.4375 164.46875 C 320.3526 164.38828 320.27412 164.29595 320.1875 164.21875 C 320.06632 164.09271 319.92915 163.95532 319.8125 163.84375 C 319.69354 163.72002 319.58342 163.60977 319.46875 163.5 C 319.34979 163.37627 319.23967 163.26602 319.125 163.15625 C 319.00604 163.03252 318.89592 162.92227 318.78125 162.8125 C 318.66229 162.68877 318.55217 162.57852 318.4375 162.46875 C 318.40621 162.43621 318.37496 162.40654 318.34375 162.375 C 318.24824 162.28447 318.16018 162.18015 318.0625 162.09375 C 317.94347 161.96996 317.83348 161.85982 317.71875 161.75 C 317.59979 161.62627 317.48967 161.51602 317.375 161.40625 C 317.25604 161.28252 317.14592 161.17227 317.03125 161.0625 C 316.91229 160.93877 316.80217 160.82852 316.6875 160.71875 C 316.65621 160.68621 316.62496 160.65654 316.59375 160.625 C 316.49824 160.53447 316.41018 160.43015 316.3125 160.34375 C 316.19347 160.21996 316.08347 160.10982 315.96875 160 C 315.84979 159.87627 315.73967 159.76602 315.625 159.65625 C 315.50604 159.53252 315.39592 159.42227 315.28125 159.3125 C 315.16229 159.18877 315.05217 159.07852 314.9375 158.96875 C 314.90621 158.93621 314.87496 158.90654 314.84375 158.875 C 314.74824 158.78447 314.66018 158.68015 314.5625 158.59375 C 314.44347 158.46996 314.33347 158.35982 314.21875 158.25 C 314.09979 158.12627 313.98967 158.01602 313.875 157.90625 C 313.75604 157.78252 313.64592 157.67227 313.53125 157.5625 C 313.41228 157.43877 313.30217 157.32852 313.1875 157.21875 C 313.15621 157.18621 313.12496 157.15654 313.09375 157.125 C 313.00885 157.04453 312.93037 156.9522 312.84375 156.875 C 312.71841 156.74465 312.58907 156.61491 312.46875 156.5 C 312.34972 156.37621 312.23973 156.26607 312.125 156.15625 C 312.00603 156.03252 311.89592 155.92227 311.78125 155.8125 C 311.66228 155.68877 311.55217 155.57852 311.4375 155.46875 C 311.31854 155.34502 311.20842 155.23477 311.09375 155.125 C 311.06246 155.09246 311.03121 155.06279 311 155.03125 C 310.90449 154.94072 310.81643 154.8364 310.71875 154.75 C 310.64314 154.67136 310.54325 154.6354 310.46875 154.5625 C 310.45421 154.54393 310.45221 154.5183 310.4375 154.5 C 310.41087 154.47418 310.40124 154.43137 310.375 154.40625 C 310.25604 154.28252 310.14592 154.17227 310.03125 154.0625 C 309.91229 153.93877 309.80217 153.82852 309.6875 153.71875 C 309.56854 153.59502 309.45842 153.48477 309.34375 153.375 C 309.31246 153.34246 309.28121 153.31279 309.25 153.28125 C 309.15449 153.19072 309.06643 153.0864 308.96875 153 C 308.84972 152.87621 308.73972 152.76607 308.625 152.65625 C 308.50603 152.53252 308.39592 152.42227 308.28125 152.3125 C 308.16228 152.18877 308.05217 152.07852 307.9375 151.96875 C 307.81853 151.84502 307.70842 151.73477 307.59375 151.625 C 307.56246 151.59246 307.53121 151.56279 307.5 151.53125 C 307.4151 151.45078 307.33662 151.35845 307.25 151.28125 C 307.12466 151.1509 306.99532 151.02116 306.875 150.90625 C 306.75597 150.78246 306.64598 150.67232 306.53125 150.5625 C 306.41228 150.43877 306.30217 150.32852 306.1875 150.21875 C 306.06853 150.09502 305.95842 149.98477 305.84375 149.875 C 305.72478 149.75127 305.61467 149.64102 305.5 149.53125 C 305.46871 149.49871 305.43746 149.46904 305.40625 149.4375 C 305.31074 149.34697 305.22268 149.24265 305.125 149.15625 C 305.04939 149.07761 304.9495 149.04166 304.875 148.96875 C 304.86046 148.95018 304.85846 148.92455 304.84375 148.90625 C 304.81712 148.88043 304.80749 148.83762 304.78125 148.8125 C 304.66228 148.68877 304.55217 148.57852 304.4375 148.46875 C 304.31853 148.34502 304.20842 148.23477 304.09375 148.125 C 303.97479 148.00127 303.86467 147.89102 303.75 147.78125 C 303.71871 147.74871 303.68746 147.71904 303.65625 147.6875 C 303.56074 147.59697 303.47268 147.49265 303.375 147.40625 C 303.25597 147.28246 303.14598 147.17232 303.03125 147.0625 C 302.91228 146.93877 302.80217 146.82852 302.6875 146.71875 C 302.56853 146.59502 302.45842 146.48477 302.34375 146.375 C 302.22478 146.25127 302.11467 146.14102 302 146.03125 C 301.96871 145.99871 301.93746 145.96904 301.90625 145.9375 C 301.82135 145.85703 301.74287 145.7647 301.65625 145.6875 C 301.53506 145.56146 301.3979 145.42407 301.28125 145.3125 C 301.16228 145.18877 301.05217 145.07852 300.9375 144.96875 C 300.81853 144.84502 300.70842 144.73477 300.59375 144.625 C 300.47478 144.50127 300.36467 144.39102 300.25 144.28125 C 300.21871 144.24871 300.18746 144.21904 300.15625 144.1875 C 300.07135 144.10703 299.99287 144.0147 299.90625 143.9375 C 299.78091 143.80715 299.65157 143.67741 299.53125 143.5625 C 299.41222 143.43871 299.30223 143.32857 299.1875 143.21875 C 299.06853 143.09502 298.95842 142.98477 298.84375 142.875 C 298.72478 142.75127 298.61467 142.64102 298.5 142.53125 C 298.38103 142.40752 298.27092 142.29727 298.15625 142.1875 C 298.12496 142.15496 298.09371 142.12529 298.0625 142.09375 C 297.96699 142.00322 297.87893 141.8989 297.78125 141.8125 C 297.66222 141.68871 297.55223 141.57857 297.4375 141.46875 C 297.31853 141.34502 297.20842 141.23477 297.09375 141.125 C 296.97478 141.00127 296.86467 140.89103 296.75 140.78125 C 296.63103 140.65752 296.52092 140.54728 296.40625 140.4375 C 296.37496 140.40496 296.34371 140.37529 296.3125 140.34375 C 296.21699 140.25322 296.12893 140.1489 296.03125 140.0625 C 295.91222 139.93871 295.80223 139.82858 295.6875 139.71875 C 295.56853 139.59502 295.45842 139.48477 295.34375 139.375 C 295.22478 139.25127 295.11467 139.14102 295 139.03125 C 294.88103 138.90752 294.77092 138.79727 294.65625 138.6875 C 294.62496 138.65496 294.59371 138.62529 294.5625 138.59375 C 294.4776 138.51328 294.39912 138.42095 294.3125 138.34375 C 294.18716 138.2134 294.05782 138.08366 293.9375 137.96875 C 293.81847 137.84496 293.70848 137.73482 293.59375 137.625 C 293.47478 137.50127 293.36467 137.39102 293.25 137.28125 C 293.13103 137.15752 293.02092 137.04727 292.90625 136.9375 C 292.78728 136.81377 292.67717 136.70352 292.5625 136.59375 C 292.53121 136.56121 292.49996 136.53154 292.46875 136.5 C 292.37324 136.40947 292.28518 136.30515 292.1875 136.21875 C 292.11189 136.14011 292.012 136.10416 291.9375 136.03125 C 291.92296 136.01268 291.92096 135.98705 291.90625 135.96875 C 291.87962 135.94293 291.86999 135.90012 291.84375 135.875 C 291.72478 135.75127 291.61467 135.64102 291.5 135.53125 C 291.38103 135.40752 291.27092 135.29727 291.15625 135.1875 C 291.03728 135.06377 290.92717 134.95352 290.8125 134.84375 C 290.78121 134.81121 290.74996 134.78154 290.71875 134.75 C 290.62324 134.65947 290.53518 134.55515 290.4375 134.46875 C 290.31847 134.34496 290.20848 134.23483 290.09375 134.125 C 289.97478 134.00127 289.86467 133.89103 289.75 133.78125 C 289.63103 133.65752 289.52092 133.54728 289.40625 133.4375 C 289.28728 133.31377 289.17717 133.20353 289.0625 133.09375 C 289.03121 133.06121 288.99996 133.03154 288.96875 133 C 288.88385 132.91953 288.80537 132.8272 288.71875 132.75 C 288.59756 132.62396 288.4604 132.48657 288.34375 132.375 C 288.22478 132.25127 288.11467 132.14103 288 132.03125 C 287.88103 131.90752 287.77092 131.79728 287.65625 131.6875 C 287.53728 131.56377 287.42717 131.45352 287.3125 131.34375 C 287.19353 131.22002 287.08342 131.10977 286.96875 131 C 286.93746 130.96746 286.90621 130.93779 286.875 130.90625 C 286.77949 130.81572 286.69143 130.7114 286.59375 130.625 C 286.47472 130.50121 286.36473 130.39107 286.25 130.28125 C 286.13103 130.15752 286.02092 130.04727 285.90625 129.9375 C 285.78728 129.81377 285.67717 129.70352 285.5625 129.59375 C 285.44353 129.47002 285.33342 129.35977 285.21875 129.25 C 285.18746 129.21746 285.15621 129.18779 285.125 129.15625 C 285.02949 129.06572 284.94143 128.9614 284.84375 128.875 C 284.72472 128.75121 284.61473 128.64108 284.5 128.53125 C 284.38103 128.40752 284.27092 128.29728 284.15625 128.1875 C 284.03728 128.06377 283.92717 127.95353 283.8125 127.84375 C 283.69353 127.72002 283.58342 127.60978 283.46875 127.5 C 283.43746 127.46746 283.40621 127.43779 283.375 127.40625 C 283.28452 127.32048 283.18618 127.2383 283.09375 127.15625 C 283.07289 127.13456 283.05208 127.115 283.03125 127.09375 C 283.02035 127.08422 283.01092 127.07198 283 127.0625 C 282.91139 126.97293 282.83558 126.86313 282.75 126.78125 C 282.63103 126.65752 282.52092 126.54728 282.40625 126.4375 C 282.28728 126.31377 282.17717 126.20353 282.0625 126.09375 C 281.94353 125.97002 281.83342 125.85978 281.71875 125.75 C 281.68746 125.71746 281.65621 125.68779 281.625 125.65625 C 281.5401 125.57578 281.46162 125.48345 281.375 125.40625 C 281.24966 125.27589 281.12032 125.14616 281 125.03125 C 280.88097 124.90746 280.77098 124.79733 280.65625 124.6875 C 280.53728 124.56377 280.42717 124.45353 280.3125 124.34375 C 280.19353 124.22002 280.08342 124.10978 279.96875 124 C 279.84978 123.87627 279.73967 123.76603 279.625 123.65625 C 279.59371 123.62371 279.56246 123.59404 279.53125 123.5625 C 279.43574 123.47197 279.34768 123.36765 279.25 123.28125 C 279.17439 123.20261 279.0745 123.16666 279 123.09375 C 278.98546 123.07518 278.98346 123.04955 278.96875 123.03125 C 278.94212 123.00543 278.93249 122.96262 278.90625 122.9375 C 278.78728 122.81377 278.67717 122.70352 278.5625 122.59375 C 278.44353 122.47002 278.33342 122.35978 278.21875 122.25 C 278.09978 122.12627 277.98967 122.01603 277.875 121.90625 C 277.84371 121.87371 277.81246 121.84404 277.78125 121.8125 C 277.68574 121.72197 277.59768 121.61765 277.5 121.53125 C 277.38097 121.40746 277.27098 121.29733 277.15625 121.1875 C 277.03728 121.06377 276.92717 120.95353 276.8125 120.84375 C 276.69353 120.72002 276.58342 120.60978 276.46875 120.5 C 276.4363 120.46626 276.40735 120.43892 276.375 120.40625 C 276.33254 120.36601 276.29289 120.32067 276.25 120.28125 C 276.20711 120.24183 276.16832 120.19486 276.125 120.15625 C 276.11961 120.15064 276.09914 120.16183 276.09375 120.15625 C 276.07475 120.13372 276.05043 120.11586 276.03125 120.09375 C 276.02622 120.08865 276.03627 120.06758 276.03125 120.0625 C 275.99945 120.03236 275.96955 119.99843 275.9375 119.96875 C 275.88751 119.91378 275.83154 119.86481 275.78125 119.8125 C 275.7458 119.7785 275.6908 119.7515 275.65625 119.71875 C 275.54193 119.60371 275.42055 119.47742 275.3125 119.375 C 271.04507 115.33014 264.59466 115.45842 259.40625 115.40625 C 258.55558 115.3977 257.73736 115.39298 256.96875 115.40625 z "
         id="path4079" />
      <g
         id="g8222"
         transform="translate(1016.4294,-163.46645)">
        <g
           id="g3877"
           style="display:inline"
           transform="matrix(0.40681414,0,0,0.40681414,-916.71753,244.94866)">
          <path
             id="path3656-2"
             transform="translate(-86.8926,-71.576787)"
             d="m 473.4375,154.9375 c -13.22545,0.22828 -21.83494,2.01052 -30.46875,8.5 -4.50371,3.38515 -8.05982,11.42935 -10.1875,17.21875 l -169.375,559.09375 -135.4375,0 c -13.54066,0 -24.4375,11.08646 -24.4375,24.84375 l 0,54.21875 c 0,13.75729 10.89684,24.84375 24.4375,24.84375 l 688.5625,0 c 13.54066,0 24.4375,-11.08646 24.4375,-24.84375 l 0,-54.21875 c 0,-13.75729 -10.89684,-24.84375 -24.4375,-24.84375 l -119.125,0 L 522.4375,170.125 c -0.72722,-2.36762 -2.47286,-4.10848 -3.875,-5.4375 -10.48989,-9.94276 -26.40249,-9.62175 -39.15625,-9.75 -2.09106,-0.021 -4.0794,-0.0326 -5.96875,0 z"
             style="fill:#ffffff;fill-opacity:1;fill-rule:evenodd;stroke:none"
             inkscape:connector-curvature="0" />
        </g>
      </g>
    </g>
  </g>
  <g
     id="g4076"
     transform="matrix(1.0020367,0,0,1.0020367,-606.7933,-355.72998)">
    <g
       transform="translate(-926.66758,684.38448)"
       id="g4038">
      <path
         inkscape:connector-curvature="0"
         style="opacity:0.5;color:#000000;fill:url(#linearGradient3920);fill-opacity:1;fill-rule:nonzero;stroke:none;stroke-width:1.5;marker:none;visibility:visible;display:inline;overflow:visible;enable-background:accumulate"
         d="m 1650.4994,-310.41615 c -54.4767,0 -98.3125,43.83583 -98.3125,98.3125 l 0,275.343747 c 0,54.476673 43.8358,98.343753 98.3125,98.343753 l 2.9375,0 c -53.3225,0 -96.25,-42.9275 -96.25,-96.250003 l 0,-269.499997 c 0,-53.3225 42.9275,-96.25 96.25,-96.25 l 269.5001,0 c 53.3225,0 96.25,42.9275 96.25,96.25 l 0,269.499997 c 0,53.322503 -42.9275,96.250003 -96.25,96.250003 l 2.9062,0 c 54.4767,0 98.3438,-43.86708 98.3438,-98.343753 l 0,-275.343747 c 0,-54.47667 -43.8671,-98.3125 -98.3438,-98.3125 l -275.3438,0 z"
         id="rect6809-2" />
      <path
         id="path3981"
         d="m 1650.4994,161.58385 c -54.4767,0 -98.3125,-43.83583 -98.3125,-98.312503 l 0,-275.343747 c 0,-54.47667 43.8358,-98.34375 98.3125,-98.34375 l 2.9375,0 c -53.3225,0 -96.25,42.9275 -96.25,96.25 l 0,269.499997 c 0,53.322503 42.9275,96.250003 96.25,96.250003 l 269.5001,0 c 53.3225,0 96.25,-42.9275 96.25,-96.250003 l 0,-269.499997 c 0,-53.3225 -42.9275,-96.25 -96.25,-96.25 l 2.9062,0 c 54.4767,0 98.3438,43.86708 98.3438,98.34375 l 0,275.343747 c 0,54.476673 -43.8671,98.312503 -98.3438,98.312503 l -275.3438,0 z"
         style="opacity:0.2;color:#000000;fill:url(#linearGradient3922);fill-opacity:1;fill-rule:nonzero;stroke:none;stroke-width:1.5;marker:none;visibility:visible;display:inline;overflow:visible;enable-background:accumulate"
         inkscape:connector-curvature="0" />
    </g>
  </g>
  <g
     id="g3950"
     transform="matrix(1.0020367,0,0,1.0020367,-0.0407333,-1.0407352)" />
  <g
     transform="matrix(0.71435537,0,0,0.71435537,-375.48826,176.56699)"
     id="g3097">
    <path
       id="path2843"
       transform="matrix(1.3998635,0,0,1.3998635,525.63231,-247.16968)"
       d="M 490.5625 95.75 C 368.84313 95.935045 148.22288 95.840577 22.40625 95.84375 C 20.851483 102.81766 20 110.07544 20 117.53125 L 20 193.875 C 159.06454 194.36854 351.3198 194.1304 492.96875 194.125 L 492.96875 117.53125 C 492.96875 110.04375 492.13015 102.75112 490.5625 95.75 z M 183.375 293.6875 C 130.87965 293.68452 76.991657 293.80732 20 294.0625 L 20 386.90625 C 211.76187 386.64294 302.43305 386.81362 492.96875 386.6875 L 492.96875 294.4375 C 383.67462 294.08252 284.54313 293.69324 183.375 293.6875 z "
       style="fill:#ffffff;fill-opacity:1;fill-rule:evenodd;stroke:none;display:inline;opacity:0" />
  </g>
  <g
     transform="matrix(1.092577,0,0,1.0925926,-23.696353,-23.70371)"
     id="g8016" />
</svg>
